<svg width="32" height="32" viewBox="0 0 32 32" fill="none" xmlns="http://www.w3.org/2000/svg">
<rect width="32" height="32" fill="black" fill-opacity="0"/>
<rect width="26.3331" height="20.9998" fill="black" fill-opacity="0" transform="translate(2.16699 4.8335)"/>
<path fill-rule="evenodd" clip-rule="evenodd" d="M25.1982 7.55621C23.0307 5.3836 19.1025 4.53473 15.4916 4.9256C11.8847 5.31598 8.33442 6.9754 7.07905 10.1202L6.88276 10.6119L7.19819 10.7173C5.92084 12.0926 4.00092 14.6636 2.87787 17.8358C2.75043 17.8585 2.61567 17.9087 2.49409 18.0079C2.29487 18.17 2.21235 18.3951 2.18256 18.5992C2.15375 18.7994 2.16743 19.0259 2.20307 19.2669C2.34321 20.2078 2.91987 21.9254 3.95209 24.8343C4.16401 25.4315 4.73041 25.8333 5.36567 25.8333H24.3632C24.8124 25.8333 25.2597 25.6336 25.539 25.2405C26.728 23.5679 28.0732 20.6129 28.4169 17.3555C28.7617 14.0853 28.0991 10.4634 25.1982 7.55621ZM3.87495 18.0189C4.69672 18.3909 6.74995 19.0535 9.27387 19.0535C10.5541 19.0535 11.3613 18.6902 11.8842 18.2781C12.4155 17.8594 12.6928 17.3602 12.8632 17.0184L14.0165 14.7064C14.1191 14.5008 14.1787 14.3206 14.208 14.1634C14.2343 14.0198 14.2358 13.8956 14.2221 13.7884C14.1933 13.565 14.0932 13.3721 13.9365 13.201C13.6069 12.8411 13.059 12.6148 12.6357 12.5298L12.6049 12.5237L12.5756 12.514L8.24799 11.0679C7.1269 12.1905 5.06342 14.7596 3.87495 18.0189ZM8.27338 10.022L12.8637 11.556C13.4003 11.6688 14.1581 11.9622 14.6743 12.5257C14.9453 12.8218 15.1547 13.1998 15.2138 13.6614C15.2729 14.1219 15.1762 14.6214 14.9116 15.1529L13.7578 17.4649C13.666 17.6495 13.5361 17.8958 13.3491 18.1634C13.1445 18.4556 12.8715 18.7733 12.5034 19.0633C11.791 19.6251 10.7612 20.0535 9.27387 20.0535C6.47407 20.0535 4.19868 19.2906 3.32758 18.8665C3.26215 18.8489 3.20942 18.8372 3.16694 18.8299C3.16645 18.8965 3.17329 18.9908 3.19233 19.1194C3.3144 19.9398 3.84516 21.5428 4.89448 24.4998C4.96528 24.6995 5.15522 24.8333 5.36567 24.8333H24.3632C24.5219 24.8333 24.6508 24.7642 24.7241 24.6614C25.8217 23.1172 27.0986 20.3235 27.4223 17.2505C27.7451 14.19 27.1215 10.8997 24.4902 8.26251C22.621 6.38922 19.0522 5.5462 15.5991 5.91974C12.3691 6.26935 9.46772 7.6546 8.24213 9.98321L8.27338 10.022Z" fill="white"/>
</svg>
