<svg xmlns="http://www.w3.org/2000/svg" viewBox="0 0 480 310.01"><defs><style>.cls-1{isolation:isolate;}.cls-10,.cls-11,.cls-12,.cls-14,.cls-17,.cls-18,.cls-2,.cls-3,.cls-4,.cls-5,.cls-6,.cls-7,.cls-8,.cls-9{fill:none;}.cls-15,.cls-2{stroke:#363c66;}.cls-18,.cls-2{stroke-linecap:round;stroke-linejoin:round;}.cls-10,.cls-11,.cls-12,.cls-15,.cls-2,.cls-3,.cls-4,.cls-5,.cls-6,.cls-7,.cls-8,.cls-9{stroke-width:0.5px;}.cls-3,.cls-4{stroke:#8cbaff;}.cls-10,.cls-11,.cls-12,.cls-15,.cls-17,.cls-3,.cls-4,.cls-5,.cls-6,.cls-7,.cls-8,.cls-9{stroke-miterlimit:10;}.cls-4{stroke-dasharray:2.55 3.4;}.cls-5,.cls-6{stroke:#67e2e9;}.cls-6{stroke-dasharray:2.55 3.41;}.cls-7,.cls-8{stroke:#98a0e0;}.cls-8{stroke-dasharray:2.55 3.4;}.cls-10,.cls-9{stroke:#fedd66;}.cls-10{stroke-dasharray:2.55 3.4;}.cls-11,.cls-12{stroke:#f267a1;}.cls-12{stroke-dasharray:2.54 3.39;}.cls-13,.cls-20{fill:#cdced9;}.cls-13,.cls-16,.cls-19,.cls-21,.cls-22{mix-blend-mode:multiply;}.cls-15{fill:#fff;}.cls-16{fill:#fee999;}.cls-17,.cls-18{stroke:#fff;}.cls-18{stroke-width:2px;}.cls-19{fill:#67e2e9;}.cls-19,.cls-21,.cls-22{opacity:0.5;}.cls-21{fill:#fbcce0;}.cls-22{fill:#98a0e0;}</style></defs><title>add contactAsset 3</title><g class="cls-1"><g id="Layer_2" data-name="Layer 2"><g id="Layer_1-2" data-name="Layer 1"><line class="cls-2" x1="0.25" y1="309.76" x2="479.75" y2="309.76"/><path class="cls-3" d="M96,309.63l-.62-1.11"/><path class="cls-4" d="M93.78,305.54a174.84,174.84,0,0,1-20.62-82.65c0-96.87,78.4-175.4,175.11-175.4S423.39,126,423.39,222.89a174.88,174.88,0,0,1-21.48,84.25"/><path class="cls-3" d="M401.08,308.63l-.63,1.11"/><path class="cls-5" d="M79.76,309.61l-.63-1.11"/><path class="cls-6" d="M77.5,305.52A193.59,193.59,0,0,1,54.44,213.6c0-107.23,86.78-194.15,193.83-194.15S442.11,106.37,442.11,213.6a193.57,193.57,0,0,1-23.93,93.53"/><path class="cls-5" d="M417.35,308.62l-.63,1.11"/><path class="cls-7" d="M68.62,309.59,68,308.48"/><path class="cls-8" d="M66.35,305.5a206.34,206.34,0,0,1-24.72-98.26c0-114.32,92.52-207,206.64-207s206.65,92.67,206.65,207a206.3,206.3,0,0,1-25.61,99.88"/><path class="cls-7" d="M428.48,308.61l-.63,1.11"/><path class="cls-9" d="M102.3,309.65l-.63-1.12"/><path class="cls-10" d="M100.05,305.55a167.65,167.65,0,0,1-19.68-79.07c0-92.89,75.17-168.19,167.9-168.19s167.91,75.3,167.91,168.19a167.59,167.59,0,0,1-20.54,80.67"/><path class="cls-9" d="M394.82,308.64l-.63,1.11"/><path class="cls-11" d="M119.87,309.69l-.63-1.11"/><path class="cls-12" d="M117.62,305.6a147.57,147.57,0,0,1-17.05-69.07c0-81.71,66.13-147.94,147.7-147.94S396,154.82,396,236.53a147.49,147.49,0,0,1-17.9,70.65"/><path class="cls-11" d="M377.25,308.67c-.2.37-.41.74-.62,1.11"/><ellipse class="cls-13" cx="408.12" cy="257.48" rx="33.38" ry="33.43"/><path class="cls-14" d="M418.51,242.66a5.45,5.45,0,0,0,3.86-5,31.52,31.52,0,0,1-2.92,3.73A8.31,8.31,0,0,0,418.51,242.66Z"/><ellipse class="cls-15" cx="408.12" cy="251.21" rx="33.38" ry="33.43"/><ellipse class="cls-16" cx="377.53" cy="261.39" rx="13.09" ry="13.06"/><ellipse class="cls-17" cx="377.53" cy="261.39" rx="13.09" ry="13.06"/><line class="cls-18" x1="377.53" y1="255.07" x2="377.53" y2="267.71"/><line class="cls-18" x1="383.87" y1="261.39" x2="371.2" y2="261.39"/><ellipse class="cls-13" cx="92.98" cy="257.48" rx="33.38" ry="33.43"/><ellipse class="cls-15" cx="94.32" cy="249.94" rx="33.38" ry="33.43"/><ellipse class="cls-19" cx="60.66" cy="261.39" rx="13.39" ry="13.06"/><ellipse class="cls-17" cx="60.66" cy="261.39" rx="13.39" ry="13.06"/><line class="cls-18" x1="60.66" y1="255.07" x2="60.66" y2="267.71"/><line class="cls-18" x1="67.15" y1="261.39" x2="54.18" y2="261.39"/><ellipse class="cls-13" cx="355.36" cy="122.15" rx="33.38" ry="33.43"/><path class="cls-20" d="M377.77,134s.06,0,0-.05Z"/><ellipse class="cls-15" cx="354.68" cy="115.29" rx="33.38" ry="33.43"/><ellipse class="cls-21" cx="323.04" cy="126.02" rx="13.39" ry="13.06"/><ellipse class="cls-17" cx="323.04" cy="126.02" rx="13.39" ry="13.06"/><line class="cls-18" x1="323.04" y1="119.7" x2="323.04" y2="132.34"/><line class="cls-18" x1="329.52" y1="126.02" x2="316.56" y2="126.02"/><ellipse class="cls-13" cx="154.36" cy="122.15" rx="33.38" ry="33.43"/><ellipse class="cls-15" cx="155.52" cy="115.32" rx="33.38" ry="33.43"/><ellipse class="cls-22" cx="122.14" cy="126.02" rx="13.39" ry="13.06"/><ellipse class="cls-17" cx="122.14" cy="126.02" rx="13.39" ry="13.06"/><line class="cls-18" x1="122.14" y1="119.7" x2="122.14" y2="132.34"/><line class="cls-18" x1="128.62" y1="126.02" x2="115.66" y2="126.02"/><path class="cls-20" d="M147.82,87.39c-11.89,3.84-15.78,20.39-6.88,29.44a5.83,5.83,0,0,0,5.23,1.83h0c2.61,4.23-1.53,12.52-3.93,15.13-1.32,1.44,1.44,4.48,3.44,6.48,3.08,3.08,9.28,4.92,13,3.83a4.88,4.88,0,0,0,3.47-6.55c-.83-2.22-2-3.3-2.71-4.94a9.58,9.58,0,0,1,.21-6.7c2.38.56,3.86.64,4.83.21,3.09-1.36,5.86-11.77,5-14.17a9.8,9.8,0,0,1-.92-3c0-1.2,1.79-1.11.87-4.62a.43.43,0,0,1,0-.11,4.08,4.08,0,0,0,2.36-2C174.69,92,159.75,83.54,147.82,87.39Z"/><path class="cls-20" d="M373,91.56a5.9,5.9,0,0,0-9.91,3.58c-14-5.21-21.67,9.24-19.54,11.37a9.69,9.69,0,0,0-.69,4.53c.28.85.69,1.5.57,2.09-.16.85-1.31,2.38-1.28,4.46a18.75,18.75,0,0,0,1,5.53,9.18,9.18,0,0,1-4.59,4.35,10.52,10.52,0,0,0,5.58-1.67l0-.06c.25.61.51,1.22.78,1.85a4.47,4.47,0,0,0,5.08,2.58,23.88,23.88,0,0,0,2.64-.86,12.76,12.76,0,0,1,.72,4.5c-.29,3.42-2.49,3.62-2.95,6.35-.43,2.54,2.19,4.27,2.19,4.27,4.66.61,13.17-4,13.84-9,.17-1.26-4.73-3.51-4-10.2.33-2,1.44-2.88,2.72-2.88a7.47,7.47,0,0,0,7.32,3c-2.85-.43-5.25-2.27-4.81-5.73.49-3.81,6.78-10.35,2.31-18.06C374.71,102.1,376.74,94.75,373,91.56Z"/><path class="cls-20" d="M428.76,243.88c2.6-2,2.55-6.74-.52-7.88,2.16-3.41-1.68-8.26-5.69-6.54a4.44,4.44,0,0,0-7.6-2.85c-.94-3.24-6.32-3.67-7.64-.88-3.15-1.68-7.45.6-7.78,3.67-3-.51-4.52,3.36-2.86,5.38-2.51.86-2.7,4.51-.43,5.93-.15,1.58-1.92,5.44-1,6.6,2.65,3.47-2.54,5.21-2.54,7.61,0,1.82,3.06,2.57,3.39,3.33.26,1.1-.44,7.07,1.63,8.07,3.34,1.6,8.29-.87,10.66-1.49a6.7,6.7,0,0,1,1,5.9c-1.19,1.82-3.45,6-.11,6.72,6.33,1.42,19.2-7.08,14.48-10.05A12.12,12.12,0,0,1,419,256.69c2.65,1.59,6.86-1.09,6.59-4.11C429.4,252.58,431.41,246.52,428.76,243.88Z"/><path class="cls-20" d="M109.09,243.5c-.53-1.33.26-3.25-.19-7.06a3,3,0,0,0,1.5-1.83c.6-2.1-.72-6.33-5.87-9.54a22.07,22.07,0,0,0-20.79-.48c-6.27,3.29-9.88,10.81-7.45,19.06,1.69,5.76,5.1,5.64,6.18,9.52a8.79,8.79,0,0,0,2.34,1c-1.25,11.24-7.71,14.47-7.71,14.47,1.41,2.33,6.79,7.36,11.7,9.15,8.7,3.18,13-2.54,9.19-8.63a17,17,0,0,1,2-8.86c2.12,0,4.83.39,7.61-.16,1.63-.33,1.8-9.12,1.85-9.3s3.19-1.33,2.91-3.23S110.34,246.57,109.09,243.5Z"/></g></g></g></svg>