<svg xmlns="http://www.w3.org/2000/svg" viewBox="0 0 1324.62 792.96"><defs><style>.cls-1,.cls-12,.cls-28,.cls-3,.cls-60{isolation:isolate;}.cls-2,.cls-9{fill:#040b40;}.cls-2{fill-opacity:0.05;}.cls-23,.cls-3{fill:#cdced9;}.cls-3,.cls-60{opacity:0.5;}.cls-18,.cls-32,.cls-4{fill:#fff;}.cls-13,.cls-26,.cls-5{fill:#7681d6;}.cls-13,.cls-14,.cls-15,.cls-16,.cls-17,.cls-18,.cls-19,.cls-21,.cls-22,.cls-23,.cls-24,.cls-25,.cls-26,.cls-27,.cls-29,.cls-30,.cls-31,.cls-32,.cls-33,.cls-34,.cls-35,.cls-36,.cls-37,.cls-38,.cls-40,.cls-41,.cls-49,.cls-5,.cls-50,.cls-51,.cls-52,.cls-53,.cls-54,.cls-56,.cls-57,.cls-58,.cls-59,.cls-6,.cls-61,.cls-63,.cls-64,.cls-7{stroke:#040b40;}.cls-13,.cls-14,.cls-15,.cls-16,.cls-17,.cls-18,.cls-19,.cls-21,.cls-22,.cls-23,.cls-24,.cls-25,.cls-26,.cls-27,.cls-29,.cls-30,.cls-31,.cls-32,.cls-33,.cls-34,.cls-35,.cls-36,.cls-37,.cls-38,.cls-39,.cls-40,.cls-41,.cls-43,.cls-44,.cls-45,.cls-46,.cls-47,.cls-48,.cls-49,.cls-5,.cls-50,.cls-51,.cls-52,.cls-53,.cls-54,.cls-56,.cls-57,.cls-58,.cls-6,.cls-61,.cls-63,.cls-64,.cls-7{stroke-linecap:round;stroke-linejoin:round;}.cls-38,.cls-5,.cls-57,.cls-6{stroke-width:0.52px;}.cls-56,.cls-6{fill:#2a3166;}.cls-57,.cls-63,.cls-7{fill:#363c66;}.cls-14,.cls-15,.cls-16,.cls-17,.cls-18,.cls-19,.cls-21,.cls-23,.cls-24,.cls-26,.cls-27,.cls-29,.cls-31,.cls-33,.cls-34,.cls-49,.cls-56,.cls-58,.cls-59,.cls-61,.cls-7{stroke-width:0.5px;}.cls-8{fill:#dddff5;}.cls-10,.cls-12{opacity:0.4;}.cls-11,.cls-12{fill:#bbc0eb;}.cls-13,.cls-25,.cls-32,.cls-36{stroke-width:0.55px;}.cls-14,.cls-20{fill:#f267a1;}.cls-15,.cls-39,.cls-40,.cls-41,.cls-43,.cls-44,.cls-45,.cls-46,.cls-47,.cls-48,.cls-50,.cls-51,.cls-52,.cls-53,.cls-54,.cls-62,.cls-64{fill:none;}.cls-16,.cls-37,.cls-55{fill:#686d8c;}.cls-17{fill:#b57ebb;}.cls-19,.cls-28,.cls-42{fill:#9b9db3;}.cls-21{fill:#fedd66;}.cls-22,.cls-38{fill:#5461cc;}.cls-22,.cls-37,.cls-63{stroke-width:0.49px;}.cls-24{fill:#fee999;}.cls-25{fill:#8cbaff;}.cls-27{fill:#98a0e0;}.cls-28{opacity:0.25;}.cls-29{fill:#ccf5f8;}.cls-30,.cls-58{fill:#a35eaa;}.cls-30,.cls-35{stroke-width:0.45px;}.cls-31{fill:#dabfdd;}.cls-33{fill:#02cedb;}.cls-34{fill:#66a3ff;}.cls-35{fill:#c89ecc;}.cls-36{fill:#35d8e2;}.cls-39{stroke:#02cedb;stroke-dasharray:0 25.09;}.cls-39,.cls-50,.cls-51,.cls-52,.cls-53,.cls-54{stroke-width:2px;}.cls-40,.cls-41{stroke-width:2.01px;}.cls-40{stroke-dasharray:0 6.05;}.cls-42{mix-blend-mode:multiply;}.cls-43,.cls-44,.cls-45,.cls-46,.cls-47,.cls-48{stroke:#029ba4;stroke-width:4.01px;}.cls-44{stroke-dasharray:0 9.97;}.cls-45{stroke-dasharray:0 11.97;}.cls-46{stroke-dasharray:0 15.07;}.cls-47{stroke-dasharray:0 12.09;}.cls-48{stroke-dasharray:0 9.49;}.cls-49{fill:#3f4999;}.cls-51{stroke-dasharray:0 7;}.cls-52{stroke-dasharray:0 10.09;}.cls-53{stroke-dasharray:0 7.9;}.cls-54{stroke-dasharray:0 7.89;}.cls-59,.cls-60{fill:#b3d1ff;}.cls-59{stroke-miterlimit:10;}.cls-61{fill:#fff4cc;}</style></defs><title>Asset 63</title><g class="cls-1"><g id="Layer_2" data-name="Layer 2"><g id="Layer_1-2" data-name="Layer 1"><path class="cls-2" d="M1324.62,0c-27.18,138-209.69,174.94-339.2,165.66-144.34-10.34-285.51,58.74-324,208.43-27.36,106.35-71.54,152.44-172,176.53-74.28,17.81-131.83,56-167.66,119.11C241.86,810.46,0,792.19,0,792.19H1324.62Z"/><g id="Layer_1-3" data-name="Layer 1"><path class="cls-3" d="M1000.68,697.88c26.27-2.56,42.27-6.32,42.36-10.81.21-9.8-75.57-19.36-169.24-21.34s-169.79,4.36-170,14.16S779.37,699.25,873,701.23l5.55.1c-38.83,4.33-63.8,11.67-64,20.52-.33,15.48,75.35,29.62,169,31.61s169.87-9,170.18-24.43C1154.16,714.44,1086.89,701,1000.68,697.88Z"/><path class="cls-4" d="M938.23,207.48c-133.24,0-241.34,108.65-241.34,242.63S805,692.74,938.21,692.74s241.32-108.64,241.32-242.63S1071.5,207.48,938.23,207.48Zm0,402.09c-87.57,0-158.54-71.37-158.54-159.46s71-159.4,158.54-159.4,158.55,71.38,158.55,159.4S1025.77,609.57,938.23,609.57Z"/><path class="cls-5" d="M938.23,221.42c-125.62,0-227.46,102.4-227.46,228.73S812.61,678.86,938.23,678.86s227.45-102.4,227.45-228.71S1063.84,221.42,938.23,221.42Zm0,388.15c-87.57,0-158.54-71.37-158.54-159.46s71-159.4,158.54-159.4,158.55,71.38,158.55,159.4-71,159.46-158.55,159.46Z"/><path class="cls-6" d="M938.23,227.63c-122.22,0-221.29,99.61-221.29,222.52S816,672.67,938.23,672.67,1159.51,573,1159.51,450.11,1060.44,227.63,938.23,227.63Zm0,381.94c-87.57,0-158.54-71.37-158.54-159.46s71-159.4,158.54-159.4,158.55,71.38,158.55,159.4-71,159.46-158.55,159.46Z"/><path class="cls-7" d="M938.23,242.11c-114.26,0-206.84,93.14-206.84,208s92.64,208,206.89,208,206.88-93.14,206.88-208S1052.48,242.11,938.23,242.11Zm0,367.46c-87.57,0-158.54-71.37-158.54-159.46s71-159.4,158.54-159.4,158.55,71.38,158.55,159.4-71,159.46-158.55,159.46Z"/><ellipse class="cls-8" cx="938.23" cy="450.14" rx="158.25" ry="159.14"/><path class="cls-9" d="M938.23,291.3a156.49,156.49,0,0,1,111.69,46.52,159.45,159.45,0,0,1,0,224.64,157.34,157.34,0,0,1-222.5.88l-.88-.88a159.45,159.45,0,0,1,0-224.64A156.46,156.46,0,0,1,938.23,291.3m0-.59c-87.57,0-158.54,71.38-158.54,159.4s71,159.43,158.55,159.43,158.54-71.34,158.54-159.43S1025.77,290.71,938.23,290.71Z"/><g class="cls-10"><path class="cls-11" d="M932.32,312c-40.6-1.62-78.35,7.52-112.94,32.67a155.14,155.14,0,0,1,118.27-54c87.89,0,159.13,71.38,159.13,159.44a159.16,159.16,0,0,1-53.3,119.05c-18.21,16.28-42.14,31.76-79.12,38.22,92.55-52.38,90.18-130.26,85.79-179.8C1045.54,375.78,1010.35,315.14,932.32,312Z"/></g><path class="cls-12" d="M900,514.69c-12.85-.06-82.28,3.3-82.58,16.82-.34,15.45,102.2,68.15,138.3,82.11,24.6,9.51,112.52-31.35,99-49.06C1031.1,533.81,929.3,514.84,900,514.69Z"/><path class="cls-13" d="M948,546.28l-4.21-.76c-.19,1.81-.8,3.73-2.16,3.91-2.5,2.21,4.71,5.07,6.26,3.67C948.39,550.41,946.89,549.21,948,546.28Z"/><path class="cls-7" d="M972.26,559.48a13,13,0,0,1,.19-5.3c-.65.1-4.05-.12-4.05-.12.25,1.74.36,4.22-.77,5.75C966,562,972.72,564.94,972.26,559.48Z"/><path class="cls-14" d="M951.24,471c0,2.89-9.47,67.38-8,74.19,1.33,1.34,4.6,1.94,5.48,1,4.94-7.18,13-33.78,14-42.67.12-1.15.73,45.64,5.6,51.49,1.32.58,4.39,1,4.76.21,3.64-5.21,7-58.65,5.75-71.18-.78-7.66-3.27-10.6-5.68-15.3C969.42,465.67,951.24,467.53,951.24,471Z"/><path class="cls-7" d="M944.8,435.34c10,.66,18.4,11.78,23.42,20,2.3,3.8,5.75,7.55,4.35,10.67.52,1.48,2,2.69,2,3.62-3.69,6.54-19.61,11.28-25,9.3,0-6-4.51-13-5.62-15.28a46.51,46.51,0,0,0-7.27-8.86s-6-3-7.84-3"/><path class="cls-15" d="M952.07,475.41c3.76.4,13.18-3.45,14.54-5.45"/><path class="cls-15" d="M962.63,503.48s.63-14-6.07-16.75"/><path class="cls-16" d="M942.26,548.4c2.3-.13,1.51,3.74,4.46,2.55,1-.4,1-1.42,1-2.3a8.24,8.24,0,0,1,.83,5.16c-1.15,1.15-3.86.9-7.92,1.94-2.41.63-6.9,1.1-7.87-.4-.63-1,.46-2.18,1.92-2.79C937.08,551.49,940,551,942.26,548.4Z"/><path class="cls-16" d="M972.24,558.85c.56.37.91,2.14.67,3.32a23.86,23.86,0,0,1-2.15,5.35c-1.24,1.71-5.87,3-7,.67-1.4-2.86,2.83-6.05,4-9,1-.81,2.67.77,2.95,1.59C971.4,562.92,972.18,559,972.24,558.85Z"/><path class="cls-17" d="M965.15,412.17c-.6-.19-.83.4-1.9.47s-3.92-2.3-3.74-3.29A3.79,3.79,0,0,1,963,405.9s-.71-1.32-1.81-2.92c-.73-1.08-2.6-3.21-1.7-4,1.15-.9,3,2.18,3.84,3.22,2.21,2.81,6.9,11,8.81,14.19l-4.6,2.1S966.64,412.61,965.15,412.17Z"/><path class="cls-18" d="M994.47,444.25c-3.29-2.52-7.37-4.33-11.8-10.93-3.07-4.6-7.87-17.51-10.95-18.22-.54,1.33-3.45,2.61-4.73,2.46-1.28,12.26,18.57,30.6,20.54,42.18,1.81,10.55-6,26.08-6,54.56,10.78,7.48,26.35.73,26.35.73l.3-56.79S997.11,446.28,994.47,444.25Z"/><path class="cls-19" d="M1017.12,570.24a19,19,0,0,1,0-4.65,36,36,0,0,1-4,.11,10.11,10.11,0,0,1,.39,3.87c-.5,2.69-4.14,8-2.92,9.19,1.54,1.53,5.75.49,6.4-1.42A25.59,25.59,0,0,0,1017.12,570.24Z"/><path class="cls-19" d="M992.63,566.44a13.43,13.43,0,0,0,1.06-4.31c.15-.8,4-.32,4.24.6-.58,3.18,1.62,5.58.22,7.35C996.94,571.3,991.05,568.74,992.63,566.44Z"/><path class="cls-7" d="M992.9,482.17s11-1.22,16.23-.41c5.88,5.75,8,37.61,8.49,47.78,2.09,17.25,2.54,31.8,0,36-1,.51-4.75.25-4.75.25-3.26-2.09-7.52-27.77-8.79-31.68-.8-2.47-2.51-14.27-2.51-14.27s2.3,30.5-2.65,42.27c-2,2-6,0-6,0C989.29,553.72,988.78,493.52,992.9,482.17Z"/><path class="cls-15" d="M1012,501.16s-1-8-2.39-8-5.34-5.07-5.34-7.32"/><path class="cls-15" d="M998.06,496.87s1.15,4,2.18,7.64"/><path class="cls-20" d="M1012,501.16s-1-8-2.39-8-5.34-5.07-5.34-7.32c0-1.36-2.3-1-1.15,5S1009.76,501.16,1012,501.16Z"/><path class="cls-21" d="M997.94,483a14.67,14.67,0,0,1-5-.86c-1.89-2.59-1.25-27.87,2.78-34.36,1.61-1.71,10.66-1.85,13.53,7.22C1012,463.91,1003.3,482.71,997.94,483Z"/><path class="cls-19" d="M999.54,444c-2.45,3.15-4.35,10.07-8.85,11.5,1.14-4.21.47-7.6.88-10.81.62-4.91,2.38-5.21,3-10.82l2.76,3Z"/><path class="cls-16" d="M1080.65,396.42c-1,1.28-.24,4.25-1.47,5.52s-2.94,1-3.37,1.83c-.55,1.06,1.15,2.3,1.15,3.28,0,1.7-1.33,4.6-.61,6,.83,1.61,6.9,1.86,10.25,3.17l6.32-18Z"/><path class="cls-18" d="M1023.16,517.75c-4.52-14.24-6.64-45.54-6.8-57.67,0-3.84-1.06-13.31-8.93-13.31s-6.32,5.64-6.32,5.64c-5.38,19.37-1.15,49.35-5.25,67.27C1000.28,524.12,1020,524.05,1023.16,517.75Z"/><path class="cls-19" d="M1079,396.84c5.28-12,27-3.3,22.29,11.15-3,9.09,0,13.18,1.59,17.54a11.5,11.5,0,0,1-1.15,10.21c-1.06-7.1-5.34-10.7-9.76-9.69-5.75,1.31-2.51,6.83-10.71,10.91a20.54,20.54,0,0,0,1.21-14.66c-1.21-4.86-.91-9.85,2.48-14,2.75-3.35,4.6-4.81,3.64-9.56a6.63,6.63,0,0,1-2.5,3.45C1084.35,398.88,1081,399.79,1079,396.84Z"/><path class="cls-17" d="M995.49,423.73c-1,1-.65,3.65-1.85,4.6s-2.52.49-2.91,1.38,1.15,1.49,1,2.3c-.08.5-.58.85-1.15,1.15.19,1.15,1.3,1.76,2.3,2.15-.95,1-1.95-.24-2.52.57,1.05,1.42-.58,2.09.09,3.18,1,1.72,6.39.66,9,4.88l6.31-17.31Z"/><path class="cls-15" d="M995.45,428a3.06,3.06,0,0,1,2.39,1.93"/><path class="cls-19" d="M992.77,423.66c1.33-.65,1.64-1.54,2.68-3.11,1.9-2.89,6.72-3.9,10.49-2.91,7.24,1.9,9.82,7.54,8,14.5-2.93,11.06,7.1,12.65,2.3,25.67a14.47,14.47,0,0,0-2.41-7.65c-2-3.24-7.28-4.6-10-1.08-2.22,2.82-.64,5.26-6.75,9.53,1.7-4.86.45-7.85-.07-12.65a16.61,16.61,0,0,1,2.62-11.06c2.24-3.39,3.27-6.31,2.53-9.29a6.19,6.19,0,0,1-1.75,3.37C999.07,426.68,995.45,427.52,992.77,423.66Z"/><path class="cls-22" d="M992.42,565.1c2.36-.19,1.92,3.55,4,3a2.12,2.12,0,0,0,1.6-2.46c1.15.9,1.32,3.19,1.15,4.5-1.15,1.2-2.2,1-5.32,1.75-1.62.37-1.41,1.31-5.34,1.77-2.3.27-5.18-.19-5-1C984,569.17,988.12,569.32,992.42,565.1Z"/><path class="cls-22" d="M1017.12,570.24c.77.83,1.09,3.94,1,4.78s.18,4-.77,5.18c-1.48,1.78-5.21,3.14-7.29.9-.86-.92-.81-2.92.06-4.32s1.9-5.5,3.13-6.39c-.12.66-1.35,3,0,1.5.59-.63,1.93-.57,3,.65C1017.72,574.3,1017.05,570.37,1017.12,570.24Z"/><path class="cls-18" d="M923.69,486.19c.24-.37,1.07-1.55,1.07-1.55-1.07.42-3.84-1.7-3.84-2.3a6.42,6.42,0,0,0-1,1.41A4.46,4.46,0,0,0,923.69,486.19Z"/><polygon class="cls-16" points="830.01 539.58 833.1 538.99 847.35 486.97 844.46 487.37 830.01 539.58"/><polygon class="cls-16" points="965.25 612.33 969.04 611.18 951.11 540.15 946.85 540.15 965.25 612.33"/><polygon class="cls-23" points="1053.08 527.88 1053.08 531.41 1028.52 522.21 1049.54 584.09 1041.96 580.76 1021.08 519.61 914.91 482.52 904.37 520.56 899.69 518.5 910.05 480.83 899.43 477.12 899.4 475.09 1053.08 527.88"/><polyline class="cls-16" points="1025.7 523.03 1046.73 584.92 1039.14 581.59 1018.26 520.43"/><polyline class="cls-16" points="911.4 488.19 900.87 526.21 896.19 524.15 906.55 486.48"/><polygon class="cls-16" points="900.87 526.21 902.92 525.82 913.98 485.82 912.1 486.04 900.87 526.21"/><polygon class="cls-19" points="969.41 546.83 969.41 550.7 946.85 540.15 965.25 612.33 957.06 607.73 939.55 536.69 843.42 491.12 830.01 539.58 825.47 537.02 838.54 488.81 827.72 483.68 827.73 481.23 969.41 546.83"/><polygon class="cls-18" points="969.41 546.83 1053.08 527.88 902.32 474.84 827.73 481.23 969.41 546.83"/><polygon class="cls-19" points="1046.73 584.92 1049.54 584.09 1033.36 536.06 1030.08 535.72 1046.73 584.92"/><polygon class="cls-19" points="1053.08 531.41 1053.08 527.88 969.41 546.83 969.41 550.7 1053.08 531.41"/><polygon class="cls-24" points="875.51 492 920.5 486.66 939.33 494.12 893.54 500.11 875.51 492"/><polygon class="cls-25" points="933.81 516.44 976.24 509.23 996.22 516.51 952.98 524.36 933.81 516.44"/><polygon class="cls-26" points="967.77 518.93 1002.84 512.23 1028.67 521.4 993.5 528.58 967.77 518.93"/><path class="cls-27" d="M906.56,487.23a15,15,0,0,1-3.74.78,11.06,11.06,0,0,0-1.9.22,1.46,1.46,0,0,0-.63.35.5.5,0,0,0-.07.63,1.1,1.1,0,0,0,.67.29l5.16.65"/><path class="cls-27" d="M904.83,488.2c-2.08,1.92-4.65,2-6.9,2.42a3,3,0,0,0-1,.31.57.57,0,0,0-.27.75l0,0c.19.28.68.34,1.08.36a18.45,18.45,0,0,0,4.86-.42"/><path class="cls-27" d="M912.51,486.33c-1,3.06-6.49,4.34-7,4.83a28.67,28.67,0,0,1-3.85,3.2c-1,.54-2.88,1.39-3.8.47s1.81-1.38,2.64-2.06c2-1.66,3-4.22,4.47-6s4.13-3,6.22-5l3,2Z"/><path class="cls-27" d="M905.51,491.16a5.28,5.28,0,0,1,6.36.1c1.43,1,4.28,1.08,4.28-.45,0-.6-1.26-.14-2.23-.74a3,3,0,0,1-1.41-3.74"/><path class="cls-7" d="M945.05,435.43A32.09,32.09,0,0,0,934.58,439a17.78,17.78,0,0,0-6.19,5.63c-2.61,4-5.5,12.23-6.75,15.53-2.17,5.75-6.89,9.86-8.95,16.53-.36,1.15.31,2.3-1.92,4.81a4.59,4.59,0,0,0,4.06,2.6c1-2.05,1.8-2.16,2.9-3,4.6-3.63,9.88-12.59,11.62-15.33,2.15-3.38,4.53-8.05,7.32-10.87a36.59,36.59,0,0,0-4.7-3.51"/><path class="cls-18" d="M914.83,484.06l1.15-1.75c-1.33.51-4-1.86-4-2.61a8.14,8.14,0,0,1-1.34,1.64A4.85,4.85,0,0,0,914.83,484.06Z"/><path class="cls-27" d="M932.63,433.28c2.66,2.21,3,4,3.39,6.78.67,5.09,3.87,7.34,6.76,2.11,2-3.69,2.75-5.75,2.63-5.75s-2.75-1-2-5.15l1.68-6.64-3.45-4.08Z"/><path class="cls-18" d="M938.19,443.74c-1.9,0-2.3-3.67-2.3-4.52a4.17,4.17,0,0,0-.58,2c-.5,4.79,4,6.7,7.69,2a14.4,14.4,0,0,0,3-7.71,5.56,5.56,0,0,0-2.38-1.15C944.7,437.2,941.33,443.74,938.19,443.74Z"/><path class="cls-27" d="M938.84,423.11l1.46-3.58-8.93-3c-2.17,3.38-.74,4.47-1.3,5.38-1,1.56-3,1.58-3.23,2.44-.31,1.15,1.15,1.75,1,2.43a2.56,2.56,0,0,1-.83,1.14,3,3,0,0,0,2.6,1.58c-1,1-1.9.07-2.44,1.09a3,3,0,0,1,.08,2.88,13.75,13.75,0,0,0,10.35.54Z"/><path class="cls-16" d="M947.86,413.44a14.43,14.43,0,0,0-12.93-2.14c-2.82,1-4.86,2.8-5.14,4.6-.3,2,5.17,3.81,7.53,4.51,2.91.58,1,3.24-.2,5.51-.69,2.9-.29,4-1.72,5.17s-5.57,3-7,2c-.54-.39-.63-.84-1.23-.54s-.42,3,.81,3.3c2.09.6,8.23.14,10.35-1.66s1.52-2.93,2.67-3.95a3.7,3.7,0,0,0,3.73,1.68c1.15-2.3,3.75-2,5.52-5.41A10.41,10.41,0,0,0,947.86,413.44ZM940.08,429c-1.88.17-1.75-2-1.75-2,3.66-.53.66-2.3,2.16-3.45s3.81-.76,3.7,1A5.09,5.09,0,0,1,940.08,429Z"/><path class="cls-15" d="M931.89,420.34a3.63,3.63,0,0,1,2.62,2.3"/><path class="cls-27" d="M942.31,495a4.72,4.72,0,0,1-1.46,2c-2.3,1.74-6,1.4-5.9,2.54.15,2.09,4.15.59,6.08,1.28,1.72.61.89,3.7,2.3,4.91,2.41,2.06,10-.23,9.74-2.77-.25-2.3-7.2-4.08-7.15-6.54"/><path class="cls-7" d="M948.33,441c-1.43.49-3.78,4.34-3.78,8.61,0,5.75-1.26,32.2-2.23,38.36-.41,2.62,1,3.19-.41,6.61a4.75,4.75,0,0,0,4.53,1.76c1-3.88,1.85-3.82,2.68-5.29,5.06-9,4.94-24.61,6-32.61.32-2.44,2.45-2.79,2.95-1.46"/><path class="cls-18" d="M942,494.52a12.14,12.14,0,0,0,.6-2.22,5.18,5.18,0,0,0,4.6,1.84,10.78,10.78,0,0,1-.69,2.22,4.27,4.27,0,0,1-4.49-1.84"/><path class="cls-17" d="M1008,508.24a7.92,7.92,0,0,1-5.06,6.9c-1.37.41-2.69.44-2.69,1.4,0,.65,1.35,1.22,2.83.91,2.35-.52,2.71-1.47,3.5-1.73,1.1-.36,1.75,1.29,2.61,2.49a7.26,7.26,0,0,0,4.87,3.13c3.88.07,4.6-2,3.45-3.45-.8-1.07-2.09-1.39-3.45-2.3-2.6-1.78-3.14-4.6-2.53-6"/><path class="cls-18" d="M1004.17,460.77c.36,11.33,6.67,20.62,4.32,30.1-.68,2.76-1.88,17.24-1.36,19.12a6,6,0,0,1,4.84,1.07c11.74-18.4,5.4-49.09,4.16-54.39"/><path class="cls-28" d="M799.65,365.23a6.14,6.14,0,0,0-6.11,6.16v45a6.13,6.13,0,0,0,6.11,6.15h38.88a107.93,107.93,0,0,0,14.4,4.44,1.18,1.18,0,0,0,.24-.17,5.34,5.34,0,0,0,2,.12l4.92,1a16.12,16.12,0,0,0,4.73,1.78c.56,0,1-.31.94-.61a7,7,0,0,0,.88.3,1.65,1.65,0,0,0,1.27,0,.81.81,0,0,0,.13-1.15h0a5.6,5.6,0,0,0,.55.27c1.5.64,2.15.35,2.3-.18s-.38-1-.81-1.15a6.16,6.16,0,0,0,1.74.72c.83.27,2.3.82,2.69.12a.57.57,0,0,0-.08-.69l22.73,6.41,5.64-11.14h6.74a6.15,6.15,0,0,0,6.11-6.17V377a6.15,6.15,0,0,1,3.26-5.45l11.93-6.33Z"/><path class="cls-29" d="M939.28,359.58l-11.92,6.34a6.18,6.18,0,0,0-3.27,5.45v39.34a6.14,6.14,0,0,1-6.1,6.16H808.09a6.15,6.15,0,0,1-6.11-6.16v-45a6.15,6.15,0,0,1,6.11-6.16Z"/><rect class="cls-30" x="873.13" y="366.18" width="6.34" height="45.49"/><rect class="cls-24" x="882.82" y="382.51" width="12.22" height="29.36"/><rect class="cls-27" x="898.39" y="372.59" width="3.21" height="39.09"/><rect class="cls-25" x="904.96" y="391.77" width="4.7" height="19.9"/><path class="cls-31" d="M871.61,406.47a5.18,5.18,0,0,1,2.75,1,8.9,8.9,0,0,0,3,1.27l12.44-2a33.34,33.34,0,0,0-7.3-4.2c-1.23-.51-7.86.81-10.08.35"/><polyline class="cls-32" points="864.69 417.81 875.11 405.29 913.1 408.22 905.24 427.48 864.69 417.81"/><path class="cls-31" d="M874.61,405a5.68,5.68,0,0,0,3.6,1.22,11.45,11.45,0,0,1,2.41.1,3.06,3.06,0,0,1,1.32.57c.95.77,2.84.89,3.21.31s-1.73-1.15-2.75-2.17a1.88,1.88,0,0,1-.58-1.15"/><ellipse class="cls-33" cx="835.61" cy="388.71" rx="23.47" ry="23.57"/><path class="cls-18" d="M848.44,392c-1.63-4.7-2.47-9-10.68-12.14-5.87-2.3-18.87,27.35-6.53,32,5.21,1,11.83-.5,14.83-1.77C846.38,406.67,848.44,392,848.44,392Z"/><ellipse class="cls-15" cx="835.61" cy="388.71" rx="23.47" ry="23.57"/><path class="cls-18" d="M871,402.47a21,21,0,0,0,3,.27,6.88,6.88,0,0,1-1.42,4.5,5.38,5.38,0,0,1-2.76,0A7,7,0,0,1,871,402.47Z"/><path class="cls-34" d="M846.88,387.22c2.4,6.81,7.46,9.61,9,9.95,2.53.58,13.72,2.53,16.1,4.93a5.93,5.93,0,0,0-1.52,5.14c-3.37,1.94-19.75-.84-22.45-4.86-3.64-5.45-2.84-14.45-4.37-19.55a11.7,11.7,0,0,0-3.84-6.08"/><path class="cls-34" d="M845.1,383.35c-6-2.94-23.91-11-31.24,13.94,3.78,9.38,13.6,16.09,24.49,14.51,2.93-8.55.56-15.79-2.3-22.92-4.6-7,4.81-9.13,6.25-5.34a66.42,66.42,0,0,1,2.93,26.6,27.06,27.06,0,0,0,4.94-3.19S851.14,390.71,845.1,383.35Z"/><path class="cls-16" d="M842.46,393.08a.94.94,0,0,1-.14.94c-.13.07-.48-.23-.61-.68s-.05-.88.14-.95S842.34,392.62,842.46,393.08Z"/><path class="cls-16" d="M843.09,397.94c.07.46,0,.88-.26.91s-.44-.31-.51-.77,0-.87.27-.91S843,397.48,843.09,397.94Z"/><path class="cls-31" d="M877.43,421.73a5.8,5.8,0,0,0,1.74.73c.82.27,2.3.83,2.69.12s-.14-1.09-2.08-2q-2.19-1.19-4.49-2.14a3.35,3.35,0,0,0-.69-.25c2.89,0,3.38-1.78,3-2.39-.23-.38-.85,0-1.37.24a4.74,4.74,0,0,1-3,.19,13.82,13.82,0,0,0-6.63.57c-1.23.55-2.74,0-6.44-.19l-3.08,3.81a59.76,59.76,0,0,1,7.55.87c1.9.47,3.21,1.72,5.59,2.71a3.7,3.7,0,0,0,1.78.44c.58,0,1.15-.39,1.15-.7a5.76,5.76,0,0,0,.88.31,1.64,1.64,0,0,0,1.27,0,.8.8,0,0,0,.15-1.13l0,0a5.52,5.52,0,0,0,.55.26c1.49.64,2.15.35,2.3-.18S877.86,422,877.43,421.73Z"/><path class="cls-15" d="M871.78,423a15.67,15.67,0,0,0,2.22,1,1.67,1.67,0,0,0,1.28,0,.8.8,0,0,0,.14-1.13v0"/><path class="cls-15" d="M874,422.1c.45.2,1.58.79,2,1,1.48.64,2.15.36,2.3-.17s-.38-1-.82-1.15"/><path class="cls-15" d="M875,420.58c2.79,1.15,2.3,1.24,4.21,1.88.82.27,2.3.83,2.69.12s-.14-1.09-2.09-2a48.41,48.41,0,0,0-4.48-2.14,14,14,0,0,1-3.21-1.05"/><path class="cls-15" d="M856.79,420.34a68.71,68.71,0,0,1,7.84.93c1.9.47,3.21,1.72,5.59,2.71a3.81,3.81,0,0,0,1.78.44c.58,0,1.15-.39,1.15-.7"/><path class="cls-15" d="M860.18,416.59c3.7.15,5.21.74,6.44.19a13.85,13.85,0,0,1,6.64-.57,4.71,4.71,0,0,0,3-.19c.52-.29,1.15-.62,1.37-.24.35.61-.14,2.41-3,2.39"/><path class="cls-18" d="M861.72,416.34a22.75,22.75,0,0,0,3,.26,7.73,7.73,0,0,1-1.59,4.79,5.2,5.2,0,0,1-2.6,0A12.46,12.46,0,0,0,861.72,416.34Z"/><path class="cls-34" d="M823.74,386c2.17-.49,4.39.77,5.93,2.3,6.43,6.31,9.71,15.75,13.33,18,3,1.86,17.18,8.21,19.19,10a8.31,8.31,0,0,1-1.93,5.42c-4.6.24-17.25-4.1-22.65-5.92s-14.26-12-17.87-11.28"/><path class="cls-18" d="M834.6,381.35a36.27,36.27,0,0,0,6.52,4.06s.27,6.45-5.09,8.46c-2.17-7.28-7.16-10.41-8-13.89,1.59-3.38,3.81-4.5,5.63-4.6C833.73,375.37,832.7,379.78,834.6,381.35Z"/><path class="cls-18" d="M841.13,386.58s2.3,4.37,5.68,4.13c-1.86-3.24-.65-8.84-4.23-12.57C840.93,379.74,841.78,385.61,841.13,386.58Z"/><path class="cls-31" d="M831.66,377.93c.74-.5,3.2-2.57,2.72-8.05-.2-2.08-1.4-5.39-.26-4.49,2.25,1.75,8.43,10.71,10,11-.93.75-1.51,2.05-2.22,4.41-.31,1.77.21,4.92-.78,6.06C838.51,386.06,831.43,379.68,831.66,377.93Z"/><path class="cls-31" d="M835.69,371.67c-3.24-3.93-8.43-3.72-5.75-14.64,1.44-5.75,15.87-8.14,20.27-1.58,5.92,8.82,2.23,23.22-2.3,24.43-2.46-.14-4.71-1.33-7.55-3.14"/><path class="cls-7" d="M849.42,351.68c-3.45-2.75-9.86-3.58-13.06-1.84.59-1.94-1-4.13-3.45-4.6-3.27-.7-7,1.86-6.83,5.33.16,2.94,2.08,4.81,4.6,4.59a12.3,12.3,0,0,0-1.63,10,14,14,0,0,0,6.24,8.05,1.75,1.75,0,0,0,.22-2.45h0c-.88-1.36-2.53-2.37-2.38-4.15.22-2.81,3.13-1.37,3.45,1.53.65,2,2.53,1.27,2.43,0-.73-2.05-.77-4.16.68-3.58,1.85,1.15,4.6.16,3.94-2.24,1.32,2.09,5.18,1.35,4.92-.87a1.92,1.92,0,0,0,3.34-1.78C853.45,361.63,855,356.05,849.42,351.68Z"/><path class="cls-15" d="M853.28,363.59c-1,1.3-2.72,1.05-3.16,2.48-.63,2,2.2,3.62,2,4.76-.12.84-1.79.9-2.45,1.15"/><path class="cls-15" d="M847.31,366.86a6.38,6.38,0,0,0-3,1.94"/><path class="cls-15" d="M850.43,374.83c-.52.65-.95.68-2.3.68.12.93.52,1.28,1.15,1.08"/><path class="cls-15" d="M824.93,383.42c2.1,0,5.57,2.8,6.32,4.54"/><polygon class="cls-35" points="834.95 482.05 857 491.66 876.25 489.18 853.64 480.44 834.95 482.05"/><polygon class="cls-35" points="834.95 479.87 857 489.49 876.25 487 853.64 478.27 834.95 479.87"/><polygon class="cls-35" points="834.95 477.71 857 487.31 876.25 484.83 853.64 476.1 834.95 477.71"/><polygon class="cls-35" points="834.95 475.54 857 485.15 876.25 482.67 853.64 473.93 834.95 475.54"/><polygon class="cls-35" points="834.95 473.36 857 482.98 876.25 480.49 853.64 471.75 834.95 473.36"/><polygon class="cls-35" points="834.95 471.19 857 480.8 876.25 478.32 853.64 469.59 834.95 471.19"/><polygon class="cls-30" points="834.95 469.03 857 478.63 876.25 476.15 853.64 467.42 834.95 469.03"/><polygon class="cls-13" points="945.3 527.82 972.49 539.69 996.22 535.45 968.35 525.85 945.3 527.82"/><polygon class="cls-13" points="945.3 525.16 972.49 537.01 996.22 532.77 968.35 523.17 945.3 525.16"/><polygon class="cls-13" points="945.3 522.48 972.49 534.33 996.22 530.09 968.35 520.49 945.3 522.48"/><polygon class="cls-13" points="945.3 519.8 972.49 531.65 996.22 527.41 968.35 517.81 945.3 519.8"/><polygon class="cls-36" points="945.3 517.12 972.49 528.97 996.22 524.73 968.35 515.14 945.3 517.12"/><path class="cls-37" d="M938.23,238.79c-116.14,0-210.18,94.63-210.18,211.36s94.09,211.34,210.18,211.34,210.18-94.63,210.18-211.38S1054.3,238.79,938.23,238.79Zm0,370.78c-87.57,0-158.54-71.37-158.54-159.46s71-159.4,158.54-159.4,158.55,71.38,158.55,159.4S1025.77,609.57,938.23,609.57Z"/><path class="cls-6" d="M938.23,251.63c-109,0-197.42,88.87-197.42,198.52s88.38,198.51,197.42,198.51,197.41-88.88,197.41-198.55S1047.26,251.63,938.23,251.63Zm0,357.94c-87.57,0-158.54-71.37-158.54-159.46s71-159.4,158.54-159.4,158.55,71.38,158.55,159.4-71,159.46-158.55,159.46Z"/><path class="cls-38" d="M938.23,276.64c-95.3,0-172.49,77.67-172.49,173.51s77.19,173.5,172.49,173.5S1110.77,546,1110.77,450.11,1033.52,276.64,938.23,276.64Zm0,337.08c-89.85,0-162.68-73.24-162.68-163.57s72.83-163.59,162.68-163.59S1100.9,359.8,1100.9,450.11s-72.83,163.61-162.67,163.61Z"/><ellipse class="cls-39" cx="938.23" cy="450.15" rx="215.22" ry="216.41"/><ellipse class="cls-40" cx="938.23" cy="450.15" rx="167.75" ry="168.68"/><path class="cls-16" d="M938.12,642h4.61l-.26-11.34h-4.24Zm-18.4-.88,1.09-11.29q-2.17-.21-4.32-.48l-1.35,11.26C916.65,640.83,918.18,641,919.72,641.15Zm41.4-.49c1.53-.18,3-.38,4.6-.59l-1.61-11.23c-1.43.2-2.86.39-4.3.57ZM897,637.55l2.43-11.08c-1.42-.31-2.83-.64-4.22-1l-2.71,11C894,636.86,895.46,637.2,897,637.55Zm86.82-1c1.49-.37,3-.76,4.46-1.15l-3-10.95c-1.39.38-2.79.75-4.19,1.15Zm-109-5.35,3.76-10.69c-1.37-.5-2.73-1-4.08-1.51l-4,10.59c1.38.54,2.82,1.06,4.27,1.6Zm131-1.53c1.43-.55,2.87-1.15,4.3-1.7l-4.25-10.5c-1.34.54-2.69,1.08-4.06,1.6Zm-152.23-7.5,5-10.15c-1.29-.64-2.58-1.31-3.86-2l-5.25,10c1.34.7,2.7,1.37,4.08,2.08Zm173.26-2q2-1.08,4.05-2.21l-5.48-9.91c-1.26.7-2.54,1.4-3.83,2.08Zm-193.19-9.5,6.19-9.48c-1.15-.8-2.4-1.6-3.59-2.43l-6.41,9.33c1.2.86,2.48,1.72,3.76,2.57Zm212.94-2.49c1.28-.89,2.53-1.78,3.78-2.69l-6.64-9.2c-1.15.85-2.3,1.69-3.54,2.52ZM815.2,596.81l7.28-8.67c-1.15-.94-2.2-1.89-3.28-2.86l-7.49,8.49c1.11,1,2.26,2,3.43,3Zm249.53-2.94c1.15-1,2.3-2,3.45-3.11l-7.68-8.32c-1.06,1-2.13,2-3.21,2.95ZM798.47,580.8l8.26-7.7c-1-1.07-2-2.15-2.92-3.25l-8.44,7.52C796.38,578.53,797.42,579.67,798.47,580.8ZM1081,577.49q1.53-1.72,3-3.45l-8.62-7.33c-.93,1.15-1.87,2.21-2.84,3.3ZM783.83,562.93l9.11-6.68c-.86-1.15-1.7-2.36-2.51-3.55l-9.28,6.45C782,560.41,782.92,561.65,783.83,562.93Zm311.38-3.66q1.32-1.9,2.58-3.84l-9.43-6.22c-.78,1.21-1.6,2.42-2.42,3.61ZM771.41,543.4l9.84-5.51c-.7-1.28-1.39-2.56-2.06-3.85l-10,5.27C769.93,540.69,770.66,542.11,771.41,543.4Zm335.77-3.93c.72-1.37,1.42-2.73,2.1-4.11l-10.1-5.05q-1,2-2,3.87ZM761.43,522.56l10.44-4.29c-.54-1.35-1.07-2.7-1.59-4.06l-10.54,4Zm355.18-4.2c.55-1.43,1.07-2.88,1.59-4.35l-10.64-3.78c-.48,1.38-1,2.75-1.49,4.11ZM754.05,500.55l10.87-3c-.38-1.4-.73-2.81-1.08-4.22l-10.94,2.76C753.24,497.56,753.64,499.05,754.05,500.55Zm369.46-4.3c.37-1.5.71-3,1-4.52l-11-2.44c-.31,1.41-.64,2.83-1,4.24Zm-374.13-18.4,11.15-1.62c-.21-1.44-.4-2.88-.57-4.33l-11.19,1.35c.18,1.54.38,3.08.61,4.6Zm378.32-4.39c.18-1.53.35-3.07.49-4.6l-11.22-1.1c-.14,1.45-.29,2.9-.47,4.34ZM747.49,454.77l11.28-.26c0-1.45-.06-2.91-.06-4.37v-.38H747.44v.35C747.4,451.69,747.41,453.23,747.49,454.77Zm381.61-4.44v-4.64l-11.27.25v4.17Zm-369.57-18c.14-1.46.3-2.9.47-4.35l-11.19-1.38c-.18,1.54-.35,3.07-.5,4.6Zm357-3.79,11.2-1.34c-.19-1.53-.38-3.07-.6-4.6l-11.17,1.62c.21,1.44.41,2.87.57,4.32ZM762.93,410.82c.33-1.43.66-2.84,1-4.25L753,403.84c-.37,1.5-.73,3-1.06,4.52Zm349.73-3.7,10.94-2.69c-.35-1.51-.74-3-1.15-4.5l-10.88,3C1112,404.3,1112.31,405.7,1112.66,407.12ZM768.91,389.87c.49-1.37,1-2.74,1.51-4.09l-10.54-4c-.55,1.45-1.07,2.9-1.59,4.36Zm337.35-3.57,10.55-4c-.54-1.45-1.15-2.9-1.69-4.32l-10.47,4.3C1105.19,383.59,1105.73,384.93,1106.26,386.3ZM777.39,369.8c.64-1.3,1.3-2.58,2-3.87l-10-5.29c-.72,1.36-1.42,2.72-2.11,4.1Zm320-3.39,10-5.27c-.71-1.36-1.45-2.73-2.18-4.08l-9.87,5.5c.69,1.31,1.38,2.56,2.06,3.85ZM788.19,350.92c.79-1.22,1.61-2.41,2.42-3.61l-9.25-6.44c-.89,1.27-1.75,2.54-2.59,3.84Zm297.94-3.15,9.29-6.44c-.88-1.28-1.76-2.54-2.67-3.79l-9.13,6.65C1084.47,345.36,1085.31,346.54,1086.13,347.77Zm-285-14.27c.93-1.15,1.89-2.21,2.84-3.3l-8.42-7.53c-1,1.15-2,2.3-3,3.45Zm271.59-3,8.44-7.51q-1.53-1.72-3.09-3.45l-8.28,7.72C1070.83,328.41,1071.77,329.49,1072.77,330.52Zm-256.61-12.8c1.07-1,2.14-2,3.22-2.93l-7.49-8.5q-1.73,1.53-3.45,3.11Zm241.29-2.58,7.48-8.49c-1.15-1-2.3-2-3.45-3l-7.29,8.64C1055.28,313.22,1056.37,314.17,1057.45,315.14ZM832.92,303.88q1.76-1.28,3.55-2.52l-6.4-9.34q-1.91,1.32-3.76,2.68Zm207.49-2.22,6.43-9.33c-1.27-.87-2.55-1.74-3.82-2.58l-6.2,9.47C1038,300,1039.22,300.83,1040.41,301.66Zm-189.2-9.49c1.27-.71,2.54-1.4,3.83-2.08l-5.21-10q-2.07,1-4.09,2.19Zm170.67-1.83,5.27-10c-1.36-.73-2.73-1.43-4.1-2.12l-5,10.16C1019.33,289,1020.62,289.67,1021.88,290.34Zm-151.1-7.59q2-.83,4.05-1.59l-4-10.61-4.31,1.69Zm131.37-1.39,4.07-10.63c-1.44-.54-2.87-1.08-4.32-1.6l-3.76,10.69C999.44,280.34,1000.79,280.85,1002.15,281.36Zm-110.82-5.55c1.39-.38,2.8-.75,4.2-1.15l-2.67-11c-1.49.37-3,.76-4.47,1.15Zm90.13-.95,2.71-11c-1.49-.38-3-.73-4.49-1.06l-2.44,11.06C978.62,274.18,980.06,274.51,981.46,274.86Zm-68.9-3.45c1.43-.21,2.86-.4,4.3-.57l-1.33-11.26c-1.53.18-3,.38-4.6.6Zm47.59-.5,1.36-11.26c-1.52-.18-3-.35-4.6-.5l-1.15,11.28c1.52.16,3,.3,4.39.49Zm-26-1.29h4.34V258.25h-4.6Z"/><path class="cls-38" d="M938.23,276.64c-95.3,0-172.49,77.67-172.49,173.51s77.19,173.5,172.49,173.5S1110.77,546,1110.77,450.11,1033.52,276.64,938.23,276.64Zm0,337.08c-89.85,0-162.68-73.24-162.68-163.57s72.83-163.59,162.68-163.59S1100.9,359.8,1100.9,450.11s-72.83,163.61-162.67,163.61Z"/><ellipse class="cls-39" cx="938.23" cy="450.15" rx="215.22" ry="216.41"/><ellipse class="cls-41" cx="938.23" cy="450.15" rx="204.24" ry="205.37"/><ellipse class="cls-40" cx="938.23" cy="450.15" rx="167.75" ry="168.68"/><path class="cls-16" d="M938.12,642h4.61l-.26-11.34h-4.24Zm-18.4-.88,1.09-11.29q-2.17-.21-4.32-.48l-1.35,11.26C916.65,640.83,918.18,641,919.72,641.15Zm41.4-.49c1.53-.18,3-.38,4.6-.59l-1.61-11.23c-1.43.2-2.86.39-4.3.57ZM897,637.55l2.43-11.08c-1.42-.31-2.83-.64-4.22-1l-2.71,11C894,636.86,895.46,637.2,897,637.55Zm86.82-1c1.49-.37,3-.76,4.46-1.15l-3-10.95c-1.39.38-2.79.75-4.19,1.15Zm-109-5.35,3.76-10.69c-1.37-.5-2.73-1-4.08-1.51l-4,10.59c1.38.54,2.82,1.06,4.27,1.6Zm131-1.53c1.43-.55,2.87-1.15,4.3-1.7l-4.25-10.5c-1.34.54-2.69,1.08-4.06,1.6Zm-152.23-7.5,5-10.15c-1.29-.64-2.58-1.31-3.86-2l-5.25,10c1.34.7,2.7,1.37,4.08,2.08Zm173.26-2q2-1.08,4.05-2.21l-5.48-9.91c-1.26.7-2.54,1.4-3.83,2.08Zm-193.19-9.5,6.19-9.48c-1.15-.8-2.4-1.6-3.59-2.43l-6.41,9.33c1.2.86,2.48,1.72,3.76,2.57Zm212.94-2.49c1.28-.89,2.53-1.78,3.78-2.69l-6.64-9.2c-1.15.85-2.3,1.69-3.54,2.52ZM815.2,596.81l7.28-8.67c-1.15-.94-2.2-1.89-3.28-2.86l-7.49,8.49c1.11,1,2.26,2,3.43,3Zm249.53-2.94c1.15-1,2.3-2,3.45-3.11l-7.68-8.32c-1.06,1-2.13,2-3.21,2.95ZM798.47,580.8l8.26-7.7c-1-1.07-2-2.15-2.92-3.25l-8.44,7.52C796.38,578.53,797.42,579.67,798.47,580.8ZM1081,577.49q1.53-1.72,3-3.45l-8.62-7.33c-.93,1.15-1.87,2.21-2.84,3.3ZM783.83,562.93l9.11-6.68c-.86-1.15-1.7-2.36-2.51-3.55l-9.28,6.45C782,560.41,782.92,561.65,783.83,562.93Zm311.38-3.66q1.32-1.9,2.58-3.84l-9.43-6.22c-.78,1.21-1.6,2.42-2.42,3.61ZM771.41,543.4l9.84-5.51c-.7-1.28-1.39-2.56-2.06-3.85l-10,5.27C769.93,540.69,770.66,542.11,771.41,543.4Zm335.77-3.93c.72-1.37,1.42-2.73,2.1-4.11l-10.1-5.05q-1,2-2,3.87ZM761.43,522.56l10.44-4.29c-.54-1.35-1.07-2.7-1.59-4.06l-10.54,4Zm355.18-4.2c.55-1.43,1.07-2.88,1.59-4.35l-10.64-3.78c-.48,1.38-1,2.75-1.49,4.11ZM754.05,500.55l10.87-3c-.38-1.4-.73-2.81-1.08-4.22l-10.94,2.76C753.24,497.56,753.64,499.05,754.05,500.55Zm369.46-4.3c.37-1.5.71-3,1-4.52l-11-2.44c-.31,1.41-.64,2.83-1,4.24Zm-374.13-18.4,11.15-1.62c-.21-1.44-.4-2.88-.57-4.33l-11.19,1.35c.18,1.54.38,3.08.61,4.6Zm378.32-4.39c.18-1.53.35-3.07.49-4.6l-11.22-1.1c-.14,1.45-.29,2.9-.47,4.34ZM747.49,454.77l11.28-.26c0-1.45-.06-2.91-.06-4.37v-.38H747.44v.35C747.4,451.69,747.41,453.23,747.49,454.77Zm381.61-4.44v-4.64l-11.27.25v4.17Zm-369.57-18c.14-1.46.3-2.9.47-4.35l-11.19-1.38c-.18,1.54-.35,3.07-.5,4.6Zm357-3.79,11.2-1.34c-.19-1.53-.38-3.07-.6-4.6l-11.17,1.62c.21,1.44.41,2.87.57,4.32ZM762.93,410.82c.33-1.43.66-2.84,1-4.25L753,403.84c-.37,1.5-.73,3-1.06,4.52Zm349.73-3.7,10.94-2.69c-.35-1.51-.74-3-1.15-4.5l-10.88,3C1112,404.3,1112.31,405.7,1112.66,407.12ZM768.91,389.87c.49-1.37,1-2.74,1.51-4.09l-10.54-4c-.55,1.45-1.07,2.9-1.59,4.36Zm337.35-3.57,10.55-4c-.54-1.45-1.15-2.9-1.69-4.32l-10.47,4.3C1105.19,383.59,1105.73,384.93,1106.26,386.3ZM777.39,369.8c.64-1.3,1.3-2.58,2-3.87l-10-5.29c-.72,1.36-1.42,2.72-2.11,4.1Zm320-3.39,10-5.27c-.71-1.36-1.45-2.73-2.18-4.08l-9.87,5.5c.69,1.31,1.38,2.56,2.06,3.85ZM788.19,350.92c.79-1.22,1.61-2.41,2.42-3.61l-9.25-6.44c-.89,1.27-1.75,2.54-2.59,3.84Zm297.94-3.15,9.29-6.44c-.88-1.28-1.76-2.54-2.67-3.79l-9.13,6.65C1084.47,345.36,1085.31,346.54,1086.13,347.77Zm-285-14.27c.93-1.15,1.89-2.21,2.84-3.3l-8.42-7.53c-1,1.15-2,2.3-3,3.45Zm271.59-3,8.44-7.51q-1.53-1.72-3.09-3.45l-8.28,7.72C1070.83,328.41,1071.77,329.49,1072.77,330.52Zm-256.61-12.8c1.07-1,2.14-2,3.22-2.93l-7.49-8.5q-1.73,1.53-3.45,3.11Zm241.29-2.58,7.48-8.49c-1.15-1-2.3-2-3.45-3l-7.29,8.64C1055.28,313.22,1056.37,314.17,1057.45,315.14ZM832.92,303.88q1.76-1.28,3.55-2.52l-6.4-9.34q-1.91,1.32-3.76,2.68Zm207.49-2.22,6.43-9.33c-1.27-.87-2.55-1.74-3.82-2.58l-6.2,9.47C1038,300,1039.22,300.83,1040.41,301.66Zm-189.2-9.49c1.27-.71,2.54-1.4,3.83-2.08l-5.21-10q-2.07,1-4.09,2.19Zm170.67-1.83,5.27-10c-1.36-.73-2.73-1.43-4.1-2.12l-5,10.16C1019.33,289,1020.62,289.67,1021.88,290.34Zm-151.1-7.59q2-.83,4.05-1.59l-4-10.61-4.31,1.69Zm131.37-1.39,4.07-10.63c-1.44-.54-2.87-1.08-4.32-1.6l-3.76,10.69C999.44,280.34,1000.79,280.85,1002.15,281.36Zm-110.82-5.55c1.39-.38,2.8-.75,4.2-1.15l-2.67-11c-1.49.37-3,.76-4.47,1.15Zm90.13-.95,2.71-11c-1.49-.38-3-.73-4.49-1.06l-2.44,11.06C978.62,274.18,980.06,274.51,981.46,274.86Zm-68.9-3.45c1.43-.21,2.86-.4,4.3-.57l-1.33-11.26c-1.53.18-3,.38-4.6.6Zm47.59-.5,1.36-11.26c-1.52-.18-3-.35-4.6-.5l-1.15,11.28c1.52.16,3,.3,4.39.49Zm-26-1.29h4.34V258.25h-4.6Z"/><path class="cls-42" d="M1049.7,250.72c-16.42,1.34-43.93,26.91-46.93,53.75,62,27.73,94,91.37,94,145.68a159.56,159.56,0,0,1-70.57,132.64c-1.09.74-25.15,13.55-26.27,14.26-6.06,17.8-1.31,54.48,17.37,67.61,24.07-8.1,52-26.57,60.67-34l89.43,43.69-42.07-354.17S1102.66,281,1049.7,250.72Z"/><path class="cls-7" d="M1157.56,235.93l-58.11,27.25c-39.62,17.9-71.53,94.54-73.49,187.89-1.94,92.65,22.13,165.68,67.72,190.88l55.2,30.72"/><line class="cls-43" x1="1081.02" y1="618.56" x2="1081.02" y2="618.56"/><path class="cls-44" d="M1087.42,626.2c3.44,3.58,7.21,6.92,10.86,10.28"/><line class="cls-43" x1="1101.91" y1="639.89" x2="1101.91" y2="639.89"/><line class="cls-43" x1="1047.84" y1="533.88" x2="1047.84" y2="533.88"/><line class="cls-43" x1="1050.54" y1="546.92" x2="1050.54" y2="546.92"/><path class="cls-45" d="M1053.5,558.53a215.76,215.76,0,0,0,15,39.08"/><line class="cls-43" x1="1071.24" y1="602.91" x2="1071.24" y2="602.91"/><line class="cls-43" x1="1050.46" y1="368.81" x2="1050.46" y2="368.81"/><line class="cls-43" x1="1048.63" y1="375.53" x2="1048.63" y2="375.53"/><path class="cls-46" d="M1046.66,390.48c-2.4,20.24-4.26,44.12-4.56,62a419.09,419.09,0,0,0,3.33,65.77"/><line class="cls-43" x1="1046.47" y1="525.71" x2="1046.47" y2="525.71"/><line class="cls-43" x1="1047.84" y1="533.88" x2="1047.84" y2="533.88"/><line class="cls-43" x1="1075.03" y1="305.72" x2="1075.03" y2="305.72"/><path class="cls-47" d="M1070,316.72c-5.46,12.22-10.66,25-14.58,39.67"/><line class="cls-43" x1="1053.99" y1="362.25" x2="1053.99" y2="362.25"/><line class="cls-43" x1="1052.57" y1="368.81" x2="1052.57" y2="368.81"/><line class="cls-43" x1="1119.45" y1="256.91" x2="1119.45" y2="256.91"/><line class="cls-43" x1="1109.86" y1="261.92" x2="1109.86" y2="261.92"/><path class="cls-48" d="M1102.28,267.61a106,106,0,0,0-15.89,17.55"/><line class="cls-43" x1="1083.62" y1="289.01" x2="1083.62" y2="289.01"/><path class="cls-49" d="M1168.75,233.72c-13.8,0-30.12,3.92-30.12,3.92-39.5,11-73.76,112-75.89,213.89-2.13,101.19,20.94,195,63.37,217.89,0,0,11.36,4.92,36.6,4.8"/><ellipse class="cls-19" cx="1165.63" cy="454.03" rx="220.36" ry="84.27" transform="translate(687.29 1609.89) rotate(-88.8)"/><line class="cls-50" x1="1243.75" y1="492.07" x2="1243.75" y2="492.07"/><path class="cls-51" d="M1244.37,484.05q1-13.89,1.28-28.31a541.7,541.7,0,0,0-4.07-80.22"/><line class="cls-50" x1="1241.05" y1="371.53" x2="1241.05" y2="371.53"/><line class="cls-50" x1="1114.93" y1="303.38" x2="1114.93" y2="303.38"/><path class="cls-52" d="M1111,314.29c-12.57,36.94-20.7,85.2-21.85,138.12-1.38,65.79,8.39,124.81,24.86,164.15"/><line class="cls-50" x1="1116.32" y1="621.87" x2="1116.32" y2="621.87"/><line class="cls-50" x1="1241.05" y1="371.53" x2="1241.05" y2="371.53"/><path class="cls-53" d="M1239.72,362.55c-11.21-71-36.92-120.31-67.84-121-21-.44-40.45,21.5-55.2,57.58"/><line class="cls-50" x1="1114.93" y1="303.38" x2="1114.93" y2="303.38"/><line class="cls-50" x1="1116.32" y1="621.87" x2="1116.32" y2="621.87"/><path class="cls-54" d="M1120.31,630c11.94,22.76,26.58,36.2,42.63,36.53,38.06.82,71.3-72.33,80.4-170"/><line class="cls-50" x1="1243.75" y1="492.07" x2="1243.75" y2="492.07"/><ellipse class="cls-23" cx="1173.35" cy="454.19" rx="191.86" ry="65.66" transform="translate(694.68 1617.77) rotate(-88.8)"/><path class="cls-55" d="M1178.32,609.63c-13.47-.29-26.68-17-36.24-45.85-9.94-30-14.95-69.28-14.08-110.59.86-41.09,7.46-80,18.57-109.5,10.68-28.37,24.49-44.64,37.94-44.64h.37c27.69.59,47.95,69.26,46.12,156.39-1.86,86.44-24.82,154.19-52.29,154.19Z"/><path class="cls-9" d="M1184.46,300.2h.33c12.84.28,24.58,16.24,33,44.94,8.6,29.11,12.84,68.27,12,110.22-.88,41.76-6.72,80.56-16.45,109.24-9.59,28.29-21.91,43.87-34.69,43.87h-.33c-12.95-.27-25.77-16.69-35.17-45.05-9.91-29.89-15-69-14-110.19.85-41,7.42-79.74,18.49-109.14,10.49-27.9,23.91-43.89,36.79-43.89m0-2.3c-28.92,0-55.81,69.26-57.62,155.24-1.82,86.4,22.38,157,51.44,157.6h.46c28.88,0,51.64-69.35,53.44-155.36C1234,369,1214,298.49,1184.89,297.84Z"/><path class="cls-56" d="M1179.67,311c-12.88-.27-24.82,13.54-34.91,36.17,10.8-30.38,24.91-49.53,40.1-49.21,29.07.62,49.07,71.11,47.26,157.54-1.08,51.25-9.59,96.59-22.41,124.86,9.9-28.22,16.3-67.85,17.25-111.83C1228.75,382.05,1208.74,311.55,1179.67,311Z"/><path class="cls-33" d="M1031.66,375,1042,347l14.59,8.36c4.75,2.76,6.36,11.34,3,18.5s-9.2,9.45-14.59,7.49Z"/><ellipse class="cls-56" cx="1036.84" cy="360.98" rx="14.9" ry="11.34" transform="translate(351.36 1218.57) rotate(-70.56)"/><path class="cls-33" d="M1031.85,521.09l4,27.21,15.35-4.6c5-1.51,8.24-8.91,6.54-16s-6.71-10.35-12.15-9.7Z"/><ellipse class="cls-56" cx="1033.89" cy="534.67" rx="10.84" ry="13.75" transform="translate(-72.44 172.95) rotate(-9.24)"/><path class="cls-57" d="M1197.55,639.85l.18-.22c1.91-2.43,3.8-5.09,5.63-7.92v-.08l-1-25h0a71.62,71.62,0,0,1-4.88,6.1l-.15.22Zm-6,6.74v-.06l.62-28.6h0a34.84,34.84,0,0,1-5.43,3.81h0l-.08.09h0l-1.58,30.22h0a55.14,55.14,0,0,0,6.43-5.49Zm17-23.8h0c1.66-3.07,3.28-6.34,4.83-9.72V613l-2.3-21.3h0c-1.35,2.76-2.78,5.39-4.22,7.84h0v.08h0ZM1178.37,656v0l2.64-31.78h0a21.42,21.42,0,0,1-5.89.92h0v.06l-3.93,33.1h0a31,31,0,0,0,7.1-2.23Zm39.43-53.34h0c1.39-3.52,2.75-7.23,4-11v-.09l-3.24-17.64h0c-1.15,3.18-2.36,6.27-3.59,9.2v.08Zm-53.93,55.87,5.25-34.18h0a26.58,26.58,0,0,1-6.12-2.58v0h0v.06l-6.65,34.72h0v.09a28.31,28.31,0,0,0,7.57,1.89Zm61.66-78.37h0c1.15-3.86,2.24-7.85,3.28-11.87v-.08l-4-14.13h0c-.93,3.45-1.93,6.9-2.95,10.15v.13h0Zm-76.89,72.22v-.07l8.16-35h0a55.53,55.53,0,0,1-6.08-6.56v0h0l-9.76,34.8h0a53.37,53.37,0,0,0,7.67,6.81Zm83.08-96.28h0c.89-4.05,1.75-8.22,2.55-12.4v-.07l-4.44-10.84h0c-.72,3.65-1.5,7.27-2.3,10.78h0v.08h0v.07h0Zm-98.3,80h0l11.39-34h0a111.89,111.89,0,0,1-5.65-10.8v0l-13,32.49h0a119.1,119.1,0,0,0,7.26,12.27Zm101.2-106.17h0c.67-4.21,1.48-9.7,2.05-14l-3.12-5.45h0c-.53,3.78-1.15,7.58-1.73,11.25h0Zm-115.4,78.78h0l14.64-30.38v0c-1.69-4.68-3.29-9.73-4.75-15h0l-.06-.2v.25L1113,590.77v.06c2,6.32,4.06,12.35,6.26,17.87ZM1238.7,505.39v-.08h0c.47-4.3.88-8.66,1.25-13h0l-3.79-4.77h0c-.34,3.81-.73,7.67-1.15,11.49v.1Zm-131.21,65v-.06l17.45-23.81v-.07c-1.27-5.91-2.41-12.14-3.4-18.52v0L1103,547.38v.12c1.32,7.86,2.85,15.53,4.53,22.79Zm133.39-92.26h0c.26-4.34.47-8.73.62-13.07h0l-3.89-.59h0c-.15,3.85-.35,7.74-.59,11.58H1237Zm-141.34,44.73h0L1119,508.1V508c-.71-6.8-1.27-13.8-1.66-20.91V487h0l-20,9.49v.08h0c.53,8.89,1.28,17.7,2.22,26.19ZM1242,453.23v-.06c0-4.3.07-8.68,0-13h0l-3.93,1h0V452.7h0v.09Zm-125.26,12.35v-.07c-.09-7.22,0-14.55.24-21.78v-.09h0l-20.15-1.47v.1c-.33,9-.44,18.18-.34,27.3v.09Zm121.08-35.95,3.88-2.39v0h0v-.06c-.14-4.29-.33-8.63-.56-12.88h0l-3.86,3.79h0c.21,3.77.39,7.63.51,11.5h0Zm-119.59-7.36v-.08c.55-7,1.26-14.06,2.11-20.87v-.11h0l-19-12.13v.09c-1.15,8.51-2.13,17.25-2.88,26.11v.08h0Zm118.32-15.49h0l3.81-4h0c-.34-4.22-.74-8.48-1.15-12.65h0l-3.72,5.41h0c.41,3.66.76,7.42,1.07,11.16h0Zm-113.23-25.29v-.07c1.15-6.35,2.38-12.65,3.75-18.53v-.09h0l-16.69-21.11v.09c-1.83,7.26-3.52,15-5,22.75v.08h0ZM1234,384.57h0l3.57-6.9h0c-.54-4.13-1.15-8.27-1.8-12.31h0l-3.45,8.39h0c.58,3.53,1.15,7.17,1.64,10.81ZM1131.39,346v-.07c1.55-5.27,3.23-10.35,5-15.05h0v-.1h0l-13.71-27.48h0c-2.3,5.58-4.46,11.6-6.51,17.9v.14Zm99.06,17.18h0l3.26-9.87v-.11h0c-.76-4-1.59-7.93-2.44-11.75h0l-3.12,11.39h0c.78,3.33,1.54,6.79,2.23,10.27Zm-88.64-45.45h0c1.86-4,3.79-7.74,5.75-11.12h0v-.07h0l-10.48-31.19h0a134,134,0,0,0-7.36,12.65h0V288Zm83.85,25.3h0l3.45-11.71h0c-1-3.76-2-7.47-3.13-11.05h0l-3.11,13.32h0c1,3.06,2,6.23,2.84,9.46h0Zm-72.15-45.49h0a63.42,63.42,0,0,1,6.06-7l.09-.08h-.08l-7.32-32.47h0a63.84,63.84,0,0,0-7.59,7.39h0Zm66.26,27.25-.08-.35,3.33-16.1h0c-1.24-3.45-2.54-6.9-3.87-10.08h0l-3,17.77h0c1.15,2.67,2.3,5.51,3.45,8.43h0Zm-54-39.38h0a31,31,0,0,1,5.83-3.16h.26v-.07h0l-1.15-7.57h0l-3.45-24.27h0a32,32,0,0,0-7.4,2.69h0v.08Zm46.77,22.87h0l2.44-20.7h0c-1.48-3.06-3-6-4.6-8.71h0l-1.89,22.41h0c1.41,2.18,2.77,4.6,4.1,7.05Zm-34.85-27.51h0a20.92,20.92,0,0,1,5.75.2h0v-.09l-2.2-29.9h0a28.39,28.39,0,0,0-6.9-1.28h0ZM1204,295h0l.13.09L1204,295l1.27-24h0a77.71,77.71,0,0,0-5.43-6.85h0l-.54,25.67h0A55.27,55.27,0,0,1,1204,295h0Zm-15.08-12.43h0a30.79,30.79,0,0,1,5.22,2.94h.08l-.27-27.2-.09-.08a43.77,43.77,0,0,0-6.12-4.35h0V254Z"/><ellipse class="cls-7" cx="1179.53" cy="458.19" rx="66.65" ry="24.76" transform="matrix(0.01, -1, 1, 0.01, 713.94, 1634.81)"/><ellipse class="cls-19" cx="1189.5" cy="458.17" rx="66.65" ry="24.76" transform="translate(723.87 1644.78) rotate(-89.64)"/><path class="cls-33" d="M1222.54,371.27c4.72-.14,8.67,2.66,8.79,5.38l1.63,38.54-17.08.91-1.7-40.25C1214.07,373.29,1218.05,371.41,1222.54,371.27Z"/><path class="cls-33" d="M1222.4,539.33c4.6,0,8.39-2.59,8.4-4.93l.22-33.12-16.74-.13-.23,34.56C1214,537.92,1218,539.38,1222.4,539.33Z"/><path class="cls-33" d="M1231.34,429.83l21-14.88a6.07,6.07,0,0,1,1.38-1h0c3.75-1.83,8.64,1,10.92,6.33s1.15,11.12-2.65,13l-21.61,14.4c-3.45,1.62-7.45.23-10-4.6S1228.35,432,1231.34,429.83Z"/><path class="cls-33" d="M1229.88,480.62l15.34,22.69a7,7,0,0,0,1,1.48h0c3,3.38,8.68,3.55,12.65.37s4.76-8.49,1.75-11.88l-16.1-22.64a8.39,8.39,0,0,0-11.23-1.27C1229.14,472.06,1227.7,477.37,1229.88,480.62Z"/><path class="cls-7" d="M1197.11,416l47.05-2.52-.59,90.23-48.13-3.33c-10-2-18.06-18.4-17.89-43.27S1188,417.52,1197.11,416Z"/><ellipse class="cls-23" cx="1243.79" cy="458.58" rx="45.12" ry="17.67" transform="translate(777.62 1699.54) rotate(-89.65)"/><ellipse class="cls-7" cx="1244.78" cy="458.6" rx="28.84" ry="11.29" transform="matrix(0.01, -1, 1, 0.01, 778.58, 1700.56)"/><path class="cls-33" d="M1182.26,428.26l8.12-21.3L1213.05,424c3,2.3,3.72,9.05,1.15,14.48s-6.54,7-10,5.27Z"/><ellipse class="cls-7" cx="1186.28" cy="417.59" rx="11.46" ry="7.64" transform="translate(465.24 1447.99) rotate(-74.41)"/><path class="cls-33" d="M1183.06,486.13l7.57,20.43,22.09-15.92c3-2.17,3.7-8.57,1.3-13.8s-6.22-6.76-9.61-5.18Z"/><ellipse class="cls-7" cx="1186.86" cy="496.31" rx="7.35" ry="10.95" transform="translate(-89.3 333.89) rotate(-15.44)"/><path class="cls-3" d="M716.37,717.06c-.82-7.91-31.15-6-49.15-6A126.74,126.74,0,0,1,645,709.31c-6.47-1.15-11.15-2.86-21.65-3.6-24.65-1.73-43.44,5-45.79,10.45-3.45,8.05,34.75,8.25,46.21,9.54-3.86.55-31.56,1.15-32.09,5.44s7.23,5.75,14.17,5.75c16.59,0,32.13-.51,47.49-1.25,18.17-.89,32.89-1.94,50.08-3.34,3-.24,6.3-.61,8.54-2.82,0-2.3-2.71-3.17-4.8-3.38L694.93,725C703.62,723.79,716.77,720.82,716.37,717.06Z"/><path class="cls-31" d="M648.48,556.58c-1.34,2.44-1.05,6.52,0,7.65-4.18,2.08-12.73-4.16-12.73-4.16,1.59-2.3,1.15-6.33-.11-7.62-2.3-2.3-1.06-8.88,3-11.63s13.72,5.36,13.72,10C652.34,552.28,649.24,555.19,648.48,556.58Z"/><path class="cls-18" d="M634.58,561.06c.45-.72.17-3.26.36-4.07,4.11.66,10.44,6,15.38,6-.07,0-.55,3.13-.63,3.16"/><path class="cls-18" d="M627.16,628.91c1.51-3.8,2.6-18,1.72-22-5.48-24.87,3.11-40.72,3.84-42.34a7.29,7.29,0,0,0,.58-4.73c6.55,0,12.84,5.75,17.85,6.19l-.07.07a10.71,10.71,0,0,0-.09,3,2.62,2.62,0,0,0,.29,1.07,1.14,1.14,0,0,0,.88.59l.26.14c3.94,13.4,7.13,22.33,9.92,35.74.72,3.45,1.51,8,4.83,9.07"/><path class="cls-18" d="M658.13,575c3-3.14,10.35-9.5,17.45-7.06l-2.83,3.2"/><path class="cls-18" d="M669.88,571.58c.66-3.12,3-5.5,6-4.25L672.18,571Z"/><path class="cls-18" d="M617.06,703.09c-2.12,1.51-3,5-1.84,8.32.87,2.46-11.92-3.67-9.57-6,1.62-1.61,5.57-2.3,5.93-6.9"/><path class="cls-58" d="M652.78,641.26c-2.56,6.09-6.6,26.63-10.34,31.66-3.57,4.81-21.17,30.46-26.37,32.36-1.74,0-6-2.73-6-4.46,1.79-10.88,14.53-33.79,15.52-37.12,1.07-3.58-1.61-26.24,4.27-37.5"/><path class="cls-18" d="M678.7,707c1.06,3.9,2.81,5.53,5.14,6.21,4.36,1.28-10.53,4.06-10.23,1.51a8.9,8.9,0,0,0-.85-6.38"/><path class="cls-58" d="M657,620.63a152.74,152.74,0,0,1,19.93,43c2.14,7.42,3,33.81,3.45,44,0,0-1.75,2.47-8.05,1.61-9.06-14.38-11.7-40.17-15.38-44.21-4.6-5.12-18.45-19.08-25.67-28.94"/><path class="cls-15" d="M662.77,617.8c-3,4.68-8.35,7.11-13.53,8.92-5.75,2-15.81,5.06-22.08,2.19"/><path class="cls-15" d="M634.05,576.35c1-4.39,3.9-7.07,7.8-6.67-1.52-2.44,0-2.51-.88-4.13a7.83,7.83,0,0,1,8,6"/><path class="cls-59" d="M713.4,619.15,598.65,649.44a6.15,6.15,0,0,1-7.47-4.46l0-.06-11-43.16a6.3,6.3,0,0,1,4.39-7.66l114.75-30.31a6.15,6.15,0,0,1,7.47,4.46l0,.06,11,43.16A6.29,6.29,0,0,1,713.4,619.15Z"/><path class="cls-60" d="M597.05,649.05a5.61,5.61,0,0,1-5.33-4.28l-11-43.16a5.79,5.79,0,0,1,.69-4.48,5.14,5.14,0,0,1,3.27-2.45l114.77-30.32a5.33,5.33,0,0,1,1.37-.19,5.59,5.59,0,0,1,4.6,2.54L597.3,649.05Z"/><polygon class="cls-61" points="615.37 615.23 607.72 617.25 612.78 637.16 620.43 635.13 615.37 615.23"/><polygon class="cls-29" points="623.17 600.33 615.52 602.35 623.63 634.29 631.29 632.27 623.17 600.33"/><polygon class="cls-18" points="640.16 621.55 632.5 623.58 634.49 631.42 642.15 629.41 640.16 621.55"/><path class="cls-61" d="M662.4,613.4A18.81,18.81,0,0,0,689,614.51a18.11,18.11,0,0,0,2.53-2.86l-15.38-11.74Z"/><path class="cls-18" d="M694.65,595l-18.52,4.89,15.33,11.78A19.88,19.88,0,0,0,694.65,595Z"/><path class="cls-29" d="M694.65,595a19.16,19.16,0,0,0-23.12-14.15l-.23,0a19.79,19.79,0,0,0-9,32.53l13.8-13.54Z"/><path class="cls-62" d="M713.4,619.15,598.65,649.44a6.15,6.15,0,0,1-7.47-4.46l0-.06-11-43.16a6.3,6.3,0,0,1,4.39-7.66l114.75-30.31a6.15,6.15,0,0,1,7.47,4.46l0,.06,11,43.16A6.29,6.29,0,0,1,713.4,619.15Z"/><path class="cls-31" d="M652.77,627.38c.61.92,3.59,1,5.61.37,1.45-.45,3.26-2.67,4.08-1.59,1.56,2.1-4.09,3.3-2.74,5.91.46.88,2.7.53,4.6-.29,0,0,.84,3.51-4.34,4.81-2.68.67-5.84.54-6.83-1a29.74,29.74,0,0,0-4.17-5.55"/><path class="cls-18" d="M634.05,576.35c-4,18,2.47,40.5,13.24,52.56A11.64,11.64,0,0,0,649,631a7,7,0,0,0,4.27-3.6c0-.85-1.15-1.24-1.23-2.11-.79-6.83-4.37-14.66-4.6-17-1-10.47,2.46-21.23,2-32"/><path class="cls-18" d="M647.29,628.91c.84.37.94,1.52,1.7,2.07a7,7,0,0,0,4.27-3.6c0-.85-1.15-1.24-1.23-2.11Z"/><path class="cls-31" d="M672.18,571c1.23-3.19,7.94-6.8,11.57-3.15a5.53,5.53,0,0,1,1,4.33c-.48,1.32-4.42,2.87-6.66,2.15-1.31-.41-.95-1.35-2.14-2.06"/><path class="cls-63" d="M608.2,703.21a7,7,0,0,0-4.77,3.33c0,2.88,5.61,9.45,8.88,12.25,1.8,1.54,9.33,1.57,9.33.1,0-2-2.88-2.69-4-3.45s-2.09-3.45-2.3-5.56C611.54,710,608.74,705.81,608.2,703.21Z"/><path class="cls-63" d="M673.22,713.75a10.91,10.91,0,0,0,.61,6.81c1.15.74,12.44-.95,15.43-1.6,4.7-1,5.23-1.86,6.06-2.84s.29-2.61-2.62-2.63-5.75.43-10.35-1.47C680.62,714.28,675.86,715.37,673.22,713.75Z"/><path class="cls-31" d="M638.8,543.44c-.64-3.76,1.65-8.39,5.43-10.75s8.83,1,10.5,3.5c.79,1.27.68,2.7,1,4.54.11.66-.67.95-.9,1.52,2.38,4.08,3,9.12.39,11.39-1.15,1-5.52.64-6.72,2.94"/><path class="cls-64" d="M657.27,539.81a10.64,10.64,0,0,1,0,5.08"/><path class="cls-64" d="M657,540.83c-1.74.42-5.89,1.36-9.2,2.3"/><path class="cls-7" d="M632.25,549.74a18.64,18.64,0,0,1,2.65,4.73c1.87.89,4.6-.11,7.31-1.1a6.27,6.27,0,0,0,1.79-5.15c2.7.08,3.67-2.77,1.15-4,2.48.92,3.54-2.42,1.4-3.67,2.13.85,3.62-1.47,1.8-2.79,2.47-2.49,5.64.37,7.15-2.54,1.87-3.63-3.38-8.61-12.1-8.67-7.12-.07-13.38,3.12-14.75,10.61C627.9,541.29,629.79,547.27,632.25,549.74Z"/><path class="cls-31" d="M649.42,543.38a1.28,1.28,0,0,0-1.33-1.15,1,1,0,0,0-.83.78,2.65,2.65,0,0,0-.11,1.15,4.5,4.5,0,0,0,1.45,3.15c.24.21.54.36.78.21a1.51,1.51,0,0,0,.4-1"/></g></g></g></g></svg>