<svg xmlns="http://www.w3.org/2000/svg" viewBox="0 0 270 290"><defs><style>.cls-1{isolation:isolate;}.cls-2{fill:#f2f3f5;}.cls-10,.cls-11,.cls-12,.cls-2,.cls-3,.cls-4,.cls-9{stroke:#363c66;stroke-linecap:round;stroke-linejoin:round;}.cls-12,.cls-2,.cls-3,.cls-4,.cls-9{stroke-width:0.5px;}.cls-3,.cls-6{fill:#cdced9;}.cls-4{fill:#686d8c;}.cls-12,.cls-5,.cls-8{fill:#9b9db3;}.cls-7,.cls-8{mix-blend-mode:multiply;}.cls-9{fill:#fff;}.cls-10{fill:#ccf5f8;}.cls-10,.cls-11{stroke-width:0.5px;}.cls-11{fill:#fff4cc;}.cls-13{fill:#363c66;}</style></defs><title>Asset 14</title><g class="cls-1"><g id="Layer_2" data-name="Layer 2"><g id="Layer_3" data-name="Layer 3"><ellipse class="cls-2" cx="139.21" cy="129.23" rx="130.54" ry="128.98"/><ellipse class="cls-3" cx="139.21" cy="129.23" rx="118.14" ry="116.73"/><ellipse class="cls-3" cx="139.21" cy="129.23" rx="112.74" ry="111.39"/><ellipse class="cls-4" cx="139.21" cy="129.23" rx="95.81" ry="94.67"/><path class="cls-3" d="M139.27,234.57h-.06c-.84,0-1.68,0-2.51,0l.14-6.22q1.18,0,2.37,0Zm10.28-.49-.6-6.2c.81-.07,1.61-.16,2.41-.25l.75,6.18C151.26,233.91,150.41,234,149.55,234.08Zm-23.13-.26q-1.28-.15-2.55-.33l.9-6.16,2.41.31Zm35.85-1.72L160.91,226c.79-.17,1.58-.35,2.36-.54l1.51,6C164,231.73,163.11,231.92,162.27,232.1Zm-48.51-.55c-.83-.2-1.67-.42-2.49-.64l1.64-6c.78.21,1.56.41,2.35.6Zm60.89-2.94-2.1-5.87c.77-.26,1.52-.54,2.28-.82l2.24,5.82C176.27,228,175.46,228.33,174.65,228.61Zm-73.18-.83c-.81-.3-1.61-.61-2.41-.93l2.37-5.77,2.27.88Zm85-4.12-2.8-5.57c.72-.36,1.44-.72,2.15-1.09l2.94,5.51C188,222.9,187.28,223.29,186.51,223.66Zm-96.79-1.11c-.76-.39-1.52-.8-2.27-1.21l3.06-5.44c.71.39,1.42.77,2.14,1.14Zm108-5.21-3.46-5.2c.68-.44,1.34-.89,2-1.34l3.58,5.12C199.1,216.4,198.39,216.88,197.67,217.34ZM78.7,216c-.71-.48-1.41-1-2.11-1.48l3.71-5c.65.47,1.31.93,2,1.39ZM208,209.73,203.91,205l1.84-1.57,4.18,4.66C209.28,208.63,208.64,209.19,208,209.73ZM68.57,208.12c-.65-.56-1.28-1.13-1.91-1.7l4.28-4.57c.6.55,1.2,1.08,1.8,1.61ZM217.3,201l-4.62-4.24c.55-.59,1.09-1.18,1.63-1.78l4.72,4.13C218.46,199.71,217.88,200.33,217.3,201ZM59.46,199.14l-1.69-1.92,4.81-4c.52.61,1.05,1.21,1.59,1.81Zm166-8-5.09-3.67,1.4-1.95,5.18,3.53C226.48,189.77,226,190.46,225.48,191.15Zm-174-2c-.49-.7-1-1.4-1.44-2.11l5.26-3.42c.45.67.9,1.33,1.36,2Zm180.9-8.72-5.5-3c.39-.69.78-1.4,1.16-2.1l5.57,2.89C233.24,178.94,232.83,179.68,232.41,180.42ZM44.83,178.27c-.4-.75-.79-1.5-1.17-2.26l5.65-2.77c.35.71.72,1.42,1.1,2.13ZM238,169l-5.84-2.36c.31-.74.61-1.48.89-2.23l5.89,2.21C238.63,167.37,238.31,168.17,238,169ZM39.54,166.68c-.31-.79-.61-1.59-.89-2.39l5.94-2.07c.27.75.55,1.5.83,2.25Zm202.57-9.78L236,155.26c.21-.77.42-1.54.61-2.31l6.12,1.48C242.55,155.26,242.34,156.08,242.11,156.9ZM35.7,154.54c-.21-.82-.4-1.65-.59-2.48l6.15-1.34c.18.78.36,1.55.55,2.33Zm209-10.1-6.23-.89c.12-.79.22-1.58.32-2.38l6.25.75C245,142.76,244.85,143.6,244.72,144.44ZM33.38,142c-.11-.84-.2-1.69-.28-2.53l6.27-.6c.08.79.17,1.59.26,2.38ZM245.8,131.77l-6.3-.15c0-.79,0-1.59,0-2.39V129h6.3v.18C245.83,130.08,245.82,130.93,245.8,131.77ZM32.6,129.33v-.1c0-.81,0-1.63,0-2.43l6.3.13c0,.77,0,1.53,0,2.3Zm206.45-9.87c-.08-.8-.17-1.59-.27-2.39l6.26-.75c.1.84.19,1.68.28,2.53ZM39.61,117.38l-6.26-.73c.1-.85.21-1.69.34-2.53l6.23.89C39.81,115.8,39.7,116.59,39.61,117.38Zm197.53-9.74c-.17-.78-.36-1.56-.55-2.33l6.12-1.5c.2.82.4,1.65.58,2.48Zm-195.38-2-6.12-1.48c.21-.82.42-1.65.65-2.46l6.08,1.62C42.16,104.06,42,104.83,41.76,105.61Zm192.05-9.47Q233.4,95,233,93.89l5.88-2.22c.31.8.61,1.59.89,2.39Zm-188.46-2L39.46,92c.3-.8.61-1.59.94-2.38L46.24,92C45.93,92.69,45.63,93.43,45.35,94.18Zm183.73-9.05Q228.54,84.05,228,83l5.58-2.91,1.17,2.26ZM50.31,83.26l-5.57-2.89c.39-.75.8-1.5,1.22-2.24l5.51,3C51.08,81.85,50.69,82.55,50.31,83.26ZM223,74.76c-.45-.67-.9-1.33-1.36-2l5.18-3.55c.49.69,1,1.4,1.44,2.11ZM56.58,73l-5.19-3.54c.49-.7,1-1.39,1.49-2.08L58,71.06C57.51,71.7,57,72.36,56.58,73Zm159.2-7.84c-.52-.61-1.05-1.21-1.59-1.81l4.71-4.13c.57.63,1.13,1.27,1.68,1.91ZM64.05,63.59l-4.72-4.13c.57-.63,1.14-1.26,1.73-1.88l4.62,4.23C65.13,62.4,64.58,63,64.05,63.59Zm143.36-7.05-1.8-1.62,4.17-4.66c.64.56,1.28,1.13,1.91,1.71ZM72.6,55.11l-4.18-4.65c.64-.56,1.29-1.12,1.94-1.66l4.08,4.74Zm125.45-6.17c-.66-.47-1.32-.94-2-1.39l3.58-5.13,2.1,1.47ZM82.13,47.71,78.54,42.6c.7-.48,1.41-1,2.13-1.42l3.46,5.2C83.46,46.81,82.79,47.26,82.13,47.71Zm105.7-5.2c-.71-.39-1.42-.77-2.14-1.14l2.92-5.52c.76.4,1.52.8,2.27,1.21Zm-95.36-1L89.53,36c.76-.4,1.52-.78,2.29-1.16l2.8,5.57Zm84.43-4.16-2.27-.88,2.23-5.82c.81.3,1.61.61,2.41.93Zm-73.4-.77-2.24-5.81c.8-.3,1.6-.6,2.42-.88l2.1,5.87C105,36,104.26,36.29,103.5,36.57Zm61.91-3-2.34-.59,1.49-6.05c.84.2,1.67.41,2.5.63ZM115.06,33l-1.51-6c.83-.2,1.66-.4,2.5-.58l1.37,6.07Zm38.49-1.88c-.79-.12-1.6-.22-2.4-.32l.74-6.18c.86.1,1.71.21,2.56.33ZM127,30.84l-.77-6.18,2.56-.28.62,6.2C128.57,30.66,127.77,30.74,127,30.84Zm14.51-.7c-.75,0-1.51,0-2.27,0h-.16V23.88h.16c.81,0,1.61,0,2.41,0Z"/><ellipse class="cls-5" cx="139.21" cy="129.23" rx="87.72" ry="86.67"/><ellipse class="cls-6" cx="139.21" cy="278.61" rx="91.77" ry="11.39"/><g class="cls-7"><path class="cls-5" d="M127.53,213.78c0,11.84,14.41,21.43,32.18,21.43s32.17-9.59,32.17-21.43-14.41-21.43-32.17-21.43a45.33,45.33,0,0,0-14.77,2.39L129.25,178l6.09,21.75C130.48,203.55,127.53,208.43,127.53,213.78Z"/></g><g class="cls-7"><path class="cls-5" d="M150.27,85.53c0-8.46,10.61-15.32,23.69-15.32s23.69,6.86,23.69,15.32-10.6,15.31-23.69,15.31a34.36,34.36,0,0,1-10.87-1.71L122,120l34-24.52C152.44,92.84,150.27,89.35,150.27,85.53Z"/></g><path class="cls-8" d="M196.52,170C175.79,170,159,159,159,145.57a17.89,17.89,0,0,1,4.28-11.29l-22-15.35,32.72,7.8c5-3.16,12.84-5.54,22.55-5.54,20.73,0,37.54,10.92,37.54,24.38S217.25,170,196.52,170Z"/><path class="cls-9" d="M117.53,203.78c0,11.84,14.41,21.43,32.18,21.43s32.17-9.59,32.17-21.43-14.41-21.43-32.17-21.43a45.33,45.33,0,0,0-14.77,2.39L119.25,168l6.09,21.75C120.48,193.55,117.53,198.43,117.53,203.78Z"/><path class="cls-10" d="M140.27,75.53c0-8.46,10.61-15.32,23.69-15.32s23.69,6.86,23.69,15.32S177.05,90.84,164,90.84a34.36,34.36,0,0,1-10.87-1.71L112,110l34-24.52C142.44,82.84,140.27,79.35,140.27,75.53Z"/><path class="cls-11" d="M186.52,160C165.79,160,149,149,149,135.57a17.89,17.89,0,0,1,4.28-11.29l-22-15.35,32.72,7.8c5-3.16,12.84-5.54,22.55-5.54,20.73,0,37.54,10.92,37.54,24.38S207.25,160,186.52,160Z"/><g class="cls-7"><path class="cls-6" d="M117.28,203.78c0,9.78,9.91,18,23.45,20.59,10.31-8.81,18.16-22.53,23.31-39.8a46,46,0,0,0-14.33-2.22C131.8,182.35,117.28,191.94,117.28,203.78Z"/><path class="cls-6" d="M140.27,75.53c0,3.82,2.17,7.31,5.75,10L112,110l41.05-20.91a34,34,0,0,0,9.47,1.69,162.8,162.8,0,0,0-8.94-29.07C145.72,64.23,140.27,69.47,140.27,75.53Z"/><path class="cls-6" d="M167.22,131.94c-.12-5.62-.45-11.12-.95-16.5-.82.42-1.59.84-2.3,1.29l-32.72-7.8,22,15.35A17.89,17.89,0,0,0,149,135.57c0,8.71,7,16.35,17.61,20.66Q167.47,144.58,167.22,131.94Z"/></g><path class="cls-12" d="M62.07,10.64,95.25,26.52c22.63,10.05,40.85,53,42,105.42,1.11,52-12.64,93-38.67,107.11L67,256.28"/><path class="cls-13" d="M115.11,212.23a1.24,1.24,0,0,1-.27,0,.83.83,0,0,1-.27-.07,1.83,1.83,0,0,1-.24-.13,1.24,1.24,0,0,1-.22-.18,1.37,1.37,0,0,1-.41-1,1.31,1.31,0,0,1,0-.27,2.58,2.58,0,0,1,.08-.26,1.83,1.83,0,0,1,.13-.24,1.73,1.73,0,0,1,.17-.21,1.18,1.18,0,0,1,.22-.17,1.12,1.12,0,0,1,.24-.13.84.84,0,0,1,.27-.08,1.39,1.39,0,0,1,1.26.38,1.18,1.18,0,0,1,.18.21,1.12,1.12,0,0,1,.13.24,1.29,1.29,0,0,1,.08.26,1.31,1.31,0,0,1,0,.27,1.34,1.34,0,0,1-.42,1A1.41,1.41,0,0,1,115.11,212.23Z"/><path class="cls-13" d="M97.11,238a1.37,1.37,0,0,1-.08-2h0a1.41,1.41,0,0,1,2-.07h0a1.37,1.37,0,0,1,.08,2h0a1.41,1.41,0,0,1-1,.45h0A1.39,1.39,0,0,1,97.11,238Zm5.2-5.88a1.38,1.38,0,0,1-.26-2h0a1.43,1.43,0,0,1,2-.26h0a1.39,1.39,0,0,1,.26,2h0a1.44,1.44,0,0,1-1.12.54h0A1.47,1.47,0,0,1,102.31,232.15Zm4.62-6.35a1.37,1.37,0,0,1-.43-1.91h0a1.43,1.43,0,0,1,2-.43h0a1.39,1.39,0,0,1,.43,1.92h0a1.42,1.42,0,0,1-1.19.65h0A1.43,1.43,0,0,1,106.93,225.8Zm4.08-6.69a1.39,1.39,0,0,1-.59-1.88h0a1.41,1.41,0,0,1,1.9-.58h0a1.38,1.38,0,0,1,.59,1.88h0a1.41,1.41,0,0,1-1.25.74h0A1.49,1.49,0,0,1,111,219.11Z"/><path class="cls-13" d="M92.41,243.87a1.12,1.12,0,0,1-.27,0l-.27-.08a1.83,1.83,0,0,1-.24-.13,1.92,1.92,0,0,1-.22-.18,1.63,1.63,0,0,1-.17-.2,2,2,0,0,1-.14-.25l-.07-.25a1.41,1.41,0,0,1,0-.28,1.24,1.24,0,0,1,0-.27c0-.09,0-.18.07-.26a1.38,1.38,0,0,1,.14-.24,1.84,1.84,0,0,1,.17-.22,1.77,1.77,0,0,1,.22-.16.8.8,0,0,1,.24-.13,1.22,1.22,0,0,1,.27-.09,1.49,1.49,0,0,1,1.26.38,1.39,1.39,0,0,1,.42,1,1.35,1.35,0,0,1-.42,1A1.42,1.42,0,0,1,92.41,243.87Z"/><path class="cls-13" d="M124.8,179.82a1.38,1.38,0,0,1-1.38-1.67,2.41,2.41,0,0,1,.08-.25c0-.09.08-.16.13-.25a1.71,1.71,0,0,1,.18-.2,1.24,1.24,0,0,1,.21-.18c.08,0,.15-.09.25-.13l.26-.07a1.45,1.45,0,0,1,1.27.38,1.39,1.39,0,0,1,.41,1,1.38,1.38,0,0,1-1.41,1.39Z"/><path class="cls-13" d="M117.81,204.28a1.38,1.38,0,0,1-.84-1.78h0a1.41,1.41,0,0,1,1.8-.83h0a1.38,1.38,0,0,1,.84,1.78h0a1.41,1.41,0,0,1-1.32.92h0A1.36,1.36,0,0,1,117.81,204.28Zm2.72-8a1.39,1.39,0,0,1-1-1.72h0a1.41,1.41,0,0,1,1.74-1h0a1.4,1.4,0,0,1,1,1.73h0a1.41,1.41,0,0,1-1.35,1h0A1.39,1.39,0,0,1,120.53,196.26Zm2.24-8.18a1.38,1.38,0,0,1-1-1.66h0a1.39,1.39,0,0,1,1.68-1h0a1.39,1.39,0,0,1,1.06,1.66h0a1.41,1.41,0,0,1-1.37,1.08h0A1.75,1.75,0,0,1,122.77,188.08Z"/><path class="cls-13" d="M115.11,212.23a1.24,1.24,0,0,1-.27,0,.83.83,0,0,1-.27-.07,1.83,1.83,0,0,1-.24-.13,1.24,1.24,0,0,1-.22-.18,1.37,1.37,0,0,1-.41-1,1.31,1.31,0,0,1,0-.27,2.58,2.58,0,0,1,.08-.26,1.83,1.83,0,0,1,.13-.24,1.73,1.73,0,0,1,.17-.21,1.18,1.18,0,0,1,.22-.17,1.12,1.12,0,0,1,.24-.13.84.84,0,0,1,.27-.08,1.39,1.39,0,0,1,1.26.38,1.18,1.18,0,0,1,.18.21,1.12,1.12,0,0,1,.13.24,1.29,1.29,0,0,1,.08.26,1.31,1.31,0,0,1,0,.27,1.34,1.34,0,0,1-.42,1A1.41,1.41,0,0,1,115.11,212.23Z"/><path class="cls-13" d="M125.38,175.08a1.41,1.41,0,0,1-1.18-1.59h0a1.4,1.4,0,0,1,1.61-1.16h0a1.38,1.38,0,0,1,1.17,1.58h0a1.39,1.39,0,0,1-1.39,1.18h-.21Zm1.46-11a1.39,1.39,0,0,1-1.27-1.51h0a1.4,1.4,0,0,1,1.54-1.25h0a1.4,1.4,0,0,1,1.27,1.51h0a1.42,1.42,0,0,1-1.41,1.26h-.13Zm.87-11.09a1.38,1.38,0,0,1-1.34-1.45h0a1.41,1.41,0,0,1,1.47-1.33h0a1.4,1.4,0,0,1,1.34,1.46h0a1.38,1.38,0,0,1-1.4,1.32h-.07Zm.36-11.11a1.41,1.41,0,0,1-1.4-1.4h0a1.4,1.4,0,0,1,1.42-1.39h0a1.4,1.4,0,0,1,1.4,1.4h0a1.41,1.41,0,0,1-1.41,1.39h0Zm-1.55-12.48a1.38,1.38,0,0,1,1.36-1.43h0a1.41,1.41,0,0,1,1.46,1.34h0a1.43,1.43,0,0,1-1.38,1.44h0A1.4,1.4,0,0,1,126.52,129.36ZM126,118.29a1.4,1.4,0,0,1,1.32-1.47h0a1.39,1.39,0,0,1,1.49,1.3h0a1.38,1.38,0,0,1-1.31,1.47h-.09A1.41,1.41,0,0,1,126,118.29Zm-.93-11a1.38,1.38,0,0,1,1.25-1.53h0a1.38,1.38,0,0,1,1.54,1.24h0a1.38,1.38,0,0,1-1.25,1.52h-.15A1.39,1.39,0,0,1,125.05,107.27Zm-1.4-11a1.39,1.39,0,0,1,1.18-1.58h0a1.42,1.42,0,0,1,1.61,1.17h0a1.4,1.4,0,0,1-1.2,1.58h0l-.2,0h0A1.4,1.4,0,0,1,123.65,96.29ZM121.72,85.4a1.39,1.39,0,0,1,1.09-1.64h0a1.41,1.41,0,0,1,1.66,1.09h0a1.38,1.38,0,0,1-1.09,1.64h0a1.43,1.43,0,0,1-.29,0h0A1.4,1.4,0,0,1,121.72,85.4Z"/><path class="cls-13" d="M112.42,53.75a1.43,1.43,0,0,1-1-.41,1.12,1.12,0,0,1-.17-.21,1.41,1.41,0,0,1-.13-.24.87.87,0,0,1-.08-.26,1.39,1.39,0,0,1,0-.27,1.33,1.33,0,0,1,0-.28.87.87,0,0,1,.08-.26,1.12,1.12,0,0,1,.13-.24.67.67,0,0,1,.17-.2,1.46,1.46,0,0,1,2,0,.7.7,0,0,1,.18.2l.13.24a.84.84,0,0,1,.07.26,1.33,1.33,0,0,1,0,.28,1.39,1.39,0,0,1,0,.27.84.84,0,0,1-.07.26l-.13.24a1.18,1.18,0,0,1-.18.21A1.41,1.41,0,0,1,112.42,53.75Z"/><path class="cls-13" d="M119.79,77.05a1.41,1.41,0,0,1,1-1.7h0a1.42,1.42,0,0,1,1.71,1h0a1.38,1.38,0,0,1-1,1.69h0a1.48,1.48,0,0,1-.35,0h0A1.43,1.43,0,0,1,119.79,77.05Zm-2.35-8.23a1.38,1.38,0,0,1,.92-1.74h0a1.42,1.42,0,0,1,1.77.91h0a1.39,1.39,0,0,1-.92,1.74h0a1.54,1.54,0,0,1-.42.07h0A1.43,1.43,0,0,1,117.44,68.82Zm-2.85-8a1.39,1.39,0,0,1,.81-1.8h0a1.41,1.41,0,0,1,1.82.79h0a1.39,1.39,0,0,1-.8,1.8h0a1.59,1.59,0,0,1-.51.1h0A1.42,1.42,0,0,1,114.59,60.77Z"/><path class="cls-13" d="M123.09,86.52a1.24,1.24,0,0,1-.27,0l-.26-.08a1.12,1.12,0,0,1-.24-.13,1.84,1.84,0,0,1-.22-.17,1.57,1.57,0,0,1-.17-.21.85.85,0,0,1-.13-.25.72.72,0,0,1-.08-.26,1.09,1.09,0,0,1,0-.26,1.12,1.12,0,0,1,0-.27.72.72,0,0,1,.08-.26.7.7,0,0,1,.13-.24,1.18,1.18,0,0,1,.17-.22,1.84,1.84,0,0,1,.22-.17,1.12,1.12,0,0,1,.24-.13l.26-.08a1.44,1.44,0,0,1,1.27.38,1.41,1.41,0,0,1,.41,1,1.09,1.09,0,0,1,0,.26,1,1,0,0,1-.07.26c0,.09-.09.17-.13.25s-.11.14-.18.21A1.41,1.41,0,0,1,123.09,86.52Z"/><path class="cls-13" d="M83.83,24.38a1.4,1.4,0,0,1-1-.4,1.24,1.24,0,0,1-.18-.22,1.12,1.12,0,0,1-.13-.24,2,2,0,0,1-.08-.26,1.24,1.24,0,0,1,0-.27,1.38,1.38,0,0,1,.42-1,1.49,1.49,0,0,1,2,0,1.39,1.39,0,0,1-1,2.38Z"/><path class="cls-13" d="M107.89,46.92a1.39,1.39,0,0,1,.5-1.91h0a1.42,1.42,0,0,1,1.93.51h0a1.38,1.38,0,0,1-.49,1.9h0a1.44,1.44,0,0,1-.72.19h0A1.41,1.41,0,0,1,107.89,46.92Zm-3.76-5.71a1.38,1.38,0,0,1,.32-1.94h0a1.41,1.41,0,0,1,2,.31h0a1.38,1.38,0,0,1-.32,2h0a1.43,1.43,0,0,1-.82.26h0A1.39,1.39,0,0,1,104.13,41.21ZM99.8,36h0a1.38,1.38,0,0,1,.1-2h0a1.43,1.43,0,0,1,2,.08h0a1.39,1.39,0,0,1-.1,2h0a1.39,1.39,0,0,1-1,.37h0A1.46,1.46,0,0,1,99.8,36Zm-4.91-4.7a1.37,1.37,0,0,1-.18-2h0a1.43,1.43,0,0,1,2-.17h0a1.39,1.39,0,0,1,.17,2h0a1.43,1.43,0,0,1-1.08.5h0A1.39,1.39,0,0,1,94.89,31.25Zm-5.53-3.94a1.4,1.4,0,0,1-.47-1.92h0a1.43,1.43,0,0,1,1.94-.45h0a1.37,1.37,0,0,1,.46,1.91h0a1.39,1.39,0,0,1-1.2.67h0A1.43,1.43,0,0,1,89.36,27.31Z"/><path class="cls-13" d="M112.42,53.75a1.43,1.43,0,0,1-1-.41,1.12,1.12,0,0,1-.17-.21,1.41,1.41,0,0,1-.13-.24.87.87,0,0,1-.08-.26,1.39,1.39,0,0,1,0-.27,1.33,1.33,0,0,1,0-.28.87.87,0,0,1,.08-.26,1.12,1.12,0,0,1,.13-.24.67.67,0,0,1,.17-.2,1.46,1.46,0,0,1,2,0,.7.7,0,0,1,.18.2l.13.24a.84.84,0,0,1,.07.26,1.33,1.33,0,0,1,0,.28,1.39,1.39,0,0,1,0,.27.84.84,0,0,1-.07.26l-.13.24a1.18,1.18,0,0,1-.18.21A1.41,1.41,0,0,1,112.42,53.75Z"/><path class="cls-12" d="M55.68,10l17.2,1.68C95.43,17.84,115,75,116.23,132.23c1.21,56.79-13.62,115-36.94,123l-18.25,2"/><ellipse class="cls-2" cx="57.45" cy="133.61" rx="48.12" ry="123.65" transform="translate(-2.85 1.26) rotate(-1.23)"/><path class="cls-2" d="M77.81,133.16c1,45.59-12,82.83-27.62,83.15s-27.93-36.39-28.9-82,9.77-82.78,25.37-83.1S76.84,87.58,77.81,133.16Z"/><path class="cls-2" d="M134,89.23l-5.9-15.69-8.34,4.7c-2.71,1.55-3.63,6.36-1.7,10.38s5.26,5.31,8.33,4.2Z"/><ellipse class="cls-12" cx="131.01" cy="81.39" rx="6.46" ry="8.38" transform="translate(-20.3 51.52) rotate(-20.68)"/><path class="cls-2" d="M133.85,171.23l-2.3,15.27-8.77-2.56c-2.86-.85-4.71-5-3.73-9s3.83-5.81,6.94-5.43Z"/><ellipse class="cls-12" cx="132.7" cy="178.86" rx="7.72" ry="6.19" transform="translate(-66.44 278.59) rotate(-80.03)"/><path class="cls-2" d="M39.23,237.84l-.1-.12c-1.09-1.36-2.17-2.86-3.21-4.44v-.05l.58-14v0a39.51,39.51,0,0,0,2.79,3.43l.08.12Zm3.42,3.78v0l-.34-16h0a20.35,20.35,0,0,0,3.09,2.13h0l0,.05h0l.91,17h0a33.68,33.68,0,0,1-3.67-3.08ZM32.93,228.3v0c-.95-1.72-1.88-3.56-2.76-5.45v0l1.31-11.95v0c.78,1.54,1.59,3,2.41,4.39h0l0,0h0v0ZM50.2,246.94v0l-1.54-17.83h0a12.19,12.19,0,0,0,3.36.52h0v0l2.23,18.59v0a17.61,17.61,0,0,1-4.06-1.26ZM27.65,217v0c-.8-2-1.57-4.06-2.31-6.18v0l1.85-9.89h0c.66,1.78,1.35,3.52,2,5.16v.05Zm1.59-10.93Zm0,0v0Zm29.23,42.3-3-19.18h0a15.32,15.32,0,0,0,3.5-1.44v-.08l0,.06h0v0l3.79,19.48h0v0a16.42,16.42,0,0,1-4.32,1.05Zm-35.21-44h0c-.66-2.16-1.28-4.4-1.87-6.66v0h0l2.26-7.94v0c.54,1.94,1.11,3.86,1.69,5.69l0,.07h0Zm2.06-8.94v0ZM67.16,244.9v0l-4.66-19.67h0A31.78,31.78,0,0,0,66,221.5v0h0l5.57,19.53h0v0a31.4,31.4,0,0,1-4.38,3.82Zm-47.44-54v0h0c-.51-2.27-1-4.62-1.46-7v0h0l2.54-6.08v0c.42,2,.86,4.08,1.33,6h0v.05h0v0h0Zm56.13,44.87v0l-6.49-19.06v0a64.46,64.46,0,0,0,3.22-6.07l0,0v0L80,228.8h0l0,0a67.46,67.46,0,0,1-4.15,6.89ZM18,176.17h0v0c-.39-2.37-.85-5.45-1.18-7.85l1.79-3.06v0c.3,2.12.64,4.25,1,6.31v0h0Zm1.59-4.61v0Zm64.31,48.82,0,0-8.33-17v0c1-2.63,1.88-5.46,2.71-8.4l0,0h0l0-.11v.14l9.18,15.39,0,0c-1.11,3.56-2.31,6.93-3.57,10Zm3.56-10.09v0ZM15.7,162.42v0h0c-.27-2.41-.51-4.86-.71-7.28v0h0l2.17-2.68v0c.19,2.15.41,4.31.65,6.44v0Zm74.93,36.45,0,0-10-13.36v0c.72-3.32,1.37-6.81,1.94-10.39l0,0,10.61,11v.07c-.75,4.41-1.62,8.71-2.58,12.78ZM14.46,147.1v0c-.15-2.43-.27-4.89-.36-7.34h0l2.23-.33v0c.08,2.16.19,4.34.33,6.49l0,0,0,0h0Zm80.72,25.1,0,0-11.1-8.25v-.05c.4-3.81.72-7.76.94-11.73v-.05h0l11.42,5.32v.05h0c-.3,5-.73,9.93-1.27,14.69Zm-81.28-39v0c0-2.42,0-4.87,0-7.3v0l2.24.55v0c0,2.16,0,4.35,0,6.5h0v0Zm71.51,6.94V140c0-4,0-8.16-.14-12.21v-.06h0l11.52-.83V127c.18,5,.24,10.2.19,15.32v.05ZM16.26,119.91,14,118.57v0h0v0c.07-2.41.18-4.84.32-7.23v0h0l2.21,2.13v0c-.13,2.12-.23,4.28-.3,6.44v0h0Zm68.33-4.13v0c-.31-3.95-.72-7.89-1.21-11.71V104l0,0,10.83-6.81v.05c.67,4.78,1.22,9.71,1.64,14.66v0h0ZM17,107.09h0l-2.17-2.23v0c.19-2.36.42-4.75.67-7.11h0l2.12,3v0c-.23,2-.43,4.16-.61,6.26h0ZM81.68,92.88v0c-.64-3.57-1.36-7.07-2.15-10.4v0l0,0,9.53-11.84v0c1,4.07,2,8.36,2.86,12.76v0l0,0ZM18.41,94.63v0l-2-3.87v0c.31-2.32.66-4.64,1-6.91v0l2,4.71v0c-.34,2-.65,4-.94,6.07ZM77,73v0c-.89-3-1.84-5.81-2.84-8.45h0l0,0,0,0h0L82,49v0a0,0,0,0,1,0,0v0h0c1.31,3.13,2.56,6.51,3.72,10.05v0ZM20.46,82.61h0l-1.86-5.54V77h0c.44-2.23.91-4.45,1.4-6.59v0l1.73,6.39v0c-.45,1.87-.88,3.81-1.28,5.76Zm50.6-25.5v0c-1-2.25-2.16-4.34-3.28-6.24V50.8h0l6-17.49h0A78.14,78.14,0,0,1,78,40.42v.06ZM23.18,71.3v0h0l-1.94-6.57h0c.57-2.11,1.17-4.19,1.79-6.2v0l1.77,7.47v0c-.57,1.72-1.11,3.5-1.62,5.31h0Zm41.2-25.52h0a35.24,35.24,0,0,0-3.46-3.94l-.06,0,0,0,4.21-18.18h0l0,0h0a34.78,34.78,0,0,1,4.33,4.15h0v0ZM26.54,61.09l.05-.2-1.91-9.07v0h0c.71-2,1.45-3.86,2.21-5.65v0l1.68,10v0c-.68,1.5-1.34,3.09-2,4.73h0ZM57.43,39h0a17.14,17.14,0,0,0-3.35-1.76h0l-.12,0v0h0l.62-4.26h0l2-13.61h0a19,19,0,0,1,4.23,1.51h0v0ZM30.73,51.82v0L29.33,40.15v0c.85-1.71,1.74-3.36,2.65-4.89h0v0l1.08,12.58h0c-.8,1.22-1.59,2.56-2.34,3.95ZM50.6,36.37h0a12.4,12.4,0,0,0-3.28.1l0,0v0l1.26-16.79h0a15.72,15.72,0,0,1,3.93-.72h0v0Zm-15,8h0l-.07,0,.07-.1-.72-13.47h0l0,0A45.6,45.6,0,0,1,38,27h0v0l.31,14.4h0a31.81,31.81,0,0,0-2.68,2.92h0Zm8.59-7h0a17,17,0,0,0-3,1.66h-.05l.15-15.26,0,0a25,25,0,0,1,3.5-2.45h0v0Z"/><ellipse class="cls-2" cx="43.85" cy="135.92" rx="14.14" ry="37.4" transform="translate(-0.86 0.28) rotate(-0.36)"/><path class="cls-2" d="M25,87.17c-2.69-.09-4.95,1.49-5,3L19,111.81l9.75.51,1-22.58C29.8,88.3,27.53,87.25,25,87.17Z"/><path class="cls-2" d="M25.07,181.47c-2.64,0-4.79-1.46-4.8-2.77l-.12-18.58L29.7,160l.13,19.4C29.84,180.68,27.58,181.5,25.07,181.47Z"/><path class="cls-2" d="M19.94,120l-12-8.35a3.33,3.33,0,0,0-.78-.55h0c-2.14-1-4.93.56-6.24,3.54s-.62,6.25,1.52,7.28L14.8,130c2,.91,4.25.13,5.72-2.61S21.65,121.23,19.94,120Z"/><path class="cls-2" d="M20.77,148.53,12,161.25a3.94,3.94,0,0,1-.58.84h0c-1.72,1.9-5,2-7.23.21s-2.71-4.77-1-6.66l9.21-12.71a4.84,4.84,0,0,1,6.41-.71C21.19,143.72,22,146.69,20.77,148.53Z"/><path class="cls-2" d="M39.51,112.27l-26.88-1.42L13,161.49l27.49-1.88c5.73-1.11,10.31-10.29,10.21-24.28S44.66,113.12,39.51,112.27Z"/><ellipse class="cls-2" cx="12.8" cy="136.17" rx="10.1" ry="25.32" transform="translate(-0.86 0.08) rotate(-0.36)"/><ellipse class="cls-2" cx="12.23" cy="136.18" rx="6.45" ry="16.18" transform="translate(-0.86 0.08) rotate(-0.36)"/><path class="cls-2" d="M48,119.15l-4.63-12-12.95,9.58c-1.73,1.3-2.13,5.07-.67,8.12s3.74,3.92,5.73,2.95Z"/><ellipse class="cls-2" cx="45.64" cy="113.17" rx="4.35" ry="6.44" transform="translate(-29.92 17.35) rotate(-16.3)"/><path class="cls-2" d="M47.5,151.61l-4.32,11.47-12.61-8.94c-1.69-1.21-2.12-4.8-.75-7.73s3.56-3.79,5.49-2.9Z"/><ellipse class="cls-2" cx="45.34" cy="157.35" rx="6.15" ry="4.19" transform="matrix(0.28, -0.96, 0.96, 0.28, -118.41, 157.14)"/></g></g></g></svg>