<svg id="Layer_1" data-name="Layer 1" xmlns="http://www.w3.org/2000/svg" xmlns:xlink="http://www.w3.org/1999/xlink" viewBox="0 0 612 792"><defs><style>.cls-1{fill:none;}.cls-2{fill:#bdbfe0;}.cls-3{fill:url(#SVGID_3_);}</style><pattern id="SVGID_3_" data-name="SVGID 3 " width="158" height="46" patternTransform="matrix(0.85, -0.52, -0.52, -0.85, 1395.55, 4517.74)" patternUnits="userSpaceOnUse" viewBox="0 0 158 46"><rect class="cls-1" width="158" height="46"/><rect class="cls-1" width="158" height="46"/><path class="cls-2" d="M2.4,41.2H3.9v.5H2.4v2a.35.35,0,0,1,.2.1H2V41.6H.2v-.5H1.9a11.47,11.47,0,0,0-1.9-4c.1-.1.2-.3.3-.4A15.35,15.35,0,0,1,2,40.1V34.8h.5v4.7c.4-.5,1-1.2,1.2-1.5l.3.4c-.2.3-1.2,1.3-1.5,1.7v1.1Zm5.5,2.1H4.7V40.1c0-1.6-.1-3.6-1.5-5,.1-.1.3-.2.4-.3,1.4,1.5,1.6,3.7,1.6,5.3v2.7H7.5V36.1c0-.9,0-1,.2-1.1a.75.75,0,0,1,.5-.1h.5c.7,0,.8.2.8,2.2a.76.76,0,0,0-.4.2V35.8c0-.2,0-.5-.4-.5H8.2c-.3,0-.3.1-.3.7Z"/><path class="cls-2" d="M13.7,38.8h-.4a10.58,10.58,0,0,1,3.5,2.7H17l-.5.3a9.06,9.06,0,0,0-3.4-2.6V41a.35.35,0,0,1,.2.1h-.6V38.9a11.42,11.42,0,0,0-2.6-.9c.1-.1.2-.3.3-.4.9.3,1.7.6,2.5.9.2-.2.4-.2,1-.2H16c.8,0,.9.3,1,1.4a.76.76,0,0,0-.4.2c0-1-.1-1.2-.6-1.2H13.7Zm-3.3-.1a2.89,2.89,0,0,1,1.4,2l-.4.1A2.37,2.37,0,0,0,10,39ZM18,42.3V40.9h.5v1.9H14.7v.9a.35.35,0,0,1,.2.1h-.7V42.7H10.5V40.8H11v1.4h7Zm-3.3-6.6V38a.35.35,0,0,1,.2.1h-.6V35.6H11.8v1.7a.35.35,0,0,1,.2.1h-.6V34.6h.5v.5h5.6v-.4H18v2.6a.35.35,0,0,1,.2.1h-.6V35.5H14.7Zm-1.6,6.2a5.69,5.69,0,0,0,1.7-1.2l.3.3a7.12,7.12,0,0,1-1.7,1.1Zm5.9-3a7,7,0,0,1-1.9,2l-.3-.3a11.67,11.67,0,0,0,1.9-2Z"/><path class="cls-2" d="M31.3,36.6v.8a4,4,0,0,0-1.5-.3,1.49,1.49,0,0,0-1.3.6,2.67,2.67,0,0,0-.4,1.7c0,1.5.6,2.3,1.8,2.3a1.27,1.27,0,0,0,.6-.1c.2-.1.4-.1.6-.2l.3.8a1.45,1.45,0,0,1-.7.2c-.3,0-.6.1-.8.1a2.48,2.48,0,0,1-2-.8,3.17,3.17,0,0,1-.7-2.3,2.92,2.92,0,0,1,.7-2.2,2.63,2.63,0,0,1,2-.8A2.2,2.2,0,0,1,31.3,36.6Z"/><path class="cls-2" d="M37.2,41.6a2.9,2.9,0,0,1-4,0,3.07,3.07,0,0,1-.7-2.2,3.81,3.81,0,0,1,.3-1.6,3.13,3.13,0,0,1,.9-1.1,2.3,2.3,0,0,1,1.4-.4,2.63,2.63,0,0,1,2,.8,3.07,3.07,0,0,1,.7,2.2A3.31,3.31,0,0,1,37.2,41.6ZM33.8,41a1.71,1.71,0,0,0,2.6,0,2.86,2.86,0,0,0,.5-1.7,2.65,2.65,0,0,0-.5-1.7,1.71,1.71,0,0,0-2.6,0,2.86,2.86,0,0,0-.5,1.7A3.11,3.11,0,0,0,33.8,41Z"/><path class="cls-2" d="M44.4,36.4v3.8a2.17,2.17,0,0,1-.5,1.6,2.54,2.54,0,0,1-1.6.5,3.59,3.59,0,0,1-1.1-.2,2.7,2.7,0,0,1-.8-.7h0l-.1.8h-.7V36.3h.9v3.1a2.2,2.2,0,0,0,.4,1.6,1.81,1.81,0,0,0,1.4.5,1.05,1.05,0,0,0,1-.4,1.8,1.8,0,0,0,.3-1.1V36.2h.8Z"/><path class="cls-2" d="M49,42.3H47.5v.4a2.68,2.68,0,0,0,.2,1.1.91.91,0,0,0,.7.3,5.07,5.07,0,0,0,.9-.2l.2.7a5.16,5.16,0,0,1-1.1.2c-1.3,0-1.9-.7-1.9-2.2v-.3l-.9-.3v-.4h1.1V36.4h.9v5.2H49Zm1.2,1.1c.1-.1.2-.1.4-.1a.6.6,0,0,1,.4.1.5.5,0,0,1,0,.8c-.1.1-.2.1-.4.1s-.3,0-.4-.1a.52.52,0,0,1-.2-.4A.76.76,0,0,1,50.2,43.4Zm.8-1.1h-.9V36.4H51Z"/><path class="cls-2" d="M57.1,36.4h.7v8.4h-.9V41.6h-.1a2,2,0,0,1-1.8.9,2.2,2.2,0,0,1-1.8-.8,3.71,3.71,0,0,1-.6-2.3,3.4,3.4,0,0,1,.6-2.2,2.2,2.2,0,0,1,1.8-.8,2,2,0,0,1,1.8.9h0Zm-3.2,1.2a2.86,2.86,0,0,0-.4,1.7,2.86,2.86,0,0,0,.4,1.7,1.43,1.43,0,0,0,1.2.6,1.58,1.58,0,0,0,1.3-.5,3,3,0,0,0,.4-1.8v-.2a2.36,2.36,0,0,0-.4-1.6,1.73,1.73,0,0,0-1.3-.5A1.43,1.43,0,0,0,53.9,37.6Z"/><path class="cls-2" d="M63.3,36.4l.9.3v.8a4.06,4.06,0,0,0-1.9-.4,2,2,0,0,0-1.4.5,2.54,2.54,0,0,0-.5,1.6h4.1v.6a2.88,2.88,0,0,1-.6,1.9,2.14,2.14,0,0,1-1.8.7,2.56,2.56,0,0,1-1.9-.8,3.33,3.33,0,0,1-.7-2.3,3.11,3.11,0,0,1,.8-2.2,2.86,2.86,0,0,1,2.1-.8A3.08,3.08,0,0,1,63.3,36.4Zm-.2,4.8a1.7,1.7,0,0,0,.4-1.3H60.4a2.54,2.54,0,0,0,.5,1.3,1.61,1.61,0,0,0,1.1.5A1.88,1.88,0,0,0,63.1,41.2Z"/><path class="cls-2" d="M70.9,36.4v3.8a2.17,2.17,0,0,1-.5,1.6,2.54,2.54,0,0,1-1.6.5,3.59,3.59,0,0,1-1.1-.2,2.7,2.7,0,0,1-.8-.7h0l-.1.8H66V36.3h.9v3.1a2.2,2.2,0,0,0,.4,1.6,1.81,1.81,0,0,0,1.4.5,1.05,1.05,0,0,0,1-.4A1.8,1.8,0,0,0,70,40V36.2h.9Z"/><path class="cls-2" d="M74,37.3a1.14,1.14,0,0,0-.3.8v3.5h1.7v.7H73.7v1.4h-.5l-.4-1.3-.7-.4v-.4h.8V38.1c0-1.2.6-1.8,1.7-1.8h.5c.2,0,.3.1.4.1v.7a.37.37,0,0,1-.3-.1h-.5A.91.91,0,0,0,74,37.3Z"/><path class="cls-2" d="M76.9,43.4c.1-.1.2-.1.4-.1a.6.6,0,0,1,.4.1.5.5,0,0,1,0,.8c-.1.1-.2.1-.4.1s-.3,0-.4-.1a.52.52,0,0,1-.2-.4A.76.76,0,0,1,76.9,43.4Zm.8-1.1h-.9V36.4h.9Z"/><path class="cls-2" d="M83.9,36.4v4a2.07,2.07,0,0,1-.5,1.5,2.35,2.35,0,0,1-1.6.5,3.4,3.4,0,0,1-1-.1,4.18,4.18,0,0,1-1-.4l.3-.7a4.06,4.06,0,0,0,1.7.5,1.1,1.1,0,0,0,1.3-1.3V40h-1c-1.9-.1-2.9-.7-2.9-1.9a1.73,1.73,0,0,1,.5-1.3,2,2,0,0,1,1.4-.5,3.59,3.59,0,0,1,1.1.2,2.76,2.76,0,0,1,.9.7h0l.2-.8Zm-3.5.9a.91.91,0,0,0-.3.7,1.05,1.05,0,0,0,.5.9,2.81,2.81,0,0,0,1.5.3H83v-.5a1.71,1.71,0,0,0-1.8-1.8A2,2,0,0,0,80.4,37.3Z"/><path class="cls-2" d="M86.7,44.7h-.9V36.3h.9Z"/><path class="cls-2" d="M31.7,1.5v.8A4,4,0,0,0,30.2,2a1.49,1.49,0,0,0-1.3.6,2.67,2.67,0,0,0-.4,1.7c0,1.5.6,2.3,1.8,2.3a1.27,1.27,0,0,0,.6-.1c.2-.1.4-.1.6-.2l.3.7a1.45,1.45,0,0,1-.7.2c-.3,0-.6.1-.8.1a2.48,2.48,0,0,1-2-.8,3.17,3.17,0,0,1-.7-2.3A2.92,2.92,0,0,1,28.3,2a2.63,2.63,0,0,1,2-.8A3.19,3.19,0,0,1,31.7,1.5Z"/><path class="cls-2" d="M37.5,6.4a2.9,2.9,0,0,1-4,0,3.07,3.07,0,0,1-.7-2.2,3.81,3.81,0,0,1,.3-1.6A3.13,3.13,0,0,1,34,1.5a2.3,2.3,0,0,1,1.4-.4,2.63,2.63,0,0,1,2,.8,3.07,3.07,0,0,1,.7,2.2A2.4,2.4,0,0,1,37.5,6.4Zm-3.3-.5a1.71,1.71,0,0,0,2.6,0,2.86,2.86,0,0,0,.5-1.7,2.65,2.65,0,0,0-.5-1.7,1.71,1.71,0,0,0-2.6,0,2.86,2.86,0,0,0-.5,1.7A3.11,3.11,0,0,0,34.2,5.9Z"/><path class="cls-2" d="M44.8,1.3V5.1a2.17,2.17,0,0,1-.5,1.6,2.54,2.54,0,0,1-1.6.5A3.59,3.59,0,0,1,41.6,7a2.7,2.7,0,0,1-.8-.7h0l-.1.8H40V1.2h.9V4.3a2.2,2.2,0,0,0,.4,1.6,1.81,1.81,0,0,0,1.4.5,1.05,1.05,0,0,0,1-.4A1.8,1.8,0,0,0,44,4.9V1.1h.8Z"/><path class="cls-2" d="M49.4,7.2H47.9v.4a2.68,2.68,0,0,0,.2,1.1,1.49,1.49,0,0,0,.8.3,5.07,5.07,0,0,0,.9-.2l.2.7a5.16,5.16,0,0,1-1.1.2C47.6,9.7,47,9,47,7.5V7.2l-1.1-.3V6.5H47V1.3h.9V6.5h1.5Zm1.1,1.1c.1-.1.2-.1.4-.1a.6.6,0,0,1,.4.1.5.5,0,0,1,0,.8.76.76,0,0,1-.4.2c-.2,0-.3,0-.4-.1a.52.52,0,0,1-.2-.4C50.4,8.6,50.4,8.4,50.5,8.3Zm.8-1.1h-.9V1.3h.9Z"/><path class="cls-2" d="M57.4,1.3h.7V9.7h-.9V6.5h-.1a2,2,0,0,1-1.8.9,2.2,2.2,0,0,1-1.8-.8A4.09,4.09,0,0,1,53,4.2,3.4,3.4,0,0,1,53.6,2a2.2,2.2,0,0,1,1.8-.8,2,2,0,0,1,1.8.9h0ZM54.3,2.5a2.86,2.86,0,0,0-.4,1.7,2.86,2.86,0,0,0,.4,1.7,1.43,1.43,0,0,0,1.2.6A1.58,1.58,0,0,0,56.8,6a3,3,0,0,0,.4-1.8V4a2.36,2.36,0,0,0-.4-1.6,1.73,1.73,0,0,0-1.3-.5A1.43,1.43,0,0,0,54.3,2.5Z"/><path class="cls-2" d="M63.6,1.3l.9.3v.8A4.06,4.06,0,0,0,62.6,2a2,2,0,0,0-1.4.5,2.54,2.54,0,0,0-.5,1.6h4.1v.6a2.88,2.88,0,0,1-.6,1.9,2.14,2.14,0,0,1-1.8.7,2.56,2.56,0,0,1-1.9-.8,3.33,3.33,0,0,1-.7-2.3A3.11,3.11,0,0,1,60.6,2a2.86,2.86,0,0,1,2.1-.8A2.77,2.77,0,0,1,63.6,1.3Zm-.2,4.8a1.7,1.7,0,0,0,.4-1.3H60.7a2.54,2.54,0,0,0,.5,1.3,1.61,1.61,0,0,0,1.1.5A1.63,1.63,0,0,0,63.4,6.1Z"/><path class="cls-2" d="M71.3,1.3V5.1a2.17,2.17,0,0,1-.5,1.6,2.54,2.54,0,0,1-1.6.5A3.59,3.59,0,0,1,68.1,7a2.7,2.7,0,0,1-.8-.7h0l-.1.8h-.7V1.2h.9V4.3a2.2,2.2,0,0,0,.4,1.6,1.81,1.81,0,0,0,1.4.5,1.05,1.05,0,0,0,1-.4,1.8,1.8,0,0,0,.3-1.1V1.1h.8Z"/><path class="cls-2" d="M77,1.5v.8A4,4,0,0,0,75.5,2a1.49,1.49,0,0,0-1.3.6,2.67,2.67,0,0,0-.4,1.7c0,1.5.6,2.3,1.8,2.3a1.27,1.27,0,0,0,.6-.1c.2-.1.4-.1.6-.2l.3.7a2.07,2.07,0,0,0-.6.2,2.2,2.2,0,0,1-.8.1,2.48,2.48,0,0,1-2-.8A3.17,3.17,0,0,1,73,4.2,2.92,2.92,0,0,1,73.7,2a2.63,2.63,0,0,1,2-.8A2.77,2.77,0,0,1,77,1.5Z"/><path class="cls-2" d="M78.6,8.3c.1-.1.2-.1.4-.1a.6.6,0,0,1,.4.1.5.5,0,0,1,0,.8.76.76,0,0,1-.4.2c-.2,0-.3,0-.4-.1a.52.52,0,0,1-.2-.4A.76.76,0,0,1,78.6,8.3Zm.8-1.1h-.9V1.3h.9Z"/><path class="cls-2" d="M85.7,1.3v4a2.07,2.07,0,0,1-.5,1.5,2.35,2.35,0,0,1-1.6.5,3.4,3.4,0,0,1-1-.1,4.18,4.18,0,0,1-1-.4l.3-.7a4.06,4.06,0,0,0,1.7.5,1.49,1.49,0,0,0,1-.3,1.49,1.49,0,0,0,.3-1V4.9h-1C82,4.8,81,4.2,81,3a1.73,1.73,0,0,1,.5-1.3,2,2,0,0,1,1.4-.5,3.59,3.59,0,0,1,1.1.2,2.76,2.76,0,0,1,.9.7h0l.1-.8Zm-3.5.9a.91.91,0,0,0-.3.7,1.05,1.05,0,0,0,.5.9,2.81,2.81,0,0,0,1.5.3h.9V3.6a1.9,1.9,0,0,0-.5-1.3A2.5,2.5,0,0,0,83,1.9,1,1,0,0,0,82.2,2.2Z"/><path class="cls-2" d="M88.5,9.6h-.9V1.2h.9Z"/><path class="cls-2" d="M143.2,8.5h1.5V6.4a2,2,0,0,1-.9-.2.37.37,0,0,1-.1-.3,1.33,1.33,0,0,1,.3-.7c.3-.3.5-.5.7-.5a.51.51,0,0,1,.5.4,8.44,8.44,0,0,1,.2,1.9,7.08,7.08,0,0,1-.1,1.5h2.1V3.1l.7-.2.1.1V8.5h1.1v.1l-.3.6h-6V9.1Z"/><path class="cls-2" d="M145,2.8h0c1-1.5,1.9-2,2.8-2A1.12,1.12,0,0,1,149,1.9a2.35,2.35,0,0,1-.2.8,1.22,1.22,0,0,1-1,.6,1.78,1.78,0,0,1-1-.4l.4-.6h0a1.23,1.23,0,0,0,.8.4.37.37,0,0,0,.4-.4c0-.4-.6-.7-1-.7-.8,0-1.5.6-2.2,1.7Z"/><path class="cls-2" d="M152.3,8.5h3.9V7.4h-1.3c-1.6,0-2.1-.6-2.1-1.4a4.67,4.67,0,0,1,1.7-3h.1l.5.7c-1.1.7-1.7,1.4-1.7,2s.5,1,1.8,1h.9V3.2l.7-.2.1.1V8.6H158v.1l-.3.6h-5.6V9.2Z"/><path class="cls-2" d="M154.5,9.2H149V9.1l.3-.6h.8V7a2.46,2.46,0,0,1,.5-1.7,2,2,0,0,1,1.4-.6,1.5,1.5,0,0,1,1.1.4V6.6a1.09,1.09,0,0,0-.4-.9,1.78,1.78,0,0,0-1-.4q-.9,0-.9,1.5V8.5h4v.1Z"/><path class="cls-2" d="M45.5,25.3v.8a4,4,0,0,0-1.5-.3,1.49,1.49,0,0,0-1.3.6,2.67,2.67,0,0,0-.4,1.7c0,1.5.6,2.3,1.8,2.3a1.27,1.27,0,0,0,.6-.1c.2-.1.4-.1.6-.2l.3.8a1.45,1.45,0,0,1-.7.2c-.3,0-.6.1-.8.1a2.48,2.48,0,0,1-2-.8,3.17,3.17,0,0,1-.7-2.3,2.92,2.92,0,0,1,.7-2.2,2.63,2.63,0,0,1,2-.8A2.2,2.2,0,0,1,45.5,25.3Z"/><path class="cls-2" d="M51.3,30.2a2.9,2.9,0,0,1-4,0,3.07,3.07,0,0,1-.7-2.2,3.81,3.81,0,0,1,.3-1.6,3.13,3.13,0,0,1,.9-1.1,2.3,2.3,0,0,1,1.4-.4,2.63,2.63,0,0,1,2,.8,3.07,3.07,0,0,1,.7,2.2A2.67,2.67,0,0,1,51.3,30.2ZM48,29.7a1.71,1.71,0,0,0,2.6,0,2.86,2.86,0,0,0,.5-1.7,2.65,2.65,0,0,0-.5-1.7,1.71,1.71,0,0,0-2.6,0,2.86,2.86,0,0,0-.5,1.7A3.11,3.11,0,0,0,48,29.7Z"/><path class="cls-2" d="M58.6,25.1v3.8a2.17,2.17,0,0,1-.5,1.6,2.54,2.54,0,0,1-1.6.5,3.59,3.59,0,0,1-1.1-.2,2.7,2.7,0,0,1-.8-.7h0l-.2.9h-.7V25.1h.9v3.1a2.2,2.2,0,0,0,.4,1.6,1.81,1.81,0,0,0,1.4.5,1.05,1.05,0,0,0,1-.4,1.8,1.8,0,0,0,.3-1.1V25h.9Z"/><path class="cls-2" d="M63.2,31H61.7v.4a2.68,2.68,0,0,0,.2,1.1.91.91,0,0,0,.7.3,5.07,5.07,0,0,0,.9-.2l.2.7a5.16,5.16,0,0,1-1.1.2c-1.3,0-1.9-.7-1.9-2.2V31l-1.1-.3v-.4h1.1V25.1h.9v5.2h1.5V31Zm1.1,1.1c.1-.1.2-.1.4-.1a.6.6,0,0,1,.4.1.5.5,0,0,1,0,.8c-.1.1-.2.1-.4.1s-.3,0-.4-.1a.52.52,0,0,1-.2-.4C64.2,32.4,64.2,32.2,64.3,32.1Zm.8-1.1h-.9V25.1h.9Z"/><path class="cls-2" d="M71.2,25.1h.7v8.4H71V30.3h0a2,2,0,0,1-1.8.9,2.2,2.2,0,0,1-1.8-.8,4,4,0,0,1-.6-2.4,3.4,3.4,0,0,1,.6-2.2,2.2,2.2,0,0,1,1.8-.8,2,2,0,0,1,1.8.9h0Zm-3.1,1.2a2.86,2.86,0,0,0-.4,1.7,2.86,2.86,0,0,0,.4,1.7,1.43,1.43,0,0,0,1.2.6,1.58,1.58,0,0,0,1.3-.5A3,3,0,0,0,71,28v-.2a2.36,2.36,0,0,0-.4-1.6,1.73,1.73,0,0,0-1.3-.5A1.43,1.43,0,0,0,68.1,26.3Z"/><path class="cls-2" d="M77.4,25.1l.9.3v.8a4.06,4.06,0,0,0-1.9-.4,2,2,0,0,0-1.4.5,2.54,2.54,0,0,0-.5,1.6h4.1v.6a2.88,2.88,0,0,1-.6,1.9,2.14,2.14,0,0,1-1.8.7,2.56,2.56,0,0,1-1.9-.8,3.33,3.33,0,0,1-.7-2.3,3.11,3.11,0,0,1,.8-2.2,2.86,2.86,0,0,1,2.1-.8A2.77,2.77,0,0,1,77.4,25.1Zm-.2,4.8a1.7,1.7,0,0,0,.4-1.3H74.5a2.54,2.54,0,0,0,.5,1.3,1.61,1.61,0,0,0,1.1.5A1.63,1.63,0,0,0,77.2,29.9Z"/><path class="cls-2" d="M85.1,25.1v3.8a2.17,2.17,0,0,1-.5,1.6A2.54,2.54,0,0,1,83,31a3.59,3.59,0,0,1-1.1-.2,2.7,2.7,0,0,1-.8-.7h0l-.2.9h-.7V25.1H81v3.1a2.2,2.2,0,0,0,.4,1.6,1.81,1.81,0,0,0,1.4.5,1.05,1.05,0,0,0,1-.4,1.8,1.8,0,0,0,.3-1.1V25h1Z"/><path class="cls-2" d="M88.2,26a1.14,1.14,0,0,0-.3.8v3.5h1.7V31H87.9v1.4h-.5L87,31.1l-.8-.4v-.4H87V26.8c0-1.2.6-1.8,1.7-1.8h.5c.2,0,.3.1.4.1v.7a.37.37,0,0,1-.3-.1h-.5A.86.86,0,0,0,88.2,26Z"/><path class="cls-2" d="M91,32.1c.1-.1.2-.1.4-.1a.6.6,0,0,1,.4.1.5.5,0,0,1,0,.8c-.1.1-.2.1-.4.1s-.3,0-.4-.1a.52.52,0,0,1-.2-.4C90.9,32.4,90.9,32.2,91,32.1Zm.8-1.1h-.9V25.1h.9Z"/><path class="cls-2" d="M97.3,25.1l.9.3v.8a4.06,4.06,0,0,0-1.9-.4,2,2,0,0,0-1.4.5,2.54,2.54,0,0,0-.5,1.6h4.1v.6a2.88,2.88,0,0,1-.6,1.9,2.14,2.14,0,0,1-1.8.7,2.56,2.56,0,0,1-1.9-.8,3.33,3.33,0,0,1-.7-2.3,3.11,3.11,0,0,1,.8-2.2,2.86,2.86,0,0,1,2.1-.8A2.77,2.77,0,0,1,97.3,25.1Zm-.2,4.8a1.7,1.7,0,0,0,.4-1.3H94.4a2.54,2.54,0,0,0,.5,1.3,1.61,1.61,0,0,0,1.1.5A1.63,1.63,0,0,0,97.1,29.9Z"/><path class="cls-2" d="M100.9,33.4H100V25h.9Z"/><path class="cls-2" d="M96.5,41.7a4.23,4.23,0,0,0-.5.7,2.65,2.65,0,0,0-.5.6,2.09,2.09,0,0,1-.6.4,1.27,1.27,0,0,1-.6.1,2.2,2.2,0,0,1-.8-.1,2.09,2.09,0,0,1-.6-.4,1.27,1.27,0,0,1-.4-.6,1.7,1.7,0,0,1-.1-.7.9.9,0,0,1,.1-.5c.1-.2.2-.3.3-.5.1.1.2.1.3.2s.2.1.4.2.2.1.4.2.2.1.3.1.3,0,.3-.1a.37.37,0,0,0,.1-.3c0-.2-.1-.4-.4-.7a12,12,0,0,0-1.1-1l.7-.6a.35.35,0,0,0,.2.1l.3.3.3.3c.1.1.2.3.3.4a.76.76,0,0,1,.2.4c0,.1.1.3.1.4s0,.3-.1.4-.1.3-.2.4a.52.52,0,0,1-.4.2.75.75,0,0,1-.5.1h-.4c-.1,0-.1,0-.2-.1s-.1,0-.1-.1v.2a.37.37,0,0,0,.1.3c.1.1.1.2.2.3s.2.1.3.2.3.1.4.1a1.27,1.27,0,0,0,.6-.1,2.19,2.19,0,0,0,.5-.3c.2-.1.3-.3.5-.5a4.35,4.35,0,0,0,.6-.7V36.5l.8-.5v6.8h.8v.7h-.8v.6l-.8.7V41.7Z"/><path class="cls-2" d="M100.1,42.7a2.65,2.65,0,0,1-.5-.6c-.2-.3-.3-.5-.5-.8s-.2-.6-.3-1a4.1,4.1,0,0,1-.1-1.1,5.85,5.85,0,0,1,.2-1.3,3.13,3.13,0,0,1,.5-1,2.34,2.34,0,0,1,.7-.7,1.69,1.69,0,0,1,1-.3,1.27,1.27,0,0,1,.6.1c.2.1.3.1.4.2a1.38,1.38,0,0,1,.3.4.6.6,0,0,1,.1.4.37.37,0,0,1-.1.3c0,.1-.1.2-.2.3s-.2.1-.3.2-.2.1-.3.1a1.42,1.42,0,0,1-.6-.2c-.2-.1-.2-.4-.2-.6v-.2c0-.1,0-.1.1-.2l.2-.2a.37.37,0,0,1,.3-.1.1.1,0,0,1-.1-.1h-.2a1.42,1.42,0,0,0-.6.2c-.2.2-.3.4-.5.6s-.2.6-.3.9a3.4,3.4,0,0,0-.1,1,4.25,4.25,0,0,0,.2,1.1,3,3,0,0,0,.4,1l.6.9a5,5,0,0,0,.8.7h.7v.7H98.1v-.7Zm2.6-2.9a.3.3,0,1,1,.3-.3A.27.27,0,0,1,102.7,39.8Zm.3,1.1a.3.3,0,1,1,.3-.3A.27.27,0,0,1,103,40.9Zm0-2.2a.3.3,0,1,1,.3-.3A.27.27,0,0,1,103,38.7Zm.6,3.1a.3.3,0,1,1,.3-.3A.27.27,0,0,1,103.6,41.8Zm0-4a.3.3,0,1,1,.3-.3A.27.27,0,0,1,103.6,37.8Zm.9,4.6a.3.3,0,1,1,.3-.3A.27.27,0,0,1,104.5,42.4Zm0-5.2a.3.3,0,1,1,.3-.3A.27.27,0,0,1,104.5,37.2Zm1,5.4a.3.3,0,1,1,.3-.3A.27.27,0,0,1,105.5,42.6Zm0-5.6a.3.3,0,1,1,.3-.3A.27.27,0,0,1,105.5,37Zm1.1,5.4a.3.3,0,1,1,.3-.3A.27.27,0,0,1,106.6,42.4Zm0-5.2a.3.3,0,1,1,.3-.3A.27.27,0,0,1,106.6,37.2Zm.9,4.6a.3.3,0,1,1,.3-.3A.27.27,0,0,1,107.5,41.8Zm0-4a.3.3,0,1,1,.3-.3A.27.27,0,0,1,107.5,37.8Zm.6,3.1a.3.3,0,1,1,.3-.3A.27.27,0,0,1,108.1,40.9Zm0-2.2a.3.3,0,1,1,.3-.3A.27.27,0,0,1,108.1,38.7Zm.2,1.1a.3.3,0,1,1,.3-.3A.27.27,0,0,1,108.3,39.8Zm1.2,2.9V36.4l.8-.5v6.8h1.1v.7h-1.1V44l-.8.7V43.4h-.8v-.7Z"/><path class="cls-2" d="M116.9,40.9a8.79,8.79,0,0,1-.6,1,5.55,5.55,0,0,1-.6.8,3,3,0,0,1-.7.5,3,3,0,0,1-1,.2,1.7,1.7,0,0,1-.7-.1,2.51,2.51,0,0,1-.7-.4c-.2-.2-.4-.3-.6-.5a4.23,4.23,0,0,1-.5-.7l.1-.1a.37.37,0,0,1,.3-.1c.1,0,.2-.1.3-.1a.1.1,0,0,0,.1-.1.37.37,0,0,0,.3.1h.3a.68.68,0,0,0,.7-.7,1.42,1.42,0,0,0-.2-.6l-.2-.2-.2-.2.8-.4,2,2.1c.2-.2.3-.4.5-.6s.3-.5.5-.7l.1-.1V36.3l.8-.5v6.8h.8v.7h-.8v.6l-.8.7V40.9Zm-2.1,1.7a2.09,2.09,0,0,0,.6-.4l-1.3-1.3v.2a.37.37,0,0,1-.1.3c-.1.1-.1.2-.2.3s-.2.1-.3.2-.2.1-.4.1h-.3c0,.1.1.1.2.2l.3.3a.76.76,0,0,0,.4.2.9.9,0,0,0,.5.1C114.4,42.7,114.6,42.7,114.8,42.6Z"/><path class="cls-2" d="M121,40.1a3,3,0,0,0,.7-.5,4.62,4.62,0,0,0,.7-.7,4.05,4.05,0,0,0,.5-.9V36.4l.8-.5v6.8h.8v.7h-5.9v-.7h4.3V38.9c-.1.1-.1.3-.2.5s-.2.3-.3.5-.3.3-.4.4a2.18,2.18,0,0,1-.5.4l-.6.3a1.48,1.48,0,0,1-.7.1,1.27,1.27,0,0,1-.6-.1,2.19,2.19,0,0,1-.5-.3l-.4-.4c-.1-.1-.1-.4-.1-.6a.75.75,0,0,1,.1-.5c.1-.1.2-.3.3-.4a.52.52,0,0,1,.4-.2c.1,0,.3-.1.4-.1a.6.6,0,0,1,.4.1c.1.1.2.1.3.2s.2.2.2.3.1.2.1.3a.75.75,0,0,1-.1.5c-.1.1-.2.3-.3.3A1.76,1.76,0,0,0,121,40.1Z"/><path class="cls-2" d="M124.4,43.4v-.7h.4V36.4l.8-.5v6.8h.8v.7h-.8a3,3,0,0,1-.2,1,1.56,1.56,0,0,1-.6.8,3.13,3.13,0,0,1-1,.5,5.9,5.9,0,0,1-1.4.2H122a1.09,1.09,0,0,1-.5-.1c-.2,0-.3-.1-.5-.1s-.3-.1-.4-.2l-.3-.3a.85.85,0,0,1,0-.8.22.22,0,0,1,.2-.2c.1-.1.1-.1.2-.1h1.6c.1,0,.2-.1.3-.1s.1-.2.2-.3a4.33,4.33,0,0,0,.1-.5V43h.7v.3a1.48,1.48,0,0,1-.1.7,1.38,1.38,0,0,1-.3.4.76.76,0,0,1-.4.2c-.2,0-.3.1-.5.1h-1.6l-.1.1a.35.35,0,0,0,.1.2c.1.1.2.1.3.2s.3.1.4.1h1.2a1.7,1.7,0,0,0,.7-.1,2.51,2.51,0,0,0,.7-.4,2.65,2.65,0,0,0,.5-.6,2,2,0,0,0,.2-.9h-.3Z"/><path class="cls-2" d="M128.4,41a2.65,2.65,0,0,1-.6-.5c-.2-.2-.4-.3-.5-.5a1.76,1.76,0,0,1-.4-.5l.9-1c.3-.1.5-.1.8-.2a3.55,3.55,0,0,0,.9-.4,5.5,5.5,0,0,0,.9-.7,5.22,5.22,0,0,0,.8-1.1l.4-.2v6.8h.8v.7h-6.1l.4-.7a6.37,6.37,0,0,1,.7-.2,4.17,4.17,0,0,0,.6-.2,4.88,4.88,0,0,1,.7-.3,1.87,1.87,0,0,0,.7-.6A3.36,3.36,0,0,1,128.4,41Zm2.2-3.5a4.62,4.62,0,0,1-.7.7c-.2.2-.4.3-.6.5s-.4.2-.6.3-.5.2-.7.3l.4.4c.2.1.3.3.5.4a2.09,2.09,0,0,1,.6.4l.6.3c-.1.2-.2.3-.3.5s-.3.4-.4.6-.3.4-.5.5-.3.3-.5.4h2.2Z"/><path class="cls-2" d="M133,35.2c0-.1.1-.1.1-.2s.1-.1.2-.1h.4c.1,0,.1.1.2.1s.1.1.1.2v.4c0,.1-.1.1-.1.2s-.1.1-.2.1h-.4c-.1,0-.1-.1-.2-.1s-.1-.1-.1-.2v-.4Z"/><path class="cls-2" d="M109,25.3l2.1,5.7h-.9c-.7-1.9-1.1-3.2-1.3-3.8a6.2,6.2,0,0,1-.3-1.1h0a7.93,7.93,0,0,1-.5,1.5L106.9,31H106l2.1-5.7Z"/><path class="cls-2" d="M115.3,25.3c.3.1.5.2.8.3v.8a3.81,3.81,0,0,0-1.7-.4,1.73,1.73,0,0,0-1.3.5,2.07,2.07,0,0,0-.5,1.5h3.8v.5a2.44,2.44,0,0,1-.6,1.8,1.86,1.86,0,0,1-1.6.7,2.14,2.14,0,0,1-1.7-.8,3.59,3.59,0,0,1-.6-2.2,2.82,2.82,0,0,1,.7-2.1,2.56,2.56,0,0,1,1.9-.8C114.7,25.2,115.1,25.2,115.3,25.3Zm-.2,4.6a2.13,2.13,0,0,0,.3-1.2h-2.9a1.66,1.66,0,0,0,.5,1.2,1.28,1.28,0,0,0,1,.4C114.6,30.3,114.9,30.2,115.1,29.9Z"/><path class="cls-2" d="M119.4,30.7a2.18,2.18,0,0,1-.7-.9h0l-.1,1h-.7V25.1h.8v3a2.17,2.17,0,0,0,.5,1.4,1.38,1.38,0,0,0,1.1.6,1.27,1.27,0,0,0,.6-.1l.1,1c-.2,0-.4.1-.7.1A3.55,3.55,0,0,1,119.4,30.7Z"/><path class="cls-2" d="M123.2,26.2c-.2.2-.2.4-.2.8v3.3h1.6V31H123v1.3h-.5l-.3-1.2-.8-.4v-.4h.8V26.9c0-1.2.5-1.7,1.6-1.7h.5c.2,0,.3.1.4.1V26a.37.37,0,0,1-.3-.1H124A1,1,0,0,0,123.2,26.2Z"/><path class="cls-2" d="M127.3,30.7a2.18,2.18,0,0,1-.7-.9h0l-.1,1h-.7V25.1h.8v3a2.17,2.17,0,0,0,.5,1.4,1.38,1.38,0,0,0,1.1.6,1.27,1.27,0,0,0,.6-.1l.1.8c-.2,0-.4.1-.7.1A1,1,0,0,1,127.3,30.7Z"/><path class="cls-2" d="M134,25.3v3.9a1.81,1.81,0,0,1-.5,1.4,2,2,0,0,1-1.4.4,3.75,3.75,0,0,1-1-.1,3.55,3.55,0,0,1-.9-.4l.3-.7a3.36,3.36,0,0,0,1.5.4,1.22,1.22,0,0,0,.9-.3,1.33,1.33,0,0,0,.3-1v-.4h-.9c-1.8-.1-2.6-.7-2.6-1.8a1.66,1.66,0,0,1,.5-1.2,1.7,1.7,0,0,1,1.3-.4,3,3,0,0,1,1,.2c.3.1.5.4.8.7h0l.2-.8h.5Zm-3.3.8a.91.91,0,0,0-.3.7,1,1,0,0,0,.4.9,2.65,2.65,0,0,0,1.4.3h.8v-.5a1.41,1.41,0,0,0-1.6-1.6A1.85,1.85,0,0,0,130.7,26.1Z"/><path class="cls-2" d="M135.7,30.9V27.2a2.54,2.54,0,0,1,.5-1.6,2.07,2.07,0,0,1,1.5-.5,3,3,0,0,1,1,.2c.3.1.5.4.7.6h0l.1-.8h.7v5.7h-.8v-3a2.36,2.36,0,0,0-.4-1.6,1.73,1.73,0,0,0-1.3-.5,1.69,1.69,0,0,0-1,.3,1.49,1.49,0,0,0-.3,1v3.7h-.7Z"/><path class="cls-2" d="M142.9,33.3h-.8v-8h.8Z"/><path class="cls-2" d="M144.8,32a.5.5,0,0,1,.6,0c.1.1.1.2.1.4s0,.3-.1.4a.37.37,0,0,1-.3.1c-.1,0-.3,0-.3-.1s-.1-.2-.1-.4A.6.6,0,0,1,144.8,32Zm.7-1.1h-.8V25.2h.8Z"/><path class="cls-2" d="M150.9,25.5v.8a3.53,3.53,0,0,0-1.4-.3,1.43,1.43,0,0,0-1.2.6,2.54,2.54,0,0,0-.4,1.6c0,1.5.6,2.2,1.7,2.2a1.27,1.27,0,0,0,.6-.1c.2-.1.4-.1.6-.2l.3.7c-.1.1-.4.1-.6.2a2.2,2.2,0,0,1-.8.1,2.56,2.56,0,0,1-1.9-.8,3.39,3.39,0,0,1-.7-2.2,3.28,3.28,0,0,1,.6-2.1,2.2,2.2,0,0,1,1.8-.8A2.65,2.65,0,0,1,150.9,25.5Z"/><path class="cls-2" d="M156.9,25.3V29a2.54,2.54,0,0,1-.5,1.6,2.07,2.07,0,0,1-1.5.5,3,3,0,0,1-1-.2,4.35,4.35,0,0,1-.7-.6h0v3.1h-.8v-8h.8v3a2.36,2.36,0,0,0,.4,1.6,1.73,1.73,0,0,0,1.3.5,1.69,1.69,0,0,0,1-.3,1.49,1.49,0,0,0,.3-1V25.5h.7Z"/><path class="cls-2" d="M140.9,19H142v.5h-1.1v2.1a.35.35,0,0,1,.2.1h-.6V19.5H139V19h1.3a13,13,0,0,0-1.5-4.1c.1-.1.2-.3.3-.4a10.64,10.64,0,0,1,1.3,3.2V12.5h.5v4.9a11.55,11.55,0,0,0,.8-1.5l.3.4a8.16,8.16,0,0,1-1.1,1.7v1Zm7.1-2.9v.4h-.8l.2.2a6.35,6.35,0,0,1-1.2.7l-.2-.3a10.54,10.54,0,0,0,1.1-.7h-1.7a36.28,36.28,0,0,0-.3,5,.35.35,0,0,1,.2.1h-.6a37.84,37.84,0,0,1,.3-5.1h-2.9V16h.7a4.28,4.28,0,0,0-1.3-3.2c.1-.1.3-.2.3-.3a4.06,4.06,0,0,1,1.3,2.4c.5-.3,1-.7,1.3-.9l.3.3a9.74,9.74,0,0,1-1.5,1c0,.2.1.5.1.7h1.8a9.73,9.73,0,0,1,.5-2,6.66,6.66,0,0,0-2-1.2l.3-.3a8.62,8.62,0,0,1,1.9,1.1q.6-1.2,1.5-1.2c.6,0,.8.4.9,1.5a.76.76,0,0,0-.4.2c-.1-1-.2-1.3-.5-1.3-.5,0-.9.4-1.2,1.1a4.79,4.79,0,0,1,1.1,1.5c.1,0,.1,0,.2.1l-.5.2a4.19,4.19,0,0,0-.9-1.4,7.49,7.49,0,0,0-.4,1.6H148Zm-5.9,1.3a.1.1,0,0,1,.1.1,15.41,15.41,0,0,1,1.9.2c0-.1.1-.3.1-.4l.4.2a4.24,4.24,0,0,1-.6,1.4l-.3-.1c.1-.2.3-.5.4-.7-.5,0-.9-.1-1.3-.1.5.7,1.1,1.7,1.5,2.3.1,0,.2,0,.2.1l-.5.2c-.2-.4-.4-.8-.7-1.3a2.65,2.65,0,0,1-.5.6,4.59,4.59,0,0,1,.7,1.4c.1,0,.1,0,.2.1l-.5.2c-.2-.4-.4-1-.7-1.5-.1.1-.2.1-.3.2L142,20a5.47,5.47,0,0,0,1.1-1,10.54,10.54,0,0,0-.7-1.1H142Zm3.4,0a.1.1,0,0,1,.1.1,19.09,19.09,0,0,1,2,.2c.1-.2.1-.3.2-.5l.4.2a4.59,4.59,0,0,1-.7,1.4l-.3-.1a4.35,4.35,0,0,0,.4-.7c-.5,0-.9-.1-1.3-.1a14.17,14.17,0,0,1,1.4,2.3c.1,0,.2,0,.2.1l-.5.2c-.2-.4-.4-.8-.7-1.3a1.7,1.7,0,0,1-.6.6,4.59,4.59,0,0,1,.7,1.4c.1,0,.2,0,.2.1l-.5.2c-.2-.4-.5-1-.7-1.5-.1.1-.2.1-.3.2l-.2-.3a5.47,5.47,0,0,0,1.1-1,8.65,8.65,0,0,0-.7-1h-.3Z"/><path class="cls-2" d="M152.6,16.6h-.4a10.58,10.58,0,0,1,3.5,2.7h.2l-.5.3A8.15,8.15,0,0,0,152,17v1.9a.35.35,0,0,1,.2.1h-.6V16.8a12.24,12.24,0,0,0-2.7-.9c.1-.1.2-.3.3-.4.9.3,1.7.6,2.5.9.2-.2.5-.2,1-.2h2.1c.8,0,.9.3,1,1.4a.76.76,0,0,0-.4.2c0-1-.1-1.2-.6-1.2Zm-3.3-.1a2.89,2.89,0,0,1,1.4,2l-.4.1a2.71,2.71,0,0,0-1.4-1.9Zm7.7,3.7V18.7h.5v1.9h-3.8v.9a.35.35,0,0,1,.2.1h-.7V20.5h-3.7V18.6h.5v1.5h7Zm-3.4-6.7v2.3a.35.35,0,0,1,.2.1h-.7V13.4h-2.5v1.7a.35.35,0,0,1,.2.1h-.7V12.4h.5V13h5.7v-.4h.5v2.6a.35.35,0,0,1,.2.1h-.7V13.4h-2.7ZM152,19.7a5.69,5.69,0,0,0,1.7-1.2l.3.3a7.12,7.12,0,0,1-1.7,1.1Zm6-3a8.75,8.75,0,0,1-1.9,2l-.3-.3a11.67,11.67,0,0,0,1.9-2Z"/><path class="cls-2" d="M7.1,7.3v.6H0V7.3H3.5V5.7H2C1,5.7.5,5.3.5,4.4a2.64,2.64,0,0,1,.7-1.9A2.27,2.27,0,0,1,3,1.6c.8,0,1.2.5,1.2,1.4V7.3H5.4V1.6h.7V7.3ZM3.5,2.8a.53.53,0,0,0-.6-.6,1.43,1.43,0,0,0-1.2.6,2.35,2.35,0,0,0-.5,1.6.59.59,0,0,0,.2.5c.1.2.3.2.6.2H3.5Z"/><path class="cls-2" d="M8.5,0a9.72,9.72,0,0,1,1.8.1V.6C9.8.6,9.2.5,8.4.5A11,11,0,0,0,6.6.7V.2A13.66,13.66,0,0,1,8.5,0Z"/><path class="cls-2" d="M14.5,7.9V3.6a1.66,1.66,0,0,0-1.3-.5,2.09,2.09,0,0,0-1.7,1A3.45,3.45,0,0,1,12,5.9a5,5,0,0,1-.4,1.9H9.9V7.2H11a2.74,2.74,0,0,0,.2-1.3,2.79,2.79,0,0,0-.6-1.8c.8-1.2,1.6-1.8,2.5-1.8a2.35,2.35,0,0,1,1.3.5V1.4h.7V7.1h1v.6H14.5Z"/><path class="cls-2" d="M16.2,7.9V7.3H21V6.7a2,2,0,0,0-.3-1.1,1.05,1.05,0,0,0-.9-.5,2,2,0,0,0-.7.1,2.25,2.25,0,0,1-.7.1c-.7,0-1-.2-1-.5s.3-.5.9-.5a2,2,0,0,1,.7.1,2,2,0,0,0,.7.1,1.49,1.49,0,0,0,1-.3.87.87,0,0,0,.4-.7,1.05,1.05,0,0,0-.5-.9,2.66,2.66,0,0,0-1.2-.3,3.08,3.08,0,0,0-1.3.3,3.13,3.13,0,0,0-1.1.8h-.3a3.2,3.2,0,0,1,2.8-1.7,2.77,2.77,0,0,1,1.6.5,1.31,1.31,0,0,1,.7,1.2,1.68,1.68,0,0,1-1,1.5c.7.3,1,1,1,2v.4h1v.6Z"/><path class="cls-2" d="M1.7,30.8a2.36,2.36,0,0,1-.8-.9h0L.7,31H0V25.1H.9v3.2a2,2,0,0,0,.5,1.4,1.43,1.43,0,0,0,1.2.6,1.27,1.27,0,0,0,.6-.1l.2.8c-.2,0-.4.1-.7.1A1.69,1.69,0,0,1,1.7,30.8Z"/><path class="cls-2" d="M8.8,25.1v4a2.07,2.07,0,0,1-.5,1.5,2.35,2.35,0,0,1-1.6.5,3.4,3.4,0,0,1-1-.1,4.18,4.18,0,0,1-1-.4l.3-.7a4.06,4.06,0,0,0,1.7.5,1.49,1.49,0,0,0,1-.3A2,2,0,0,0,8,29v-.4H7c-1.9-.1-2.9-.7-2.9-1.9a1.73,1.73,0,0,1,.5-1.3A2.12,2.12,0,0,1,6,25a3.59,3.59,0,0,1,1.1.2,2.76,2.76,0,0,1,.9.7H8l.2-.8ZM5.4,26a.91.91,0,0,0-.3.7,1.05,1.05,0,0,0,.5.9,2.81,2.81,0,0,0,1.5.3L8,28v-.5a1.9,1.9,0,0,0-.5-1.3,1.9,1.9,0,0,0-1.3-.5C5.8,25.7,5.5,25.8,5.4,26Z"/><path class="cls-2" d="M15.7,25.1v3.8a2.35,2.35,0,0,1-.5,1.6,2.54,2.54,0,0,1-1.6.5,3.59,3.59,0,0,1-1.1-.2,1.58,1.58,0,0,1-.7-.7h-.1v3.3h-.9V25h.9v3.1a2.67,2.67,0,0,0,.4,1.7,1.81,1.81,0,0,0,1.4.5,1.05,1.05,0,0,0,1-.4,1.8,1.8,0,0,0,.3-1.1V25h.9Z"/><path class="cls-2" d="M21.9,25.1v4a2.07,2.07,0,0,1-.5,1.5,2.35,2.35,0,0,1-1.6.5,3.4,3.4,0,0,1-1-.1,4.18,4.18,0,0,1-1-.4l.3-.7a4.06,4.06,0,0,0,1.7.5,1.49,1.49,0,0,0,1-.3,1.49,1.49,0,0,0,.3-1v-.4h-1c-1.9-.1-2.9-.7-2.9-1.9a1.73,1.73,0,0,1,.5-1.3A1.43,1.43,0,0,1,19,25a3.59,3.59,0,0,1,1.1.2,2.76,2.76,0,0,1,.9.7h0l.2-.8Zm-3.5.9a.91.91,0,0,0-.3.7,1.05,1.05,0,0,0,.5.9,2.81,2.81,0,0,0,1.5.3H21v-.5a1.71,1.71,0,0,0-1.8-1.8A1.51,1.51,0,0,0,18.4,26Z"/><path class="cls-2" d="M27.2,27.7a3.4,3.4,0,0,1-1.4.8,6.39,6.39,0,0,0-1,.4c-.1.1-.3.2-.4.3s-.1.2-.1.4a.55.55,0,0,0,.3.5,2.15,2.15,0,0,0,1,.2,3.43,3.43,0,0,0,1.6-.4l.3.7a4.06,4.06,0,0,1-1.9.4,2.54,2.54,0,0,1-1.6-.4,1.38,1.38,0,0,1-.6-1.1,1.45,1.45,0,0,1,.2-.7,1.21,1.21,0,0,1,.5-.5,3.53,3.53,0,0,1,1.2-.5,3.26,3.26,0,0,0,1.2-.6.86.86,0,0,0,.3-.6.75.75,0,0,0-.4-.7,3.09,3.09,0,0,0-1.1-.2,2.77,2.77,0,0,0-.9.1l-.9.3v-.8a4,4,0,0,1,1.8-.4,2.86,2.86,0,0,1,1.7.4,1.49,1.49,0,0,1,.6,1.3A1.37,1.37,0,0,1,27.2,27.7Z"/><path class="cls-2" d="M29.2,32.1c.1-.1.2-.1.4-.1a.6.6,0,0,1,.4.1.52.52,0,0,1,.2.4.85.85,0,0,1-.3.5c-.1.1-.2.1-.4.1s-.3,0-.4-.1a.52.52,0,0,1-.2-.4A2.19,2.19,0,0,1,29.2,32.1ZM30,31h-.9V25.1H30Z"/><path class="cls-2" d="M36.2,25.1v4a2.07,2.07,0,0,1-.5,1.5,2.35,2.35,0,0,1-1.6.5,3.4,3.4,0,0,1-1-.1,4.18,4.18,0,0,1-1-.4l.3-.7a4.06,4.06,0,0,0,1.7.5,1.1,1.1,0,0,0,1.3-1.3v-.4h-1c-1.9-.1-2.9-.7-2.9-1.9a1.73,1.73,0,0,1,.5-1.3,2,2,0,0,1,1.4-.5,3.59,3.59,0,0,1,1.1.2,2.76,2.76,0,0,1,.9.7h0l.2-.8Zm-3.4.9a.91.91,0,0,0-.3.7,1.05,1.05,0,0,0,.5.9,2.81,2.81,0,0,0,1.5.3h.9v-.5a1.71,1.71,0,0,0-1.8-1.8A1.51,1.51,0,0,0,32.8,26Z"/><path class="cls-2" d="M98,4c0,1.5-.6,2.7-1.7,3l2,2-.4.4L96.4,7.9a3.23,3.23,0,0,1-.7-.8h0a8.43,8.43,0,0,1-.7.8l-.7.7-.4-.4L95,7a2.89,2.89,0,0,1-1.8-3A4.66,4.66,0,0,1,94,1.2l.5.2a4.37,4.37,0,0,0-.7,2.5c0,1.4.7,2.5,1.8,2.5s1.8-1.1,1.8-2.5a4.37,4.37,0,0,0-.7-2.5l.5-.2A4.66,4.66,0,0,1,98,4Z"/><path class="cls-2" d="M94.9,6.9a1.82,1.82,0,0,0-1,1.5c0,.6.3.9.8.9s.9-.6,1-1h.5a1.44,1.44,0,0,0,1.6,1.1h0a1,1,0,0,1-.8-.9,1,1,0,0,1,1.1-1,1,1,0,0,1,1.1,1.1,1.23,1.23,0,0,1-.5,1c-.4.3-.9.6-.9,1s.3.5.6.5a1.88,1.88,0,0,0,.8-.2l.2.5a1.49,1.49,0,0,1-1,.3,1.13,1.13,0,0,1-1.2-1.1.78.78,0,0,1,.3-.7A1.72,1.72,0,0,1,96,9h0a1.34,1.34,0,0,1-1.2.9,1.29,1.29,0,0,1-1.3-1.4,2.24,2.24,0,0,1,1.2-1.9Zm2.6,1.6c0,.4.2.7.6.7s.5-.3.5-.6A.53.53,0,0,0,98,8C97.7,7.9,97.5,8.2,97.5,8.5Z"/><path class="cls-2" d="M103.4,6.5c1,0,1.9-.8,1.9-2.5,0-1.5-.4-2.3-1.2-2.3-1.4,0-1.5,3-3.3,3A1.6,1.6,0,0,1,99.2,3a1.71,1.71,0,0,1,1.7-1.8,1.86,1.86,0,0,1,1.7,1,1.82,1.82,0,0,1,1.5-1c1.1,0,1.8.9,1.8,2.8,0,2.1-1.3,3.1-2.5,3.1Zm-2.1.5a8.43,8.43,0,0,1-.7.8l-.7.7L99.5,8,101,6.5h.6l2.3,2.3-.4.4L102,7.7a4,4,0,0,0-.7-.7Zm-.5-5.3c-.7,0-1.1.5-1.1,1.3a1.06,1.06,0,0,0,1,1.2c.8,0,1.1-.7,1.5-1.4A1.64,1.64,0,0,0,100.8,1.7Z"/><path class="cls-2" d="M102.6,8.4a.83.83,0,0,1-.5-.8c0-.6.5-1,1.2-1h.7v.5h-.7c-.4,0-.6.2-.6.5s.2.5.6.5h1.8v.5h-1.8c-.4,0-.6.2-.6.5s.2.5.6.5h3.4v.5h-3.4c-.7,0-1.2-.4-1.2-1-.1-.3.2-.6.5-.7Z"/><path class="cls-2" d="M107.2,4.2a2.7,2.7,0,0,1,2.6-3,2.35,2.35,0,0,1,1.7.6,2.11,2.11,0,0,1,1.6-.6,1.68,1.68,0,0,1,1.4.6,2.11,2.11,0,0,1,1.6-.6c1.3,0,2.2,1.1,2.2,3,0,1.7-.9,2.9-2.4,2.9V6.6c1,0,1.8-.9,1.8-2.4s-.6-2.5-1.6-2.5a1.66,1.66,0,0,0-1.2.5,4,4,0,0,1,.4,2,2.86,2.86,0,0,1-1.2,2.6l2,2-.4.4-1.5-1.5a3.23,3.23,0,0,1-.7-.8h0a8.43,8.43,0,0,1-.7.8l-.7.7-.4-.4,1.5-1.5h.2a2.13,2.13,0,0,0,1.4-2.3c0-1.5-.6-2.5-1.6-2.5a1.66,1.66,0,0,0-1.2.5,3.56,3.56,0,0,1,.5,1.9,2.7,2.7,0,0,1-2.6,3C108.3,7.2,107.2,6,107.2,4.2Zm.6,0a2.12,2.12,0,1,0,4.2,0,2.12,2.12,0,1,0-4.2,0Z"/><path class="cls-2" d="M120.1,1.5a2.09,2.09,0,0,0-.6,1.5,1.06,1.06,0,0,0,1,1.2c1.6,0,1.4-3,3.3-3,1.1,0,1.8.8,1.8,2.7A2.85,2.85,0,0,1,123,7h-.2l1.8,1.8-.4.4-1.5-1.5a3.23,3.23,0,0,1-.7-.8h0a8.43,8.43,0,0,1-.7.8l-.7.7-.4-.4,1.5-1.5h1A2.35,2.35,0,0,0,125,3.9c0-1.5-.4-2.2-1.2-2.2-1.4,0-1.4,3-3.3,3A1.6,1.6,0,0,1,118.9,3a2.2,2.2,0,0,1,.8-1.8Z"/><path class="cls-2" d="M124.2,8.6a1.69,1.69,0,0,0-.5-.2.66.66,0,0,0-.7.6.77.77,0,0,0,.8.7A1.15,1.15,0,0,0,125,8.5c0-1-.7-1.4-1.6-1.4a2.77,2.77,0,0,0-1.6.5l-.3-.5a2.79,2.79,0,0,1,1.8-.6c1.3,0,2.2.7,2.2,1.9a1.73,1.73,0,0,1-.5,1.3c-.2.3-.7.5-.7,1s.3.5.6.5a1.88,1.88,0,0,0,.8-.2l.2.5a1.49,1.49,0,0,1-1,.3,1.13,1.13,0,0,1-1.2-1.1.9.9,0,0,1,.1-.5h-.1A1.27,1.27,0,0,1,122.3,9a1.13,1.13,0,0,1,1.2-1.1,1.85,1.85,0,0,1,.7.2Z"/><path class="cls-2" d="M134.4,1.8a2.11,2.11,0,0,1,1.6-.6c1.3,0,2.2,1.1,2.2,3,0,1.7-.9,2.9-2.4,2.9V6.6c1,0,1.8-.9,1.8-2.4S137,1.7,136,1.7a1.66,1.66,0,0,0-1.2.5,4,4,0,0,1,.4,2A2.86,2.86,0,0,1,134,6.8l2,2-.4.4-1.5-1.5a3.23,3.23,0,0,1-.7-.8h0a8.43,8.43,0,0,1-.7.8l-.7.7-.5-.4L133,6.5h.2a2.13,2.13,0,0,0,1.4-2.3c0-1.5-.6-2.5-1.6-2.5a1.66,1.66,0,0,0-1.2.5,3.56,3.56,0,0,1,.5,1.9,2.7,2.7,0,0,1-2.6,3c-1.6,0-2.6-1.2-2.6-3a2.7,2.7,0,0,1,2.6-3,2.35,2.35,0,0,1,1.7.6,2,2,0,0,1,3,.1m-6.8,2.4a2.12,2.12,0,1,0,4.2,0,2.12,2.12,0,1,0-4.2,0Z"/><path class="cls-2" d="M116.4,19.9a3.51,3.51,0,0,1-.5-.8,3.72,3.72,0,0,0,.7-2,2.31,2.31,0,0,0-2.1-1.4,1.63,1.63,0,0,0-1.7,1.7,3.08,3.08,0,0,0,.3,1.3l-.3.1a3.94,3.94,0,0,1-.5-2,2,2,0,0,1,2.1-2.2,2.65,2.65,0,0,1,2.4,1.4,3.09,3.09,0,0,1,.2,1.1h.2a1.27,1.27,0,0,1,1.2.7h0a1.22,1.22,0,0,1,1-.6,1.33,1.33,0,0,1,1,.8,2.39,2.39,0,0,1,.2.9,8.32,8.32,0,0,1-.2,1.3h0a4.35,4.35,0,0,1-.6-.7,6,6,0,0,0,.2-1.2c0-.2-.2-.3-.4-.3a.78.78,0,0,0-.8.8,1.7,1.7,0,0,0,.1.7h0l-.4-.3-.2-.7a1.27,1.27,0,0,0-.4-.6,1.69,1.69,0,0,0-.5-.2c-.4,0-.5.4-.6.6a2.83,2.83,0,0,1-.4,1.6Z"/><path class="cls-2" d="M124.4,20.8c-.2-.3-.3-.6-.5-.9.3-.5.6-1,.9-1.6,0-.1.1-.3.1-.4a.37.37,0,0,0-.1-.3,3,3,0,0,0-2.5-1.9c-.3,0-.6.1-.8.1l-.1-.2a3.8,3.8,0,0,1,1.8-.6c.4,0,.7.2,1.2.7a3.22,3.22,0,0,1,.9,2v.8a2.89,2.89,0,0,1-.4,1.4l-.5.9Z"/><path class="cls-2" d="M132.3,19.8a4.12,4.12,0,0,1,.3.8,2.54,2.54,0,0,1-.2.7.51.51,0,0,1-.5.4,3.29,3.29,0,0,1-1.8-1,2.5,2.5,0,0,1-.8-1.8.6.6,0,0,1,.3-.6,2.83,2.83,0,0,1,1.3-.4c.6-.1,1.1-.3,1.1-.5s-.4-.4-.9-.7a4.5,4.5,0,0,0-1.9-.6,1.94,1.94,0,0,0-2.1,2.1,6.88,6.88,0,0,0,.2,1.3l-.3.1a4.78,4.78,0,0,1-.4-1.8,2.34,2.34,0,0,1,2.5-2.6,4.2,4.2,0,0,1,2.8,1.2,2.23,2.23,0,0,1,.6,1.3,1,1,0,0,1-.3.8c-.5.4-2.4.3-2.4,1,0,.3.3.6.7.9a2.11,2.11,0,0,0,1.1.5c.2,0,.4-.3.5-.9Zm-3-6.3-.8.8a4.35,4.35,0,0,1-.6-.7c.3-.2.5-.5.8-.7C129,13,129.1,13.2,129.3,13.5Zm1.4.1-.8.8a4.35,4.35,0,0,1-.6-.7c.3-.2.5-.5.8-.7C130.4,13.1,130.5,13.3,130.7,13.6Z"/><path class="cls-2" d="M143,42.9a10.91,10.91,0,0,0-3.9-5.2c-.2-.1-.2-.2-.2-.2h0a.76.76,0,0,1,.4.1,11,11,0,0,1,4.4,5.2c.1.1.2.2.2.3s-.1.1-.4.2h-.2c-.3,0-.2-.1-.5-.1h-1.3a9.72,9.72,0,0,0-1.8.1h-.2c-.1,0-.1,0-.1-.1a2.34,2.34,0,0,1,1-.5c.2,0,.2.1.6.2Zm2.7-7a.58.58,0,0,1,.1-.4c.1,0,.1.1.2.2.2.4.2.6.2,2.4v6.1c0,.1,0,.2-.2.2a5,5,0,0,1-1.2.3.44.44,0,0,1-.3-.1c0-.1.1-.1.2-.2.6-.2.9-.5.9-.7V35.9Z"/><path class="cls-2" d="M150,40.7c.1-.5.1-.8.2-.8s.2.3.3.5c.5,0,1.9.1,2.5.1.4,0,.6,0,.6.1s-.2.2-.4.2c.1.6.2,1.2.4,2.1,0,.1.2.3.2.4s-.2.1-.5.1c-.5,0-.3-.1-.6-.1a18.48,18.48,0,0,1-2.3-.1,4.1,4.1,0,0,1-1.1.1c-.2-.1-.3-.1-.3-.2a.35.35,0,0,1,.2-.1c.4-.1.6-.2.7-.4Zm2.9,2.4c0-.8-.1-1.9-.1-2.3-.2,0-.3-.1-.6-.1h-1.7v2.2c0,.2.1.2.2.2Zm-1.1-6.7c0-.3.2-.5.9-.5h4c.2,0,.3.1.3.2,0,.3-.5.3-.8.3-.6,0-.4-.2-1-.3h-2.5c-.1,0-.2,0-.2.2v.9c0,.1.1.1.2.2,1.1,0,2.5,0,3.3.1a.44.44,0,0,1,.3.1c0,.1-.1.2-.4.2.1.3.2.8.3,1s.1.2.1.3-.1.1-.4.1h-.2a.6.6,0,0,1-.4-.1c-.8,0-1.7-.1-2.5-.1h-1.5c-.1,0-.2,0-.2-.1a2.32,2.32,0,0,1,1-.4c.2,0,.2.1.5.2,1,0,2.3.1,2.9.1,0-.5-.1-1-.1-1.2-.2,0-.3-.1-.5-.1h-2.4c-.1,0-.6.1-1,.1a.58.58,0,0,1-.4-.1.35.35,0,0,1,.2-.1c.3-.1.5-.1.5-.3v-.7Zm3.8,3.5c0-.3.1-.5.2-.5s.2.1.3.3a5.9,5.9,0,0,1,.2,1.4v3.2c0,.3-1.4.5-1.4.5a1,1,0,0,1-.4-.1,1.24,1.24,0,0,1,.3-.2q.9-.3.9-.6Z"/><path class="cls-2" d="M1,16.8v3.1H0V13.6H1v3.2l2.9-3.2H5L2,16.8l2.7,3h-1Z"/><path class="cls-2" d="M10.8,19.1a2.58,2.58,0,0,1-2.1.9,2.58,2.58,0,0,1-2.1-.9,3.65,3.65,0,0,1-.8-2.4A3.06,3.06,0,0,1,6.2,15a2.17,2.17,0,0,1,1-1.1,2.41,2.41,0,0,1,1.5-.4,2.58,2.58,0,0,1,2.1.9,3.65,3.65,0,0,1,.8,2.4A3.57,3.57,0,0,1,10.8,19.1Zm-3.6-.6a1.51,1.51,0,0,0,1.4.7,1.68,1.68,0,0,0,1.4-.6,3,3,0,0,0,.5-1.8A3,3,0,0,0,10,15a1.68,1.68,0,0,0-1.4-.6,1.68,1.68,0,0,0-1.4.6,3,3,0,0,0-.5,1.8A3.8,3.8,0,0,0,7.2,18.5Z"/><path class="cls-2" d="M13.2,19.9V13.6h1v2.8h3.5V13.6h1v6.3h-1V17.3H14.2v2.6Z"/><path class="cls-2" d="M26.6,18.9a3.29,3.29,0,0,1-2.3,1v2.6h-.9V19.9a3.5,3.5,0,0,1-2.3-1,3,3,0,0,1-.8-2.3,3.57,3.57,0,0,1,.8-2.3,3.29,3.29,0,0,1,2.3-1V10.6h.9v2.7a3.5,3.5,0,0,1,2.3,1,3.37,3.37,0,0,1,.8,2.3A2.82,2.82,0,0,1,26.6,18.9Zm-4.7-.4a2.64,2.64,0,0,0,1.6.7V14.3a2.39,2.39,0,0,0-1.6.7,2.86,2.86,0,0,0-.5,1.7A2.07,2.07,0,0,0,21.9,18.5Zm4-3.5a2,2,0,0,0-1.6-.7v4.9a2.13,2.13,0,0,0,2.1-2.4A2.43,2.43,0,0,0,25.9,15Z"/><path class="cls-2" d="M29.1,19.9V13.6h1.2L33.7,19V13.6h.9v6.3H33.4L30,14.5v5.3h-.9Z"/><path class="cls-2" d="M42,14.4h-.9v5.5H37.9a9.43,9.43,0,0,0-.5-3,9.65,9.65,0,0,0-1.2-2.5h-.5v-3h.9v2.2H41V11.4h1Zm-4.7,0a6.81,6.81,0,0,1,1,2.1,11.93,11.93,0,0,1,.5,2.6h1.4V14.4Z"/><path class="cls-2" d="M47.1,13.5c.3.1.6.2,1,.3v.9a4.77,4.77,0,0,0-2-.4,2,2,0,0,0-1.5.6,2.65,2.65,0,0,0-.6,1.7h4.3v.6a3,3,0,0,1-.7,2.1,2.17,2.17,0,0,1-1.9.7,2.52,2.52,0,0,1-2-.9,3.73,3.73,0,0,1-.7-2.5,3.65,3.65,0,0,1,.8-2.4,2.79,2.79,0,0,1,2.2-.9A5.16,5.16,0,0,0,47.1,13.5Zm-.2,5.2a2,2,0,0,0,.4-1.4H44a2.92,2.92,0,0,0,.5,1.4,1.35,1.35,0,0,0,1.2.5A1.66,1.66,0,0,0,46.9,18.7Z"/><path class="cls-2" d="M49.9,19.9V13.6h1v2.8h3.5V13.6h1v6.3h-1V17.3H50.9v2.6Z"/><path class="cls-2" d="M63.5,14.4h-.9v5.5h-1V14.4H58.3v5.5h-1V13.6h5.2V11.4h1Z"/><path class="cls-2" d="M64.7,19.9V13.6h1.2L69.3,19V13.6h.9v6.3H69l-3.4-5.4v5.3h-.9Z"/><path class="cls-2" d="M76.8,13.6v4.3a2.35,2.35,0,0,1-.5,1.6,2.65,2.65,0,0,1-1.7.5,4.1,4.1,0,0,1-1.1-.1,3,3,0,0,1-1-.4l.3-.7a4.93,4.93,0,0,0,1.8.5,1.05,1.05,0,0,0,1-.4,1.61,1.61,0,0,0,.3-1.1v-.4H74.8c-2-.1-3.1-.7-3.1-2a2,2,0,0,1,.5-1.4,2.25,2.25,0,0,1,1.5-.5,3.73,3.73,0,0,1,1.2.2,2.17,2.17,0,0,1,.9.8h0l.2-.9Zm-3.8.9a1,1,0,0,0-.3.8,1.23,1.23,0,0,0,.5,1,4.58,4.58,0,0,0,1.6.4h1v-.6a2.17,2.17,0,0,0-.5-1.4,2,2,0,0,0-1.4-.5A1.61,1.61,0,0,0,73,14.5Z"/><path class="cls-2" d="M83.5,19.9H79.8a17.23,17.23,0,0,0-.6-4.2c-.3-.9-.6-1.4-1.1-1.4h-.3v-.7a4.33,4.33,0,0,1,.5-.1,1.25,1.25,0,0,1,1.1.6,5.18,5.18,0,0,1,.7,1.8,21.26,21.26,0,0,1,.4,3.2h1.9V13.6h1v6.3Z"/><path class="cls-2" d="M86.4,19.9h-1V13.6h2.8a3,3,0,0,1,1.8.5,1.68,1.68,0,0,1,.6,1.4q0,1.8-2.4,1.8H86.3v2.6Zm1.8-3.5a2.87,2.87,0,0,0,1.2-.2,1,1,0,0,0,.4-.8.81.81,0,0,0-.4-.8,2.13,2.13,0,0,0-1.2-.3H86.4v2.1Z"/><path class="cls-2" d="M92.4,19.9V13.6h1v2.8h3.5V13.6h1v6.3h-1V17.3H93.4v2.6Z"/><path class="cls-2" d="M104.6,19.1a2.9,2.9,0,0,1-4.2,0,3.65,3.65,0,0,1-.8-2.4A3.06,3.06,0,0,1,100,15a2.17,2.17,0,0,1,1-1.1,2.41,2.41,0,0,1,1.5-.4,2.58,2.58,0,0,1,2.1.9,3.65,3.65,0,0,1,.8,2.4A4.23,4.23,0,0,1,104.6,19.1Zm-3.6-.6a1.93,1.93,0,0,0,2.8,0,3,3,0,0,0,.5-1.8,3,3,0,0,0-.5-1.8,1.93,1.93,0,0,0-2.8,0,3,3,0,0,0-.5,1.8A3,3,0,0,0,101,18.5Z"/></pattern></defs><title>Untitled-9</title><polygon class="cls-3" points="1009.4 615.9 184.3 1122.8 -397.4 176.1 427.7 -330.8 1009.4 615.9"/></svg>