<?xml version="1.0" encoding="utf-8"?>
<!-- Generator: Adobe Illustrator 21.1.0, SVG Export Plug-In . SVG Version: 6.00 Build 0)  -->
<svg version="1.1" id="Layer_1" xmlns="http://www.w3.org/2000/svg" xmlns:xlink="http://www.w3.org/1999/xlink" x="0px" y="0px"
	 viewBox="0 0 896 218" style="enable-background:new 0 0 896 218;" xml:space="preserve">
<style type="text/css">
	.st0{fill-opacity:0;}
	.st1{fill:#FFFFFF;}
	.st2{fill:#02CEDB;}
	.st3{fill:#5461CC;}
	.st4{fill:#408CFF;}
	.st5{opacity:0.7;fill:#408CFF;enable-background:new    ;}
</style>
<rect class="st0" width="895.5" height="218"/>
<rect x="269" class="st0" width="626.5" height="212"/>
<path class="st1" d="M832.9,42.5c-35.2,0-63,27.1-63,61.9c0,34.2,27.5,61.1,62.5,61.1c35.4,0,63.1-27,63.1-61.6
	C895.7,69.4,868.2,42.5,832.9,42.5z M867.4,104.2c0,21.1-14.5,36.3-34.4,36.3c-19.8,0-34.6-15.8-34.6-36.8
	c0-21.1,14.4-36.3,34.1-36.3C852.5,67.5,867.4,83.2,867.4,104.2z"/>
<path class="st1" d="M579.6,42.5c-32.9,0-57.6,26.5-57.6,61.6c0,35.6,25.4,61.4,60.5,61.4c19.8,0,36-7.5,48.2-22.1l0.4-0.5l-18-14
	c-9.6,9.1-18.7,13-30.3,13c-17.2,0-29.2-10.4-32.4-27.9h85.1c0,0,0.6-4.1,0.6-8.1C636,74.4,618.6,42.5,579.6,42.5z M607.9,94.9
	h-57.7c2.7-17.6,14.1-29,29.2-29C594.8,65.9,605.7,77,607.9,94.9z"/>
<path class="st1" d="M456.9,42.5c-32.9,0-57.6,26.5-57.6,61.6c0,35.6,25.4,61.4,60.5,61.4c19.8,0,36-7.5,48.2-22.1l0.4-0.5l-18-14
	c-9.6,9.1-18.7,13-30.3,13c-17.2,0-29.2-10.4-32.4-27.9h85.1c0,0,0.6-4.1,0.6-8.1C513.4,74.4,496,42.5,456.9,42.5z M485.3,94.9
	h-57.7c2.7-17.6,14.1-29,29.2-29C472.3,65.9,483.1,77,485.3,94.9z"/>
<rect x="726.1" class="st0" width="33.6" height="162.9"/>
<path class="st2" d="M743,33.6c9.3,0,16.8-7.5,16.8-16.8S752.2,0,743,0s-16.8,7.5-16.8,16.8S733.7,33.6,743,33.6z"/>
<path class="st2" d="M729.2,56.3v106.6h27.5V45.1L729.2,56.3z"/>
<path class="st1" d="M716.6,42.4c-21.2,0-31.8,9.2-41.5,25.9c0,0-3.9-16.1-6.3-21.1c-1.1-2.2-3.3-2.1-5.9-2.1H650v73.8v44.1h28.2
	V114c0-23.3,9-41.9,38.9-41.9h2.3V42.5C719.5,42.5,717.3,42.4,716.6,42.4z"/>
<path class="st1" d="M331.4,42.8c-21,0-38.2,16.1-39.4,17.3c-1.4-4.8-2.9-10.4-4.2-13c-0.7-1.6-2.1-2-3.7-2.1H269V212l28.4-11.7
	v-47.9c1.4,2.1,14.5,13.3,32.5,13.3c33.6,0,60.9-28,60.9-61.6C390.8,69.4,360.9,42.8,331.4,42.8z M328,141
	c-20.1,0-34.6-16.6-34.6-36.8c0-22.3,15.8-36.3,34.1-36.3c20.3,0,34.9,16,34.9,36.8C362.4,124.8,348.9,141,328,141z"/>
<rect class="st0" width="194" height="218"/>
<path class="st3" d="M4.7,167.6l33.6,31v-35.3l101.1-42.1V24.2c0-21.6-18.5-27.7-31-22.5L23.5,37.1C10.6,42.6,0,55.7,0,70.9v84.2
	C0,160.6,1.7,165,4.7,167.6z"/>
<path class="st2" d="M189.3,50.6L155.6,24v31L54.5,97.1v96.7c0,21.6,18.5,27.7,31,22.5l84.9-35.1c12.9-5.5,23.5-18.3,23.5-33.8V63.1
	C194,57.6,192.3,53.3,189.3,50.6z"/>
<path class="st4" d="M139.5,61.8L54.5,97.1v59.1l71.1-29.7c9.5-3.9,13.8-11.1,13.8-26V61.8z"/>
<path class="st5" d="M91.6,81.8L86.2,74c-2.4-3.5-6.9-3.3-11-1.5l-20.7,8.7v16.1L91.6,81.8z"/>
</svg>
