<?xml version="1.0" encoding="utf-8"?>
<!-- Generator: Adobe Illustrator 22.0.1, SVG Export Plug-In . SVG Version: 6.00 Build 0)  -->
<svg version="1.1" id="Layer_1" xmlns="http://www.w3.org/2000/svg" xmlns:xlink="http://www.w3.org/1999/xlink" x="0px" y="0px"
	 viewBox="0 0 150 167" style="enable-background:new 0 0 150 167;" xml:space="preserve">
<style type="text/css">
	.st0{fill:#5461CC;}
	.st1{fill:#02CEDB;}
	.st2{fill:#408CFF;}
</style>
<path id="path0_fill" class="st0" d="M3.7,128.3l26,23.7V125l78.2-32.2V18.6c0-16.5-14.3-21.2-24-17.2L18.2,28.4
	C8.2,32.6,0,42.6,0,54.3v64.5C0,123,1.3,126.3,3.7,128.3z"/>
<path id="path1_fill" class="st1" d="M146.3,38.8l-26-20.4v23.7L42.2,74.4v74c0,16.5,14.3,21.2,24,17.2l65.7-26.9
	c10-4.2,18.2-14,18.2-25.9V48.3C150,44.1,148.7,40.8,146.3,38.8z"/>
<path id="path2_fill" class="st2" d="M107.8,47.3L42.2,74.4v45.3l55-22.7c7.3-3,10.7-8.5,10.7-19.9V47.3z"/>
<path id="path3_fill" class="st2" d="M70.8,62.7l-4.2-6c-1.8-2.7-5.3-2.5-8.5-1.2l-16,6.7v12.4L70.8,62.7z"/>
</svg>
