<svg width="187" height="42" viewBox="0 0 187 42" fill="none" xmlns="http://www.w3.org/2000/svg">
<path d="M6.9832 7.02344C6.9832 7.91797 6.69024 8.60352 6.1043 9.08008C5.51836 9.55664 4.68438 9.79492 3.60234 9.79492H2.71172V13H1.31133V4.43359H3.77813C4.84844 4.43359 5.64922 4.65234 6.18047 5.08984C6.71563 5.52734 6.9832 6.17188 6.9832 7.02344ZM2.71172 8.61719H3.45586C4.17461 8.61719 4.70195 8.49219 5.03789 8.24219C5.37383 7.99219 5.5418 7.60156 5.5418 7.07031C5.5418 6.57812 5.39141 6.21094 5.09063 5.96875C4.78984 5.72656 4.32109 5.60547 3.68438 5.60547H2.71172V8.61719ZM14.6557 9.74805C14.6557 10.8066 14.3842 11.6328 13.8413 12.2266C13.2983 12.8203 12.5424 13.1172 11.5737 13.1172C10.9682 13.1172 10.433 12.9805 9.9682 12.707C9.50336 12.4336 9.14594 12.041 8.89594 11.5293C8.64594 11.0176 8.52094 10.4238 8.52094 9.74805C8.52094 8.69727 8.79047 7.87695 9.32953 7.28711C9.86859 6.69727 10.6284 6.40234 11.6088 6.40234C12.5463 6.40234 13.2885 6.70508 13.8354 7.31055C14.3823 7.91211 14.6557 8.72461 14.6557 9.74805ZM9.93891 9.74805C9.93891 11.2441 10.4916 11.9922 11.5971 11.9922C12.6909 11.9922 13.2377 11.2441 13.2377 9.74805C13.2377 8.26758 12.687 7.52734 11.5854 7.52734C11.0073 7.52734 10.5873 7.71875 10.3256 8.10156C10.0678 8.48438 9.93891 9.0332 9.93891 9.74805ZM21.918 13L21.0802 9.97656C20.9786 9.65625 20.795 8.91211 20.5294 7.74414H20.4766C20.2501 8.79883 20.0704 9.54688 19.9376 9.98828L19.0763 13H17.5528L15.7364 6.51953H17.1427L17.9688 9.71289C18.1563 10.502 18.2891 11.1777 18.3673 11.7402H18.4024C18.4415 11.4551 18.5001 11.1289 18.5782 10.7617C18.6602 10.3906 18.7305 10.1133 18.7891 9.92969L19.7735 6.51953H21.2852L22.2403 9.92969C22.2989 10.1211 22.3712 10.4141 22.4571 10.8086C22.547 11.2031 22.5997 11.5098 22.6153 11.7285H22.6622C22.7208 11.248 22.8575 10.5762 23.0723 9.71289L23.9102 6.51953H25.293L23.4649 13H21.918ZM29.6023 13.1172C28.5945 13.1172 27.8054 12.8242 27.2351 12.2383C26.6687 11.6484 26.3855 10.8379 26.3855 9.80664C26.3855 8.74805 26.6491 7.91602 27.1765 7.31055C27.7038 6.70508 28.4284 6.40234 29.3503 6.40234C30.2058 6.40234 30.8816 6.66211 31.3777 7.18164C31.8738 7.70117 32.1218 8.41602 32.1218 9.32617V10.0703H27.8034C27.823 10.6992 27.9929 11.1836 28.3132 11.5234C28.6335 11.8594 29.0847 12.0273 29.6667 12.0273C30.0495 12.0273 30.405 11.9922 30.7331 11.9219C31.0652 11.8477 31.4206 11.7266 31.7995 11.5586V12.6777C31.4636 12.8379 31.1238 12.9512 30.78 13.0176C30.4363 13.084 30.0437 13.1172 29.6023 13.1172ZM29.3503 7.44531C28.9128 7.44531 28.5613 7.58398 28.2956 7.86133C28.0339 8.13867 27.8777 8.54297 27.8269 9.07422H30.7683C30.7605 8.53906 30.6316 8.13477 30.3816 7.86133C30.1316 7.58398 29.7878 7.44531 29.3503 7.44531ZM37.3334 6.40234C37.6107 6.40234 37.8392 6.42188 38.0189 6.46094L37.8841 7.74414C37.6888 7.69727 37.4857 7.67383 37.2748 7.67383C36.724 7.67383 36.2767 7.85352 35.933 8.21289C35.5931 8.57227 35.4232 9.03906 35.4232 9.61328V13H34.0462V6.51953H35.1244L35.306 7.66211H35.3763C35.5912 7.27539 35.8705 6.96875 36.2142 6.74219C36.5619 6.51562 36.9349 6.40234 37.3334 6.40234ZM42.416 13.1172C41.4082 13.1172 40.6191 12.8242 40.0488 12.2383C39.4824 11.6484 39.1992 10.8379 39.1992 9.80664C39.1992 8.74805 39.4629 7.91602 39.9902 7.31055C40.5176 6.70508 41.2422 6.40234 42.1641 6.40234C43.0195 6.40234 43.6953 6.66211 44.1914 7.18164C44.6875 7.70117 44.9355 8.41602 44.9355 9.32617V10.0703H40.6172C40.6367 10.6992 40.8066 11.1836 41.127 11.5234C41.4473 11.8594 41.8984 12.0273 42.4805 12.0273C42.8633 12.0273 43.2188 11.9922 43.5469 11.9219C43.8789 11.8477 44.2344 11.7266 44.6133 11.5586V12.6777C44.2773 12.8379 43.9375 12.9512 43.5938 13.0176C43.25 13.084 42.8574 13.1172 42.416 13.1172ZM42.1641 7.44531C41.7266 7.44531 41.375 7.58398 41.1094 7.86133C40.8477 8.13867 40.6914 8.54297 40.6406 9.07422H43.582C43.5742 8.53906 43.4453 8.13477 43.1953 7.86133C42.9453 7.58398 42.6016 7.44531 42.1641 7.44531ZM49.0455 13.1172C48.237 13.1172 47.6061 12.8242 47.153 12.2383C46.6998 11.6523 46.4733 10.8301 46.4733 9.77148C46.4733 8.70898 46.7018 7.88281 47.1588 7.29297C47.6198 6.69922 48.2565 6.40234 49.069 6.40234C49.9205 6.40234 50.569 6.7168 51.0143 7.3457H51.0846C51.0182 6.88086 50.985 6.51367 50.985 6.24414V3.88281H52.3678V13H51.2897L51.0495 12.1504H50.985C50.5436 12.7949 49.8971 13.1172 49.0455 13.1172ZM49.4147 12.0039C49.9811 12.0039 50.3932 11.8457 50.651 11.5293C50.9088 11.209 51.0416 10.6914 51.0495 9.97656V9.7832C51.0495 8.9668 50.9166 8.38672 50.651 8.04297C50.3854 7.69922 49.9694 7.52734 49.403 7.52734C48.9186 7.52734 48.5455 7.72461 48.2838 8.11914C48.0221 8.50977 47.8913 9.06836 47.8913 9.79492C47.8913 10.5137 48.0182 11.0625 48.2721 11.4414C48.526 11.8164 48.9069 12.0039 49.4147 12.0039ZM61.4843 6.40234C62.2929 6.40234 62.9218 6.69531 63.371 7.28125C63.8241 7.86719 64.0507 8.68945 64.0507 9.74805C64.0507 10.8105 63.8222 11.6387 63.3652 12.2324C62.9081 12.8223 62.2734 13.1172 61.4609 13.1172C60.6405 13.1172 60.0038 12.8223 59.5507 12.2324H59.457L59.205 13H58.1738V3.88281H59.5507V6.05078C59.5507 6.21094 59.5429 6.44922 59.5273 6.76562C59.5116 7.08203 59.4999 7.2832 59.4921 7.36914H59.5507C59.9882 6.72461 60.6327 6.40234 61.4843 6.40234ZM61.1269 7.52734C60.5722 7.52734 60.1718 7.69141 59.9257 8.01953C59.6835 8.34375 59.5585 8.88867 59.5507 9.6543V9.74805C59.5507 10.5371 59.6757 11.1094 59.9257 11.4648C60.1757 11.8164 60.5839 11.9922 61.1503 11.9922C61.6386 11.9922 62.0077 11.7988 62.2577 11.4121C62.5116 11.0254 62.6386 10.4668 62.6386 9.73633C62.6386 8.26367 62.1347 7.52734 61.1269 7.52734ZM65.0259 6.51953H66.5259L67.8443 10.1934C68.0435 10.7168 68.1763 11.209 68.2427 11.6699H68.2896C68.3248 11.4551 68.3892 11.1953 68.483 10.8906C68.5767 10.582 69.0728 9.125 69.9713 6.51953H71.4595L68.688 13.8613C68.1841 15.209 67.3443 15.8828 66.1685 15.8828C65.8638 15.8828 65.567 15.8496 65.2779 15.7832V14.6934C65.4849 14.7402 65.7213 14.7637 65.9869 14.7637C66.6509 14.7637 67.1177 14.3789 67.3873 13.6094L67.6275 13L65.0259 6.51953Z" transform="translate(11 12)" fill="white"/>
<path d="M5.70705 -1.69346e-07C2.51421 -1.69346e-07 6.79007e-07 2.45272 6.79007e-07 5.59354C6.79007e-07 8.68996 2.49197 11.1205 5.66255 11.1205C8.8665 11.1205 11.3807 8.67886 11.3807 5.54915C11.3918 2.43053 8.89988 -1.69346e-07 5.70705 -1.69346e-07ZM8.83313 5.58244C8.83313 7.49135 7.5204 8.86754 5.71817 8.86754C3.92707 8.86754 2.58096 7.43586 2.58096 5.53805C2.58096 3.62914 3.88257 2.25295 5.67367 2.25295C7.4759 2.26405 8.83313 3.68463 8.83313 5.58244Z" transform="translate(164.197 14.9902)" fill="white"/>
<path d="M5.21754 -1.69346e-07C2.23609 -1.69346e-07 6.79005e-07 2.39723 6.79005e-07 5.57134C6.79005e-07 8.78985 2.30284 11.1205 5.48454 11.1205C7.27563 11.1205 8.74411 10.4435 9.85659 9.1228L9.88997 9.0784L8.25462 7.8132C7.38688 8.63447 6.56365 8.98962 5.50679 8.98962C3.94931 8.98962 2.85908 8.04626 2.56983 6.4703H10.2793C10.2793 6.4703 10.335 6.10406 10.335 5.73782C10.335 2.88556 8.75523 -1.69346e-07 5.21754 -1.69346e-07ZM7.78738 4.73897H2.55871C2.80346 3.15192 3.83806 2.11977 5.20642 2.11977C6.59702 2.11977 7.58713 3.11862 7.78738 4.73897Z" transform="translate(141.726 14.9902)" fill="white"/>
<path d="M5.21755 -1.69346e-07C2.2361 -1.69346e-07 -3.39503e-07 2.39723 -3.39503e-07 5.57134C-3.39503e-07 8.78985 2.30284 11.1205 5.48455 11.1205C7.27565 11.1205 8.74413 10.4435 9.85662 9.1228L9.88999 9.0784L8.25464 7.8132C7.3869 8.63447 6.56366 8.98962 5.5068 8.98962C3.94932 8.98962 2.85909 8.04626 2.56984 6.4703H10.2794C10.2794 6.4703 10.335 6.10406 10.335 5.73782C10.335 2.88556 8.75526 -1.69346e-07 5.21755 -1.69346e-07ZM7.78739 4.73897H2.55871C2.80346 3.15192 3.83807 2.11977 5.20643 2.11977C6.60816 2.11977 7.58715 3.11862 7.78739 4.73897Z" transform="translate(130.611 14.9902)" fill="white"/>
<path d="M1.5241 3.04093C2.36584 3.04093 3.0482 2.3602 3.0482 1.52047C3.0482 0.680736 2.36584 0 1.5241 0C0.682364 0 0 0.680736 0 1.52047C0 2.3602 0.682364 3.04093 1.5241 3.04093Z" transform="translate(160.226 11.1504)" fill="white"/>
<path d="M-6.79009e-07 1.02104V10.6544H2.49197V8.46733e-08L-6.79009e-07 1.02104Z" transform="translate(160.504 15.2236)" fill="white"/>
<path d="M6.02967 0C4.10507 0 3.14833 0.832372 2.26947 2.34174C2.26947 2.34174 1.91347 0.887864 1.7021 0.432834C1.60198 0.233064 1.40173 0.244163 1.16811 0.244163H-6.79007e-07V6.91424V10.8985H2.55871V6.4814C2.55871 4.37273 3.37083 2.69689 6.08529 2.69689H6.29666V0.0110981C6.29666 0.0110981 6.09642 0 6.02967 0Z" transform="translate(153.328 14.9795)" fill="white"/>
<path d="M5.65142 1.69347e-07C3.74907 1.69347e-07 2.19159 1.45388 2.08035 1.56486C1.95797 1.13203 1.81335 0.621505 1.7021 0.388441C1.63535 0.244163 1.51298 0.210868 1.36836 0.199769H0V15.2935L2.56984 14.2391V9.91078C2.69221 10.0995 3.88257 11.1094 5.51792 11.1094C8.56613 11.1094 11.0358 8.57899 11.0358 5.53805C11.0358 2.39723 8.33251 1.69347e-07 5.65142 1.69347e-07ZM5.35105 8.87864C3.52658 8.87864 2.21384 7.38037 2.21384 5.54915C2.21384 3.52926 3.64895 2.26405 5.30655 2.26405C7.14215 2.26405 8.46601 3.70683 8.46601 5.59354C8.46601 7.41366 7.24227 8.87864 5.35105 8.87864Z" transform="translate(118.797 15.0239)" fill="white"/>
<path d="M9.16211 0L12.209 2.40674C12.4824 2.64307 12.6387 3.0376 12.6387 3.53076V11.145C12.6387 12.5454 11.6816 13.7095 10.5098 14.2021L2.81348 17.3784C1.67969 17.8516 0 17.2993 0 15.3467V11.9531L6.44629 9.27051C7.30664 8.91602 7.69727 8.26465 7.69727 6.92285V3.41211L9.16211 2.80078V0Z" transform="translate(99.3613 13.3203)" fill="white"/>
<path d="M3.47754 17.9521L0.429688 15.1509C0.15625 14.9141 0 14.5195 0 14.0264V6.41259C0 5.03173 0.957031 3.84813 2.12891 3.35497L9.82617 0.159658C10.959 -0.313974 12.6387 0.238272 12.6387 2.1914L12.6396 5.58202L8.30176 7.39745L7.81348 6.68651C7.59863 6.37108 7.18848 6.39062 6.81738 6.54882L4.94238 7.33788V14.123L11.3887 11.4404C12.2246 11.0962 12.6172 10.4717 12.6387 9.20702V10.9492L3.47754 14.7563V17.9521Z" transform="translate(94.4189 11.1504)" fill="white"/>
</svg>
