<svg xmlns="http://www.w3.org/2000/svg" viewBox="0 0 344 184"><defs><style>.cls-1{isolation:isolate;}.cls-2,.cls-9{fill:#cdced9;}.cls-12,.cls-3{fill:#fff;}.cls-4{fill:#9b9db3;}.cls-10,.cls-11,.cls-12,.cls-4,.cls-5{stroke:#363c66;}.cls-10,.cls-12,.cls-4,.cls-5{stroke-linecap:round;stroke-linejoin:round;}.cls-10,.cls-11,.cls-12,.cls-4,.cls-5,.cls-6{stroke-width:0.5px;}.cls-11,.cls-5{fill:none;}.cls-6,.cls-7{fill:#363c66;}.cls-6{stroke:#cdced9;}.cls-11,.cls-6{stroke-miterlimit:10;}.cls-10,.cls-8{fill:#67e2e9;}.cls-9{opacity:0.75;mix-blend-mode:multiply;}</style></defs><title>Asset 4</title><g class="cls-1"><g id="Layer_2" data-name="Layer 2"><g id="Layer_5" data-name="Layer 5"><rect class="cls-2" width="344" height="183.75"/><path class="cls-3" d="M171.75,183.52c-8-11.38-36.2-21.94-45.2-37.93-8.58-15.25-6.77-34.42-2.88-42.5,4-8.38,12.17-12.88,20.06-10.7,8.13,2.25,9.12,11.08,2.69,13.29l43.07,13.4c1.22-4.11-.56-10.54-4.32-13.26-2.48-1.8-5.8-7.41-1.88-11.33,4.24-4.23,10.34-.87,14.5,4.38,8,10.13,4.6,32.29,2.42,45.85-2.72,16.91,6.9,30.21,13.76,38.8Z"/><polyline class="cls-2" points="142.44 148.69 142.44 69.3 184.8 69.3 184.8 148.69 142.44 148.69"/><path class="cls-3" d="M182,60.09H145.26c-4,0-7.34,4-7.34,8.89v80c0,4.89,3.31,8.89,7.34,8.89H182c4,0,7.34-4,7.34-8.89V69C189.32,64.09,186,60.09,182,60.09Zm2.82,88.6H142.44V69.3H184.8Z"/><path class="cls-4" d="M182,60.09H145.26c-4,0-7.34,4-7.34,8.89v80c0,4.89,3.31,8.89,7.34,8.89H182c4,0,7.34-4,7.34-8.89V69C189.32,64.09,186,60.09,182,60.09Zm2.82,88.6H142.44V69.3H184.8Z"/><polyline class="cls-5" points="142.44 148.69 142.44 69.3 184.8 69.3 184.8 148.69 142.44 148.69"/><ellipse class="cls-6" cx="163.62" cy="148.69" rx="3.98" ry="3.97"/><rect class="cls-7" x="147.28" y="101.88" width="34.47" height="12.55" rx="2.39" ry="2.39"/><ellipse class="cls-8" cx="156.25" cy="108.16" rx="2.34" ry="2.34"/><ellipse class="cls-8" cx="164.51" cy="108.16" rx="2.34" ry="2.34"/><ellipse class="cls-8" cx="172.74" cy="108.16" rx="2.34" ry="2.34"/><polygon class="cls-9" points="160.33 45.77 153.1 38.56 149.5 42.15 160.8 53.43 181.18 33.08 177.09 28.99 160.33 45.77"/><polygon class="cls-10" points="160.58 41.08 153.35 33.87 149.75 37.46 160.55 48.24 180.93 27.9 177.33 24.3 160.58 41.08"/><path class="cls-3" d="M145.18,105c-7.59-3.58-15.42,3.65-15.42,3.65l4.8,11.36h10.25C150.25,118.78,153.7,109,145.18,105Z"/><path class="cls-3" d="M143.73,92.39c-7.89-2.18-16,2.32-20.06,10.7-2.22,4.62-3.72,12.83-3,21.88l25.78-19.29C152.85,103.47,151.86,94.64,143.73,92.39Z"/><path class="cls-11" d="M144.81,120c5.44-1.25,8.89-11,.37-15-7.59-3.58-15.42,3.65-15.42,3.65"/><path class="cls-12" d="M136.46,135c3.7-1.58,6.59.39,9.24-1.58,4.19-3.12,5.2-9.89-.52-13.25-8.61-5.06-16.16,2.54-16.16,2.54"/><path class="cls-5" d="M146.42,105.68c6.43-2.21,5.44-11-2.69-13.29-7.89-2.18-16,2.32-20.06,10.7-3.89,8.08-5.7,27.25,2.88,42.5,9,16,37.16,26.55,45.2,37.93"/><path class="cls-12" d="M200.21,144.72c2.18-13.56,5.61-35.72-2.42-45.85-4.16-5.25-10.26-8.61-14.5-4.38-3.92,3.92-.6,9.53,1.88,11.33,3.76,2.72,5.54,9.15,4.32,13.26"/><path class="cls-5" d="M214,183.52c-6.86-8.59-16.48-21.89-13.76-38.8"/><line class="cls-11" y1="183.75" x2="344" y2="183.75"/></g></g></g></svg>