<svg width="4800" height="112" viewBox="0 0 4800 112" version="1.1" xmlns="http://www.w3.org/2000/svg" xmlns:xlink="http://www.w3.org/1999/xlink">
<title>ic-files</title>
<desc>Created using Figma</desc>
<g id="Canvas" transform="matrix(2 0 0 2 2414 802)">
<clipPath id="clip-0" clip-rule="evenodd">
<path d="M -1207 -401L 1193 -401L 1193 -345L -1207 -345L -1207 -401Z" fill="#FFFFFF"/>
</clipPath>
<g id="ic-files" clip-path="url(#clip-0)">
<g id="icon-image">
<g id="Vector">
<use xlink:href="#path0_fill" transform="translate(-1202.33 -396.333)" fill="#000000" fill-opacity="0.54"/>
</g>
</g>
<g id="icon-pdf-l">
<g id="Vector">
<use xlink:href="#path1_fill" transform="translate(-861.667 -396.333)" fill="#000000" fill-opacity="0.54"/>
</g>
<g id="PDF">
<g id="Rectangle 17">
<use xlink:href="#path2_fill" transform="translate(-852.333 -368.378)" fill="#D0021B"/>
</g>
<g id="PDF">
<use xlink:href="#path3_fill" transform="translate(-845.333 -367.214)" fill="#FFFFFF"/>
</g>
</g>
</g>
<g id="icon-ai-l">
<g id="Vector">
<use xlink:href="#path1_fill" transform="translate(-805.667 -396.333)" fill="#000000" fill-opacity="0.54"/>
</g>
<g id="AI">
<g id="Rectangle 17">
<use xlink:href="#path4_fill" transform="translate(-796.333 -368.378)" fill="#F69223"/>
</g>
<g id="AI">
<use xlink:href="#path5_fill" transform="translate(-789.333 -367.214)" fill="#FFFFFF"/>
</g>
</g>
</g>
<g id="icon-psd-l">
<g id="Vector">
<use xlink:href="#path1_fill" transform="translate(-749.667 -396.333)" fill="#000000" fill-opacity="0.54"/>
</g>
<g id="PSD">
<g id="Rectangle 17">
<use xlink:href="#path4_fill" transform="translate(-740.333 -368.378)" fill="#2C95CF"/>
</g>
<g id="PSD">
<use xlink:href="#path6_fill" transform="translate(-733.333 -367.214)" fill="#FFFFFF"/>
</g>
</g>
</g>
<g id="icon-word-l">
<g id="Vector">
<use xlink:href="#path1_fill" transform="translate(-693.667 -396.333)" fill="#000000" fill-opacity="0.54"/>
</g>
<g id="W">
<g id="Rectangle 17">
<use xlink:href="#path7_fill" transform="matrix(-1 1.22267e-16 -1.22663e-16 -1 -675 -368.378)" fill="#2C95CF"/>
</g>
<g id="W">
<use xlink:href="#path8_fill" transform="translate(-691.333 -381.191)" fill="#FFFFFF"/>
</g>
</g>
</g>
<g id="icon-excel-l">
<g id="Vector">
<use xlink:href="#path1_fill" transform="translate(-637.667 -396.333)" fill="#000000" fill-opacity="0.54"/>
</g>
<g id="E">
<g id="Rectangle 17">
<use xlink:href="#path7_fill" transform="matrix(-1 1.22267e-16 -1.22663e-16 -1 -619 -368.378)" fill="#2CCF84"/>
</g>
<g id="X">
<use xlink:href="#path9_fill" transform="translate(-635.333 -381.191)" fill="#FFFFFF"/>
</g>
</g>
</g>
<g id="icon-powerpoint-l">
<g id="Vector">
<use xlink:href="#path1_fill" transform="translate(-581.667 -396.333)" fill="#000000" fill-opacity="0.54"/>
</g>
<g id="P">
<g id="Rectangle 17">
<use xlink:href="#path7_fill" transform="matrix(-1 1.22267e-16 -1.22663e-16 -1 -563 -368.378)" fill="#F69223"/>
</g>
<g id="P">
<use xlink:href="#path10_fill" transform="translate(-579.333 -381.191)" fill="#FFFFFF"/>
</g>
</g>
</g>
<g id="icon-file-other">
<g id="Vector">
<use xlink:href="#path1_fill" transform="translate(-1029.67 -396.333)" fill="#000000" fill-opacity="0.54"/>
</g>
</g>
<g id="icon-video">
<g id="Vector">
<use xlink:href="#path1_fill" transform="translate(-1085.67 -396.333)" fill="#000000" fill-opacity="0.54"/>
</g>
<g id="Vector">
<use xlink:href="#path11_fill" transform="translate(-1072.83 -377.704)" fill="#000000" fill-opacity="0.54"/>
</g>
</g>
<g id="icon-text">
<g id="Vector">
<use xlink:href="#path1_fill" transform="translate(-973.667 -396.333)" fill="#000000" fill-opacity="0.54"/>
</g>
<g id="Vector 3">
<use xlink:href="#path12_stroke" transform="translate(-964.333 -374.53)" fill="#000000" fill-opacity="0.54"/>
</g>
<g id="Vector 3">
<use xlink:href="#path12_stroke" transform="translate(-964.333 -367.53)" fill="#000000" fill-opacity="0.54"/>
</g>
<g id="Vector 3">
<use xlink:href="#path12_stroke" transform="translate(-964.333 -360.53)" fill="#000000" fill-opacity="0.54"/>
</g>
</g>
<g id="icon-zip">
<g id="Vector">
<use xlink:href="#path13_fill" transform="translate(-917.667 -396.333)" fill="#000000" fill-opacity="0.54"/>
</g>
<g id="Vector">
<use xlink:href="#path14_fill" transform="translate(-907.167 -390.5)" fill="#000000" fill-opacity="0.54"/>
</g>
</g>
<g id="icon-audio">
<g id="Vector">
<use xlink:href="#path1_fill" transform="translate(-1141.67 -396.333)" fill="#000000" fill-opacity="0.54"/>
</g>
<g id="Vector">
<use xlink:href="#path15_fill" transform="translate(-1133.5 -380.026)" fill="#000000" fill-opacity="0.54"/>
</g>
</g>
<g id="icon-image">
<g id="Vector">
<use xlink:href="#path16_fill" transform="translate(-363 -397)" fill="#000000" fill-opacity="0.54"/>
</g>
</g>
<g id="icon-pdf-l">
<g id="Vector">
<use xlink:href="#path17_fill" transform="translate(-71 -397)" fill="#000000" fill-opacity="0.54"/>
</g>
<g id="PDF">
<g id="Rectangle 17">
<use xlink:href="#path18_fill" transform="translate(-63 -373.039)" fill="#D0021B"/>
</g>
<g id="PDF">
<use xlink:href="#path19_fill" transform="translate(-57 -372.04)" fill="#FFFFFF"/>
</g>
</g>
</g>
<g id="icon-ai-l">
<g id="Vector">
<use xlink:href="#path17_fill" transform="translate(-23 -397)" fill="#000000" fill-opacity="0.54"/>
</g>
<g id="AI">
<g id="Rectangle 17">
<use xlink:href="#path20_fill" transform="translate(-15 -373.039)" fill="#F69223"/>
</g>
<g id="AI">
<use xlink:href="#path21_fill" transform="translate(-9 -372.04)" fill="#FFFFFF"/>
</g>
</g>
</g>
<g id="icon-psd-l">
<g id="Vector">
<use xlink:href="#path17_fill" transform="translate(25 -397)" fill="#000000" fill-opacity="0.54"/>
</g>
<g id="PSD">
<g id="Rectangle 17">
<use xlink:href="#path20_fill" transform="translate(33 -373.039)" fill="#2C95CF"/>
</g>
<g id="PSD">
<use xlink:href="#path22_fill" transform="translate(39 -372.04)" fill="#FFFFFF"/>
</g>
</g>
</g>
<g id="icon-word-l">
<g id="Vector">
<use xlink:href="#path17_fill" transform="translate(73 -397)" fill="#000000" fill-opacity="0.54"/>
</g>
<g id="W">
<g id="Rectangle 17">
<use xlink:href="#path23_fill" transform="matrix(-1 1.22267e-16 -1.22663e-16 -1 89 -373.039)" fill="#2C95CF"/>
</g>
<g id="W">
<use xlink:href="#path24_fill" transform="translate(75 -384.021)" fill="#FFFFFF"/>
</g>
</g>
</g>
<g id="icon-excel-l">
<g id="Vector">
<use xlink:href="#path17_fill" transform="translate(121 -397)" fill="#000000" fill-opacity="0.54"/>
</g>
<g id="E">
<g id="Rectangle 17">
<use xlink:href="#path23_fill" transform="matrix(-1 1.22267e-16 -1.22663e-16 -1 137 -373.039)" fill="#2CCF84"/>
</g>
<g id="X">
<use xlink:href="#path25_fill" transform="translate(123 -384.021)" fill="#FFFFFF"/>
</g>
</g>
</g>
<g id="icon-powerpoint-l">
<g id="Vector">
<use xlink:href="#path17_fill" transform="translate(169 -397)" fill="#000000" fill-opacity="0.54"/>
</g>
<g id="P">
<g id="Rectangle 17">
<use xlink:href="#path23_fill" transform="matrix(-1 1.22267e-16 -1.22663e-16 -1 185 -373.039)" fill="#F69223"/>
</g>
<g id="P">
<use xlink:href="#path26_fill" transform="translate(171 -384.021)" fill="#FFFFFF"/>
</g>
</g>
</g>
<g id="icon-file-other">
<g id="Vector">
<use xlink:href="#path17_fill" transform="translate(-215 -397)" fill="#000000" fill-opacity="0.54"/>
</g>
</g>
<g id="icon-video">
<g id="Vector">
<use xlink:href="#path17_fill" transform="translate(-263 -397)" fill="#000000" fill-opacity="0.54"/>
</g>
<g id="Vector">
<use xlink:href="#path27_fill" transform="translate(-252 -381.032)" fill="#000000" fill-opacity="0.54"/>
</g>
</g>
<g id="icon-text">
<g id="Vector">
<use xlink:href="#path17_fill" transform="translate(-167 -397)" fill="#000000" fill-opacity="0.54"/>
</g>
<g id="Vector 3">
<use xlink:href="#path28_stroke" transform="translate(-159 -378.311)" fill="#000000" fill-opacity="0.54"/>
</g>
<g id="Vector 3">
<use xlink:href="#path28_stroke" transform="translate(-159 -372.311)" fill="#000000" fill-opacity="0.54"/>
</g>
<g id="Vector 3">
<use xlink:href="#path28_stroke" transform="translate(-159 -366.311)" fill="#000000" fill-opacity="0.54"/>
</g>
</g>
<g id="icon-zip">
<g id="Vector">
<use xlink:href="#path29_fill" transform="translate(-119 -397)" fill="#000000" fill-opacity="0.54"/>
</g>
<g id="Vector">
<use xlink:href="#path30_fill" transform="translate(-110 -392)" fill="#000000" fill-opacity="0.54"/>
</g>
</g>
<g id="icon-audio">
<g id="Vector">
<use xlink:href="#path17_fill" transform="translate(-311 -397)" fill="#000000" fill-opacity="0.54"/>
</g>
<g id="Vector">
<use xlink:href="#path31_fill" transform="translate(-304 -383.023)" fill="#000000" fill-opacity="0.54"/>
</g>
</g>
<g id="icon-image">
<g id="Vector">
<use xlink:href="#path32_fill" transform="translate(355.667 -398.333)" fill="#000000" fill-opacity="0.54"/>
</g>
</g>
<g id="icon-file-other">
<g id="Vector">
<use xlink:href="#path33_fill" transform="translate(454.333 -398.333)" fill="#000000" fill-opacity="0.54"/>
</g>
</g>
<g id="icon-video">
<g id="Vector">
<use xlink:href="#path33_fill" transform="translate(422.333 -398.333)" fill="#000000" fill-opacity="0.54"/>
</g>
<g id="Vector">
<use xlink:href="#path34_fill" transform="translate(429.667 -387.688)" fill="#000000" fill-opacity="0.54"/>
</g>
</g>
<g id="icon-text">
<g id="Vector">
<use xlink:href="#path33_fill" transform="translate(486.333 -398.333)" fill="#000000" fill-opacity="0.54"/>
</g>
<g id="Vector 3">
<use xlink:href="#path35_stroke" transform="translate(491.667 -385.874)" fill="#000000" fill-opacity="0.54"/>
</g>
<g id="Vector 3">
<use xlink:href="#path35_stroke" transform="translate(491.667 -381.874)" fill="#000000" fill-opacity="0.54"/>
</g>
<g id="Vector 3">
<use xlink:href="#path35_stroke" transform="translate(491.667 -377.874)" fill="#000000" fill-opacity="0.54"/>
</g>
</g>
<g id="icon-zip">
<g id="Vector">
<use xlink:href="#path36_fill" transform="translate(518.333 -398.333)" fill="#000000" fill-opacity="0.54"/>
</g>
<g id="Vector">
<use xlink:href="#path37_fill" transform="translate(524.333 -395)" fill="#000000" fill-opacity="0.54"/>
</g>
</g>
<g id="icon-audio">
<g id="Vector">
<use xlink:href="#path33_fill" transform="translate(390.333 -398.333)" fill="#000000" fill-opacity="0.54"/>
</g>
<g id="Vector">
<use xlink:href="#path38_fill" transform="translate(395 -389.015)" fill="#000000" fill-opacity="0.54"/>
</g>
</g>
<g id="icon-psd-m">
<g id="Vector">
<use xlink:href="#path39_fill" transform="translate(614.333 -398.333)" fill="#000000" fill-opacity="0.54"/>
</g>
<g id="PSD">
<g id="Rectangle 17">
<use xlink:href="#path40_fill" transform="translate(620 -385.318)" fill="#2C95CF"/>
</g>
<g id="PSD">
<use xlink:href="#path41_fill" transform="translate(621 -384.319)" fill="#FFFFFF"/>
</g>
</g>
</g>
<g id="icon-word-m">
<g id="Vector">
<use xlink:href="#path39_fill" transform="translate(646.333 -398.333)" fill="#000000" fill-opacity="0.54"/>
</g>
<g id="W">
<g id="Rectangle 17">
<use xlink:href="#path42_fill" transform="matrix(-1 1.22465e-16 -1.22465e-16 -1 658 -376.318)" fill="#2C95CF"/>
</g>
<g id="W">
<use xlink:href="#path43_fill" transform="translate(647.5 -384.568)" fill="#FFFFFF"/>
</g>
</g>
</g>
<g id="icon-ai-m">
<g id="Vector">
<use xlink:href="#path39_fill" transform="translate(582.333 -398.333)" fill="#000000" fill-opacity="0.54"/>
</g>
<g id="AI">
<g id="Rectangle 17">
<use xlink:href="#path40_fill" transform="translate(588 -385.318)" fill="#F69223"/>
</g>
<g id="AI">
<use xlink:href="#path44_fill" transform="translate(589 -384.319)" fill="#FFFFFF"/>
</g>
</g>
</g>
<g id="icon-pdf-m">
<g id="Vector">
<use xlink:href="#path39_fill" transform="translate(550.333 -398.333)" fill="#000000" fill-opacity="0.54"/>
</g>
<g id="PDF">
<g id="Rectangle 17">
<use xlink:href="#path40_fill" transform="translate(556 -385.318)" fill="#D0021B"/>
</g>
<g id="PDF">
<use xlink:href="#path45_fill" transform="translate(557 -384.319)" fill="#FFFFFF"/>
</g>
</g>
</g>
<g id="icon-excel-m">
<g id="Vector">
<use xlink:href="#path39_fill" transform="translate(678.333 -398.333)" fill="#000000" fill-opacity="0.54"/>
</g>
<g id="X">
<g id="Rectangle 17">
<use xlink:href="#path42_fill" transform="matrix(-1 1.22465e-16 -1.22465e-16 -1 690 -376.318)" fill="#2CCF84"/>
</g>
<g id="X">
<use xlink:href="#path46_fill" transform="translate(679.5 -384.568)" fill="#FFFFFF"/>
</g>
</g>
</g>
<g id="icon-powerpoint-m">
<g id="Vector">
<use xlink:href="#path39_fill" transform="translate(710.333 -398.333)" fill="#000000" fill-opacity="0.54"/>
</g>
<g id="P">
<g id="Rectangle 17">
<use xlink:href="#path42_fill" transform="matrix(-1 1.22465e-16 -1.22465e-16 -1 722 -376.318)" fill="#F69223"/>
</g>
<g id="P">
<use xlink:href="#path47_fill" transform="translate(711.5 -384.568)" fill="#FFFFFF"/>
</g>
</g>
</g>
<g id="icon-presentation">
<g id="Group">
<g id="path0 fill 1" opacity="0.54">
<use xlink:href="#path48_fill" transform="translate(-507.58 -398.667)"/>
</g>
<g id="path2 fill 3" opacity="0.54">
<use xlink:href="#path49_fill" transform="translate(-516.623 -394.967)"/>
</g>
<g id="path2 fill 2" opacity="0.54">
<use xlink:href="#path50_fill" transform="translate(-525.667 -391.499)"/>
</g>
</g>
</g>
<g id="icon-documents">
<g id="Vector">
<use xlink:href="#path51_fill" transform="translate(-469.667 -391.656)" fill="#000000" fill-opacity="0.54"/>
</g>
<g id="path0 fill 1">
<use xlink:href="#path52_fill" transform="translate(-460.333 -396.322)" fill="#000000" fill-opacity="0.54"/>
</g>
</g>
<g id="icon-presentation">
<g id="Group">
<g id="path0 fill 1" opacity="0.54">
<use xlink:href="#path53_fill" transform="translate(232.503 -399)"/>
</g>
<g id="path2 fill 3" opacity="0.54">
<use xlink:href="#path54_fill" transform="translate(224.752 -395.829)"/>
</g>
<g id="path2 fill 2" opacity="0.54">
<use xlink:href="#path55_fill" transform="translate(217 -392.856)"/>
</g>
</g>
</g>
<g id="icon-documents">
<g id="Vector">
<use xlink:href="#path56_fill" transform="translate(265 -392.99)" fill="#000000" fill-opacity="0.54"/>
</g>
<g id="path0 fill 1">
<use xlink:href="#path57_fill" transform="translate(273 -396.99)" fill="#000000" fill-opacity="0.54"/>
</g>
</g>
<g id="icon-file-any">
<g id="Vector">
<use xlink:href="#path58_fill" transform="translate(313 -397)" fill="#000000" fill-opacity="0.54"/>
</g>
</g>
<g id="icon-presentation">
<g id="Group">
<g id="path0 fill 1" opacity="0.54">
<use xlink:href="#path59_fill" transform="translate(752.669 -399.667)"/>
</g>
<g id="path2 fill 3" opacity="0.54">
<use xlink:href="#path60_fill" transform="translate(747.501 -397.553)"/>
</g>
<g id="path2 fill 2" opacity="0.54">
<use xlink:href="#path61_fill" transform="translate(742.333 -395.571)"/>
</g>
</g>
</g>
<g id="icon-documents">
<g id="Vector">
<use xlink:href="#path62_fill" transform="translate(774.333 -395.66)" fill="#000000" fill-opacity="0.54"/>
</g>
<g id="path0 fill 1">
<use xlink:href="#path63_fill" transform="translate(779.667 -398.327)" fill="#000000" fill-opacity="0.54"/>
</g>
</g>
<g id="icon-file-any">
<g id="Vector">
<use xlink:href="#path64_fill" transform="translate(806.333 -398.333)" fill="#000000" fill-opacity="0.54"/>
</g>
</g>
<g id="icon-file-any">
<g id="Vector">
<use xlink:href="#path65_fill" transform="translate(-413.667 -396.333)" fill="#000000" fill-opacity="0.54"/>
</g>
</g>
<g id="icon-M-image">
<g id="icon-image">
<g id="Vector">
<use xlink:href="#path66_fill" transform="translate(835 -399)" fill="#000000" fill-opacity="0.54"/>
</g>
</g>
</g>
<g id="icon-M-audio">
<g id="Vector">
<use xlink:href="#path67_fill" transform="translate(862 -399)" fill="#000000" fill-opacity="0.54"/>
</g>
</g>
<g id="icon-M-video">
<g id="Vector">
<use xlink:href="#path68_fill" transform="translate(883 -399)" fill="#000000" fill-opacity="0.54"/>
<use xlink:href="#path69_fill" transform="translate(883 -399)" fill="#000000" fill-opacity="0.54"/>
</g>
</g>
<g id="icon-M-pdf-s">
<g id="Vector">
<use xlink:href="#path70_fill" transform="translate(981 -399)" fill="#000000" fill-opacity="0.54"/>
</g>
<g id="PDF">
<use xlink:href="#path71_fill" transform="translate(983 -388)" fill="#D0021B"/>
</g>
</g>
<g id="icon-M-ai-s">
<g id="Vector">
<use xlink:href="#path70_fill" transform="translate(1005 -399)" fill="#000000" fill-opacity="0.54"/>
</g>
<g id="AI">
<use xlink:href="#path72_fill" transform="translate(1007 -388)" fill="#F69223"/>
</g>
</g>
<g id="icon-M-psd-s">
<g id="Vector">
<use xlink:href="#path70_fill" transform="translate(1029 -399)" fill="#000000" fill-opacity="0.54"/>
</g>
<g id="PSD">
<use xlink:href="#path73_fill" transform="translate(1031 -388)" fill="#2C95CF"/>
</g>
</g>
<g id="icon-M-word-s">
<g id="Vector">
<use xlink:href="#path70_fill" transform="translate(1053 -399)" fill="#000000" fill-opacity="0.54"/>
</g>
<g id="Rectangle 17">
<use xlink:href="#path74_fill" transform="matrix(-1 1.22465e-16 -1.22465e-16 -1 1061.75 -382.488)" fill="#2C95CF"/>
</g>
<g id="W">
<use xlink:href="#path75_fill" transform="translate(1053.88 -388.676)" fill="#FFFFFF"/>
</g>
</g>
<g id="icon-M-exce-s">
<g id="Vector">
<use xlink:href="#path70_fill" transform="translate(1077 -399)" fill="#000000" fill-opacity="0.54"/>
</g>
<g id="Rectangle 17">
<use xlink:href="#path74_fill" transform="matrix(-1 1.22465e-16 -1.22465e-16 -1 1085.75 -382.488)" fill="#2CCF84"/>
</g>
<g id="X">
<use xlink:href="#path76_fill" transform="translate(1077.88 -388.676)" fill="#FFFFFF"/>
</g>
</g>
<g id="icon-M-powerpoint-s">
<g id="Vector">
<use xlink:href="#path70_fill" transform="translate(1101 -399)" fill="#000000" fill-opacity="0.54"/>
</g>
<g id="Rectangle 17">
<use xlink:href="#path74_fill" transform="matrix(-1 1.22465e-16 -1.22465e-16 -1 1109.75 -382.488)" fill="#F69223"/>
</g>
<g id="P">
<use xlink:href="#path77_fill" transform="translate(1101.88 -388.676)" fill="#FFFFFF"/>
</g>
</g>
<g id="icon-M-file-other">
<g id="icon-file-other-M">
<g id="Vector">
<use xlink:href="#path78_fill" transform="translate(909 -399)" fill="#000000" fill-opacity="0.54"/>
</g>
</g>
</g>
<g id="icon-M-text-s">
<g id="Vector">
<use xlink:href="#path78_fill" transform="translate(933 -399)" fill="#000000" fill-opacity="0.54"/>
</g>
<g id="Vector 3">
<use xlink:href="#path79_stroke" transform="translate(937 -389.656)" fill="#000000" fill-opacity="0.54"/>
</g>
<g id="Vector 3">
<use xlink:href="#path79_stroke" transform="translate(937 -386.656)" fill="#000000" fill-opacity="0.54"/>
</g>
<g id="Vector 3">
<use xlink:href="#path79_stroke" transform="translate(937 -383.656)" fill="#000000" fill-opacity="0.54"/>
</g>
</g>
<g id="icon-M-zip">
<g id="icon-zip-M">
<g id="Vector">
<use xlink:href="#path80_fill" transform="translate(957 -399)" fill="#000000" fill-opacity="0.54"/>
</g>
<g id="Vector">
<use xlink:href="#path81_fill" transform="translate(961.5 -396.5)" fill="#000000" fill-opacity="0.54"/>
</g>
</g>
</g>
<g id="icon-M-file-any">
<g id="icon-file-any-M">
<g id="Vector">
<use xlink:href="#path82_fill" transform="translate(1173 -399)" fill="#000000" fill-opacity="0.54"/>
</g>
</g>
</g>
<g id="icon-M-presentation">
<g id="icon-presentation-M">
<g id="Group">
<g id="path0 fill 1" opacity="0.54">
<use xlink:href="#path83_fill" transform="translate(1132.75 -400)"/>
</g>
<g id="path2 fill 3" opacity="0.54">
<use xlink:href="#path84_fill" transform="translate(1128.88 -398.414)"/>
</g>
<g id="path2 fill 2" opacity="0.54">
<use xlink:href="#path85_fill" transform="translate(1125 -396.928)"/>
</g>
</g>
</g>
</g>
<g id="icon-M-documents">
<g id="icon-documents-M">
<g id="Vector">
<use xlink:href="#path86_fill" transform="translate(1149 -396.995)" fill="#000000" fill-opacity="0.54"/>
</g>
<g id="path0 fill 1">
<use xlink:href="#path87_fill" transform="translate(1153 -398.995)" fill="#000000" fill-opacity="0.54"/>
</g>
</g>
</g>
</g>
</g>
<defs>
<path id="path0_fill" d="M 46.6667 41.4815L 46.6667 5.18519C 46.6667 2.33333 44.3333 0 41.4815 0L 5.18519 0C 2.33333 0 0 2.33333 0 5.18519L 0 41.4815C 0 44.3333 2.33333 46.6667 5.18519 46.6667L 41.4815 46.6667C 44.3333 46.6667 46.6667 44.3333 46.6667 41.4815ZM 14.2593 27.2222L 20.7407 35L 29.8148 23.3333L 41.4815 38.8889L 5.18519 38.8889L 14.2593 27.2222Z"/>
<path id="path1_fill" d="M 21 4.65914L 21 11.6478C 21 14.2104 23.1 16.307 25.6667 16.307L 32.6667 16.307L 32.6667 41.9323L 4.66667 41.9323L 4.66667 4.65914L 21 4.65914ZM 28 0L 4.66667 0C 2.1 0 0 2.09661 0 4.65914L 0 41.9323C 0 44.4948 2.1 46.5914 4.66667 46.5914L 32.6667 46.5914C 35.2333 46.5914 37.3333 44.4948 37.3333 41.9323L 37.3333 9.31828L 28 0ZM 25.6667 11.6478L 25.6667 4.65914L 32.6667 11.6478L 25.6667 11.6478Z"/>
<path id="path2_fill" d="M 0 2C 0 0.895431 0.895431 0 2 0L 28 0L 28 9.31828L 2 9.31828C 0.895431 9.31828 0 8.42285 0 7.31828L 0 2Z"/>
<path id="path3_fill" d="M 3.40137 3.01172C 3.40137 3.45898 3.25488 3.80176 2.96191 4.04004C 2.66895 4.27832 2.25195 4.39746 1.71094 4.39746L 1.26562 4.39746L 1.26562 6L 0.56543 6L 0.56543 1.7168L 1.79883 1.7168C 2.33398 1.7168 2.73437 1.82617 3 2.04492C 3.26758 2.26367 3.40137 2.58594 3.40137 3.01172ZM 1.26562 3.80859L 1.6377 3.80859C 1.99707 3.80859 2.26074 3.74609 2.42871 3.62109C 2.59668 3.49609 2.68066 3.30078 2.68066 3.03516C 2.68066 2.78906 2.60547 2.60547 2.45508 2.48438C 2.30469 2.36328 2.07031 2.30273 1.75195 2.30273L 1.26562 2.30273L 1.26562 3.80859ZM 7.74023 3.81738C 7.74023 4.52441 7.54395 5.06543 7.15137 5.44043C 6.75879 5.81348 6.19336 6 5.45508 6L 4.25684 6L 4.25684 1.7168L 5.58105 1.7168C 6.2627 1.7168 6.79297 1.90039 7.17188 2.26758C 7.55078 2.63477 7.74023 3.15137 7.74023 3.81738ZM 7.00195 3.84082C 7.00195 2.81543 6.52246 2.30273 5.56348 2.30273L 4.95703 2.30273L 4.95703 5.41113L 5.45508 5.41113C 6.48633 5.41113 7.00195 4.8877 7.00195 3.84082ZM 9.35742 6L 8.66309 6L 8.66309 1.7168L 11.0801 1.7168L 11.0801 2.30859L 9.35742 2.30859L 9.35742 3.64746L 10.9717 3.64746L 10.9717 4.24219L 9.35742 4.24219L 9.35742 6Z"/>
<path id="path4_fill" d="M 0 2C 0 0.89543 0.895431 0 2 0L 28 0L 28 9.33333L 2 9.33333C 0.895431 9.33333 0 8.4379 0 7.33333L 0 2Z"/>
<path id="path5_fill" d="M 7.32227 6L 6.89453 4.81055L 5.25684 4.81055L 4.83789 6L 4.09961 6L 5.70215 1.69922L 6.46387 1.69922L 8.06641 6L 7.32227 6ZM 6.70996 4.20703L 6.30859 3.04102C 6.2793 2.96289 6.23828 2.83984 6.18555 2.67188C 6.13477 2.50391 6.09961 2.38086 6.08008 2.30273C 6.02734 2.54297 5.9502 2.80566 5.84863 3.09082L 5.46191 4.20703L 6.70996 4.20703ZM 8.63184 6L 8.63184 1.7168L 9.33203 1.7168L 9.33203 6L 8.63184 6Z"/>
<path id="path6_fill" d="M 4.70312 3.01172C 4.70312 3.45898 4.55664 3.80176 4.26367 4.04004C 3.9707 4.27832 3.55371 4.39746 3.0127 4.39746L 2.56738 4.39746L 2.56738 6L 1.86719 6L 1.86719 1.7168L 3.10059 1.7168C 3.63574 1.7168 4.03613 1.82617 4.30176 2.04492C 4.56934 2.26367 4.70312 2.58594 4.70312 3.01172ZM 2.56738 3.80859L 2.93945 3.80859C 3.29883 3.80859 3.5625 3.74609 3.73047 3.62109C 3.89844 3.49609 3.98242 3.30078 3.98242 3.03516C 3.98242 2.78906 3.90723 2.60547 3.75684 2.48438C 3.60645 2.36328 3.37207 2.30273 3.05371 2.30273L 2.56738 2.30273L 2.56738 3.80859ZM 8.02832 4.83691C 8.02832 5.21777 7.89062 5.5166 7.61523 5.7334C 7.33984 5.9502 6.95996 6.05859 6.47559 6.05859C 5.99121 6.05859 5.59473 5.9834 5.28613 5.83301L 5.28613 5.1709C 5.48145 5.2627 5.68848 5.33496 5.90723 5.3877C 6.12793 5.44043 6.33301 5.4668 6.52246 5.4668C 6.7998 5.4668 7.00391 5.41406 7.13477 5.30859C 7.26758 5.20312 7.33398 5.06152 7.33398 4.88379C 7.33398 4.72363 7.27344 4.58789 7.15234 4.47656C 7.03125 4.36523 6.78125 4.2334 6.40234 4.08105C 6.01172 3.92285 5.73633 3.74219 5.57617 3.53906C 5.41602 3.33594 5.33594 3.0918 5.33594 2.80664C 5.33594 2.44922 5.46289 2.16797 5.7168 1.96289C 5.9707 1.75781 6.31152 1.65527 6.73926 1.65527C 7.14941 1.65527 7.55762 1.74512 7.96387 1.9248L 7.74121 2.49609C 7.36035 2.33594 7.02051 2.25586 6.72168 2.25586C 6.49512 2.25586 6.32324 2.30566 6.20605 2.40527C 6.08887 2.50293 6.03027 2.63281 6.03027 2.79492C 6.03027 2.90625 6.05371 3.00195 6.10059 3.08203C 6.14746 3.16016 6.22461 3.23438 6.33203 3.30469C 6.43945 3.375 6.63281 3.46777 6.91211 3.58301C 7.22656 3.71387 7.45703 3.83594 7.60352 3.94922C 7.75 4.0625 7.85742 4.19043 7.92578 4.33301C 7.99414 4.47559 8.02832 4.64355 8.02832 4.83691ZM 12.3408 3.81738C 12.3408 4.52441 12.1445 5.06543 11.752 5.44043C 11.3594 5.81348 10.7939 6 10.0557 6L 8.85742 6L 8.85742 1.7168L 10.1816 1.7168C 10.8633 1.7168 11.3936 1.90039 11.7725 2.26758C 12.1514 2.63477 12.3408 3.15137 12.3408 3.81738ZM 11.6025 3.84082C 11.6025 2.81543 11.123 2.30273 10.1641 2.30273L 9.55762 2.30273L 9.55762 5.41113L 10.0557 5.41113C 11.0869 5.41113 11.6025 4.8877 11.6025 3.84082Z"/>
<path id="path7_fill" d="M 0 2C 0 0.89543 0.895431 0 2 0L 18.6667 0L 18.6667 18.6366L 2 18.6366C 0.89543 18.6366 0 17.7411 0 16.6366L 0 2Z"/>
<path id="path8_fill" d="M 9.23828 7L 8.22266 7L 7.25391 3.59375C 7.21224 3.44531 7.16016 3.23177 7.09766 2.95312C 7.03516 2.67188 6.9974 2.47656 6.98438 2.36719C 6.95833 2.53385 6.91536 2.75 6.85547 3.01562C 6.79818 3.28125 6.75 3.47917 6.71094 3.60938L 5.76562 7L 4.75 7L 4.01172 4.14062L 3.26172 1.28906L 4.21484 1.28906L 5.03125 4.61719C 5.15885 5.15104 5.25 5.6224 5.30469 6.03125C 5.33333 5.8099 5.3763 5.5625 5.43359 5.28906C 5.49089 5.01562 5.54297 4.79427 5.58984 4.625L 6.51953 1.28906L 7.44531 1.28906L 8.39844 4.64062C 8.48958 4.95052 8.58594 5.41406 8.6875 6.03125C 8.72656 5.65885 8.82031 5.1849 8.96875 4.60938L 9.78125 1.28906L 10.7266 1.28906L 9.23828 7Z"/>
<path id="path9_fill" d="M 9.47266 7L 8.39844 7L 6.96875 4.66406L 5.52734 7L 4.52734 7L 6.42188 4.03906L 4.64844 1.28906L 5.6875 1.28906L 7.00781 3.44922L 8.32812 1.28906L 9.33594 1.28906L 7.55078 4.05469L 9.47266 7Z"/>
<path id="path10_fill" d="M 9.07422 3.01562C 9.07422 3.61198 8.87891 4.06901 8.48828 4.38672C 8.09766 4.70443 7.54167 4.86328 6.82031 4.86328L 6.22656 4.86328L 6.22656 7L 5.29297 7L 5.29297 1.28906L 6.9375 1.28906C 7.65104 1.28906 8.1849 1.4349 8.53906 1.72656C 8.89583 2.01823 9.07422 2.44792 9.07422 3.01562ZM 6.22656 4.07812L 6.72266 4.07812C 7.20182 4.07812 7.55339 3.99479 7.77734 3.82812C 8.0013 3.66146 8.11328 3.40104 8.11328 3.04688C 8.11328 2.71875 8.01302 2.47396 7.8125 2.3125C 7.61198 2.15104 7.29948 2.07031 6.875 2.07031L 6.22656 2.07031L 6.22656 4.07812Z"/>
<path id="path11_fill" d="M 0 18.6366L 11.6667 9.31828L 0 0L 0 18.6366Z"/>
<path id="path12_stroke" d="M 0 1L 18.6667 1L 18.6667 -1L 0 -1L 0 1Z"/>
<path id="path13_fill" d="M 23.3333 0L 4.66667 0C 2.1 0 0 2.1 0 4.66667L 0 42C 0 44.5667 2.1 46.6667 4.66667 46.6667L 32.6667 46.6667C 35.2333 46.6667 37.3333 44.5667 37.3333 42L 37.3333 14L 23.3333 0ZM 15.1667 23.5667L 12.8333 23.5667L 12.8333 26.6L 15.1667 26.6L 15.1667 28.9333L 12.8333 28.9333L 12.8333 31.9667L 15.1667 31.9667L 15.1667 34.3L 12.8333 34.3L 12.8333 37.3333L 15.1667 37.3333L 15.1667 39.6667L 12.8333 39.6667L 12.8333 43.1667L 10.5 43.1667L 10.5 39.6667L 8.16667 39.6667L 8.16667 37.3333L 10.5 37.3333L 10.5 34.3L 8.16667 34.3L 8.16667 31.9667L 10.5 31.9667L 10.5 28.9333L 8.16667 28.9333L 8.16667 26.6L 10.5 26.6L 10.5 23.5667L 8.16667 23.5667L 8.16667 21.2333L 10.5 21.2333L 10.5 16.3333L 8.16667 16.3333L 8.16667 3.5L 15.1667 3.5L 15.1667 16.3333L 12.8333 16.3333L 12.8333 21.2333L 15.1667 21.2333L 15.1667 23.5667ZM 21 16.3333L 21 3.5L 33.8333 16.3333L 21 16.3333Z"/>
<path id="path14_fill" d="M 2.33333 0L 0 0L 0 8.16667L 2.33333 8.16667L 2.33333 0Z"/>
<path id="path15_fill" d="M 7 0L 7 12.3467C 6.3 11.8808 5.48333 11.6479 4.66667 11.6479C 2.1 11.6479 0 13.7445 0 16.307C 0 18.8695 2.1 20.9661 4.66667 20.9661C 7.23333 20.9661 9.33333 18.8695 9.33333 16.307L 9.33333 4.65914L 14 4.65914L 14 0L 7 0Z"/>
<path id="path16_fill" d="M 40 35.5556L 40 4.44444C 40 2 38 0 35.5556 0L 4.44444 0C 2 0 0 2 0 4.44444L 0 35.5556C 0 38 2 40 4.44444 40L 35.5556 40C 38 40 40 38 40 35.5556ZM 12.2222 23.3333L 17.7778 30L 25.5556 20L 35.5556 33.3333L 4.44444 33.3333L 12.2222 23.3333Z"/>
<path id="path17_fill" d="M 18 3.99355L 18 9.98387C 18 12.1803 19.8 13.9774 22 13.9774L 28 13.9774L 28 35.9419L 4 35.9419L 4 3.99355L 18 3.99355ZM 24 0L 4 0C 1.8 0 0 1.7971 0 3.99355L 0 35.9419C 0 38.1384 1.8 39.9355 4 39.9355L 28 39.9355C 30.2 39.9355 32 38.1384 32 35.9419L 32 7.9871L 24 0ZM 22 9.98387L 22 3.99355L 28 9.98387L 22 9.98387Z"/>
<path id="path18_fill" d="M 0 2C 0 0.895431 0.895431 0 2 0L 24 0L 24 7.9871L 2 7.9871C 0.895431 7.9871 0 7.09167 0 5.9871L 0 2Z"/>
<path id="path19_fill" d="M 3.40137 2.01172C 3.40137 2.45898 3.25488 2.80176 2.96191 3.04004C 2.66895 3.27832 2.25195 3.39746 1.71094 3.39746L 1.26562 3.39746L 1.26562 5L 0.56543 5L 0.56543 0.716797L 1.79883 0.716797C 2.33398 0.716797 2.73437 0.826172 3 1.04492C 3.26758 1.26367 3.40137 1.58594 3.40137 2.01172ZM 1.26562 2.80859L 1.6377 2.80859C 1.99707 2.80859 2.26074 2.74609 2.42871 2.62109C 2.59668 2.49609 2.68066 2.30078 2.68066 2.03516C 2.68066 1.78906 2.60547 1.60547 2.45508 1.48438C 2.30469 1.36328 2.07031 1.30273 1.75195 1.30273L 1.26562 1.30273L 1.26562 2.80859ZM 7.74023 2.81738C 7.74023 3.52441 7.54395 4.06543 7.15137 4.44043C 6.75879 4.81348 6.19336 5 5.45508 5L 4.25684 5L 4.25684 0.716797L 5.58105 0.716797C 6.2627 0.716797 6.79297 0.900391 7.17188 1.26758C 7.55078 1.63477 7.74023 2.15137 7.74023 2.81738ZM 7.00195 2.84082C 7.00195 1.81543 6.52246 1.30273 5.56348 1.30273L 4.95703 1.30273L 4.95703 4.41113L 5.45508 4.41113C 6.48633 4.41113 7.00195 3.8877 7.00195 2.84082ZM 9.35742 5L 8.66309 5L 8.66309 0.716797L 11.0801 0.716797L 11.0801 1.30859L 9.35742 1.30859L 9.35742 2.64746L 10.9717 2.64746L 10.9717 3.24219L 9.35742 3.24219L 9.35742 5Z"/>
<path id="path20_fill" d="M 0 2C 0 0.895431 0.895431 0 2 0L 24 0L 24 8L 2 8C 0.895431 8 0 7.10457 0 6L 0 2Z"/>
<path id="path21_fill" d="M 6.32227 5L 5.89453 3.81055L 4.25684 3.81055L 3.83789 5L 3.09961 5L 4.70215 0.699219L 5.46387 0.699219L 7.06641 5L 6.32227 5ZM 5.70996 3.20703L 5.30859 2.04102C 5.2793 1.96289 5.23828 1.83984 5.18555 1.67188C 5.13477 1.50391 5.09961 1.38086 5.08008 1.30273C 5.02734 1.54297 4.9502 1.80566 4.84863 2.09082L 4.46191 3.20703L 5.70996 3.20703ZM 7.63184 5L 7.63184 0.716797L 8.33203 0.716797L 8.33203 5L 7.63184 5Z"/>
<path id="path22_fill" d="M 3.70312 2.01172C 3.70312 2.45898 3.55664 2.80176 3.26367 3.04004C 2.9707 3.27832 2.55371 3.39746 2.0127 3.39746L 1.56738 3.39746L 1.56738 5L 0.867188 5L 0.867188 0.716797L 2.10059 0.716797C 2.63574 0.716797 3.03613 0.826172 3.30176 1.04492C 3.56934 1.26367 3.70312 1.58594 3.70312 2.01172ZM 1.56738 2.80859L 1.93945 2.80859C 2.29883 2.80859 2.5625 2.74609 2.73047 2.62109C 2.89844 2.49609 2.98242 2.30078 2.98242 2.03516C 2.98242 1.78906 2.90723 1.60547 2.75684 1.48438C 2.60645 1.36328 2.37207 1.30273 2.05371 1.30273L 1.56738 1.30273L 1.56738 2.80859ZM 7.02832 3.83691C 7.02832 4.21777 6.89062 4.5166 6.61523 4.7334C 6.33984 4.9502 5.95996 5.05859 5.47559 5.05859C 4.99121 5.05859 4.59473 4.9834 4.28613 4.83301L 4.28613 4.1709C 4.48145 4.2627 4.68848 4.33496 4.90723 4.3877C 5.12793 4.44043 5.33301 4.4668 5.52246 4.4668C 5.7998 4.4668 6.00391 4.41406 6.13477 4.30859C 6.26758 4.20312 6.33398 4.06152 6.33398 3.88379C 6.33398 3.72363 6.27344 3.58789 6.15234 3.47656C 6.03125 3.36523 5.78125 3.2334 5.40234 3.08105C 5.01172 2.92285 4.73633 2.74219 4.57617 2.53906C 4.41602 2.33594 4.33594 2.0918 4.33594 1.80664C 4.33594 1.44922 4.46289 1.16797 4.7168 0.962891C 4.9707 0.757812 5.31152 0.655273 5.73926 0.655273C 6.14941 0.655273 6.55762 0.745117 6.96387 0.924805L 6.74121 1.49609C 6.36035 1.33594 6.02051 1.25586 5.72168 1.25586C 5.49512 1.25586 5.32324 1.30566 5.20605 1.40527C 5.08887 1.50293 5.03027 1.63281 5.03027 1.79492C 5.03027 1.90625 5.05371 2.00195 5.10059 2.08203C 5.14746 2.16016 5.22461 2.23438 5.33203 2.30469C 5.43945 2.375 5.63281 2.46777 5.91211 2.58301C 6.22656 2.71387 6.45703 2.83594 6.60352 2.94922C 6.75 3.0625 6.85742 3.19043 6.92578 3.33301C 6.99414 3.47559 7.02832 3.64355 7.02832 3.83691ZM 11.3408 2.81738C 11.3408 3.52441 11.1445 4.06543 10.752 4.44043C 10.3594 4.81348 9.79395 5 9.05566 5L 7.85742 5L 7.85742 0.716797L 9.18164 0.716797C 9.86328 0.716797 10.3936 0.900391 10.7725 1.26758C 11.1514 1.63477 11.3408 2.15137 11.3408 2.81738ZM 10.6025 2.84082C 10.6025 1.81543 10.123 1.30273 9.16406 1.30273L 8.55762 1.30273L 8.55762 4.41113L 9.05566 4.41113C 10.0869 4.41113 10.6025 3.8877 10.6025 2.84082Z"/>
<path id="path23_fill" d="M 0 2C 0 0.89543 0.895431 0 2 0L 16 0L 16 15.9742L 2 15.9742C 0.895431 15.9742 0 15.0788 0 13.9742L 0 2Z"/>
<path id="path24_fill" d="M 8.23828 6L 7.22266 6L 6.25391 2.59375C 6.21224 2.44531 6.16016 2.23177 6.09766 1.95312C 6.03516 1.67188 5.9974 1.47656 5.98438 1.36719C 5.95833 1.53385 5.91536 1.75 5.85547 2.01562C 5.79818 2.28125 5.75 2.47917 5.71094 2.60938L 4.76562 6L 3.75 6L 3.01172 3.14062L 2.26172 0.289062L 3.21484 0.289062L 4.03125 3.61719C 4.15885 4.15104 4.25 4.6224 4.30469 5.03125C 4.33333 4.8099 4.3763 4.5625 4.43359 4.28906C 4.49089 4.01562 4.54297 3.79427 4.58984 3.625L 5.51953 0.289062L 6.44531 0.289062L 7.39844 3.64062C 7.48958 3.95052 7.58594 4.41406 7.6875 5.03125C 7.72656 4.65885 7.82031 4.1849 7.96875 3.60938L 8.78125 0.289062L 9.72656 0.289062L 8.23828 6Z"/>
<path id="path25_fill" d="M 8.47266 6L 7.39844 6L 5.96875 3.66406L 4.52734 6L 3.52734 6L 5.42188 3.03906L 3.64844 0.289062L 4.6875 0.289062L 6.00781 2.44922L 7.32812 0.289062L 8.33594 0.289062L 6.55078 3.05469L 8.47266 6Z"/>
<path id="path26_fill" d="M 8.07422 2.01562C 8.07422 2.61198 7.87891 3.06901 7.48828 3.38672C 7.09766 3.70443 6.54167 3.86328 5.82031 3.86328L 5.22656 3.86328L 5.22656 6L 4.29297 6L 4.29297 0.289062L 5.9375 0.289062C 6.65104 0.289062 7.1849 0.434896 7.53906 0.726562C 7.89583 1.01823 8.07422 1.44792 8.07422 2.01562ZM 5.22656 3.07812L 5.72266 3.07812C 6.20182 3.07812 6.55339 2.99479 6.77734 2.82812C 7.0013 2.66146 7.11328 2.40104 7.11328 2.04688C 7.11328 1.71875 7.01302 1.47396 6.8125 1.3125C 6.61198 1.15104 6.29948 1.07031 5.875 1.07031L 5.22656 1.07031L 5.22656 3.07812Z"/>
<path id="path27_fill" d="M 0 15.9742L 10 7.9871L 0 0L 0 15.9742Z"/>
<path id="path28_stroke" d="M 0 1L 16 1L 16 -1L 0 -1L 0 1Z"/>
<path id="path29_fill" d="M 20 0L 4 0C 1.8 0 0 1.8 0 4L 0 36C 0 38.2 1.8 40 4 40L 28 40C 30.2 40 32 38.2 32 36L 32 12L 20 0ZM 13 20.2L 11 20.2L 11 22.8L 13 22.8L 13 24.8L 11 24.8L 11 27.4L 13 27.4L 13 29.4L 11 29.4L 11 32L 13 32L 13 34L 11 34L 11 37L 9 37L 9 34L 7 34L 7 32L 9 32L 9 29.4L 7 29.4L 7 27.4L 9 27.4L 9 24.8L 7 24.8L 7 22.8L 9 22.8L 9 20.2L 7 20.2L 7 18.2L 9 18.2L 9 14L 7 14L 7 3L 13 3L 13 14L 11 14L 11 18.2L 13 18.2L 13 20.2ZM 18 14L 18 3L 29 14L 18 14Z"/>
<path id="path30_fill" d="M 2 0L 0 0L 0 7L 2 7L 2 0Z"/>
<path id="path31_fill" d="M 6 0L 6 10.5829C 5.4 10.1835 4.7 9.98387 4 9.98387C 1.8 9.98387 0 11.781 0 13.9774C 0 16.1739 1.8 17.971 4 17.971C 6.2 17.971 8 16.1739 8 13.9774L 8 3.99355L 12 3.99355L 12 0L 6 0Z"/>
<path id="path32_fill" d="M 26.6667 23.7037L 26.6667 2.96296C 26.6667 1.33333 25.3333 0 23.7037 0L 2.96296 0C 1.33333 0 0 1.33333 0 2.96296L 0 23.7037C 0 25.3333 1.33333 26.6667 2.96296 26.6667L 23.7037 26.6667C 25.3333 26.6667 26.6667 25.3333 26.6667 23.7037ZM 8.14815 15.5556L 11.8519 20L 17.037 13.3333L 23.7037 22.2222L 2.96296 22.2222L 8.14815 15.5556Z"/>
<path id="path33_fill" d="M 12 2.66237L 12 6.65591C 12 8.12021 13.2 9.31828 14.6667 9.31828L 18.6667 9.31828L 18.6667 23.9613L 2.66667 23.9613L 2.66667 2.66237L 12 2.66237ZM 16 0L 2.66667 0C 1.2 0 0 1.19806 0 2.66237L 0 23.9613C 0 25.4256 1.2 26.6237 2.66667 26.6237L 18.6667 26.6237C 20.1333 26.6237 21.3333 25.4256 21.3333 23.9613L 21.3333 5.32473L 16 0ZM 14.6667 6.65591L 14.6667 2.66237L 18.6667 6.65591L 14.6667 6.65591Z"/>
<path id="path34_fill" d="M 0 10.6495L 6.66667 5.32473L 0 0L 0 10.6495Z"/>
<path id="path35_stroke" d="M 0 1L 10.6667 1L 10.6667 -1L 0 -1L 0 1Z"/>
<path id="path36_fill" d="M 13.3333 0L 2.66667 0C 1.2 0 0 1.2 0 2.66667L 0 24C 0 25.4667 1.2 26.6667 2.66667 26.6667L 18.6667 26.6667C 20.1333 26.6667 21.3333 25.4667 21.3333 24L 21.3333 8L 13.3333 0ZM 8.66667 13.4667L 7.33333 13.4667L 7.33333 15.2L 8.66667 15.2L 8.66667 16.5333L 7.33333 16.5333L 7.33333 18.2667L 8.66667 18.2667L 8.66667 19.6L 7.33333 19.6L 7.33333 21.3333L 8.66667 21.3333L 8.66667 22.6667L 7.33333 22.6667L 7.33333 24.6667L 6 24.6667L 6 22.6667L 4.66667 22.6667L 4.66667 21.3333L 6 21.3333L 6 19.6L 4.66667 19.6L 4.66667 18.2667L 6 18.2667L 6 16.5333L 4.66667 16.5333L 4.66667 15.2L 6 15.2L 6 13.4667L 4.66667 13.4667L 4.66667 12.1333L 6 12.1333L 6 9.33333L 4.66667 9.33333L 4.66667 2L 8.66667 2L 8.66667 9.33333L 7.33333 9.33333L 7.33333 12.1333L 8.66667 12.1333L 8.66667 13.4667ZM 12 9.33333L 12 2L 19.3333 9.33333L 12 9.33333Z"/>
<path id="path37_fill" d="M 1.33333 0L 0 0L 0 4.66667L 1.33333 4.66667L 1.33333 0Z"/>
<path id="path38_fill" d="M 4 0L 4 7.05527C 3.6 6.78903 3.13333 6.65591 2.66667 6.65591C 1.2 6.65591 0 7.85398 0 9.31828C 0 10.7826 1.2 11.9806 2.66667 11.9806C 4.13333 11.9806 5.33333 10.7826 5.33333 9.31828L 5.33333 2.66237L 8 2.66237L 8 0L 4 0Z"/>
<path id="path39_fill" d="M 12 2.66667L 12 6.66667C 12 8.13333 13.2 9.33333 14.6667 9.33333L 18.6667 9.33333L 18.6667 24L 2.66667 24L 2.66667 2.66667L 12 2.66667ZM 16 0L 2.66667 0C 1.2 0 0 1.2 0 2.66667L 0 24C 0 25.4667 1.2 26.6667 2.66667 26.6667L 18.6667 26.6667C 20.1333 26.6667 21.3333 25.4667 21.3333 24L 21.3333 5.33333L 16 0ZM 14.6667 6.66667L 14.6667 2.66667L 18.6667 6.66667L 14.6667 6.66667Z"/>
<path id="path40_fill" d="M 0 2C 0 0.895431 0.895431 0 2 0L 16 0L 16 8L 2 8C 0.895431 8 0 7.10457 0 6L 0 2Z"/>
<path id="path41_fill" d="M 4.00488 2.01172C 4.00488 2.45898 3.8584 2.80176 3.56543 3.04004C 3.27246 3.27832 2.85547 3.39746 2.31445 3.39746L 1.86914 3.39746L 1.86914 5L 1.16895 5L 1.16895 0.716797L 2.40234 0.716797C 2.9375 0.716797 3.33789 0.826172 3.60352 1.04492C 3.87109 1.26367 4.00488 1.58594 4.00488 2.01172ZM 1.86914 2.80859L 2.24121 2.80859C 2.60059 2.80859 2.86426 2.74609 3.03223 2.62109C 3.2002 2.49609 3.28418 2.30078 3.28418 2.03516C 3.28418 1.78906 3.20898 1.60547 3.05859 1.48438C 2.9082 1.36328 2.67383 1.30273 2.35547 1.30273L 1.86914 1.30273L 1.86914 2.80859ZM 7.33008 3.83691C 7.33008 4.21777 7.19238 4.5166 6.91699 4.7334C 6.6416 4.9502 6.26172 5.05859 5.77734 5.05859C 5.29297 5.05859 4.89648 4.9834 4.58789 4.83301L 4.58789 4.1709C 4.7832 4.2627 4.99023 4.33496 5.20898 4.3877C 5.42969 4.44043 5.63477 4.4668 5.82422 4.4668C 6.10156 4.4668 6.30566 4.41406 6.43652 4.30859C 6.56934 4.20312 6.63574 4.06152 6.63574 3.88379C 6.63574 3.72363 6.5752 3.58789 6.4541 3.47656C 6.33301 3.36523 6.08301 3.2334 5.7041 3.08105C 5.31348 2.92285 5.03809 2.74219 4.87793 2.53906C 4.71777 2.33594 4.6377 2.0918 4.6377 1.80664C 4.6377 1.44922 4.76465 1.16797 5.01855 0.962891C 5.27246 0.757812 5.61328 0.655273 6.04102 0.655273C 6.45117 0.655273 6.85937 0.745117 7.26562 0.924805L 7.04297 1.49609C 6.66211 1.33594 6.32227 1.25586 6.02344 1.25586C 5.79688 1.25586 5.625 1.30566 5.50781 1.40527C 5.39062 1.50293 5.33203 1.63281 5.33203 1.79492C 5.33203 1.90625 5.35547 2.00195 5.40234 2.08203C 5.44922 2.16016 5.52637 2.23438 5.63379 2.30469C 5.74121 2.375 5.93457 2.46777 6.21387 2.58301C 6.52832 2.71387 6.75879 2.83594 6.90527 2.94922C 7.05176 3.0625 7.15918 3.19043 7.22754 3.33301C 7.2959 3.47559 7.33008 3.64355 7.33008 3.83691ZM 11.6426 2.81738C 11.6426 3.52441 11.4463 4.06543 11.0537 4.44043C 10.6611 4.81348 10.0957 5 9.35742 5L 8.15918 5L 8.15918 0.716797L 9.4834 0.716797C 10.165 0.716797 10.6953 0.900391 11.0742 1.26758C 11.4531 1.63477 11.6426 2.15137 11.6426 2.81738ZM 10.9043 2.84082C 10.9043 1.81543 10.4248 1.30273 9.46582 1.30273L 8.85938 1.30273L 8.85938 4.41113L 9.35742 4.41113C 10.3887 4.41113 10.9043 3.8877 10.9043 2.84082Z"/>
<path id="path42_fill" d="M 0 2C 0 0.895431 0.895431 0 2 0L 12 0L 12 12L 2 12C 0.895431 12 0 11.1046 0 10L 0 2Z"/>
<path id="path43_fill" d="M 6.73828 5L 5.72266 5L 4.75391 1.59375C 4.71224 1.44531 4.66016 1.23177 4.59766 0.953125C 4.53516 0.671875 4.4974 0.476562 4.48438 0.367188C 4.45833 0.533854 4.41536 0.75 4.35547 1.01562C 4.29818 1.28125 4.25 1.47917 4.21094 1.60938L 3.26562 5L 2.25 5L 1.51172 2.14062L 0.761719 -0.710938L 1.71484 -0.710938L 2.53125 2.61719C 2.65885 3.15104 2.75 3.6224 2.80469 4.03125C 2.83333 3.8099 2.8763 3.5625 2.93359 3.28906C 2.99089 3.01562 3.04297 2.79427 3.08984 2.625L 4.01953 -0.710938L 4.94531 -0.710938L 5.89844 2.64062C 5.98958 2.95052 6.08594 3.41406 6.1875 4.03125C 6.22656 3.65885 6.32031 3.1849 6.46875 2.60938L 7.28125 -0.710938L 8.22656 -0.710938L 6.73828 5Z"/>
<path id="path44_fill" d="M 9.42188 5L 8.99414 3.81055L 7.35645 3.81055L 6.9375 5L 6.19922 5L 7.80176 0.699219L 8.56348 0.699219L 10.166 5L 9.42188 5ZM 8.80957 3.20703L 8.4082 2.04102C 8.37891 1.96289 8.33789 1.83984 8.28516 1.67188C 8.23438 1.50391 8.19922 1.38086 8.17969 1.30273C 8.12695 1.54297 8.0498 1.80566 7.94824 2.09082L 7.56152 3.20703L 8.80957 3.20703ZM 10.7314 5L 10.7314 0.716797L 11.4316 0.716797L 11.4316 5L 10.7314 5Z"/>
<path id="path45_fill" d="M 4.11035 2.01172C 4.11035 2.45898 3.96387 2.80176 3.6709 3.04004C 3.37793 3.27832 2.96094 3.39746 2.41992 3.39746L 1.97461 3.39746L 1.97461 5L 1.27441 5L 1.27441 0.716797L 2.50781 0.716797C 3.04297 0.716797 3.44336 0.826172 3.70898 1.04492C 3.97656 1.26367 4.11035 1.58594 4.11035 2.01172ZM 1.97461 2.80859L 2.34668 2.80859C 2.70605 2.80859 2.96973 2.74609 3.1377 2.62109C 3.30566 2.49609 3.38965 2.30078 3.38965 2.03516C 3.38965 1.78906 3.31445 1.60547 3.16406 1.48438C 3.01367 1.36328 2.7793 1.30273 2.46094 1.30273L 1.97461 1.30273L 1.97461 2.80859ZM 8.44922 2.81738C 8.44922 3.52441 8.25293 4.06543 7.86035 4.44043C 7.46777 4.81348 6.90234 5 6.16406 5L 4.96582 5L 4.96582 0.716797L 6.29004 0.716797C 6.97168 0.716797 7.50195 0.900391 7.88086 1.26758C 8.25977 1.63477 8.44922 2.15137 8.44922 2.81738ZM 7.71094 2.84082C 7.71094 1.81543 7.23145 1.30273 6.27246 1.30273L 5.66602 1.30273L 5.66602 4.41113L 6.16406 4.41113C 7.19531 4.41113 7.71094 3.8877 7.71094 2.84082ZM 10.0664 5L 9.37207 5L 9.37207 0.716797L 11.7891 0.716797L 11.7891 1.30859L 10.0664 1.30859L 10.0664 2.64746L 11.6807 2.64746L 11.6807 3.24219L 10.0664 3.24219L 10.0664 5Z"/>
<path id="path46_fill" d="M 6.97266 5L 5.89844 5L 4.46875 2.66406L 3.02734 5L 2.02734 5L 3.92188 2.03906L 2.14844 -0.710938L 3.1875 -0.710938L 4.50781 1.44922L 5.82812 -0.710938L 6.83594 -0.710938L 5.05078 2.05469L 6.97266 5Z"/>
<path id="path47_fill" d="M 6.57422 1.01562C 6.57422 1.61198 6.37891 2.06901 5.98828 2.38672C 5.59766 2.70443 5.04167 2.86328 4.32031 2.86328L 3.72656 2.86328L 3.72656 5L 2.79297 5L 2.79297 -0.710938L 4.4375 -0.710938C 5.15104 -0.710938 5.6849 -0.565104 6.03906 -0.273438C 6.39583 0.018229 6.57422 0.447917 6.57422 1.01562ZM 3.72656 2.07812L 4.22266 2.07812C 4.70182 2.07812 5.05339 1.99479 5.27734 1.82812C 5.5013 1.66146 5.61328 1.40104 5.61328 1.04688C 5.61328 0.71875 5.51302 0.473958 5.3125 0.3125C 5.11198 0.151042 4.79948 0.0703125 4.375 0.0703125L 3.72656 0.0703125L 3.72656 2.07812Z"/>
<path id="path48_fill" d="M 19.2464 13.1802L 2.55072 0L 4.42284e-07 30.2913L 16.9275 44.1652L 19.2464 13.1802Z"/>
<path id="path49_fill" d="M 8.57971 4.62462L 6.49275 27.5165L 17.3913 36.3033L 16.6957 44.1652L 2.21142e-07 30.0601L 2.55072 5.51298e-08L 8.57971 4.62462Z"/>
<path id="path50_fill" d="M 8.81159 4.85585L 6.72464 27.5165L 17.3913 36.5345L 16.9275 44.1652L 0 30.2913L 2.78261 -2.20519e-07L 8.81159 4.85585Z"/>
<path id="path51_fill" d="M 4.66667 37.3333L 4.66667 0L 0 0L 0 37.3333C 0 39.9 2.1 42 4.66667 42L 25.6667 42L 32.6667 42L 32.6667 37.3333L 4.66667 37.3333Z"/>
<path id="path52_fill" d="M 12.3667 4.9L 12.3667 12.1333C 12.3667 14.7 14.4667 17.0333 17.2667 17.0333L 24.5 17.0333L 24.5 32.9L 5.13333 32.9L 5.13333 4.9L 12.3667 4.9ZM 19.6 0L 4.9 0C 2.33333 0 0 2.1 0 4.9L 0 32.6667C 0 35.2333 2.1 37.5667 4.9 37.5667L 24.2667 37.5667C 26.8333 37.5667 29.1667 35.4667 29.1667 32.6667L 29.1667 9.56667L 19.6 0ZM 17.0333 11.9L 17.0333 4.9L 24.2667 12.1333L 17.0333 11.9Z"/>
<path id="path53_fill" d="M 16.4969 11.2973L 2.18633 0L 3.791e-07 25.964L 14.5093 37.8559L 16.4969 11.2973Z"/>
<path id="path54_fill" d="M 7.35404 3.96396L 5.56522 23.5856L 14.9068 31.1171L 14.3106 37.8559L 1.8955e-07 25.7658L 2.18634 4.72541e-08L 7.35404 3.96396Z"/>
<path id="path55_fill" d="M 7.55279 4.16216L 5.76398 23.5856L 14.9068 31.3153L 14.5093 37.8559L 0 25.964L 2.38509 -1.89017e-07L 7.55279 4.16216Z"/>
<path id="path56_fill" d="M 4 32L 4 0L 0 0L 0 32C 0 34.2 1.8 36 4 36L 22 36L 28 36L 28 32L 4 32Z"/>
<path id="path57_fill" d="M 10.6 4.2L 10.6 10.4C 10.6 12.6 12.4 14.6 14.8 14.6L 21 14.6L 21 28.2L 4.4 28.2L 4.4 4.2L 10.6 4.2ZM 16.8 0L 4.2 0C 2 0 0 1.8 0 4.2L 0 28C 0 30.2 1.8 32.2 4.2 32.2L 20.8 32.2C 23 32.2 25 30.4 25 28L 25 8.2L 16.8 0ZM 14.6 10.2L 14.6 4.2L 20.8 10.4L 14.6 10.2Z"/>
<path id="path58_fill" d="M 4 0C 1.8 0 0 1.7971 0 3.99355L 0 35.9419C 0 38.1384 1.8 39.9355 4 39.9355L 28 39.9355C 30.2 39.9355 32 38.1384 32 35.9419L 32 11.9806L 20 0L 4 0ZM 18 13.9774L 18 2.99516L 29 13.9774L 18 13.9774Z"/>
<path id="path59_fill" d="M 10.9979 7.53153L 1.45756 0L 2.52734e-07 17.3093L 9.67288 25.2372L 10.9979 7.53153Z"/>
<path id="path60_fill" d="M 4.90269 2.64264L 3.71014 15.7237L 9.93789 20.7447L 9.54037 25.2372L 1.26367e-07 17.1772L 1.45756 3.15028e-08L 4.90269 2.64264Z"/>
<path id="path61_fill" d="M 5.0352 2.77477L 3.84265 15.7237L 9.93789 20.8769L 9.67288 25.2372L 0 17.3093L 1.59006 -1.26011e-07L 5.0352 2.77477Z"/>
<path id="path62_fill" d="M 2.66667 21.3333L 2.66667 0L 0 0L 0 21.3333C 0 22.8 1.2 24 2.66667 24L 14.6667 24L 18.6667 24L 18.6667 21.3333L 2.66667 21.3333Z"/>
<path id="path63_fill" d="M 7.06667 2.8L 7.06667 6.93333C 7.06667 8.4 8.26667 9.73333 9.86667 9.73333L 14 9.73333L 14 18.8L 2.93333 18.8L 2.93333 2.8L 7.06667 2.8ZM 11.2 0L 2.8 0C 1.33333 0 0 1.2 0 2.8L 0 18.6667C 0 20.1333 1.2 21.4667 2.8 21.4667L 13.8667 21.4667C 15.3333 21.4667 16.6667 20.2667 16.6667 18.6667L 16.6667 5.46667L 11.2 0ZM 9.73333 6.8L 9.73333 2.8L 13.8667 6.93333L 9.73333 6.8Z"/>
<path id="path64_fill" d="M 2.66667 0C 1.2 0 0 1.19806 0 2.66237L 0 23.9613C 0 25.4256 1.2 26.6237 2.66667 26.6237L 18.6667 26.6237C 20.1333 26.6237 21.3333 25.4256 21.3333 23.9613L 21.3333 7.9871L 13.3333 0L 2.66667 0ZM 12 9.31828L 12 1.99677L 19.3333 9.31828L 12 9.31828Z"/>
<path id="path65_fill" d="M 4.66667 0C 2.1 0 0 2.09661 0 4.65914L 0 41.9323C 0 44.4948 2.1 46.5914 4.66667 46.5914L 32.6667 46.5914C 35.2333 46.5914 37.3333 44.4948 37.3333 41.9323L 37.3333 13.9774L 23.3333 0L 4.66667 0ZM 21 16.307L 21 3.49435L 33.8333 16.307L 21 16.307Z"/>
<path id="path66_fill" d="M 20 17.7778L 20 2.22222C 20 1 19 0 17.7778 0L 2.22222 0C 1 0 0 1 0 2.22222L 0 17.7778C 0 19 1 20 2.22222 20L 17.7778 20C 19 20 20 19 20 17.7778ZM 6.11111 11.6667L 8.88889 15L 12.7778 10L 17.7778 16.6667L 2.22222 16.6667L 6.11111 11.6667Z"/>
<path id="path67_fill" d="M 6.67744 0L 6.67744 11.7778C 6.00969 11.3333 5.23066 11.1111 4.45162 11.1111C 2.00323 11.1111 0 13.1111 0 15.5556C 0 18 2.00323 20 4.45162 20C 6.90002 20 8.90325 18 8.90325 15.5556L 8.90325 4.44444L 13.3549 4.44444L 13.3549 0L 6.67744 0Z"/>
<path id="path68_fill" d="M 18.1818 0L 1.81818 0C 0.818182 0 0 1 0 2.22222L 0 17.7778C 0 19 0.818182 20 1.81818 20L 18.1818 20C 19.1818 20 20 19 20 17.7778L 20 2.22222C 20 1 19.1818 0 18.1818 0ZM 18.1818 17L 1.81818 17L 1.81818 3L 18.1818 3L 18.1818 17Z"/>
<path id="path69_fill" d="M 7.5 15.125L 13.75 10.133L 7.5 5.14111L 7.5 15.125Z"/>
<path id="path70_fill" d="M 9 2L 9 5C 9 6.1 9.9 7 11 7L 14 7L 14 18L 2 18L 2 2L 9 2ZM 12 0L 2 0C 0.9 0 0 0.9 0 2L 0 18C 0 19.1 0.9 20 2 20L 14 20C 15.1 20 16 19.1 16 18L 16 4L 12 0ZM 11 5L 11 2L 14 5L 11 5Z"/>
<path id="path71_fill" d="M 3.75586 1.01172C 3.75586 1.45898 3.60938 1.80176 3.31641 2.04004C 3.02344 2.27832 2.60645 2.39746 2.06543 2.39746L 1.62012 2.39746L 1.62012 4L 0.919922 4L 0.919922 -0.283203L 2.15332 -0.283203C 2.68848 -0.283203 3.08887 -0.173828 3.35449 0.0449219C 3.62207 0.263672 3.75586 0.585937 3.75586 1.01172ZM 1.62012 1.80859L 1.99219 1.80859C 2.35156 1.80859 2.61523 1.74609 2.7832 1.62109C 2.95117 1.49609 3.03516 1.30078 3.03516 1.03516C 3.03516 0.789062 2.95996 0.605469 2.80957 0.484375C 2.65918 0.363281 2.4248 0.302734 2.10645 0.302734L 1.62012 0.302734L 1.62012 1.80859ZM 8.09473 1.81738C 8.09473 2.52441 7.89844 3.06543 7.50586 3.44043C 7.11328 3.81348 6.54785 4 5.80957 4L 4.61133 4L 4.61133 -0.283203L 5.93555 -0.283203C 6.61719 -0.283203 7.14746 -0.0996095 7.52637 0.267578C 7.90527 0.634766 8.09473 1.15137 8.09473 1.81738ZM 7.35645 1.84082C 7.35645 0.81543 6.87695 0.302734 5.91797 0.302734L 5.31152 0.302734L 5.31152 3.41113L 5.80957 3.41113C 6.84082 3.41113 7.35645 2.8877 7.35645 1.84082ZM 9.71191 4L 9.01758 4L 9.01758 -0.283203L 11.4346 -0.283203L 11.4346 0.308594L 9.71191 0.308594L 9.71191 1.64746L 11.3262 1.64746L 11.3262 2.24219L 9.71191 2.24219L 9.71191 4Z"/>
<path id="path72_fill" d="M 6.32227 4L 5.89453 2.81055L 4.25684 2.81055L 3.83789 4L 3.09961 4L 4.70215 -0.300781L 5.46387 -0.300781L 7.06641 4L 6.32227 4ZM 5.70996 2.20703L 5.30859 1.04102C 5.2793 0.962891 5.23828 0.839844 5.18555 0.671875C 5.13477 0.503906 5.09961 0.380859 5.08008 0.302734C 5.02734 0.542969 4.9502 0.805664 4.84863 1.09082L 4.46191 2.20703L 5.70996 2.20703ZM 7.63184 4L 7.63184 -0.283203L 8.33203 -0.283203L 8.33203 4L 7.63184 4Z"/>
<path id="path73_fill" d="M 3.70312 1.01172C 3.70312 1.45898 3.55664 1.80176 3.26367 2.04004C 2.9707 2.27832 2.55371 2.39746 2.0127 2.39746L 1.56738 2.39746L 1.56738 4L 0.867188 4L 0.867188 -0.283203L 2.10059 -0.283203C 2.63574 -0.283203 3.03613 -0.173828 3.30176 0.0449219C 3.56934 0.263672 3.70312 0.585937 3.70312 1.01172ZM 1.56738 1.80859L 1.93945 1.80859C 2.29883 1.80859 2.5625 1.74609 2.73047 1.62109C 2.89844 1.49609 2.98242 1.30078 2.98242 1.03516C 2.98242 0.789062 2.90723 0.605469 2.75684 0.484375C 2.60645 0.363281 2.37207 0.302734 2.05371 0.302734L 1.56738 0.302734L 1.56738 1.80859ZM 7.02832 2.83691C 7.02832 3.21777 6.89062 3.5166 6.61523 3.7334C 6.33984 3.9502 5.95996 4.05859 5.47559 4.05859C 4.99121 4.05859 4.59473 3.9834 4.28613 3.83301L 4.28613 3.1709C 4.48145 3.2627 4.68848 3.33496 4.90723 3.3877C 5.12793 3.44043 5.33301 3.4668 5.52246 3.4668C 5.7998 3.4668 6.00391 3.41406 6.13477 3.30859C 6.26758 3.20312 6.33398 3.06152 6.33398 2.88379C 6.33398 2.72363 6.27344 2.58789 6.15234 2.47656C 6.03125 2.36523 5.78125 2.2334 5.40234 2.08105C 5.01172 1.92285 4.73633 1.74219 4.57617 1.53906C 4.41602 1.33594 4.33594 1.0918 4.33594 0.806641C 4.33594 0.449219 4.46289 0.167969 4.7168 -0.0371094C 4.9707 -0.242188 5.31152 -0.344727 5.73926 -0.344727C 6.14941 -0.344727 6.55762 -0.254883 6.96387 -0.0751953L 6.74121 0.496094C 6.36035 0.335938 6.02051 0.255859 5.72168 0.255859C 5.49512 0.255859 5.32324 0.305664 5.20605 0.405273C 5.08887 0.50293 5.03027 0.632812 5.03027 0.794922C 5.03027 0.90625 5.05371 1.00195 5.10059 1.08203C 5.14746 1.16016 5.22461 1.23438 5.33203 1.30469C 5.43945 1.375 5.63281 1.46777 5.91211 1.58301C 6.22656 1.71387 6.45703 1.83594 6.60352 1.94922C 6.75 2.0625 6.85742 2.19043 6.92578 2.33301C 6.99414 2.47559 7.02832 2.64355 7.02832 2.83691ZM 11.3408 1.81738C 11.3408 2.52441 11.1445 3.06543 10.752 3.44043C 10.3594 3.81348 9.79395 4 9.05566 4L 7.85742 4L 7.85742 -0.283203L 9.18164 -0.283203C 9.86328 -0.283203 10.3936 -0.0996095 10.7725 0.267578C 11.1514 0.634766 11.3408 1.15137 11.3408 1.81738ZM 10.6025 1.84082C 10.6025 0.81543 10.123 0.302734 9.16406 0.302734L 8.55762 0.302734L 8.55762 3.41113L 9.05566 3.41113C 10.0869 3.41113 10.6025 2.8877 10.6025 1.84082Z"/>
<path id="path74_fill" d="M 0 2C 0 0.895431 0.895431 0 2 0L 9 0L 9 9L 2 9C 0.895431 9 0 8.10457 0 7L 0 2Z"/>
<path id="path75_fill" d="M 5.3335 4L 4.44482 4L 3.59717 1.01953C 3.56071 0.889648 3.51514 0.702799 3.46045 0.458984C 3.40576 0.212891 3.37272 0.0419922 3.36133 -0.0537109C 3.33854 0.0921223 3.30094 0.28125 3.24854 0.513672C 3.1984 0.746094 3.15625 0.919271 3.12207 1.0332L 2.29492 4L 1.40625 4L 0.760254 1.49805L 0.104004 -0.99707L 0.937988 -0.99707L 1.65234 1.91504C 1.764 2.38216 1.84375 2.7946 1.8916 3.15234C 1.91667 2.95866 1.95426 2.74219 2.00439 2.50293C 2.05452 2.26367 2.1001 2.06999 2.14111 1.92188L 2.95459 -0.99707L 3.76465 -0.99707L 4.59863 1.93555C 4.67839 2.20671 4.7627 2.6123 4.85156 3.15234C 4.88574 2.8265 4.96777 2.41178 5.09766 1.9082L 5.80859 -0.99707L 6.63574 -0.99707L 5.3335 4Z"/>
<path id="path76_fill" d="M 5.53857 4L 4.59863 4L 3.34766 1.95605L 2.08643 4L 1.21143 4L 2.86914 1.40918L 1.31738 -0.99707L 2.22656 -0.99707L 3.38184 0.893066L 4.53711 -0.99707L 5.41895 -0.99707L 3.85693 1.42285L 5.53857 4Z"/>
<path id="path77_fill" d="M 5.18994 0.513672C 5.18994 1.03548 5.01904 1.43538 4.67725 1.71338C 4.33545 1.99137 3.84896 2.13037 3.21777 2.13037L 2.69824 2.13037L 2.69824 4L 1.88135 4L 1.88135 -0.99707L 3.32031 -0.99707C 3.94466 -0.99707 4.41178 -0.869466 4.72168 -0.614258C 5.03385 -0.35905 5.18994 0.0169269 5.18994 0.513672ZM 2.69824 1.44336L 3.13232 1.44336C 3.5516 1.44336 3.85921 1.37044 4.05518 1.22461C 4.25114 1.07878 4.34912 0.850912 4.34912 0.541016C 4.34912 0.253906 4.26139 0.0397137 4.08594 -0.101562C 3.91048 -0.242839 3.63704 -0.313477 3.26562 -0.313477L 2.69824 -0.313477L 2.69824 1.44336Z"/>
<path id="path78_fill" d="M 9 1.99677L 9 4.99194C 9 6.09016 9.9 6.98871 11 6.98871L 14 6.98871L 14 17.971L 2 17.971L 2 1.99677L 9 1.99677ZM 12 0L 2 0C 0.9 0 0 0.898548 0 1.99677L 0 17.971C 0 19.0692 0.9 19.9677 2 19.9677L 14 19.9677C 15.1 19.9677 16 19.0692 16 17.971L 16 3.99355L 12 0ZM 11 4.99194L 11 1.99677L 14 4.99194L 11 4.99194Z"/>
<path id="path79_stroke" d="M 0 1L 8 1L 8 -1L 0 -1L 0 1Z"/>
<path id="path80_fill" d="M 10 0L 2 0C 0.9 0 0 0.9 0 2L 0 18C 0 19.1 0.9 20 2 20L 14 20C 15.1 20 16 19.1 16 18L 16 6L 10 0ZM 6.5 10.1L 5.5 10.1L 5.5 11.4L 6.5 11.4L 6.5 12.4L 5.5 12.4L 5.5 13.7L 6.5 13.7L 6.5 14.7L 5.5 14.7L 5.5 16L 6.5 16L 6.5 17L 5.5 17L 5.5 18.5L 4.5 18.5L 4.5 17L 3.5 17L 3.5 16L 4.5 16L 4.5 14.7L 3.5 14.7L 3.5 13.7L 4.5 13.7L 4.5 12.4L 3.5 12.4L 3.5 11.4L 4.5 11.4L 4.5 10.1L 3.5 10.1L 3.5 9.1L 4.5 9.1L 4.5 7L 3.5 7L 3.5 1.5L 6.5 1.5L 6.5 7L 5.5 7L 5.5 9.1L 6.5 9.1L 6.5 10.1ZM 9 7L 9 1.5L 14.5 7L 9 7Z"/>
<path id="path81_fill" d="M 1 0L 0 0L 0 3.5L 1 3.5L 1 0Z"/>
<path id="path82_fill" d="M 2 0C 0.9 0 0 0.898548 0 1.99677L 0 17.971C 0 19.0692 0.9 19.9677 2 19.9677L 14 19.9677C 15.1 19.9677 16 19.0692 16 17.971L 16 5.99032L 10 0L 2 0ZM 9 6.98871L 9 1.49758L 14.5 6.98871L 9 6.98871Z"/>
<path id="path83_fill" d="M 8.24845 5.64865L 1.09317 0L 1.8955e-07 12.982L 7.25466 18.9279L 8.24845 5.64865Z"/>
<path id="path84_fill" d="M 3.67702 1.98198L 2.78261 11.7928L 7.45342 15.5586L 7.15528 18.9279L 9.47751e-08 12.8829L 1.09317 2.36271e-08L 3.67702 1.98198Z"/>
<path id="path85_fill" d="M 3.7764 2.08108L 2.88199 11.7928L 7.45342 15.6577L 7.25466 18.9279L 0 12.982L 1.19255 -9.45083e-08L 3.7764 2.08108Z"/>
<path id="path86_fill" d="M 2 16L 2 0L 0 0L 0 16C 0 17.1 0.9 18 2 18L 11 18L 14 18L 14 16L 2 16Z"/>
<path id="path87_fill" d="M 5.3 2.1L 5.3 5.2C 5.3 6.3 6.2 7.3 7.4 7.3L 10.5 7.3L 10.5 14.1L 2.2 14.1L 2.2 2.1L 5.3 2.1ZM 8.4 0L 2.1 0C 1 0 0 0.9 0 2.1L 0 14C 0 15.1 0.9 16.1 2.1 16.1L 10.4 16.1C 11.5 16.1 12.5 15.2 12.5 14L 12.5 4.1L 8.4 0ZM 7.3 5.1L 7.3 2.1L 10.4 5.2L 7.3 5.1Z"/>
</defs>
</svg>
