<?xml version="1.0" encoding="utf-8"?>
<!-- Generator: Adobe Illustrator 22.0.1, SVG Export Plug-In . SVG Version: 6.00 Build 0)  -->
<svg version="1.1" id="Layer_1" xmlns="http://www.w3.org/2000/svg" xmlns:xlink="http://www.w3.org/1999/xlink" x="0px" y="0px"
	 viewBox="0 0 4800 112" style="enable-background:new 0 0 4800 112;" xml:space="preserve">
<style type="text/css">
	.st0{opacity:0.12;}
	.st1{fill:none;}
	.st2{fill:#02CEDB;}
	.st3{fill:#FDC700;}
	.st4{fill:#E90162;}
	.st5{fill:#FFFFFF;}
	.st6{fill:#408CFF;}
	.st7{fill:#004E69;}
</style>
<g class="st0">
	<rect class="st1" width="4800" height="112"/>
	<path id="path0_fill" class="st2" d="M66.4,56.4L51.9,74.8L41.8,62.7L27.6,80.9h57.1L66.4,56.4z"/>
	<path id="path1_fill" d="M92.6,8.3h-73C14,8.3,9.3,13,9.3,18.6v72.6c0,5.8,4.7,10.5,10.3,10.5h72.7c5.6,0,10.3-4.7,10.3-10.3V18.6
		C102.9,13,98.2,8.3,92.6,8.3z M92.6,91.4h-73V18.6h72.7v72.8H92.6z"/>
	<path id="path2_fill" class="st3" d="M51.4,41c0,5.2-4.2,9.3-9.4,9.3c-5.2,0-9.4-4.2-9.4-9.3s4.2-9.3,9.4-9.3
		C47.2,31.7,51.4,35.9,51.4,41z"/>
	<path id="path3_fill" d="M732.7,18.7v14c0,5.1,4.2,9.3,9.3,9.3h14v51.3h-56V18.7H732.7z M746.7,9.3H700c-5.1,0-9.3,4.2-9.3,9.3
		v74.7c0,5.1,4.2,9.3,9.3,9.3h56c5.1,0,9.3-4.2,9.3-9.3V28L746.7,9.3z M742,32.7v-14l14,14H742z"/>
	<path id="path4_fill" class="st4" d="M709.3,64.7c0-2.2,1.8-4,4-4h52V84h-52c-2.2,0-4-1.8-4-4V64.7z"/>
	<path id="path5_fill" class="st5" d="M725.9,71h0.8c0.7,0,1.3-0.1,1.7-0.4c0.4-0.3,0.6-0.7,0.6-1.3c0-0.6-0.2-1-0.5-1.3
		c-0.3-0.3-0.8-0.4-1.5-0.4h-1.1V71z M731.3,69.1c0,1.2-0.4,2.2-1.2,2.8c-0.8,0.7-1.9,1-3.3,1h-1V77h-2.4V65.6h3.6
		c1.4,0,2.4,0.3,3.2,0.9C731,67.1,731.3,68,731.3,69.1z M743,71.2c0,1.9-0.5,3.3-1.6,4.3c-1.1,1-2.6,1.5-4.6,1.5h-3.2V65.6h3.6
		c1.9,0,3.3,0.5,4.3,1.5C742.4,68,743,69.4,743,71.2z M740.4,71.2c0-2.5-1.1-3.7-3.2-3.7h-1.3V75h1C739.3,75,740.4,73.7,740.4,71.2z
		 M747.7,77h-2.4V65.6h6.5v2h-4.2v2.9h3.9v2h-3.9V77z"/>
	<path id="path6_fill" d="M844.7,18.7v14c0,5.1,4.2,9.3,9.3,9.3h14v51.3h-56V18.7H844.7z M858.7,9.3H812c-5.1,0-9.3,4.2-9.3,9.3
		v74.7c0,5.1,4.2,9.3,9.3,9.3h56c5.1,0,9.3-4.2,9.3-9.3V28L858.7,9.3z M854,32.7v-14l14,14H854z"/>
	<path id="path4_fill_1_" class="st3" d="M821.3,64.7c0-2.2,1.8-4,4-4h52V84h-52c-2.2,0-4-1.8-4-4V64.7z"/>
	<path id="path7_fill" class="st5" d="M849.6,79.4l-0.8-2.7h-4.2l-0.8,2.7h-2.6l4-11.5h3l4,11.5H849.6z M848.2,74.7
		c-0.8-2.5-1.2-3.9-1.3-4.2c-0.1-0.3-0.2-0.6-0.2-0.8c-0.2,0.7-0.7,2.3-1.5,4.9H848.2z M853.6,79.4V68h2.4v11.4H853.6z"/>
	<path id="path3_fill_1_" d="M956.7,18.7v14c0,5.1,4.2,9.3,9.3,9.3h14v51.3h-56V18.7H956.7z M970.7,9.3H924c-5.1,0-9.3,4.2-9.3,9.3
		v74.7c0,5.1,4.2,9.3,9.3,9.3h56c5.1,0,9.3-4.2,9.3-9.3V28L970.7,9.3z M966,32.7v-14l14,14H966z"/>
	<path id="path4_fill_2_" class="st6" d="M933.3,64.7c0-2.2,1.8-4,4-4h52V84h-52c-2.2,0-4-1.8-4-4V64.7z"/>
	<path id="path8_fill" class="st5" d="M949.8,73.4h0.8c0.7,0,1.3-0.1,1.7-0.4c0.4-0.3,0.6-0.7,0.6-1.3c0-0.6-0.2-1-0.5-1.3
		c-0.3-0.3-0.8-0.4-1.5-0.4h-1.1V73.4z M955.3,71.6c0,1.2-0.4,2.2-1.2,2.8c-0.8,0.7-1.9,1-3.3,1h-1v4.1h-2.4V68h3.6
		c1.4,0,2.4,0.3,3.2,0.9C954.9,69.5,955.3,70.4,955.3,71.6z M964.2,76.3c0,1-0.4,1.8-1.1,2.4c-0.7,0.6-1.8,0.9-3.1,0.9
		c-1.2,0-2.3-0.2-3.2-0.7v-2.2c0.8,0.3,1.4,0.6,2,0.7c0.5,0.1,1,0.2,1.5,0.2c0.5,0,0.9-0.1,1.2-0.3c0.3-0.2,0.4-0.5,0.4-0.9
		c0-0.2-0.1-0.4-0.2-0.6c-0.1-0.2-0.3-0.3-0.6-0.5c-0.2-0.2-0.7-0.4-1.5-0.8c-0.7-0.3-1.2-0.6-1.6-0.9c-0.3-0.3-0.6-0.7-0.8-1.1
		s-0.3-0.9-0.3-1.4c0-1,0.3-1.8,1-2.4c0.7-0.6,1.6-0.9,2.8-0.9c0.6,0,1.2,0.1,1.7,0.2c0.5,0.1,1.1,0.3,1.7,0.6l-0.8,1.9
		c-0.6-0.2-1.1-0.4-1.5-0.5c-0.4-0.1-0.8-0.1-1.2-0.1c-0.5,0-0.8,0.1-1.1,0.3s-0.4,0.5-0.4,0.8c0,0.2,0,0.4,0.1,0.6
		c0.1,0.2,0.3,0.3,0.5,0.5c0.2,0.1,0.7,0.4,1.5,0.8c1.1,0.5,1.8,1,2.2,1.5C964,74.9,964.2,75.5,964.2,76.3z M975.8,73.6
		c0,1.9-0.5,3.3-1.6,4.3c-1.1,1-2.6,1.5-4.6,1.5h-3.2V68h3.6c1.9,0,3.3,0.5,4.3,1.5C975.2,70.5,975.8,71.8,975.8,73.6z M973.2,73.7
		c0-2.5-1.1-3.7-3.2-3.7h-1.3v7.4h1C972.1,77.4,973.2,76.2,973.2,73.7z"/>
	<path id="path3_fill_2_" d="M1068.7,18.7v14c0,5.1,4.2,9.3,9.3,9.3h14v51.3h-56V18.7H1068.7z M1082.7,9.3H1036
		c-5.1,0-9.3,4.2-9.3,9.3v74.7c0,5.1,4.2,9.3,9.3,9.3h56c5.1,0,9.3-4.2,9.3-9.3V28L1082.7,9.3z M1078,32.7v-14l14,14H1078z"/>
	<path id="path9_fill" class="st7" d="M1064,61.2c0,2.2-1.8,4-4,4h-33.3V28h33.3c2.2,0,4,1.8,4,4V61.2z"/>
	<path id="path10_fill" class="st5" d="M1050.8,53.6h-3.1l-1.7-6.8c-0.1-0.2-0.2-0.7-0.3-1.5c-0.2-0.8-0.2-1.3-0.3-1.5
		c0,0.3-0.1,0.8-0.3,1.5c-0.1,0.7-0.2,1.2-0.3,1.5l-1.7,6.7h-3.1l-3.3-12.8h2.7l1.6,7c0.3,1.3,0.5,2.4,0.6,3.4
		c0-0.3,0.1-0.8,0.2-1.5c0.1-0.7,0.2-1.2,0.4-1.6l1.9-7.2h2.6l1.9,7.2c0.1,0.3,0.2,0.8,0.3,1.5c0.1,0.7,0.2,1.2,0.3,1.7
		c0.1-0.5,0.2-1,0.3-1.7c0.1-0.7,0.2-1.2,0.4-1.7l1.6-7h2.7L1050.8,53.6z"/>
	<path id="path3_fill_3_" d="M1180.7,18.7v14c0,5.1,4.2,9.3,9.3,9.3h14v51.3h-56V18.7H1180.7z M1194.7,9.3H1148
		c-5.1,0-9.3,4.2-9.3,9.3v74.7c0,5.1,4.2,9.3,9.3,9.3h56c5.1,0,9.3-4.2,9.3-9.3V28L1194.7,9.3z M1190,32.7v-14l14,14H1190z"/>
	<path id="path9_fill_1_" class="st2" d="M1176,61.2c0,2.2-1.8,4-4,4h-33.3V28h33.3c2.2,0,4,1.8,4,4V61.2z"/>
	<path id="path11_fill" class="st5" d="M1163.3,53.6h-3.1l-3-4.9l-3,4.9h-2.9l4.3-6.6l-4-6.2h3l2.8,4.6l2.7-4.6h2.9l-4,6.4
		L1163.3,53.6z"/>
	<path id="path3_fill_4_" d="M1292.7,18.7v14c0,5.1,4.2,9.3,9.3,9.3h14v51.3h-56V18.7H1292.7z M1306.7,9.3H1260
		c-5.1,0-9.3,4.2-9.3,9.3v74.7c0,5.1,4.2,9.3,9.3,9.3h56c5.1,0,9.3-4.2,9.3-9.3V28L1306.7,9.3z M1302,32.7v-14l14,14H1302z"/>
	<path id="path9_fill_2_" class="st3" d="M1288,61.2c0,2.2-1.8,4-4,4h-33.3V28h33.3c2.2,0,4,1.8,4,4V61.2z"/>
	<path id="path12_fill" class="st5" d="M1268,46.8h0.9c0.8,0,1.5-0.2,1.9-0.5c0.4-0.3,0.6-0.8,0.6-1.5c0-0.6-0.2-1.1-0.5-1.4
		c-0.3-0.3-0.9-0.5-1.6-0.5h-1.2V46.8z M1274.2,44.8c0,1.4-0.4,2.4-1.3,3.2c-0.9,0.7-2.1,1.1-3.7,1.1h-1.2v4.6h-2.7V40.8h4.1
		c1.6,0,2.7,0.3,3.6,1C1273.8,42.4,1274.2,43.4,1274.2,44.8z"/>
	<path id="path3_fill_5_" d="M396.7,18.7v14c0,5.1,4.2,9.3,9.3,9.3h14v51.3h-56V18.7H396.7z M410.7,9.3H364c-5.1,0-9.3,4.2-9.3,9.3
		v74.7c0,5.1,4.2,9.3,9.3,9.3h56c5.1,0,9.3-4.2,9.3-9.3V28L410.7,9.3z M406,32.7v-14l14,14H406z"/>
	<path id="path3_fill_6_" d="M284.7,18.7v14c0,5.1,4.2,9.3,9.3,9.3h14v51.3h-56V18.7H284.7z M298.7,9.3H252c-5.1,0-9.3,4.2-9.3,9.3
		v74.7c0,5.1,4.2,9.3,9.3,9.3h56c5.1,0,9.3-4.2,9.3-9.3V28L298.7,9.3z M294,32.7v-14l14,14H294z"/>
	<path id="path13_fill" d="M268.3,83.9l23.3-18.6l-23.3-18.6V83.9z"/>
	<path id="path3_fill_7_" d="M508.7,18.7v14c0,5.1,4.2,9.3,9.3,9.3h14v51.3h-56V18.7H508.7z M522.7,9.3H476c-5.1,0-9.3,4.2-9.3,9.3
		v74.7c0,5.1,4.2,9.3,9.3,9.3h56c5.1,0,9.3-4.2,9.3-9.3V28L522.7,9.3z M518,32.7v-14l14,14H518z"/>
	<path id="path14_fill" d="M522.7,56h-37.3v-4.7h37.3V56z"/>
	<path id="path15_fill" d="M522.7,70h-37.3v-4.7h37.3V70z"/>
	<path id="path15_fill_1_" d="M522.7,84h-37.3v-4.7h37.3V84z"/>
	<path id="path16_fill" d="M625.3,9.3H588c-5.1,0-9.3,4.2-9.3,9.3v74.7c0,5.1,4.2,9.3,9.3,9.3h56c5.1,0,9.3-4.2,9.3-9.3v-56
		L625.3,9.3z M609,56.5h-4.7v6.1h4.7v4.7h-4.7v6.1h4.7v4.7h-4.7V84h4.7v4.7h-4.7v7h-4.7v-7H595V84h4.7v-6.1H595v-4.7h4.7v-6.1H595
		v-4.7h4.7v-6.1H595v-4.7h4.7V42H595V16.3h14V42h-4.7v9.8h4.7V56.5z M620.7,42V16.3L646.3,42H620.7z"/>
	<path id="path17_fill" d="M604.3,21h-4.7v16.3h4.7V21z"/>
	<path id="path3_fill_8_" d="M172.7,18.7v14c0,5.1,4.2,9.3,9.3,9.3h14v51.3h-56V18.7H172.7z M186.7,9.3H140c-5.1,0-9.3,4.2-9.3,9.3
		v74.7c0,5.1,4.2,9.3,9.3,9.3h56c5.1,0,9.3-4.2,9.3-9.3V28L186.7,9.3z M182,32.7v-14l14,14H182z"/>
	<path id="path18_fill" d="M161,41.9v24.7c-1.4-0.9-3-1.4-4.7-1.4c-5.1,0-9.3,4.2-9.3,9.3s4.2,9.3,9.3,9.3c5.1,0,9.3-4.2,9.3-9.3
		V51.3h9.3v-9.3H161z"/>
	<path id="path19_fill" class="st2" d="M1736.9,48.4l-12.4,15.8l-8.6-10.4l-12.2,15.6h48.9L1736.9,48.4z"/>
	<path id="path20_fill" d="M1759.4,7.2h-62.6c-4.8,0-8.8,4-8.8,8.8v62.2c0,5,4,9,8.8,9h62.4c4.8,0,8.8-4,8.8-8.8V16
		C1768.2,11.2,1764.2,7.2,1759.4,7.2z M1759.4,78.4h-62.6V16h62.4v62.4H1759.4z"/>
	<path id="path21_fill" class="st3" d="M1724.1,35.2c0,4.4-3.6,8-8,8s-8-3.6-8-8s3.6-8,8-8S1724.1,30.7,1724.1,35.2z"/>
	<path id="path22_fill" d="M2308,16v12c0,4.4,3.6,8,8,8h12v44h-48V16H2308z M2320,8h-40c-4.4,0-8,3.6-8,8v64c0,4.4,3.6,8,8,8h48
		c4.4,0,8-3.6,8-8V24L2320,8z M2316,28V16l12,12H2316z"/>
	<path id="path23_fill" class="st4" d="M2288,56c0-2.2,1.8-4,4-4h44v20h-44c-2.2,0-4-1.8-4-4V56z"/>
	<path id="path24_fill" class="st5" d="M2300.5,62h0.8c0.7,0,1.3-0.1,1.7-0.4c0.4-0.3,0.6-0.7,0.6-1.3c0-0.6-0.2-1-0.5-1.3
		c-0.3-0.3-0.8-0.4-1.5-0.4h-1.1V62z M2306,60.1c0,1.2-0.4,2.2-1.2,2.8c-0.8,0.7-1.9,1-3.3,1h-1V68h-2.4V56.6h3.6
		c1.4,0,2.4,0.3,3.2,0.9C2305.6,58.1,2306,59,2306,60.1z M2317.6,62.2c0,1.9-0.5,3.3-1.6,4.3c-1.1,1-2.6,1.5-4.6,1.5h-3.2V56.6h3.6
		c1.9,0,3.3,0.5,4.3,1.5C2317.1,59,2317.6,60.4,2317.6,62.2z M2315.1,62.2c0-2.5-1.1-3.7-3.2-3.7h-1.3V66h1
		C2313.9,66,2315.1,64.7,2315.1,62.2z M2322.4,68h-2.4V56.6h6.5v2h-4.2v2.9h3.9v2h-3.9V68z"/>
	<path id="path25_fill" d="M2404,16v12c0,4.4,3.6,8,8,8h12v44h-48V16H2404z M2416,8h-40c-4.4,0-8,3.6-8,8v64c0,4.4,3.6,8,8,8h48
		c4.4,0,8-3.6,8-8V24L2416,8z M2412,28V16l12,12H2412z"/>
	<path id="path23_fill_1_" class="st3" d="M2384,56c0-2.2,1.8-4,4-4h44v20h-44c-2.2,0-4-1.8-4-4V56z"/>
	<path id="path26_fill" class="st5" d="M2408.3,68.1l-0.8-2.7h-4.2l-0.8,2.7h-2.6l4-11.5h3l4,11.5H2408.3z M2406.9,63.3
		c-0.8-2.5-1.2-3.9-1.3-4.2c-0.1-0.3-0.2-0.6-0.2-0.8c-0.2,0.7-0.7,2.3-1.5,4.9H2406.9z M2412.3,68.1V56.7h2.4v11.4H2412.3z"/>
	<path id="path22_fill_1_" d="M2500,16v12c0,4.4,3.6,8,8,8h12v44h-48V16H2500z M2512,8h-40c-4.4,0-8,3.6-8,8v64c0,4.4,3.6,8,8,8h48
		c4.4,0,8-3.6,8-8V24L2512,8z M2508,28V16l12,12H2508z"/>
	<path id="path23_fill_2_" class="st6" d="M2480,56c0-2.2,1.8-4,4-4h44v20h-44c-2.2,0-4-1.8-4-4V56z"/>
	<path id="path27_fill" class="st5" d="M2492.5,62h0.8c0.7,0,1.3-0.1,1.7-0.4c0.4-0.3,0.6-0.7,0.6-1.3c0-0.6-0.2-1-0.5-1.3
		c-0.3-0.3-0.8-0.4-1.5-0.4h-1.1V62z M2498,60.2c0,1.2-0.4,2.2-1.2,2.8c-0.8,0.7-1.9,1-3.3,1h-1v4.1h-2.4V56.7h3.6
		c1.4,0,2.4,0.3,3.2,0.9C2497.6,58.1,2498,59,2498,60.2z M2506.9,64.9c0,1-0.4,1.8-1.1,2.4c-0.7,0.6-1.8,0.9-3.1,0.9
		c-1.2,0-2.3-0.2-3.2-0.7v-2.2c0.8,0.3,1.4,0.6,2,0.7c0.5,0.1,1,0.2,1.5,0.2c0.5,0,0.9-0.1,1.2-0.3c0.3-0.2,0.4-0.5,0.4-0.9
		c0-0.2-0.1-0.4-0.2-0.6c-0.1-0.2-0.3-0.3-0.6-0.5c-0.2-0.2-0.7-0.4-1.5-0.8c-0.7-0.3-1.2-0.6-1.6-0.9s-0.6-0.7-0.8-1.1
		c-0.2-0.4-0.3-0.9-0.3-1.4c0-1,0.3-1.8,1-2.4c0.7-0.6,1.6-0.9,2.8-0.9c0.6,0,1.2,0.1,1.7,0.2c0.5,0.1,1.1,0.3,1.7,0.6l-0.8,1.9
		c-0.6-0.2-1.1-0.4-1.5-0.5c-0.4-0.1-0.8-0.1-1.2-0.1c-0.5,0-0.8,0.1-1.1,0.3c-0.2,0.2-0.4,0.5-0.4,0.8c0,0.2,0,0.4,0.1,0.6
		c0.1,0.2,0.3,0.3,0.5,0.5c0.2,0.1,0.7,0.4,1.5,0.8c1.1,0.5,1.8,1,2.2,1.5C2506.7,63.5,2506.9,64.2,2506.9,64.9z M2518.4,62.3
		c0,1.9-0.5,3.3-1.6,4.3c-1.1,1-2.6,1.5-4.6,1.5h-3.2V56.7h3.6c1.9,0,3.3,0.5,4.3,1.5C2517.9,59.1,2518.4,60.5,2518.4,62.3z
		 M2515.9,62.3c0-2.5-1.1-3.7-3.2-3.7h-1.3v7.4h1C2514.7,66.1,2515.9,64.8,2515.9,62.3z"/>
	<path id="path22_fill_2_" d="M2596,16v12c0,4.4,3.6,8,8,8h12v44h-48V16H2596z M2608,8h-40c-4.4,0-8,3.6-8,8v64c0,4.4,3.6,8,8,8h48
		c4.4,0,8-3.6,8-8V24L2608,8z M2604,28V16l12,12H2604z"/>
	<path id="path28_fill" class="st7" d="M2592,51.9c0,2.2-1.8,4-4,4h-28V24h28c2.2,0,4,1.8,4,4V51.9z"/>
	<path id="path29_fill" class="st5" d="M2581.4,46h-3.1l-1.7-6.8c-0.1-0.2-0.2-0.7-0.3-1.5c-0.2-0.8-0.2-1.3-0.3-1.5
		c0,0.3-0.1,0.8-0.3,1.5c-0.1,0.7-0.2,1.2-0.3,1.5l-1.7,6.7h-3.1l-3.3-12.8h2.7l1.6,7c0.3,1.3,0.5,2.4,0.6,3.4
		c0-0.3,0.1-0.8,0.2-1.5c0.1-0.7,0.2-1.2,0.4-1.6l1.9-7.2h2.6l1.9,7.2c0.1,0.3,0.2,0.8,0.3,1.5c0.1,0.7,0.2,1.2,0.3,1.7
		c0.1-0.5,0.2-1,0.3-1.7c0.1-0.7,0.2-1.2,0.4-1.7l1.6-7h2.7L2581.4,46z"/>
	<path id="path22_fill_3_" d="M2692,16v12c0,4.4,3.6,8,8,8h12v44h-48V16H2692z M2704,8h-40c-4.4,0-8,3.6-8,8v64c0,4.4,3.6,8,8,8h48
		c4.4,0,8-3.6,8-8V24L2704,8z M2700,28V16l12,12H2700z"/>
	<path id="path28_fill_1_" class="st2" d="M2688,51.9c0,2.2-1.8,4-4,4h-28V24h28c2.2,0,4,1.8,4,4V51.9z"/>
	<path id="path30_fill" class="st5" d="M2678,46h-3.1l-3-4.9l-3,4.9h-2.9l4.3-6.6l-4-6.2h3l2.8,4.6l2.7-4.6h2.9l-4,6.4L2678,46z"/>
	<path id="path22_fill_4_" d="M2788,16v12c0,4.4,3.6,8,8,8h12v44h-48V16H2788z M2800,8h-40c-4.4,0-8,3.6-8,8v64c0,4.4,3.6,8,8,8h48
		c4.4,0,8-3.6,8-8V24L2800,8z M2796,28V16l12,12H2796z"/>
	<path id="path28_fill_2_" class="st3" d="M2784,51.9c0,2.2-1.8,4-4,4h-28V24h28c2.2,0,4,1.8,4,4V51.9z"/>
	<path id="path31_fill" class="st5" d="M2766.7,39.2h0.9c0.8,0,1.5-0.2,1.9-0.5c0.4-0.3,0.6-0.8,0.6-1.5c0-0.6-0.2-1.1-0.5-1.4
		c-0.3-0.3-0.9-0.5-1.6-0.5h-1.2V39.2z M2772.8,37.1c0,1.4-0.4,2.4-1.3,3.2c-0.9,0.7-2.1,1.1-3.7,1.1h-1.2V46h-2.7V33.1h4.1
		c1.6,0,2.7,0.3,3.6,1C2772.4,34.8,2772.8,35.8,2772.8,37.1z"/>
	<path id="path22_fill_5_" d="M2020,16v12c0,4.4,3.6,8,8,8h12v44h-48V16H2020z M2032,8h-40c-4.4,0-8,3.6-8,8v64c0,4.4,3.6,8,8,8h48
		c4.4,0,8-3.6,8-8V24L2032,8z M2028,28V16l12,12H2028z"/>
	<path id="path22_fill_6_" d="M1924,16v12c0,4.4,3.6,8,8,8h12v44h-48V16H1924z M1936,8h-40c-4.4,0-8,3.6-8,8v64c0,4.4,3.6,8,8,8h48
		c4.4,0,8-3.6,8-8V24L1936,8z M1932,28V16l12,12H1932z"/>
	<path id="path32_fill" d="M1910,71.9l20-16l-20-16V71.9z"/>
	<path id="path22_fill_7_" d="M2116,16v12c0,4.4,3.6,8,8,8h12v44h-48V16H2116z M2128,8h-40c-4.4,0-8,3.6-8,8v64c0,4.4,3.6,8,8,8h48
		c4.4,0,8-3.6,8-8V24L2128,8z M2124,28V16l12,12H2124z"/>
	<path id="path33_fill" d="M2128,48h-32v-4h32V48z"/>
	<path id="path33_fill_1_" d="M2128,60h-32v-4h32V60z"/>
	<path id="path33_fill_2_" d="M2128,72h-32v-4h32V72z"/>
	<path id="path34_fill" d="M2216,8h-32c-4.4,0-8,3.6-8,8v64c0,4.4,3.6,8,8,8h48c4.4,0,8-3.6,8-8V32L2216,8z M2202,48.4h-4v5.2h4v4
		h-4v5.2h4v4h-4V72h4v4h-4v6h-4v-6h-4v-4h4v-5.2h-4v-4h4v-5.2h-4v-4h4v-5.2h-4v-4h4V36h-4V14h12v22h-4v8.4h4V48.4z M2212,36V14
		l22,22H2212z"/>
	<path id="path35_fill" d="M2198,18h-4v14h4V18z"/>
	<path id="path22_fill_8_" d="M1828,16v12c0,4.4,3.6,8,8,8h12v44h-48V16H1828z M1840,8h-40c-4.4,0-8,3.6-8,8v64c0,4.4,3.6,8,8,8h48
		c4.4,0,8-3.6,8-8V24L1840,8z M1836,28V16l12,12H1836z"/>
	<path id="path36_fill" d="M1818,36v21.2c-1.2-0.8-2.6-1.2-4-1.2c-4.4,0-8,3.6-8,8c0,4.4,3.6,8,8,8s8-3.6,8-8v-20h8v-8H1818z"/>
	<path id="path37_fill" class="st2" d="M3157.9,32.2l-8.3,10.5l-5.7-6.9l-8.2,10.4h32.6L3157.9,32.2z"/>
	<path id="path38_fill" d="M3172.9,4.8h-41.7c-3.2,0-5.9,2.7-5.9,5.9v41.5c0,3.3,2.7,6,5.9,6h41.6c3.2,0,5.9-2.7,5.9-5.9V10.6
		C3178.8,7.4,3176.1,4.8,3172.9,4.8z M3172.9,52.2h-41.7V10.6h41.6v41.6H3172.9z"/>
	<path id="path39_fill" class="st3" d="M3149.4,23.4c0,2.9-2.4,5.3-5.3,5.3s-5.3-2.4-5.3-5.3s2.4-5.3,5.3-5.3
		S3149.4,20.5,3149.4,23.4z"/>
	<path id="path40_fill" d="M3346.7,10.7v8c0,2.9,2.4,5.3,5.3,5.3h8v29.3h-32V10.7H3346.7z M3354.7,5.3H3328c-2.9,0-5.3,2.4-5.3,5.3
		v42.7c0,2.9,2.4,5.3,5.3,5.3h32c2.9,0,5.3-2.4,5.3-5.3V16L3354.7,5.3z M3352,18.7v-8l8,8H3352z"/>
	<path id="path40_fill_1_" d="M3282.7,10.7v8c0,2.9,2.4,5.3,5.3,5.3h8v29.3h-32V10.7H3282.7z M3290.7,5.3H3264
		c-2.9,0-5.3,2.4-5.3,5.3v42.7c0,2.9,2.4,5.3,5.3,5.3h32c2.9,0,5.3-2.4,5.3-5.3V16L3290.7,5.3z M3288,18.7v-8l8,8H3288z"/>
	<path id="path41_fill" d="M3273.3,47.9l13.3-10.6l-13.3-10.6V47.9z"/>
	<path id="path40_fill_2_" d="M3410.7,10.7v8c0,2.9,2.4,5.3,5.3,5.3h8v29.3h-32V10.7H3410.7z M3418.7,5.3H3392
		c-2.9,0-5.3,2.4-5.3,5.3v42.7c0,2.9,2.4,5.3,5.3,5.3h32c2.9,0,5.3-2.4,5.3-5.3V16L3418.7,5.3z M3416,18.7v-8l8,8H3416z"/>
	<path id="path42_fill" d="M3418.7,32h-21.3v-2.7h21.3V32z"/>
	<path id="path43_fill" d="M3418.7,40h-21.3v-2.7h21.3V40z"/>
	<path id="path43_fill_1_" d="M3418.7,48h-21.3v-2.7h21.3V48z"/>
	<path id="path44_fill" d="M3477.3,5.3H3456c-2.9,0-5.3,2.4-5.3,5.3v42.7c0,2.9,2.4,5.3,5.3,5.3h32c2.9,0,5.3-2.4,5.3-5.3v-32
		L3477.3,5.3z M3468,32.3h-2.7v3.5h2.7v2.7h-2.7v3.5h2.7v2.7h-2.7V48h2.7v2.7h-2.7v4h-2.7v-4h-2.7V48h2.7v-3.5h-2.7v-2.7h2.7v-3.5
		h-2.7v-2.7h2.7v-3.5h-2.7v-2.7h2.7V24h-2.7V9.3h8V24h-2.7v5.6h2.7V32.3z M3474.7,24V9.3l14.7,14.7H3474.7z"/>
	<path id="path45_fill" d="M3465.3,12h-2.7v9.3h2.7V12z"/>
	<path id="path40_fill_3_" d="M3218.7,10.7v8c0,2.9,2.4,5.3,5.3,5.3h8v29.3h-32V10.7H3218.7z M3226.7,5.3H3200
		c-2.9,0-5.3,2.4-5.3,5.3v42.7c0,2.9,2.4,5.3,5.3,5.3h32c2.9,0,5.3-2.4,5.3-5.3V16L3226.7,5.3z M3224,18.7v-8l8,8H3224z"/>
	<path id="path46_fill" d="M3212,24v14.1c-0.8-0.5-1.7-0.8-2.7-0.8c-2.9,0-5.3,2.4-5.3,5.3c0,2.9,2.4,5.3,5.3,5.3s5.3-2.4,5.3-5.3
		V29.3h5.3V24H3212z"/>
	<path id="path47_fill" d="M3666.4,10.6v8.1c0,3,2.4,5.4,5.4,5.4h8.1v29.7h-32.5V10.6H3666.4z M3674.5,5.2h-27.1
		c-3,0-5.4,2.4-5.4,5.4v43.2c0,3,2.4,5.4,5.4,5.4h32.5c3,0,5.4-2.4,5.4-5.4V16L3674.5,5.2z M3671.8,18.7v-8.1l8.1,8.1H3671.8z"/>
	<g transform="translate(619 -54.4247)">
		<path id="path48_fill" class="st6" d="M3652,33.2c0-2.2,1.8-4,4-4h30v20h-30c-2.2,0-4-1.8-4-4V33.2z"/>
	</g>
	<g transform="translate(619 -53.4247)">
		<path id="path49_fill" class="st5" d="M3659.8,39.9h0.7c0.7,0,1.1-0.1,1.5-0.4c0.3-0.3,0.5-0.6,0.5-1.1c0-0.5-0.1-0.9-0.4-1.1
			c-0.3-0.2-0.7-0.4-1.3-0.4h-1V39.9z M3664.6,38.3c0,1.1-0.3,1.9-1,2.5c-0.7,0.6-1.6,0.9-2.9,0.9h-0.9v3.6h-2.1v-10h3.2
			c1.2,0,2.1,0.3,2.8,0.8C3664.3,36.5,3664.6,37.2,3664.6,38.3z M3671.8,42.4c0,0.9-0.3,1.6-1,2.1c-0.6,0.5-1.5,0.8-2.7,0.8
			c-1.1,0-2-0.2-2.8-0.6v-2c0.7,0.3,1.2,0.5,1.7,0.6c0.5,0.1,0.9,0.2,1.3,0.2c0.5,0,0.8-0.1,1.1-0.3c0.3-0.2,0.4-0.4,0.4-0.8
			c0-0.2-0.1-0.4-0.2-0.5c-0.1-0.2-0.3-0.3-0.5-0.4c-0.2-0.1-0.6-0.4-1.3-0.7c-0.6-0.3-1.1-0.6-1.4-0.8c-0.3-0.3-0.5-0.6-0.7-0.9
			c-0.2-0.4-0.3-0.8-0.3-1.2c0-0.9,0.3-1.6,0.9-2.1c0.6-0.5,1.4-0.8,2.5-0.8c0.5,0,1,0.1,1.5,0.2c0.5,0.1,1,0.3,1.5,0.5l-0.7,1.6
			c-0.5-0.2-1-0.4-1.3-0.5c-0.3-0.1-0.7-0.1-1-0.1c-0.4,0-0.7,0.1-0.9,0.3c-0.2,0.2-0.3,0.4-0.3,0.7c0,0.2,0,0.4,0.1,0.5
			c0.1,0.1,0.2,0.3,0.4,0.4c0.2,0.1,0.6,0.4,1.3,0.7c0.9,0.4,1.6,0.9,1.9,1.3C3671.6,41.2,3671.8,41.7,3671.8,42.4z M3681.3,40.1
			c0,1.6-0.5,2.9-1.4,3.8c-0.9,0.9-2.3,1.3-4.1,1.3h-2.8v-10h3.1c1.6,0,2.9,0.4,3.8,1.3C3680.9,37.3,3681.3,38.5,3681.3,40.1z
			 M3679.1,40.1c0-2.1-0.9-3.2-2.8-3.2h-1.1v6.5h0.9C3678.1,43.4,3679.1,42.3,3679.1,40.1z"/>
	</g>
	<path id="path50_fill" d="M3731,10.6v8.1c0,3,2.4,5.4,5.4,5.4h8.1v29.7h-32.5V10.6H3731z M3739.2,5.2h-27.1c-3,0-5.4,2.4-5.4,5.4
		v43.2c0,3,2.4,5.4,5.4,5.4h32.5c3,0,5.4-2.4,5.4-5.4V16L3739.2,5.2z M3736.5,18.7v-8.1l8.1,8.1H3736.5z"/>
	<g transform="matrix(-1 1.22465e-16 -1.22465e-16 -1 658 -44.4247)">
		<path id="path51_fill" class="st7" d="M3730,45.2c0,2.2-1.8,4-4,4h-20v-24h20c2.2,0,4,1.8,4,4V45.2z"/>
	</g>
	<g transform="translate(647.5 -52.6747)">
		<path id="path52_fill" class="st5" d="M3722.8,42.7h-2.8l-1.5-6c-0.1-0.2-0.2-0.7-0.3-1.3c-0.1-0.7-0.2-1.1-0.2-1.4
			c0,0.3-0.1,0.7-0.2,1.4c-0.1,0.6-0.2,1.1-0.3,1.3l-1.5,6h-2.8l-2.9-11.4h2.4l1.5,6.2c0.3,1.2,0.4,2.1,0.6,3c0-0.3,0.1-0.8,0.2-1.4
			c0.1-0.6,0.2-1.1,0.3-1.5l1.7-6.4h2.3l1.7,6.4c0.1,0.3,0.2,0.7,0.3,1.3c0.1,0.6,0.2,1.1,0.2,1.5c0.1-0.4,0.1-0.9,0.2-1.5
			c0.1-0.6,0.2-1.1,0.3-1.5l1.5-6.2h2.4L3722.8,42.7z"/>
	</g>
	<path id="path53_fill" d="M3602.4,10.6v8.1c0,3,2.4,5.4,5.4,5.4h8.1v29.7h-32.5V10.6H3602.4z M3610.5,5.2h-27.1
		c-3,0-5.4,2.4-5.4,5.4v43.2c0,3,2.4,5.4,5.4,5.4h32.5c3,0,5.4-2.4,5.4-5.4V16L3610.5,5.2z M3607.8,18.7v-8.1l8.1,8.1H3607.8z"/>
	<g transform="translate(587 -54.4247)">
		<path id="path48_fill_1_" class="st3" d="M3588,33.2c0-2.2,1.8-4,4-4h30v20h-30c-2.2,0-4-1.8-4-4V33.2z"/>
	</g>
	<g transform="translate(587 -53.4247)">
		<path id="path54_fill" class="st5" d="M3605.2,45.2l-0.7-2.4h-3.6l-0.7,2.4h-2.3l3.5-10h2.6l3.5,10H3605.2z M3604,41
			c-0.7-2.2-1-3.4-1.1-3.7c-0.1-0.3-0.1-0.5-0.2-0.7c-0.2,0.6-0.6,2-1.3,4.3H3604z M3608.8,45.2v-10h2.1v10H3608.8z"/>
	</g>
	<path id="path53_fill_1_" d="M3538.4,10.6v8.1c0,3,2.4,5.4,5.4,5.4h8.1v29.7h-32.5V10.6H3538.4z M3546.5,5.2h-27.1
		c-3,0-5.4,2.4-5.4,5.4v43.2c0,3,2.4,5.4,5.4,5.4h32.5c3,0,5.4-2.4,5.4-5.4V16L3546.5,5.2z M3543.8,18.7v-8.1l8.1,8.1H3543.8z"/>
	<g transform="translate(555 -54.4247)">
		<path id="path48_fill_2_" class="st4" d="M3524,33.2c0-2.2,1.8-4,4-4h30v20h-30c-2.2,0-4-1.8-4-4V33.2z"/>
	</g>
	<g transform="translate(555 -53.4247)">
		<path id="path55_fill" class="st5" d="M3531.8,39.9h0.7c0.7,0,1.1-0.1,1.5-0.4c0.3-0.3,0.5-0.6,0.5-1.1c0-0.5-0.1-0.9-0.4-1.1
			c-0.3-0.2-0.7-0.4-1.3-0.4h-1V39.9z M3536.6,38.3c0,1.1-0.3,1.9-1,2.5c-0.7,0.6-1.6,0.9-2.9,0.9h-0.9v3.6h-2.1v-10h3.2
			c1.2,0,2.1,0.3,2.8,0.8C3536.3,36.5,3536.6,37.2,3536.6,38.3z M3546.2,40.1c0,1.6-0.5,2.9-1.4,3.8c-0.9,0.9-2.3,1.3-4.1,1.3h-2.8
			v-10h3.1c1.6,0,2.9,0.4,3.8,1.3C3545.8,37.3,3546.2,38.5,3546.2,40.1z M3544,40.1c0-2.1-0.9-3.2-2.8-3.2h-1.1v6.5h0.9
			C3543,43.4,3544,42.3,3544,40.1z M3549.8,45.2h-2.1v-10h5.7v1.7h-3.6v2.6h3.4v1.7h-3.4V45.2z"/>
	</g>
	<path id="path50_fill_1_" d="M3795,10.6v8.1c0,3,2.4,5.4,5.4,5.4h8.1v29.7h-32.5V10.6H3795z M3803.2,5.2h-27.1
		c-3,0-5.4,2.4-5.4,5.4v43.2c0,3,2.4,5.4,5.4,5.4h32.5c3,0,5.4-2.4,5.4-5.4V16L3803.2,5.2z M3800.5,18.7v-8.1l8.1,8.1H3800.5z"/>
	<g transform="matrix(-1 1.22465e-16 -1.22465e-16 -1 690 -44.4247)">
		<path id="path51_fill_1_" class="st2" d="M3794,45.2c0,2.2-1.8,4-4,4h-20v-24h20c2.2,0,4,1.8,4,4V45.2z"/>
	</g>
	<g transform="translate(679.5 -52.6747)">
		<path id="path56_fill" class="st5" d="M3787.3,42.7h-2.8l-2.7-4.3l-2.7,4.3h-2.6l3.8-5.9l-3.5-5.5h2.7l2.5,4.1l2.4-4.1h2.6
			l-3.6,5.7L3787.3,42.7z"/>
	</g>
	<path id="path50_fill_2_" d="M3859,10.6v8.1c0,3,2.4,5.4,5.4,5.4h8.1v29.7h-32.5V10.6H3859z M3867.2,5.2h-27.1
		c-3,0-5.4,2.4-5.4,5.4v43.2c0,3,2.4,5.4,5.4,5.4h32.5c3,0,5.4-2.4,5.4-5.4V16L3867.2,5.2z M3864.5,18.7v-8.1l8.1,8.1H3864.5z"/>
	<g transform="matrix(-1 1.22465e-16 -1.22465e-16 -1 722 -44.4247)">
		<path id="path51_fill_2_" class="st3" d="M3858,45.2c0,2.2-1.8,4-4,4h-20v-24h20c2.2,0,4,1.8,4,4V45.2z"/>
	</g>
	<g transform="translate(711.5 -52.6747)">
		<path id="path57_fill" class="st5" d="M3844.8,36.6h0.8c0.7,0,1.3-0.1,1.7-0.4c0.4-0.3,0.6-0.7,0.6-1.3c0-0.6-0.2-1-0.5-1.3
			c-0.3-0.3-0.8-0.4-1.5-0.4h-1.1V36.6z M3850.3,34.8c0,1.2-0.4,2.2-1.2,2.8c-0.8,0.7-1.9,1-3.3,1h-1v4.1h-2.4V31.2h3.6
			c1.4,0,2.4,0.3,3.2,0.9C3849.9,32.7,3850.3,33.6,3850.3,34.8z"/>
	</g>
	<path id="path58_fill" d="M1438.5,29l-34.4-27l-5.3,62l34.9,28.4L1438.5,29z"/>
	<path id="path59_fill" d="M1397.8,19l-4.3,46.8l22.5,18l-1.4,16.1l-34.4-28.9l5.3-61.5L1397.8,19z"/>
	<path id="path60_fill" d="M1379.7,26.6l-4.3,46.4l22,18.4l-1,15.6l-34.9-28.4l5.7-62L1379.7,26.6z"/>
	<path id="path61_fill" d="M1482.8,94.1V18.5h-9.3v75.6c0,5.2,4.2,9.4,9.3,9.4h42h14v-9.4H1482.8z"/>
	<path id="path62_fill" d="M1516.9,18.9v14.6c0,5.2,4.2,9.9,9.8,9.9h14.5v32.1h-38.7V18.9H1516.9z M1531.4,9H1502
		c-5.1,0-9.8,4.3-9.8,9.9v56.2c0,5.2,4.2,9.9,9.8,9.9h38.7c5.1,0,9.8-4.3,9.8-9.9V28.4L1531.4,9z M1526.2,33.6V18.9l13.8,14.6
		H1526.2z"/>
	<path id="path63_fill" d="M2913,24.8l-29.5-23.1l-4.5,53.1l29.9,24.3L2913,24.8z"/>
	<path id="path64_fill" d="M2878.2,16.3l-3.7,40.1l19.3,15.4l-1.2,13.8L2863,60.9l4.5-52.7L2878.2,16.3z"/>
	<path id="path65_fill" d="M2862.6,22.8l-3.7,39.7l18.9,15.8l-0.8,13.4L2847,67.4l4.9-53.1L2862.6,22.8z"/>
	<path id="path66_fill" d="M2951,80.6V15.8h-8v64.8c0,4.5,3.6,8.1,8,8.1h36h12v-8.1H2951z"/>
	<path id="path67_fill" d="M2980.2,16.2v12.6c0,4.5,3.6,8.5,8.4,8.5h12.4v27.5h-33.2V16.2H2980.2z M2992.6,7.7h-25.2
		c-4.4,0-8.4,3.6-8.4,8.5v48.2c0,4.5,3.6,8.5,8.4,8.5h33.2c4.4,0,8.4-3.6,8.4-8.5V24.3L2992.6,7.7z M2988.2,28.8V16.2l11.8,12.6
		H2988.2z"/>
	<path id="path68_fill" d="M3048,8c-4.4,0-8,3.6-8,8v63.9c0,4.4,3.6,8,8,8h48c4.4,0,8-3.6,8-8V32l-24-24H3048z M3076,36V14l22,22
		H3076z"/>
	<path id="path69_fill" d="M3942,16.6l-19.7-15.4l-3,35.4l20,16.2L3942,16.6z"/>
	<path id="path70_fill" d="M3918.8,10.9l-2.5,26.8l12.8,10.3l-0.8,9.2l-19.7-16.5l3-35.1L3918.8,10.9z"/>
	<path id="path71_fill" d="M3908.4,15.2l-2.5,26.5l12.6,10.5l-0.5,8.9l-20-16.2l3.3-35.4L3908.4,15.2z"/>
	<path id="path72_fill" d="M3967.3,53.8V10.6h-5.3v43.2c0,3,2.4,5.4,5.3,5.4h24h8v-5.4H3967.3z"/>
	<path id="path73_fill" d="M3986.8,10.8v8.4c0,3,2.4,5.7,5.6,5.7h8.3v18.4h-22.1V10.8H3986.8z M3995.1,5.2h-16.8
		c-2.9,0-5.6,2.4-5.6,5.7V43c0,3,2.4,5.7,5.6,5.7h22.1c2.9,0,5.6-2.4,5.6-5.7V16.2L3995.1,5.2z M3992.1,19.2v-8.4l7.9,8.4H3992.1z"
		/>
	<path id="path74_fill" d="M4032,5.3c-2.9,0-5.3,2.4-5.3,5.3v42.6c0,2.9,2.4,5.3,5.3,5.3h32c2.9,0,5.3-2.4,5.3-5.3V21.3l-16-16H4032
		z M4050.7,24V9.3l14.7,14.6H4050.7z"/>
	<path id="path75_fill" d="M1595.1,9c-5.3,0-9.6,4.3-9.6,9.5v75.6c0,5.2,4.3,9.4,9.6,9.4h57.8c5.3,0,9.6-4.3,9.6-9.4V37.4L1633.6,9
		H1595.1z M1628.8,42.1v-26l26.5,26H1628.8z"/>
	<g transform="translate(838.909 -56.9125)">
		<path id="path76_fill" class="st2" d="M4108.5,24.2l-6.2,7.9l-4.3-5.2l-6.1,7.8h24.5L4108.5,24.2z"/>
	</g>
	<g transform="translate(835 -67.2124)">
		<path id="path77_fill" d="M4119.7,3.6h-31.3c-2.4,0-4.4,2-4.4,4.4v31.1c0,2.5,2,4.5,4.4,4.5h31.2c2.4,0,4.4-2,4.4-4.4V8
			C4124.1,5.6,4122.1,3.6,4119.7,3.6z M4119.7,39.2h-31.3V8h31.2v31.2H4119.7z"/>
	</g>
	<g transform="translate(840.012 -62.2122)">
		<path id="path78_fill" class="st3" d="M4102,17.6c0,2.2-1.8,4-4,4s-4-1.8-4-4c0-2.2,1.8-4,4-4S4102,15.4,4102,17.6z"/>
	</g>
	<path id="path79_fill" d="M4151.4,4v23.6c-1.3-0.9-2.9-1.3-4.5-1.3c-4.9,0-8.9,4-8.9,8.9c0,4.9,4,8.9,8.9,8.9c4.9,0,8.9-4,8.9-8.9
		V12.9h8.9V4H4151.4z"/>
	<path id="path80_fill" d="M4216.4,4h-32.7c-2,0-3.6,2-3.6,4.4v31.1c0,2.4,1.6,4.4,3.6,4.4h32.7c2,0,3.6-2,3.6-4.4V8.4
		C4220,6,4218.4,4,4216.4,4z M4216.4,38h-32.7V10h32.7V38z"/>
	<path id="path81_fill" d="M4195,34.2l12.5-10l-12.5-10V34.2z"/>
	<path id="path82_fill" d="M4394,8v6c0,2.2,1.8,4,4,4h6v22h-24V8H4394z M4400,4h-20c-2.2,0-4,1.8-4,4v32c0,2.2,1.8,4,4,4h24
		c2.2,0,4-1.8,4-4V12L4400,4z M4398,14V8l6,6H4398z"/>
	<path id="path83_fill" class="st4" d="M4384.1,29.5h0.6c0.6,0,1-0.1,1.3-0.3c0.3-0.2,0.4-0.5,0.4-1c0-0.4-0.1-0.7-0.4-0.9
		c-0.2-0.2-0.6-0.3-1.1-0.3h-0.8V29.5z M4388.2,28.1c0,0.9-0.3,1.6-0.9,2.1c-0.6,0.5-1.4,0.7-2.5,0.7h-0.8v3h-1.8v-8.6h2.7
		c1,0,1.8,0.2,2.4,0.7C4387.9,26.6,4388.2,27.2,4388.2,28.1z M4396.5,29.6c0,1.4-0.4,2.5-1.2,3.2c-0.8,0.8-2,1.1-3.5,1.1h-2.4v-8.6
		h2.7c1.4,0,2.5,0.4,3.3,1.1S4396.5,28.3,4396.5,29.6z M4394.6,29.7c0-1.8-0.8-2.8-2.4-2.8h-1v5.6h0.8
		C4393.7,32.5,4394.6,31.6,4394.6,29.7z M4399.5,34h-1.8v-8.6h4.9v1.5h-3.1v2.2h2.9v1.5h-2.9V34z"/>
	<path id="path82_fill_1_" d="M4442,8v6c0,2.2,1.8,4,4,4h6v22h-24V8H4442z M4448,4h-20c-2.2,0-4,1.8-4,4v32c0,2.2,1.8,4,4,4h24
		c2.2,0,4-1.8,4-4V12L4448,4z M4446,14V8l6,6H4446z"/>
	<path id="path84_fill" class="st3" d="M4440.2,34l-0.6-2h-3.1l-0.6,2h-2l3-8.6h2.2l3,8.6H4440.2z M4439.1,30.4
		c-0.6-1.8-0.9-2.9-1-3.1c-0.1-0.2-0.1-0.4-0.2-0.6c-0.1,0.5-0.5,1.7-1.1,3.7H4439.1z M4443.2,34v-8.6h1.8V34H4443.2z"/>
	<path id="path82_fill_2_" d="M4490,8v6c0,2.2,1.8,4,4,4h6v22h-24V8H4490z M4496,4h-20c-2.2,0-4,1.8-4,4v32c0,2.2,1.8,4,4,4h24
		c2.2,0,4-1.8,4-4V12L4496,4z M4494,14V8l6,6H4494z"/>
	<path id="path85_fill" class="st6" d="M4480.1,29.5h0.6c0.6,0,1-0.1,1.3-0.3c0.3-0.2,0.4-0.5,0.4-1c0-0.4-0.1-0.7-0.4-0.9
		c-0.2-0.2-0.6-0.3-1.1-0.3h-0.8V29.5z M4484.2,28.1c0,0.9-0.3,1.6-0.9,2.1c-0.6,0.5-1.4,0.7-2.5,0.7h-0.8v3h-1.8v-8.6h2.7
		c1,0,1.8,0.2,2.4,0.7C4483.9,26.6,4484.2,27.2,4484.2,28.1z M4490.4,31.6c0,0.8-0.3,1.4-0.8,1.8c-0.6,0.4-1.3,0.7-2.3,0.7
		c-0.9,0-1.7-0.2-2.4-0.5v-1.7c0.6,0.3,1.1,0.4,1.5,0.5c0.4,0.1,0.8,0.2,1.1,0.2c0.4,0,0.7-0.1,0.9-0.2c0.2-0.2,0.3-0.4,0.3-0.7
		c0-0.2,0-0.3-0.1-0.4c-0.1-0.1-0.2-0.3-0.4-0.4c-0.2-0.1-0.5-0.3-1.1-0.6c-0.5-0.2-0.9-0.5-1.2-0.7c-0.3-0.2-0.5-0.5-0.6-0.8
		s-0.2-0.7-0.2-1.1c0-0.8,0.3-1.4,0.8-1.8c0.5-0.4,1.2-0.7,2.1-0.7c0.4,0,0.9,0.1,1.3,0.2c0.4,0.1,0.8,0.3,1.3,0.4l-0.6,1.4
		c-0.5-0.2-0.8-0.3-1.1-0.4c-0.3-0.1-0.6-0.1-0.9-0.1c-0.3,0-0.6,0.1-0.8,0.2s-0.3,0.4-0.3,0.6c0,0.2,0,0.3,0.1,0.4
		c0.1,0.1,0.2,0.2,0.4,0.3c0.2,0.1,0.5,0.3,1.2,0.6c0.8,0.4,1.3,0.8,1.6,1.2C4490.2,30.6,4490.4,31.1,4490.4,31.6z M4498.6,29.6
		c0,1.4-0.4,2.5-1.2,3.2c-0.8,0.8-2,1.1-3.5,1.1h-2.4v-8.6h2.7c1.4,0,2.5,0.4,3.3,1.1S4498.6,28.3,4498.6,29.6z M4496.7,29.7
		c0-1.8-0.8-2.8-2.4-2.8h-1v5.6h0.8C4495.8,32.5,4496.7,31.6,4496.7,29.7z"/>
	<path id="path82_fill_3_" d="M4538,8v6c0,2.2,1.8,4,4,4h6v22h-24V8H4538z M4544,4h-20c-2.2,0-4,1.8-4,4v32c0,2.2,1.8,4,4,4h24
		c2.2,0,4-1.8,4-4V12L4544,4z M4542,14V8l6,6H4542z"/>
	<path id="path86_fill" class="st7" d="M4537.5,33c0,2.2-1.8,4-4,4h-14V19h14c2.2,0,4,1.8,4,4V33z"/>
	<path id="path87_fill" class="st5" d="M4532.7,32.6h-2.4l-1.4-5.2c0-0.2-0.1-0.6-0.3-1.2c-0.1-0.6-0.2-1-0.2-1.2
		c0,0.2-0.1,0.6-0.2,1.2c-0.1,0.5-0.2,0.9-0.3,1.2l-1.3,5.2h-2.4l-2.5-10h2.1l1.3,5.5c0.2,1,0.4,1.9,0.5,2.6c0-0.3,0.1-0.7,0.2-1.2
		c0.1-0.5,0.2-1,0.3-1.3l1.5-5.6h2l1.5,5.6c0.1,0.3,0.1,0.6,0.2,1.1c0.1,0.5,0.2,1,0.2,1.3c0-0.4,0.1-0.8,0.2-1.3
		c0.1-0.5,0.2-1,0.3-1.3l1.3-5.5h2.1L4532.7,32.6z"/>
	<path id="path82_fill_4_" d="M4586,8v6c0,2.2,1.8,4,4,4h6v22h-24V8H4586z M4592,4h-20c-2.2,0-4,1.8-4,4v32c0,2.2,1.8,4,4,4h24
		c2.2,0,4-1.8,4-4V12L4592,4z M4590,14V8l6,6H4590z"/>
	<path id="path86_fill_1_" class="st2" d="M4585.5,33c0,2.2-1.8,4-4,4h-14V19h14c2.2,0,4,1.8,4,4V33z"/>
	<path id="path88_fill" class="st5" d="M4581.2,32.6h-2.4l-2.3-3.8l-2.3,3.8h-2.3l3.3-5.2l-3.1-4.8h2.3l2.2,3.6l2.1-3.6h2.3l-3.1,5
		L4581.2,32.6z"/>
	<path id="path82_fill_5_" d="M4634,8v6c0,2.2,1.8,4,4,4h6v22h-24V8H4634z M4640,4h-20c-2.2,0-4,1.8-4,4v32c0,2.2,1.8,4,4,4h24
		c2.2,0,4-1.8,4-4V12L4640,4z M4638,14V8l6,6H4638z"/>
	<path id="path86_fill_2_" class="st3" d="M4633.5,33c0,2.2-1.8,4-4,4h-14V19h14c2.2,0,4,1.8,4,4V33z"/>
	<path id="path89_fill" class="st5" d="M4623.5,27.4h0.7c0.7,0,1.1-0.1,1.5-0.4c0.3-0.3,0.5-0.6,0.5-1.1c0-0.5-0.1-0.9-0.4-1.1
		c-0.3-0.2-0.7-0.4-1.3-0.4h-1V27.4z M4628.3,25.8c0,1.1-0.3,1.9-1,2.5c-0.7,0.6-1.6,0.9-2.9,0.9h-0.9v3.6h-2.1v-10h3.2
		c1.2,0,2.1,0.3,2.8,0.8C4628,24,4628.3,24.7,4628.3,25.8z"/>
	<path id="path82_fill_6_" d="M4250,8v6c0,2.2,1.8,4,4,4h6v22h-24V8H4250z M4256,4h-20c-2.2,0-4,1.8-4,4v32c0,2.2,1.8,4,4,4h24
		c2.2,0,4-1.8,4-4V12L4256,4z M4254,14V8l6,6H4254z"/>
	<path id="path90_fill" d="M4298,8v6c0,2.2,1.8,4,4,4h6v22h-24V8H4298z M4304,4h-20c-2.2,0-4,1.8-4,4v31.9c0,2.2,1.8,4,4,4h24
		c2.2,0,4-1.8,4-4V12L4304,4z M4302,14V8l6,6H4302z"/>
	<path id="path91_fill" d="M4348,4h-16c-2.2,0-4,1.8-4,4v32c0,2.2,1.8,4,4,4h24c2.2,0,4-1.8,4-4V16L4348,4z M4341,24.2h-2v2.6h2v2
		h-2v2.6h2v2h-2V36h2v2h-2v3h-2v-3h-2v-2h2v-2.6h-2v-2h2v-2.6h-2v-2h2v-2.6h-2v-2h2V18h-2V7h6v11h-2v4.2h2V24.2z M4346,18V7l11,11
		H4346z"/>
	<path id="path92_fill" d="M4339,9h-2v7h2V9z"/>
	<path id="path93_fill" d="M4763.6,3.9c-2.3,0-4.1,1.8-4.1,4.1v32.4c0,2.2,1.9,4,4.1,4h24.8c2.3,0,4.1-1.8,4.1-4V16l-12.4-12.1
		H4763.6z M4778.1,18V6.9l11.3,11.1H4778.1z"/>
	<g transform="translate(1132.74 -68.5686)">
		<path id="path94_fill" d="M4696.5,12.4l-14.8-11.6l-2.3,26.6l15,12.2L4696.5,12.4z"/>
	</g>
	<g transform="translate(1128.75 -66.947)">
		<path id="path95_fill" d="M4679.1,8.2l-1.8,20.1l9.6,7.7l-0.6,6.9l-14.8-12.4l2.3-26.4L4679.1,8.2z"/>
	</g>
	<g transform="translate(1124.75 -65.4268)">
		<path id="path96_fill" d="M4671.3,11.4l-1.8,19.9l9.4,7.9l-0.4,6.7l-15-12.2l2.5-26.6L4671.3,11.4z"/>
	</g>
	<g transform="translate(1148.75 -65.0435)">
		<path id="path97_fill" d="M4715.5,40.3V7.9h-4v32.4c0,2.2,1.8,4,4,4h18h6v-4H4715.5z"/>
	</g>
	<g transform="translate(1152.75 -67.0686)">
		<path id="path98_fill" d="M4730.1,8.1v6.3c0,2.2,1.8,4.3,4.2,4.3h6.2v13.8h-16.6V8.1H4730.1z M4736.3,3.9h-12.6
			c-2.2,0-4.2,1.8-4.2,4.3v24.1c0,2.2,1.8,4.3,4.2,4.3h16.6c2.2,0,4.2-1.8,4.2-4.3v-20L4736.3,3.9z M4734.1,14.4V8.1l5.9,6.3H4734.1
			z"/>
	</g>
</g>
</svg>
