<svg xmlns="http://www.w3.org/2000/svg" viewBox="0 0 344 184"><defs><style>.cls-1{fill:#cdced9;}.cls-2,.cls-9{fill:#fff;}.cls-3{fill:#f6f5f4;}.cls-4{fill:#9b9db3;}.cls-10,.cls-4,.cls-5,.cls-9{stroke:#363c66;stroke-width:0.5px;}.cls-4,.cls-5,.cls-6,.cls-9{stroke-linecap:round;}.cls-10,.cls-4,.cls-5,.cls-6,.cls-9{stroke-linejoin:round;}.cls-10,.cls-5{fill:none;}.cls-6,.cls-7{fill:#363c66;}.cls-6{stroke:#cdced9;}.cls-8{fill:#67e2e9;}</style></defs><title>Asset 126</title><g id="Layer_2" data-name="Layer 2"><g id="Layer_1-2" data-name="Layer 1"><rect class="cls-1" width="344" height="184"/><path class="cls-2" d="M180.33,183.77c-8-11.36-36.21-21.91-45.21-37.88-8.58-15.23-6.76-34.37-2.87-42.44,4-8.37,12.16-12.87,20.06-10.69C160.44,95,161.42,103.83,155,106l43.06,13.39c1.22-4.11-.55-10.53-4.31-13.24-2.49-1.8-5.81-7.4-1.88-11.32,4.23-4.22,10.34-.87,14.5,4.37,8,10.12,4.6,32.25,2.42,45.79-2.72,16.89,6.89,30.17,13.75,38.75Z"/><polyline class="cls-1" points="151.01 148.99 151.01 69.7 193.38 69.7 193.38 148.99 151.01 148.99"/><path class="cls-3" d="M190.55,60.51H153.84c-4,0-7.34,4-7.34,8.88v79.92c0,4.88,3.3,8.88,7.34,8.88h36.71c4,0,7.35-4,7.35-8.88V69.39C197.9,64.5,194.59,60.51,190.55,60.51ZM193.38,149H151V69.7h42.37Z"/><path class="cls-4" d="M190.55,60.51H153.84c-4,0-7.34,4-7.34,8.88v79.92c0,4.88,3.3,8.88,7.34,8.88h36.71c4,0,7.35-4,7.35-8.88V69.39C197.9,64.5,194.59,60.51,190.55,60.51ZM193.38,149H151V69.7h42.37Z"/><polyline class="cls-5" points="151.01 148.99 151.01 69.7 193.38 69.7 193.38 148.99 151.01 148.99"/><ellipse class="cls-6" cx="172.2" cy="148.99" rx="3.98" ry="3.97"/><rect class="cls-7" x="155.85" y="102.25" width="34.47" height="12.53" rx="2.39" ry="2.39"/><ellipse class="cls-8" cx="164.82" cy="108.51" rx="2.34" ry="2.34"/><ellipse class="cls-8" cx="173.08" cy="108.51" rx="2.34" ry="2.34"/><ellipse class="cls-8" cx="181.32" cy="108.51" rx="2.34" ry="2.34"/><path class="cls-2" d="M153.76,105.38c-7.59-3.58-15.42,3.64-15.42,3.64l4.8,11.35h10.24C158.82,119.11,162.27,109.38,153.76,105.38Z"/><path class="cls-2" d="M152.31,92.76c-7.9-2.18-16,2.32-20.06,10.69-2.22,4.61-3.73,12.81-3,21.85L155,106C161.42,103.83,160.44,95,152.31,92.76Z"/><path class="cls-5" d="M153.38,120.37c5.44-1.26,8.89-11,.38-15-7.59-3.58-15.42,3.64-15.42,3.64"/><path class="cls-9" d="M145,135.31c3.7-1.57,6.59.39,9.23-1.57,4.19-3.11,5.21-9.88-.51-13.23-8.62-5.06-16.16,2.53-16.16,2.53"/><path class="cls-5" d="M155,106c6.42-2.2,5.44-11-2.69-13.27-7.9-2.18-16,2.32-20.06,10.69-3.89,8.07-5.71,27.21,2.87,42.44,9,16,37.13,26.46,45.17,37.82"/><path class="cls-9" d="M208.79,145c2.18-13.54,5.61-35.67-2.42-45.79-4.16-5.24-10.27-8.59-14.5-4.37-3.93,3.92-.61,9.52,1.88,11.32,3.76,2.71,4.91,8.6,4.31,13.24"/><path class="cls-5" d="M222.69,183.7c-6.85-8.58-16.62-21.79-13.9-38.68"/><line class="cls-10" y1="183.75" x2="344" y2="183.75"/></g></g></svg>