<svg xmlns="http://www.w3.org/2000/svg" viewBox="0 0 632 264"><defs><style>.cls-1{isolation:isolate;}.cls-2{fill:#fff;}.cls-3{fill:#363c66;}.cls-4{fill:#9b9db3;}.cls-5,.cls-8{fill:#cdced9;}.cls-5{opacity:0.5;mix-blend-mode:multiply;}.cls-6{fill:#fff4cc;}.cls-7{fill:#686d8c;}</style></defs><title>Asset 27</title><g class="cls-1"><g id="Layer_2" data-name="Layer 2"><g id="Layer_2-2" data-name="Layer 2"><rect class="cls-2" x="3.23" y="133.57" width="57.95" height="58.28" rx="5.58"/><path class="cls-3" d="M55.61,192.12H8.8A5.86,5.86,0,0,1,3,186.26v-47.1A5.86,5.86,0,0,1,8.8,133.3H55.61a5.86,5.86,0,0,1,5.84,5.86v47.1A5.86,5.86,0,0,1,55.61,192.12ZM8.8,133.84a5.32,5.32,0,0,0-5.3,5.32v47.1a5.31,5.31,0,0,0,5.3,5.31H55.61a5.31,5.31,0,0,0,5.3-5.31v-47.1a5.32,5.32,0,0,0-5.3-5.32Z"/><path class="cls-2" d="M6,129.37H58.44a5.7,5.7,0,0,1,5.7,5.7v15.17a0,0,0,0,1,0,0H.27a0,0,0,0,1,0,0V135.08A5.7,5.7,0,0,1,6,129.37Z"/><path class="cls-3" d="M64.14,150.52H.27a.27.27,0,0,1-.27-.27V135.09a6,6,0,0,1,6-6H58.45a6,6,0,0,1,6,6v15.16A.27.27,0,0,1,64.14,150.52ZM.54,150H63.87V135.09a5.44,5.44,0,0,0-5.42-5.44H6a5.44,5.44,0,0,0-5.42,5.44Z"/><rect class="cls-2" x="21.84" y="154.28" width="20.74" height="9.84" rx="1.05"/><path class="cls-3" d="M41.52,164.39H22.89a1.34,1.34,0,0,1-1.33-1.33v-7.73A1.33,1.33,0,0,1,22.89,154H41.52a1.33,1.33,0,0,1,1.33,1.32v7.73A1.34,1.34,0,0,1,41.52,164.39Zm-18.63-9.84a.78.78,0,0,0-.78.78v7.73a.78.78,0,0,0,.78.78H41.52a.78.78,0,0,0,.78-.78v-7.73a.78.78,0,0,0-.78-.78Z"/><rect class="cls-2" x="69.76" y="133.57" width="57.95" height="58.28" rx="5.58"/><path class="cls-3" d="M122.14,192.12H75.33a5.86,5.86,0,0,1-5.84-5.86v-47.1a5.86,5.86,0,0,1,5.84-5.86h46.81a5.86,5.86,0,0,1,5.84,5.86v47.1A5.86,5.86,0,0,1,122.14,192.12ZM75.33,133.84A5.31,5.31,0,0,0,70,139.16v47.1a5.3,5.3,0,0,0,5.29,5.31h46.81a5.31,5.31,0,0,0,5.3-5.31v-47.1a5.32,5.32,0,0,0-5.3-5.32Z"/><path class="cls-2" d="M72.51,129.37H125a5.7,5.7,0,0,1,5.7,5.7v15.17a0,0,0,0,1,0,0H66.8a0,0,0,0,1,0,0V135.08A5.7,5.7,0,0,1,72.51,129.37Z"/><path class="cls-3" d="M130.67,150.52H66.8a.27.27,0,0,1-.27-.27V135.09a6,6,0,0,1,6-6H125a6,6,0,0,1,6,6v15.16A.27.27,0,0,1,130.67,150.52ZM67.08,150H130.4V135.09a5.44,5.44,0,0,0-5.42-5.44H72.5a5.44,5.44,0,0,0-5.42,5.44Z"/><rect class="cls-2" x="88.37" y="154.28" width="20.74" height="9.84" rx="1.05"/><path class="cls-3" d="M108.05,164.39H89.42a1.33,1.33,0,0,1-1.32-1.33v-7.73A1.32,1.32,0,0,1,89.42,154h18.63a1.33,1.33,0,0,1,1.33,1.32v7.73A1.34,1.34,0,0,1,108.05,164.39Zm-18.63-9.84a.78.78,0,0,0-.78.78v7.73a.78.78,0,0,0,.78.78h18.63a.78.78,0,0,0,.78-.78v-7.73a.78.78,0,0,0-.78-.78Z"/><rect class="cls-2" x="136.3" y="133.57" width="57.95" height="58.28" rx="5.58"/><path class="cls-3" d="M188.68,192.12H141.86a5.86,5.86,0,0,1-5.84-5.86v-47.1a5.86,5.86,0,0,1,5.84-5.86h46.82a5.86,5.86,0,0,1,5.83,5.86v47.1A5.86,5.86,0,0,1,188.68,192.12Zm-46.82-58.28a5.31,5.31,0,0,0-5.29,5.32v47.1a5.3,5.3,0,0,0,5.29,5.31h46.82a5.31,5.31,0,0,0,5.29-5.31v-47.1a5.32,5.32,0,0,0-5.29-5.32Z"/><path class="cls-2" d="M139,129.37H191.5a5.7,5.7,0,0,1,5.7,5.7v15.17a0,0,0,0,1,0,0H133.34a0,0,0,0,1,0,0V135.08A5.7,5.7,0,0,1,139,129.37Z"/><path class="cls-3" d="M197.2,150.52H133.34a.28.28,0,0,1-.28-.27V135.09a6,6,0,0,1,6-6h52.48a6,6,0,0,1,6,6v15.16A.27.27,0,0,1,197.2,150.52ZM133.61,150h63.32V135.09a5.44,5.44,0,0,0-5.42-5.44H139a5.44,5.44,0,0,0-5.42,5.44Z"/><rect class="cls-2" x="154.9" y="154.28" width="20.74" height="9.84" rx="1.05"/><path class="cls-3" d="M174.58,164.39H156a1.33,1.33,0,0,1-1.32-1.33v-7.73A1.32,1.32,0,0,1,156,154h18.63a1.33,1.33,0,0,1,1.33,1.32v7.73A1.34,1.34,0,0,1,174.58,164.39ZM156,154.55a.78.78,0,0,0-.78.78v7.73a.78.78,0,0,0,.78.78h18.63a.77.77,0,0,0,.78-.78v-7.73a.77.77,0,0,0-.78-.78Z"/><rect class="cls-2" x="104.27" y="68.23" width="57.95" height="58.28" rx="5.58"/><path class="cls-3" d="M156.65,126.78H109.83a5.86,5.86,0,0,1-5.84-5.86V73.82A5.86,5.86,0,0,1,109.83,68h46.82a5.86,5.86,0,0,1,5.83,5.87v47.1A5.86,5.86,0,0,1,156.65,126.78ZM109.83,68.5a5.3,5.3,0,0,0-5.29,5.32v47.1a5.3,5.3,0,0,0,5.29,5.31h46.82a5.3,5.3,0,0,0,5.29-5.31V73.82a5.3,5.3,0,0,0-5.29-5.32Z"/><path class="cls-2" d="M107,64h52.46a5.7,5.7,0,0,1,5.7,5.7V84.9a0,0,0,0,1,0,0H101.31a0,0,0,0,1,0,0V69.73A5.7,5.7,0,0,1,107,64Z"/><path class="cls-3" d="M165.17,85.18H101.31a.29.29,0,0,1-.28-.28V69.74a6,6,0,0,1,6-6h52.48a6,6,0,0,1,6,6V84.9A.28.28,0,0,1,165.17,85.18Zm-63.59-.55H164.9V69.74a5.44,5.44,0,0,0-5.42-5.44H107a5.44,5.44,0,0,0-5.42,5.44Z"/><rect class="cls-2" x="122.87" y="88.94" width="20.74" height="9.84" rx="1.05"/><path class="cls-3" d="M142.56,99.05H123.92a1.33,1.33,0,0,1-1.32-1.33V90a1.33,1.33,0,0,1,1.32-1.33h18.64A1.33,1.33,0,0,1,143.88,90v7.73A1.33,1.33,0,0,1,142.56,99.05Zm-18.64-9.84a.78.78,0,0,0-.78.78v7.73a.78.78,0,0,0,.78.78h18.64a.77.77,0,0,0,.77-.78V90a.77.77,0,0,0-.77-.78Z"/><rect class="cls-2" x="116.4" y="27.1" width="33.87" height="34.06" rx="3.26"/><path class="cls-3" d="M147,61.44H119.66a3.54,3.54,0,0,1-3.53-3.54V30.37a3.54,3.54,0,0,1,3.53-3.54H147a3.54,3.54,0,0,1,3.52,3.54V57.9A3.54,3.54,0,0,1,147,61.44ZM119.66,27.38a3,3,0,0,0-3,3V57.9a3,3,0,0,0,3,3H147a3,3,0,0,0,3-3V30.37a3,3,0,0,0-3-3Z"/><path class="cls-2" d="M118,24.65h30.66A3.33,3.33,0,0,1,152,28v8.87a0,0,0,0,1,0,0H114.67a0,0,0,0,1,0,0V28A3.33,3.33,0,0,1,118,24.65Z"/><path class="cls-3" d="M152,37.12H114.67a.27.27,0,0,1-.27-.27V28a3.61,3.61,0,0,1,3.6-3.61h30.67a3.61,3.61,0,0,1,3.6,3.61v8.86A.27.27,0,0,1,152,37.12Zm-37-.54h36.78V28a3.07,3.07,0,0,0-3.06-3.07H118A3.07,3.07,0,0,0,115,28Z"/><rect class="cls-2" x="127.28" y="39.21" width="12.12" height="5.75" rx="0.62"/><path class="cls-3" d="M138.78,45.23H127.89a.89.89,0,0,1-.89-.89V39.82a.89.89,0,0,1,.89-.89h10.89a.89.89,0,0,1,.89.89v4.52A.89.89,0,0,1,138.78,45.23Zm-10.89-5.75a.34.34,0,0,0-.34.34v4.52a.34.34,0,0,0,.34.34h10.89a.34.34,0,0,0,.34-.34V39.82a.34.34,0,0,0-.34-.34Z"/><rect class="cls-2" x="213.86" y="91.62" width="33.87" height="34.06" rx="3.26"/><path class="cls-3" d="M244.47,126H217.11a3.54,3.54,0,0,1-3.52-3.54V94.89a3.53,3.53,0,0,1,3.52-3.54h27.36A3.54,3.54,0,0,1,248,94.89v27.52A3.54,3.54,0,0,1,244.47,126ZM217.11,91.89a3,3,0,0,0-3,3v27.52a3,3,0,0,0,3,3h27.36a3,3,0,0,0,3-3V94.89a3,3,0,0,0-3-3Z"/><path class="cls-2" d="M215.46,89.17h30.66a3.33,3.33,0,0,1,3.33,3.33v8.87a0,0,0,0,1,0,0H212.13a0,0,0,0,1,0,0V92.5A3.33,3.33,0,0,1,215.46,89.17Z"/><path class="cls-3" d="M249.45,101.64H212.13a.27.27,0,0,1-.27-.27V92.51a3.61,3.61,0,0,1,3.59-3.62h30.68a3.62,3.62,0,0,1,3.6,3.62v8.86A.28.28,0,0,1,249.45,101.64Zm-37-.55h36.78V92.51a3.07,3.07,0,0,0-3.05-3.07H215.45a3.07,3.07,0,0,0-3,3.07Z"/><rect class="cls-2" x="224.73" y="103.72" width="12.12" height="5.75" rx="0.62"/><path class="cls-3" d="M236.24,109.75H225.35a.89.89,0,0,1-.89-.89v-4.52a.89.89,0,0,1,.89-.89h10.89a.88.88,0,0,1,.88.89v4.52A.88.88,0,0,1,236.24,109.75ZM225.35,104a.35.35,0,0,0-.35.34v4.52a.35.35,0,0,0,.35.34h10.89a.34.34,0,0,0,.34-.34v-4.52a.34.34,0,0,0-.34-.34Z"/><rect class="cls-2" x="46.87" y="53.07" width="33.87" height="34.06" rx="3.26"/><path class="cls-3" d="M77.48,87.4H50.12a3.54,3.54,0,0,1-3.52-3.54V56.33a3.54,3.54,0,0,1,3.52-3.54H77.48A3.54,3.54,0,0,1,81,56.33V83.86A3.54,3.54,0,0,1,77.48,87.4ZM50.12,53.34a3,3,0,0,0-3,3V83.86a3,3,0,0,0,3,3H77.48a3,3,0,0,0,3-3V56.33a3,3,0,0,0-3-3Z"/><path class="cls-2" d="M48.47,50.61H79.13a3.33,3.33,0,0,1,3.33,3.33v8.87a0,0,0,0,1,0,0H45.14a0,0,0,0,1,0,0V53.95A3.33,3.33,0,0,1,48.47,50.61Z"/><path class="cls-3" d="M82.47,63.08H45.14a.27.27,0,0,1-.27-.27V54a3.61,3.61,0,0,1,3.6-3.61H79.14A3.61,3.61,0,0,1,82.74,54v8.86A.27.27,0,0,1,82.47,63.08Zm-37.06-.54H82.19V54a3.06,3.06,0,0,0-3-3.06H48.47A3.06,3.06,0,0,0,45.41,54Z"/><rect class="cls-2" x="57.74" y="65.17" width="12.12" height="5.75" rx="0.62"/><path class="cls-3" d="M69.25,71.19H58.36a.89.89,0,0,1-.89-.89V65.79a.89.89,0,0,1,.89-.89H69.25a.89.89,0,0,1,.89.89V70.3A.89.89,0,0,1,69.25,71.19ZM58.36,65.44a.35.35,0,0,0-.34.35V70.3a.35.35,0,0,0,.34.35H69.25a.35.35,0,0,0,.34-.35V65.79a.35.35,0,0,0-.34-.35Z"/><rect class="cls-2" x="66.71" y="92.45" width="33.87" height="34.06" rx="3.26"/><path class="cls-3" d="M97.32,126.78H70a3.54,3.54,0,0,1-3.52-3.54V95.71A3.54,3.54,0,0,1,70,92.17H97.32a3.54,3.54,0,0,1,3.53,3.54v27.53A3.54,3.54,0,0,1,97.32,126.78ZM70,92.72a3,3,0,0,0-3,3v27.53a3,3,0,0,0,3,3H97.32a3,3,0,0,0,3-3V95.71a3,3,0,0,0-3-3Z"/><path class="cls-2" d="M68.31,90H99a3.33,3.33,0,0,1,3.33,3.33v8.87a0,0,0,0,1,0,0H65a0,0,0,0,1,0,0V93.33A3.33,3.33,0,0,1,68.31,90Z"/><path class="cls-3" d="M102.3,102.46H65a.27.27,0,0,1-.27-.27V93.33a3.6,3.6,0,0,1,3.59-3.61H99a3.61,3.61,0,0,1,3.6,3.61v8.86A.28.28,0,0,1,102.3,102.46Zm-37-.54H102V93.33a3.06,3.06,0,0,0-3-3.06H68.3a3.06,3.06,0,0,0-3,3.06Z"/><rect class="cls-2" x="77.58" y="104.55" width="12.12" height="5.75" rx="0.62"/><path class="cls-3" d="M89.08,110.57H78.2a.89.89,0,0,1-.89-.89v-4.51a.89.89,0,0,1,.89-.89H89.08a.89.89,0,0,1,.89.89v4.51A.89.89,0,0,1,89.08,110.57ZM78.2,104.82a.35.35,0,0,0-.35.35v4.51a.35.35,0,0,0,.35.34H89.08a.35.35,0,0,0,.35-.34v-4.51a.35.35,0,0,0-.35-.35Z"/><rect class="cls-2" x="25.64" y="92.45" width="33.87" height="34.06" rx="3.26"/><path class="cls-3" d="M56.25,126.78H28.89a3.54,3.54,0,0,1-3.52-3.54V95.71a3.54,3.54,0,0,1,3.52-3.54H56.25a3.54,3.54,0,0,1,3.53,3.54v27.53A3.54,3.54,0,0,1,56.25,126.78ZM28.89,92.72a3,3,0,0,0-3,3v27.53a3,3,0,0,0,3,3H56.25a3,3,0,0,0,3-3V95.71a3,3,0,0,0-3-3Z"/><path class="cls-2" d="M27.24,90H57.9a3.33,3.33,0,0,1,3.33,3.33v8.87a0,0,0,0,1,0,0H23.91a0,0,0,0,1,0,0V93.33A3.33,3.33,0,0,1,27.24,90Z"/><path class="cls-3" d="M61.24,102.46H23.91a.27.27,0,0,1-.27-.27V93.33a3.61,3.61,0,0,1,3.6-3.61H57.91a3.61,3.61,0,0,1,3.6,3.61v8.86A.27.27,0,0,1,61.24,102.46Zm-37.06-.54H61V93.33a3.06,3.06,0,0,0-3.05-3.06H27.24a3.06,3.06,0,0,0-3.06,3.06Z"/><rect class="cls-2" x="36.51" y="104.55" width="12.12" height="5.75" rx="0.62"/><path class="cls-3" d="M48,110.57H37.13a.89.89,0,0,1-.89-.89v-4.51a.89.89,0,0,1,.89-.89H48a.89.89,0,0,1,.89.89v4.51A.89.89,0,0,1,48,110.57Zm-10.89-5.75a.35.35,0,0,0-.34.35v4.51a.34.34,0,0,0,.34.34H48a.34.34,0,0,0,.34-.34v-4.51a.35.35,0,0,0-.34-.35Z"/><rect class="cls-2" x="202.83" y="133.57" width="57.95" height="58.28" rx="5.58"/><path class="cls-3" d="M255.21,192.12H208.39a5.86,5.86,0,0,1-5.84-5.86v-47.1a5.86,5.86,0,0,1,5.84-5.86h46.82a5.86,5.86,0,0,1,5.84,5.86v47.1A5.86,5.86,0,0,1,255.21,192.12Zm-46.82-58.28a5.31,5.31,0,0,0-5.29,5.32v47.1a5.3,5.3,0,0,0,5.29,5.31h46.82a5.3,5.3,0,0,0,5.29-5.31v-47.1a5.31,5.31,0,0,0-5.29-5.32Z"/><path class="cls-2" d="M205.57,129.37H258a5.7,5.7,0,0,1,5.7,5.7v15.17a0,0,0,0,1,0,0H199.87a0,0,0,0,1,0,0V135.08A5.7,5.7,0,0,1,205.57,129.37Z"/><path class="cls-3" d="M263.73,150.52H199.87a.27.27,0,0,1-.27-.27V135.09a6,6,0,0,1,6-6H258a6,6,0,0,1,6,6v15.16A.28.28,0,0,1,263.73,150.52ZM200.14,150h63.32V135.09a5.44,5.44,0,0,0-5.42-5.44H205.56a5.44,5.44,0,0,0-5.42,5.44Z"/><rect class="cls-2" x="221.43" y="154.28" width="20.74" height="9.84" rx="1.05"/><path class="cls-3" d="M241.12,164.39H222.48a1.33,1.33,0,0,1-1.32-1.33v-7.73a1.32,1.32,0,0,1,1.32-1.32h18.64a1.32,1.32,0,0,1,1.32,1.32v7.73A1.33,1.33,0,0,1,241.12,164.39Zm-18.64-9.84a.78.78,0,0,0-.78.78v7.73a.78.78,0,0,0,.78.78h18.64a.78.78,0,0,0,.78-.78v-7.73a.78.78,0,0,0-.78-.78Z"/><rect class="cls-2" x="529.82" y="94.12" width="33.84" height="34.06" rx="3.26"/><path class="cls-3" d="M560.4,128.45H533.07a3.54,3.54,0,0,1-3.53-3.53V97.38a3.54,3.54,0,0,1,3.53-3.54H560.4a3.54,3.54,0,0,1,3.53,3.54v27.54A3.53,3.53,0,0,1,560.4,128.45ZM533.07,94.39a3,3,0,0,0-3,3v27.54a3,3,0,0,0,3,3H560.4a3,3,0,0,0,3-3V97.38a3,3,0,0,0-3-3Z"/><path class="cls-2" d="M531.42,91.66h30.63A3.33,3.33,0,0,1,565.38,95v8.87a0,0,0,0,1,0,0H528.09a0,0,0,0,1,0,0V95a3.33,3.33,0,0,1,3.33-3.33Z"/><path class="cls-3" d="M565.38,104.14H528.09a.27.27,0,0,1-.27-.28V95a3.6,3.6,0,0,1,3.59-3.61h30.65a3.61,3.61,0,0,1,3.6,3.61v8.86A.28.28,0,0,1,565.38,104.14Zm-37-.55h36.75V95a3.06,3.06,0,0,0-3.05-3.06H531.41a3.06,3.06,0,0,0-3,3.06Z"/><rect class="cls-2" x="540.68" y="106.22" width="12.11" height="5.75" rx="0.62"/><path class="cls-3" d="M552.18,112.25H541.3a.89.89,0,0,1-.89-.89v-4.52a.89.89,0,0,1,.89-.89h10.88a.89.89,0,0,1,.88.89v4.52A.89.89,0,0,1,552.18,112.25Zm-10.88-5.76a.35.35,0,0,0-.35.35v4.52a.35.35,0,0,0,.35.34h10.88a.34.34,0,0,0,.34-.34v-4.52a.35.35,0,0,0-.34-.35Z"/><rect class="cls-2" x="596.16" y="159.23" width="33.84" height="34.06" rx="3.26"/><path class="cls-3" d="M626.75,193.57H599.41a3.54,3.54,0,0,1-3.52-3.54V162.49a3.53,3.53,0,0,1,3.52-3.53h27.34a3.53,3.53,0,0,1,3.52,3.53V190A3.54,3.54,0,0,1,626.75,193.57ZM599.41,159.5a3,3,0,0,0-3,3V190a3,3,0,0,0,3,3h27.34a3,3,0,0,0,3-3V162.49a3,3,0,0,0-3-3Z"/><path class="cls-2" d="M597.77,156.78H628.4a3.33,3.33,0,0,1,3.33,3.33V169a0,0,0,0,1,0,0H594.43a0,0,0,0,1,0,0v-8.87A3.33,3.33,0,0,1,597.77,156.78Z"/><path class="cls-3" d="M631.73,169.25h-37.3a.27.27,0,0,1-.27-.27v-8.87a3.61,3.61,0,0,1,3.6-3.61H628.4a3.61,3.61,0,0,1,3.6,3.61V169A.27.27,0,0,1,631.73,169.25Zm-37-.55h36.75v-8.59a3.06,3.06,0,0,0-3.06-3.06H597.76a3.05,3.05,0,0,0-3,3.06Z"/><rect class="cls-2" x="607.03" y="171.33" width="12.11" height="5.75" rx="0.62"/><path class="cls-3" d="M618.52,177.36H607.64a.89.89,0,0,1-.89-.89V172a.89.89,0,0,1,.89-.89h10.88a.89.89,0,0,1,.89.89v4.52A.89.89,0,0,1,618.52,177.36Zm-10.88-5.75a.34.34,0,0,0-.34.34v4.52a.34.34,0,0,0,.34.34h10.88a.34.34,0,0,0,.34-.34V172a.34.34,0,0,0-.34-.34Z"/><rect class="cls-2" x="519.28" y="135.01" width="57.9" height="58.29" rx="5.58"/><path class="cls-3" d="M571.62,193.57H524.85a5.86,5.86,0,0,1-5.84-5.86V140.59a5.86,5.86,0,0,1,5.84-5.86h46.77a5.86,5.86,0,0,1,5.84,5.86v47.12A5.86,5.86,0,0,1,571.62,193.57Zm-46.77-58.29a5.3,5.3,0,0,0-5.29,5.31v47.12a5.3,5.3,0,0,0,5.29,5.31h46.77a5.3,5.3,0,0,0,5.29-5.31V140.59a5.3,5.3,0,0,0-5.29-5.31Z"/><path class="cls-2" d="M522,130.81h52.41a5.7,5.7,0,0,1,5.7,5.7v15.18a0,0,0,0,1,0,0H516.33a0,0,0,0,1,0,0V136.51A5.7,5.7,0,0,1,522,130.81Z"/><path class="cls-3" d="M580.14,152H516.33a.27.27,0,0,1-.27-.27V136.52a6,6,0,0,1,6-6h52.43a6,6,0,0,1,6,6v15.17A.27.27,0,0,1,580.14,152Zm-63.54-.55h63.27V136.52a5.44,5.44,0,0,0-5.42-5.44H522a5.44,5.44,0,0,0-5.42,5.44Z"/><rect class="cls-2" x="537.87" y="155.72" width="20.72" height="9.84" rx="1.05"/><path class="cls-3" d="M557.54,165.83H538.93a1.33,1.33,0,0,1-1.33-1.33v-7.73a1.33,1.33,0,0,1,1.33-1.32h18.61a1.33,1.33,0,0,1,1.33,1.32v7.73A1.33,1.33,0,0,1,557.54,165.83ZM538.93,156a.78.78,0,0,0-.78.78v7.73a.79.79,0,0,0,.78.79h18.61a.79.79,0,0,0,.78-.79v-7.73a.78.78,0,0,0-.78-.78Z"/><path class="cls-4" d="M332.89,29.28c-.1-8.71-9.31-10.91-16.39-10.5-6.12.34-20.54,4.43-17.79,17.75.76,3.71,6.21,7.14,8.82,12.23,2.27,4.43-2.53,10.75-3.88,17.09,0,0,7.7,7.76,13.11,4.3,1.1-4.06,2.43-12,3.93-14.12,1.67-2.3,6.21.76,7.88-.68s.33-2.29.47-3.62c.12-1.07,1.16-.54,1.14-1.75a1.2,1.2,0,0,0-.94-1.22c.4,0,1.92-.12,2.06-1.59-.42-.89-.82-1.36-.68-2,.55-1.27,2.44-.19,2.79-1.85.39-1.9-3.32-3.05-2.09-6.84C331.79,35,333,34,332.89,29.28Z"/><path class="cls-3" d="M313.61,71.36c-4.86,0-9.92-5-10.18-5.29a.3.3,0,0,1-.09-.28,41.93,41.93,0,0,1,2.29-6.72c1.56-3.83,3-7.44,1.63-10.16a29.74,29.74,0,0,0-4.72-6.2c-2-2.18-3.71-4.06-4.14-6.11a12.78,12.78,0,0,1,2.15-10.77c4.07-5.33,11.93-7.14,15.94-7.36,2.75-.16,9.63-.11,13.76,3.77a9.36,9.36,0,0,1,2.95,7h0A12.59,12.59,0,0,1,332,35.62a9.09,9.09,0,0,0-.39,1c-.69,2.11.27,3.33,1.11,4.41.6.77,1.17,1.49,1,2.39-.23,1.1-1,1.23-1.7,1.34s-.93.16-1.11.57.08.6.38,1.17l.3.59a.45.45,0,0,1,0,.16,1.89,1.89,0,0,1-1.5,1.72,1.68,1.68,0,0,1,.38,1,1.2,1.2,0,0,1-.71,1.23.63.63,0,0,0-.43.57,3.13,3.13,0,0,0,.16,1.13,2.22,2.22,0,0,1-.73,2.68c-.87.75-2.27.47-3.75.18s-3.29-.64-4.09.46c-1,1.39-2,5.71-2.82,9.52-.38,1.67-.73,3.26-1.06,4.49a.28.28,0,0,1-.14.18A6,6,0,0,1,313.61,71.36ZM304,65.75c1,.94,7.73,7.11,12.5,4.2.32-1.2.66-2.73,1-4.35.86-3.87,1.84-8.25,2.93-9.75s3-1,4.71-.7c1.33.26,2.58.51,3.22,0a1.62,1.62,0,0,0,.54-2,3.46,3.46,0,0,1-.17-1.36,1.2,1.2,0,0,1,.73-1,.58.58,0,0,0,.39-.67.88.88,0,0,0-.66-.92.31.31,0,0,1-.27-.31.33.33,0,0,1,.28-.31c.79-.08,1.63-.29,1.77-1.22l-.25-.49a2.31,2.31,0,0,1-.42-1.65,1.78,1.78,0,0,1,1.6-1c.67-.11,1.06-.2,1.19-.85s-.31-1.17-.86-1.88c-.89-1.14-2-2.56-1.21-5a8,8,0,0,1,.42-1,12.08,12.08,0,0,0,1.13-6.08h0a8.85,8.85,0,0,0-2.75-6.59c-2.75-2.57-7.72-3.92-13.31-3.6-3.63.21-11.53,2-15.48,7.12a12.12,12.12,0,0,0-2,10.26c.39,1.88,2.06,3.71,4,5.82a30.25,30.25,0,0,1,4.81,6.33c1.53,3,0,6.72-1.6,10.68A41,41,0,0,0,304,65.75Z"/><path class="cls-3" d="M324.35,31a2.16,2.16,0,0,1-3.67,1.85c-2.95,1.9.38,6.31-3.12,7.2.34-2-.79-3.22-1.78-3.4-4.15,1.81-4.27,8.19-1.5,9.15-.12,4-6,4.76-8.3,4.26-2.41-7.18-5.69-5.91-8.25-12.93-1.39-3.79-.75-8.87.64-12.7-3.78.37-7.55-3-8-7.57s3.24-8.68,8.45-8.91c4.35-.19,8.31,4.12,8.67,7.68,8.28-1.56,16.41-.71,21.32,3.58,4.27,3.73,5.42,7.19,5.1,10.12-.25,2.28-2.87,2.57-4.14,1.06C329,32.89,325.44,32.54,324.35,31Z"/><path class="cls-3" d="M307.46,50.46a7.74,7.74,0,0,1-1.55-.14.34.34,0,0,1-.23-.21,14.46,14.46,0,0,0-4.06-6.48,15.5,15.5,0,0,1-4.18-6.45c-1.44-3.92-.72-8.92.48-12.46A7.06,7.06,0,0,1,293.29,23a9.13,9.13,0,0,1-3.21-6.17,8,8,0,0,1,2-6.09,9.37,9.37,0,0,1,6.76-3.16h.3c4.26,0,8.08,4,8.65,7.63,9-1.62,16.7-.27,21.26,3.72,3.84,3.36,5.59,6.85,5.2,10.38a2.43,2.43,0,0,1-1.7,2.17,2.85,2.85,0,0,1-2.64-.59,2.91,2.91,0,0,1-2.26,1.58,4,4,0,0,1-3-.77,2.37,2.37,0,0,1-1.33,1.79,2.51,2.51,0,0,1-2.65-.3c-1.08.82-1.05,2.08-1,3.4,0,1.5.06,3.19-2,3.71a.29.29,0,0,1-.28-.07.3.3,0,0,1-.1-.28,2.48,2.48,0,0,0-1.44-3,5.77,5.77,0,0,0-3.1,5.47c.06,1.55.7,2.72,1.67,3.06a.3.3,0,0,1,.21.3,4,4,0,0,1-1.6,3.09A9.53,9.53,0,0,1,307.46,50.46Zm-1.25-.72a9.21,9.21,0,0,0,6.4-1.38A3.39,3.39,0,0,0,314,46a3.88,3.88,0,0,1-1.87-3.54,6.36,6.36,0,0,1,3.56-6.1.23.23,0,0,1,.18,0,2.9,2.9,0,0,1,2.09,3.25C319,39.08,319,38.09,319,36.6s-.06-3.06,1.5-4.07a.32.32,0,0,1,.38,0,1.92,1.92,0,0,0,2.15.36A1.87,1.87,0,0,0,324,31a.32.32,0,0,1,.21-.32.3.3,0,0,1,.36.12,3.14,3.14,0,0,0,2.93,1.07,2.28,2.28,0,0,0,1.94-1.6.32.32,0,0,1,.24-.21.31.31,0,0,1,.3.1,2.24,2.24,0,0,0,2.33.74,1.79,1.79,0,0,0,1.26-1.64c.37-3.31-1.31-6.62-5-9.84-4.47-3.91-12.15-5.19-21.06-3.52a.31.31,0,0,1-.25-.05.35.35,0,0,1-.12-.22c-.35-3.41-4.11-7.4-8.08-7.4h-.26a8.73,8.73,0,0,0-6.32,2.95,7.46,7.46,0,0,0-1.84,5.62,8.55,8.55,0,0,0,3,5.75,6.36,6.36,0,0,0,4.65,1.54.29.29,0,0,1,.28.12.3.3,0,0,1,.05.29C297.41,27.94,296.58,33,298,37a15.18,15.18,0,0,0,4,6.22A15,15,0,0,1,306.21,49.74Z"/><path class="cls-4" d="M329.24,48.76a2.25,2.25,0,0,0-.84.25"/><path class="cls-3" d="M328.4,49.32a.33.33,0,0,1-.27-.16.31.31,0,0,1,.12-.42,2.63,2.63,0,0,1,1-.29.29.29,0,0,1,.34.28.3.3,0,0,1-.27.34,2.14,2.14,0,0,0-.72.21A.42.42,0,0,1,328.4,49.32Z"/><path class="cls-3" d="M331.7,38.33h0l-16.58-.26a.63.63,0,0,1,0-1.25h0l16.58.26a.63.63,0,0,1,0,1.25Z"/><path class="cls-3" d="M330.38,43.16a.58.58,0,0,1-.31-.08.63.63,0,0,1-.24-.85,26.84,26.84,0,0,0,1.77-5.45.62.62,0,0,1,.72-.51.63.63,0,0,1,.51.72,27.86,27.86,0,0,1-1.91,5.85A.61.61,0,0,1,330.38,43.16Z"/><path class="cls-4" d="M316.73,38.2c-.08-.89-1.16-1.91-2.08-1.66a2.66,2.66,0,0,0-1.79,2.91c.19,1.57,2.08,4.81,3.22,4.49.36-.1.47-.83.53-1.38"/><path class="cls-3" d="M315.91,44.27a1.41,1.41,0,0,1-.76-.27,8.27,8.27,0,0,1-2.6-4.52,3,3,0,0,1,2-3.25,1.77,1.77,0,0,1,1.45.34,2.36,2.36,0,0,1,1,1.61.31.31,0,1,1-.62,0,1.76,1.76,0,0,0-.75-1.15,1.17,1.17,0,0,0-.94-.24,2.37,2.37,0,0,0-1.56,2.57,7.56,7.56,0,0,0,2.33,4.08.72.72,0,0,0,.5.15s.19-.09.3-1.11a.31.31,0,0,1,.35-.28.31.31,0,0,1,.27.35c-.08.71-.21,1.48-.75,1.64A1.15,1.15,0,0,1,315.91,44.27Z"/><path class="cls-3" d="M286.16,22.51a.63.63,0,0,1-.56-.35.63.63,0,0,1,.29-.84L309.48,9.69a.62.62,0,1,1,.55,1.12L286.44,22.44A.58.58,0,0,1,286.16,22.51Z"/><path class="cls-3" d="M289.7,28.7a.59.59,0,0,1-.29-.07.64.64,0,0,1-.26-.85L303.79.33a.62.62,0,0,1,.84-.25.62.62,0,0,1,.26.84L290.25,28.37A.62.62,0,0,1,289.7,28.7Z"/><path class="cls-5" d="M392.51,253.48c0-5.81-32.4-10.53-72.37-10.53s-92.52,4.72-92.52,10.53S280.18,264,320.14,264,392.51,259.29,392.51,253.48Z"/><ellipse class="cls-5" cx="455.93" cy="252.34" rx="40.71" ry="7.12"/><path class="cls-4" d="M350.65,109.17c3.43-.31,4.39.54,7.8,0,2.82-.44,4.4-2.16,6.38-2.89,3.34-1.23,6,1.5,7.27.61,1.55-1.1-1.33-4.25-7.08-5.08-4.56-.66-11.93,1.85-14.1,3.65"/><path class="cls-3" d="M356.26,109.67a17.48,17.48,0,0,1-2-.13,17.15,17.15,0,0,0-3.6-.06.3.3,0,0,1-.34-.28.32.32,0,0,1,.28-.34,17.7,17.7,0,0,1,3.73.06,13.54,13.54,0,0,0,4-.06,10.69,10.69,0,0,0,4.1-1.72,12.76,12.76,0,0,1,2.23-1.15,7.23,7.23,0,0,1,5.16.36c.91.32,1.63.57,2,.29a.63.63,0,0,0,.26-.73c-.27-1.15-2.76-3.15-7.2-3.8s-11.65,1.76-13.86,3.59a.31.31,0,0,1-.4-.48c2.3-1.9,9.8-4.39,14.35-3.72s7.34,2.68,7.72,4.26a1.27,1.27,0,0,1-.51,1.39c-.66.47-1.56.15-2.59-.21a6.68,6.68,0,0,0-4.75-.37,13.49,13.49,0,0,0-2.12,1.11,11.64,11.64,0,0,1-4.33,1.8A13.94,13.94,0,0,1,356.26,109.67Z"/><path class="cls-6" d="M316.33,96.94c8.42,1,25.89,3.1,33.85,5.67,1,.35,2.15,4.75,1.83,7.09-1,.4-26.34,7.46-36.3,4.72"/><path class="cls-3" d="M321.66,115.38a23.79,23.79,0,0,1-6-.65.32.32,0,0,1,.17-.61c9.4,2.59,33.35-3.8,35.92-4.65.25-2.42-.94-6.31-1.65-6.56-7.92-2.57-25.38-4.65-33.78-5.66a.3.3,0,0,1-.27-.34.32.32,0,0,1,.34-.28c8.42,1,25.93,3.1,33.91,5.69,1.27.44,2.37,5.05,2,7.43a.3.3,0,0,1-.19.24C351.94,110.07,333.67,115.38,321.66,115.38ZM352,109.7Z"/><path class="cls-3" d="M350.18,102.61a13.9,13.9,0,0,1,4.68,0c.86,2.46.54,3.79,1.15,6.13a7.12,7.12,0,0,1-4,.92Z"/><path class="cls-3" d="M352.51,110.07a2,2,0,0,1-.59-.07.28.28,0,0,1-.21-.22l-1.84-7.09a.31.31,0,0,1,.05-.25.3.3,0,0,1,.22-.14,14.11,14.11,0,0,1,4.8,0,.3.3,0,0,1,.21.2,14.2,14.2,0,0,1,.73,3.54,16,16,0,0,0,.43,2.61.3.3,0,0,1-.12.33A8.24,8.24,0,0,1,352.51,110.07Zm-.25-.63a7.83,7.83,0,0,0,3.39-.8,17.55,17.55,0,0,1-.39-2.49,13.77,13.77,0,0,0-.64-3.24,12.8,12.8,0,0,0-4.05,0Z"/><path class="cls-3" d="M303.73,63.12c.14-1.37.71-5.75.93-6.75,5,.81,13.24,5.75,17.56,8.76.29,1.89.54,8.76,1.14,11.53"/><path class="cls-3" d="M323.36,77a.31.31,0,0,1-.3-.25,69.53,69.53,0,0,1-.81-7.71c-.11-1.58-.21-3-.32-3.7-3.78-2.62-11.95-7.61-17-8.58-.25,1.33-.73,5.08-.87,6.43a.29.29,0,0,1-.34.27.31.31,0,0,1-.28-.34c.14-1.34.7-5.75.94-6.79a.31.31,0,0,1,.35-.24c5.19.85,13.56,5.94,17.69,8.81a.32.32,0,0,1,.13.21c.11.74.22,2.2.34,3.88a72.34,72.34,0,0,0,.79,7.63.31.31,0,0,1-.24.37Z"/><path class="cls-2" d="M276.28,232.26c-2.69,1.64-4.1,5.77-3,10,.84,3.07-14.11-5.52-11.06-8.18,2.1-1.81,6.94-2.3,7.8-7.86"/><path class="cls-3" d="M272.77,243.17c-2.35,0-9-4.15-10.74-6.84-.84-1.34-.45-2.12,0-2.53a11.48,11.48,0,0,1,2.3-1.38c2.25-1.14,4.81-2.44,5.4-6.3a.32.32,0,0,1,.35-.26.3.3,0,0,1,.26.35c-.64,4.19-3.46,5.62-5.73,6.76a11.21,11.21,0,0,0-2.17,1.3c-.16.14-.64.56.1,1.72,1.87,2.95,9.28,7,10.44,6.52,0,0,.07,0,0-.22-1.14-4.18.16-8.51,3.1-10.3a.31.31,0,1,1,.32.54c-2.7,1.65-3.89,5.68-2.82,9.59a.72.72,0,0,1-.37,1A1.14,1.14,0,0,1,272.77,243.17Z"/><path class="cls-3" d="M324.6,158.67c-3.65,7.17-11.28,38.84-16.26,44.62-4.75,5.53-26.6,30.05-33.06,31.89-2.11-.92-6.32-5-7.28-7.13,3.6-12.88,21.49-33.12,23-37.09,1.61-4.25,2.88-40.25,7.59-53.66"/><path class="cls-3" d="M275.28,235.5a.24.24,0,0,1-.12,0c-2.21-1-6.46-5.13-7.45-7.29a.33.33,0,0,1,0-.22c2.42-8.67,11.37-20.77,17.28-28.77,2.92-3.95,5.23-7.07,5.71-8.34.58-1.54,1.13-7.5,1.83-15,1.17-12.72,2.78-30.16,5.76-38.61a.3.3,0,0,1,.39-.19.29.29,0,0,1,.19.39c-2.95,8.39-4.55,25.78-5.72,38.47-.7,7.59-1.26,13.58-1.87,15.2-.51,1.35-2.72,4.35-5.79,8.5-5.86,7.93-14.71,19.89-17.15,28.45a21.56,21.56,0,0,0,7,6.83c6.33-2,27.46-25.53,32.8-31.76,2.95-3.42,6.87-16.13,10.33-27.34,2.37-7.68,4.42-14.32,5.89-17.22a.31.31,0,0,1,.55.29c-1.45,2.84-3.59,9.78-5.85,17.12-3.48,11.27-7.42,24-10.45,27.55-.25.3-25.89,29.9-33.21,32Z"/><path class="cls-2" d="M355.49,241.75c1.52,4.68,3.74,6.56,6.61,7.25,5.37,1.29-12.53,5.58-12.32,2.45a10.88,10.88,0,0,0-1.42-7.72"/><path class="cls-3" d="M352.51,252.88a10.37,10.37,0,0,1-1.17-.06c-1.61-.2-1.91-.87-1.87-1.39a10.62,10.62,0,0,0-1.37-7.54.31.31,0,0,1,.1-.43.32.32,0,0,1,.43.1,11.18,11.18,0,0,1,1.45,7.95c0,.52,1.06.68,1.71.72,4.09.3,10.95-1.83,11-2.6h0s-.09-.16-.77-.33c-3.31-.79-5.42-3.09-6.83-7.46a.31.31,0,0,1,.2-.39.31.31,0,0,1,.39.2c1.34,4.14,3.31,6.31,6.39,7,.9.21,1.31.57,1.23,1.05C363.14,251.21,356.39,252.88,352.51,252.88Z"/><path class="cls-3" d="M326.73,122.09c7.76,20,26.8,46.39,30.75,65.35,1.93,9.21.63,43,.27,55.47,0,0-2.59,3.59-10.1,2.32-9.72-18.29-8.78-47-13.08-52.09-3.1-3.65-8.89-12.66-15.3-19.86-3.41-3.83-5.59-6.12-8.67-9.58"/><path class="cls-3" d="M350.74,245.81a18.61,18.61,0,0,1-3.15-.28.3.3,0,0,1-.22-.16c-5.7-10.74-7.71-24.79-9.33-36.08-1.11-7.77-2-13.91-3.71-15.95-1.19-1.39-2.77-3.58-4.6-6.11-3-4.14-6.73-9.29-10.69-13.74-1.76-2-3.19-3.55-4.59-5.08s-2.59-2.83-4.08-4.5a.31.31,0,0,1,0-.44.31.31,0,0,1,.44,0c1.48,1.67,2.76,3.07,4.07,4.5s2.83,3.1,4.59,5.08c4,4.48,7.72,9.64,10.73,13.79,1.83,2.52,3.4,4.7,4.57,6.08,1.85,2.17,2.73,8.39,3.86,16.26,1.6,11.19,3.59,25.11,9.19,35.74,6.51,1.06,9.18-1.67,9.59-2.15,0-1.27.08-2.76.14-4.41.46-14.91,1.32-42.66-.41-50.87-2.3-11.08-9.86-24.85-17.17-38.17-5.32-9.69-10.35-18.85-13.56-27.13a.32.32,0,0,1,.17-.41.33.33,0,0,1,.41.18c3.2,8.25,8.22,17.39,13.53,27.06,7.33,13.36,14.91,27.17,17.23,38.34,1.74,8.29.88,36.09.42,51-.06,1.7-.1,3.22-.14,4.52a.27.27,0,0,1-.06.17C357.91,243.22,356,245.81,350.74,245.81Zm7-2.9h0Z"/><path class="cls-2" d="M319.27,173.59a.3.3,0,0,1-.23-.1c-1-1.14-2.19-2.43-3.45-3.8-4.22-4.57-9.46-10.26-11.21-14.22a.31.31,0,0,1,.15-.41.31.31,0,0,1,.41.16c1.71,3.86,6.92,9.51,11.11,14.05,1.26,1.37,2.45,2.66,3.46,3.81a.3.3,0,0,1-.24.51Z"/><path class="cls-3" d="M324.62,152.39a3,3,0,0,1-2.07,0c-.64-.06-4.53-4.86-2.25-4.56C321.68,148,324.62,152.39,324.62,152.39Z"/><path class="cls-3" d="M323.71,152.89a2.83,2.83,0,0,1-.88-.14,2.6,2.6,0,0,0-.31-.07c-.63-.05-2.47-2.33-3-3.57-.27-.61-.29-1-.08-1.33a.91.91,0,0,1,.92-.28c1.48.2,4.23,4.25,4.54,4.72a.3.3,0,0,1,0,.26.32.32,0,0,1-.18.2A2.7,2.7,0,0,1,323.71,152.89Zm-3.61-4.78c-.09,0-.18,0-.19.08-.18.74,2.13,3.68,2.69,3.88a1.8,1.8,0,0,1,.39.08,2.09,2.09,0,0,0,1.14.07c-1.15-1.65-3-4-3.87-4.1Z"/><path class="cls-6" d="M341.23,143.3c-1.77,3.69-9,7.54-16.61,9.09-.8.16-4.57-4.29-4.57-4.29s-1,6.08-1.85,6.24c-7.6,1.49-23.46-3.63-26-6.54,2.69-16.65,4.15-49.15,6-63.33.8-6.12,4-18.75,4-20.6-.93-1.35,0-3.12.44-4.67C316,60,320.6,71.07,325.6,74.43,323.75,86.71,336.41,132.83,341.23,143.3Z"/><path class="cls-3" d="M315.11,154.91c-8.13,0-20.73-4.14-23.15-6.91a.29.29,0,0,1-.07-.25c1.56-9.61,2.72-24.76,3.75-38.13.75-9.87,1.47-19.2,2.25-25.19.43-3.3,1.53-8.36,2.51-12.83.78-3.58,1.46-6.69,1.51-7.64-.76-1.2-.27-2.65.16-3.93.1-.31.21-.62.29-.91a.31.31,0,0,1,.32-.23c9.64.59,14.67,6.34,18.72,11a25.93,25.93,0,0,0,4.37,4.33.32.32,0,0,1,.14.3c-1.86,12.28,10.84,58.35,15.6,68.7a.32.32,0,0,1,0,.27c-1.77,3.68-9,7.66-16.82,9.26-.78.14-3-2.18-4.45-3.89-.49,2.71-1.2,5.69-2,5.84A16.93,16.93,0,0,1,315.11,154.91Zm-22.58-7.21c2.66,2.72,18.1,7.8,25.61,6.34.39-.26,1.14-3.31,1.6-6a.33.33,0,0,1,.22-.25.31.31,0,0,1,.32.1c1.69,2,3.81,4.16,4.3,4.18,7.54-1.54,14.51-5.3,16.31-8.79-4.81-10.59-17.33-56.12-15.63-68.72a27.41,27.41,0,0,1-4.33-4.32c-3.93-4.48-8.82-10.06-18-10.72-.07.23-.15.46-.23.7-.42,1.23-.85,2.51-.18,3.46a.37.37,0,0,1,0,.18A74.34,74.34,0,0,1,301,71.74c-1,4.45-2.08,9.5-2.5,12.77-.78,6-1.5,15.3-2.25,25.16C295.23,123,294.07,138.06,292.53,147.7Z"/><path class="cls-4" d="M351.22,111.8c3.43-.31,4.39.54,7.79,0,2.83-.44,4.41-2.16,6.39-2.89,3.34-1.23,6,1.5,7.27.61,1.55-1.1-1.33-4.25-7.08-5.08-4.56-.66-11.93,1.85-14.1,3.65"/><path class="cls-3" d="M356.83,112.3a17.48,17.48,0,0,1-2-.13,17.19,17.19,0,0,0-3.6-.06.29.29,0,0,1-.34-.28.31.31,0,0,1,.28-.34,17.58,17.58,0,0,1,3.72.06,13.54,13.54,0,0,0,4-.06,10.68,10.68,0,0,0,4.11-1.72,13.16,13.16,0,0,1,2.23-1.16,7.29,7.29,0,0,1,5.16.37c.91.32,1.63.57,2,.29a.63.63,0,0,0,.26-.73c-.28-1.15-2.76-3.15-7.2-3.79s-11.65,1.75-13.86,3.58a.31.31,0,1,1-.4-.48c2.3-1.9,9.79-4.38,14.35-3.72s7.33,2.68,7.71,4.26a1.25,1.25,0,0,1-.5,1.39c-.66.47-1.56.15-2.6-.21a6.71,6.71,0,0,0-4.74-.37,12.69,12.69,0,0,0-2.12,1.11,11.64,11.64,0,0,1-4.33,1.8A14,14,0,0,1,356.83,112.3Z"/><path class="cls-6" d="M304.66,91.32c0,4.72,1.47,19.31,7.73,26.42,6.87,2.78,28.17-.68,35.65-4.41.94-.5,3.1.08,4-.48,1.2-2,.51-4.15-.15-6.42-1.07-.24-19.44-2.48-29.75-.9-.31-3.59,0-18.42-3.7-27.56-1.51-3.68-4.74-6.68-7.32-7.28-1.68-1,.58-2.68-1.78-3.55"/><path class="cls-3" d="M319.86,119.05a21.86,21.86,0,0,1-7.59-1l-.11-.08c-6.38-7.25-7.81-22-7.81-26.63a.31.31,0,1,1,.62,0c0,4.53,1.4,19,7.6,26.16,7,2.74,28.15-.85,35.33-4.43a4.68,4.68,0,0,1,2.09-.25,4.48,4.48,0,0,0,1.79-.18c1-1.81.49-3.68-.14-5.83l0-.09c-2.3-.4-19.78-2.34-29.46-.86a.29.29,0,0,1-.23-.07.27.27,0,0,1-.12-.22c-.06-.7-.1-1.81-.14-3.22-.19-5.91-.54-16.92-3.54-24.24-1.41-3.44-4.46-6.49-7.1-7.1l-.09,0a1.72,1.72,0,0,1-.8-2c.07-.7.12-1.16-.93-1.55A.3.3,0,0,1,309,67a.31.31,0,0,1,.4-.18,1.76,1.76,0,0,1,1.33,2.2c-.06.57-.1,1,.46,1.34,2.81.68,6,3.88,7.48,7.46,3.05,7.43,3.4,18.51,3.59,24.46,0,1.19.07,2.17.11,2.86,10.64-1.52,28.69.76,29.53,1a.28.28,0,0,1,.23.21l.08.27c.66,2.23,1.27,4.33,0,6.4a.32.32,0,0,1-.1.1,4.22,4.22,0,0,1-2.2.32,4.4,4.4,0,0,0-1.8.17C342.72,116.33,329.24,119.05,319.86,119.05Z"/><path class="cls-3" d="M348,113.33c1-.46,2.7.11,4-.48,1.07-2.27,1.7-4.1.89-6.5-.75-.77-2.77-.32-4.09-.32Z"/><path class="cls-3" d="M348,113.64a.28.28,0,0,1-.18-.06.29.29,0,0,1-.13-.28l.77-7.3a.31.31,0,0,1,.31-.28c.34,0,.72,0,1.11-.06,1.26-.09,2.55-.2,3.2.48a.28.28,0,0,1,.08.11c.87,2.61.1,4.59-.91,6.73a.28.28,0,0,1-.15.15,5.26,5.26,0,0,1-2.34.32,4.08,4.08,0,0,0-1.63.16Zm1-7.3-.69,6.55a8,8,0,0,1,1.41-.07,4.93,4.93,0,0,0,2-.21c1.11-2.36,1.54-4,.85-6.08-.48-.42-1.64-.33-2.66-.25Z"/><path class="cls-3" d="M265.54,231.61a8.53,8.53,0,0,0-6.07,3.64c-.26,3.49,6,12,9.67,15.68,2.06,2,11.18,2.74,11.31.95.18-2.46-3.26-3.53-4.57-4.55s-2.24-4.38-2.3-7C269,240.16,266,234.82,265.54,231.61Z"/><path class="cls-3" d="M277,253.23c-2.95,0-6.81-.79-8.1-2.08-3.46-3.44-10.05-12.17-9.77-15.93a.3.3,0,0,1,0-.15,8.89,8.89,0,0,1,6.3-3.77.33.33,0,0,1,.34.27c.45,3.35,3.46,8.29,7.74,8.47a.31.31,0,0,1,.3.31c.06,2.48.95,5.78,2.18,6.73a10.51,10.51,0,0,0,1.26.78c1.51.84,3.58,2,3.43,4,0,.42-.34.74-.92,1A8.65,8.65,0,0,1,277,253.23Zm-17.26-17.88c-.13,3.26,5.61,11.39,9.59,15.36,1.6,1.58,8.09,2.38,10.26,1.56.19-.07.5-.21.52-.41.12-1.65-1.67-2.65-3.11-3.46a11.12,11.12,0,0,1-1.35-.82c-1.35-1.07-2.28-4.36-2.4-6.93-4.34-.39-7.4-5.22-8-8.69A8.22,8.22,0,0,0,259.77,235.35Z"/><path class="cls-3" d="M349.24,250.28a13.45,13.45,0,0,0,1.15,8.26c1.44.82,15-1.91,18.63-2.88,5.65-1.51,6.24-2.58,7.18-3.82s.19-3.2-3.34-3.05-6.95.88-12.64-1.17C358.26,250.48,352.55,252.1,349.24,250.28Z"/><path class="cls-3" d="M351.51,259a3,3,0,0,1-1.27-.18.29.29,0,0,1-.13-.14,13.58,13.58,0,0,1-1.17-8.44.29.29,0,0,1,.17-.23.31.31,0,0,1,.28,0c3.24,1.78,8.79,0,10.57-2.57a.32.32,0,0,1,.36-.12,23,23,0,0,0,10.74,1.26c.6,0,1.19-.08,1.79-.1,1.94-.08,3.31.45,3.83,1.46a1.93,1.93,0,0,1-.23,2.09l-.13.16c-.92,1.23-1.73,2.3-7.22,3.77C366.29,256.72,355.44,259,351.51,259Zm-.89-.69c1.61.57,14.16-1.82,18.32-2.94,5.29-1.42,6-2.4,6.89-3.54l.13-.17a1.31,1.31,0,0,0,.17-1.42c-.41-.79-1.62-1.2-3.25-1.13-.59,0-1.18.06-1.78.11A23.82,23.82,0,0,1,360.33,248c-2,2.65-7.35,4.34-10.85,2.76A13,13,0,0,0,350.62,258.3Z"/><path class="cls-7" d="M432.1,179.87l-2.83,19.27a31.77,31.77,0,0,0,3.51,19.76l11.6,21.35,15.11-10"/><path class="cls-3" d="M444.38,240.56h-.07a.31.31,0,0,1-.2-.15l-11.6-21.35a32.25,32.25,0,0,1-3.55-20l2.84-19.27a.31.31,0,1,1,.61.09l-2.83,19.27a31.59,31.59,0,0,0,3.48,19.57l11.43,21.05L459.32,230a.31.31,0,0,1,.43.09.3.3,0,0,1-.09.43l-15.11,10A.34.34,0,0,1,444.38,240.56Z"/><ellipse class="cls-3" cx="445.8" cy="239.54" rx="14.24" ry="14.3"/><path class="cls-3" d="M445.8,254.14a14.61,14.61,0,1,1,14.55-14.6A14.59,14.59,0,0,1,445.8,254.14Zm0-28.59a14,14,0,1,0,13.93,14A14,14,0,0,0,445.8,225.55Z"/><ellipse class="cls-8" cx="445.8" cy="239.54" rx="9.08" ry="9.11"/><path class="cls-3" d="M445.8,249a9.43,9.43,0,1,1,9.39-9.42A9.42,9.42,0,0,1,445.8,249Zm0-18.23a8.81,8.81,0,1,0,8.77,8.81A8.8,8.8,0,0,0,445.8,230.73Z"/><ellipse class="cls-3" cx="445.8" cy="239.54" rx="3.36" ry="3.37"/><path class="cls-3" d="M445.8,243.22a3.69,3.69,0,1,1,3.67-3.68A3.68,3.68,0,0,1,445.8,243.22Zm0-6.75a3.07,3.07,0,1,0,3.05,3.07A3.07,3.07,0,0,0,445.8,236.47Z"/><path class="cls-3" d="M510.09,218.81l-33.4,18.33a4.38,4.38,0,0,1-5.95-1.76l-18.26-33.52a4.42,4.42,0,0,1,1.75-6l33.4-18.33a4.39,4.39,0,0,1,6,1.76l18.25,33.51A4.43,4.43,0,0,1,510.09,218.81Z"/><path class="cls-3" d="M474.6,238a4.71,4.71,0,0,1-4.14-2.46L452.21,202a4.76,4.76,0,0,1,1.87-6.42l33.4-18.32a4.68,4.68,0,0,1,6.38,1.88l18.25,33.51a4.74,4.74,0,0,1-1.87,6.42h0l-33.4,18.32A4.65,4.65,0,0,1,474.6,238Zm15.13-60.67a4,4,0,0,0-2,.51l-33.4,18.32a4.12,4.12,0,0,0-1.62,5.57L471,235.23a4.07,4.07,0,0,0,2.43,2,4,4,0,0,0,3.11-.34l33.39-18.32a4.12,4.12,0,0,0,1.63-5.57l-18.26-33.51a4,4,0,0,0-2.43-2A4.16,4.16,0,0,0,489.73,177.32Zm20.36,41.49h0Z"/><path class="cls-2" d="M500.09,186.41l-45.16,24.78-5.77-10.58a4,4,0,0,1,1.58-5.43l38.19-21a4,4,0,0,1,5.4,1.59Z"/><path class="cls-3" d="M454.93,211.51a.33.33,0,0,1-.28-.16l-5.76-10.6a4.33,4.33,0,0,1,1.7-5.85l38.19-21a4.3,4.3,0,0,1,5.82,1.72l5.77,10.59a.29.29,0,0,1,0,.24.29.29,0,0,1-.15.19l-45.16,24.78A.28.28,0,0,1,454.93,211.51Zm35.9-37.46a3.72,3.72,0,0,0-1.76.45l-38.18,20.95a3.71,3.71,0,0,0-1.46,5l5.62,10.31,44.62-24.48L494.05,176A3.67,3.67,0,0,0,490.83,174.05Z"/><path class="cls-2" d="M489.35,205.58l-12.55,6.89a.93.93,0,0,1-1.27-.38l-3-5.55a.94.94,0,0,1,.38-1.28l12.55-6.89a.94.94,0,0,1,1.27.38l3,5.55A1,1,0,0,1,489.35,205.58Z"/><path class="cls-3" d="M476.35,212.89a1.25,1.25,0,0,1-1.1-.65l-3-5.55a1.26,1.26,0,0,1,.5-1.7l12.55-6.89a1.21,1.21,0,0,1,1-.1,1.23,1.23,0,0,1,.74.6l3,5.55a1.25,1.25,0,0,1-.5,1.7L477,212.74A1.19,1.19,0,0,1,476.35,212.89Zm9.53-14.32a.61.61,0,0,0-.3.08L473,205.54a.65.65,0,0,0-.3.37.62.62,0,0,0,.06.48l3,5.55a.62.62,0,0,0,.85.25l12.55-6.88h0a.63.63,0,0,0,.3-.38.62.62,0,0,0-.05-.48l-3-5.55a.58.58,0,0,0-.37-.3Z"/><path class="cls-3" d="M486.21,175.64,452.81,194a4.38,4.38,0,0,1-5.95-1.75L428.6,158.69a4.43,4.43,0,0,1,1.75-6l33.4-18.32a4.38,4.38,0,0,1,6,1.75L488,169.65A4.43,4.43,0,0,1,486.21,175.64Z"/><path class="cls-3" d="M450.71,194.81a4.58,4.58,0,0,1-1.32-.19,4.69,4.69,0,0,1-2.81-2.26l-18.25-33.52a4.75,4.75,0,0,1,1.87-6.42l33.4-18.32A4.71,4.71,0,0,1,470,136l18.25,33.52a4.73,4.73,0,0,1-1.87,6.41h0L453,194.23A4.6,4.6,0,0,1,450.71,194.81Zm15.14-60.66a4.07,4.07,0,0,0-2,.5L430.5,153a4.11,4.11,0,0,0-1.62,5.57l18.25,33.52a4.06,4.06,0,0,0,2.43,2,4,4,0,0,0,3.1-.34l33.4-18.32a4.11,4.11,0,0,0,1.63-5.56l-18.26-33.52a4,4,0,0,0-2.43-2A4.14,4.14,0,0,0,465.85,134.15Zm20.36,41.49h0Z"/><path class="cls-2" d="M475.79,142.46l-45.17,24.78-5.77-10.59a4,4,0,0,1,1.59-5.43l38.18-20.95a4,4,0,0,1,5.4,1.59Z"/><path class="cls-3" d="M430.62,167.55a.32.32,0,0,1-.27-.16l-5.77-10.59a4.31,4.31,0,0,1-.35-3.28,4.24,4.24,0,0,1,2.06-2.57L464.47,130a4.28,4.28,0,0,1,5.82,1.71l5.77,10.6a.31.31,0,0,1,0,.23.32.32,0,0,1-.15.19l-45.17,24.78A.28.28,0,0,1,430.62,167.55Zm35.9-37.45a3.59,3.59,0,0,0-1.75.45L426.59,151.5a3.63,3.63,0,0,0-1.76,2.19,3.67,3.67,0,0,0,.3,2.81l5.62,10.32,44.62-24.49L469.75,132A3.68,3.68,0,0,0,466.52,130.1Z"/><path class="cls-2" d="M465.05,161.62l-12.56,6.89a.94.94,0,0,1-1.27-.37l-3-5.56a.94.94,0,0,1,.37-1.27l12.56-6.89a.94.94,0,0,1,1.27.37l3,5.56A.94.94,0,0,1,465.05,161.62Z"/><path class="cls-3" d="M452.05,168.94a1.49,1.49,0,0,1-.36-.05,1.26,1.26,0,0,1-.74-.6l-3-5.56a1.25,1.25,0,0,1,.49-1.7L461,154.14a1.21,1.21,0,0,1,.95-.1,1.26,1.26,0,0,1,.74.6l3,5.56a1.26,1.26,0,0,1,.11,1,1.28,1.28,0,0,1-.6.75l-12.56,6.89A1.23,1.23,0,0,1,452.05,168.94Zm9.52-14.32a.59.59,0,0,0-.29.07l-12.56,6.89a.61.61,0,0,0-.3.38.59.59,0,0,0,.05.47l3,5.56a.61.61,0,0,0,.37.3.59.59,0,0,0,.47,0l12.56-6.89h0a.63.63,0,0,0,.25-.85l-3-5.56a.61.61,0,0,0-.37-.3A.55.55,0,0,0,461.57,154.62Z"/><path class="cls-3" d="M451.16,137.2l-23.92,13.12a3.14,3.14,0,0,1-4.26-1.26l-13.08-24a3.17,3.17,0,0,1,1.26-4.29l23.91-13.12a3.14,3.14,0,0,1,4.27,1.26l13.07,24A3.18,3.18,0,0,1,451.16,137.2Z"/><path class="cls-3" d="M425.74,151a3.68,3.68,0,0,1-1-.14,3.45,3.45,0,0,1-2.06-1.67l-13.07-24A3.48,3.48,0,0,1,411,120.5l23.91-13.12a3.44,3.44,0,0,1,4.69,1.38l13.07,24a3.48,3.48,0,0,1-1.37,4.71h0l-23.92,13.12A3.33,3.33,0,0,1,425.74,151Zm10.83-43.45a2.83,2.83,0,0,0-1.35.35l-23.91,13.13a2.84,2.84,0,0,0-1.13,3.86l13.07,24a2.82,2.82,0,0,0,1.69,1.37,2.78,2.78,0,0,0,2.15-.24L451,136.92a2.85,2.85,0,0,0,1.13-3.86l-13.07-24a2.87,2.87,0,0,0-1.69-1.37A2.84,2.84,0,0,0,436.57,107.57Zm14.59,29.63h0Z"/><path class="cls-2" d="M443.85,113.41l-32.34,17.74-4.13-7.58a2.87,2.87,0,0,1,1.13-3.89l27.34-15a2.84,2.84,0,0,1,3.87,1.14Z"/><path class="cls-3" d="M411.51,131.46a.31.31,0,0,1-.28-.16l-4.13-7.58a3.19,3.19,0,0,1,1.26-4.31l27.34-15a3.15,3.15,0,0,1,4.29,1.26l4.14,7.59a.36.36,0,0,1,0,.23.32.32,0,0,1-.15.19l-32.34,17.75Zm25.71-26.82A2.63,2.63,0,0,0,436,105l-27.34,15a2.56,2.56,0,0,0-1,3.46l4,7.31,31.8-17.45-4-7.31a2.58,2.58,0,0,0-1.52-1.23A2.44,2.44,0,0,0,437.22,104.64Z"/><path class="cls-2" d="M435.6,127.09l-9,4.93a.66.66,0,0,1-.91-.27l-2.17-4a.68.68,0,0,1,.27-.92l9-4.93a.66.66,0,0,1,.91.27l2.17,4A.68.68,0,0,1,435.6,127.09Z"/><path class="cls-3" d="M426.29,132.42a1,1,0,0,1-.86-.52l-2.17-4a1,1,0,0,1,.39-1.34l9-4.93a1,1,0,0,1,1.33.39l2.17,4a1,1,0,0,1,.08.75.93.93,0,0,1-.47.59h0l-9,4.94A1,1,0,0,1,426.29,132.42Zm6.82-10.26a.35.35,0,0,0-.17,0l-9,4.94a.35.35,0,0,0-.14.49l2.16,4a.36.36,0,0,0,.49.15l9-4.94a.33.33,0,0,0,.17-.21.35.35,0,0,0,0-.28l-2.16-4A.37.37,0,0,0,433.11,122.16Zm2.49,4.93h0Z"/><path class="cls-7" d="M507.16,220.84l-31,16.85a8.05,8.05,0,0,1-10.93-3.23L399.57,113.58a3,3,0,0,0-2.74-1.59H367.39v2.73H396.7l66.19,121.82a10.42,10.42,0,0,0,14.16,4.18L505.94,225A3.08,3.08,0,0,0,507.16,220.84Z"/><path class="cls-3" d="M472.07,242.3a10.74,10.74,0,0,1-9.45-5.62L396.52,115H367.39a.31.31,0,0,1-.32-.31V112a.31.31,0,0,1,.32-.31h29.52a3.34,3.34,0,0,1,2.93,1.75l65.69,120.88a7.73,7.73,0,0,0,10.5,3.1l31-16.84a.3.3,0,0,1,.42.12,3.39,3.39,0,0,1-1.34,4.59L477.2,241A10.62,10.62,0,0,1,472.07,242.3ZM367.7,114.4h29a.3.3,0,0,1,.27.17l66.2,121.81a10.1,10.1,0,0,0,13.73,4.05l28.89-15.7a2.76,2.76,0,0,0,1.23-3.46L476.33,238A8.36,8.36,0,0,1,465,234.61L399.3,113.73a2.74,2.74,0,0,0-2.42-1.43H367.7Z"/><ellipse class="cls-3" cx="367.39" cy="113.13" rx="3.53" ry="3.55"/><path class="cls-3" d="M367.39,117a3.86,3.86,0,1,1,3.84-3.86A3.86,3.86,0,0,1,367.39,117Zm0-7.1a3.24,3.24,0,1,0,3.22,3.24A3.24,3.24,0,0,0,367.39,109.89Z"/><path class="cls-7" d="M506.09,231.38h0a1.69,1.69,0,0,1-2.32-.63l-2-3.43,2.95-1.71,2,3.43A1.72,1.72,0,0,1,506.09,231.38Z"/><path class="cls-3" d="M505.24,231.92a2,2,0,0,1-1.74-1l-2-3.44a.31.31,0,0,1,0-.23.3.3,0,0,1,.14-.19l2.95-1.71a.31.31,0,0,1,.43.11l2,3.44a2,2,0,0,1-.73,2.76h0A2,2,0,0,1,505.24,231.92Zm.69-.81.16.27-.16-.27a1.39,1.39,0,0,0,.51-1.91L504.62,226l-2.41,1.39L504,230.6A1.4,1.4,0,0,0,505.93,231.11Z"/><path class="cls-3" d="M322.22,78.52a.3.3,0,0,1-.3-.26c-.82-4.92-6.11-10.13-10.75-12.31a22.1,22.1,0,0,0-6.42-1.42l-2.57-.35a.33.33,0,0,1-.27-.36.3.3,0,0,1,.36-.26c.89.14,1.74.25,2.56.35a22.57,22.57,0,0,1,6.6,1.47c4.73,2.23,10.22,7.46,11.1,12.78a.32.32,0,0,1-.26.36Z"/><path class="cls-6" d="M320.05,148.1c-1.67-5.62-1.5-13.63-4.84-22.16"/><path class="cls-3" d="M320.05,148.42a.31.31,0,0,1-.3-.23,55.22,55.22,0,0,1-1.44-7.59,63.19,63.19,0,0,0-3.39-14.54.33.33,0,0,1,.18-.41.31.31,0,0,1,.4.18,63.82,63.82,0,0,1,3.42,14.68,56.9,56.9,0,0,0,1.42,7.51.3.3,0,0,1-.2.38Z"/></g></g></g></svg>