<svg xmlns="http://www.w3.org/2000/svg" viewBox="0 0 1080 264"><defs><style>.cls-1{isolation:isolate;}.cls-2{fill:#fff;}.cls-3{fill:#363c66;}.cls-4{fill:#9b9db3;}.cls-5,.cls-8{fill:#cdced9;}.cls-5{opacity:0.5;mix-blend-mode:multiply;}.cls-6{fill:#fff4cc;}.cls-7{fill:#686d8c;}</style></defs><title>Asset 25</title><g class="cls-1"><g id="Layer_2" data-name="Layer 2"><g id="Layer_2-2" data-name="Layer 2"><rect class="cls-2" x="3.69" y="125.04" width="66.19" height="66.57" rx="6.37"/><path class="cls-3" d="M63.52,191.91H10.05a6.69,6.69,0,0,1-6.67-6.69v-53.8a6.69,6.69,0,0,1,6.67-6.7H63.52a6.69,6.69,0,0,1,6.67,6.7v53.8A6.69,6.69,0,0,1,63.52,191.91ZM10.05,125.35A6.07,6.07,0,0,0,4,131.42v53.8a6.07,6.07,0,0,0,6.05,6.07H63.52a6.06,6.06,0,0,0,6-6.07v-53.8a6.06,6.06,0,0,0-6-6.07Z"/><path class="cls-2" d="M6.82,120.24H66.75a6.51,6.51,0,0,1,6.51,6.51v17.33a0,0,0,0,1,0,0H.31a0,0,0,0,1,0,0V126.76A6.51,6.51,0,0,1,6.82,120.24Z"/><path class="cls-3" d="M73.26,144.4H.31a.31.31,0,0,1-.31-.32V126.77a6.84,6.84,0,0,1,6.81-6.84h60a6.83,6.83,0,0,1,6.81,6.84v17.31A.31.31,0,0,1,73.26,144.4ZM.62,143.77H73v-17a6.21,6.21,0,0,0-6.19-6.22H6.81a6.21,6.21,0,0,0-6.19,6.22Z"/><rect class="cls-2" x="24.94" y="148.69" width="23.69" height="11.24" rx="1.2"/><path class="cls-3" d="M47.43,160.24H26.14a1.52,1.52,0,0,1-1.51-1.52V149.9a1.52,1.52,0,0,1,1.51-1.52H47.43a1.52,1.52,0,0,1,1.51,1.52v8.82A1.52,1.52,0,0,1,47.43,160.24ZM26.14,149a.89.89,0,0,0-.89.9v8.82a.9.9,0,0,0,.89.9H47.43a.9.9,0,0,0,.89-.9V149.9a.89.89,0,0,0-.89-.9Z"/><rect class="cls-2" x="79.69" y="125.04" width="66.19" height="66.57" rx="6.37"/><path class="cls-3" d="M139.52,191.91H86a6.68,6.68,0,0,1-6.66-6.69v-53.8a6.69,6.69,0,0,1,6.66-6.7h53.48a6.69,6.69,0,0,1,6.66,6.7v53.8A6.68,6.68,0,0,1,139.52,191.91ZM86,125.35a6.06,6.06,0,0,0-6,6.07v53.8a6.06,6.06,0,0,0,6,6.07h53.48a6.06,6.06,0,0,0,6-6.07v-53.8a6.06,6.06,0,0,0-6-6.07Z"/><path class="cls-2" d="M82.82,120.24h59.92a6.51,6.51,0,0,1,6.51,6.51v17.33a0,0,0,0,1,0,0H76.31a0,0,0,0,1,0,0V126.76A6.51,6.51,0,0,1,82.82,120.24Z"/><path class="cls-3" d="M149.25,144.4H76.31a.32.32,0,0,1-.32-.32V126.77a6.84,6.84,0,0,1,6.82-6.84h59.94a6.84,6.84,0,0,1,6.82,6.84v17.31A.32.32,0,0,1,149.25,144.4Zm-72.63-.63h72.32v-17a6.21,6.21,0,0,0-6.19-6.22H82.81a6.21,6.21,0,0,0-6.19,6.22Z"/><rect class="cls-2" x="100.94" y="148.69" width="23.69" height="11.24" rx="1.2"/><path class="cls-3" d="M123.42,160.24H102.14a1.51,1.51,0,0,1-1.51-1.52V149.9a1.51,1.51,0,0,1,1.51-1.52h21.28a1.51,1.51,0,0,1,1.51,1.52v8.82A1.51,1.51,0,0,1,123.42,160.24ZM102.14,149a.89.89,0,0,0-.89.9v8.82a.9.9,0,0,0,.89.9h21.28a.9.9,0,0,0,.89-.9V149.9a.89.89,0,0,0-.89-.9Z"/><rect class="cls-2" x="155.68" y="125.04" width="66.19" height="66.57" rx="6.37"/><path class="cls-3" d="M215.51,191.91H162a6.69,6.69,0,0,1-6.67-6.69v-53.8a6.69,6.69,0,0,1,6.67-6.7h53.47a6.69,6.69,0,0,1,6.67,6.7v53.8A6.69,6.69,0,0,1,215.51,191.91ZM162,125.35a6.06,6.06,0,0,0-6,6.07v53.8a6.06,6.06,0,0,0,6,6.07h53.47a6.07,6.07,0,0,0,6.05-6.07v-53.8a6.07,6.07,0,0,0-6.05-6.07Z"/><path class="cls-2" d="M158.81,120.24h59.92a6.51,6.51,0,0,1,6.51,6.51v17.33a0,0,0,0,1,0,0H152.3a0,0,0,0,1,0,0V126.76A6.51,6.51,0,0,1,158.81,120.24Z"/><path class="cls-3" d="M225.25,144.4H152.3a.31.31,0,0,1-.31-.32V126.77a6.83,6.83,0,0,1,6.81-6.84h59.95a6.84,6.84,0,0,1,6.81,6.84v17.31A.31.31,0,0,1,225.25,144.4Zm-72.64-.63h72.33v-17a6.21,6.21,0,0,0-6.19-6.22H158.8a6.21,6.21,0,0,0-6.19,6.22Z"/><rect class="cls-2" x="176.93" y="148.69" width="23.69" height="11.24" rx="1.2"/><path class="cls-3" d="M199.42,160.24H178.13a1.52,1.52,0,0,1-1.51-1.52V149.9a1.52,1.52,0,0,1,1.51-1.52h21.29a1.52,1.52,0,0,1,1.51,1.52v8.82A1.52,1.52,0,0,1,199.42,160.24ZM178.13,149a.89.89,0,0,0-.89.9v8.82a.9.9,0,0,0,.89.9h21.29a.9.9,0,0,0,.89-.9V149.9a.89.89,0,0,0-.89-.9Z"/><rect class="cls-2" x="119.1" y="50.4" width="66.19" height="66.57" rx="6.37"/><path class="cls-3" d="M178.93,117.28H125.45a6.69,6.69,0,0,1-6.67-6.7V56.78a6.69,6.69,0,0,1,6.67-6.69h53.48a6.68,6.68,0,0,1,6.66,6.69v53.8A6.69,6.69,0,0,1,178.93,117.28ZM125.45,50.71a6.07,6.07,0,0,0-6,6.07v53.8a6.06,6.06,0,0,0,6,6.07h53.48a6.06,6.06,0,0,0,6-6.07V56.78a6.07,6.07,0,0,0-6-6.07Z"/><path class="cls-2" d="M122.23,45.61h59.92a6.51,6.51,0,0,1,6.51,6.51V69.45a0,0,0,0,1,0,0H115.72a0,0,0,0,1,0,0V52.12A6.51,6.51,0,0,1,122.23,45.61Z"/><path class="cls-3" d="M188.66,69.76H115.71a.31.31,0,0,1-.31-.31V52.13a6.84,6.84,0,0,1,6.82-6.84h59.94A6.84,6.84,0,0,1,189,52.13V69.45A.31.31,0,0,1,188.66,69.76ZM116,69.14h72.32v-17a6.21,6.21,0,0,0-6.19-6.21H122.22A6.21,6.21,0,0,0,116,52.13Z"/><rect class="cls-2" x="140.35" y="74.05" width="23.69" height="11.24" rx="1.2"/><path class="cls-3" d="M162.83,85.6H141.55A1.51,1.51,0,0,1,140,84.09V75.26a1.51,1.51,0,0,1,1.51-1.52h21.28a1.52,1.52,0,0,1,1.51,1.52v8.83A1.52,1.52,0,0,1,162.83,85.6ZM141.55,74.37a.89.89,0,0,0-.89.89v8.83a.89.89,0,0,0,.89.89h21.28a.89.89,0,0,0,.89-.89V75.26a.89.89,0,0,0-.89-.89Z"/><rect class="cls-2" x="132.96" y="3.43" width="38.68" height="38.9" rx="3.72"/><path class="cls-3" d="M167.93,42.64H136.67a4,4,0,0,1-4-4V7.16a4,4,0,0,1,4-4h31.26a4,4,0,0,1,4,4V38.6A4,4,0,0,1,167.93,42.64ZM136.67,3.74a3.41,3.41,0,0,0-3.4,3.42V38.6a3.41,3.41,0,0,0,3.4,3.42h31.26a3.41,3.41,0,0,0,3.4-3.42V7.16a3.41,3.41,0,0,0-3.4-3.42Z"/><path class="cls-2" d="M134.79.63h35a3.81,3.81,0,0,1,3.81,3.81V14.56a0,0,0,0,1,0,0H131a0,0,0,0,1,0,0V4.43A3.81,3.81,0,0,1,134.79.63Z"/><path class="cls-3" d="M173.62,14.87H131a.31.31,0,0,1-.31-.31V4.44A4.13,4.13,0,0,1,134.78.31h35a4.13,4.13,0,0,1,4.11,4.13V14.56A.31.31,0,0,1,173.62,14.87Zm-42.33-.62h42V4.44a3.5,3.5,0,0,0-3.49-3.5h-35a3.5,3.5,0,0,0-3.49,3.5Z"/><rect class="cls-2" x="145.38" y="17.25" width="13.84" height="6.57" rx="0.7"/><path class="cls-3" d="M158.52,24.13H146.08a1,1,0,0,1-1-1V18a1,1,0,0,1,1-1h12.44a1,1,0,0,1,1,1v5.15A1,1,0,0,1,158.52,24.13Zm-12.44-6.57a.4.4,0,0,0-.39.4v5.15a.4.4,0,0,0,.39.4h12.44a.39.39,0,0,0,.39-.4V18a.39.39,0,0,0-.39-.4Z"/><rect class="cls-2" x="244.28" y="77.12" width="38.68" height="38.9" rx="3.72"/><path class="cls-3" d="M279.24,116.34H248a4,4,0,0,1-4-4V80.85a4,4,0,0,1,4-4h31.25a4,4,0,0,1,4,4v31.44A4,4,0,0,1,279.24,116.34ZM248,77.43a3.41,3.41,0,0,0-3.4,3.42v31.44a3.41,3.41,0,0,0,3.4,3.42h31.25a3.42,3.42,0,0,0,3.41-3.42V80.85a3.42,3.42,0,0,0-3.41-3.42Z"/><path class="cls-2" d="M246.11,74.32h35a3.81,3.81,0,0,1,3.81,3.81V88.25a0,0,0,0,1,0,0H242.3a0,0,0,0,1,0,0V78.13A3.81,3.81,0,0,1,246.11,74.32Z"/><path class="cls-3" d="M284.93,88.56H242.3a.31.31,0,0,1-.31-.31V78.13A4.12,4.12,0,0,1,246.1,74h35a4.12,4.12,0,0,1,4.11,4.12V88.25A.31.31,0,0,1,284.93,88.56Zm-42.32-.62h42V78.13a3.5,3.5,0,0,0-3.49-3.5h-35a3.5,3.5,0,0,0-3.49,3.5Z"/><rect class="cls-2" x="256.7" y="90.94" width="13.84" height="6.57" rx="0.7"/><path class="cls-3" d="M269.84,97.82H257.4a1,1,0,0,1-1-1V91.65a1,1,0,0,1,1-1h12.44a1,1,0,0,1,1,1v5.16A1,1,0,0,1,269.84,97.82ZM257.4,91.26a.38.38,0,0,0-.39.39v5.16a.39.39,0,0,0,.39.39h12.44a.4.4,0,0,0,.39-.39V91.65a.39.39,0,0,0-.39-.39Z"/><rect class="cls-2" x="53.54" y="33.08" width="38.68" height="38.9" rx="3.72"/><path class="cls-3" d="M88.5,72.3H57.25a4,4,0,0,1-4-4V36.81a4,4,0,0,1,4-4H88.5a4,4,0,0,1,4,4V68.26A4,4,0,0,1,88.5,72.3ZM57.25,33.39a3.42,3.42,0,0,0-3.4,3.42V68.26a3.41,3.41,0,0,0,3.4,3.41H88.5a3.41,3.41,0,0,0,3.41-3.41V36.81a3.42,3.42,0,0,0-3.41-3.42Z"/><path class="cls-2" d="M55.37,30.28h35a3.81,3.81,0,0,1,3.81,3.81V44.21a0,0,0,0,1,0,0H51.56a0,0,0,0,1,0,0V34.09A3.81,3.81,0,0,1,55.37,30.28Z"/><path class="cls-3" d="M94.2,44.53H51.56a.31.31,0,0,1-.31-.32V34.09A4.12,4.12,0,0,1,55.36,30h35a4.12,4.12,0,0,1,4.11,4.12V44.21A.31.31,0,0,1,94.2,44.53ZM51.87,43.9h42V34.09a3.49,3.49,0,0,0-3.48-3.5h-35a3.5,3.5,0,0,0-3.49,3.5Z"/><rect class="cls-2" x="65.96" y="46.91" width="13.84" height="6.57" rx="0.7"/><path class="cls-3" d="M79.1,53.79H66.66a1,1,0,0,1-1-1V47.61a1,1,0,0,1,1-1H79.1a1,1,0,0,1,1,1v5.16A1,1,0,0,1,79.1,53.79ZM66.66,47.22a.38.38,0,0,0-.39.39v5.16a.38.38,0,0,0,.39.39H79.1a.39.39,0,0,0,.39-.39V47.61a.39.39,0,0,0-.39-.39Z"/><rect class="cls-2" x="76.2" y="78.06" width="38.68" height="38.9" rx="3.72"/><path class="cls-3" d="M111.16,117.28H79.91a4,4,0,0,1-4-4V81.79a4,4,0,0,1,4-4h31.25a4,4,0,0,1,4,4v31.45A4,4,0,0,1,111.16,117.28ZM79.91,78.38a3.41,3.41,0,0,0-3.4,3.41v31.45a3.41,3.41,0,0,0,3.4,3.41h31.25a3.41,3.41,0,0,0,3.41-3.41V81.79a3.41,3.41,0,0,0-3.41-3.41Z"/><path class="cls-2" d="M78,75.26h35a3.81,3.81,0,0,1,3.81,3.81V89.2a0,0,0,0,1,0,0H74.22a0,0,0,0,1,0,0V79.07A3.81,3.81,0,0,1,78,75.26Z"/><path class="cls-3" d="M116.85,89.51H74.22a.31.31,0,0,1-.31-.31V79.08A4.12,4.12,0,0,1,78,75h35a4.12,4.12,0,0,1,4.11,4.13V89.2A.31.31,0,0,1,116.85,89.51Zm-42.32-.63h42v-9.8a3.5,3.5,0,0,0-3.49-3.51H78a3.5,3.5,0,0,0-3.49,3.51Z"/><rect class="cls-2" x="88.61" y="91.89" width="13.84" height="6.57" rx="0.7"/><path class="cls-3" d="M101.76,98.77H89.32a1,1,0,0,1-1-1V92.59a1,1,0,0,1,1-1h12.44a1,1,0,0,1,1,1v5.16A1,1,0,0,1,101.76,98.77ZM89.32,92.2a.39.39,0,0,0-.39.39v5.16a.38.38,0,0,0,.39.39h12.44a.39.39,0,0,0,.39-.39V92.59a.4.4,0,0,0-.39-.39Z"/><rect class="cls-2" x="29.29" y="78.06" width="38.68" height="38.9" rx="3.72"/><path class="cls-3" d="M64.25,117.28H33a4,4,0,0,1-4-4V81.79a4,4,0,0,1,4-4H64.25a4,4,0,0,1,4,4v31.45A4,4,0,0,1,64.25,117.28ZM33,78.38a3.41,3.41,0,0,0-3.4,3.41v31.45a3.41,3.41,0,0,0,3.4,3.41H64.25a3.41,3.41,0,0,0,3.41-3.41V81.79a3.41,3.41,0,0,0-3.41-3.41Z"/><path class="cls-2" d="M31.12,75.26h35a3.81,3.81,0,0,1,3.81,3.81V89.2a0,0,0,0,1,0,0H27.31a0,0,0,0,1,0,0V79.07A3.81,3.81,0,0,1,31.12,75.26Z"/><path class="cls-3" d="M70,89.51H27.31A.31.31,0,0,1,27,89.2V79.08A4.13,4.13,0,0,1,31.11,75h35a4.13,4.13,0,0,1,4.11,4.13V89.2A.31.31,0,0,1,70,89.51Zm-42.33-.63h42v-9.8a3.5,3.5,0,0,0-3.48-3.51h-35a3.5,3.5,0,0,0-3.49,3.51Z"/><rect class="cls-2" x="41.71" y="91.89" width="13.84" height="6.57" rx="0.7"/><path class="cls-3" d="M54.85,98.77H42.41a1,1,0,0,1-1-1V92.59a1,1,0,0,1,1-1H54.85a1,1,0,0,1,1,1v5.16A1,1,0,0,1,54.85,98.77ZM42.41,92.2a.39.39,0,0,0-.39.39v5.16a.38.38,0,0,0,.39.39H54.85a.39.39,0,0,0,.39-.39V92.59a.4.4,0,0,0-.39-.39Z"/><rect class="cls-2" x="231.67" y="125.04" width="66.19" height="66.57" rx="6.37"/><path class="cls-3" d="M291.51,191.91H238a6.69,6.69,0,0,1-6.67-6.69v-53.8a6.7,6.7,0,0,1,6.67-6.7h53.48a6.69,6.69,0,0,1,6.66,6.7v53.8A6.68,6.68,0,0,1,291.51,191.91ZM238,125.35a6.06,6.06,0,0,0-6,6.07v53.8a6.06,6.06,0,0,0,6,6.07h53.48a6.06,6.06,0,0,0,6-6.07v-53.8a6.06,6.06,0,0,0-6-6.07Z"/><path class="cls-2" d="M234.81,120.24h59.92a6.51,6.51,0,0,1,6.51,6.51v17.33a0,0,0,0,1,0,0H228.29a0,0,0,0,1,0,0V126.76A6.51,6.51,0,0,1,234.81,120.24Z"/><path class="cls-3" d="M301.24,144.4h-73a.31.31,0,0,1-.31-.32V126.77a6.84,6.84,0,0,1,6.82-6.84h59.94a6.83,6.83,0,0,1,6.81,6.84v17.31A.31.31,0,0,1,301.24,144.4Zm-72.63-.63h72.32v-17a6.21,6.21,0,0,0-6.19-6.22H234.8a6.21,6.21,0,0,0-6.19,6.22Z"/><rect class="cls-2" x="252.93" y="148.69" width="23.69" height="11.24" rx="1.2"/><path class="cls-3" d="M275.41,160.24H254.13a1.51,1.51,0,0,1-1.51-1.52V149.9a1.51,1.51,0,0,1,1.51-1.52h21.28a1.52,1.52,0,0,1,1.51,1.52v8.82A1.52,1.52,0,0,1,275.41,160.24ZM254.13,149a.89.89,0,0,0-.89.9v8.82a.9.9,0,0,0,.89.9h21.28a.9.9,0,0,0,.89-.9V149.9a.89.89,0,0,0-.89-.9Z"/><rect class="cls-2" x="515.62" y="79.97" width="38.65" height="38.91" rx="3.72"/><path class="cls-3" d="M550.55,119.19H519.33a4,4,0,0,1-4-4V83.7a4,4,0,0,1,4-4h31.22a4,4,0,0,1,4,4v31.45A4,4,0,0,1,550.55,119.19ZM519.33,80.28a3.41,3.41,0,0,0-3.4,3.42v31.45a3.41,3.41,0,0,0,3.4,3.42h31.22a3.41,3.41,0,0,0,3.4-3.42V83.7a3.41,3.41,0,0,0-3.4-3.42Z"/><path class="cls-2" d="M517.45,77.17h35A3.81,3.81,0,0,1,556.24,81V91.11a0,0,0,0,1,0,0h-42.6a0,0,0,0,1,0,0V81A3.81,3.81,0,0,1,517.45,77.17Z"/><path class="cls-3" d="M556.24,91.42h-42.6a.31.31,0,0,1-.31-.31V81a4.12,4.12,0,0,1,4.11-4.12h35A4.12,4.12,0,0,1,556.55,81V91.11A.31.31,0,0,1,556.24,91.42ZM514,90.79h42V81a3.5,3.5,0,0,0-3.49-3.5h-35A3.5,3.5,0,0,0,514,81Z"/><rect class="cls-2" x="528.02" y="93.8" width="13.83" height="6.57" rx="0.7"/><path class="cls-3" d="M541.15,100.68H528.73a1,1,0,0,1-1-1V94.5a1,1,0,0,1,1-1h12.42a1,1,0,0,1,1,1v5.16A1,1,0,0,1,541.15,100.68Zm-12.42-6.57a.39.39,0,0,0-.39.39v5.16a.38.38,0,0,0,.39.39h12.42a.39.39,0,0,0,.4-.39V94.5a.4.4,0,0,0-.4-.39Z"/><rect class="cls-2" x="591.4" y="154.35" width="38.65" height="38.91" rx="3.72"/><path class="cls-3" d="M626.33,193.57H595.11a4,4,0,0,1-4-4V158.07a4,4,0,0,1,4-4h31.22a4,4,0,0,1,4,4v31.46A4,4,0,0,1,626.33,193.57Zm-31.22-38.91a3.41,3.41,0,0,0-3.4,3.41v31.46a3.41,3.41,0,0,0,3.4,3.41h31.22a3.41,3.41,0,0,0,3.41-3.41V158.07a3.41,3.41,0,0,0-3.41-3.41Z"/><path class="cls-2" d="M593.23,151.54h35a3.81,3.81,0,0,1,3.81,3.81v10.13a0,0,0,0,1,0,0h-42.6a0,0,0,0,1,0,0V155.35A3.81,3.81,0,0,1,593.23,151.54Z"/><path class="cls-3" d="M632,165.79h-42.6a.31.31,0,0,1-.31-.31V155.36a4.12,4.12,0,0,1,4.11-4.13h35a4.12,4.12,0,0,1,4.11,4.13v10.12A.31.31,0,0,1,632,165.79Zm-42.29-.62h42v-9.81a3.5,3.5,0,0,0-3.49-3.51h-35a3.5,3.5,0,0,0-3.49,3.51Z"/><rect class="cls-2" x="603.81" y="168.17" width="13.83" height="6.57" rx="0.7"/><path class="cls-3" d="M616.94,175.05H604.51a1,1,0,0,1-1-1v-5.16a1,1,0,0,1,1-1h12.43a1,1,0,0,1,1,1V174A1,1,0,0,1,616.94,175.05Zm-12.43-6.57a.39.39,0,0,0-.39.4V174a.39.39,0,0,0,.39.39h12.43a.4.4,0,0,0,.39-.39v-5.16a.4.4,0,0,0-.39-.4Z"/><rect class="cls-2" x="503.59" y="126.68" width="66.13" height="66.58" rx="6.37"/><path class="cls-3" d="M563.36,193.57H509.94a6.7,6.7,0,0,1-6.67-6.7V133.06a6.69,6.69,0,0,1,6.67-6.69h53.42a6.69,6.69,0,0,1,6.67,6.69v53.81A6.69,6.69,0,0,1,563.36,193.57ZM509.94,127a6.06,6.06,0,0,0-6,6.07v53.81a6.06,6.06,0,0,0,6,6.07h53.42a6.06,6.06,0,0,0,6-6.07V133.06a6.06,6.06,0,0,0-6-6.07Z"/><path class="cls-2" d="M506.72,121.88h59.87a6.51,6.51,0,0,1,6.51,6.51v17.33a0,0,0,0,1,0,0H500.21a0,0,0,0,1,0,0V128.39A6.51,6.51,0,0,1,506.72,121.88Z"/><path class="cls-3" d="M573.1,146H500.21a.31.31,0,0,1-.31-.31V128.41a6.83,6.83,0,0,1,6.81-6.84H566.6a6.84,6.84,0,0,1,6.81,6.84v17.32A.31.31,0,0,1,573.1,146Zm-72.58-.62h72.27v-17a6.21,6.21,0,0,0-6.19-6.22H506.71a6.21,6.21,0,0,0-6.19,6.22Z"/><rect class="cls-2" x="524.82" y="150.34" width="23.67" height="11.24" rx="1.2"/><path class="cls-3" d="M547.28,161.89H526a1.52,1.52,0,0,1-1.51-1.52v-8.83A1.52,1.52,0,0,1,526,150h21.26a1.53,1.53,0,0,1,1.52,1.52v8.83A1.52,1.52,0,0,1,547.28,161.89ZM526,150.65a.89.89,0,0,0-.89.89v8.83a.89.89,0,0,0,.89.89h21.26a.89.89,0,0,0,.89-.89v-8.83a.89.89,0,0,0-.89-.89Z"/><path class="cls-4" d="M900.2,29.28c-.1-8.71-9.31-10.91-16.39-10.5-6.11.34-20.54,4.43-17.79,17.75.77,3.71,6.22,7.14,8.83,12.23,2.27,4.43-2.54,10.75-3.89,17.09,0,0,7.71,7.76,13.11,4.3,1.1-4.06,2.43-12,3.93-14.12,1.68-2.3,6.21.76,7.89-.68s.32-2.29.47-3.62c.11-1.07,1.15-.54,1.13-1.75a1.2,1.2,0,0,0-.93-1.22c.39,0,1.91-.12,2.05-1.59-.42-.89-.82-1.36-.68-2,.55-1.27,2.44-.19,2.79-1.85.39-1.9-3.32-3.05-2.09-6.84C899.1,35,900.26,34,900.2,29.28Z"/><path class="cls-3" d="M880.92,71.36c-4.86,0-9.92-5-10.18-5.29a.29.29,0,0,1-.08-.28A40,40,0,0,1,873,59.07c1.55-3.83,3-7.44,1.62-10.16a29.74,29.74,0,0,0-4.72-6.2c-2-2.18-3.71-4.06-4.13-6.11a12.74,12.74,0,0,1,2.14-10.77c4.08-5.33,11.93-7.14,15.94-7.36,2.76-.16,9.63-.11,13.76,3.77a9.41,9.41,0,0,1,3,7h0a12.56,12.56,0,0,1-1.2,6.35,9.09,9.09,0,0,0-.39,1c-.69,2.11.27,3.33,1.11,4.41.6.77,1.17,1.49,1,2.39-.23,1.1-1,1.23-1.7,1.34s-.93.16-1.11.57.08.6.38,1.17c.09.18.2.37.3.59a.45.45,0,0,1,0,.16,1.89,1.89,0,0,1-1.5,1.72,1.68,1.68,0,0,1,.38,1,1.2,1.2,0,0,1-.71,1.23.61.61,0,0,0-.42.57,2.92,2.92,0,0,0,.15,1.13,2.21,2.21,0,0,1-.73,2.68c-.87.75-2.27.47-3.75.18s-3.28-.64-4.08.46c-1,1.39-2,5.71-2.83,9.52-.37,1.67-.73,3.26-1.06,4.49a.3.3,0,0,1-.13.18A6,6,0,0,1,880.92,71.36Zm-9.62-5.61c1,.94,7.73,7.11,12.5,4.2.32-1.2.66-2.73,1-4.35.87-3.87,1.84-8.25,2.93-9.75s3-1,4.71-.7c1.33.26,2.58.51,3.22,0a1.61,1.61,0,0,0,.54-2,3.46,3.46,0,0,1-.17-1.36,1.2,1.2,0,0,1,.73-1,.59.59,0,0,0,.4-.67.89.89,0,0,0-.67-.92.3.3,0,0,1-.26-.31.31.31,0,0,1,.27-.31c.8-.08,1.63-.29,1.77-1.22l-.25-.49a2.25,2.25,0,0,1-.41-1.65,1.75,1.75,0,0,1,1.59-1c.67-.11,1.06-.2,1.19-.85s-.3-1.17-.86-1.88c-.89-1.14-2-2.56-1.21-5a8,8,0,0,1,.42-1,12.08,12.08,0,0,0,1.13-6.08h0a8.81,8.81,0,0,0-2.75-6.59c-2.75-2.57-7.72-3.92-13.31-3.6-3.63.21-11.53,2-15.48,7.12a12.15,12.15,0,0,0-2,10.26c.38,1.88,2,3.71,4,5.82a30.25,30.25,0,0,1,4.81,6.33c1.53,3,0,6.72-1.6,10.68A42.06,42.06,0,0,0,871.3,65.75Z"/><path class="cls-3" d="M891.67,31A2.17,2.17,0,0,1,888,32.8c-3,1.9.39,6.31-3.12,7.2.34-2-.78-3.22-1.78-3.4-4.15,1.81-4.27,8.19-1.5,9.15-.11,4-6,4.76-8.3,4.26-2.41-7.18-5.68-5.91-8.25-12.93-1.38-3.79-.75-8.87.64-12.7-3.78.37-7.55-3-8-7.57s3.23-8.68,8.45-8.91c4.35-.19,8.3,4.12,8.66,7.68,8.28-1.56,16.42-.71,21.33,3.58,4.26,3.73,5.41,7.19,5.09,10.12-.25,2.28-2.86,2.57-4.14,1.06C896.28,32.89,892.76,32.54,891.67,31Z"/><path class="cls-3" d="M874.77,50.46a7.74,7.74,0,0,1-1.55-.14.34.34,0,0,1-.23-.21,14.46,14.46,0,0,0-4.06-6.48,15.5,15.5,0,0,1-4.18-6.45c-1.43-3.92-.72-8.92.48-12.46A7.09,7.09,0,0,1,860.6,23a9.13,9.13,0,0,1-3.21-6.17,8.07,8.07,0,0,1,2-6.09,9.38,9.38,0,0,1,6.76-3.16h.3c4.26,0,8.08,4,8.65,7.63,9-1.62,16.7-.27,21.26,3.72,3.84,3.36,5.59,6.85,5.2,10.38a2.43,2.43,0,0,1-1.69,2.17,2.86,2.86,0,0,1-2.65-.59,2.91,2.91,0,0,1-2.26,1.58,4,4,0,0,1-3-.77,2.38,2.38,0,0,1-1.32,1.79,2.52,2.52,0,0,1-2.66-.3c-1.07.82-1.05,2.08-1,3.4,0,1.5.06,3.19-2,3.71a.3.3,0,0,1-.29-.07.33.33,0,0,1-.1-.28,2.48,2.48,0,0,0-1.44-3A5.74,5.74,0,0,0,880,42.4c.05,1.55.69,2.72,1.66,3.06a.29.29,0,0,1,.21.3,3.92,3.92,0,0,1-1.6,3.09A9.53,9.53,0,0,1,874.77,50.46Zm-1.24-.72a9.19,9.19,0,0,0,6.39-1.38,3.35,3.35,0,0,0,1.35-2.4,3.88,3.88,0,0,1-1.87-3.54,6.36,6.36,0,0,1,3.57-6.1.2.2,0,0,1,.17,0,2.92,2.92,0,0,1,2.1,3.25c1.07-.47,1.12-1.46,1.09-2.95s-.07-3.06,1.49-4.07a.33.33,0,0,1,.39,0A1.85,1.85,0,0,0,891.36,31a.3.3,0,0,1,.2-.32.3.3,0,0,1,.36.12,3.14,3.14,0,0,0,2.93,1.07,2.31,2.31,0,0,0,1.95-1.6A.29.29,0,0,1,897,30a.31.31,0,0,1,.3.1,2.25,2.25,0,0,0,2.34.74,1.78,1.78,0,0,0,1.25-1.64c.37-3.31-1.31-6.62-5-9.84-4.47-3.91-12.14-5.19-21.06-3.52a.28.28,0,0,1-.24-.05.32.32,0,0,1-.13-.22c-.34-3.41-4.11-7.4-8.08-7.4h-.26a8.75,8.75,0,0,0-6.32,2.95A7.41,7.41,0,0,0,858,16.78a8.5,8.5,0,0,0,3,5.75,6.37,6.37,0,0,0,4.66,1.54.27.27,0,0,1,.27.12.28.28,0,0,1,.05.29c-1.25,3.46-2.07,8.56-.64,12.49a15.18,15.18,0,0,0,4,6.22A15.13,15.13,0,0,1,873.53,49.74Z"/><path class="cls-4" d="M896.56,48.76a2.16,2.16,0,0,0-.84.25"/><path class="cls-3" d="M895.72,49.32a.3.3,0,0,1-.27-.16.3.3,0,0,1,.11-.42,2.64,2.64,0,0,1,1-.29.3.3,0,0,1,.34.28.31.31,0,0,1-.28.34,2.14,2.14,0,0,0-.72.21A.42.42,0,0,1,895.72,49.32Z"/><path class="cls-3" d="M899,38.33h0l-16.58-.26a.63.63,0,1,1,0-1.25h0l16.57.26a.63.63,0,1,1,0,1.25Z"/><path class="cls-3" d="M897.69,43.16a.54.54,0,0,1-.3-.08.62.62,0,0,1-.24-.85,26.77,26.77,0,0,0,1.76-5.45.62.62,0,1,1,1.23.21,27.86,27.86,0,0,1-1.91,5.85A.6.6,0,0,1,897.69,43.16Z"/><path class="cls-4" d="M884,38.2c-.08-.89-1.16-1.91-2.08-1.66a2.67,2.67,0,0,0-1.79,2.91c.2,1.57,2.08,4.81,3.22,4.49.36-.1.47-.83.53-1.38"/><path class="cls-3" d="M883.23,44.27a1.35,1.35,0,0,1-.76-.27,8.15,8.15,0,0,1-2.6-4.52,3,3,0,0,1,2-3.25,1.79,1.79,0,0,1,1.46.34,2.38,2.38,0,0,1,1,1.61.31.31,0,0,1-.28.34.32.32,0,0,1-.34-.29,1.73,1.73,0,0,0-.75-1.15,1.17,1.17,0,0,0-.94-.24,2.37,2.37,0,0,0-1.56,2.57,7.62,7.62,0,0,0,2.33,4.08.72.72,0,0,0,.5.15s.19-.09.31-1.11a.29.29,0,0,1,.34-.28.31.31,0,0,1,.27.35c-.08.71-.21,1.48-.75,1.64A1.07,1.07,0,0,1,883.23,44.27Z"/><path class="cls-3" d="M853.47,22.51a.63.63,0,0,1-.56-.35.63.63,0,0,1,.29-.84L876.8,9.69a.62.62,0,0,1,.83.28.63.63,0,0,1-.29.84L853.75,22.44A.55.55,0,0,1,853.47,22.51Z"/><path class="cls-3" d="M857,28.7a.59.59,0,0,1-.29-.07.63.63,0,0,1-.25-.85L871.1.33a.62.62,0,0,1,1.1.59L857.56,28.37A.62.62,0,0,1,857,28.7Z"/><path class="cls-5" d="M959.82,253.48c0-5.81-32.4-10.53-72.36-10.53s-92.52,4.72-92.52,10.53S847.49,264,887.46,264,959.82,259.29,959.82,253.48Z"/><ellipse class="cls-5" cx="1023.25" cy="252.34" rx="40.71" ry="7.12"/><path class="cls-4" d="M918,109.17c3.43-.31,4.39.54,7.8,0,2.82-.44,4.4-2.16,6.39-2.89,3.33-1.23,6,1.5,7.27.61,1.55-1.1-1.33-4.25-7.09-5.08-4.56-.66-11.92,1.85-14.1,3.65"/><path class="cls-3" d="M923.57,109.67a17.48,17.48,0,0,1-2-.13,17.15,17.15,0,0,0-3.6-.06.3.3,0,0,1-.34-.28.32.32,0,0,1,.29-.34,17.62,17.62,0,0,1,3.72.06,13.54,13.54,0,0,0,4.05-.06,10.81,10.81,0,0,0,4.11-1.72A12.33,12.33,0,0,1,932,106a7.23,7.23,0,0,1,5.16.36c.92.32,1.64.57,2,.29a.63.63,0,0,0,.25-.73c-.27-1.15-2.75-3.15-7.2-3.8s-11.64,1.76-13.86,3.59a.32.32,0,0,1-.44,0,.31.31,0,0,1,0-.44c2.29-1.9,9.79-4.39,14.34-3.72s7.34,2.68,7.72,4.26a1.26,1.26,0,0,1-.5,1.39c-.66.47-1.56.15-2.6-.21a6.68,6.68,0,0,0-4.75-.37,13,13,0,0,0-2.11,1.11,11.71,11.71,0,0,1-4.33,1.8A14.05,14.05,0,0,1,923.57,109.67Z"/><path class="cls-6" d="M883.64,96.94c8.42,1,25.9,3.1,33.85,5.67,1,.35,2.15,4.75,1.83,7.09-1,.4-26.34,7.46-36.29,4.72"/><path class="cls-3" d="M889,115.38a23.84,23.84,0,0,1-6-.65.32.32,0,0,1,.17-.61c9.4,2.59,33.35-3.8,35.92-4.65.25-2.42-.94-6.31-1.65-6.56-7.91-2.57-25.38-4.65-33.78-5.66a.3.3,0,0,1-.27-.34.33.33,0,0,1,.34-.28c8.42,1,25.93,3.1,33.91,5.69,1.27.44,2.38,5.05,2,7.43a.31.31,0,0,1-.2.24C919.25,110.07,901,115.38,889,115.38Zm30.35-5.68h0Z"/><path class="cls-3" d="M917.49,102.61a13.9,13.9,0,0,1,4.68,0c.87,2.46.54,3.79,1.15,6.13a7.1,7.1,0,0,1-4,.92Z"/><path class="cls-3" d="M919.82,110.07a2,2,0,0,1-.59-.07.28.28,0,0,1-.21-.22l-1.83-7.09a.28.28,0,0,1,0-.25.3.3,0,0,1,.22-.14,14.17,14.17,0,0,1,4.81,0,.31.31,0,0,1,.2.2,14.2,14.2,0,0,1,.73,3.54,16,16,0,0,0,.43,2.61.3.3,0,0,1-.12.33A8.2,8.2,0,0,1,919.82,110.07Zm-.25-.63a7.83,7.83,0,0,0,3.39-.8,19.12,19.12,0,0,1-.39-2.49,13.77,13.77,0,0,0-.64-3.24,12.8,12.8,0,0,0-4,0Z"/><path class="cls-3" d="M871,63.12c.14-1.37.71-5.75.93-6.75,5,.81,13.24,5.75,17.56,8.76.29,1.89.54,8.76,1.14,11.53"/><path class="cls-3" d="M890.67,77a.31.31,0,0,1-.3-.25,69.53,69.53,0,0,1-.81-7.71c-.11-1.58-.21-3-.31-3.7-3.79-2.62-12-7.61-17-8.58-.25,1.33-.73,5.08-.87,6.43a.29.29,0,0,1-.34.27.31.31,0,0,1-.28-.34c.14-1.34.7-5.75.94-6.79a.31.31,0,0,1,.35-.24c5.2.85,13.56,5.94,17.69,8.81a.32.32,0,0,1,.13.21c.11.74.22,2.2.34,3.88a72.34,72.34,0,0,0,.79,7.63.31.31,0,0,1-.23.37Z"/><path class="cls-2" d="M843.59,232.26c-2.69,1.64-4.1,5.77-3,10,.84,3.07-14.11-5.52-11.06-8.18,2.11-1.81,6.95-2.3,7.8-7.86"/><path class="cls-3" d="M840.08,243.17c-2.35,0-9-4.15-10.74-6.84-.84-1.34-.45-2.12,0-2.53a11.12,11.12,0,0,1,2.29-1.38c2.26-1.14,4.81-2.44,5.4-6.3a.32.32,0,0,1,.36-.26.31.31,0,0,1,.26.35c-.64,4.19-3.47,5.62-5.74,6.76a11.21,11.21,0,0,0-2.17,1.3c-.15.14-.64.56.1,1.72,1.87,2.95,9.28,7,10.44,6.52,0,0,.07,0,0-.22-1.14-4.18.16-8.51,3.1-10.3a.31.31,0,0,1,.43.11.32.32,0,0,1-.1.43c-2.71,1.65-3.9,5.68-2.83,9.59a.72.72,0,0,1-.37,1A1.14,1.14,0,0,1,840.08,243.17Z"/><path class="cls-3" d="M891.91,158.67c-3.65,7.17-11.28,38.84-16.26,44.62-4.75,5.53-26.59,30.05-33.06,31.89-2.1-.92-6.32-5-7.28-7.13,3.6-12.88,21.49-33.12,23-37.09,1.61-4.25,2.88-40.25,7.59-53.66"/><path class="cls-3" d="M842.59,235.5a.27.27,0,0,1-.12,0c-2.21-1-6.45-5.13-7.44-7.29a.34.34,0,0,1,0-.22c2.43-8.67,11.37-20.77,17.29-28.77,2.92-3.95,5.22-7.07,5.7-8.34.59-1.54,1.13-7.5,1.83-15,1.17-12.72,2.78-30.16,5.76-38.61a.3.3,0,0,1,.4-.19.31.31,0,0,1,.19.39c-2.95,8.39-4.56,25.78-5.73,38.47-.7,7.59-1.25,13.58-1.87,15.2-.51,1.35-2.72,4.35-5.79,8.5-5.86,7.93-14.71,19.89-17.15,28.45a21.56,21.56,0,0,0,7,6.83c6.33-2,27.46-25.53,32.8-31.76,3-3.42,6.87-16.13,10.33-27.34,2.37-7.68,4.42-14.32,5.89-17.22a.31.31,0,0,1,.55.29c-1.44,2.84-3.58,9.78-5.85,17.12-3.48,11.27-7.42,24-10.45,27.55-.25.3-25.89,29.9-33.2,32Z"/><path class="cls-2" d="M922.81,241.75c1.51,4.68,3.73,6.56,6.61,7.25,5.36,1.29-12.54,5.58-12.33,2.45a10.88,10.88,0,0,0-1.42-7.72"/><path class="cls-3" d="M919.82,252.88a10.06,10.06,0,0,1-1.16-.06c-1.62-.2-1.92-.87-1.88-1.39a10.57,10.57,0,0,0-1.37-7.54.31.31,0,0,1,.1-.43.32.32,0,0,1,.43.1,11.13,11.13,0,0,1,1.45,7.95c0,.52,1.06.68,1.71.72,4.1.3,10.95-1.83,11-2.6h0s-.09-.16-.77-.33c-3.31-.79-5.41-3.09-6.83-7.46a.31.31,0,0,1,.2-.39.31.31,0,0,1,.39.2c1.34,4.14,3.31,6.31,6.39,7,.9.21,1.32.57,1.23,1.05C930.46,251.21,923.71,252.88,919.82,252.88Z"/><path class="cls-3" d="M894,122.09c7.76,20,26.8,46.39,30.75,65.35,1.94,9.21.63,43,.27,55.47,0,0-2.59,3.59-10.1,2.32-9.71-18.29-8.78-47-13.08-52.09-3.1-3.65-8.89-12.66-15.3-19.86-3.41-3.83-5.59-6.12-8.67-9.58"/><path class="cls-3" d="M918.05,245.81a18.41,18.41,0,0,1-3.14-.28.3.3,0,0,1-.23-.16c-5.7-10.74-7.71-24.79-9.33-36.08-1.11-7.77-2-13.91-3.71-15.95-1.19-1.39-2.77-3.58-4.6-6.11-3-4.14-6.73-9.29-10.69-13.74-1.76-2-3.19-3.55-4.59-5.08s-2.59-2.83-4.08-4.5a.31.31,0,0,1,0-.44.31.31,0,0,1,.44,0c1.48,1.67,2.76,3.07,4.07,4.5s2.83,3.1,4.6,5.08c4,4.48,7.72,9.64,10.72,13.79,1.83,2.52,3.4,4.7,4.57,6.08,1.85,2.17,2.74,8.39,3.86,16.26,1.6,11.19,3.59,25.11,9.19,35.74,6.51,1.06,9.19-1.67,9.59-2.15,0-1.27.09-2.76.14-4.41.46-14.91,1.32-42.66-.41-50.87-2.3-11.08-9.86-24.85-17.17-38.17-5.32-9.69-10.34-18.85-13.56-27.13a.33.33,0,0,1,.18-.41.32.32,0,0,1,.4.18c3.2,8.25,8.22,17.39,13.53,27.06,7.33,13.36,14.91,27.17,17.23,38.34,1.75,8.29.88,36.09.42,51,0,1.7-.1,3.22-.14,4.52a.27.27,0,0,1-.06.17C925.22,243.22,923.28,245.81,918.05,245.81Zm7-2.9h0Z"/><path class="cls-2" d="M886.58,173.59a.3.3,0,0,1-.23-.1c-1-1.14-2.19-2.43-3.45-3.8-4.21-4.57-9.46-10.26-11.21-14.22a.31.31,0,0,1,.16-.41.31.31,0,0,1,.41.16c1.7,3.86,6.91,9.51,11.1,14.05,1.26,1.37,2.45,2.66,3.46,3.81a.3.3,0,0,1-.24.51Z"/><path class="cls-3" d="M891.94,152.39a3,3,0,0,1-2.08,0c-.64-.06-4.53-4.86-2.25-4.56C889,148,891.94,152.39,891.94,152.39Z"/><path class="cls-3" d="M891,152.89a2.94,2.94,0,0,1-.88-.14,2.6,2.6,0,0,0-.31-.07c-.63-.05-2.47-2.33-3-3.57-.27-.61-.29-1-.08-1.33a.91.91,0,0,1,.92-.28c1.48.2,4.24,4.25,4.54,4.72a.27.27,0,0,1,0,.26.3.3,0,0,1-.18.2A2.7,2.7,0,0,1,891,152.89Zm-3.61-4.78c-.09,0-.18,0-.19.08-.18.74,2.13,3.68,2.69,3.88a1.8,1.8,0,0,1,.39.08,2.09,2.09,0,0,0,1.14.07c-1.14-1.65-3-4-3.87-4.1Z"/><path class="cls-6" d="M908.54,143.3c-1.77,3.69-9,7.54-16.6,9.09-.81.16-4.58-4.29-4.58-4.29s-1,6.08-1.85,6.24c-7.6,1.49-23.46-3.63-26-6.54,2.69-16.65,4.16-49.15,6-63.33.8-6.12,4-18.75,4-20.6-.93-1.35,0-3.12.44-4.67,13.35.82,17.94,11.87,22.94,15.23C891.06,86.71,903.72,132.83,908.54,143.3Z"/><path class="cls-3" d="M882.42,154.91c-8.13,0-20.72-4.14-23.15-6.91a.32.32,0,0,1-.07-.25c1.56-9.61,2.72-24.76,3.75-38.13.76-9.87,1.47-19.2,2.25-25.19.43-3.3,1.54-8.36,2.51-12.83.79-3.58,1.46-6.69,1.51-7.64-.76-1.2-.27-2.65.16-3.93.11-.31.21-.62.29-.91a.31.31,0,0,1,.32-.23c9.64.59,14.68,6.34,18.72,11a25.93,25.93,0,0,0,4.37,4.33.3.3,0,0,1,.14.3c-1.86,12.28,10.84,58.35,15.61,68.7a.36.36,0,0,1,0,.27c-1.76,3.68-9,7.66-16.82,9.26-.78.14-3-2.18-4.45-3.89-.49,2.71-1.2,5.69-2,5.84A16.86,16.86,0,0,1,882.42,154.91Zm-22.58-7.21c2.66,2.72,18.1,7.8,25.61,6.34.39-.26,1.15-3.31,1.6-6a.32.32,0,0,1,.55-.15c1.69,2,3.81,4.16,4.29,4.18,7.54-1.54,14.51-5.3,16.31-8.79-4.81-10.59-17.32-56.12-15.63-68.72a27.4,27.4,0,0,1-4.32-4.32c-3.94-4.48-8.83-10.06-18-10.72-.07.23-.15.46-.23.7-.41,1.23-.84,2.51-.18,3.46a.37.37,0,0,1,.05.18,74.34,74.34,0,0,1-1.52,7.87c-1,4.45-2.08,9.5-2.5,12.77-.78,6-1.49,15.3-2.25,25.16C862.54,123,861.39,138.06,859.84,147.7Z"/><path class="cls-4" d="M918.53,111.8c3.43-.31,4.39.54,7.79,0,2.83-.44,4.41-2.16,6.39-2.89,3.34-1.23,6,1.5,7.27.61,1.55-1.1-1.33-4.25-7.08-5.08-4.56-.66-11.93,1.85-14.1,3.65"/><path class="cls-3" d="M924.14,112.3a17.48,17.48,0,0,1-2-.13,17.15,17.15,0,0,0-3.6-.06.29.29,0,0,1-.34-.28.32.32,0,0,1,.28-.34,17.58,17.58,0,0,1,3.72.06,13.61,13.61,0,0,0,4.06-.06,10.69,10.69,0,0,0,4.1-1.72,13.55,13.55,0,0,1,2.23-1.16,7.29,7.29,0,0,1,5.16.37c.91.32,1.63.57,2,.29a.63.63,0,0,0,.26-.73c-.27-1.15-2.76-3.15-7.2-3.79s-11.65,1.75-13.86,3.58a.31.31,0,1,1-.4-.48c2.3-1.9,9.79-4.38,14.35-3.72s7.33,2.68,7.72,4.26a1.27,1.27,0,0,1-.51,1.39c-.66.47-1.56.15-2.6-.21a6.71,6.71,0,0,0-4.74-.37,12.69,12.69,0,0,0-2.12,1.11,11.56,11.56,0,0,1-4.33,1.8A13.94,13.94,0,0,1,924.14,112.3Z"/><path class="cls-6" d="M872,91.32c0,4.72,1.48,19.31,7.73,26.42,6.87,2.78,28.17-.68,35.65-4.41.94-.5,3.1.08,4-.48,1.2-2,.51-4.15-.15-6.42-1.06-.24-19.44-2.48-29.75-.9-.31-3.59.05-18.42-3.7-27.56-1.51-3.68-4.74-6.68-7.32-7.28-1.68-1,.58-2.68-1.78-3.55"/><path class="cls-3" d="M887.17,119.05a21.89,21.89,0,0,1-7.59-1l-.11-.08c-6.37-7.25-7.81-22-7.81-26.63a.31.31,0,1,1,.62,0c0,4.53,1.4,19,7.6,26.16,7,2.74,28.15-.85,35.33-4.43a4.68,4.68,0,0,1,2.09-.25,4.45,4.45,0,0,0,1.79-.18c1-1.81.49-3.68-.14-5.83l0-.09c-2.3-.4-19.78-2.34-29.46-.86a.29.29,0,0,1-.23-.07.3.3,0,0,1-.12-.22c-.06-.7-.1-1.81-.14-3.22-.19-5.91-.54-16.92-3.54-24.24C884,74.65,881,71.6,878.33,71l-.09,0a1.75,1.75,0,0,1-.8-2c.07-.7.12-1.16-.92-1.55a.3.3,0,0,1-.19-.4.31.31,0,0,1,.4-.18,1.75,1.75,0,0,1,1.33,2.2c-.06.57-.1,1,.46,1.34,2.81.68,6,3.88,7.49,7.46,3,7.43,3.39,18.51,3.58,24.46,0,1.19.07,2.17.11,2.86,10.65-1.52,28.69.76,29.54,1a.31.31,0,0,1,.23.21l.08.27c.65,2.23,1.26,4.33,0,6.4a.32.32,0,0,1-.1.1,4.22,4.22,0,0,1-2.2.32,4.4,4.4,0,0,0-1.8.17C910,116.33,896.55,119.05,887.17,119.05Z"/><path class="cls-3" d="M915.35,113.33c1-.46,2.7.11,4-.48,1.07-2.27,1.7-4.1.89-6.5-.75-.77-2.77-.32-4.09-.32Z"/><path class="cls-3" d="M915.35,113.64a.28.28,0,0,1-.18-.06.32.32,0,0,1-.13-.28l.77-7.3a.31.31,0,0,1,.31-.28c.34,0,.72,0,1.12-.06,1.25-.09,2.54-.2,3.2.48a.41.41,0,0,1,.07.11c.87,2.61.1,4.59-.91,6.73a.28.28,0,0,1-.15.15,5.26,5.26,0,0,1-2.34.32,4.08,4.08,0,0,0-1.63.16A.31.31,0,0,1,915.35,113.64Zm1-7.3-.69,6.55a8,8,0,0,1,1.41-.07,4.93,4.93,0,0,0,2-.21c1.11-2.36,1.54-4,.85-6.08-.48-.42-1.63-.33-2.65-.25Z"/><path class="cls-3" d="M832.85,231.61a8.55,8.55,0,0,0-6.07,3.64c-.25,3.49,6,12,9.68,15.68,2,2,11.17,2.74,11.3.95.18-2.46-3.26-3.53-4.57-4.55s-2.23-4.38-2.3-7C836.3,240.16,833.28,234.82,832.85,231.61Z"/><path class="cls-3" d="M844.34,253.23c-3,0-6.81-.79-8.1-2.08-3.46-3.44-10-12.17-9.77-15.93a.3.3,0,0,1,0-.15,8.89,8.89,0,0,1,6.3-3.77.33.33,0,0,1,.34.27c.45,3.35,3.46,8.29,7.75,8.47a.31.31,0,0,1,.29.31c.06,2.48.95,5.78,2.18,6.73a10.51,10.51,0,0,0,1.26.78c1.51.84,3.58,2,3.43,4,0,.42-.34.74-.92,1A8.61,8.61,0,0,1,844.34,253.23Zm-17.26-17.88c-.12,3.26,5.61,11.39,9.59,15.36,1.6,1.58,8.1,2.38,10.26,1.56.19-.07.51-.21.52-.41.12-1.65-1.67-2.65-3.11-3.46a10.94,10.94,0,0,1-1.34-.82c-1.36-1.07-2.29-4.36-2.41-6.93-4.34-.39-7.4-5.22-8-8.69A8.24,8.24,0,0,0,827.08,235.35Z"/><path class="cls-3" d="M916.55,250.28a13.45,13.45,0,0,0,1.15,8.26c1.44.82,15-1.91,18.63-2.88,5.65-1.51,6.24-2.58,7.18-3.82s.2-3.2-3.33-3.05-7,.88-12.65-1.17C925.57,250.48,919.86,252.1,916.55,250.28Z"/><path class="cls-3" d="M918.82,259a3,3,0,0,1-1.27-.18.29.29,0,0,1-.13-.14,13.58,13.58,0,0,1-1.17-8.44.31.31,0,0,1,.17-.23.31.31,0,0,1,.28,0c3.25,1.78,8.79,0,10.57-2.57a.32.32,0,0,1,.36-.12,23,23,0,0,0,10.74,1.26c.6,0,1.2-.08,1.79-.1,2-.08,3.31.45,3.83,1.46a1.91,1.91,0,0,1-.23,2.09l-.12.16c-.93,1.23-1.74,2.3-7.23,3.77C933.6,256.72,922.75,259,918.82,259Zm-.89-.69c1.61.57,14.16-1.82,18.32-2.94,5.29-1.42,6-2.4,6.89-3.54l.13-.17a1.31,1.31,0,0,0,.17-1.42c-.41-.79-1.62-1.2-3.25-1.13-.59,0-1.18.06-1.77.11A23.85,23.85,0,0,1,927.64,248c-2,2.65-7.35,4.34-10.85,2.76A13,13,0,0,0,917.93,258.3Z"/><path class="cls-7" d="M999.42,179.87l-2.84,19.27a31.77,31.77,0,0,0,3.51,19.76l11.6,21.35,15.11-10"/><path class="cls-3" d="M1011.69,240.56h-.07a.31.31,0,0,1-.2-.15l-11.6-21.35a32.18,32.18,0,0,1-3.54-20l2.83-19.27a.31.31,0,0,1,.61.09l-2.83,19.27a31.59,31.59,0,0,0,3.48,19.57l11.43,21.05,14.83-9.79a.31.31,0,0,1,.35.52l-15.12,10A.34.34,0,0,1,1011.69,240.56Z"/><ellipse class="cls-3" cx="1013.11" cy="239.54" rx="14.24" ry="14.3"/><path class="cls-3" d="M1013.11,254.14a14.61,14.61,0,1,1,14.55-14.6A14.59,14.59,0,0,1,1013.11,254.14Zm0-28.59a14,14,0,1,0,13.93,14A14,14,0,0,0,1013.11,225.55Z"/><ellipse class="cls-8" cx="1013.11" cy="239.54" rx="9.08" ry="9.11"/><path class="cls-3" d="M1013.11,249a9.43,9.43,0,1,1,9.39-9.42A9.42,9.42,0,0,1,1013.11,249Zm0-18.23a8.81,8.81,0,1,0,8.77,8.81A8.8,8.8,0,0,0,1013.11,230.73Z"/><ellipse class="cls-3" cx="1013.11" cy="239.54" rx="3.36" ry="3.37"/><path class="cls-3" d="M1013.11,243.22a3.69,3.69,0,1,1,3.67-3.68A3.68,3.68,0,0,1,1013.11,243.22Zm0-6.75a3.07,3.07,0,1,0,3,3.07A3.07,3.07,0,0,0,1013.11,236.47Z"/><path class="cls-3" d="M1077.4,218.81,1044,237.14a4.39,4.39,0,0,1-6-1.76l-18.25-33.52a4.4,4.4,0,0,1,1.74-6l33.4-18.33a4.39,4.39,0,0,1,6,1.76l18.25,33.51A4.42,4.42,0,0,1,1077.4,218.81Z"/><path class="cls-3" d="M1041.91,238a4.7,4.7,0,0,1-4.13-2.46L1019.52,202a4.76,4.76,0,0,1,1.87-6.42l33.4-18.32a4.68,4.68,0,0,1,6.38,1.88l18.25,33.51a4.74,4.74,0,0,1-1.87,6.42h0l-33.39,18.32A4.71,4.71,0,0,1,1041.91,238ZM1057,177.32a4,4,0,0,0-2,.51l-33.4,18.32a4.12,4.12,0,0,0-1.62,5.57l18.25,33.51a4.07,4.07,0,0,0,2.43,2,4,4,0,0,0,3.11-.34l33.39-18.32a4.12,4.12,0,0,0,1.63-5.57l-18.26-33.51a4,4,0,0,0-2.43-2A4.11,4.11,0,0,0,1057,177.32Zm20.36,41.49h0Z"/><path class="cls-2" d="M1067.41,186.41l-45.17,24.78-5.77-10.58a4,4,0,0,1,1.58-5.43l38.19-21a4,4,0,0,1,5.4,1.59Z"/><path class="cls-3" d="M1022.24,211.51a.33.33,0,0,1-.28-.16l-5.76-10.6a4.33,4.33,0,0,1,1.7-5.85l38.19-21a4.3,4.3,0,0,1,5.82,1.72l5.77,10.59a.34.34,0,0,1,0,.24.36.36,0,0,1-.15.19l-45.17,24.78A.28.28,0,0,1,1022.24,211.51Zm35.9-37.46a3.65,3.65,0,0,0-1.75.45l-38.19,20.95a3.71,3.71,0,0,0-1.46,5l5.62,10.31L1067,186.29,1061.36,176A3.66,3.66,0,0,0,1058.14,174.05Z"/><path class="cls-2" d="M1056.66,205.58l-12.55,6.89a.93.93,0,0,1-1.27-.38l-3-5.55a1,1,0,0,1,.38-1.28l12.55-6.89a.94.94,0,0,1,1.27.38l3,5.55A.94.94,0,0,1,1056.66,205.58Z"/><path class="cls-3" d="M1043.66,212.89a1.22,1.22,0,0,1-1.09-.65l-3-5.55a1.21,1.21,0,0,1-.1-.95,1.25,1.25,0,0,1,.6-.75l12.55-6.89a1.22,1.22,0,0,1,1-.1,1.28,1.28,0,0,1,.75.6l3,5.55a1.24,1.24,0,0,1,.1,1,1.2,1.2,0,0,1-.6.74l-12.55,6.89A1.19,1.19,0,0,1,1043.66,212.89Zm9.53-14.32a.64.64,0,0,0-.3.08l-12.55,6.89a.58.58,0,0,0-.3.37.62.62,0,0,0,0,.48l3,5.55a.62.62,0,0,0,.85.25l12.55-6.88h0a.68.68,0,0,0,.31-.38.67.67,0,0,0,0-.48l-3-5.55a.58.58,0,0,0-.37-.3Z"/><path class="cls-3" d="M1053.52,175.64,1020.13,194a4.38,4.38,0,0,1-6-1.75l-18.26-33.52a4.43,4.43,0,0,1,1.75-6l33.4-18.32a4.38,4.38,0,0,1,6,1.75l18.25,33.52A4.43,4.43,0,0,1,1053.52,175.64Z"/><path class="cls-3" d="M1018,194.81a4.69,4.69,0,0,1-4.13-2.45l-18.26-33.52a4.76,4.76,0,0,1,1.87-6.42l33.4-18.32a4.71,4.71,0,0,1,6.38,1.88l18.25,33.52a4.73,4.73,0,0,1-1.87,6.41h0l-33.39,18.32A4.66,4.66,0,0,1,1018,194.81Zm15.13-60.66a4.07,4.07,0,0,0-2,.5L997.81,153a4.12,4.12,0,0,0-1.62,5.57l18.25,33.52a4.07,4.07,0,0,0,5.54,1.62l33.39-18.32a4.11,4.11,0,0,0,1.63-5.56l-18.26-33.52a4,4,0,0,0-2.43-2A4.14,4.14,0,0,0,1033.16,134.15Zm20.36,41.49h0Z"/><path class="cls-2" d="M1043.1,142.46l-45.17,24.78-5.76-10.59a4,4,0,0,1,1.58-5.43l38.18-20.95a4,4,0,0,1,5.4,1.59Z"/><path class="cls-3" d="M997.93,167.55a.32.32,0,0,1-.27-.16l-5.77-10.59a4.31,4.31,0,0,1-.35-3.28A4.24,4.24,0,0,1,993.6,151L1031.78,130a4.3,4.3,0,0,1,5.83,1.71l5.77,10.6a.37.37,0,0,1,0,.23.32.32,0,0,1-.15.19l-45.17,24.78A.26.26,0,0,1,997.93,167.55Zm35.9-37.45a3.59,3.59,0,0,0-1.75.45L993.9,151.5a3.63,3.63,0,0,0-1.76,2.19,3.67,3.67,0,0,0,.3,2.81l5.62,10.32,44.62-24.49L1037.06,132A3.68,3.68,0,0,0,1033.83,130.1Z"/><path class="cls-2" d="M1032.36,161.62l-12.56,6.89a.94.94,0,0,1-1.27-.37l-3-5.56a.94.94,0,0,1,.37-1.27l12.56-6.89a.94.94,0,0,1,1.27.37l3,5.56A.94.94,0,0,1,1032.36,161.62Z"/><path class="cls-3" d="M1019.36,168.94a1.34,1.34,0,0,1-.35-.05,1.28,1.28,0,0,1-.75-.6l-3-5.56a1.26,1.26,0,0,1,.49-1.7l12.56-6.89a1.21,1.21,0,0,1,1-.1,1.26,1.26,0,0,1,.74.6l3,5.56a1.26,1.26,0,0,1,.1,1,1.28,1.28,0,0,1-.6.75L1020,168.79A1.23,1.23,0,0,1,1019.36,168.94Zm9.53-14.32a.6.6,0,0,0-.3.07L1016,161.58a.64.64,0,0,0-.3.38.59.59,0,0,0,0,.47l3,5.56a.61.61,0,0,0,.37.3.59.59,0,0,0,.47,0l12.56-6.89h0a.63.63,0,0,0,.25-.85l-3-5.56a.61.61,0,0,0-.37-.3A.52.52,0,0,0,1028.89,154.62Z"/><path class="cls-3" d="M1018.47,137.2l-23.92,13.12a3.14,3.14,0,0,1-4.26-1.26l-13.07-24a3.16,3.16,0,0,1,1.25-4.29l23.91-13.12a3.14,3.14,0,0,1,4.27,1.26l13.07,24A3.17,3.17,0,0,1,1018.47,137.2Z"/><path class="cls-3" d="M993.05,151a3.68,3.68,0,0,1-1-.14,3.45,3.45,0,0,1-2.06-1.67l-13.07-24a3.49,3.49,0,0,1,1.38-4.71l23.91-13.12a3.44,3.44,0,0,1,4.69,1.38l13.07,24a3.48,3.48,0,0,1-1.37,4.71h0L994.7,150.59A3.33,3.33,0,0,1,993.05,151Zm10.84-43.45a2.84,2.84,0,0,0-1.36.35l-23.91,13.13a2.85,2.85,0,0,0-1.13,3.86l13.07,24a2.82,2.82,0,0,0,1.69,1.37,2.78,2.78,0,0,0,2.15-.24l23.92-13.12a2.85,2.85,0,0,0,1.13-3.86l-13.07-24a2.87,2.87,0,0,0-1.69-1.37A2.82,2.82,0,0,0,1003.89,107.57Zm14.58,29.63h0Z"/><path class="cls-2" d="M1011.16,113.41l-32.34,17.74-4.13-7.58a2.87,2.87,0,0,1,1.13-3.89l27.34-15a2.84,2.84,0,0,1,3.87,1.14Z"/><path class="cls-3" d="M978.82,131.46a.31.31,0,0,1-.28-.16l-4.13-7.58a3.19,3.19,0,0,1,1.26-4.31l27.35-15a3.14,3.14,0,0,1,4.28,1.26l4.14,7.59a.26.26,0,0,1,0,.23.32.32,0,0,1-.15.19L979,131.43Zm25.71-26.82a2.63,2.63,0,0,0-1.22.31L976,120a2.56,2.56,0,0,0-1,3.46l4,7.31,31.8-17.45-4-7.31a2.55,2.55,0,0,0-1.52-1.23A2.44,2.44,0,0,0,1004.53,104.64Z"/><path class="cls-2" d="M1002.91,127.09l-9,4.93a.67.67,0,0,1-.91-.27l-2.16-4a.68.68,0,0,1,.26-.92l9-4.93a.66.66,0,0,1,.91.27l2.17,4A.67.67,0,0,1,1002.91,127.09Z"/><path class="cls-3" d="M993.6,132.42a1,1,0,0,1-.86-.52l-2.17-4a1,1,0,0,1,.39-1.34l9-4.93a1,1,0,0,1,1.33.39l2.17,4a.94.94,0,0,1,.08.75.93.93,0,0,1-.47.59h0l-9,4.94A1,1,0,0,1,993.6,132.42Zm6.82-10.26a.38.38,0,0,0-.17,0l-9,4.94a.36.36,0,0,0-.14.49l2.16,4a.36.36,0,0,0,.49.15l9-4.94a.34.34,0,0,0,.18-.21.45.45,0,0,0,0-.28l-2.17-4A.37.37,0,0,0,1000.42,122.16Zm2.49,4.93h0Z"/><path class="cls-7" d="M1074.47,220.84l-31,16.85a8,8,0,0,1-10.92-3.23L966.88,113.58a3,3,0,0,0-2.74-1.59H934.7v2.73H964l66.2,121.82a10.4,10.4,0,0,0,14.15,4.18l28.89-15.7A3.08,3.08,0,0,0,1074.47,220.84Z"/><path class="cls-3" d="M1039.38,242.3a10.74,10.74,0,0,1-9.45-5.62L963.83,115H934.7a.31.31,0,0,1-.31-.31V112a.31.31,0,0,1,.31-.31h29.52a3.34,3.34,0,0,1,2.93,1.75l65.69,120.88a7.73,7.73,0,0,0,10.5,3.1l31-16.84a.3.3,0,0,1,.42.12,3.39,3.39,0,0,1-1.34,4.59L1044.51,241A10.62,10.62,0,0,1,1039.38,242.3ZM935,114.4h29a.33.33,0,0,1,.28.17l66.19,121.81a10.1,10.1,0,0,0,13.73,4.05l28.89-15.7a2.76,2.76,0,0,0,1.23-3.46L1043.64,238a8.36,8.36,0,0,1-11.35-3.35L966.61,113.73a2.74,2.74,0,0,0-2.42-1.43H935Z"/><ellipse class="cls-3" cx="934.7" cy="113.13" rx="3.53" ry="3.55"/><path class="cls-3" d="M934.7,117a3.86,3.86,0,1,1,3.84-3.86A3.87,3.87,0,0,1,934.7,117Zm0-7.1a3.24,3.24,0,1,0,3.22,3.24A3.24,3.24,0,0,0,934.7,109.89Z"/><path class="cls-7" d="M1073.4,231.38h0a1.69,1.69,0,0,1-2.32-.63l-2-3.43,3-1.71,2,3.43A1.72,1.72,0,0,1,1073.4,231.38Z"/><path class="cls-3" d="M1072.56,231.92a2,2,0,0,1-1.75-1l-2-3.44a.31.31,0,0,1,0-.23.29.29,0,0,1,.15-.19l2.94-1.71a.31.31,0,0,1,.43.11l2,3.44a2,2,0,0,1-.73,2.76h0A2,2,0,0,1,1072.56,231.92Zm.69-.81.15.27-.15-.27a1.41,1.41,0,0,0,.51-1.91l-1.82-3.16-2.41,1.39,1.82,3.17A1.4,1.4,0,0,0,1073.25,231.11Z"/><path class="cls-3" d="M889.53,78.52a.3.3,0,0,1-.3-.26c-.82-4.92-6.11-10.13-10.75-12.31a22.1,22.1,0,0,0-6.42-1.42l-2.57-.35a.32.32,0,0,1-.26-.36.29.29,0,0,1,.35-.26c.89.14,1.74.25,2.56.35a22.57,22.57,0,0,1,6.6,1.47c4.73,2.23,10.22,7.46,11.1,12.78a.32.32,0,0,1-.25.36Z"/><path class="cls-6" d="M887.36,148.1c-1.67-5.62-1.5-13.63-4.83-22.16"/><path class="cls-3" d="M887.36,148.42a.32.32,0,0,1-.3-.23,55.22,55.22,0,0,1-1.44-7.59,63.65,63.65,0,0,0-3.38-14.54.31.31,0,1,1,.57-.23,64.4,64.4,0,0,1,3.43,14.68,55.32,55.32,0,0,0,1.42,7.51.31.31,0,0,1-.21.38Z"/></g></g></g></svg>