<svg xmlns="http://www.w3.org/2000/svg" viewBox="0 0 496.49 416.22"><defs><style>.cls-1{isolation:isolate;}.cls-18,.cls-2,.cls-21,.cls-23,.cls-24,.cls-3,.cls-4,.cls-5,.cls-6,.cls-7,.cls-8,.cls-9{fill:none;}.cls-2,.cls-3{stroke:#8cbaff;}.cls-11,.cls-14,.cls-19,.cls-2,.cls-21,.cls-22,.cls-23,.cls-24,.cls-3,.cls-4,.cls-5,.cls-6,.cls-7,.cls-8,.cls-9{stroke-linecap:round;stroke-linejoin:round;}.cls-2,.cls-3,.cls-4,.cls-5,.cls-6,.cls-7,.cls-8,.cls-9{stroke-width:0.42px;}.cls-3{stroke-dasharray:3.02 4.02;}.cls-4,.cls-5{stroke:#67e2e9;}.cls-5{stroke-dasharray:3.02 4.03;}.cls-6,.cls-7{stroke:#98a0e0;}.cls-7{stroke-dasharray:3.09 4.11;}.cls-8,.cls-9{stroke:#f267a1;}.cls-9{stroke-dasharray:3.16 4.22;}.cls-10,.cls-12,.cls-26{fill:#686d8c;}.cls-10{opacity:0.3;}.cls-10,.cls-12,.cls-15,.cls-28,.cls-29{mix-blend-mode:multiply;}.cls-11,.cls-16,.cls-27{fill:#fff;}.cls-11,.cls-14,.cls-19,.cls-21,.cls-22,.cls-23{stroke:#363c66;}.cls-11,.cls-14,.cls-19,.cls-21,.cls-22,.cls-24{stroke-width:0.42px;}.cls-12,.cls-28,.cls-29{opacity:0.5;}.cls-13,.cls-29{fill:#040b40;}.cls-13{opacity:0.05;}.cls-14,.cls-15,.cls-17{fill:#cdced9;}.cls-19,.cls-25{fill:#9b9db3;}.cls-20,.cls-22{fill:#363c66;}.cls-23{stroke-width:0.84px;}.cls-24{stroke:#9b9db3;}.cls-27{opacity:0.7;}.cls-28{fill:#67e2e9;}</style></defs><title>Asset 148</title><g class="cls-1"><g id="Layer_2" data-name="Layer 2"><g id="Layer_1-2" data-name="Layer 1"><path class="cls-2" d="M69.31,375.62c-.25-.44-.5-.88-.74-1.32"/><path class="cls-3" d="M66.66,370.76a209.55,209.55,0,0,1-24.24-98.21c0-115.1,92.15-208.41,205.82-208.41s205.83,93.31,205.83,208.41a209.51,209.51,0,0,1-25.26,100.11"/><path class="cls-2" d="M427.84,374.43l-.73,1.32"/><path class="cls-4" d="M50,375.59c-.25-.44-.49-.88-.73-1.32"/><path class="cls-5" d="M47.32,370.73A232.21,232.21,0,0,1,20.19,261.39c0-127.53,102.1-230.92,228.05-230.92S476.3,133.86,476.3,261.39a232.19,232.19,0,0,1-28.17,111.26"/><path class="cls-4" d="M447.16,374.42c-.24.44-.49.87-.74,1.31"/><path class="cls-6" d="M32.61,375.56l-.75-1.34"/><path class="cls-7" d="M29.9,370.61A252.5,252.5,0,0,1,.21,251.36C.21,112.66,111.26.21,248.24.21s248,112.45,248,251.15a252.57,252.57,0,0,1-30.75,121.22"/><path class="cls-6" d="M464.54,374.38l-.75,1.34"/><path class="cls-8" d="M89.61,375.67l-.77-1.38"/><path class="cls-9" d="M86.85,370.57A185.71,185.71,0,0,1,65.78,284.3c0-102,81.69-184.76,182.46-184.76S430.71,182.26,430.71,284.3a185.71,185.71,0,0,1-22.12,88.25"/><path class="cls-8" d="M407.58,374.4c-.25.47-.51.93-.77,1.39"/><path class="cls-10" d="M364.35,257.71c-3.49-5.18-3.55-8.42-9.21-11.64a29.44,29.44,0,0,0-3.33-1.68,49.34,49.34,0,0,0-13.62-3.75,4,4,0,0,0-.93-.14h0c.25-1.31,0-4.2-1-3.69a14.23,14.23,0,0,1,.91-4.37l.46-.32c1.35-1,2-3.58,3.1-5.83,1.81-.68,4.74-4.48,4.2-6.24a9.42,9.42,0,0,0-.26-15.22c-6.61-4.61-17.46.54-20.41-3.65-7,6-3.63,9.63-3.68,14.13l-.09.2a4.74,4.74,0,0,0-2.22,2.86,2.84,2.84,0,0,0-.1.49,3.24,3.24,0,0,0,.42,2.31,2.77,2.77,0,0,0,.06.72c-.24,1.16-.41,2.14-.51,2.72a5.83,5.83,0,0,0-.13-1.2c-1.22.91-2.49,5.59-2.58,8.23-.1,3,1.22,5.82,4.54,6.6a10.1,10.1,0,0,0,4.3-.35,7,7,0,0,0,0,1.12,3.34,3.34,0,0,0-.36-.1c-.46-.1-1.12,1.48-1.17,2.49l-.08,0a79.46,79.46,0,0,0-9.08,2.7c-6.05,2.18-9.65,4.54-11.33,7.14-2.34,1.76-11.35,27.86-12.49,28.53-.84.49-1.89,1-3.06,1.58a2.36,2.36,0,0,0-.32-.14L267.9,279a12,12,0,0,0-4.95.47l-3.9,1.2L258,275c-.25-1.37-1.81-2.24-3.63-2l-1.7.19-27,3a3,3,0,0,0-2.45,3.25l3,16.63c.93,2.1,3.39,2.13,5.76,1.51l11.68-3.06,10.18,3.41a11.64,11.64,0,0,0,8.24-.79l2.46-1.23h.24c8.66-.15,31.3-4.46,34.68-5.66-.35,1.09-.72,2.18-1.11,3.3a87.09,87.09,0,0,0-3.44,9.37c-.53,1.44-1,4.11.59,4.92a21.74,21.74,0,0,1-1,3.07,1.86,1.86,0,0,0,.29,1.22C290.32,324.7,286.15,345,283.31,363c-.7,4.47-1.31,8.85-1.8,13h18.76q1.11-3.31,2.25-6.77c3.44-10.11,6.64-20.85,9.19-28.72.88-2.7,1.65-5,2.28-6.68.14-.39.29-.78.42-1.13,1.26,8.73.84,26.87,1,43.3h19.38c4.77-24.32,9-55.44,7-63.83.46-.19.91-.38,1.31-.58a10.91,10.91,0,0,1-.43-2.3c-.06-.71,1.28-2.48,1.29-3.26a13.75,13.75,0,0,0-.74-5.22,6,6,0,0,0,1.47-.67c.56-.37,1.18-.74,1.83-1.12a5.32,5.32,0,0,0,.94.58c.28-.15.52-.26.77-.38l.64-.29a6.89,6.89,0,0,0,1.12-.43,23.32,23.32,0,0,1,4-.75,6.34,6.34,0,0,0,.68-.14c8.93-2.24,19-10.28,19.94-13.33C376,279.55,370.41,266.69,364.35,257.71Zm-15.59,31.9a3.52,3.52,0,0,0-.63.56c-.75-.71-1.6-1.52-2.45-2.39l-.26-.28.25-.57a2.44,2.44,0,0,0,.1-.24c.2-.47.39-1,.58-1.45a3,3,0,0,1,.11-.32c.19-.5.37-1,.54-1.51l0-.09c.17-.5.33-1,.49-1.51,0-.1.06-.2.1-.3.16-.51.32-1,.47-1.53,0-.12.08-.24.11-.37.15-.48.3-1,.44-1.44l.45-1.47c0-.11.07-.22.1-.33.16-.49.31-1,.47-1.45l.07-.22c.15-.44.29-.87.44-1.29,0-.07.05-.14.07-.2.17-.45.33-.88.5-1.3l.11-.27c.17-.42.35-.83.54-1.22v0l.13,0a36.71,36.71,0,0,0,3.53,4.38c1.79,2,3.56,3.63,4.56,4.71l0,0c.07.07.12.14.19.2.21.25.38.47.52.67s.12.22.1.28C359.78,282.91,350.91,288,348.76,289.61Z"/><ellipse class="cls-11" cx="247.85" cy="404.25" rx="60.7" ry="11.76"/><path class="cls-12" d="M251,395.67s-2.36,1-2.45,1.4c0,.09.09.16.29.22a52.12,52.12,0,0,1-5.8,2.48,4.51,4.51,0,0,0-.82,0c-7.34,2.24-12.18,2.66-17.37,3.57-3.1.52-6.46,1.51-7,2.38s2.46.94,5.84.78h.2l1-.06h.27l1.22-.1.27,0,1-.09.32,0L229,406c7.64-.89,11.45-.64,14.88-1.62,3.08-1.5,6.24-3.67,6.23-4.38a27.08,27.08,0,0,1,4.13-2.63,3.77,3.77,0,0,0,.66-.12,8.24,8.24,0,0,0,2.51-1.32c.72-.25,1.44-.52,2.16-.79l.69-.26,1.51-.59.79-.31,1.47-.6.78-.33,1.71-.72.55-.24,2.32-1,.56-.25,1.83-.84.87-.4.9-.42h0c5.47-2.57,11.59-5.61,18.9-9.23,2.4-1.16,5.34-2.47,7.88-3.72l-19,.09C264.26,386.26,251.8,394.17,251,395.67Z"/><path class="cls-12" d="M288.93,392.89c-.53.37-.93.67-1.25.94h0l-.09.08-.1.08-.26.23a8.33,8.33,0,0,0-.6.61c-.53.57-1,1.13-1,1.13s-2.23.94-2.12,1.26c0,.05.12.1.28.14-1.44.8-2.8,1.5-4.07,2.14-2.27.6-6,2.46-8.08,3.26s-5.61,3.72-4.52,4.55,4.39.52,7.71-.84a36.33,36.33,0,0,0,8.21-5.19c.36-.28,2.55-1.4,2.24-1.79h0c1.35-.74,2.9-1.52,4.28-2.17.37-.06.7-.12,1-.19a8.34,8.34,0,0,0,2.78-1.29c5-1.07,13.58-5.22,13.58-5.22,7.84-3.69,16.68-8.78,27.83-14.4H315.39C304.68,382.69,294.83,388.76,288.93,392.89Z"/><ellipse class="cls-13" cx="127.62" cy="146.51" rx="40.06" ry="40.14"/><ellipse class="cls-14" cx="129.01" cy="138.31" rx="40.06" ry="40.14"/><path class="cls-11" d="M119.76,104.78c-14.27,4.61-18.94,24.48-8.25,35.34a7,7,0,0,0,6.28,2.2h0c3.12,5.08-1.85,15-4.73,18.17-1.58,1.72,1.74,5.38,4.14,7.78,3.69,3.7,11.13,5.91,15.58,4.6,3.81-1.13,5.39-4.63,4.16-7.87-1-2.66-2.46-4-3.26-5.94a11.55,11.55,0,0,1,.25-8c2.86.67,4.64.76,5.8.25,3.71-1.64,7-14.13,6-17a12.37,12.37,0,0,1-1.11-3.58c0-1.44,2.16-1.33,1-5.55,0,0,0-.09,0-.13a4.86,4.86,0,0,0,2.84-2.42C152,110.32,134.09,100.16,119.76,104.78Z"/><ellipse class="cls-15" cx="368.87" cy="146.55" rx="40.06" ry="40.14"/><ellipse class="cls-16" cx="368.06" cy="138.31" rx="40.06" ry="40.14"/><path class="cls-11" d="M328,138.31a40.07,40.07,0,1,1,80.13,0"/><path class="cls-17" d="M395.77,160.8c.05,0,.07,0,.05-.06Z"/><path class="cls-11" d="M408.12,138.31a40.07,40.07,0,1,1-80.13,0"/><path class="cls-14" d="M390,109.83a7.07,7.07,0,0,0-11.89,4.29c-16.84-6.25-26,11.1-23.45,13.66-.83,2.47-1.1,4.65-.84,5.43.35,1,.84,1.81.7,2.52-.21,1-1.58,2.85-1.54,5.35a22.49,22.49,0,0,0,1.18,6.63,11,11,0,0,1-5.51,5.23,12.73,12.73,0,0,0,6.7-2l0-.07c.3.73.61,1.47,1,2.22a5.37,5.37,0,0,0,6.09,3.1,32.23,32.23,0,0,0,3.17-1,14.85,14.85,0,0,1,.86,5.4c-.35,4.1-3,4.34-3.54,7.62-.52,3.05,2.63,5.13,2.63,5.13,5.59.73,15.8-4.75,16.61-10.8.21-1.5-5.67-4.21-4.84-12.24.4-2.42,1.74-3.46,3.27-3.46a9,9,0,0,0,8.79,3.66c-3.42-.52-6.3-2.72-5.77-6.88.58-4.57,8.13-12.42,2.77-21.68C392.1,122.48,394.53,113.66,390,109.83Z"/><ellipse class="cls-15" cx="437.22" cy="309.02" rx="40.06" ry="40.14"/><ellipse class="cls-16" cx="437.22" cy="299.96" rx="40.06" ry="40.14"/><path class="cls-18" d="M449.69,289.71a6.54,6.54,0,0,0,4.63-6,35.59,35.59,0,0,1-3.5,4.48A9.7,9.7,0,0,0,449.69,289.71Z"/><ellipse class="cls-11" cx="437.22" cy="299.96" rx="40.06" ry="40.14"/><path class="cls-14" d="M460.8,290c2.75-2.75,2.69-8.74-.63-9.46,1.8-3.66-4.13-9.64-6.82-7.85,0-3.65-5.55-7-9.13-3.42-1.13-3.9-8.21-3.92-9.17-1.06-3.78-2-8.95.72-9.35,4.41-3.24-.7-6.38,3.44-4.94,6.46-2.49,1.61-1.6,6.5,1,7.12-.19,1.89-2.31,6.52-1.24,7.92,3.18,4.16-3,6.25-3,9.13,0,2.19,3.67,3.09,4.06,4,.32,1.32-.47,8.39,2,9.68,1.9,1,9.95-1,12.8-1.78a8.06,8.06,0,0,1,1.15,7.08c-4.9,7.22-6.25,12.45-1.56,12.45,10.7,0,23.14-12.11,18.81-16.45-1.37-1.36-6.26-5.76-5.6-12.86,3.18,1.92,8.24-1.3,7.91-4.93C461.75,299.81,464,293.14,460.8,290Z"/><ellipse class="cls-15" cx="58.97" cy="309.02" rx="40.06" ry="40.14"/><ellipse class="cls-16" cx="60.58" cy="299.96" rx="40.06" ry="40.14"/><ellipse class="cls-11" cx="60.58" cy="299.96" rx="40.06" ry="40.14"/><path class="cls-14" d="M78.31,292.23c-.65-1.6.31-3.9-.24-8.48a3.56,3.56,0,0,0,1.81-2.19c.71-2.52-.87-7.6-7-11.45s-16.59-5-24.95-.58c-7.53,4-11.86,13-9,22.88,2,6.91,6.13,6.77,7.42,11.43a10.67,10.67,0,0,0,2.82,1.23c-1.51,13.49-9.27,17.37-9.27,17.37,1.71,2.8,8.16,8.83,14.05,11,10.44,3.81,15.6-3.05,11-10.37,0-3.35.49-7.52,2.42-10.63,2.54,0,5.79.46,9.12-.2,2-.39,2.17-10.94,2.23-11.16s3.83-1.6,3.49-3.88S79.8,295.92,78.31,292.23Z"/><path class="cls-14" d="M223.14,248.8c-4.92,3.74-17.51,9.4-29.14,11-.4.05-.38,1.77-.42,2.17a6.54,6.54,0,0,0,2.47,5.73c2.9-1.45,3.9-.9,5.89-.94,8.32-.18,29.8-5.2,32-6.4,5.86-3.16,6.78-8.22,5.53-10.85-1.08-2.28-5.12-35.94-8.61-32.44C228.94,219,224.12,248.06,223.14,248.8Z"/><path class="cls-12" d="M227.87,254.93c-7.85,9.82-33.57,11.35-31.82,12.73,2.9-1.45,3.9-.9,5.89-.94,8.32-.18,29.8-5.2,32-6.4,5.86-3.16,6.78-8.22,5.53-10.85-1.08-2.28-3.33-29.63-6.82-26.14C230.73,225.3,233.56,247.82,227.87,254.93Z"/><path class="cls-14" d="M196.05,267.66l2.8-1c-1.93-.56-2.95-6.75-2.31-7.6a11.55,11.55,0,0,1-2.39.64.75.75,0,0,0-.63.66C193.28,262.68,194.22,266.18,196.05,267.66Z"/><path class="cls-19" d="M238.33,390.39c-.93,7.27,2.41,10.05.35,12.72-1.23,1.6-3.57.84-6.34,1.3-2.28.37-2.84,0-6.33,1.17-2.68.91-5.66,1.11-7.34,0s1.34-2.55,5.29-4c4.36-1.58,9.08-5.77,9.08-11.76"/><path class="cls-19" d="M268.23,389.57c1,11.92-3.1,13.59-1.19,16.64,1.48,2.37,7.56.82,8.38-1.53.52-1.51-.73-3.86-1.68-6.42-.84-2.27-.6-6.82-.11-8.69"/><path class="cls-20" d="M276.62,284.83c4.07,12.52,3.41,71.28.72,95.3-.67,6-2.47,8-3.18,8.75,0,0-2,1.41-6.54.2-.78-1.65-1.53-2.27-2.24-5.13-4.6-18.58-7.79-60.72-11.62-76.21-1.69,8.27-3.75,27-6.53,43.39-3.18,18.89-3.87,30.36-8.38,37.75-2.37.69-6.54-.45-6.54-.45-2.17-3.2-3.75-23.92-3.57-46.93.16-22.66,1.52-48.59,4.74-61.73Z"/><path class="cls-12" d="M242.9,377.52a36.28,36.28,0,0,1-4.05,11.36,8.67,8.67,0,0,1-6.54-.45C240.19,388.88,239,377.52,242.9,377.52Z"/><path class="cls-12" d="M251.89,302.85c.94.94,1.46,3.26,1.87,4.89-1.69,8.27-5,35.21-8.26,54.33-2-2-.8-6.32-.62-14.23s1.33-17.1,1.59-25.51C246.66,316.23,249.1,303.59,251.89,302.85Z"/><path class="cls-12" d="M277.34,380.13c2.69-24,3.35-82.78-.72-95.3,0,0-44.62-5.46-44.62-1.41s12.29,8.58,22.91,9.82c9.58,1.12,12.11,4.82,14.15,8.87,5.2,10.32,10.52,37.69,4.7,49-5.54,10.8,3.25,30.1.22,34.9-1.84,2.9-6.11,1.51-8.13-.52a28.34,28.34,0,0,0,1.77,3.57s4.48,1.22,6.54-.2C276.78,387.08,277.34,380.13,277.34,380.13Z"/><path class="cls-21" d="M276.62,284.83c4.07,12.52,3.41,71.28.72,95.3-.67,6-2.47,8-3.18,8.75,0,0-2,1.41-6.54.2-.78-1.65-1.53-2.27-2.24-5.13-4.6-18.58-7.79-60.72-11.62-76.21-1.69,8.27-3.75,27-6.53,43.39-3.18,18.89-3.87,30.36-8.38,37.75-2.37.69-6.54-.45-6.54-.45-2.17-3.2-3.75-23.92-3.57-46.93.16-22.66,1.52-48.59,4.74-61.73Z"/><path class="cls-21" d="M253.76,307.74c-.41-1.63-.85-3.87-1.87-4.89"/><path class="cls-17" d="M281.85,234.1c-4.74,5.38-2.37,24.69-9.16,31.47,2.72,4.84,4.53,6.76,5.13,12.46.09.87-.91,2.84-.76,3.63a14.48,14.48,0,0,0,.73,2.56c-9.61,6.21-41.35,5.59-45.79-.8a9.32,9.32,0,0,0,.53-3.42c-1.59-.9-1.54-3.88-1.25-5.48,2-10.81,3.25-16.07,3.52-26.91,0-1.71-.72-11.92-2.11-24.28-.18-1.62-1.86-4.72-1.79-6.3,1.75-4.19,8.48-8.32,18.27-11.09a91.93,91.93,0,0,1,13.19-.89,44.89,44.89,0,0,1,17.61,6.2"/><path class="cls-12" d="M276.76,236c.52-.24,2.07.75,3.22,2.41l-.13,0c-2.18,7.84-1.62,21.71-7.16,27.24,0,0-4.57,2.57-3.45.74,4.18-6.89,1.52-17.16,3.1-24.06C273.76,236,276.76,236,276.76,236Z"/><path class="cls-12" d="M272.69,265.57c2.72,4.84,4.53,6.76,5.13,12.46.09.87-.91,2.84-.76,3.63a14.48,14.48,0,0,0,.73,2.56c-9.61,6.21-41.35,5.59-45.79-.8a25.46,25.46,0,0,0,.53-3.42c14,3.55,23-.37,30.42-2.45C272.29,275,272.69,265.57,272.69,265.57Z"/><path class="cls-21" d="M230.9,217c1.75-4.19,7.35-7.8,18.27-11.09,1.53-.24,11.77-1.15,13.19-.89,7.93,1.45,13.69,3.66,17.61,6.2"/><path class="cls-21" d="M281.85,234.1c-4.74,5.38-2.37,24.69-9.16,31.47,2.72,4.84,4.53,6.76,5.13,12.46.09.87-.91,2.84-.76,3.63a14.48,14.48,0,0,0,.73,2.56c-9.61,6.21-41.35,5.59-45.79-.8a9.32,9.32,0,0,0,.53-3.42c-1.59-.9-1.4-3.85-1.25-5.48.46-4.84,2.46-11.85,3.08-16.55,1.42-10.82-.8-27.41-1.67-34.64"/><path class="cls-19" d="M249.74,201.87c-.05,1.43.8,2.43-.32,4.21l12.89-.64c-2.28-4.19-1.41-7.74-1.08-10.11Z"/><path class="cls-12" d="M249.74,201.87c-.05,1.43.8,2.43-.32,4.21l8-.64c-2.28-4.19,3.45-7.74,3.78-10.11Z"/><path class="cls-19" d="M242.11,188c5.9,9,20.24,1.26,20.24,1.26l2.75-13A10.66,10.66,0,0,0,256.28,164h0a10.83,10.83,0,0,0-12.34,8.75,31.25,31.25,0,0,1-.61,3.55C242.11,179.56,242.11,188,242.11,188Z"/><path class="cls-22" d="M264.32,165.31c-6.87-5.13-16.36.61-19.73-4.07-6.18,7.23-1.4,11.37-1.4,17,.08-.69.3-6.33,3.31-7.17.85-.23,1.81,1.26,2.74.87,3.2-1.34,7.06-.86,8.92,1,2.1,2.1.47,4.44,2.38,6.35,2.81,2.81,0,7.58,1.81,10,1.69-.4,1.81-4.32,4.34-7C270.66,178.08,270.08,169.62,264.32,165.31Z"/><line class="cls-23" x1="256.63" y1="182" x2="264.45" y2="181.39"/><path class="cls-22" d="M241.82,186c.31.7.21,2.7,1.31,3,.79.22,1.84-1.58,3.93-1,3.09.84,4.25,2.27,5.89,2.85,1.41.51,7.59-1.35,9.18-5.54,0,0,2.74.53,2,2.37-1.12,2.73-1.23,6.68-2.6,8-2.22,2.2-11.93,7.85-15.77,6.82-3.23-.88-4.87-4.05-5.19-7.36C240.26,192.23,240.81,187,241.82,186Z"/><path class="cls-19" d="M263.5,182.74c.51-1.62,2.59-2,3.19-.47,1.1,2.87-4.21,10.66-4.56,5.13a3.32,3.32,0,0,0,1.63-1.39C264.5,184.29,262.68,185.3,263.5,182.74Z"/><path class="cls-24" d="M248.57,192c-1.53,1.1-3-.47-3-.47"/><path class="cls-22" d="M249.17,205.94c-2.29.61-4.95,2.38-4.59,4.28.3,1.61,2.44,2,4.09,3.68.84.84-1.35,5.52.94,7.81.89.89,2.1-4.5,4.11-6.51,1.52-1.52,9.83-2.09,12.46-4.47,3.45-3.13-2.17-5.68-3.82-5.68"/><path class="cls-19" d="M272.83,265.05c-1.11.19-3.95-1.16-5.69-1.16-2.18,0-4.72,2.29-5.19,2.71a3.74,3.74,0,0,0-1,3.59c.36,1.78,4,3.19,5.73,2.64,2.23-.7,3.07-2.05,5.22-1a5.25,5.25,0,0,0,5.75-.38,62.31,62.31,0,0,1,5.39-4c7.86-5.31.92-8.09-3.15-4.29-1.68,1.56-3,2.62-4,2s.2-3.48-.62-3.8C275.32,261.45,274.05,264.84,272.83,265.05Z"/><path class="cls-12" d="M273.05,268.16c-1.5,1.5-5.51.31-6.34,4.67,2.23-.7,3.07-2.05,5.22-1a5.25,5.25,0,0,0,5.75-.38,62.31,62.31,0,0,1,5.39-4c7.86-5.31.92-8.09-3.15-4.29-1.68,1.56-3,2.62-4,2s.2-3.48-.62-3.8C275.32,261.45,274.89,266.32,273.05,268.16Z"/><path class="cls-21" d="M272.83,265.05c-1.11.19-3.95-1.16-5.69-1.16-2.18,0-4.72,2.29-5.19,2.71a3.74,3.74,0,0,0-1,3.59c.36,1.78,4,3.19,5.73,2.64,2.23-.7,3.07-2.05,5.22-1a5.25,5.25,0,0,0,5.75-.38,62.31,62.31,0,0,1,5.39-4c7.86-5.31.92-8.09-3.15-4.29-1.68,1.56-3,2.62-4,2s.2-3.48-.62-3.8C275.32,261.45,274.05,264.84,272.83,265.05Z"/><path class="cls-12" d="M249.48,182.4a4.53,4.53,0,1,0,9,1c.29-2.69-1.46-5.74-4-5.74A5.39,5.39,0,0,0,249.48,182.4Z"/><path class="cls-12" d="M242.11,181.17c-.3,2.77-.07,4.71,2.48,4.7,1.72,0,2.54-1.36,3.33-4,1-3.42-.27-5.69-2.54-5.36C243.68,176.73,242.41,178.39,242.11,181.17Z"/><ellipse class="cls-25" cx="253.41" cy="182.2" rx="3.96" ry="3.24" transform="translate(45.03 414.57) rotate(-83.83)"/><path class="cls-12" d="M250.19,181.86a5,5,0,0,0,1.11,3.45c-.46-1.83.09-3.78,1.55-4.36a2.63,2.63,0,0,1,3.53,2.66c.88-3.14-.77-5.15-2.55-5.34S250.42,179.68,250.19,181.86Z"/><ellipse class="cls-25" cx="244.19" cy="180.7" rx="3.96" ry="2.84" transform="translate(38.28 404.05) rotate(-83.83)"/><path class="cls-12" d="M241.36,180.4a4.75,4.75,0,0,0,1.13,3.59c-.77-1.92-.05-4.26,1.21-4.7A2.57,2.57,0,0,1,247,181c.24-2.17-.84-4.07-2.4-4.24S241.59,178.22,241.36,180.4Z"/><path class="cls-21" d="M271.54,263.71a1.38,1.38,0,0,1-1.27-.86c-.3-.83.31-2,.16-4.88"/><path class="cls-21" d="M272.46,262.34c-.92-1.89,1.81-3.32,1.3-6.82"/><path class="cls-21" d="M272.15,273.39c-1.28,2.6,1.25,2.6,2.12,8.53"/><path class="cls-26" d="M230.71,395.22c3.28-.18,3,4.18,6.39,3.28a2.37,2.37,0,0,0,1.58-2.8c1.19,1.19,1.8,4.83,1.38,7.34-1.64,1.64-5.67,1.23-11.46,2.72-3.43.89-9.84,1.56-11.22-.57-.9-1.46.66-3.12,2.74-4C223.55,399.68,227.45,399,230.71,395.22Z"/><path class="cls-12" d="M233.74,397c.8,1,1.57,2,3.36,1.51a2.37,2.37,0,0,0,1.58-2.8c1.19,1.19,1.8,4.83,1.38,7.34-1.64,1.64-5.67,1.23-11.46,2.72a29.17,29.17,0,0,1-4.36.74C223.77,402.49,233,402.92,233.74,397Z"/><path class="cls-20" d="M238.85,388.88s.44,1.59-.19,2.22-5.55.62-6.35-.32c-.52-.61,0-2.35,0-2.35Z"/><path class="cls-26" d="M275.77,405c-.65,2.27-6.15,3.62-8.63,2.14s-.88-5.34-.42-6.68.64-4.49,1.63-5.48a9.38,9.38,0,0,0-.21,2.4,2.65,2.65,0,0,1,2.06-.91,7.35,7.35,0,0,1,3,.79c.28-.56,0-1.82,0-2.28.91.64.87,2.53,1,3C275.46,401.79,276.29,403.2,275.77,405Z"/><path class="cls-12" d="M275.77,405c-.65,2.27-6.15,3.62-8.63,2.14s6.11-.23,6.1-5.77c0-4.11-3.7-4.88-3-4.9a7.35,7.35,0,0,1,3,.79c.28-.56,0-1.82,0-2.28.91.64.87,2.53,1,3C275.46,401.79,276.29,403.2,275.77,405Z"/><path class="cls-20" d="M274.16,388.88s.45,1.42-.29,2.16c-.9.9-5.19.85-6,.15-.63-.54-.24-2.11-.24-2.11Z"/><path class="cls-12" d="M238.85,388.88s.44,1.59-.19,2.22-5.55.62-6.35-.32c-.52-.61,0-2.35,0-2.35Z"/><path class="cls-12" d="M274.16,388.88s.45,1.42-.29,2.16c-.9.9-5.19.85-6,.15-.63-.54-.24-2.11-.24-2.11Z"/><path class="cls-21" d="M238.85,388.88s.44,1.59-.19,2.22-5.55.62-6.35-.32c-.52-.61,0-2.35,0-2.35Z"/><path class="cls-21" d="M274.16,388.88s.45,1.42-.29,2.16c-.9.9-5.19.85-6,.15-.63-.54-.24-2.11-.24-2.11Z"/><path class="cls-17" d="M280,211.25c5.77,3.58,6.28,7.19,10.29,13,7,10,14,24.32,13.34,29.59-.44,3.4-8.81,12.36-16.9,14.85-2,.62-2.89-.13-6.49,2.22a7.07,7.07,0,0,1-3.7-6.14c1.72-.66,2.4-4,3.55-5,1.79-1.79,9.43-7.46,9.77-9.92.1-.75-6-5.94-9.85-11.45-1.15-1.66-2.7-2.65-3.22-2.41"/><path class="cls-12" d="M276.76,236a7,7,0,0,1,7,2c5.7,5.71,7.13,9.4,6.24,12.1-.87-1.81-6.22-6.14-10-11.65-1.15-1.66-2.7-2.65-3.22-2.41"/><path class="cls-12" d="M303.6,253.8c-.67,3.31-8.81,12.36-16.9,14.85-2,.62-3.34.07-6.49,2.22-1.31-1.57,1.44-4.15,4.8-5C299.44,262.34,299.34,253.8,303.6,253.8Z"/><path class="cls-21" d="M280,211.25c5.77,3.58,6.28,7.19,10.29,13,7,10,14,24.32,13.34,29.59-.44,3.4-8.81,12.36-16.9,14.85-2,.62-2.89-.13-6.49,2.22a7.07,7.07,0,0,1-3.7-6.14c1.72-.66,2.4-4,3.55-5,1.79-1.79,9.43-7.46,9.77-9.92.1-.75-6-5.94-9.85-11.45-1.15-1.66-2.7-2.65-3.22-2.41"/><path class="cls-19" d="M280.21,270.87c.49-.62,1.66-.79,2.29-1.26-1.82-1.06-4-4.32-4.51-6.4a6.67,6.67,0,0,0-1.48,1.52c-.39,2.31,1.86,5.2,3.7,6.14"/><path class="cls-21" d="M270.17,272.5c.93.94-.72,1.75-.47,3.49"/><path class="cls-22" d="M249.56,203.27c1,.24,3,1.35,5.25.94a10.29,10.29,0,0,0,6-3.21c1-1,1.78,3.26,1.53,4.44-.32,1.52-3.53,3.47-6.18,3.75a9.71,9.71,0,0,1-7.09-2.36C248.47,206.18,249,203.13,249.56,203.27Z"/><ellipse class="cls-23" cx="253.41" cy="182.2" rx="3.96" ry="3.24" transform="translate(45.03 414.57) rotate(-83.83)"/><ellipse class="cls-23" cx="244.19" cy="180.7" rx="3.96" ry="2.84" transform="translate(38.28 404.05) rotate(-83.83)"/><path class="cls-19" d="M247.25,186.85c-.58-.61-2.22-.95-2.27-2.29-.07-1.79,2.44-1.23,3.12-3.4"/><path class="cls-23" d="M250.38,181a2.77,2.77,0,0,0-3.34-.66"/><path class="cls-19" d="M162,228.39l26.58-3.88a3.49,3.49,0,0,1,4,2.43l4.9,17.77c.22.8.59,1.86-.19,2.13L172,255.72c-2.26.79-4.73.76-6-1.93l-5.84-21.25C159.68,231,160.18,228.93,162,228.39Z"/><path class="cls-14" d="M163.63,228.16l26.46-3.87a3.6,3.6,0,0,1,4,2.6l4.9,17.77a1.6,1.6,0,0,1-1,1.92l-25.3,8.87a4.13,4.13,0,0,1-5.35-2.81l-5.82-21.22A2.6,2.6,0,0,1,163.63,228.16Z"/><path class="cls-19" d="M173.41,262l18.52,7a9,9,0,0,0,7.65-.88l19.66-12.52c4.09-2.8.94-5.13.92-5.15l-17.66-1.47a9.32,9.32,0,0,0-4.59.51L173,258.8C171.62,259.31,171.26,261.26,173.41,262Z"/><path class="cls-14" d="M173,260.43l18.8,6.31a9,9,0,0,0,7.65-.88l19-11.73c4.51-2.86,1.7-3.72,1.7-3.72l-17.69-2.5a9.26,9.26,0,0,0-4.6.52L173,258C171.75,258.39,171.54,259.72,173,260.43Z"/><path class="cls-25" d="M194.84,264.56a7.06,7.06,0,0,0,3.46-1L217,252.92c1-.62.88-1.38-.32-1.54l-14.37-2.06a7.37,7.37,0,0,0-1.24-.07,7.22,7.22,0,0,0-2.34.47l-20.83,8.46a.63.63,0,0,0,0,1.19l14.46,4.83A6.92,6.92,0,0,0,194.84,264.56Z"/><path class="cls-22" d="M167.7,231.11c-1.75.44-1.95,1.58-1.54,3.08l4.56,15.66a2.15,2.15,0,0,0,2.71,1.42l3.32-1.05-5.65-19.66Z"/><path class="cls-11" d="M195.22,242.18l-3.59-13.27c-.29-.88-1-1.49-2.49-1.27l-3.15.51-14.89,2.41,5.65,19.66,14.05-4.49,3.6-1.15C195.51,244.19,195.53,243.32,195.22,242.18Z"/><path class="cls-21" d="M230.71,395.22c3.28-.18,3,4.18,6.39,3.28a2.37,2.37,0,0,0,1.58-2.8c1.19,1.19,1.8,4.83,1.38,7.34-1.64,1.64-5.67,1.23-11.46,2.72-3.43.89-9.84,1.56-11.22-.57-.9-1.46.66-3.12,2.74-4C223.55,399.68,227.45,399,230.71,395.22Z"/><path class="cls-21" d="M275.77,405c-.65,2.27-6.15,3.62-8.63,2.14s-.88-5.34-.42-6.68.64-4.49,1.63-5.48a9.38,9.38,0,0,0-.21,2.4,2.65,2.65,0,0,1,2.06-.91,7.35,7.35,0,0,1,3,.79c.28-.56,0-1.82,0-2.28.91.64.87,2.53,1,3C275.46,401.79,276.29,403.2,275.77,405Z"/><rect class="cls-27" x="76.94" y="140.03" width="24" height="24.01" rx="2.4" ry="2.4"/><rect class="cls-28" x="76.94" y="140.03" width="24" height="24.01" rx="2.4" ry="2.4"/><path class="cls-16" d="M98.55,137.63H79.34a4.8,4.8,0,0,0-4.8,4.8v19.21a4.8,4.8,0,0,0,4.8,4.8H98.55a4.8,4.8,0,0,0,4.8-4.8V142.43A4.8,4.8,0,0,0,98.55,137.63Zm2.4,24a2.4,2.4,0,0,1-2.4,2.4H79.34a2.4,2.4,0,0,1-2.4-2.4V142.43a2.41,2.41,0,0,1,2.4-2.4H98.55a2.41,2.41,0,0,1,2.4,2.4Z"/><polyline class="cls-16" points="90.14 144.84 87.74 144.84 87.74 150.84 81.74 150.84 81.74 153.24 87.74 153.24 87.74 159.24 90.14 159.24 90.14 153.24 96.14 153.24 96.14 150.84 90.14 150.84 90.14 144.84"/><rect class="cls-27" x="396.12" y="140.03" width="24" height="24.01" rx="2.4" ry="2.4"/><rect class="cls-29" x="396.12" y="140.03" width="24" height="24.01" rx="2.4" ry="2.4"/><path class="cls-16" d="M417.72,137.63h-19.2a4.8,4.8,0,0,0-4.8,4.8v19.21a4.8,4.8,0,0,0,4.8,4.8h19.2a4.79,4.79,0,0,0,4.8-4.8V142.43A4.79,4.79,0,0,0,417.72,137.63Zm2.4,24a2.39,2.39,0,0,1-2.4,2.4h-19.2a2.39,2.39,0,0,1-2.4-2.4V142.43a2.4,2.4,0,0,1,2.4-2.4h19.2a2.4,2.4,0,0,1,2.4,2.4Z"/><polyline class="cls-16" points="409.32 144.84 406.92 144.84 406.92 150.84 400.92 150.84 400.92 153.24 406.92 153.24 406.92 159.24 409.32 159.24 409.32 153.24 415.32 153.24 415.32 150.84 409.32 150.84 409.32 144.84"/><rect class="cls-27" x="8.51" y="301.69" width="24" height="24.01" rx="2.4" ry="2.4"/><rect class="cls-29" x="8.51" y="301.69" width="24" height="24.01" rx="2.4" ry="2.4"/><path class="cls-16" d="M30.12,299.28H10.91a4.81,4.81,0,0,0-4.8,4.81V323.3a4.8,4.8,0,0,0,4.8,4.8H30.12a4.8,4.8,0,0,0,4.8-4.8V304.09A4.81,4.81,0,0,0,30.12,299.28Zm2.4,24a2.4,2.4,0,0,1-2.4,2.4H10.91a2.41,2.41,0,0,1-2.4-2.4V304.09a2.4,2.4,0,0,1,2.4-2.4H30.12a2.39,2.39,0,0,1,2.4,2.4Z"/><polyline class="cls-16" points="21.72 306.49 19.32 306.49 19.32 312.49 13.31 312.49 13.31 314.89 19.32 314.89 19.32 320.89 21.72 320.89 21.72 314.89 27.72 314.89 27.72 312.49 21.72 312.49 21.72 306.49"/><rect class="cls-27" x="465.28" y="301.69" width="24" height="24.01" rx="2.4" ry="2.4"/><rect class="cls-29" x="465.28" y="301.69" width="24" height="24.01" rx="2.4" ry="2.4"/><path class="cls-16" d="M486.89,299.28H467.68a4.81,4.81,0,0,0-4.8,4.81V323.3a4.8,4.8,0,0,0,4.8,4.8h19.21a4.8,4.8,0,0,0,4.8-4.8V304.09A4.81,4.81,0,0,0,486.89,299.28Zm2.4,24a2.41,2.41,0,0,1-2.4,2.4H467.68a2.41,2.41,0,0,1-2.4-2.4V304.09a2.4,2.4,0,0,1,2.4-2.4h19.21a2.4,2.4,0,0,1,2.4,2.4Z"/><polyline class="cls-16" points="478.49 306.49 476.08 306.49 476.08 312.49 470.08 312.49 470.08 314.89 476.08 314.89 476.08 320.89 478.49 320.89 478.49 314.89 484.49 314.89 484.49 312.49 478.49 312.49 478.49 306.49"/><path class="cls-21" d="M98.55,137.63H79.34a4.8,4.8,0,0,0-4.8,4.8v19.21a4.8,4.8,0,0,0,4.8,4.8H98.55a4.8,4.8,0,0,0,4.8-4.8V142.43A4.8,4.8,0,0,0,98.55,137.63Z"/><path class="cls-21" d="M30.12,299.28H10.91a4.81,4.81,0,0,0-4.8,4.81V323.3a4.8,4.8,0,0,0,4.8,4.8H30.12a4.8,4.8,0,0,0,4.8-4.8V304.09A4.81,4.81,0,0,0,30.12,299.28Z"/><path class="cls-21" d="M486.89,299.28H467.68a4.81,4.81,0,0,0-4.8,4.81V323.3a4.8,4.8,0,0,0,4.8,4.8h19.21a4.8,4.8,0,0,0,4.8-4.8V304.09A4.81,4.81,0,0,0,486.89,299.28Z"/><path class="cls-21" d="M417.72,137.63h-19.2a4.8,4.8,0,0,0-4.8,4.8v19.21a4.8,4.8,0,0,0,4.8,4.8h19.2a4.79,4.79,0,0,0,4.8-4.8V142.43A4.79,4.79,0,0,0,417.72,137.63Z"/></g></g></g></svg>