<svg xmlns="http://www.w3.org/2000/svg" viewBox="0 0 464 230"><defs><style>.cls-1{isolation:isolate;}.cls-2{fill:#cdced9;}.cls-3{fill:#363c66;}.cls-10,.cls-3,.cls-4,.cls-6,.cls-7,.cls-8,.cls-9{stroke:#363c66;stroke-linejoin:round;stroke-width:0.5px;}.cls-3,.cls-4,.cls-6,.cls-7,.cls-8,.cls-9{stroke-linecap:round;}.cls-4{fill:#35d8e2;}.cls-5,.cls-9{fill:#fff;}.cls-10,.cls-6{fill:none;}.cls-7{fill:#686d8c;}.cls-11,.cls-12,.cls-8{fill:#9b9db3;}.cls-11{opacity:0.5;mix-blend-mode:multiply;}</style></defs><title>P_desktopAsset 37</title><g class="cls-1"><g id="Layer_2" data-name="Layer 2"><g id="Layer_1-2" data-name="Layer 1"><path class="cls-2" d="M464,0H0V216.25H191.86l2.22-1.73c18.59-20.53,53-19.44,73.65,0l1.81,1.71H464Z"/><rect class="cls-3" x="213.84" y="27.09" width="38.01" height="19.04" rx="4.94" ry="4.94"/><rect class="cls-4" x="212.15" y="25.01" width="38.01" height="19.04" rx="4.94" ry="4.94"/><path class="cls-5" d="M224.92,39.41h-5.2V30.16h5.2v1.28h-3.7V34h3.47v1.26h-3.47v2.91h3.7Z"/><path class="cls-5" d="M233.38,39.41h-1.73l-2.3-3.78L227,39.41h-1.61l3.05-4.79-2.85-4.46h1.67l2.13,3.5,2.13-3.5h1.62l-2.88,4.48Z"/><path class="cls-5" d="M234.31,39.41V30.16h1.51v9.25Z"/><path class="cls-5" d="M241.12,39.41h-1.51V31.46h-2.7v-1.3h6.91v1.3h-2.7Z"/><line class="cls-3" x1="249.07" y1="26.86" x2="250.59" y2="28.74"/><line class="cls-3" x1="213.46" y1="42.46" x2="215.18" y2="44.58"/><polyline class="cls-6" points="269.56 216.47 269.58 74.5 191.71 74.5 191.71 216.47"/><polygon class="cls-7" points="269.58 74.5 191.63 74.5 193.78 77.01 267.78 77.01 269.58 74.5"/><path class="cls-3" d="M267.78,77h-74V214.72c17.94-20.49,54.09-19.41,74,0Z"/><polygon class="cls-8" points="193.78 77.01 191.63 74.5 191.63 216.47 193.78 214.72 193.78 77.01"/><polygon class="cls-9" points="267.78 77.01 267.78 214.72 269.56 216.46 269.58 74.5 267.78 77.01"/><line class="cls-10" x1="464" y1="216.45" x2="269.56" y2="216.46"/><polygon class="cls-11" points="250.39 229.75 289.1 216.47 289.1 90.57 269.58 87.35 267.78 89.12 267.78 77.01 249.92 77.01 250.33 205.61 250.39 229.75"/><polygon class="cls-9" points="191.63 74.5 250.39 57.35 250.39 229.75 191.63 216.47 191.63 74.5"/><polygon class="cls-8" points="252.78 228.92 250.33 229.75 250.33 57.35 252.78 59.03 252.78 228.92"/><ellipse class="cls-12" cx="244.06" cy="153.16" rx="2.09" ry="5.11"/><path class="cls-3" d="M243.67,154.54h-4.46a1.34,1.34,0,0,1-1.3-1.38h0a1.34,1.34,0,0,1,1.3-1.37h4.46c.71,0,1,.62,1,1.37h0C244.67,153.92,244.38,154.54,243.67,154.54Z"/><path class="cls-3" d="M239.21,154.54l-8.6.52a13.35,13.35,0,0,1-1.59-.17l.58-1.32c0-.71.28-.91.85-1l7.18-.81H239c.72-.06,1.07.47,1.12,1.19h0C240.18,153.7,239.92,154.48,239.21,154.54Z"/><path class="cls-9" d="M237.84,154.38l-8.61.53a1,1,0,0,1-1-1h0c0-.72.28-1.21.85-1.27l8.55-.81c.71-.06,1.06.47,1.12,1.19h0C238.81,153.7,238.55,154.32,237.84,154.38Z"/><line class="cls-10" x1="191.86" y1="216.45" y2="216.45"/></g></g></g></svg>