<svg xmlns="http://www.w3.org/2000/svg" viewBox="0 0 537.68 287.18"><defs><style>.cls-1{isolation:isolate;}.cls-2,.cls-26,.cls-27,.cls-5{fill:#cdced9;}.cls-11,.cls-12,.cls-14,.cls-15,.cls-16,.cls-17,.cls-18,.cls-19,.cls-2,.cls-20,.cls-22,.cls-25,.cls-6,.cls-8,.cls-9{stroke:#363c66;stroke-linejoin:round;}.cls-12,.cls-14,.cls-15,.cls-16,.cls-17,.cls-18,.cls-19,.cls-2,.cls-20,.cls-22,.cls-25,.cls-8,.cls-9{stroke-linecap:round;}.cls-17,.cls-18,.cls-19,.cls-2,.cls-20,.cls-22,.cls-6{stroke-width:0.57px;}.cls-20,.cls-3,.cls-4{fill:#686d8c;}.cls-21,.cls-23,.cls-26,.cls-3{opacity:0.5;}.cls-21,.cls-23,.cls-3,.cls-4{mix-blend-mode:multiply;}.cls-4{opacity:0.25;}.cls-5{opacity:0.75;}.cls-11,.cls-14,.cls-18,.cls-25,.cls-6{fill:none;}.cls-12,.cls-17,.cls-7{fill:#fff;}.cls-8{fill:#fee999;}.cls-11,.cls-12,.cls-14,.cls-15,.cls-16,.cls-8,.cls-9{stroke-width:0.57px;}.cls-10,.cls-19,.cls-9{fill:#363c66;}.cls-13,.cls-15{fill:#9aebf1;}.cls-16{fill:#67e2e9;}.cls-21,.cls-22,.cls-24{fill:#9b9db3;}.cls-25{stroke-width:0.68px;}</style></defs><title>Asset 147</title><g class="cls-1"><g id="Layer_2" data-name="Layer 2"><g id="Layer_1-2" data-name="Layer 1"><path class="cls-2" d="M430.94,243.69c-18.48-.84-38.56-.72-53.48,10.21-8.71,6.37-14.28,6.42-29,8.08-29.27,3.31-24.58,17.06-4.34,20.64,21.74,3.85,49.88,6.18,69.31,2.23,16.71-3.4,9.41-11.43,20-15.08,18.38-6.34,37-2.64,38.46-12.52C473.59,245.68,439.72,244.09,430.94,243.69Z"/><path class="cls-3" d="M456.92,232.25c-5.09,2.63-8,5.3-9.22,8l-.17.08.1-.05c-15,6.75-54,17.14-43.19,17.59,18,.74-17.53,12.49-17.53,12.49s-1.36.8,1.44.79h.18c-2.52.73-4.92,1.38-6.53,1.75-2.89.66-3.13-.3-6.11,1.09-3.87,1.79-.73,2.92,5.31,1.87,4.57-.79,14.47-3.35,20.86-4.86a63,63,0,0,0,8.47-2.33c1.62-.93,3.31-2.37,3-3.3a19.77,19.77,0,0,1-2.11,1,26.69,26.69,0,0,1,6.3-4c2.58-1.16,5.87-2.58,9.57-4.17l5.32.71c-5.1,2-10.74,4.17-10.16,4.7s6.43-1.1,11-2.59c1.44-.47,2.82-.95,4.2-1.44l2,.27,3.43.46,4,.54L413.58,275s-1.53.75,1.32.61c2.2-.11,3.61-.33,3.61-.33l47.84-20.21,3-.42.06,0,5.29.63a23.64,23.64,0,0,0,11.68-1.52l46.2-21.26Z"/><path class="cls-4" d="M532.56,232.25c.65-.16,7.32-37.3,4.36-37.35h-.17l-4.92-.44c.74-8.68.86-19.55-4.06-29-1.69-3.26-5.87-6.92-11.45-8.62l-.06-.08,0-.08a9.22,9.22,0,0,1-1.57-6.28,5.5,5.5,0,0,1,.91-2.86c.19-.25,1.77-1.58,2.1-1.07a7.18,7.18,0,0,0,7.24,3.09c-2.85-.44-5.19-2.3-4.58-5.81.66-3.86,7.32-10.48,3.18-18.3,4.82.48,7.21-7,3.57-10.19-4.09-3.62-9.3-.77-10.16,3.62a16.39,16.39,0,0,0-15.38,1.5c-2.82,1.81-5.16,5.25-5.47,11.07a3.31,3.31,0,0,1,1.09-2.14c-1.11,2.35-1.67,5.06-1.39,5.69l.52,1.56a2.77,2.77,0,0,1,0,.56c-.15.87-1.44,2.41-1.5,4.51a18.65,18.65,0,0,0,.73,5.6,9.89,9.89,0,0,1-4.83,4.41,11,11,0,0,0,5.7-1.69l0-.06c.23.62.46,1.24.71,1.88a4.31,4.31,0,0,0,5,2.61,26.13,26.13,0,0,0,2.7-.87,16.6,16.6,0,0,1,.53,2.88c-5.42,1.13-9.47,3.83-10.82,5.69-3.76,5.12-6.32,15-8.5,22.63-7.8,1.18-18.61,5.71-19.4,9.44a60.4,60.4,0,0,1-7.49,1.81L458,194,425.63,183.9l-.47.71,14.39,20.09.43.16,0,.62,27.36,10.3c-5.47,3.49-9.51,7-10.67,9.77a.94.94,0,0,0-.06.15,4.48,4.48,0,0,0-.23.74.49.49,0,0,1,0,.12,15.78,15.78,0,0,0,.09,5.69Z"/><path class="cls-2" d="M46.48,266.88c2.16,10.71,30.85,15,49.4,13.31,34.09-3.14,49.45-8.83,73-8.83,35.52,0,28-12.73,7.42-12.73-13.06,0-24.44,1.91-42.89-1.12-29.18-4.79-47.95-6.34-62.25-3.73C58.25,256.13,45.2,260.5,46.48,266.88Z"/><path class="cls-3" d="M146.59,241.84c-2.65,2.24-13.34,10.5-11.89,11.61a90.4,90.4,0,0,1-11.77,8.73c-3.74,2.43-.19,9.86,3.56,7.48,2.13-1.36,7.46-10.32,7.1-11.15-.57.54-1.19,1.09-1.85,1.63a55.33,55.33,0,0,1,8.13-6.69c7.87-2,36.21-18.14,40.31-21.2H165.49C164.74,232.86,153.32,236.17,146.59,241.84Zm-18.65,17.21c-.51.4-1,.77-1.5,1.13C126.92,259.79,127.46,259.4,127.94,259.05Z"/><path class="cls-3" d="M113.61,247.49c-2.54,2.39-2.66,3.56-5.13,5.56-4.28,3.45-13,6.17-18.06,7.73s-15.63,5.3-8.54,5.62a32.64,32.64,0,0,0,6-.75c3.85-.69,8-1.4,12-2.34,3.18-.74,3.72-.81,6.6-3,1.94-1.45,5.46-4.93,2.1-3.07,4.35-4.66,12-8,18.76-12.56,7.95-5.29,23.75-10.61,26.31-12.47H138.74C136.75,233.87,120.48,241,113.61,247.49Z"/><path class="cls-4" d="M217.27,167.49c-2,.28-6.64-1-6.6-3.78,0-2,4.2-1.86,3.65-4.3-.47-2.09-3.21.92-4.15,1.27a8.07,8.07,0,0,1-8-1.75c1.35-4-14.73-13.54-16.49-18.43-2.86-8,.44-19.13-5.65-25.88-2.85-3.15-7.68-3.52-10.76-6.33-1.28-1.17-3.28-3-2.41-5.11,1.3-3.1,2.89.33,5.46-.56,5.72-2,4.84-10.76,5.18-15.15.3-3.83,2.72-2.92,3.71-6,1.11-3.41-2.23-7.68-4.6-9.8-6.74-6-18.05-7-23.89.25-5.16,6.46-3.54,15.88,1.93,21.76,1.72,1.85,3.86,1.34,3.08,5.39.71,1.8.65,2.6-.18,2.41a1,1,0,0,0-.54,0c-.66.7-2.43.54-3.28,1.48-1.05,1.16-.43,3-1.15,3.92-.47-2.48-.22-.53-2.14.11-1.76.59-3.53.95-5.33,1.4-3,.75-5.76,1.49-7.57,4.18-3.19,4.72-3.62,12.53-4.35,18-.78,6-1.56,12.25-1.1,18.34a92.68,92.68,0,0,0,1.75,10.82c.41,2.06,1.62,4.87,1.52,6.93-.14,2.73-2.19,5.51-2.8,8.17-1,4.28.45,6.76,4.61,9,.95.5,4.21,1,4.69,1.63.9,1.21.17,6.37.2,7.93.18,9.25-3.38,29.6-3.3,38.85h14.94c1.56-13.39,7-38.16,12.35-50.41,3.16,12.72-.64,37.41-.54,50.41h14.69c.52-6.21,4.54-23.53,4.89-29.76q.33-5.76.56-11.53c.08-2.21-.74-7.2.23-9.16.43-.86,2.57-1.52,3.22-2.83,1.2-2.43.31-4.14-.4-6.71-1.75-6.22-3.55-12.43-4.92-18.75,1.64,2.92,13,11.76,15.86,9.23,4.91,2.53,9.32,10.15,15.58,8.89C217,171.26,221.11,167,217.27,167.49Z"/><rect class="cls-5" x="57.25" y="77.96" width="114.91" height="8.99" rx="4.5" ry="4.5"/><ellipse class="cls-6" cx="20.11" cy="95.27" rx="19.82" ry="19.79"/><rect class="cls-5" x="301.01" y="143.62" width="114.91" height="8.99" rx="4.5" ry="4.5"/><ellipse class="cls-6" cx="263.87" cy="160.94" rx="19.82" ry="19.79"/><rect class="cls-6" x="57.25" y="110.77" width="234.3" height="8.99" rx="4.5" ry="4.5"/><rect class="cls-6" x="57.25" y="94.36" width="313.1" height="8.99" rx="4.5" ry="4.5"/><rect class="cls-6" x="301.01" y="176.44" width="152.98" height="8.99" rx="4.5" ry="4.5"/><rect class="cls-6" x="301.01" y="160.03" width="195.75" height="8.99" rx="4.5" ry="4.5"/><rect class="cls-6" x="301.01" y="143.62" width="114.91" height="8.99" rx="4.5" ry="4.5"/><rect class="cls-6" x="57.25" y="77.96" width="114.91" height="8.99" rx="4.5" ry="4.5"/><path class="cls-4" d="M170.74,33.27c0-13.22,16.38-23.94,36.58-23.94s36.57,10.72,36.57,23.94S227.52,57.2,207.32,57.2a52.63,52.63,0,0,1-16.79-2.67l-29.95,3.59,19-9.24C174.09,44.69,170.74,39.24,170.74,33.27Z"/><path class="cls-7" d="M176.4,24.22C176.4,11,192.77.28,213,.28S249.55,11,249.55,24.22,233.17,48.15,213,48.15a52.61,52.61,0,0,1-16.78-2.67l-29.95,3.59,19-9.24C179.75,35.64,176.4,30.19,176.4,24.22Z"/><ellipse class="cls-8" cx="211.87" cy="25.49" rx="11.12" ry="2.88"/><path class="cls-9" d="M219.62,27.34c-3,1.48-12.51,1.4-15.51,0,0-1.16,3.93-1.85,7.66-1.85C215.33,25.49,219.62,26.18,219.62,27.34Z"/><ellipse class="cls-9" cx="212.14" cy="38.87" rx="9.93" ry="2.56"/><ellipse class="cls-8" cx="212.14" cy="36.99" rx="14.69" ry="3.02"/><path class="cls-8" d="M220.52,36.83c0-.89-3.75-1.28-8.38-1.28s-8.37.39-8.37,1.28,3.75,1.63,8.37,1.63S220.52,37.73,220.52,36.83Z"/><path class="cls-8" d="M200.75,25.49c0,1.6,5,2.89,11.12,2.89S223,27.09,223,25.49c-2,7.72-6.42,11.26-6.42,11.26-.38.38-2,1-4.54,1s-4.16-.57-4.54-1C207.49,36.75,202.84,33.21,200.75,25.49Z"/><path class="cls-10" d="M214.18,11.8l-.85.26c-.64.18-.78.28-.82.81l0,.56h-1.13l-.24-.71a5.38,5.38,0,0,1-.34-1.67c0-.71.48-1.07,1.57-1.33l1.51-.34c.7-.18,1-.39,1-.89a1.71,1.71,0,0,0-.1-.54l-2.88-.43C210.38,7.3,210,6.8,210,6.07s.48-1.23,1.49-1.51c2.34.48,4.87,2.5,4.87,4.57C216.37,10.53,215.73,11.33,214.18,11.8Zm-4,4.65A1.85,1.85,0,0,1,212,14.6a1.83,1.83,0,0,1,1.85,1.85A1.8,1.8,0,0,1,212,18.27,1.82,1.82,0,0,1,210.15,16.45Z"/><path class="cls-11" d="M176.4,24.22C176.4,11,192.77.28,213,.28S249.55,11,249.55,24.22,233.17,48.15,213,48.15a52.61,52.61,0,0,1-16.78-2.67l-29.95,3.59,19-9.24C179.75,35.64,176.4,30.19,176.4,24.22Z"/><path class="cls-4" d="M327.73,65.29c0-10.76-13.27-19.49-29.63-19.49s-29.64,8.73-29.64,19.49,13.27,19.49,29.64,19.49a42.61,42.61,0,0,0,13.6-2.17l29.59,19.11L320.54,78C325,74.6,327.73,70.15,327.73,65.29Z"/><path class="cls-12" d="M327.73,58.51c0-10.77-13.27-19.5-29.63-19.5s-29.64,8.73-29.64,19.5S281.73,78,298.1,78a42.33,42.33,0,0,0,13.6-2.18l29.59,19.11L320.54,71.22C325,67.81,327.73,63.37,327.73,58.51Z"/><path class="cls-13" d="M301.43,70.31c-1.84-1.07-9.4-4.78-11.18-7.73a11,11,0,0,1-.35-11.22,5,5,0,0,1,4.89-2.29h0A7.63,7.63,0,0,1,296.66,44c1.35-1.35,3.91-.86,3.4,1.21a30.2,30.2,0,0,0-1.13,5.31c-.36,4.29,4.09,7.77,4.09,13.15,0,1.88,3,3.53,4.28,4.23C306.94,70.88,301.43,70.31,301.43,70.31Z"/><path class="cls-14" d="M303.94,71.59c-.93-.45-2.06-1-2.7-1.39-2.11-1.24-9.27-4.76-11-7.62a11,11,0,0,1-.35-11.22,5,5,0,0,1,4.89-2.29h0A7.63,7.63,0,0,1,296.66,44c1.35-1.35,3.91-.86,3.4,1.21a30.2,30.2,0,0,0-1.13,5.31c-.36,4.29,4.09,7.77,4.09,13.15,0,2.35,4.88,4.57,4.88,4.57"/><path class="cls-15" d="M297.52,57.24c1.21-.9.82-3.2-.92-3.86-2-.75-4.44.93-4.44.93"/><path class="cls-15" d="M296.14,62.07a4.51,4.51,0,0,0,2.61-1.14,2.43,2.43,0,0,0-1.12-3.68c-2-.75-4.44.92-4.44.92"/><path class="cls-16" d="M295.91,61.32a2.32,2.32,0,0,1-.28,2.33"/><path class="cls-14" d="M296.6,53.38a2.64,2.64,0,0,0-1-4.1,3.24,3.24,0,0,0-.77-.21"/><path class="cls-17" d="M403.53,198.91,402,254s.44,1.21,2.45,1.19a2.36,2.36,0,0,0,2.17-1.25l1.62-54.53Z"/><path class="cls-7" d="M434.27,233.39l-26.92-4.48s-1.57,0-2,1a2.88,2.88,0,0,0,.3,2.91l29.13,5.11Z"/><path class="cls-18" d="M434.27,233.39l-26.92-4.48s-1.57,0-2,1a2.88,2.88,0,0,0,.3,2.91l29.13,5.11Z"/><path class="cls-7" d="M414.93,231.9l-18.84,6.89,4.28.69,6,1,13.29-5.2a3,3,0,0,0,0-2.68C418.73,231.19,414.93,231.9,414.93,231.9Z"/><path class="cls-18" d="M414.93,231.9l-18.84,6.89,4.28.69,6,1,13.29-5.2a3,3,0,0,0,0-2.68C418.73,231.19,414.93,231.9,414.93,231.9Z"/><path class="cls-17" d="M435,193.19l-4.9,1.1,7.13,67.39a3.4,3.4,0,0,0,2.82,1,2.67,2.67,0,0,0,2.28-1.31Z"/><path class="cls-7" d="M386.4,194.1l-3.54-.31-8.55,70.79s.58,1.51,3.41,1.51a3.49,3.49,0,0,0,2.8-1.19l8.69-70.55Z"/><path class="cls-18" d="M386.4,194.1l-3.54-.31-8.55,70.79s.58,1.51,3.41,1.51a3.49,3.49,0,0,0,2.8-1.19l8.69-70.55Z"/><path class="cls-2" d="M432.77,193.74s.37,1.79-.94,2.16l-15,3.39-.08-3.18,1.75-.25Z"/><path class="cls-2" d="M378.56,191.71c-1.69-.64-2-2.32-2.1-4.13-.39-5.74-1.23-19.68-1.35-21.76-.37-6.9,3.21-9.72,6.13-10.48,1.79-.46,14.39-1.52,14.94-1.56l-3.5,1.41-8.2.92c-6.09.41-6.21,6.82-6.21,8.83s1.7,21.67,1.7,21.67c-1.14.14-1.59,1.14-1.59,2.21Z"/><path class="cls-18" d="M423.3,163.8c1-4.16,3.77-6.52,6.28-6.52,1.84,0,9.28-.23,13.2-.36"/><path class="cls-19" d="M404.71,155.57c-5.66,0-12.94.16-20.23.54-6.09.41-6.21,6.82-6.21,8.83s1.7,21.67,1.7,21.67,19.2-2.66,20.65-3a3,3,0,0,0,2.45-2.7c.12-1,2.6-23.59,2.6-23.59A1.9,1.9,0,0,0,404.71,155.57Z"/><polygon class="cls-7" points="412.19 241.65 384 236.66 382.06 237.26 381.55 241.06 412.29 246.96 412.19 241.65"/><polygon class="cls-18" points="412.19 241.65 384 236.66 382.06 237.26 381.55 241.06 412.29 246.96 412.19 241.65"/><path class="cls-17" d="M416.72,196.11l-2.86.25-2.56-.19,1.5,78.36s.28,1.38,2.82,1.12a4,4,0,0,0,2.87-1.62Z"/><path class="cls-20" d="M442.77,156.84a5.46,5.46,0,0,0-5.09-4.13l-27.55-2.48c-3.72,0-5.42,5.34-5.42,5.34a1.9,1.9,0,0,1,1,1.78s-2.48,22.59-2.6,23.59a3,3,0,0,1-2.45,2.7c-1.45.31-20.65,3-20.65,3a1.59,1.59,0,0,0-1.2.73s0,.85,1.28,1.06c0,0,29.19,2.39,30.46,2.52,2.8.29,6.94,0,8.77-.87,1.17-8.41,3.29-23.3,4-26.25,1-4.16,3.77-6.52,6.28-6.52,1.84,0,9.28-.23,13.2-.36"/><path class="cls-17" d="M378.77,187.34s0,.85,1.28,1.06c0,0,29.19,2.39,30.46,2.52,2.8.29,6.94,0,8.77-.87l-.81,5.81-2.21.31a26.3,26.3,0,0,1-6.43,0l-29.77-2.63a1.94,1.94,0,0,1-1.5-1.83"/><path class="cls-2" d="M442.77,156.84a5.46,5.46,0,0,0-5.09-4.13c3.3,0,6.48,1.47,7.52,4.13l-2.42.08"/><line class="cls-18" x1="405.74" y1="183.51" x2="418.36" y2="184.8"/><path class="cls-2" d="M385.63,194l25.64,2.32.06,3.4-24.25-2.65A2.7,2.7,0,0,1,385.63,194Z"/><path class="cls-2" d="M391.1,230.44c3.5,3,2,9.89,2.22,12.61.26,3.5-.81,6.53,1.2,7.79,1.35.85,3.49-1.86,4.36-4.64.77-2.46-.36-3.49.86-7s4.22-4.91,3.59-7.41c-1-3.88-4-1.74-9.21-5.74"/><path class="cls-20" d="M381.52,221.51c3.21,3.19,6.19,6.28,9.38,9.47,3,0,3.87-3.49,3.91-5.14-4.67-13.26-7-22.15-12.39-27.56C383.73,206.42,381.52,221.51,381.52,221.51Z"/><path class="cls-21" d="M381.52,221.51c3.21,3.19,6.19,6.28,9.38,9.47,3,0,3.87-3.49,3.91-5.14-4.67-13.26-7-22.15-12.39-27.56C383.73,206.42,381.52,221.51,381.52,221.51Z"/><path class="cls-2" d="M379.12,251.91c3.42,6.57.54,14.9-4,18.26-2.89,2.15-3.88,3.32-3.43,4.75,1.41,1.4,6.6,2.37,10.65-.31,1.54-1,2.64-4.46,4-5.71,3.62-3.33,6.35-2.8,6.2-6.18-.16-3.76-4.45-4.59-6.46-13.06"/><path class="cls-20" d="M431.81,160.87c-3.81,2.71-5.95,21.34-6.56,26.14-9.05,5.27-26.08,8.2-40.13,8.2-1,0-4.21.19-2.7,3.07,3.45,8.47,2.42,38.52,3.67,51.38,0,1.57-4.37,4.42-7,2.25-3.56-8.44-15.26-28.45-16.8-43.93h0c-7.64-7.24-11.69-14.24-10.7-21.08,1.26-8.69,33.53-23,48.28-26.4,6.38,6.37,21.62,7.13,31.91.37"/><path class="cls-21" d="M431.81,160.87c-3.81,2.71-5.95,21.34-6.56,26.14-9.05,5.27-26.08,8.2-40.13,8.2-1,0-4.21.19-2.7,3.07,2.74,6.73,2.65,27.06,3.13,41.58-3.73-3.72-3.38-14.88-5.61-25.57-1.95-9.35-7.21-18.27-1.38-22.58,10.55-7.81,44.74-4.37,53.25-30.84"/><path class="cls-20" d="M424.2,164.57c.19-1-23.78-3.5-24.3-4.07-18.41,2.49-47.11,18.32-48.28,26.4-1,6.84,3.06,13.84,10.7,21.08a.88.88,0,0,1,0,.16c-1-10.47-1.22-19,.5-21,5.36-6.48,26.83-14.74,37.06-17,2-.45,3.69-2.44,3.16-4.34"/><path class="cls-21" d="M357.25,189.3c-1,6.84,4.71,14.71,4.57,12.8-.52-7.59-.35-13.35,1-15,5.36-6.48,26.83-14.74,37.06-17,2-.45,4.91-3.42,3.16-4.34C385.76,165.69,358.42,181.22,357.25,189.3Z"/><polygon class="cls-19" points="332.68 164.19 365.82 176.37 393.83 171.02 393.83 169.41 332.68 162.57 332.68 164.19"/><polygon class="cls-2" points="332.68 162.57 358 158.54 393.83 169.41 365.82 174.75 332.68 162.57"/><path class="cls-22" d="M364.5,154.79c-3.45,0-2.77,5.93-3.35,7.05-3.18,0-.31-4.44-5-4.34-1.8,0-4.33,2.39-5.84,5.07-1.07.53-3.22-.42-3.73-.54-1.83-.47-1.26-2.58-.7-3.63,1.15-2.15,5.86-4.29,5.86-4.29a58.14,58.14,0,0,0,11.33-2.9l1.88-1.71,2.39,4.38Z"/><path class="cls-17" d="M389.89,117.18c-3.84,5.54-6.14,16.22-8.13,24.52-8.45,1.28-20,6.2-20.67,10.24a9.5,9.5,0,0,1,2-.73c2.09-.34,3,2.65,1.44,3.58,5,1.3,19.27-2.11,23.82-4.66,1.62-1.49,4.25-4.34,4.84-7.93"/><path class="cls-21" d="M383.62,148.93c-6.3,5.78-21.3,2.4-20.56,2.28,2.09-.34,3,2.65,1.44,3.58,5,1.3,19.27-2.11,23.82-4.66C389.94,148.64,389.91,143.15,383.62,148.93Z"/><path class="cls-17" d="M392.56,140.8c.56,2.48,3.88,4.75,4.83,5.7,2.42,2.41,1.84,6.52,1.81,10.18a13.72,13.72,0,0,0,.7,3.83,3.17,3.17,0,0,0,.86,1.43c6.37,4.63,23.24,5.73,31.05-1.07.5-9.8,2.42-26.33-5.41-40-3.1-5.44-12.64-12-24-10-6.38,1.09-11.09,4.23-12.54,6.37"/><g class="cls-23"><path class="cls-24" d="M392.56,140.8c.6,1.4,3.88,4.75,4.83,5.7,2.42,2.41,16.82,3.63,16.79,7.28,0,0-14.92,5.05-14.28,6.73a3.17,3.17,0,0,0,.86,1.43c3.12,2.28,8.78,3.7,14.65,3.75,5.87-1.4,11.43-8.08,12.49-15.85.37-2.66-1.11-5.73-1.49-8.38C415.92,149.5,397.54,145.18,392.56,140.8Z"/></g><path class="cls-2" d="M390.32,101a10.14,10.14,0,0,1-5.1,4.88,11.69,11.69,0,0,0,6.13-1.83"/><path class="cls-22" d="M400.63,124.49c5.12.67,13.65-5.16,14.4-10.69.23-1.71-6.88-3.85-2-16.79,3-4.57-10.65,1.14-16.87,2.91,1.89,1.1,5.64,8.73,5.28,12.91-.32,3.75-1.94,3.57-2.44,6.57A6.71,6.71,0,0,0,400.63,124.49Z"/><path class="cls-3" d="M400.63,124.49c5.12.67,13.65-5.16,14.4-10.69.18-1.38-4.38-3-3.62-10.36-2.09,4.5.35,9-1.15,12.44C408,121.21,400.63,124.49,400.63,124.49Z"/><path class="cls-22" d="M415,95.59c5.57-4.55,6.85-12.78,3.09-18.12-4.47-6.36-18.1-6.23-25.18,1.35-2.29,2.45-3.45,8-3,9a3.53,3.53,0,0,1,.64,2.3c-.12.94-1.44,2.61-1.41,4.89.06,3.84,1.34,7.21,3,11a4.91,4.91,0,0,0,5.58,2.83,26.43,26.43,0,0,0,7.94-3.53"/><path class="cls-18" d="M397.8,89.18a7.87,7.87,0,0,1,5.28.61"/><path class="cls-20" d="M392.59,101.46c.92,1.29,3.53.81,4.31.64-.25,1.34-1.39,2.33-2.43,1.78"/><path class="cls-18" d="M390,87.83c.75-.69,3.32-.07,3.92,1.5.76,2.85-2.39,4.87-2.82,5.94a1.85,1.85,0,0,0,.43,2,7.23,7.23,0,0,0,2.35.78"/><path class="cls-19" d="M390.11,85c-.23-6.94,2.24-11,5.39-13a17.74,17.74,0,0,1,16.69-1.62,6.48,6.48,0,0,1,10.89-3.92c4.14,3.5,1.91,11.56-3.37,11,4.9,8.47-2,15.64-2.54,19.82-.49,3.8,2.15,5.82,5.28,6.3a8.21,8.21,0,0,1-8.05-3.35c-1.4,0-2.63,1-3,3.18-1.7-.66-2.71-3.74-2.35-6.72.27-2.32,2.57-2.41,3.82-5.43.67-1.62.51-4.19-1.66-4.19-2.45,0-1.8,3.13-3.61,4.93-.13-.9-1.33-2.14-1.33-3.55,0-2,.34-3.59-1.57-5C400.51,80.31,389.39,78.08,390.11,85Z"/><path class="cls-18" d="M400.89,146.52a6,6,0,0,1,3.79,1.07"/><path class="cls-22" d="M389.54,162.9l-5.71,2.36c-1.64,1.12-4,.44-5.06,2.26-.65,1.16-.48,2.48-1.23,3.57s-3.62.53-5,.31c-5.71-.87-3.3-3.89-2.9-5.7.58-2.64,3.31-4,5.49-4.7,4-1.34,8.55-.79,13.09-2.46C388.18,158.54,393.78,159.51,389.54,162.9Z"/><path class="cls-7" d="M426.41,141.46c-2.12,7.15-6.15,15.46-9.58,18.89-5.66,2.34-22.33,4.44-27.29,2.55,1-.59,1.21-3-.36-4a2.71,2.71,0,0,0-2.55.14c1.58-3.29,16.15-8,22.38-8.16q1.62-9.1,2.41-18.33c.2-2.28,1.27-9.14,4.3-11.06"/><path class="cls-21" d="M416.83,160.35c-5.66,2.34-22.33,4.44-27.29,2.55,1-.59,1.21-3-.36-4-.74-.45,2.59,2.73,8.79,2.08C402.66,160.53,420.26,156.92,416.83,160.35Z"/><polygon class="cls-19" points="365.82 174.75 351.72 151.77 315.97 140.8 315.49 141.56 365.34 175.52 365.82 174.75"/><polygon class="cls-19" points="365.34 175.52 351.25 152.54 315.49 141.56 332.2 163.34 365.34 175.52"/><path class="cls-18" d="M392.56,140.8c-1.95-6.8,3-13.43,2.05-19.28"/><path class="cls-25" d="M427.9,149.84a32.91,32.91,0,0,0-1.49-8.38c-2.12,7.15-6.15,15.46-9.58,18.89-5.66,2.34-22.33,4.44-27.29,2.55,1-.59,1.21-3-.36-4a2.71,2.71,0,0,0-2.55.14c1.58-3.29,16.15-8,22.38-8.16q1.62-9.1,2.41-18.33c.2-2.28,1.27-9.14,4.3-11.06"/><path class="cls-17" d="M448.75,157.86l-15.28.72c-5.26.18-6,8.65-6,8.65s-2.74,21.6-3.47,25.44-5.54,3.19-5.54,3.19,3.8-27.9,4.83-32.06,3.77-6.52,6.28-6.52,15.62-.44,15.62-.44l3,.52A.81.81,0,0,1,448.75,157.86Z"/><path class="cls-7" d="M448.75,157.86l-15.28.72c-5.26.18-6,8.65-6,8.65s-2.74,21.6-3.47,25.44-5.54,3.19-5.54,3.19a13.43,13.43,0,0,0,5.33,0c1.43-.41,10-2.35,13-3.18,1.4-.39,3.71-.73,5.2-5.59,1-3.21,6.86-28.48,6.86-28.48a1.63,1.63,0,0,0-.1-.83"/><path class="cls-26" d="M440.66,165.35c-4.64.54-6.86,5-7.62,7.79-1.23,4.52-2,17.23-9,19.53-.73,3.84-5.54,3.19-5.54,3.19a13.43,13.43,0,0,0,5.33,0c1.43-.41,10-2.35,13-3.18,1.4-.39,3.71-.73,5.2-5.59.63-2.06,3.66-14.82,5.47-22.54Z"/><path class="cls-18" d="M448.75,157.86l-15.28.72c-5.26.18-6,8.65-6,8.65s-2.74,21.6-3.47,25.44-5.54,3.19-5.54,3.19a13.43,13.43,0,0,0,5.33,0c1.43-.41,10-2.35,13-3.18,1.4-.39,3.71-.73,5.2-5.59,1-3.21,6.86-28.48,6.86-28.48a1.63,1.63,0,0,0-.1-.83"/><line class="cls-17" x1="414.35" y1="192.6" x2="414.35" y2="194.5"/><path class="cls-19" d="M397.49,227.5c2.2-.25,5.7,2.14,6.66,3.29.8,3-1.47,5-3.09,8.46-1.13,2.4-1.33,5.3-2.27,8s-2.93,5.85-4.84,4.83-1.33-5.33-1.15-9.27c.11-2.31.06-6,0-8.23C394.84,238,399.91,232.52,397.49,227.5Z"/><path class="cls-19" d="M389.16,255.3a14.15,14.15,0,0,1,5,6.22c-.16,1.72-1.26,2.73-2.9,4.36-2.81,2.81-6.62,7.59-9.32,9.07-3.56,1.95-10.79,2.39-11.26-1-.36-2.6,3.5-3.38,4.81-4.62a19.6,19.6,0,0,0,4.32-8.11,3.34,3.34,0,0,0,5.25,2.42C387.61,262.14,390.21,258.41,389.16,255.3Z"/><path class="cls-20" d="M95.1,247c-2.09,9.18,2.64,11.23.33,14.22-1.38,1.78-3.34.93-6.44,1.44-2.56.43-3.51,2-7.42,3.35-3,1-6.34,1.24-8.21,0s1.83-4.14,6.25-5.74a15.17,15.17,0,0,0,9.57-13.89"/><path class="cls-20" d="M119.94,249.88c1.15,13.32-3.61,16.64-1.48,20,1.66,2.65,8.47.47,9.7-2,1.06-2.16-1-5.45-2-8.31-.94-2.53-.68-6.34-.12-9.7"/><path class="cls-19" d="M138.68,163.56c.59-5.52-1.76-15.38-7.18-22.67-3.65-4.9-12.45-8.55-20.59-7.79-10.34,1-19.45,5.47-23.89,12.19-4.29,6.51-.19,12.75.33,22.61,0,32.79-2.27,67.54.34,77.95,2.24,1.77,5.38,1.84,8.12,1.06,7.58-11.23,6.85-55.81,19.83-83.31,5.29,24-.8,75.54,3.51,85.86a7.28,7.28,0,0,0,7.69,0C132.9,243.41,138.68,173.41,138.68,163.56Z"/><path class="cls-3" d="M98.33,218.75c0,32.79-13.25,16.69-10.64,27.1,2.24,1.77,5.38,1.84,8.12,1.06,7.36-10.89,6.89-53.16,18.7-80.79h0C104.18,167.09,97.81,208.89,98.33,218.75Z"/><path class="cls-3" d="M128.35,219.34c4.56,24.73-13.39,20.08-9.2,30.12a7.28,7.28,0,0,0,7.69,0c6.06-6.05,11.84-76.05,11.84-85.9C139.27,158,135.62,215.42,128.35,219.34Z"/><path class="cls-7" d="M85.78,254c3.53-.57,3.71,4.17,7.29,2.82,1.5-.79,2.43-2.13,2.09-3.21,1.42,1.15,1.8,5,1.64,7.78-1.59,2-6,2-12.1,4.24-3.6,1.35-10.46,2.8-12.2.66-1.14-1.48.36-3.45,2.51-4.62C78.54,259.64,82.68,258.42,85.78,254Z"/><path class="cls-3" d="M89.27,255.57c1,1,1.92,2,3.8,1.26,1.5-.79,2.43-2.13,2.09-3.21,1.42,1.15,1.8,5,1.64,7.78-1.59,2-6,2-12.1,4.24a31.42,31.42,0,0,1-4.62,1.29C79.11,262.65,89.16,262.06,89.27,255.57Z"/><path class="cls-7" d="M128.76,268.44c-.75,2.66-7.21,4.24-10.12,2.51-2.74-1.63-1-6.26-.49-7.83s.75-5.26,1.92-6.42a11.48,11.48,0,0,0-.26,2.81,3.15,3.15,0,0,1,2.43-1.06,8.79,8.79,0,0,1,3.56.92c.32-.65,0-2.13,0-2.67,1.07.75,1,3,1.2,3.51C128.4,264.64,129.37,266.3,128.76,268.44Z"/><path class="cls-3" d="M128.76,268.44c-.75,2.66-7.21,4.24-10.12,2.51-2.74-1.63,7.17-.28,7.16-6.77,0-4.81-4.34-5.71-3.56-5.73a8.79,8.79,0,0,1,3.56.92c.32-.65,0-2.13,0-2.67,1.07.75,1,3,1.2,3.51C128.4,264.64,129.37,266.3,128.76,268.44Z"/><path class="cls-18" d="M85.78,254c3.53-.57,3.71,4.17,7.29,2.82,1.5-.79,2.43-2.13,2.09-3.21,1.42,1.15,1.8,5,1.64,7.78-1.59,2-6,2-12.1,4.24-3.6,1.35-10.46,2.8-12.2.66-1.14-1.48.36-3.45,2.51-4.62C78.54,259.64,82.68,258.42,85.78,254Z"/><path class="cls-18" d="M128.76,268.44c-.75,2.66-7.21,4.24-10.12,2.51-2.74-1.63-1-6.26-.49-7.83s.75-5.26,1.92-6.42a11.48,11.48,0,0,0-.26,2.81,3.15,3.15,0,0,1,2.43-1.06,8.79,8.79,0,0,1,3.56.92c.32-.65,0-2.13,0-2.67,1.07.75,1,3,1.2,3.51C128.4,264.64,129.37,266.3,128.76,268.44Z"/><path class="cls-22" d="M125.8,88.77c-1.79-9.5-6.35-9.35-6.66-15.13a38.23,38.23,0,0,0-4.22-1.18l-6.46-1.34c-1,0-6.24.55-5.8,6.12"/><path class="cls-17" d="M100.57,146.26c5.84.87,24,3.57,27.88-.36,3.56-3.55,2.85-9.74,3-14.76.18-8.08,1.17-16.12,1.53-24.19C133.13,103,127.72,88.6,122,80.3c-4.72-4.71-12.6-10.59-19.36-3.06-1.79,1.89-3.33,11.55-3.15,13,.43,3.41.6,6.79,1.12,10.19,1.52,10.09-.2,20.35-1,30.51-.35,4.52-.93,9-1.28,13.52a3,3,0,0,0,.29,1.92A1.32,1.32,0,0,0,100.57,146.26Z"/><path class="cls-2" d="M121.52,69.4c-2.53,2.53-3.33,7.33-2.82,9.18s1.55,3,2.12,5.3c.7,2.84.16,5.35-3.14,5.9-3.86.64-7.83-2.57-10.11-5.8-1.65-2.34-3-5.5-1.49-6.79,2.73-2.32,3.75-10.49,1.65-15"/><path class="cls-3" d="M115.23,102.75c-1.43-10.29-2.93-15.4-6-20.78-1.75-3-1.88-6.42-1.19-8.1a25,25,0,0,0,.46-2.75c-6.22.85-5.4,5.67-5.8,6.12-1.79,1.89-3.33,11.55-3.15,13,.43,3.41.6,6.79,1.12,10.19,1.52,10.09-16.89,49.21-9.28,55.1,1.77.26.81,6.71,4.1,7.07C114.51,145.9,117.41,118.41,115.23,102.75Z"/><path class="cls-3" d="M133,107c.14-3.13-7.44-18.73-12.64-29.4-1.33-2.74-1.44-4.5-.22-6.19-3-1-4.86,10.55.75,16.15,2.74,2.73,3.69,9.54,4,14,1,15.48-8.06,40,6.69,60.11,1.78,2.43,6.53,1.14,7.27.4,3.56-3.55-7.47-25.85-7.35-30.87C131.6,123.06,132.59,115,133,107Z"/><path class="cls-2" d="M155.42,141.63c5.18,2.5,7.34,6.59,10.8,8.57,4.57,2.6,8,2.2,10.73-.23,1.21-1.06,1.33-3.22-1.15-2.88-3.52.48-7.55-2-7.55-4.35,0-1.45,1.05-1.3,2.72-2.34s2.09-3,1.24-3.45c-1.37-.7-1.65,1.07-3.46,2a9.17,9.17,0,0,1-10.23-1.71"/><path class="cls-18" d="M167.63,148.24c1.28,1,3.37,2.19,5.39,1.81s1.47,1.8.24,1.8"/><path class="cls-18" d="M170.34,147.71c1.91,1.33,3.94,1,5.11,1s1.1,1.69.3,2.19"/><path class="cls-18" d="M100.57,146.26c5.84.87,24,3.57,27.88-.36"/><path class="cls-22" d="M137.27,131c2.59,4.83,12.1,9.32,17,11.37,1.72-.69,3.88-3.64,4.43-5.7-7.1-10.2-16.28-14.11-18.26-19.1-2.44-6.19-1-18.66-4.21-28.21-2.1-6.17-10.79-6.68-15.92-11.8.91,2.18,3.39,3.91,4.72,11.81C127,101,137.27,131,137.27,131Z"/><path class="cls-3" d="M137.27,131c2.59,4.83,12.1,9.32,17,11.37a6.83,6.83,0,0,0,2.48-2.12c-10.54-4.34-15.27-8.68-17.24-13.67-2.45-6.2-2.44-14.21-5.19-15.77C126.84,106.58,137.27,131,137.27,131Z"/><path class="cls-22" d="M102.6,75.59c-.3,1.45,0,2.76,1.27,5.42,4.71,10.86,7.91,29.37,5.1,45.4-3.31,19-9.64,18.4-15,29.51-2.28,4.37-4.91,5.87-5.68,11.83-5.44-.37-11.55-3.92-12.44-8.74.45-3.08,3.77-9.69,5.24-15.16C82.82,137.62,97.69,81,102.6,75.59"/><path class="cls-3" d="M97.68,96.48a110.52,110.52,0,0,0-3.13,28.09c.23,5.92.9,16.23,4.62,23.4A43.34,43.34,0,0,0,94,155.92c-2.28,4.37-9.12-11.83-7.65-17.29C88.05,132.39,89.11,99.28,97.68,96.48Z"/><path class="cls-2" d="M92.79,158.15c.47,1.32,1.57,3.7,2.66,4.4-1.07,3.28-2.74,6.08-6.34,6.5a18.17,18.17,0,0,0-1.54-8.21"/><path class="cls-18" d="M114.48,120.88a9.65,9.65,0,0,1,3.25-3.86,19.31,19.31,0,0,1,3.26-1.68l3.88-1.71"/><path class="cls-18" d="M91.46,143.3c4.94-9.41,7.72-16.58,8.05-27.21"/><path class="cls-22" d="M102.6,75.59c-3.22,4.23-12,2.29-16.72,7-5.2,5.2-9.45,36.4-8.55,44.65,1,8.66,4.19,29.13,8.63,35.41,3.52,0,7.26-2,8-3.55,0-5.74-3.36-25-3.36-34.31,0-3.8,1.64-17.85,4.87-25.86a4.85,4.85,0,0,1,2.2-2.4"/><path class="cls-22" d="M134.14,96.26c0,28.82,5.48,44.93,9.46,61.35-.4,1.75-1.88,5.44-4.92,5.95-2.65.45-5.61-3-8.28-9.35-2.56-6.1-3.49-17.53-3.66-25.05-.25-11.61,1.38-21-1.71-39.8"/><path class="cls-18" d="M128.45,85.93c5.69,15.48,1.47,30,2.54,42.1"/><path class="cls-27" d="M112.53,69.48a7.44,7.44,0,0,0,7.1.19,21,21,0,0,0,5.84-4.51,22.64,22.64,0,0,0,4.29-5.23,47.42,47.42,0,0,0,1.94-4.84c1-2.43,2.42-4.84,2.23-7.45a8.24,8.24,0,0,0-4.51-6.3,19.86,19.86,0,0,0-7.79-2c-3.81-.35-8-.29-11,2a12.13,12.13,0,0,0-2.82,3.07,19.32,19.32,0,0,0-2.53,15.72c.61,2.21,1.88.88,3,2.54S110.66,68.22,112.53,69.48Z"/><path class="cls-2" d="M133.3,50.87c.65,4-1.22,3.61-1.4,4.84a10.2,10.2,0,0,0,.56,3.11c.59,2.52-3.47,12.62-6.75,13.62-2.16.65-9.75-2.43-12-4.32"/><path class="cls-19" d="M120.25,46.9c-.88,6.12-6.26,2.92-6,10.53-3.19-1.35-1.15-6-3.71-6.56-1.32-.3-3.26,1.29-2.59,3.64,1,3.65,4.54,2.26,3.12,6.71-.75,1.68-4.92,4-8.45-2.46C96.46,47.5,101.3,33.89,113.73,31.5s26,8.74,22.64,18.32c-1,2.87-13.8.45-16.12-2.92"/><path class="cls-22" d="M128.2,65.2c-.68.8-1.68.66-2.67.4s-1,1.37-.4,2,1.55.67,1.86-.35"/><path class="cls-18" d="M132.2,53.59c-1-.22-3.85.18-3.69,2.19s1.64,3.36,1.43,4.8c-.13.93-1.87,1.13-2.76,1"/><path class="cls-18" d="M120.06,55.25c1.17-1.17,2.9-1.41,5.16-1.07"/></g></g></g></svg>