<svg xmlns="http://www.w3.org/2000/svg" viewBox="0 0 795.14 442.07"><defs><style>.cls-1{isolation:isolate;}.cls-16,.cls-2,.cls-6{fill:#9b9db3;}.cls-2,.cls-3{opacity:0.25;}.cls-3,.cls-7{fill:#363c66;}.cls-18,.cls-4,.cls-9{fill:#f6f5f4;}.cls-12,.cls-16,.cls-19,.cls-4{opacity:0.75;}.cls-19,.cls-5{fill:none;}.cls-10,.cls-11,.cls-18,.cls-19,.cls-5{stroke:#363c66;stroke-linecap:round;stroke-linejoin:round;stroke-width:0.5px;}.cls-10,.cls-12,.cls-13,.cls-8{fill:#cdced9;}.cls-11{fill:#fff;}.cls-12,.cls-13,.cls-16{mix-blend-mode:multiply;}.cls-13,.cls-14{opacity:0.5;}.cls-15{fill:#67e2e9;}.cls-17{fill:#029ba4;}</style></defs><title>P_desktopAsset 48</title><g class="cls-1"><g id="Layer_2" data-name="Layer 2"><g id="Layer_1-2" data-name="Layer 1"><path class="cls-2" d="M397.57,321.84c174.84,0,325.93,49,397.32,120H.25C71.65,370.81,222.73,321.84,397.57,321.84Z"/><path class="cls-3" d="M611.2,406c31.24-11.29,51.86-32.86,33.44-47.73,77,24.53,127.71,60.24,150.25,83.57H411.61S574.47,419.26,611.2,406Z"/><path class="cls-4" d="M585.43,342c-57-12.93-120.67-20.16-187.86-20.16-174.84,0-325.92,49-397.32,120H262s-32.51-13.78-33.37-32c-11.08-.15-18.47-2-19-5.27-.67-4,9.25-9.2,24-13.46C261.5,339.17,401.89,326.54,585.43,342Z"/><path class="cls-5" d="M224,409.64c-4.87-.31-8.74-1-11.24-2.09,1.63-.66.26-1.92-.22-2"/><path class="cls-5" d="M289.24,399.57a171.81,171.81,0,0,1-30.54,7.67c-2.81.46-5.57.86-8.26,1.2a.93.93,0,0,0-.84-.82,7,7,0,0,0-4.81,1.45c-3.15.3-6.18.51-9,.63"/><ellipse class="cls-6" cx="256.85" cy="396.12" rx="41.78" ry="8.55" transform="translate(-61.04 47.08) rotate(-9.37)"/><path class="cls-7" d="M215.63,402.92c-.77-4.65,17.06-11.47,39.82-15.23s41.85-3,42.62,1.63c.21,2.73-5.05,5.26-6.37,5.93,2.55-2.63.55-4.23-4.86-5.4-12.53-2.7-44.74,3.15-52.59,10-3.87,3.36,5.37,6.95,24,4.7C235.49,408.3,216.4,407.57,215.63,402.92Z"/><path class="cls-5" d="M250.16,388.63c-20.17,3.87-35.24,10-34.53,14.29.77,4.66,19.86,5.39,42.62,1.63s40.6-10.57,39.82-15.23c-.66-4-14.8-5.11-33.18-3Z"/><path class="cls-7" d="M235.5,393.26s5.66,6.18,12.63,8.83c-7.24.33-14.41-5.88-14.68-7.55C233.4,392.79,235.5,393.26,235.5,393.26Z"/><path class="cls-5" d="M302.27,392.77a28.61,28.61,0,0,1-6.89,4.25"/><path class="cls-5" d="M325,402.5c-11.76-2.92-17.08-6-20.73-13.57-1.63-3.4-10.15-5.16-22.41-5.08a3.13,3.13,0,0,1-2.08.62c-.72,0-1-.41-.87-.56-4.38.12-9.17.47-14.25,1l-14.74,2.24c-23.15,4.5-39.49,11.49-40.28,17.35-.7,5.15-5.75,11.33-12.27,15.79"/><path class="cls-5" d="M794.89,441.82c-7.91-8.19-19.3-17.91-34.08-28.13h0c-56.32-39.26-139.37-68.94-236.49-82.94-12.85-1.75-45.39-5.82-66.4-6.93-19.75-1-39.88-2-60.36-2A905.54,905.54,0,0,0,300.83,327"/><path class="cls-8" d="M416.47,335.5a3.79,3.79,0,0,1-2.26.42c-.62-.09-1.62-.51-1.42-1-5.57-.76-11.81-1.35-18.66-1.69L374.59,333c-30.91.88-55.84,6.72-55.84,13.8,0,6.27,18.75,11.57,44.51,13.31a9.22,9.22,0,0,1,6.52-.84,1.19,1.19,0,0,1,.91,1.23c3.56.14,7.21.22,10.95.22,34.73,0,62.88-6.23,62.88-13.92C444.71,343.16,434.58,338.38,416.47,335.5Z"/><path class="cls-5" d="M336.29,356.45c-6.23-1.43-11.09-3.16-14.09-5.08,2.25-.51.75-2.43.14-2.63"/><path class="cls-5" d="M422.79,357.33c-11,2.12-25.42,3.4-41.15,3.4-3.74,0-7.39-.08-10.95-.21a1.21,1.21,0,0,0-.91-1.24,9.22,9.22,0,0,0-6.52.84c-4.15-.28-8.11-.65-11.84-1.1"/><path class="cls-9" d="M431.27,355.36c2.29,3.67,8.75.11,9.84-4A38.47,38.47,0,0,1,431.27,355.36Z"/><ellipse class="cls-6" cx="381.64" cy="346" rx="54.78" ry="11.17"/><path class="cls-7" d="M326.85,346c0-6.16,24.53-11.16,54.79-11.16s54.78,5,54.78,11.16c-.32,3.56-7.67,5.7-9.52,6.29,3.86-2.85,1.61-5.34-5.13-8-15.63-6.15-58.55-5.45-70.18,1.7-5.72,3.51,5.46,10.1,30.05,11.16C351.38,357.16,326.85,352.16,326.85,346Z"/><path class="cls-8" d="M394.07,343c0,1.33-5.17,2.3-9.72,2.3s-9.72-1-9.72-2.3v13.89c4,.19,8.2.3,12.5.3,2.35,0,4.67-.46,6.94-.52Z"/><ellipse class="cls-7" cx="414.72" cy="197.07" rx="9.71" ry="6.33" transform="translate(195.65 600.6) rotate(-86.92)"/><ellipse class="cls-5" cx="414.72" cy="197.08" rx="6.33" ry="9.71"/><path class="cls-8" d="M374.63,218.56c2.52,1.53,7.77,1.69,9.72,1.69s7.2-.16,9.72-1.69v3.25c0,1.31-4.35,2.37-9.72,2.37s-9.72-1.06-9.72-2.37Z"/><path class="cls-9" d="M384.35,302.79c-4.42,0-9.72-.6-9.72-1.93v14c0,1.33,5.3,1.93,9.72,1.93s9.71-.6,9.72-1.93v-14C394.06,302.19,388.89,302.79,384.35,302.79Z"/><path class="cls-9" d="M384.35,274.71c-4.42,0-9.72-.6-9.72-1.93v14c0,1.33,5.3,1.93,9.72,1.93s9.71-.6,9.72-1.93v-14C394.06,274.11,388.89,274.71,384.35,274.71Z"/><path class="cls-9" d="M384.35,330.87c-4.42,0-9.72-.6-9.72-1.93v14c0,1.33,5.3,2.29,9.72,2.29s9.71-1,9.72-2.29v-14C394.06,330.27,388.89,330.87,384.35,330.87Z"/><path class="cls-10" d="M384.35,316.83c-4.42,0-9.72-.6-9.72-1.93v14c0,1.33,5.3,1.93,9.72,1.93s9.71-.6,9.72-1.93v-14C394.06,316.23,388.89,316.83,384.35,316.83Z"/><path class="cls-10" d="M384.35,288.75c-4.42,0-9.72-.6-9.72-1.93v14c0,1.33,5.3,1.93,9.72,1.93s9.71-.6,9.72-1.93v-14C394.06,288.15,388.89,288.75,384.35,288.75Z"/><path class="cls-10" d="M384.35,260.67c-4.42,0-9.72-.6-9.72-1.93v14c0,1.33,5.3,1.93,9.72,1.93s9.71-.6,9.72-1.93v-14C394.06,260.07,388.89,260.67,384.35,260.67Z"/><path class="cls-11" d="M394.07,258.74V211.4a4.61,4.61,0,0,1,4.6-4.61h15.89c-3.19,0-6.17-4.35-6.17-9.71s3-9.71,6.17-9.71H398.67a24.07,24.07,0,0,0-24,24v47.34"/><path class="cls-12" d="M409.56,191.52a13.29,13.29,0,0,0-1.17,5.56l-9.72,0A14.28,14.28,0,0,0,384.4,211.4V357.32a47.19,47.19,0,0,1-5.62-.15V211.4a19.91,19.91,0,0,1,19.89-19.88h10.89"/><polygon class="cls-13" points="406.74 191.52 406.74 191.52 406.74 191.52 406.74 191.52"/><path class="cls-7" d="M396.18,202.68a7.08,7.08,0,0,0-7,7V253c0,6.21-1.9,7-4.86,7.63a32,32,0,0,0,8.37-.89V210.23a4.94,4.94,0,0,1,5.18-4.81h15.82c-1.56,0-3.14-1.34-4.2-2.71h-3.62Z"/><g class="cls-14"><path class="cls-7" d="M389.21,316.59v6.65c0,6.21-1.9,7-4.86,7.63a32.11,32.11,0,0,0,8.38-.89v-14A17.87,17.87,0,0,1,389.21,316.59Z"/></g><g class="cls-14"><path class="cls-7" d="M389.21,288.51v7.1c0,6.21-1.9,6.57-4.86,7.18a31.6,31.6,0,0,0,8.37-.89v-14A18.65,18.65,0,0,1,389.21,288.51Z"/></g><g class="cls-14"><path class="cls-7" d="M389.21,260.4v6.86c0,6.21-1.84,6.84-4.81,7.45a31.94,31.94,0,0,0,8.34-.88V259.78A15.66,15.66,0,0,1,389.21,260.4Z"/></g><path class="cls-7" d="M389.21,302.55v6.82c0,6.22-1.9,6.85-4.86,7.46a31.69,31.69,0,0,0,8.38-.89v-14A21.32,21.32,0,0,1,389.21,302.55Z"/><path class="cls-7" d="M389.21,274.42v6.87c0,6.21-1.9,6.85-4.86,7.46a31.14,31.14,0,0,0,8.38-.89l0-14.13A20.41,20.41,0,0,1,389.21,274.42Z"/><path class="cls-7" d="M394.24,224V226c0,1.31-4.43,2.37-9.89,2.37s-9.89-1.06-9.89-2.37V224a2.22,2.22,0,0,0,0,4.14c2.56,1.54,7.91,1.69,9.89,1.69s7.33-.15,9.89-1.69a2.22,2.22,0,0,0,0-4.14Z"/><path class="cls-7" d="M394.24,219.18v2.07c0,1.31-4.43,2.38-9.89,2.38s-9.89-1.07-9.89-2.38v-2.07a2.22,2.22,0,0,0,0,4.14c2.56,1.54,7.91,1.69,9.89,1.69s7.33-.15,9.89-1.69a2.22,2.22,0,0,0,0-4.14Z"/><path class="cls-7" d="M394.24,214.42v2.07c0,1.31-4.43,2.37-9.89,2.37s-9.89-1.06-9.89-2.37v-2.07a2.42,2.42,0,0,0-1.41,2.07,2.45,2.45,0,0,0,1.41,2.07c2.56,1.53,7.91,1.69,9.89,1.69s7.33-.16,9.89-1.69a2.47,2.47,0,0,0,1.41-2.07A2.44,2.44,0,0,0,394.24,214.42Z"/><ellipse class="cls-5" cx="414.72" cy="197.08" rx="6.33" ry="9.71"/><path class="cls-7" d="M414.43,207c-4.05-.22-6.88-4.65-6.58-10.3s3.66-9.75,7.65-9.54,6.87,4.84,6.58,10.3S418.35,207.21,414.43,207Zm1-18.86c-3.45-.19-6.35,3.6-6.62,8.61s2.15,9.09,5.65,9.28,6.36-3.69,6.63-8.62S418.83,188.32,415.45,188.14Z"/><ellipse class="cls-15" cx="415.53" cy="197.01" rx="5.52" ry="7.86"/><path class="cls-16" d="M421.05,197c0-4.34-2.47-7.86-5.52-7.86-2.69,0-4.64,2.42-5.29,5.53.82-2.81,3.14-4.47,5.09-4.47,2.72,0,4.84,2.87,4.84,6.8,0,3.63-1.84,6.89-4.94,7.86h.3c2.86,0,5.21-3.1,5.49-7.07C421,197.54,421.05,197.28,421.05,197Z"/><path class="cls-17" d="M419.25,197.07c0,2.92-1.41,5.29-3.28,5.29-1.64,0-3-2.37-3-5.29s1.32-5.29,3-5.29C418.09,191.78,419.25,194.15,419.25,197.07Z"/><path class="cls-7" d="M418.34,197c0,1.17-.71,2.13-1.42,2.13s-1.28-1-1.28-2.13.58-2.14,1.28-2.14S418.34,195.83,418.34,197Z"/><line class="cls-18" x1="374.63" y1="258.74" x2="374.63" y2="357.03"/><line class="cls-18" x1="394.07" y1="258.74" x2="394.07" y2="356.88"/><polygon class="cls-7" points="482.67 7.86 482.03 4.57 478.74 3.93 482.03 3.29 482.67 0 483.31 3.29 486.6 3.93 483.31 4.57 482.67 7.86"/><polygon class="cls-7" points="329.89 37.55 329.25 34.25 325.95 33.62 329.25 32.98 329.89 29.68 330.53 32.98 333.82 33.62 330.53 34.25 329.89 37.55"/><polygon class="cls-7" points="132.87 185.87 132.23 182.58 128.94 181.94 132.23 181.3 132.87 178.01 133.51 181.3 136.81 181.94 133.51 182.58 132.87 185.87"/><polygon class="cls-7" points="267 298.31 266.36 295.02 263.07 294.38 266.36 293.75 267 290.45 267.64 293.75 270.93 294.38 267.64 295.02 267 298.31"/><polygon class="cls-7" points="329.89 252.04 329.25 248.75 325.95 248.11 329.25 247.47 329.89 244.18 330.53 247.47 333.82 248.11 330.53 248.75 329.89 252.04"/><polygon class="cls-7" points="482.67 196.62 482.03 193.33 478.74 192.69 482.03 192.05 482.67 188.76 483.31 192.05 486.6 192.69 483.31 193.33 482.67 196.62"/><polygon class="cls-7" points="461.95 243.74 461.31 240.45 458.02 239.81 461.31 239.18 461.95 235.88 462.59 239.18 465.88 239.81 462.59 240.45 461.95 243.74"/><polygon class="cls-7" points="401.22 128.19 400.58 124.9 397.29 124.26 400.58 123.62 401.22 120.33 401.86 123.62 405.16 124.26 401.86 124.9 401.22 128.19"/><polygon class="cls-7" points="638.32 97.4 637.68 94.11 634.39 93.47 637.68 92.83 638.32 89.54 638.96 92.83 642.26 93.47 638.96 94.11 638.32 97.4"/><polygon class="cls-7" points="583.26 289.1 581.98 282.52 575.39 281.24 581.98 279.96 583.26 273.38 584.54 279.96 591.13 281.24 584.54 282.52 583.26 289.1"/><polygon class="cls-7" points="544.82 89.54 543.55 82.96 536.96 81.68 543.55 80.4 544.82 73.82 546.1 80.4 552.69 81.68 546.1 82.96 544.82 89.54"/><polygon class="cls-7" points="274.87 180.07 273.59 173.48 267 172.21 273.59 170.93 274.87 164.34 276.15 170.93 282.74 172.21 276.15 173.48 274.87 180.07"/><circle class="cls-7" cx="212.58" cy="221.37" r="0.7"/><circle class="cls-7" cx="340.77" cy="155.83" r="0.7"/><circle class="cls-7" cx="183.89" cy="279.07" r="0.7"/><circle class="cls-7" cx="493.18" cy="288.23" r="0.7"/><circle class="cls-7" cx="586.29" cy="159.97" r="0.7"/><circle class="cls-7" cx="617.71" cy="220.27" r="0.7"/><circle class="cls-7" cx="422.44" cy="37.54" r="0.7"/><circle class="cls-7" cx="233.45" cy="53.27" r="0.7"/><circle class="cls-7" cx="426.61" cy="241.66" r="0.7"/><circle class="cls-7" cx="485.3" cy="137.92" r="0.7"/><path class="cls-5" d="M291.56,367.54c17.1-2.61,24.25-11.23,27.19-20.73,2.29-7.38,24.93-12.92,55.84-13.8"/><path class="cls-7" d="M389.21,330.63v11.71c0,4.67-1.52,9.55-5.86,10.22-3.82.59-5.89-2.48-7.14-5.7v10.08c3.53.15,7.18.23,10.92.23,1.89,0,3.76,0,5.6-.06V330A20.61,20.61,0,0,1,389.21,330.63Z"/><path class="cls-9" d="M416.66,361.81a28.59,28.59,0,0,0,2.78,12c-3.76-2.89-5.52-9.45-5.69-11.64C413.52,360.85,416.6,359.84,416.66,361.81Z"/><path class="cls-6" d="M444.58,347.24c1.11,2.93,2.94,8.9,7.22,11.79-4.79-2.14-7.47-7.58-8.14-10-3-.52-2.17-3.71.12-3.71C444,345.35,444.35,347.18,444.58,347.24Z"/><path class="cls-7" d="M342.63,357.73c-.8,7.22-6.32,11.89-15.78,20.21,9.94-4.16,19.91-14.75,19.52-19.61C346.15,355.61,342.85,355.76,342.63,357.73Z"/><path class="cls-7" d="M368.93,359.1c0,3.3.56,8.16-3,14,4-3.42,4.8-7.71,4.8-12.58C370.69,359,368.93,359.1,368.93,359.1Z"/><path class="cls-7" d="M440.23,361.33c.67,5,5.58,10.52,12.9,12.42A34.49,34.49,0,0,1,440.23,361.33Z"/><path class="cls-5" d="M441.11,351.35a38.47,38.47,0,0,1-9.84,4"/><path class="cls-5" d="M466.38,367.54c-12.22-3.91-18.76-10.21-21.86-20.73-1.39-4.72-12-8.8-27.91-11.3a4.16,4.16,0,0,1-2.81.36c-.93-.17-1.18-.74-1-.92-5.69-.77-12-1.34-18.66-1.69"/><path class="cls-5" d="M174,377.94a235.11,235.11,0,0,1-23,8.45c-2.11.67-4.19,1.3-6.22,1.89,0,0,0-.33-.63-.25a9.4,9.4,0,0,0-3.62,1.44c-2.38.65-4.66,1.24-6.82,1.76"/><ellipse class="cls-6" cx="149.15" cy="380.34" rx="32.57" ry="3.78" transform="translate(-107.44 62.43) rotate(-17.49)"/><path class="cls-7" d="M118.08,390.12c-.56-2,12.9-8,30.06-13.42s31.52-8.15,32.07-6.14c.15,1.22-3.83,3.23-4.82,3.75,1.93-1.61.43-2-3.64-1.69-9.42.79-33.69,8.67-39.64,13.08-2.92,2.17,4,2.32,18-1.72C133,389.38,118.64,392.13,118.08,390.12Z"/><path class="cls-5" d="M144.15,378c-15.21,5-26.58,10.28-26.07,12.14s14.92-.74,32.08-6.14,30.61-11.4,30.05-13.42c-.48-1.72-11.11.05-25,4Z"/><path class="cls-5" d="M183.89,372.72a35.08,35.08,0,0,1-5.22,3.06"/><path class="cls-5" d="M199.9,371c-8.84.56-12.83,0-15.53-2.89-1.22-1.29-7.62-.73-16.85,1.29a4.18,4.18,0,0,1-1.57.62c-.54.11-.73,0-.65-.12-3.3.77-6.91,1.7-10.74,2.78l-11.1,3.41c-17.45,5.8-29.79,11.65-30.41,14.47-.56,2.47-4.38,6.12-9.32,9.22"/><path class="cls-8" d="M563.54,408.86l8.41,1.35c2.93.59,5.58,1.25,7.93,1.94-.12.2.28.45.54.53a1.6,1.6,0,0,0,1-.05c7.59,2.45,11.61,5.24,11.25,6.86-.58,3.45-13.2,4.46-28.18,2.26s-26.67-6.79-26.09-10.24C538.94,408.33,550.14,407.29,563.54,408.86Z"/><path class="cls-5" d="M545.25,417a19.86,19.86,0,0,1-5.7-3.18c1-.08.51-1,.26-1.17"/><path class="cls-5" d="M582.51,422.84a96.92,96.92,0,0,1-18-1.09c-1.61-.24-3.19-.51-4.71-.79a.56.56,0,0,0-.3-.62,3.92,3.92,0,0,0-2.88,0c-1.77-.39-3.45-.81-5-1.25"/><ellipse class="cls-6" cx="565.35" cy="415.4" rx="4.89" ry="23.84" transform="translate(67.54 909.73) rotate(-81.11)"/><path class="cls-7" d="M541.79,411.71c.43-2.66,11.31-3.17,24.32-1.14s23.22,5.85,22.79,8.52c-.38,1.52-3.69,2-4.52,2.08,1.85-1,1.06-2.2-1.66-3.8-6.3-3.71-24.8-6.3-30.29-4-2.7,1.13,1.65,4.74,12.15,6.85C551.57,418.19,541.37,414.38,541.79,411.71Z"/><path class="cls-5" d="M563.08,410.13c-11.63-1.5-20.9-.88-21.29,1.58-.42,2.67,9.78,6.49,22.79,8.52s23.9,1.53,24.32-1.14c.37-2.29-7.09-5.42-17.43-7.55Z"/><path class="cls-7" d="M554,409.64s2,4.75,5.33,7.44c-4-1.11-6.82-6.15-6.67-7.11S554,409.64,554,409.64Z"/><path class="cls-8" d="M585.38,415.34a7,7,0,0,1-2.12,3.55,4.54,4.54,0,0,0,2.85-2.9C586.14,415,585.38,415.34,585.38,415.34Z"/><path class="cls-5" d="M590.87,421.31a16.66,16.66,0,0,1-4.55,1.18"/><path class="cls-5" d="M601.34,430.84c-5.82-3.73-8.11-6.43-8.66-11.35-.24-2.21-4.52-4.71-11.19-6.84a1.79,1.79,0,0,1-1.25,0c-.38-.14-.45-.41-.36-.48-2.4-.7-5.06-1.36-7.93-1.94l-8.41-1.35c-13.4-1.57-23.59-.52-25.13,2.65-1.36,2.78-5.27,5.38-9.65,6.74"/><path class="cls-5" d="M702.66,402.88a21.28,21.28,0,0,1-3.35-3c.67.25.44-.3.3-.43"/><path class="cls-5" d="M726.16,416.16a111.79,111.79,0,0,1-11.55-5.66c-1-.56-2-1.13-3-1.7,0,0,.11-.15-.13-.35a4.37,4.37,0,0,0-1.86-.84c-1.1-.68-2.15-1.35-3.12-2"/><ellipse class="cls-6" cx="716.32" cy="407.25" rx="2.21" ry="17.1" transform="translate(12.09 835.06) rotate(-60.9)"/><path class="cls-7" d="M701.38,398.93c.6-1.06,7.77,1.8,16,6.39s14.45,9.18,13.86,10.25c-.44.56-2.65-.18-3.21-.36,1.33.09,1-.68-.62-2.16-3.67-3.44-15.44-9.83-19.31-10.36-1.9-.26.51,2.57,7.12,6.49C707,404.59,700.78,400,701.38,398.93Z"/><path class="cls-5" d="M715.47,404.27c-7.41-4-13.54-6.32-14.09-5.34s5.6,5.66,13.86,10.25,15.42,7.45,16,6.39-4-4.43-10.48-8.3Z"/><path class="cls-5" d="M731.74,417.91a16.27,16.27,0,0,1-3.07-.8"/><path class="cls-5" d="M737.78,424.35c-3.37-3.29-4.57-5.12-4.39-7.41.08-1-2.43-3.35-6.52-6.19a2,2,0,0,1-.8-.37c-.24-.17-.25-.31-.19-.31-1.47-1-3.13-2.05-4.92-3.13l-5.3-3c-8.52-4.55-15.23-7-16.57-6.1-1.18.82-4,.82-7,.15"/><path class="cls-8" d="M582,358.38l12.8,3c4.45,1.22,8.46,2.51,12,3.83-.2.27.39.7.79.85s1.38.22,1.54,0c11.48,4.55,17.43,9.18,16.76,11.56-1.13,5.07-20.55,5.07-43.37,0s-40.39-13.27-39.26-18.34C544.28,354.67,561.52,354.45,582,358.38Z"/><path class="cls-5" d="M553.33,368.25a32.05,32.05,0,0,1-8.51-5.4c1.56,0,.86-1.49.49-1.72"/><path class="cls-5" d="M610,381.45a152.26,152.26,0,0,1-27.54-3.77q-3.68-.81-7.16-1.73a.82.82,0,0,0-.41-.95,6.18,6.18,0,0,0-4.41-.39c-2.68-.79-5.23-1.61-7.62-2.46"/><ellipse class="cls-6" cx="584.67" cy="367.97" rx="7.55" ry="36.87" transform="translate(98.81 859.08) rotate(-77.49)"/><path class="cls-7" d="M548.68,360c.91-4.07,17.76-3.79,37.64.62S621.57,371.9,620.66,376c-.73,2.3-5.88,2.64-7.18,2.76,2.95-1.31,1.85-3.29-2.19-6-9.36-6.33-37.66-12.13-46.36-9.11-4.28,1.49,2.09,7.46,18.09,11.74C563.14,370.92,547.77,364.05,548.68,360Z"/><path class="cls-5" d="M581.68,359.64c-17.8-3.46-32.16-3.4-33,.35-.91,4.06,14.46,10.94,34.34,15.35s36.73,4.69,37.64.62c.78-3.49-10.42-9-26.17-13.34Z"/><path class="cls-8" d="M560,356.75a29,29,0,0,0-1,6.58,10.59,10.59,0,0,1-1.11-6.2C558.39,355.67,560,356.75,560,356.75Z"/><path class="cls-7" d="M564.9,356.65s1.84,8.75,6.67,13.22c-6-2.11-9.1-11.38-8.77-12.84C563.34,355.58,564.9,356.65,564.9,356.65Z"/><path class="cls-8" d="M615.59,369.84a10.86,10.86,0,0,1-3.62,5.25c2.26-.56,4.36-2.72,4.69-4.17C616.79,369.38,615.59,369.84,615.59,369.84Z"/><path class="cls-7" d="M602.93,364.86s-.91,6-3.68,8.11c2.25-.56,4.43-5.57,4.75-7C604.13,364.4,602.93,364.86,602.93,364.86Z"/><path class="cls-5" d="M623,380.17a25.55,25.55,0,0,1-7.05,1.21"/><path class="cls-5" d="M638.32,395.6c-8.65-6.25-12-10.53-12.46-17.92-.21-3.32-6.59-7.56-16.66-11.53a2.78,2.78,0,0,1-1.91-.17c-.58-.25-.66-.66-.52-.75-3.63-1.34-7.67-2.63-12-3.83l-12.8-3c-20.44-3.93-36.13-3.57-38.73,1-2.28,4-8.45,7.39-15.28,8.89"/><path class="cls-5" d="M394.13,335.12c24.24,1.15,42.29,5.59,42.29,10.88,0,6.17-24.53,11.17-54.78,11.17s-54.79-5-54.79-11.17c0-5.68,20.82-10.37,47.74-11.08"/><path class="cls-8" d="M427.07,338.78a16,16,0,0,1-3.53,8.75C426.63,346,429,342.21,429,340,428.66,337.73,427.07,338.78,427.07,338.78Z"/><path class="cls-8" d="M432.08,341a17.09,17.09,0,0,1-8.54,10.81c9.13-3.29,10.45-7.39,10.45-9.59C433.68,340,432.08,341,432.08,341Z"/><path class="cls-8" d="M342.16,337.71a42.68,42.68,0,0,0,.69,9.82c-2.31-2.89-3.62-6.4-3.62-8.6C339.54,336.66,342.16,337.71,342.16,337.71Z"/><path class="cls-8" d="M362.13,334.4s.15,9.31,1.13,13.63c-2.31-2.89-4.05-10.21-4.05-12.41C359.52,333.35,362.13,334.4,362.13,334.4Z"/><path class="cls-8" d="M335.16,338.78a47.06,47.06,0,0,0,1.13,7.26c-2.31-2.89-2.89-3.83-2.89-6C333.71,337.73,335.16,338.78,335.16,338.78Z"/><ellipse class="cls-9" cx="417.27" cy="194.48" rx="0.96" ry="1.55" transform="translate(-16.99 41.65) rotate(-5.6)"/><path class="cls-19" d="M163.69,354.12C93.5,375.29,36.57,405.7.25,441.82"/><path class="cls-7" d="M349.29,336s5.52,12,14,16.95c-9.43-1.11-16.89-13.53-16.89-15.73C346.68,334.93,349.29,336,349.29,336Z"/><path class="cls-7" d="M422.59,338.05s-.76,6.53-4.1,10.49c3.09-1.53,6-7.07,6-9.27C424.18,337,422.59,338.05,422.59,338.05Z"/><path class="cls-7" d="M407.11,335.65s.62,8.93-2.71,12.89c3.09-1.53,4.61-9.46,4.61-11.67C408.7,334.6,407.11,335.65,407.11,335.65Z"/></g></g></g></svg>