<svg xmlns="http://www.w3.org/2000/svg" viewBox="0 0 632 320"><defs><style>.cls-1{isolation:isolate;}.cls-12,.cls-2{fill:#9b9db3;}.cls-3{fill:#cdced9;}.cls-4{fill:#363c66;}.cls-5{fill:#fff;}.cls-6{fill:#686d8c;}.cls-7{fill:#d5d6df;}.cls-8{fill:#02cedb;}.cls-9{fill:#35d8e2;}.cls-10{fill:#7681d6;}.cls-11{fill:#a35eaa;}.cls-12,.cls-16,.cls-17{opacity:0.75;}.cls-12,.cls-13,.cls-15,.cls-17,.cls-20{mix-blend-mode:multiply;}.cls-13,.cls-15,.cls-20{opacity:0.5;}.cls-14,.cls-15{fill:#9a9cb0;}.cls-18{fill:#dabfdd;}.cls-19,.cls-20{fill:#b3d1ff;}.cls-21{fill:#fff4cc;}.cls-22{fill:#ccf5f8;}.cls-23{fill:none;}</style></defs><title>Asset 7</title><g class="cls-1"><g id="Layer_2" data-name="Layer 2"><g id="Layer_5" data-name="Layer 5"><polygon class="cls-2" points="505.12 133.45 126.88 206.49 126.88 243.99 126.88 267.16 505.12 267.16 505.12 133.45"/><polygon class="cls-3" points="505.12 0.1 126.88 0.1 126.88 206.49 505.12 133.53 505.12 0.1"/><path class="cls-4" d="M126.88,206.74a.24.24,0,0,1-.24-.2.24.24,0,0,1,.2-.29l378.23-73a.23.23,0,0,1,.29.2.25.25,0,0,1-.19.29l-378.24,73Z"/><path class="cls-5" d="M421.23,117.17c-.71-.15-1,1.06-1,1.41,0-.35.13-.7.13-1.11s.22-1.1-.39-1.35-1.15.7-1.2,1.25-.14.82-.19,1.32c0-.32.1-.52.08-.86s.16-1-.43-1.09-1.05.49-1.17,1.15a27,27,0,0,1-.48,3.76,4.45,4.45,0,0,0-1.68-1.26c-.71-.28-1.55.31-1.2.73s.83.6,1,.81c1.6,1.89,1.15,3.95.81,6.16,1.24,0,2.47.25,3.72.19,2.6-2.6,2.65-8,2.65-9.76C421.87,117.7,421.74,117.28,421.23,117.17Z"/><path class="cls-4" d="M418.25,128.85a5.91,5.91,0,0,1-1.46-.26,5.27,5.27,0,0,0-1.3-.24.25.25,0,0,1-.18-.1.24.24,0,0,1-.06-.2l.1-.54c.48-2.53.8-4.21-1.56-6a.76.76,0,0,1-.28-1,1.15,1.15,0,0,1,1.42-.46,3.37,3.37,0,0,1,1.84,1.37.25.25,0,1,1-.42.27,2.9,2.9,0,0,0-1.55-1.16c-.45-.12-.75,0-.84.2a.28.28,0,0,0,.13.34c2.61,1.92,2.23,3.92,1.75,6.45l0,.26a7.46,7.46,0,0,1,1.12.24c.83.21,1.61.42,2.14,0,2.08-1.74,2.73-7.47,2.55-9.53-.08-1-.27-1.13-.38-1.13a.5.5,0,0,0-.35.14,1.37,1.37,0,0,0-.28.85.25.25,0,0,1-.25.25h0a.25.25,0,0,1-.25-.25,1.85,1.85,0,0,1,.43-1.2,1,1,0,0,1,.7-.29c.74,0,.84,1.07.88,1.58.17,2-.4,8-2.73,10A1.68,1.68,0,0,1,418.25,128.85Z"/><path class="cls-4" d="M416.58,122.42h-.05a.27.27,0,0,1-.2-.3,33.69,33.69,0,0,0,.47-4.22c.06-1.1.66-1.38,1.16-1.42a.73.73,0,0,1,.57.2,1.84,1.84,0,0,1,.43,1.26.25.25,0,0,1-.5,0,1.38,1.38,0,0,0-.28-.88A.25.25,0,0,0,418,117c-.31,0-.67.16-.71,1a34.88,34.88,0,0,1-.47,4.29A.27.27,0,0,1,416.58,122.42Z"/><path class="cls-4" d="M420,121.57h0a.25.25,0,0,1-.19-.3,14.34,14.34,0,0,0,.31-3.75v-.17c0-.56-.05-1-.37-1a.36.36,0,0,0-.28.07,1.53,1.53,0,0,0-.42,1l0,.46a29.08,29.08,0,0,1-.39,3.21.26.26,0,0,1-.3.2.25.25,0,0,1-.19-.3,28,28,0,0,0,.38-3.15l0-.46a2,2,0,0,1,.62-1.36.87.87,0,0,1,.68-.16c.73.14.75,1,.77,1.49v.17a15.34,15.34,0,0,1-.32,3.88A.26.26,0,0,1,420,121.57Z"/><path class="cls-6" d="M286.77,142.24a8.32,8.32,0,0,1-2.26,1.59,4,4,0,0,0-1.22.75,1,1,0,0,0-.1,1.31,1.46,1.46,0,0,0,1.11.27c.79,0,1.31.35,2.07.17,2.27-.54,3.9-.46,5.67-5.19l.22-2-1.19-1.2"/><path class="cls-4" d="M286,146.63a4,4,0,0,1-.79-.11,3,3,0,0,0-.85-.11,1.59,1.59,0,0,1-1.3-.35,1.25,1.25,0,0,1,.1-1.65,3.25,3.25,0,0,1,1.1-.71l.19-.09a8,8,0,0,0,2.19-1.55.27.27,0,0,1,.36,0,.26.26,0,0,1,0,.36,9,9,0,0,1-2.33,1.64l-.2.09a2.81,2.81,0,0,0-.94.6.76.76,0,0,0-.11,1,1.25,1.25,0,0,0,.92.2,3.65,3.65,0,0,1,1,.12,2.15,2.15,0,0,0,1,.05l.61-.13c1.93-.42,3.32-.73,4.89-4.9l.19-1.86-1.11-1.11a.25.25,0,0,1,.35-.35l1.2,1.19a.27.27,0,0,1,.07.21l-.22,2c-1.67,4.49-3.26,4.83-5.26,5.27l-.6.13A2.1,2.1,0,0,1,286,146.63Z"/><path class="cls-6" d="M310.66,103.1c-.83,4-3.05,9.08-6.73,10.25a66.39,66.39,0,0,0,1.68-9.79c.51-4-1.09-11.82-.56-16.39l4.78,1.47Z"/><path class="cls-4" d="M303.92,113.6a.23.23,0,0,1-.17-.07.24.24,0,0,1-.07-.24,57.36,57.36,0,0,0,1.55-8.71l.13-1a41.14,41.14,0,0,0-.27-7.75,47.36,47.36,0,0,1-.29-8.64.25.25,0,0,1,.11-.18.26.26,0,0,1,.21,0l4.78,1.47a.26.26,0,0,1,.18.23l.83,14.45a.2.2,0,0,1,0,.07c-.89,4.27-3.17,9.25-6.9,10.44Zm1.35-26.11a49.78,49.78,0,0,0,.32,8.24,42.32,42.32,0,0,1,.27,7.87l-.13,1A62.8,62.8,0,0,1,304.3,113c3.25-1.38,5.31-6.11,6.11-9.87l-.82-14.25Z"/><path class="cls-6" d="M304.73,110.26c-1.77,6.61-3.44,9.68-6.57,15-1.11,1.89-9,12.53-8.93,14,1.17-.08,2.62,1.86,3,2.61a30.77,30.77,0,0,0,10.55-12.37c4-8.83,3.12-16.27,4.75-22"/><path class="cls-4" d="M292.26,142.16h-.05A.26.26,0,0,1,292,142c-.41-.74-1.76-2.48-2.74-2.48h-.07a.28.28,0,0,1-.17-.07.25.25,0,0,1-.08-.18c0-1,2.92-5.33,6.47-10.45,1.16-1.67,2.16-3.11,2.49-3.69,3.07-5.23,4.75-8.27,6.55-15a.26.26,0,0,1,.31-.18.25.25,0,0,1,.17.31c-1.81,6.75-3.51,9.81-6.59,15.09-.35.59-1.31,2-2.52,3.72-2.24,3.23-5.9,8.5-6.34,9.93,1.16.19,2.36,1.76,2.82,2.48a30.66,30.66,0,0,0,10.25-12.11c2.5-5.58,3.07-10.58,3.58-15a43.56,43.56,0,0,1,1.15-7,.25.25,0,1,1,.48.13,44.8,44.8,0,0,0-1.14,6.89c-.51,4.45-1.08,9.5-3.62,15.14a31.09,31.09,0,0,1-10.63,12.47A.3.3,0,0,1,292.26,142.16Z"/><path class="cls-6" d="M305.83,107.07c-1.21,2.46-1.9,6.28-2.65,13.34-1,9.22-3.4,17.91-3.4,41.15,8.8,6.1,18-1.45,18-1.45l.24-46.33s-2.37-8.86-5.77-11.59C310.73,101,306.9,104.91,305.83,107.07Z"/><path class="cls-4" d="M307.21,164.17a13,13,0,0,1-7.57-2.41.23.23,0,0,1-.11-.2A205.18,205.18,0,0,1,302,127.41c.35-2.44.69-4.73.94-7,.8-7.52,1.5-11,2.68-13.42h0c.87-1.76,3.63-4.78,5.51-5.2a1.47,1.47,0,0,1,1.27.23c3.42,2.76,5.75,11.36,5.85,11.72a.17.17,0,0,1,0,.07L318,160.11a.25.25,0,0,1-.09.19A18.92,18.92,0,0,1,307.21,164.17ZM300,161.43c8.05,5.48,16.52-.7,17.48-1.44l.24-46.18c-.16-.58-2.48-8.86-5.67-11.43a1,1,0,0,0-.86-.13c-1.68.37-4.33,3.25-5.17,4.93-1.13,2.3-1.84,5.89-2.63,13.25-.24,2.31-.58,4.61-.94,7A205.58,205.58,0,0,0,300,161.43Z"/><path class="cls-6" d="M304.7,87.33c-.45,1,.41,2.81-.22,3.9s-1.61,1.27-1.64,2.06,1.7.78,1.7,1.44a2,2,0,0,1-.79,1.32c.27.9,1.54.87,2.43.86-.43,1-1.39.51-1.59,1.3,1.22.77.28,1.9,1.11,2.54,1.11.85,3.28-1.08,4.36,0,1.44,1.49-.75,4.92.86,8.72l4.67.4-1.95-13.15-.18-10.23Z"/><path class="cls-4" d="M315.59,110.15h0l-4.68-.4a.24.24,0,0,1-.2-.15,10.58,10.58,0,0,1-.48-5.62c.15-1.34.27-2.41-.33-3s-1.23-.25-2,0-1.67.49-2.29,0a1.52,1.52,0,0,1-.51-1.28,1.26,1.26,0,0,0-.58-1.25.25.25,0,0,1-.11-.27,1,1,0,0,1,.82-.71,1.29,1.29,0,0,0,.56-.28c-.87,0-1.94-.13-2.22-1a.25.25,0,0,1,.06-.25c.4-.41.72-.72.72-1.15,0-.17-.39-.34-.69-.47-.48-.22-1-.46-1-1s.4-.87.8-1.22a3.7,3.7,0,0,0,.87-1,3.23,3.23,0,0,0,.13-1.95,4.09,4.09,0,0,1,.08-1.92.27.27,0,0,1,.21-.15l8.75-.81a.26.26,0,0,1,.19.06.31.31,0,0,1,.09.18l.18,10.23,1.95,13.12a.26.26,0,0,1-.07.21A.25.25,0,0,1,315.59,110.15Zm-4.5-.89,4.21.36-1.91-12.83-.18-10-8.32.78a4.06,4.06,0,0,0,0,1.52,3.66,3.66,0,0,1-.19,2.26,4.22,4.22,0,0,1-1,1.09c-.39.34-.62.55-.63.86s.39.36.71.5,1,.44,1,.93a2,2,0,0,1-.75,1.38c.31.56,1.3.55,2,.56h.08a.25.25,0,0,1,.21.1.26.26,0,0,1,0,.24,1.49,1.49,0,0,1-1.1.91c-.21.06-.34.1-.41.2a1.75,1.75,0,0,1,.64,1.53c0,.44,0,.69.31.9.43.33,1.12.13,1.85-.09s1.86-.54,2.54.15.62,2,.46,3.43A10.42,10.42,0,0,0,311.09,109.26Z"/><path class="cls-6" d="M309.66,134a12,12,0,0,1-4.11-.71c-.42-4.63.72-16.46,2.59-23.25.26-1,2-4.61,2.15-5,.35,1.84-.82,3,1.24,3.37,1.21.2,2.13-.28,3.85-2.82a11.61,11.61,0,0,1,3.48,5.58C321.15,118.39,314,133.75,309.66,134Z"/><path class="cls-4" d="M309.59,134.26a12.33,12.33,0,0,1-4.12-.72.25.25,0,0,1-.17-.21c-.41-4.62.73-16.54,2.6-23.34.18-.66,1-2.47,1.6-3.8.27-.6.51-1.11.55-1.24a.25.25,0,0,1,.26-.17.25.25,0,0,1,.22.21,5.7,5.7,0,0,1,0,1.69c-.09.9-.13,1.28,1,1.47s1.9-.19,3.6-2.71a.25.25,0,0,1,.17-.11.3.3,0,0,1,.2.06,11.83,11.83,0,0,1,3.56,5.69c1.59,5-1.26,14.11-4.93,19.45-1.13,1.65-2.83,3.63-4.5,3.73Zm.07-.25Zm-3.88-.89a12,12,0,0,0,3.81.64h.06c1.14-.07,2.6-1.32,4.11-3.52,3.6-5.24,6.41-14.12,4.86-19a11.51,11.51,0,0,0-3.2-5.29c-1.56,2.27-2.54,2.93-3.93,2.69-1.6-.27-1.52-1.12-1.43-2,0-.18,0-.36,0-.55l-.14.32c-.56,1.23-1.41,3.1-1.58,3.72C306.55,116.8,305.42,128.42,305.78,133.12Z"/><path class="cls-6" d="M325.31,205.17a15.45,15.45,0,0,1,0-3.8,30.6,30.6,0,0,1-3.28.09,8.26,8.26,0,0,1,.32,3.16c-.4,2.19-3.38,6.55-2.38,7.55,1.25,1.24,4.71.39,5.22-1.17A20.61,20.61,0,0,0,325.31,205.17Z"/><path class="cls-4" d="M321.78,213a2.77,2.77,0,0,1-2-.67c-.73-.72.1-2.5,1.06-4.56a16.3,16.3,0,0,0,1.25-3.2,7.8,7.8,0,0,0-.32-3.06.27.27,0,0,1,.05-.21.26.26,0,0,1,.2-.1h0a26.18,26.18,0,0,0,3.22-.08.28.28,0,0,1,.23.05.27.27,0,0,1,.08.22,15.44,15.44,0,0,0,0,3.74h0a21,21,0,0,1-.11,5.94,3.38,3.38,0,0,1-2.48,1.79A5.1,5.1,0,0,1,321.78,213Zm.59-11.29a7.75,7.75,0,0,1,.24,2.95,16.14,16.14,0,0,1-1.29,3.32c-.73,1.57-1.64,3.52-1.16,4a3,3,0,0,0,2.69.39,2.84,2.84,0,0,0,2.12-1.46,20.62,20.62,0,0,0,.09-5.72h0a16.51,16.51,0,0,1,0-3.54C324.34,201.72,323,201.72,322.37,201.72Z"/><path class="cls-6" d="M305.32,202.07a10.84,10.84,0,0,0,.86-3.52c.12-.65,3.29-.25,3.47.5-.47,2.59,1.33,4.54.18,6C308.84,206,304,203.94,305.32,202.07Z"/><path class="cls-4" d="M309,205.54a5.64,5.64,0,0,1-3.21-1.25c-.92-.76-1.16-1.62-.65-2.37h0a10.11,10.11,0,0,0,.81-3.39c.07-.36.45-.54,1.15-.56s2.64.27,2.81,1a.34.34,0,0,1,0,.1,7.11,7.11,0,0,0,.28,3.1c.28,1.1.54,2.13-.16,3A1.45,1.45,0,0,1,309,205.54Zm-3.45-3.33h0c-.45.65.06,1.28.56,1.7,1.19,1,3.11,1.41,3.56,1,.52-.66.31-1.5.05-2.56a7.68,7.68,0,0,1-.31-3.24,2,2,0,0,0-1.11-.48,3.13,3.13,0,0,0-1.86,0A10.5,10.5,0,0,1,305.53,202.21Z"/><path class="cls-6" d="M305.55,133.3s8.11,2.5,13.24-.33c4.79,4.72,6.6,30.69,6.93,39,1.71,14.08,2.07,26,0,29.37-.84.42-3.87.21-3.87.21-2.66-1.71-6.14-22.66-7.18-25.85-.65-2-2.05-11.64-2.05-11.64s1.9,24.88-2.16,34.49c-1.62,1.63-4.88,0-4.88,0C302.6,191.69,302.17,142.57,305.55,133.3Z"/><path class="cls-4" d="M323.41,201.83c-.78,0-1.47,0-1.62-.05a.28.28,0,0,1-.12,0c-1.84-1.18-3.83-10-5.87-19.8-.63-2.95-1.11-5.28-1.41-6.18s-.85-4-1.28-6.66c.31,7.83.45,22.64-2.46,29.53a.35.35,0,0,1,0,.08c-1.73,1.73-5,.12-5.17,0a.34.34,0,0,1-.12-.12c-2.79-6.52-3.45-55.95,0-65.42a.26.26,0,0,1,.31-.16c.08,0,8.07,2.44,13.05-.31a.26.26,0,0,1,.29,0c5.63,5.54,7,38.82,7,39.15,1.11,9.16,2.58,25.21-.08,29.51a.24.24,0,0,1-.1.1A6.82,6.82,0,0,1,323.41,201.83Zm-1.52-.54a13.37,13.37,0,0,0,3.61-.16c1.85-3.14,1.84-13.74,0-29.15-.2-4.92-.78-13.31-1.79-20.82-1.29-9.61-3-15.78-4.94-17.88-4.74,2.48-11.66.72-13,.33-3.32,9.9-2.69,58,0,64.74.5.23,3.12,1.33,4.47,0,4-9.48,2.14-34.09,2.13-34.33a.23.23,0,0,1,.22-.27.24.24,0,0,1,.27.21c0,.1,1.4,9.63,2,11.61.3.92.79,3.26,1.41,6.23C317.71,188.63,320.08,200,321.89,201.29Z"/><path class="cls-6" d="M321.15,148.8s-.81-6.49-1.94-6.49-4.36-4.14-4.36-6"/><path class="cls-4" d="M321.15,149.05a.26.26,0,0,1-.25-.22c-.42-3.34-1.21-6.27-1.69-6.27-1.38,0-4.61-4.36-4.61-6.22a.25.25,0,0,1,.5,0c0,1.83,3.22,5.72,4.11,5.72,1.22,0,1.94,4.69,2.19,6.71a.25.25,0,0,1-.22.28Z"/><path class="cls-6" d="M309.75,145.3s1,3.27,1.78,6.24"/><path class="cls-4" d="M311.53,151.79a.25.25,0,0,1-.24-.18c-.8-2.94-1.77-6.21-1.78-6.24a.24.24,0,0,1,.17-.31.24.24,0,0,1,.31.16s1,3.31,1.78,6.25a.24.24,0,0,1-.17.31Z"/><path class="cls-6" d="M321.15,148.8s-.81-6.49-1.94-6.49-4.36-4.14-4.36-6c0-1.11-1.91-.84-.9,4.1S319.31,148.8,321.15,148.8Z"/><path class="cls-4" d="M321.15,149.05c-2,0-6.41-3.53-7.44-8.56-.74-3.61.08-4.58.35-4.79a.62.62,0,0,1,.66-.09.77.77,0,0,1,.38.73c0,1.83,3.22,5.72,4.11,5.72,1.22,0,1.94,4.69,2.19,6.71a.22.22,0,0,1-.06.19A.25.25,0,0,1,321.15,149.05Zm-6.68-13a.16.16,0,0,0-.1,0c-.34.26-.75,1.46-.17,4.29.92,4.48,4.74,7.81,6.66,8.13-.42-3.21-1.18-6-1.65-6-1.38,0-4.61-4.36-4.61-6.22,0-.16-.05-.26-.1-.28Z"/><path class="cls-6" d="M330.24,162.34c-3.69-11.62-4.35-31.45-4.35-41.34,0-10.55-2.05-16.58-8.49-16.58s-5.15,4.61-5.15,4.61c-4.39,15.8-.92,40.26-4.29,54.89C311.56,167.53,327.68,167.48,330.24,162.34Z"/><path class="cls-4" d="M318.17,166.68c-4.3,0-8.64-.84-10.38-2.58a.27.27,0,0,1-.07-.24c1.56-6.78,1.64-15.59,1.73-24.92.1-10.55.2-21.45,2.54-29.92a3.9,3.9,0,0,1,.61-3.12c.88-1.15,2.49-1.73,4.8-1.73,7.7,0,8.74,8.5,8.74,16.83,0,6.47.31,28.58,4.34,41.27a.22.22,0,0,1,0,.18c-.93,1.86-3.61,3.23-7.56,3.87A30,30,0,0,1,318.17,166.68Zm-9.93-2.84c2.18,2,8.79,2.93,14.59,2,3.72-.6,6.25-1.85,7.14-3.51-4-12.78-4.33-34.85-4.33-41.32,0-11.45-2.46-16.33-8.24-16.33-2.14,0-3.62.51-4.4,1.53a3.49,3.49,0,0,0-.51,2.76.29.29,0,0,1,0,.13c-2.34,8.41-2.44,19.32-2.54,29.86C309.86,148.24,309.78,157,308.24,163.84Z"/><path class="cls-6" d="M306.27,89.62a4.42,4.42,0,0,1,2.62.39"/><path class="cls-4" d="M308.89,90.26h-.08a4,4,0,0,0-2.47-.38.25.25,0,0,1-.13-.49,4.7,4.7,0,0,1,2.76.39.26.26,0,0,1,.16.32A.25.25,0,0,1,308.89,90.26Z"/><path class="cls-6" d="M302.84,87.53c.9-.82.9-2.14,1.64-3.74,1.79-3.87,7.39-4.87,11.48-4a8.57,8.57,0,0,1,7,9.93c-1.21,10.16,3.38,11.13,2.58,22.45-1.36-4.82-3.69-7.14-6.85-6.72-3.76.51-2.93,4.65-7.53,8.63a43.59,43.59,0,0,0-.32-10.58,17.13,17.13,0,0,1,.62-8.77c1-3.16,1.13-5.69-.12-7.86a2.51,2.51,0,0,1-.61,2.09C309.18,87.44,305.82,89.94,302.84,87.53Z"/><path class="cls-4" d="M311.14,114.33l-.11,0a.27.27,0,0,1-.14-.24,44.34,44.34,0,0,0-.31-10.53,17.53,17.53,0,0,1,.62-8.89c.89-2.86,1-5,.33-6.76a2.23,2.23,0,0,1-.42.9l-.19.3a.27.27,0,0,1-.18.11.21.21,0,0,1-.21-.07c-.58-.58-1.51-.48-2.69-.35-1.51.16-3.41.36-5.16-1a.28.28,0,0,1-.09-.19.27.27,0,0,1,.08-.19,4.07,4.07,0,0,0,.95-1.93,13.34,13.34,0,0,1,.63-1.73c1.82-3.92,7.42-5.07,11.77-4.15a8.82,8.82,0,0,1,7.17,10.21,22.44,22.44,0,0,0,1.14,10.71,28.25,28.25,0,0,1,1.44,11.72.27.27,0,0,1-.22.24.25.25,0,0,1-.27-.19c-1.34-4.73-3.55-6.94-6.58-6.53-1.9.26-2.55,1.52-3.46,3.27a16.13,16.13,0,0,1-3.93,5.3A.27.27,0,0,1,311.14,114.33Zm.18-27.71a.26.26,0,0,1,.22.13c1.19,2.06,1.23,4.54.14,8a17,17,0,0,0-.61,8.66,43.07,43.07,0,0,1,.36,10,16.36,16.36,0,0,0,3.37-4.75c.94-1.81,1.68-3.25,3.84-3.53s4.9.51,6.7,5.57a27.31,27.31,0,0,0-1.49-10.17,23,23,0,0,1-1.16-10.92A8.33,8.33,0,0,0,315.91,80c-4.15-.88-9.49.18-11.21,3.87a12.7,12.7,0,0,0-.6,1.67,5,5,0,0,1-.89,1.93,6,6,0,0,0,4.58.78,4.16,4.16,0,0,1,2.86.3l0-.06c.4-.61.4-.61.39-1.65a.26.26,0,0,1,.18-.24Z"/><path class="cls-6" d="M305.11,201c1.92-.16,1.57,2.89,3.29,2.43,1.29-.35,1.3-1.31,1.3-2,1,.73,1.08,2.6,1,3.67-1,1-1.79.84-4.34,1.43-1.32.3-1.15,1.06-4.36,1.44-1.89.23-4.22-.15-4.12-.84C298.25,204.3,301.64,204.43,305.11,201Z"/><path class="cls-4" d="M300.84,208.23a5.11,5.11,0,0,1-3-.69.61.61,0,0,1-.19-.51c.24-1.67,1.51-2.37,3.11-3.25a17.77,17.77,0,0,0,4.22-3,.25.25,0,0,1,.16-.08c1.12-.1,1.59.77,2,1.47s.64,1.13,1.28,1c1-.27,1.11-1,1.11-1.76a.26.26,0,0,1,.14-.22.24.24,0,0,1,.26,0c1,.75,1.21,2.57,1.07,3.9a.21.21,0,0,1-.07.15,4.42,4.42,0,0,1-2.75,1.14c-.47.09-1,.19-1.71.35a3.08,3.08,0,0,0-1,.44,7.3,7.3,0,0,1-3.39,1A8.71,8.71,0,0,1,300.84,208.23Zm4.37-7a17.87,17.87,0,0,1-4.26,3c-1.59.88-2.65,1.46-2.85,2.89,0,0,0,.05,0,.09.38.38,2.12.67,3.8.48a6.75,6.75,0,0,0,3.19-.95,3.52,3.52,0,0,1,1.15-.49c.69-.16,1.26-.27,1.73-.36a4,4,0,0,0,2.42-.94,5.19,5.19,0,0,0-.5-3,1.78,1.78,0,0,1-1.46,1.64c-1,.28-1.48-.51-1.85-1.21s-.65-1.21-1.37-1.21Z"/><path class="cls-6" d="M325.31,205.17c.64.68.89,3.21.85,3.9s.15,3.29-.63,4.23c-1.2,1.45-4.25,2.56-5.95.73a3.22,3.22,0,0,1,.05-3.53c.67-1.07,1.56-4.48,2.56-5.2-.1.53-1.1,2.42,0,1.22.48-.52,1.58-.46,2.42.53C325.81,208.46,325.26,205.27,325.31,205.17Z"/><path class="cls-4" d="M321.88,215.23a3.27,3.27,0,0,1-2.48-1,3.47,3.47,0,0,1,0-3.83,13.94,13.94,0,0,0,.81-1.86c.55-1.43,1.12-2.92,1.81-3.42a.24.24,0,0,1,.28,0,.23.23,0,0,1,.11.25,5,5,0,0,1-.25.75s0,.11-.07.17a1.49,1.49,0,0,1,1-.31,2.43,2.43,0,0,1,1.75.94,1,1,0,0,0,.26.25,4.38,4.38,0,0,0,0-1.58c0-.36,0-.42,0-.51a.26.26,0,0,1,.19-.13.26.26,0,0,1,.21.08c.72.76,1,3.36.92,4.08,0,.16,0,.39,0,.66,0,1.15,0,2.9-.68,3.72a5.37,5.37,0,0,1-3.72,1.77Zm-.45-8.35c-.26.57-.51,1.23-.74,1.81a12.5,12.5,0,0,1-.84,1.94,3,3,0,0,0-.08,3.23,2.81,2.81,0,0,0,2.22.87,4.83,4.83,0,0,0,3.35-1.59c.56-.68.56-2.38.56-3.4,0-.29,0-.53,0-.69a10.46,10.46,0,0,0-.27-2.39c0,.54-.11.86-.37,1s-.7-.26-.83-.42a2,2,0,0,0-1.38-.76h0a.84.84,0,0,0-.64.24c-.31.33-.57.58-.82.43A.32.32,0,0,1,321.43,206.88Z"/><path class="cls-6" d="M229,197.88l3.42-.61c.16,1.47.66,3,1.77,3.18,2,1.8-3.85,4.14-5.11,3C228.68,201.25,229.91,200.27,229,197.88Z"/><path class="cls-4" d="M230.2,204a1.89,1.89,0,0,1-1.26-.37.27.27,0,0,1-.07-.14,6.12,6.12,0,0,1,.07-2.52,5,5,0,0,0-.15-3,.26.26,0,0,1,0-.21.3.3,0,0,1,.17-.12l3.43-.61a.25.25,0,0,1,.19,0,.21.21,0,0,1,.1.17c.07.66.38,2.8,1.55,3a.35.35,0,0,1,.14.06,1.25,1.25,0,0,1,.48,1.23c-.21,1-1.65,1.79-2.83,2.18A6.21,6.21,0,0,1,230.2,204Zm-.86-.7a3.45,3.45,0,0,0,2.54-.11c1.34-.43,2.37-1.18,2.5-1.8a.76.76,0,0,0-.27-.71c-1-.18-1.64-1.31-1.87-3.12l-2.88.51a5.56,5.56,0,0,1,.07,3A5.68,5.68,0,0,0,229.34,203.3Z"/><path class="cls-6" d="M205.06,206.59a10.55,10.55,0,0,0-.14-4.32c.52.08,3.3-.1,3.3-.1-.21,1.42-.29,3.45.63,4.71C210.14,208.66,204.69,211.05,205.06,206.59Z"/><path class="cls-4" d="M206.77,209.39a1.89,1.89,0,0,1-.75-.14c-.52-.2-1.36-.81-1.2-2.68h0c0-.11,0-.24,0-.39a9.2,9.2,0,0,0-.17-3.83.26.26,0,0,1,0-.24A.28.28,0,0,1,205,202c.4.06,2.48-.05,3.24-.1a.3.3,0,0,1,.2.08.27.27,0,0,1,.06.21c-.2,1.41-.27,3.35.59,4.52a1.3,1.3,0,0,1-.08,1.61A2.94,2.94,0,0,1,206.77,209.39Zm-1.5-6.85a10.78,10.78,0,0,1,.08,3.69c0,.15,0,.28,0,.38h0c-.09,1.17.21,1.92.89,2.18a2.32,2.32,0,0,0,2.37-.76.79.79,0,0,0,.07-1c-.89-1.23-.89-3.12-.71-4.59C207.31,202.48,206,202.55,205.27,202.54Zm-.21,4.05h0Z"/><path class="cls-6" d="M226.35,136.42c0,2.35,7.73,55,6.57,60.53-1.08,1.09-3.72,1.59-4.47.83-4-5.86-10.74-32.33-11.49-39.58-.1-.91-5.16,37.56-7.92,44.89-.93,1.43-3.52,1.08-5.17.14-1.66-7.61-3-44.67-1.14-54.81,1.42-7.61,3.83-10,5.8-13.85C211.49,132.1,226.35,133.62,226.35,136.42Z"/><path class="cls-4" d="M206.8,204.29a6.52,6.52,0,0,1-3.06-.84.3.3,0,0,1-.12-.17c-1.65-7.58-3-44.74-1.13-54.91a30.17,30.17,0,0,1,4.35-11.32c.51-.86,1-1.68,1.47-2.59a.24.24,0,0,1,.06-.08c2.4-2,12.67-1.49,16.64.36,1.05.5,1.59,1.06,1.59,1.68s.67,5.75,1.53,12.2c2.19,16.6,5.87,44.39,5,48.38a.26.26,0,0,1-.06.13,5.29,5.29,0,0,1-3.41,1.26,2,2,0,0,1-1.42-.43c-3.75-5.46-10-29-11.35-38.15-.19,1.18-.45,2.94-.74,4.94-1.71,11.55-4.88,33.06-6.9,38.42A2.8,2.8,0,0,1,206.8,204.29Zm-2.71-1.22c1.48.79,3.89,1.18,4.75-.12,2-5.27,5.26-27.56,6.84-38.28.64-4.33.87-5.88,1-6.43h0c.09-.3.16-.29.25-.29a.26.26,0,0,1,.24.24c.8,7.59,7.52,33.73,11.45,39.46a1.67,1.67,0,0,0,1,.25,4.84,4.84,0,0,0,3-1.06c.76-4.17-2.88-31.67-5.06-48.14-.89-6.73-1.53-11.58-1.53-12.27,0-.4-.46-.83-1.31-1.23-3.74-1.74-13.74-2.3-16.06-.46-.47.91-1,1.76-1.46,2.58A29.6,29.6,0,0,0,203,148.46C201.1,158.55,202.45,195.26,204.09,203.07ZM232.92,197Z"/><path class="cls-6" d="M217,158.2s.54-6.12,5-8.92"/><path class="cls-4" d="M217,158.45h0a.24.24,0,0,1-.22-.27c0-.26.6-6.28,5.17-9.11a.27.27,0,0,1,.35.08.26.26,0,0,1-.09.35c-4.35,2.7-4.93,8.66-4.94,8.72A.25.25,0,0,1,217,158.45Z"/><path class="cls-6" d="M233.68,199.61c-1.88-.11-1.24,3.06-3.65,2.08-.82-.33-.78-1.15-.8-1.91a6.69,6.69,0,0,0-.67,4.21c.93.93,3.15.74,6.46,1.59,2,.5,5.65.89,6.42-.34.52-.83-.38-1.77-1.57-2.27C237.91,202.13,235.54,201.75,233.68,199.61Z"/><path class="cls-4" d="M238.76,206.31a16.76,16.76,0,0,1-3.8-.49,32,32,0,0,0-3.42-.65c-1.48-.23-2.54-.39-3.16-1a.26.26,0,0,1-.07-.11,7,7,0,0,1,.71-4.41.25.25,0,0,1,.46.13v.14c0,.81.07,1.32.65,1.55,1.12.46,1.42-.08,1.83-.82.33-.59.75-1.33,1.73-1.28a.21.21,0,0,1,.17.08,10,10,0,0,0,4.67,2.75c.5.18,1,.35,1.44.55a3,3,0,0,1,1.81,1.62,1.23,1.23,0,0,1-.13,1C241.2,206.09,240,206.31,238.76,206.31Zm-10-2.45a6,6,0,0,0,2.84.81,33.27,33.27,0,0,1,3.46.66c2.17.56,5.51.8,6.14-.22a.68.68,0,0,0,.08-.6,2.58,2.58,0,0,0-1.52-1.31c-.45-.2-.92-.36-1.42-.54a10.64,10.64,0,0,1-4.8-2.81c-.61,0-.87.49-1.17,1-.4.74-.91,1.66-2.45,1a1.43,1.43,0,0,1-.89-1.14A6.7,6.7,0,0,0,228.78,203.86Z"/><path class="cls-6" d="M205.08,206.08a4.23,4.23,0,0,0-.89,3.06,11.37,11.37,0,0,0,2.79,4c1.67,1,5,.93,5.82-.39,1.06-1.81-2.73-4.63-4-6.43-.85-.66-2.18.63-2.41,1.29C205.77,209.39,205.13,206.18,205.08,206.08Z"/><path class="cls-4" d="M209.86,214.09a6,6,0,0,1-3-.73,11.29,11.29,0,0,1-2.9-4.17,4.37,4.37,0,0,1,1-3.32.23.23,0,0,1,.2,0,.22.22,0,0,1,.15.13.86.86,0,0,1,.07.24c.33,1.3.53,1.61.62,1.69a3.44,3.44,0,0,0,.15-.36,3,3,0,0,1,1.71-1.58,1.21,1.21,0,0,1,1.1.17l.05.06a19.45,19.45,0,0,0,1.5,1.71c1.58,1.65,3.37,3.53,2.51,5a2.56,2.56,0,0,1-1.65,1A6.1,6.1,0,0,1,209.86,214.09Zm-4.9-7.47a4.44,4.44,0,0,0-.52,2.47,10.93,10.93,0,0,0,2.67,3.84,6,6,0,0,0,4.13.5,2.09,2.09,0,0,0,1.34-.79c.67-1.14-1-2.87-2.44-4.4a19.45,19.45,0,0,1-1.53-1.73.69.69,0,0,0-.62-.07,2.53,2.53,0,0,0-1.37,1.27c-.07.19-.25.69-.63.69h0C205.58,208.39,205.3,207.9,205,206.62Z"/><path class="cls-7" d="M378.9,202a1.61,1.61,0,0,0,1.07.57,1.63,1.63,0,0,0,1.29-.4l3.13-21.87L382,180Z"/><path class="cls-4" d="M380.05,202.78H380a1.82,1.82,0,0,1-1.25-.67.25.25,0,0,1,0-.19l3.11-22a.27.27,0,0,1,.28-.22l2.37.31a.23.23,0,0,1,.17.1.24.24,0,0,1,.05.18l-3.13,21.88a.27.27,0,0,1-.06.12A1.73,1.73,0,0,1,380.05,202.78Zm-.88-.9a1.26,1.26,0,0,0,.81.4,1.6,1.6,0,0,0,1-.27l3.08-21.54-1.88-.24Z"/><path class="cls-7" d="M406.35,202.06a1.67,1.67,0,0,1-2.36.17l-3.14-22,2.39-.21Z"/><path class="cls-4" d="M405.2,202.88a1.76,1.76,0,0,1-1.4-.49.17.17,0,0,1-.05-.12l-3.15-22a.26.26,0,0,1,0-.19.24.24,0,0,1,.18-.09l2.38-.21a.24.24,0,0,1,.27.22l3.12,22a.25.25,0,0,1-.05.19,1.82,1.82,0,0,1-1.26.67Zm-1-.77a1.56,1.56,0,0,0,1,.27,1.29,1.29,0,0,0,.81-.4L403,180.32l-1.89.16Z"/><path class="cls-6" d="M374.9,177.14l-.23,1.55A9.39,9.39,0,0,0,376.4,180c2.22.91,9.87,1.67,16.32,1.63s15.27-.78,16.53-1.51a8.15,8.15,0,0,0,1.51-1.17l-.21-1.73Z"/><path class="cls-4" d="M392.28,181.88c-6.41,0-13.79-.75-16-1.65a9.08,9.08,0,0,1-1.81-1.36.27.27,0,0,1-.08-.22l.23-1.55a.26.26,0,0,1,.25-.21h0l35.65.08a.25.25,0,0,1,.25.22l.2,1.73a.24.24,0,0,1-.07.21,8,8,0,0,1-1.55,1.21c-1.37.79-10.3,1.51-16.66,1.54Zm-17.34-3.29a7.91,7.91,0,0,0,1.56,1.18c2.18.9,9.78,1.66,16.22,1.61,6.66,0,15.25-.81,16.41-1.48a7.86,7.86,0,0,0,1.36-1l-.16-1.39-35.21-.08Z"/><path class="cls-3" d="M373.53,174.05c-.66-1.69-1.51-4.54-1-5.81.44-1.08,1.69-1.63,2.57-2.39a10,10,0,0,0,2.83-4,17.76,17.76,0,0,0,1-7.81,36.45,36.45,0,0,0-1.86-7.13c-.23-.75-.74-2.81-.05-4a5.62,5.62,0,0,1,2.09-1.74c2-1.11,5.8-2.27,12.89-2.27,7.87,0,12.81,1.07,14.63,2.27a3.42,3.42,0,0,1,1.48,1.74,5.41,5.41,0,0,1-.05,4,34.73,34.73,0,0,0-1.62,7.57,16.29,16.29,0,0,0,.91,7.42c1,2.57,1.53,3.14,3,4.24,1,.75,2.58,1.16,2.77,2.89.14,1.18-.65,3.43-1.3,5.4"/><path class="cls-4" d="M411.91,174.68l-.08,0a.24.24,0,0,1-.16-.31l.09-.27c.62-1.86,1.33-4,1.2-5s-1-1.68-1.86-2.2c-.27-.16-.56-.33-.81-.51-1.55-1.13-2.08-1.76-3.12-4.34a15.52,15.52,0,0,1-.95-7l0-.54a33.48,33.48,0,0,1,1.63-7.64,5.23,5.23,0,0,0,.07-3.87,3.17,3.17,0,0,0-1.4-1.64c-1.62-1.08-6.28-2.23-14.49-2.23-7.29,0-11,1.22-12.77,2.24a5.44,5.44,0,0,0-2,1.64c-.53.93-.29,2.64.08,3.81.09.27.19.59.31.94a29.94,29.94,0,0,1,1.56,6.25,17.62,17.62,0,0,1-1.06,7.92,10.11,10.11,0,0,1-2.9,4.13,8.37,8.37,0,0,1-.89.68,4.19,4.19,0,0,0-1.61,1.63c-.45,1.12.25,3.72,1,5.62a.25.25,0,1,1-.46.18c-.28-.72-1.65-4.37-1-6a4.59,4.59,0,0,1,1.78-1.85,8.56,8.56,0,0,0,.85-.64,9.64,9.64,0,0,0,2.77-4,17.19,17.19,0,0,0,1-7.69,28.88,28.88,0,0,0-1.54-6.12c-.11-.36-.22-.68-.31-.95-.14-.46-.82-2.82,0-4.21a5.73,5.73,0,0,1,2.19-1.82c1.85-1,5.61-2.31,13-2.31,7.07,0,12.58.87,14.77,2.32a3.64,3.64,0,0,1,1.56,1.83,5.67,5.67,0,0,1,0,4.23,33.92,33.92,0,0,0-1.61,7.51l0,.55a15,15,0,0,0,.91,6.77c1,2.52,1.5,3.06,3,4.13.23.16.49.32.76.48a3.39,3.39,0,0,1,2.11,2.58c.14,1.18-.56,3.24-1.23,5.24l-.09.26A.24.24,0,0,1,411.91,174.68Z"/><path class="cls-3" d="M373.33,172.12c0-3,9.25-3.46,19.15-3.46,9.59,0,18.71.51,19.44,2.72a6.93,6.93,0,0,1-1.37,5.84c-1.1,1.11-10.92,1.73-17.94,1.73s-17-.94-18.06-2C373.67,176,373.33,172.92,373.33,172.12Z"/><path class="cls-4" d="M392.61,179.2c-6.42,0-17-.84-18.24-2.11-1-1-1.29-4.19-1.29-5,0-3.08,7.76-3.71,19.4-3.71,12.77,0,19,.92,19.67,2.89a7.19,7.19,0,0,1-1.42,6.1C409.5,178.63,399.19,179.2,392.61,179.2Zm-.13-10.29c-5.65,0-18.9,0-18.9,3.21,0,.81.36,3.83,1.14,4.62.94.93,10.3,2,17.89,2s16.82-.71,17.77-1.65a6.75,6.75,0,0,0,1.3-5.59C411.29,170.29,407.65,168.91,392.48,168.91Z"/><path class="cls-6" d="M374.33,207.87l3.6-30,1,.16-.12,2,1.39.8-3.1,27a1.71,1.71,0,0,1-1.44.52C374.48,208.41,374.33,207.87,374.33,207.87Z"/><path class="cls-4" d="M375.7,208.66c-1.38,0-1.59-.65-1.61-.72a.17.17,0,0,1,0-.1l3.59-30a.25.25,0,0,1,.1-.17.25.25,0,0,1,.19,0l1,.15a.25.25,0,0,1,.21.27l-.11,1.83,1.26.73a.25.25,0,0,1,.12.24l-3.1,27a.31.31,0,0,1-.05.12A1.94,1.94,0,0,1,375.7,208.66Zm-1.11-.83c.06.09.31.33,1.11.33a1.67,1.67,0,0,0,1.2-.37L380,181l-1.26-.73a.27.27,0,0,1-.12-.23l.11-1.76-.56-.08Zm-.26,0h0Z"/><path class="cls-6" d="M410.91,208l-3.36-29.88-1.05.14.12,1.9-1.4.81,3,27.13s.28.44,1.36.44S410.91,208,410.91,208Z"/><path class="cls-4" d="M409.54,208.75c-1.19,0-1.54-.5-1.57-.56a.42.42,0,0,1,0-.1L405,181a.25.25,0,0,1,.12-.25l1.26-.73-.11-1.74a.26.26,0,0,1,.22-.27l1-.14a.24.24,0,0,1,.18,0,.23.23,0,0,1,.1.17l3.36,29.88a.28.28,0,0,1,0,.09C411.13,208.1,410.92,208.75,409.54,208.75Zm-1.12-.79a1.72,1.72,0,0,0,1.12.29c.8,0,1-.25,1.11-.33l-3.32-29.56-.57.08.11,1.67a.28.28,0,0,1-.13.23l-1.25.72Z"/><path class="cls-4" d="M392.61,174.3c-6,0-15.88-.63-17.07-1.57a.25.25,0,0,1,0-.35.24.24,0,0,1,.35,0c.88.69,9.65,1.46,16.76,1.46s15.75-.53,16.64-1.23a.24.24,0,0,1,.35,0,.25.25,0,0,1,0,.35C408.41,173.87,398.76,174.3,392.61,174.3Z"/><circle class="cls-4" cx="386.9" cy="163.17" r="0.9"/><path class="cls-4" d="M386.9,164.31a1.15,1.15,0,1,1,1.15-1.14A1.14,1.14,0,0,1,386.9,164.31Zm0-1.79a.65.65,0,1,0,.65.65A.65.65,0,0,0,386.9,162.52Z"/><circle class="cls-4" cx="398.54" cy="163.17" r="0.9"/><path class="cls-4" d="M398.54,164.31a1.15,1.15,0,1,1,1.14-1.14A1.15,1.15,0,0,1,398.54,164.31Zm0-1.79a.65.65,0,1,0,.64.65A.65.65,0,0,0,398.54,162.52Z"/><path class="cls-8" d="M405.11,164.83c-1.71-3-7.4-1.87-11.94-1.49-4.24-.27-9.09-.82-11.4,1.49-3.08,3.07-3.78,7.06-4.28,11.28l5.8,1.78,4.81,1.89c.61-2.78,4.64-9.93,6-9.93,1,0,2.73,8,3.54,10l9.61-1C409.23,174.79,407.8,169.5,405.11,164.83Z"/><path class="cls-4" d="M397.69,180.1a.26.26,0,0,1-.23-.16c-.28-.68-.64-2-1-3.49-.6-2.17-1.72-6.19-2.27-6.35-1.13,0-5.14,6.73-5.8,9.73a.22.22,0,0,1-.12.17.22.22,0,0,1-.21,0l-4.81-1.89-5.78-1.77a.26.26,0,0,1-.18-.27c.51-4.24,1.22-8.3,4.35-11.43,2.21-2.2,6.46-1.91,10.57-1.63l1,.07,1.94-.19c4.25-.43,8.65-.88,10.19,1.8,1.84,3.19,4.57,9.28,2.21,14.25a.25.25,0,0,1-.2.14l-9.61,1Zm-3.54-10.5c.76,0,1.43,2,2.74,6.71.36,1.32.71,2.57,1,3.27l9.29-1c2.15-4.75-.48-10.58-2.25-13.66h0c-1.38-2.4-5.81-1.95-9.71-1.55l-2,.19-1.06-.07c-4-.27-8.14-.56-10.18,1.48-3,3-3.69,6.86-4.18,10.93l5.59,1.72,4.56,1.79C388.69,176.64,392.53,169.6,394.15,169.6Z"/><path class="cls-6" d="M400.75,211.75c1.77-1,3.38.21,3.93.16a.84.84,0,0,0,.69-.63,6.82,6.82,0,0,1-.74-2.11c-.21-2.18.92-8,.92-8l-4.86.61S402.24,208.73,400.75,211.75Z"/><path class="cls-4" d="M404.65,212.16a2.48,2.48,0,0,1-.75-.19,3.5,3.5,0,0,0-3,0,.24.24,0,0,1-.29,0,.26.26,0,0,1-.06-.29c1.44-2.9-.06-9.78-.08-9.85a.28.28,0,0,1,0-.2.3.3,0,0,1,.17-.1l4.87-.61a.27.27,0,0,1,.22.08.29.29,0,0,1,.06.22s-1.12,5.84-.92,8a4.08,4.08,0,0,0,.45,1.43c.09.2.19.39.27.61a.23.23,0,0,1,0,.14,1.06,1.06,0,0,1-.9.83Zm-2.4-1a5.47,5.47,0,0,1,1.82.39,1.87,1.87,0,0,0,.59.16.52.52,0,0,0,.44-.37c-.07-.17-.14-.33-.22-.49a4.64,4.64,0,0,1-.5-1.6c-.18-1.92.62-6.49.86-7.78L401,202c.25,1.25,1.2,6.4.22,9.33A3.28,3.28,0,0,1,402.25,211.11Z"/><path class="cls-6" d="M380.4,212.09c1.83-1.14,3.57.16,4.15.09s.55-.72.55-.72a8.11,8.11,0,0,1-.71-2.35,48.65,48.65,0,0,1,.09-7.18l-4.26.12S381.85,208.67,380.4,212.09Z"/><path class="cls-4" d="M384.5,212.43a2.47,2.47,0,0,1-.78-.2,3.51,3.51,0,0,0-3.19.07.24.24,0,0,1-.29,0,.26.26,0,0,1-.07-.29c1.4-3.3-.17-9.81-.19-9.88a.26.26,0,0,1,0-.21.3.3,0,0,1,.2-.1l4.25-.12a.26.26,0,0,1,.19.08.23.23,0,0,1,.07.19,48.4,48.4,0,0,0-.09,7.13,6.92,6.92,0,0,0,.57,2l.12.31a.24.24,0,0,1,0,.08.91.91,0,0,1-.77,1ZM382,211.37a5.73,5.73,0,0,1,1.86.39,1.92,1.92,0,0,0,.63.17c.28,0,.32-.31.33-.42l-.11-.26a7.61,7.61,0,0,1-.6-2.1,45.48,45.48,0,0,1,.07-7l-3.67.1c.28,1.27,1.27,6.16.31,9.3A3.15,3.15,0,0,1,382,211.37Z"/><path class="cls-8" d="M388.13,177c.27,7.12-3.18,20.83-3.18,27.31a5.82,5.82,0,0,1-5.26-.5c-1-6.33-3.21-21.08-2.15-28.05"/><path class="cls-4" d="M382.91,204.93a6.61,6.61,0,0,1-3.34-.94.21.21,0,0,1-.12-.17c-1-6.36-3.22-21.14-2.16-28.12a.25.25,0,0,1,.29-.21.25.25,0,0,1,.21.28c-1.05,6.88,1.17,21.52,2.13,27.85a5.67,5.67,0,0,0,4.78.49A95.46,95.46,0,0,1,386.21,192c.89-5.5,1.82-11.19,1.67-15a.26.26,0,0,1,.25-.26.23.23,0,0,1,.25.24c.15,3.85-.78,9.57-1.68,15.09a91.34,91.34,0,0,0-1.5,12.23.23.23,0,0,1-.14.22A5.1,5.1,0,0,1,382.91,204.93Zm2-.65h0Z"/><path class="cls-9" d="M379.47,204.67c-.28-.53-.52-1.47-.2-1.65s1.28.71,3.33.64,2.48-.59,2.79-.78.2,1.36,0,1.64C384.72,205.75,379.87,205.44,379.47,204.67Z"/><path class="cls-4" d="M382.46,205.6h-.19c-.27,0-2.64-.07-3-.81-.27-.51-.65-1.66-.11-2,.23-.13.49,0,.87.12a6,6,0,0,0,2.58.49,3.9,3.9,0,0,0,2.5-.63l.18-.11a.33.33,0,0,1,.4,0c.31.31.14,1.65,0,1.93C385.15,205.5,383.28,205.6,382.46,205.6Zm-3.08-2.36h0a2.34,2.34,0,0,0,.32,1.31,4.53,4.53,0,0,0,2.59.54c1.5,0,2.68-.25,2.94-.7a3.78,3.78,0,0,0,.12-1.17,4.46,4.46,0,0,1-2.73.69,6.53,6.53,0,0,1-2.78-.52A2.09,2.09,0,0,0,379.38,203.24Z"/><path class="cls-10" d="M402.87,126.58c-2.19-2.06-6-3.27-11.36-2.79a13.57,13.57,0,0,0-8.31,3.94c-1.87,2.24-2.29,35.14-3.05,37.68,1.21,1.59,6.94.29,12.66.23s11.64,1.1,12.67.29C404.73,164,404.88,128.48,402.87,126.58Z"/><path class="cls-4" d="M393.79,123.68c4.2,0,7.21,1.14,9.08,2.9s1.86,37.43,2.61,39.35a3.13,3.13,0,0,1-1.68.29c-2.28,0-6.37-.59-10.53-.59h-.46c-3.57,0-7.15.56-9.63.56-1.49,0-2.58-.19-3-.79.76-2.54,1.18-35.44,3.05-37.68a13.57,13.57,0,0,1,8.31-3.94c.8-.07,1.56-.11,2.28-.11m0-.5c-.74,0-1.53,0-2.32.11a14.17,14.17,0,0,0-8.65,4.11c-1.19,1.42-1.72,11.43-2.36,25.4-.27,5.95-.52,11.57-.79,12.47a.49.49,0,0,0,.08.45c.52.67,1.58,1,3.43,1,1.19,0,2.64-.12,4.17-.25s3.6-.29,5.47-.31h.45c2.37,0,4.68.19,6.73.36,1.51.12,2.81.23,3.8.23a3.25,3.25,0,0,0,2-.4.49.49,0,0,0,.16-.57c-.25-.64-.42-6.67-.59-12.51-.5-17.41-.95-25.89-2.15-27-2.11-2-5.37-3-9.42-3Z"/><path class="cls-5" d="M390.52,122.58c.22-1,2.65-2.35,1.52-5.12,1.65.16,4,1,5.68,1.07-1,4,1.93,6.1-2.36,10.27C393.55,128.54,390.05,124.68,390.52,122.58Z"/><path class="cls-4" d="M395.36,129.05h0c-1.12-.16-2.83-1.56-4-3.25a4.81,4.81,0,0,1-1.06-3.27h0a3.09,3.09,0,0,1,.67-1.1c.72-.91,1.61-2.05.87-3.88a.28.28,0,0,1,0-.25.26.26,0,0,1,.23-.09,20.36,20.36,0,0,1,2.57.51,17.54,17.54,0,0,0,3.09.56.24.24,0,0,1,.19.1.22.22,0,0,1,0,.21,9.48,9.48,0,0,0-.07,3.7c.25,2,.48,3.94-2.35,6.69A.24.24,0,0,1,395.36,129.05Zm-4.6-6.42a4.13,4.13,0,0,0,1,2.88,7.69,7.69,0,0,0,3.54,3c2.56-2.53,2.35-4.22,2.11-6.18a10.31,10.31,0,0,1,0-3.59,21.57,21.57,0,0,1-2.88-.55c-.76-.19-1.48-.36-2.12-.46a4.09,4.09,0,0,1-1.08,4,3,3,0,0,0-.57.89Z"/><path class="cls-10" d="M395.36,128.8l-1.87,4.13a8.89,8.89,0,0,1-4.68-9.25l1.71-1.1C390.33,126.22,395.36,128.8,395.36,128.8Z"/><path class="cls-4" d="M390.52,122.58c-.19,3.64,4.84,6.22,4.84,6.22l-1.87,4.13a8.89,8.89,0,0,1-4.68-9.25l1.71-1.1m0-.5a.5.5,0,0,0-.27.08l-1.71,1.1a.49.49,0,0,0-.23.36,9.47,9.47,0,0,0,5,9.76.54.54,0,0,0,.21.05l.18,0a.53.53,0,0,0,.28-.27l1.87-4.12a.5.5,0,0,0-.23-.65s-4.74-2.48-4.57-5.75a.5.5,0,0,0-.25-.46.47.47,0,0,0-.25-.07Zm0,1Z"/><path class="cls-10" d="M395.36,128.8l1.7,4.47s3.33-4.18,3-8.75c-.65-.79-1.46-1.52-2.13-1.48C397.93,125.19,397.06,127.63,395.36,128.8Z"/><path class="cls-4" d="M398,123c.67,0,1.44.71,2.08,1.48.33,4.57-3,8.75-3,8.75l-1.7-4.47c1.7-1.17,2.57-3.61,2.57-5.76H398m0-.5h-.09a.5.5,0,0,0-.46.5c0,1.85-.73,4.23-2.35,5.35a.5.5,0,0,0-.19.59l1.7,4.47a.49.49,0,0,0,.39.32h.08a.51.51,0,0,0,.39-.19c.14-.17,3.45-4.39,3.1-9.1a.43.43,0,0,0-.11-.28c-.91-1.1-1.74-1.66-2.46-1.66Z"/><path class="cls-11" d="M389.18,123c-1.38,4.71,1.12,9.23,1.61,13.09.68,5.49-2.57,20.6-2.67,22.7-.13,2.55-1.13,5.54-3.15,6-1.33.3-5.1,1.42-6.19-.88-.39-.84.16-4.4.19-6,0-2.7-5.4-22.54-1.48-29.75C380.51,124.62,389.18,123,389.18,123Z"/><path class="cls-4" d="M381.61,165.62a3.06,3.06,0,0,1-3.05-1.57c-.3-.62-.14-2.37,0-4.07.07-.79.14-1.54.15-2.08a39.93,39.93,0,0,0-.73-4.59c-1.3-6.9-3.72-19.75-.72-25.27,3.07-3.61,11.51-5.18,11.86-5.25a.26.26,0,0,1,.23.08.27.27,0,0,1,.06.24c-.92,3.14-.09,6.16.72,9.08a27.13,27.13,0,0,1,.89,3.91c.5,4-1,13-2,18.36-.37,2.13-.66,3.8-.68,4.38-.14,2.76-1.23,5.75-3.34,6.23l-.35.08A13.23,13.23,0,0,1,381.61,165.62Zm7.22-42.26c-1.71.36-8.59,2-11.15,5-2.88,5.32-.49,18.05.8,24.9a36.72,36.72,0,0,1,.74,4.69c0,.55-.08,1.31-.15,2.11a13.28,13.28,0,0,0-.06,3.82c.92,1.94,4.05,1.19,5.56.83l.35-.09c1.85-.41,2.82-3.28,2.95-5.76,0-.61.3-2.22.69-4.44.92-5.36,2.47-14.32,2-18.21a27.91,27.91,0,0,0-.88-3.84C388.9,129.59,388.05,126.51,388.83,123.36Z"/><path class="cls-11" d="M415,126.13s-.45,4.91-2.69,7.14c-.88-1.51-2.4-5.63-5.52-7.63a21.28,21.28,0,0,0-7.53-2.32c1.7,4.43-.85,10.48-1,14.59-.2,5.56,1.51,17.31,2.76,22.8.53,2.32.69,4.45,1.22,4.7,1.72.81,6.31,1.31,6.31-2.75,0,0-4.16-16.52-2.4-23.12.53-2,4.67,3.69,7.81,3.69,3-.88,5.86-10.81,6.4-16.23C420,125.62,415.51,124.68,415,126.13Z"/><path class="cls-4" d="M405,166.22a6.85,6.85,0,0,1-2.81-.59c-.46-.21-.63-1-.94-2.76-.12-.64-.25-1.37-.42-2.11-1.23-5.38-3-17.25-2.77-22.86a30.82,30.82,0,0,1,.72-4.76c.65-3.22,1.38-6.87.29-9.73a.25.25,0,0,1,0-.24.26.26,0,0,1,.23-.1,21.25,21.25,0,0,1,7.64,2.36c2.55,1.64,4,4.6,5,6.55.16.33.3.62.44.87,1.94-2.24,2.38-6.7,2.38-6.74s0,0,0-.06c.21-.61.94-.93,2.08-.9,1.57,0,3.5.79,3.78,1.78a.27.27,0,0,1,0,.09c-.51,5.08-3.29,15.5-6.58,16.45H414c-1.67,0-3.56-1.48-5.07-2.66-.93-.73-2-1.55-2.35-1.44,0,0-.1,0-.15.23-1.72,6.45,2.36,22.83,2.4,23a3.24,3.24,0,0,1-1.42,3A4.52,4.52,0,0,1,405,166.22Zm-5.33-42.6c.95,2.92.23,6.47-.4,9.62a30,30,0,0,0-.71,4.68c-.2,5.57,1.53,17.37,2.76,22.73.17.75.3,1.48.42,2.13a6.37,6.37,0,0,0,.66,2.4c1.1.52,3.37.89,4.76,0a2.79,2.79,0,0,0,1.19-2.53c-.16-.61-4.15-16.6-2.39-23.18a.76.76,0,0,1,.47-.57c.61-.21,1.54.51,2.81,1.51,1.45,1.13,3.24,2.53,4.73,2.56,2.74-.86,5.59-10.08,6.19-16-.24-.65-1.84-1.32-3.3-1.37-.84,0-1.43.18-1.57.54s-.56,5.06-2.76,7.26a.26.26,0,0,1-.21.07.28.28,0,0,1-.18-.12c-.18-.31-.39-.72-.62-1.2-.95-1.9-2.39-4.79-4.82-6.35A20.67,20.67,0,0,0,399.64,123.62Z"/><path class="cls-4" d="M384.47,209.18a5.89,5.89,0,0,1,.88,3.26,16.63,16.63,0,0,1-1.63,4c-1,1.51-4,2.4-5.54.61a4.21,4.21,0,0,1-.19-3.69c.56-1.07,1.88-3.81,3-4.35-.16.46-1.17,2,.13,1.09a1.89,1.89,0,0,1,2.43.72C384.6,212.15,384.4,209.27,384.47,209.18Z"/><path class="cls-4" d="M380.46,218.25a3.19,3.19,0,0,1-2.48-1.08,4.53,4.53,0,0,1-.21-4l.17-.32c.65-1.26,1.85-3.61,2.94-4.13a.24.24,0,0,1,.28,0,.26.26,0,0,1,.07.27c0,.1-.12.27-.21.44s-.15.31-.22.47l.17-.12a2.12,2.12,0,0,1,2.77.78c.2.25.29.27.29.27a3.77,3.77,0,0,0,.17-1.4c0-.32,0-.39.08-.48a.28.28,0,0,1,.19-.09.25.25,0,0,1,.19.09,6.09,6.09,0,0,1,.94,3.48,17.63,17.63,0,0,1-1.67,4,4.31,4.31,0,0,1-3.23,1.71Zm-.19-8.31a21,21,0,0,0-1.89,3.16l-.17.33a4,4,0,0,0,.16,3.42,2.75,2.75,0,0,0,2.3.9,3.88,3.88,0,0,0,2.85-1.49,17,17,0,0,0,1.59-3.87,5.92,5.92,0,0,0-.43-2.31c-.05.65-.16,1.18-.52,1.3s-.7-.31-.81-.45a1.66,1.66,0,0,0-2.09-.67c-.41.3-.71.45-.93.27S380.18,210.2,380.27,209.94Z"/><path class="cls-4" d="M401.11,209.55a5,5,0,0,0-.61,3.07,28.44,28.44,0,0,0,1.36,4.16c.72,1.5,4.1,2.44,5.55.6a3.3,3.3,0,0,0,.18-3.69c-.52-1.08-1.84-4-3-4.52.17.47,1.13,2.21-.16,1.26a1.89,1.89,0,0,0-2.43.72C401,212.52,401.18,209.64,401.11,209.55Z"/><path class="cls-4" d="M405.09,218.65l-.49,0a3.8,3.8,0,0,1-3-1.74,29.92,29.92,0,0,1-1.38-4.2,5.18,5.18,0,0,1,.67-3.29.31.31,0,0,1,.19-.09.23.23,0,0,1,.19.1c.07.08.07.15.08.47,0,1,.12,1.33.2,1.4a1.16,1.16,0,0,0,.26-.27,2.12,2.12,0,0,1,2.77-.77l.25.16a8.21,8.21,0,0,0-.31-.77l-.15-.36a.23.23,0,0,1,.07-.27.24.24,0,0,1,.27,0c1.13.54,2.38,3.16,3,4.42l.1.21a3.53,3.53,0,0,1-.22,3.95A3.09,3.09,0,0,1,405.09,218.65Zm-4.18-8.1a5.42,5.42,0,0,0-.17,2,28.84,28.84,0,0,0,1.34,4.1,3.36,3.36,0,0,0,2.58,1.45,2.76,2.76,0,0,0,2.55-.89,3,3,0,0,0,.16-3.43l-.11-.21a19.81,19.81,0,0,0-2-3.5c.13.37.14.63-.05.79s-.59,0-.92-.25a1.66,1.66,0,0,0-2.09.67c-.1.14-.43.57-.81.45S401,211.16,400.91,210.55Zm.68.73h0Z"/><path class="cls-8" d="M397.34,176.64c-.27,7.11,3.18,20.82,3.18,27.31a5.84,5.84,0,0,0,5.26-.51c1-6.32,3.22-21.08,2.15-28"/><path class="cls-4" d="M402.56,204.6a5.15,5.15,0,0,1-2.15-.43.24.24,0,0,1-.14-.22,91.34,91.34,0,0,0-1.5-12.23c-.9-5.53-1.83-11.24-1.68-15.09a.24.24,0,0,1,.25-.24h0a.25.25,0,0,1,.24.26c-.14,3.8.78,9.49,1.67,15a95.25,95.25,0,0,1,1.51,12.14,5.75,5.75,0,0,0,4.78-.49c1-6.31,3.19-21,2.14-27.85a.25.25,0,0,1,.21-.29.25.25,0,0,1,.28.21c1.06,7-1.18,21.74-2.14,28v.08a.24.24,0,0,1-.13.18A6.68,6.68,0,0,1,402.56,204.6Z"/><path class="cls-9" d="M406,204.33c.27-.52.52-1.46.19-1.65s-1.27.72-3.33.64-2.47-.59-2.79-.77-.2,1.35,0,1.63C400.75,205.41,405.6,205.11,406,204.33Z"/><path class="cls-4" d="M403,205.26c-.81,0-2.69-.09-3.19-.95-.16-.29-.32-1.62,0-1.93a.33.33,0,0,1,.41,0l.17.12a3.91,3.91,0,0,0,2.5.62,5.86,5.86,0,0,0,2.58-.48c.39-.15.64-.26.87-.12.54.31.17,1.47-.1,2h0c-.39.74-2.76.8-3,.81Zm-2.87-2.37a3.53,3.53,0,0,0,.12,1.17c.26.45,1.44.75,2.94.7a4.67,4.67,0,0,0,2.58-.54h0a2,2,0,0,0,.29-1.32s-.25.09-.43.15a6.38,6.38,0,0,1-2.78.52A4.52,4.52,0,0,1,400.14,202.89Zm5.87,1.44Z"/><path class="cls-12" d="M405.11,164.83c-1.71-3-7.4-1.87-11.94-1.49-4.24-.27-9.09-.82-11.4,1.49-3.08,3.07-3.74,7.68-4.28,11.28,1.41-5.18,11.58-4,10.61,3.67.73-2.64,4.64-9.93,6-9.93.58,0,2.81,8,3.54,10-.25-7.32,9.61-6.56,9.61-1C409.76,173.8,406.94,168,405.11,164.83Z"/><line class="cls-5" x1="236.36" y1="162.66" x2="421" y2="162.66"/><path class="cls-4" d="M421,162.91H236.36a.25.25,0,0,1-.25-.25.25.25,0,0,1,.25-.25H421a.25.25,0,0,1,.25.25A.25.25,0,0,1,421,162.91Z"/><polyline class="cls-2" points="224.41 166.31 231.61 166.31 219.9 219.04 226.72 219.04 239.52 163.56"/><path class="cls-4" d="M226.73,219.29H219.9a.25.25,0,0,1-.24-.3l11.64-52.43h-6.89a.25.25,0,0,1,0-.5h7.2a.22.22,0,0,1,.19.09.23.23,0,0,1,0,.21l-11.64,52.43h6.32l12.75-55.28a.25.25,0,1,1,.49.11L227,219.1A.26.26,0,0,1,226.73,219.29Z"/><polyline class="cls-3" points="433.08 162.66 449.22 162.66 443 155.88 224.2 155.88 221.25 162.66 221.25 165.41"/><path class="cls-4" d="M221.25,165.66a.25.25,0,0,1-.25-.25v-2.75a.44.44,0,0,1,0-.1l2.95-6.78a.25.25,0,0,1,.23-.15H443a.23.23,0,0,1,.18.08l6.23,6.79a.25.25,0,0,1,0,.26.24.24,0,0,1-.23.15H433.08a.25.25,0,0,1-.25-.25.25.25,0,0,1,.25-.25h15.57l-5.76-6.28H224.36l-2.86,6.59v2.69A.25.25,0,0,1,221.25,165.66Z"/><polyline class="cls-3" points="421 162.66 432.89 212.58 439.73 212.58 428.72 162.66"/><path class="cls-4" d="M439.73,212.83h-6.84a.26.26,0,0,1-.24-.19l-11.89-49.92a.25.25,0,1,1,.49-.11l11.84,49.72h6.33l-10.95-49.61a.25.25,0,0,1,.49-.11l11,49.92a.23.23,0,0,1-.05.21A.25.25,0,0,1,439.73,212.83Z"/><polygon class="cls-2" points="440.68 224.93 447.51 224.93 433.08 165.41 449.22 165.41 449.22 162.66 221.25 162.66 221.25 165.41 236.69 165.41 222.96 224.93 229.79 224.93 243.52 165.41 426.25 165.41 440.68 224.93"/><path class="cls-4" d="M447.51,225.18h-6.83a.26.26,0,0,1-.25-.19l-14.38-59.33H243.72L230,225a.25.25,0,0,1-.24.19H223a.26.26,0,0,1-.19-.1.22.22,0,0,1-.05-.21l13.66-59.21H221.25a.25.25,0,0,1-.25-.25v-2.75a.25.25,0,0,1,.25-.25h228a.25.25,0,0,1,.25.25v2.75a.25.25,0,0,1-.25.25H433.4l14.36,59.21a.26.26,0,0,1-.05.21A.26.26,0,0,1,447.51,225.18Zm-6.64-.5h6.33l-14.36-59.21a.25.25,0,0,1,.05-.22.22.22,0,0,1,.19-.09H449v-2.25H221.5v2.25h15.2a.25.25,0,0,1,.19.09.23.23,0,0,1,.05.21l-13.66,59.22h6.31l13.69-59.33a.24.24,0,0,1,.24-.19H426.25a.26.26,0,0,1,.24.19Z"/><path class="cls-11" d="M387.8,153.34c-1.32,2-.29,4.95-6.15,4.95-4.75,0-11.83-3.44-11.93-7.58s2.93-16.38,7.77-22.55"/><path class="cls-4" d="M381.65,158.54c-4.74,0-12.08-3.5-12.18-7.82s3.06-16.65,7.83-22.72a.24.24,0,0,1,.35,0,.26.26,0,0,1,0,.35c-5,6.34-7.8,18.66-7.72,22.39.09,4.06,7.13,7.34,11.68,7.34,4.19,0,4.69-1.53,5.21-3.15a7,7,0,0,1,.73-1.69.25.25,0,0,1,.35-.07.24.24,0,0,1,.07.34,6,6,0,0,0-.67,1.58C386.78,156.77,386.21,158.54,381.65,158.54Z"/><path class="cls-5" d="M381.79,135.56c0,3.41-.91,7.69-2.17,9.88"/><path class="cls-4" d="M379.62,145.69a.33.33,0,0,1-.13,0,.25.25,0,0,1-.09-.34c1.22-2.11,2.14-6.31,2.14-9.75a.25.25,0,0,1,.5,0c0,3.52-1,7.82-2.2,10A.27.27,0,0,1,379.62,145.69Z"/><path class="cls-3" d="M392.7,142.05h13.86a2,2,0,0,1,1.91.86,2.25,2.25,0,0,1,.3,1.28c-.41,4-.94,8.19-1.31,12.57-.16,1.92-.71,2.64-3.1,2.61-8.08-.09-16.14-.08-24.17-.11-1.47,0-2.09-.67-2.21-2.1-.25-2.92-.56-5.74-.84-8.5-.15-1.49-.31-2.95-.45-4.39s.69-2.21,2.23-2.22Z"/><path class="cls-4" d="M404.48,159.62h-.12c-5.8-.06-11.67-.08-17.34-.09l-6.83,0a2.19,2.19,0,0,1-2.46-2.33c-.18-2.17-.4-4.3-.62-6.37l-.22-2.12c-.07-.71-.14-1.42-.22-2.12s-.16-1.52-.23-2.28a2.18,2.18,0,0,1,.49-1.75,2.59,2.59,0,0,1,2-.74h27.65a2.22,2.22,0,0,1,2.11,1,2.44,2.44,0,0,1,.33,1.43c-.15,1.53-.32,3.08-.5,4.66-.28,2.56-.58,5.2-.8,7.91C407.54,158.7,407,159.62,404.48,159.62ZM385.33,142.3h-6.41a2.11,2.11,0,0,0-1.62.57,1.73,1.73,0,0,0-.37,1.37l.24,2.28c.07.7.15,1.4.22,2.12l.22,2.12c.21,2.07.44,4.2.62,6.38.12,1.34.67,1.87,2,1.87l6.83,0c5.68,0,11.55,0,17.34.09,2.25,0,2.69-.57,2.85-2.38.23-2.72.52-5.36.81-7.93.17-1.57.34-3.12.5-4.65a2,2,0,0,0-.27-1.12,1.74,1.74,0,0,0-1.68-.74H385.33Z"/><path class="cls-6" d="M231.61,107.35c-8.15.54-15,9.62-19.11,16.35-1.9,3.11-4.72,6.16-3.57,8.7-.41,1.22-1.64,2.2-1.64,3,3,5.34,16,9.21,20.43,7.59,0-4.87,3.68-10.64,4.59-12.47a38,38,0,0,1,5.93-7.23s4.91-2.41,6.4-2.41"/><path class="cls-4" d="M225.14,143.56c-5.64,0-15.43-3.39-18.07-8.07a.28.28,0,0,1,0-.13,2.91,2.91,0,0,1,.76-1.51,6.54,6.54,0,0,0,.86-1.44c-.87-2.11.7-4.44,2.36-6.9.43-.63.87-1.29,1.26-1.94,6.31-10.35,13-16,19.31-16.47a.25.25,0,0,1,.27.24.25.25,0,0,1-.24.26c-6.15.41-12.69,6-18.91,16.23-.4.66-.85,1.32-1.28,2-1.6,2.38-3.12,4.63-2.27,6.51a.25.25,0,0,1,0,.19,6.58,6.58,0,0,1-1,1.65,3.28,3.28,0,0,0-.66,1.16c3,5.18,15.63,8.83,19.93,7.47.07-4.09,2.6-8.71,4-11.21.27-.49.49-.89.64-1.19a39.1,39.1,0,0,1,6-7.3l.06,0c.21-.1,5-2.43,6.51-2.43a.25.25,0,0,1,0,.5c-1.35,0-5.82,2.16-6.25,2.37a38.2,38.2,0,0,0-5.86,7.13c-.15.3-.38.72-.65,1.21C230.51,134.3,228,139,228,143a.26.26,0,0,1-.17.24A8,8,0,0,1,225.14,143.56Z"/><path class="cls-6" d="M225.67,140.08c-3.07.32-10.75-2.86-11.87-4.45"/><path class="cls-4" d="M225.21,140.35c-3.35,0-10.46-2.94-11.61-4.58a.25.25,0,1,1,.41-.29c1,1.47,8.53,4.69,11.64,4.35a.24.24,0,0,1,.27.22.25.25,0,0,1-.22.28Z"/><polygon class="cls-6" points="288.16 153.91 251.44 150.8 236.08 155.14 273.45 158.63 288.16 153.91"/><path class="cls-4" d="M273.45,158.88h0l-37.38-3.49a.24.24,0,0,1-.22-.22.26.26,0,0,1,.18-.27l15.37-4.34h.09l36.71,3.11a.26.26,0,0,1,.23.22.26.26,0,0,1-.17.27l-14.71,4.72Zm-36-3.86,36,3.36,13.47-4.32-35.42-3Z"/><path class="cls-6" d="M262.82,149.7a12.55,12.55,0,0,0,3.05.64,8,8,0,0,1,1.55.18,1.08,1.08,0,0,1,.52.27.41.41,0,0,1,.05.52.87.87,0,0,1-.54.24l-4.21.53"/><path class="cls-4" d="M263.24,152.33a.24.24,0,0,1-.25-.22.25.25,0,0,1,.22-.28l4.21-.53c.1,0,.31-.05.38-.14a.18.18,0,0,0-.05-.2.86.86,0,0,0-.4-.2,5.51,5.51,0,0,0-1.17-.15l-.33,0a12,12,0,0,1-3.11-.65.24.24,0,0,1-.15-.32.25.25,0,0,1,.32-.15,11.46,11.46,0,0,0,3,.63l.32,0a6.06,6.06,0,0,1,1.27.17,1.3,1.3,0,0,1,.64.34.64.64,0,0,1,.07.84,1.1,1.1,0,0,1-.69.34l-4.23.53Z"/><path class="cls-6" d="M264.23,150.49c1.7,1.57,3.8,1.66,5.65,2a2.24,2.24,0,0,1,.83.25c.23.15.36.42.2.63s-.55.29-.88.31a15,15,0,0,1-4-.35"/><path class="cls-4" d="M269.33,153.92a15.28,15.28,0,0,1-3.32-.36.25.25,0,1,1,.11-.49,14.88,14.88,0,0,0,3.9.34c.47,0,.63-.12.69-.2a.13.13,0,0,0,0-.09.4.4,0,0,0-.16-.19,1.9,1.9,0,0,0-.73-.21l-.81-.13a8.7,8.7,0,0,1-5-1.92.25.25,0,0,1,.34-.37,8.15,8.15,0,0,0,4.7,1.79l.82.13a2.48,2.48,0,0,1,.92.29.84.84,0,0,1,.38.52.66.66,0,0,1-.1.47,1.41,1.41,0,0,1-1.08.41Z"/><path class="cls-6" d="M258,149c.81,2.49,5.31,3.53,5.71,3.94a23.32,23.32,0,0,0,3.15,2.6c.78.44,2.35,1.14,3.1.39s-1.48-1.13-2.15-1.68c-1.66-1.36-2.43-3.44-3.65-4.9s-3.37-2.42-5.08-4.09l-2.42,1.61Z"/><path class="cls-4" d="M269,156.48a5.2,5.2,0,0,1-2.3-.75,23.36,23.36,0,0,1-3.2-2.64,6.6,6.6,0,0,0-.88-.39c-1.48-.58-4.23-1.67-4.89-3.63l-1.32-2.1a.24.24,0,0,1,.08-.34l2.41-1.6a.24.24,0,0,1,.31,0,18.17,18.17,0,0,0,2.47,1.93,13.5,13.5,0,0,1,2.63,2.18,15,15,0,0,1,1.31,1.92,11.34,11.34,0,0,0,2.31,2.95,5.55,5.55,0,0,0,1,.5c.71.3,1.32.57,1.4,1a.6.6,0,0,1-.2.54A1.49,1.49,0,0,1,269,156.48Zm-12-9.57,1.21,1.92a.14.14,0,0,1,0,.06c.58,1.75,3.2,2.79,4.61,3.35a3.92,3.92,0,0,1,1.05.49,22.65,22.65,0,0,0,3.1,2.56c1,.57,2.25,1,2.79.43q.06-.06.06-.09c0-.18-.71-.47-1.11-.65a5.12,5.12,0,0,1-1.08-.56,11.8,11.8,0,0,1-2.41-3.08,15.76,15.76,0,0,0-1.27-1.85,12.69,12.69,0,0,0-2.54-2.1,20.58,20.58,0,0,1-2.38-1.84Z"/><path class="cls-6" d="M263.67,152.91a4.29,4.29,0,0,0-5.18.07c-1.17.83-3.5.88-3.5-.36,0-.49,1-.12,1.82-.6A2.4,2.4,0,0,0,258,149"/><path class="cls-4" d="M256.47,153.83a2.53,2.53,0,0,1-1.11-.23,1.08,1.08,0,0,1-.62-1c0-.48.49-.52.88-.55a2.29,2.29,0,0,0,1.06-.27,2.17,2.17,0,0,0,1.06-2.71.24.24,0,0,1,.1-.34.24.24,0,0,1,.34.1,2.72,2.72,0,0,1-2.52,3.71,1.64,1.64,0,0,0-.43.07.62.62,0,0,0,.36.53,3.18,3.18,0,0,0,2.75-.38,4.53,4.53,0,0,1,5.47-.08.26.26,0,0,1,.07.35.24.24,0,0,1-.34.07h0a4,4,0,0,0-4.91.07A4,4,0,0,1,256.47,153.83Z"/><path class="cls-6" d="M231.4,107.42a26.83,26.83,0,0,1,8.55,2.89,14.47,14.47,0,0,1,5.05,4.6c2.13,3.22,4.49,10,5.51,12.66,1.78,4.7,5.65,8.06,7.31,13.49.29.93-.26,1.86,1.57,3.93a3.8,3.8,0,0,1-3.32,2.12,5.52,5.52,0,0,0-2.37-2.48c-3.74-3-8.06-10.28-9.48-12.5-1.75-2.76-3.7-6.6-6-8.88a30.08,30.08,0,0,1,3.84-2.86"/><path class="cls-4" d="M256.07,147.36a.24.24,0,0,1-.22-.14,4.21,4.21,0,0,0-1.69-1.95,7.09,7.09,0,0,1-.61-.44c-3.37-2.67-7.16-8.75-9-11.67-.22-.35-.4-.66-.56-.9-.46-.73-.93-1.52-1.43-2.36a35.55,35.55,0,0,0-4.51-6.48.23.23,0,0,1-.08-.18.28.28,0,0,1,.09-.18,30.53,30.53,0,0,1,3.89-2.9.25.25,0,0,1,.33.12.24.24,0,0,1-.12.33,27.59,27.59,0,0,0-3.57,2.66,36.67,36.67,0,0,1,4.4,6.38c.5.83,1,1.62,1.42,2.35l.57.89c1.8,2.9,5.56,8.93,8.86,11.55a6.25,6.25,0,0,0,.58.41,4.59,4.59,0,0,1,1.78,2A3.59,3.59,0,0,0,259.1,145a4.8,4.8,0,0,1-1.42-3.2,2.57,2.57,0,0,0-.1-.7,27.83,27.83,0,0,0-4-7.54,30.29,30.29,0,0,1-3.34-5.94l-.45-1.22c-1.19-3.22-3.19-8.61-5-11.4a14.12,14.12,0,0,0-5-4.51,26,26,0,0,0-8.45-2.86.24.24,0,0,1-.21-.28.24.24,0,0,1,.28-.21,26.45,26.45,0,0,1,8.63,2.91,14.53,14.53,0,0,1,5.13,4.68c1.88,2.83,3.89,8.25,5.09,11.49.17.47.32.88.45,1.22a29.38,29.38,0,0,0,3.29,5.84,28.89,28.89,0,0,1,4,7.67,3.78,3.78,0,0,1,.12.82,4.34,4.34,0,0,0,1.4,3,.28.28,0,0,1,.05.25,4.05,4.05,0,0,1-3.55,2.29Z"/><path class="cls-6" d="M256.07,147.11l-1-1.43c1.08.41,3.28-1.52,3.28-2.13a7,7,0,0,0,1.1,1.35A4,4,0,0,1,256.07,147.11Z"/><path class="cls-4" d="M256.07,147.36a.26.26,0,0,1-.21-.11c-.23-.37-1-1.43-1-1.43a.24.24,0,0,1,0-.29.24.24,0,0,1,.28-.08,2.14,2.14,0,0,0,1.65-.54,3.35,3.35,0,0,0,1.29-1.36.26.26,0,0,1,.18-.24.25.25,0,0,1,.28.11,7.11,7.11,0,0,0,1.06,1.29.25.25,0,0,1,.07.27,4.2,4.2,0,0,1-3.62,2.38ZM255.6,146c.2.28.44.63.6.87a3.77,3.77,0,0,0,3-1.89,7.18,7.18,0,0,1-.76-.89,5.4,5.4,0,0,1-1.31,1.26A3.61,3.61,0,0,1,255.6,146Z"/><path class="cls-6" d="M241.56,105.68c-2.17,1.79-2.46,3.23-2.76,5.53-.56,4.14-3.17,6-5.52,1.72-1.66-3-2.25-4.71-2.15-4.71s2.24-.81,1.65-4.21L231.4,98.6l2.84-3.33Z"/><path class="cls-4" d="M236.07,115.61c-1,0-2.09-.9-3-2.56s-2.37-4.59-2.15-5a.25.25,0,0,1,.22-.13s2-.68,1.4-3.92l-1.37-5.39a.25.25,0,0,1,.05-.22l2.84-3.33a.22.22,0,0,1,.2-.09.21.21,0,0,1,.19.11l7.33,10.4a.26.26,0,0,1-.05.34c-2.1,1.74-2.37,3.1-2.67,5.37-.33,2.43-1.34,4.09-2.65,4.34A1.84,1.84,0,0,1,236.07,115.61Zm-4.66-7.22a28.22,28.22,0,0,0,2.09,4.42c.9,1.64,1.9,2.44,2.81,2.28,1.07-.2,1.95-1.74,2.24-3.92s.59-3.75,2.68-5.54l-7-9.95-2.54,3L233,104a4.34,4.34,0,0,1-.7,3.72A2.74,2.74,0,0,1,231.41,108.39Z"/><path class="cls-6" d="M237,114.21c1.55,0,1.89-3,1.89-3.68a3.22,3.22,0,0,1,.48,1.6c.41,3.91-3.25,5.47-6.27,1.66a11.83,11.83,0,0,1-2.47-6.29,4.54,4.54,0,0,1,1.94-.94C231.69,108.87,234.44,114.21,237,114.21Z"/><path class="cls-4" d="M236.74,116.22a5.12,5.12,0,0,1-3.84-2.28,12.1,12.1,0,0,1-2.52-6.44.26.26,0,0,1,.1-.2,4.59,4.59,0,0,1,2.09-1,.25.25,0,0,1,.2.1.24.24,0,0,1,0,.23c-.45,1.2.15,3.47,1.41,5.29.89,1.29,1.91,2,2.79,2,1.24,0,1.64-2.55,1.64-3.43a.25.25,0,0,1,.18-.24.24.24,0,0,1,.27.09,3.49,3.49,0,0,1,.53,1.73c.2,1.87-.51,3.38-1.84,3.92A2.79,2.79,0,0,1,236.74,116.22Zm-5.86-8.6a11.76,11.76,0,0,0,2.41,6c1.36,1.72,3,2.46,4.3,1.93,1.12-.45,1.71-1.76,1.54-3.4,0-.22,0-.42-.09-.59-.2,1.21-.75,2.89-2,2.89-1.05,0-2.22-.82-3.21-2.25s-1.89-3.79-1.57-5.34A5.46,5.46,0,0,0,230.88,107.62Z"/><path class="cls-6" d="M236.48,97.38l-1.2-2.93L242.56,92c1.78,2.75.62,3.64,1.07,4.38.78,1.28,2.44,1.29,2.64,2,.25.9-1,1.42-.79,2a2.1,2.1,0,0,0,.68,1A2.47,2.47,0,0,1,244,102.6c.82.83,1.54.05,2,.89a2.45,2.45,0,0,0-.06,2.34,11.18,11.18,0,0,1-8.46.44Z"/><path class="cls-4" d="M241.3,107.14a12.29,12.29,0,0,1-3.88-.63.25.25,0,0,1-.17-.21l-1-8.86-1.19-2.9a.23.23,0,0,1,0-.2.24.24,0,0,1,.15-.13l7.28-2.47a.24.24,0,0,1,.29.1,5,5,0,0,1,1,3.69c0,.35-.06.54,0,.7a3.31,3.31,0,0,0,1.59,1.19c.51.23,1,.44,1.08.87a1.59,1.59,0,0,1-.5,1.45c-.17.2-.33.4-.3.52a2,2,0,0,0,.61.87.25.25,0,0,1,.07.28,2.58,2.58,0,0,1-1.66,1.33,2.3,2.3,0,0,0,.45.05,1.06,1.06,0,0,1,1.06.58.26.26,0,0,1,0,.21l-.09.22a2.08,2.08,0,0,0,0,1.94.25.25,0,0,1-.11.31A10,10,0,0,1,241.3,107.14Zm-3.57-1.06a10.91,10.91,0,0,0,7.92-.37,2.41,2.41,0,0,1,.06-2.1l0-.1c-.15-.2-.31-.21-.59-.22a1.76,1.76,0,0,1-1.3-.52.27.27,0,0,1-.06-.27.26.26,0,0,1,.24-.15,2.31,2.31,0,0,0,1.81-1,2.3,2.3,0,0,1-.61-1c-.12-.38.14-.69.38-1s.5-.65.41-1-.41-.36-.81-.55a3.7,3.7,0,0,1-1.81-1.38,1.54,1.54,0,0,1-.11-1,4.35,4.35,0,0,0-.84-3.19l-6.85,2.32,1.1,2.68a.14.14,0,0,1,0,.07Z"/><path class="cls-6" d="M227.15,100.14c1.45,2.8,3.57,2.53,4.51,4.42a3.05,3.05,0,0,0,3.05-1.37c.94.83.57,1.88,2.18,3.22s6.75,1.84,8.46,1.36c1-.29,1.28-2.4.66-2.7s-.56.13-1,.44c-1.17.83-4.49-.65-5.71-1.61s-.84-1.86-1.41-4.22c-1-1.85-2.53-4-.16-4.5,1.93-.57,6.4-2.05,6.15-3.67s-1.9-2.93-4.19-3.77a11.76,11.76,0,0,0-10.57,1.75A8.49,8.49,0,0,0,227.15,100.14Zm4.95-1.61c-.08-1.4,1.89-1.65,3-.79s-1.22,2.34,1.77,2.78c0,0,.1,1.75-1.43,1.63A4.16,4.16,0,0,1,232.1,98.53Z"/><path class="cls-4" d="M243.35,108.21c-2.24,0-5.28-.48-6.62-1.6a4.8,4.8,0,0,1-1.51-2.13,3,3,0,0,0-.48-.9,3.28,3.28,0,0,1-3.15,1.22.24.24,0,0,1-.15-.13,4.06,4.06,0,0,0-1.74-1.62,6.57,6.57,0,0,1-2.77-2.79h0a8.73,8.73,0,0,1,2-11,12,12,0,0,1,10.82-1.79c2.44.89,4.1,2.41,4.34,4,.21,1.31-1.92,2.64-6.32,4-.54.11-.86.3-1,.58-.3.65.36,1.85.95,2.91l.35.65,0,.06a18.64,18.64,0,0,1,.34,1.86c.16,1.1.25,1.65,1,2.22,1.21,1,4.4,2.32,5.41,1.61l.28-.25a.74.74,0,0,1,1-.21c.34.17.51.67.45,1.33a2,2,0,0,1-1.16,1.83A8.63,8.63,0,0,1,243.35,108.21Zm-8.64-5.27a.27.27,0,0,1,.17.06,3.22,3.22,0,0,1,.81,1.29,4.26,4.26,0,0,0,1.36,1.93c1.71,1.43,6.63,1.76,8.23,1.31.45-.13.75-.8.8-1.39s-.08-.8-.18-.85-.21-.07-.41.13a2,2,0,0,1-.34.29c-1.35,1-4.87-.72-6-1.61a3.29,3.29,0,0,1-1.16-2.55c-.08-.5-.16-1.07-.33-1.78l-.34-.62c-.68-1.22-1.37-2.48-1-3.36a1.7,1.7,0,0,1,1.33-.85c3.87-1.16,6.1-2.43,6-3.39-.21-1.35-1.79-2.75-4-3.57a11.46,11.46,0,0,0-10.32,1.7,8.27,8.27,0,0,0-1.9,10.35h0a6,6,0,0,0,2.59,2.59,4.58,4.58,0,0,1,1.88,1.73,2.87,2.87,0,0,0,2.66-1.29.24.24,0,0,1,.17-.12Zm.9-.53h-.17a3.44,3.44,0,0,1-2.05-1,4.2,4.2,0,0,1-1.54-2.89h0a1.33,1.33,0,0,1,.74-1.32,2.68,2.68,0,0,1,2.69.32,1.31,1.31,0,0,1,.37,1.54c-.08.33-.11.54,0,.71a2,2,0,0,0,1.28.48.25.25,0,0,1,.22.23,2.18,2.18,0,0,1-.51,1.52A1.4,1.4,0,0,1,235.61,102.41Zm-.18-.51a1,1,0,0,0,.85-.23,1.45,1.45,0,0,0,.35-.94,2.06,2.06,0,0,1-1.4-.66,1.31,1.31,0,0,1-.06-1.11c.11-.47.16-.75-.2-1a2.17,2.17,0,0,0-2.15-.28.86.86,0,0,0-.47.85h0a3.73,3.73,0,0,0,1.37,2.54A3.13,3.13,0,0,0,235.43,101.9Z"/><path class="cls-6" d="M242.15,95.11A3,3,0,0,0,240,97"/><path class="cls-4" d="M240,97.21h-.07a.25.25,0,0,1-.17-.31,2.9,2.9,0,0,1,2-1.89l.28-.11a.25.25,0,0,1,.21.45l-.31.13a2.38,2.38,0,0,0-1.7,1.57A.25.25,0,0,1,240,97.21Z"/><path class="cls-6" d="M233.64,156.05a3.8,3.8,0,0,0,1.2,1.64c1.84,1.42,4.87,1.15,4.8,2.08-.12,1.71-3.38.47-5,1-1.39.5-.72,3-1.88,4-2,1.68-8.18-.19-8-2.27.22-1.88,5.88-3.32,5.85-5.32"/><path class="cls-4" d="M230.46,165.71a9.31,9.31,0,0,1-4.14-1c-1.19-.63-1.8-1.4-1.71-2.17.11-1,1.5-1.85,3-2.71s2.87-1.69,2.86-2.58a.25.25,0,0,1,.24-.25h0a.25.25,0,0,1,.25.24c0,1.19-1.57,2.12-3.11,3-1.3.77-2.65,1.56-2.74,2.34-.06.54.47,1.14,1.45,1.67,1.91,1,4.91,1.39,6.09.38a3.17,3.17,0,0,0,.73-1.87c.17-.92.34-1.88,1.23-2.19a6.67,6.67,0,0,1,2.36-.14c1.48.08,2.38.08,2.43-.68,0-.24-.76-.42-1.45-.58a8.44,8.44,0,0,1-3.26-1.28,4.12,4.12,0,0,1-1.28-1.78.25.25,0,0,1,.18-.3.23.23,0,0,1,.3.18A3.76,3.76,0,0,0,235,157.5a7.91,7.91,0,0,0,3.06,1.18c1.06.24,1.89.43,1.84,1.11-.09,1.3-1.61,1.22-2.95,1.14a6.32,6.32,0,0,0-2.18.11c-.61.22-.74,1-.89,1.81A3.51,3.51,0,0,1,233,165,3.87,3.87,0,0,1,230.46,165.71Z"/><path class="cls-6" d="M228.72,112c1.17.4,3.09,3.54,3.09,7,0,4.68,1,26.27,1.83,31.3.33,2.14-.86,2.6.33,5.39a3.87,3.87,0,0,1-3.7,1.44c-.82-3.17-1.51-3.12-2.19-4.32-4.13-7.31-4-20.08-4.89-26.61-.25-2-2-2.28-2.41-1.19"/><path class="cls-4" d="M231,157.48a3.2,3.2,0,0,1-.75-.09.24.24,0,0,1-.19-.18,7.32,7.32,0,0,0-1.54-3.38,6.32,6.32,0,0,1-.62-.88c-3.19-5.63-3.87-14.27-4.41-21.21-.16-2-.32-4-.51-5.49-.14-1-.69-1.53-1.19-1.59a.67.67,0,0,0-.74.46.26.26,0,0,1-.33.15.25.25,0,0,1-.14-.33,1.16,1.16,0,0,1,1.27-.77c.64.07,1.44.64,1.62,2,.2,1.54.35,3.47.51,5.51.55,6.89,1.22,15.47,4.35,21a6,6,0,0,0,.58.81,7.5,7.5,0,0,1,1.59,3.41,3.6,3.6,0,0,0,3.21-1.27,5.2,5.2,0,0,1-.37-3.39,5.1,5.1,0,0,0,.08-1.91c-.82-5.18-1.83-26.79-1.83-31.34,0-3.41-1.89-6.45-2.92-6.79a.25.25,0,0,1,.16-.48c1.31.45,3.26,3.69,3.26,7.27,0,4.54,1,26.1,1.82,31.26a5.76,5.76,0,0,1-.07,2.08,4.75,4.75,0,0,0,.39,3.26.25.25,0,0,1,0,.26A4.38,4.38,0,0,1,231,157.48Z"/><path class="cls-6" d="M233.93,155.65a10.1,10.1,0,0,1-.48-1.81,4.28,4.28,0,0,1-3.74,1.5,9.36,9.36,0,0,0,.56,1.81,3.48,3.48,0,0,0,3.66-1.5"/><path class="cls-4" d="M231,157.47a3.1,3.1,0,0,1-.74-.08.24.24,0,0,1-.17-.14,9.45,9.45,0,0,1-.57-1.86.24.24,0,0,1,.29-.29,4,4,0,0,0,3.48-1.4.23.23,0,0,1,.26-.1.23.23,0,0,1,.19.2,8.81,8.81,0,0,0,.48,1.76.26.26,0,0,1,0,.21A3.57,3.57,0,0,1,231,157.47Zm-.5-.54a3.29,3.29,0,0,0,3.21-1.3,9.12,9.12,0,0,1-.36-1.25,4.72,4.72,0,0,1-3.27,1.26A8.79,8.79,0,0,0,230.45,156.93Z"/><polygon class="cls-6" points="362.43 159.61 327.8 156.72 311.49 159.64 346.79 162.79 362.43 159.61"/><path class="cls-4" d="M346.78,163h0l-35.29-3.15a.26.26,0,0,1-.23-.24.26.26,0,0,1,.21-.26l16.3-2.91h.07l34.63,2.89a.25.25,0,0,1,.23.24.26.26,0,0,1-.2.26L346.83,163Zm-33.4-3.49,33.39,3,13.89-2.82L327.81,157Z"/><polygon class="cls-6" points="334.71 160.61 306.08 157.93 285 161.6 313.7 164.48 334.71 160.61"/><path class="cls-4" d="M313.7,164.73h0L285,161.85a.27.27,0,0,1-.23-.24.26.26,0,0,1,.21-.26L306,157.68s0,0,.07,0l28.62,2.68a.27.27,0,0,1,.23.24.25.25,0,0,1-.21.26l-21,3.86Zm-26.86-3.2,26.85,2.7,19.2-3.54-26.8-2.51Z"/><path class="cls-6" d="M313.87,152.84a6.42,6.42,0,0,1-4.13,5.66c-1.11.34-2.19.36-2.19,1.15,0,.53,1.1,1,2.31.74,1.92-.42,2.21-1.21,2.86-1.42.89-.29,1.43,1.07,2.13,2a5.9,5.9,0,0,0,4,2.55c3.17.06,3.72-1.61,2.83-2.81-.65-.87-1.71-1.13-2.85-1.91-2.12-1.46-2.56-3.78-2.07-4.87"/><path class="cls-4" d="M319,163.82h-.15a6.2,6.2,0,0,1-4.17-2.65c-.17-.23-.32-.48-.47-.72-.55-.87-.92-1.38-1.38-1.23a2,2,0,0,0-.55.34,5.1,5.1,0,0,1-2.34,1.08,2.79,2.79,0,0,1-2.27-.37.78.78,0,0,1-.34-.61c0-.8.79-1,1.62-1.19.24-.06.5-.12.75-.2a6.16,6.16,0,0,0,3.95-5.42.25.25,0,0,1,.25-.25h0a.25.25,0,0,1,.25.25,6.72,6.72,0,0,1-4.3,5.9L309,159c-.88.21-1.24.33-1.24.7a.39.39,0,0,0,.15.23,2.44,2.44,0,0,0,1.86.26,4.72,4.72,0,0,0,2.14-1,2.4,2.4,0,0,1,.69-.43c.87-.29,1.43.6,2,1.44.15.24.3.48.45.69a5.69,5.69,0,0,0,3.78,2.45c1.49,0,2.49-.34,2.83-1a1.32,1.32,0,0,0-.21-1.41,4.49,4.49,0,0,0-1.57-1.14,12,12,0,0,1-1.22-.72c-2.23-1.53-2.69-4-2.15-5.17a.24.24,0,0,1,.33-.13.25.25,0,0,1,.12.33c-.45,1,0,3.2,2,4.56a11.55,11.55,0,0,0,1.18.69,4.83,4.83,0,0,1,1.73,1.28,1.84,1.84,0,0,1,.26,1.94C321.86,163,321.13,163.82,319,163.82Z"/><path class="cls-6" d="M312.84,117.13c.74,8.71,3,15.15,1.46,21.53-.56,2.25-1.54,14.1-1.11,15.6a4.89,4.89,0,0,1,3.92.88c7.38-11.6,5.73-33.06,5.73-43"/><path class="cls-4" d="M317.11,155.39a.25.25,0,0,1-.18-.08,4.75,4.75,0,0,0-3.65-.81.23.23,0,0,1-.2,0,.24.24,0,0,1-.13-.15c-.46-1.62.56-13.54,1.11-15.74,1-4.2.37-8.47-.41-13.41-.4-2.52-.81-5.13-1.06-8a.26.26,0,0,1,.23-.27.24.24,0,0,1,.27.23c.25,2.88.66,5.48,1.05,8,.79,5,1.47,9.31.4,13.62-.55,2.22-1.43,13-1.15,15.23a5.54,5.54,0,0,1,3.66.81c6.16-9.95,5.83-26.73,5.61-37.85,0-1.73-.07-3.37-.07-4.74a.25.25,0,0,1,.5,0c0,1.37,0,3,.07,4.73.22,11.28.56,28.32-5.84,38.37a.25.25,0,0,1-.19.12Z"/><polygon class="cls-6" points="297 147.07 278.17 136.92 266.45 141.91 286.78 152.08 297 147.07"/><path class="cls-4" d="M286.78,152.33l-.12,0-20.32-10.17a.24.24,0,0,1-.14-.23.27.27,0,0,1,.16-.22l11.71-5a.28.28,0,0,1,.22,0l18.82,10.15a.24.24,0,0,1,.14.22.27.27,0,0,1-.14.22l-10.22,5Zm-19.73-10.4,19.73,9.87,9.67-4.74-18.29-9.86Z"/><path class="cls-6" d="M289.79,139.4a8.74,8.74,0,0,1-5.94,2.37,1.81,1.81,0,0,0-.57,0,.46.46,0,0,0-.32.43c0,.26.3.39.55.46a8.71,8.71,0,0,0,4.12-.19"/><path class="cls-4" d="M285.05,143.13a6.07,6.07,0,0,1-1.6-.18c-.62-.16-.73-.5-.74-.69a.7.7,0,0,1,.48-.67,1.66,1.66,0,0,1,.61-.07h.07a8.46,8.46,0,0,0,5.73-2.29.26.26,0,0,1,.36,0,.25.25,0,0,1,0,.35,9.18,9.18,0,0,1-6.13,2.45,1.08,1.08,0,0,0-.47,0c-.09,0-.17.11-.17.17s.16.18.38.24a8.42,8.42,0,0,0,4-.19.25.25,0,0,1,.31.16.23.23,0,0,1-.16.31A8.84,8.84,0,0,1,285.05,143.13Z"/><path class="cls-4" d="M384.24,107.66c2.37-1.79,4.92-4.29,8.26-1.86,4.1,3-1.65,9.27.06,14,.25.53-5,2.29-8-.64C382.11,116.72,381.81,109.47,384.24,107.66Z"/><path class="cls-4" d="M389,121.12a6.37,6.37,0,0,1-4.61-1.74c-1.68-1.67-2.25-5.1-2.07-7.58.15-2.07.76-3.61,1.74-4.34l.68-.53c2.21-1.7,4.7-3.64,7.88-1.33,2.43,1.76,1.62,4.56.76,7.52-.66,2.27-1.34,4.61-.61,6.65,0,.09.08.31-.26.55A7.15,7.15,0,0,1,389,121.12Zm.69-16.07c-1.7,0-3.19,1.15-4.64,2.28-.24.18-.47.35-.69.53h0c-.85.63-1.41,2.08-1.54,4-.21,2.85.6,5.87,1.92,7.19a6.35,6.35,0,0,0,5.16,1.53,5.24,5.24,0,0,0,2.37-.69c-.74-2.19,0-4.58.63-6.89.84-2.91,1.57-5.42-.58-7A4.43,4.43,0,0,0,389.72,105.05Zm2.61,14.88a0,0,0,0,0,0,0A0,0,0,0,1,392.33,119.93Zm-8.09-12.27Z"/><path class="cls-5" d="M386.2,107.32c-.47,2.18.63,3.16.35,4.77a6.34,6.34,0,0,0,0,2.72c1.08,5,3.29,8,5.3,7.72A11.83,11.83,0,0,0,399,117.4c2.32-4.16,2.73-4.74,3.34-7.11.78-3,.45-6.05-4.34-8.84C394,99.12,387.81,99.8,386.2,107.32Z"/><path class="cls-4" d="M391.56,122.8c-2.15,0-4.24-3.12-5.27-7.93a6.64,6.64,0,0,1,0-2.72l0-.11a4.13,4.13,0,0,0-.18-1.85,5.77,5.77,0,0,1-.16-2.92h0c.88-4.15,3.06-5.9,4.73-6.64a8.28,8.28,0,0,1,7.45.6c5.26,3.07,5.15,6.49,4.47,9.12-.56,2.15-1,2.89-2.71,6l-.66,1.19a12,12,0,0,1-7.38,5.26Zm2.14-22.28a7,7,0,0,0-2.81.57c-2.24,1-3.78,3.16-4.45,6.29h0a5.29,5.29,0,0,0,.16,2.69,4.66,4.66,0,0,1,.2,2.06l0,.11a5.83,5.83,0,0,0,0,2.52c1,4.63,3.09,7.8,5,7.53a11.67,11.67,0,0,0,7-5l.67-1.19c1.74-3.12,2.11-3.77,2.65-5.86.68-2.62.71-5.68-4.23-8.56A8.37,8.37,0,0,0,393.7,100.52Zm-7.5,6.8h0Z"/><path class="cls-4" d="M384.42,105.83c.42-4.58,4.7-7.78,10-7.62,2.77.08,8.8,2.05,8.41,7.07,3.17,1.32,4.52,7.18,2.25,12.18-2.05,4.51-7.16,4.06-7.92-.23-.58-3.26,1.42-5.69.3-7.47C392.19,110.8,384,111,384.42,105.83Z"/><path class="cls-4" d="M400.8,120.9a3.91,3.91,0,0,1-.49,0,4.1,4.1,0,0,1-3.44-3.6,10.26,10.26,0,0,1,.33-4.26,4.42,4.42,0,0,0,.09-3c-4.3.84-9.65,1-12-1.11a3.6,3.6,0,0,1-1.15-3.13h0c.42-4.63,4.82-8,10.22-7.84a11.07,11.07,0,0,1,7.21,3.12,5.45,5.45,0,0,1,1.45,4,5.63,5.63,0,0,1,2.67,3.16,12.33,12.33,0,0,1-.45,9.27A5.15,5.15,0,0,1,400.8,120.9Zm-3.38-11.39a.27.27,0,0,1,.21.12c.63,1,.37,2.16.06,3.49a9.71,9.71,0,0,0-.32,4.06,3.58,3.58,0,0,0,3,3.19c1.75.23,3.51-1,4.44-3a11.81,11.81,0,0,0,.44-8.88,5.06,5.06,0,0,0-2.55-3,.25.25,0,0,1-.16-.25,5,5,0,0,0-1.31-3.84,10.52,10.52,0,0,0-6.85-3c-5.14-.17-9.31,3-9.71,7.39a3,3,0,0,0,1,2.7c2.21,2,7.69,1.77,11.71,1Z"/><path class="cls-4" d="M391.16,120.34a1.05,1.05,0,0,1-.6-.2.25.25,0,0,1,.29-.41.51.51,0,0,0,.58,0,2.22,2.22,0,0,0,.79-.92,2.66,2.66,0,0,1-2.37-.32.25.25,0,0,1,0-.35.24.24,0,0,1,.35,0,2.15,2.15,0,0,0,2.31,0,.25.25,0,0,1,.26,0,.24.24,0,0,1,.15.22,2.8,2.8,0,0,1-1.21,1.87A1.1,1.1,0,0,1,391.16,120.34Z"/><path class="cls-4" d="M396.05,112.68a.22.22,0,0,1-.11,0,4.25,4.25,0,0,0-2.79-.39.25.25,0,0,1-.31-.17.25.25,0,0,1,.16-.31,4.69,4.69,0,0,1,3.16.42.25.25,0,0,1-.11.47Z"/><path class="cls-4" d="M390.79,117h0c-.15,0-1.91-.33-1.93-1.16a3.64,3.64,0,0,1,.57-1.44A3.94,3.94,0,0,0,390,113c-.13-1.2-1.92-1.46-2.6-1.46a.25.25,0,0,1,0-.5c1,0,2.94.4,3.1,1.91a3.65,3.65,0,0,1-.64,1.7,3.81,3.81,0,0,0-.51,1.19c0,.29,1.16.67,1.44.67a.26.26,0,0,1,.25.26A.25.25,0,0,1,390.79,117Z"/><g class="cls-13"><path class="cls-14" d="M196.16,62.75c0-6.87-8.62-12.44-19.25-12.44s-19.25,5.57-19.25,12.44,8.62,12.44,19.25,12.44a27.87,27.87,0,0,0,8.84-1.39l21.54,9.76-15.8-12.69C194.4,68.69,196.16,65.86,196.16,62.75Z"/></g><path class="cls-4" d="M204.29,54.63c0-6.87-8.62-12.44-19.25-12.44s-19.25,5.57-19.25,12.44S174.41,67.07,185,67.07a27.8,27.8,0,0,0,8.83-1.39l21.54,9.76L199.62,62.75C202.52,60.57,204.29,57.73,204.29,54.63Z"/><path class="cls-4" d="M215.41,75.69a.19.19,0,0,1-.1,0L193.86,66A28,28,0,0,1,185,67.32c-10.75,0-19.5-5.69-19.5-12.69s8.75-12.69,19.5-12.69,19.5,5.69,19.5,12.69c0,3-1.6,5.85-4.52,8.12l15.55,12.49a.26.26,0,0,1,.06.33A.27.27,0,0,1,215.41,75.69ZM193.87,65.43l.11,0,19.73,8.94L199.46,62.94a.25.25,0,0,1-.09-.2.24.24,0,0,1,.1-.19c2.94-2.21,4.57-5,4.57-7.92,0-6.72-8.53-12.19-19-12.19s-19,5.47-19,12.19,8.52,12.19,19,12.19a27.28,27.28,0,0,0,8.75-1.38Z"/><path class="cls-15" d="M255,37c14.82,0,26.82,7.8,26.82,17.41a12.81,12.81,0,0,1-3.05,8.07l11.6,16.12L271.09,67.89c-3.59,2.26-9.18,4-16.12,4-14.81,0-26.81-7.8-26.81-17.42S240.16,37,255,37Z"/><path class="cls-4" d="M262.12,31.79c14.81,0,26.82,7.8,26.82,17.41a12.76,12.76,0,0,1-3.06,8.07l11.61,16.12L278.23,62.66c-3.59,2.26-9.17,4-16.11,4-14.81,0-26.82-7.8-26.82-17.42S247.31,31.79,262.12,31.79Z"/><path class="cls-4" d="M297.49,73.64a.27.27,0,0,1-.12,0L278.24,63c-4.08,2.53-9.8,3.92-16.12,3.92-14.93,0-27.07-7.93-27.07-17.67s12.14-17.66,27.07-17.66,27.07,7.93,27.07,17.66a13.11,13.11,0,0,1-3,8.08l11.49,16a.24.24,0,0,1,0,.31A.23.23,0,0,1,297.49,73.64ZM278.23,62.41a.28.28,0,0,1,.13,0l18.27,10.19L285.68,57.42a.25.25,0,0,1,0-.31,12.42,12.42,0,0,0,3-7.91c0-9.46-11.92-17.16-26.57-17.16s-26.57,7.7-26.57,17.16,11.92,17.17,26.57,17.17c6.2,0,12-1.43,16-3.92A.33.33,0,0,1,278.23,62.41Z"/><g class="cls-13"><path class="cls-14" d="M185.52,117.56c0,6.87-8.62,12.44-19.25,12.44S147,124.43,147,117.56s8.62-12.44,19.25-12.44a28.15,28.15,0,0,1,8.84,1.39l31.21-3.08-25.47,6C183.76,111.62,185.52,114.46,185.52,117.56Z"/></g><path class="cls-4" d="M190.55,110.22c0,6.87-8.62,12.44-19.25,12.44s-19.25-5.57-19.25-12.44,8.62-12.44,19.25-12.44a27.87,27.87,0,0,1,8.84,1.39l31.21-3.08-25.47,6C188.79,104.28,190.55,107.12,190.55,110.22Z"/><path class="cls-4" d="M171.3,122.91c-10.75,0-19.5-5.69-19.5-12.69s8.75-12.69,19.5-12.69a28.07,28.07,0,0,1,8.87,1.39l31.16-3.08a.26.26,0,0,1,.27.21.25.25,0,0,1-.19.28l-25,5.9c2.81,2.25,4.35,5.07,4.35,8C190.8,117.22,182.05,122.91,171.3,122.91Zm0-24.88c-10.47,0-19,5.47-19,12.19s8.53,12.19,19,12.19,19-5.47,19-12.19c0-2.9-1.62-5.71-4.57-7.92a.25.25,0,0,1-.09-.25.25.25,0,0,1,.19-.19l21.82-5.15-27.49,2.71h-.1A27.39,27.39,0,0,0,171.3,98Z"/><path class="cls-4" d="M505.12,267.41H126.88a.26.26,0,0,1-.25-.25V244a.25.25,0,0,1,.25-.25.25.25,0,0,1,.25.25v22.92h378a.25.25,0,0,1,.25.25A.26.26,0,0,1,505.12,267.41Z"/><g class="cls-16"><polygon class="cls-5" points="126.88 0.1 126.88 243.99 355.57 243.99 355.55 54.81 464.57 54.81 464.57 243.99 505.12 243.99 505.12 0.1 126.88 0.1"/></g><polygon class="cls-3" points="435.05 66.79 457.1 57.16 457.15 239.16 435.11 224.74 435.05 66.79"/><path class="cls-4" d="M457.15,239.41a.23.23,0,0,1-.14,0l-22-14.43a.23.23,0,0,1-.11-.2L434.8,66.79a.25.25,0,0,1,.15-.23L457,56.93a.21.21,0,0,1,.23,0,.24.24,0,0,1,.12.21l0,182a.26.26,0,0,1-.13.22A.27.27,0,0,1,457.15,239.41ZM435.36,224.6l21.54,14.1,0-181.16L435.3,67Z"/><rect class="cls-4" x="457.1" y="57.16" width="4.06" height="182"/><path class="cls-4" d="M461.16,239.41H457.1a.25.25,0,0,1-.25-.25v-182a.25.25,0,0,1,.25-.25h4.06a.25.25,0,0,1,.25.25v182A.25.25,0,0,1,461.16,239.41Zm-3.81-.5h3.56V57.41h-3.56Z"/><polygon class="cls-7" points="461.16 56.09 461.16 241.76 464.57 243.99 464.57 54.64 461.16 56.09"/><path class="cls-4" d="M464.57,244.24a.33.33,0,0,1-.14,0L461,242a.26.26,0,0,1-.11-.21V56.09a.23.23,0,0,1,.15-.23l3.41-1.45a.26.26,0,0,1,.23,0,.27.27,0,0,1,.12.21V244a.27.27,0,0,1-.14.22A.2.2,0,0,1,464.57,244.24Zm-3.16-2.62,2.91,1.9V55l-2.91,1.23Z"/><path class="cls-4" d="M505.12,267.41a.25.25,0,0,1-.25-.25V244.27h-40.3a.25.25,0,0,1-.25-.25V55.18H355.8l0,188.84a.26.26,0,0,1-.07.18.29.29,0,0,1-.18.07H126.88a.25.25,0,0,1-.25-.25V.25a.25.25,0,0,1,.25-.25H505.12a.25.25,0,0,1,.25.25V267.16A.26.26,0,0,1,505.12,267.41Zm-40.3-23.64h40.05V.5H127.13V243.77H355.32l0-188.84a.26.26,0,0,1,.07-.17.25.25,0,0,1,.18-.08h109a.25.25,0,0,1,.25.25Z"/><polygon class="cls-4" points="355.55 54.64 464.57 54.64 461.16 56.09 355.55 56.09 355.55 54.64"/><path class="cls-4" d="M461.16,56.34H355.55a.25.25,0,0,1-.25-.25V54.64a.25.25,0,0,1,.25-.25h109a.25.25,0,0,1,.24.2.26.26,0,0,1-.15.28l-3.4,1.45Zm-105.36-.5H461.11l2.23-1H355.8Z"/><ellipse class="cls-4" cx="438.02" cy="156.99" rx="1.18" ry="2.7"/><path class="cls-4" d="M438,159.93c-.82,0-1.43-1.26-1.43-2.94s.61-3,1.43-3,1.43,1.27,1.43,3S438.83,159.93,438,159.93Zm0-5.39c-.44,0-.93,1-.93,2.45s.49,2.44.93,2.44.93-1,.93-2.44S438.46,154.54,438,154.54Z"/><g class="cls-17"><path class="cls-14" d="M457.85,37.27c18.66,3.25,33.25,15.42,33.25,28.28s-14.59,21.83-33.25,21Z"/></g><g class="cls-17"><path class="cls-14" d="M457.85,86.54a29.1,29.1,0,0,1-9.69,5.11l-9.19,16a.6.6,0,0,1-1.11-.45l4-15.54c-3.19-1.09-5.12-4.18-5.12-9.17,0-11.05,9.45-27.16,21.1-36Z"/></g><path class="cls-2" d="M410.29,53.41c0-13.67,16.64-24.75,37.17-24.75s37.16,11.08,37.16,24.75S468,78.16,447.46,78.16A52.6,52.6,0,0,1,430.4,75.4L410.29,89.34l9-19.78C413.69,65.22,410.29,59.58,410.29,53.41Z"/><path class="cls-6" d="M447.15,28.66c-20.45.05-36.72,11.16-36.86,24.75-.06,6.3,3.32,11.83,9,16.15l-9,19.78L430.4,75.4a51,51,0,0,0,16.75,2.76c20.53,0,37.47-11,37.47-24.75S467.68,28.6,447.15,28.66Zm5,16.57h3.08a1.13,1.13,0,0,1,0,2.26h-3.08a1.13,1.13,0,1,1,0-2.26Zm-10.66,0a1.13,1.13,0,1,1-1.13,1.13A1.13,1.13,0,0,1,441.51,45.23ZM436,40.65H439a1.13,1.13,0,0,1,0,2.26H436a1.13,1.13,0,1,1,0-2.26Zm1.33,5.71a1.13,1.13,0,1,1-1.13-1.13A1.13,1.13,0,0,1,437.3,46.36Zm-3.79,8.34a1.13,1.13,0,1,1-1.13,1.13A1.14,1.14,0,0,1,433.51,54.7ZM428,40.65h3.08a1.13,1.13,0,0,1,0,2.26H428a1.13,1.13,0,1,1,0-2.26Zm-2.67,4.58h5.75a1.13,1.13,0,0,1,0,2.26H425.3a1.13,1.13,0,0,1,0-2.26Zm4,5.81a1.13,1.13,0,1,1-1.12-1.13A1.13,1.13,0,0,1,429.3,51Zm-6.46-1.13A1.13,1.13,0,1,1,421.72,51,1.13,1.13,0,0,1,422.84,49.91Zm-5.53-4.68h3.07a1.13,1.13,0,0,1,0,2.26h-3.07a1.13,1.13,0,1,1,0-2.26Zm1.33,10.6a1.13,1.13,0,0,1-2.26,0,1.13,1.13,0,1,1,2.26,0Zm6.87,10.49a1.13,1.13,0,1,1,1.13-1.13A1.13,1.13,0,0,1,425.51,66.32Zm0-4.68a1.13,1.13,0,1,1,1.13-1.13A1.14,1.14,0,0,1,425.51,61.64ZM428.38,57h-5.74a1.13,1.13,0,1,1,0-2.25h5.74a1.13,1.13,0,1,1,0,2.25Zm5.33,9.37h-3.07a1.13,1.13,0,1,1,0-2.25h3.07a1.13,1.13,0,1,1,0,2.25Zm0-4.68h-3.07a1.13,1.13,0,1,1,0-2.26h3.07a1.13,1.13,0,0,1,0,2.26Zm3.39-9.47H436a1.13,1.13,0,1,1,0-2.26H439a1.13,1.13,0,0,1,0,2.26H437.1ZM440,55.83a1.13,1.13,0,1,1-1.13-1.13A1.13,1.13,0,0,1,440,55.83Zm1.74,5.81h-3.08a1.13,1.13,0,0,1,0-2.26h3.08a1.13,1.13,0,0,1,0,2.26Zm2.46,4.68a1.13,1.13,0,1,1,1.13-1.13A1.13,1.13,0,0,1,444.17,66.32Zm0-9.37a1.13,1.13,0,1,1,1.13-1.12A1.13,1.13,0,0,1,444.17,57Zm1.18-14H444a1.13,1.13,0,1,1,0-2.26h5.74a1.13,1.13,0,0,1,0,2.26h-4.36Zm2.41,9.26h-1.13a1.13,1.13,0,1,1,0-2.26h3.08a1.13,1.13,0,0,1,0,2.26h-1.95Zm2.87,3.66a1.13,1.13,0,1,1-1.13-1.13A1.12,1.12,0,0,1,450.63,55.83ZM449.5,66.32a1.13,1.13,0,1,1,1.13-1.13A1.12,1.12,0,0,1,449.5,66.32Zm2.87-4.68H449.3a1.13,1.13,0,1,1,0-2.26h3.07a1.13,1.13,0,0,1,0,2.26Zm2.47,4.68A1.13,1.13,0,1,1,456,65.19,1.12,1.12,0,0,1,454.84,66.32Zm5.33,0a1.13,1.13,0,1,1,1.12-1.13A1.12,1.12,0,0,1,460.17,66.32Zm.2-4.68H457.3a1.13,1.13,0,1,1,0-2.26h3.07a1.13,1.13,0,0,1,0,2.26Zm0-4.69h-5.74a1.13,1.13,0,1,1,0-2.25h5.74a1.13,1.13,0,1,1,0,2.25Zm0-4.78H457.3a1.13,1.13,0,1,1,0-2.26h3.07a1.13,1.13,0,0,1,0,2.26Zm.32-5.76a1.14,1.14,0,0,1,1.13-1.13h3.08a1.13,1.13,0,0,1,0,2.26h-3.08A1.14,1.14,0,0,1,460.69,46.41Zm2.67,19.91a1.13,1.13,0,1,1,1.13-1.13A1.13,1.13,0,0,1,463.36,66.32ZM466,61.54a1.13,1.13,0,1,1,1.12-1.13A1.13,1.13,0,0,1,466,61.54Zm1.74-4.69h-4.62a1.13,1.13,0,0,1,0-2.25h5.75a1.13,1.13,0,0,1,0,2.25h-1.13Zm5.13,9.47h-3.08a1.13,1.13,0,1,1,0-2.25h3.08a1.13,1.13,0,0,1,0,2.25Zm0-4.78A1.13,1.13,0,1,1,474,60.41,1.13,1.13,0,0,1,472.9,61.54Zm0-4.59A1.13,1.13,0,1,1,474,55.83,1.12,1.12,0,0,1,472.9,57Zm0-4.58A1.13,1.13,0,1,1,474,51.25,1.12,1.12,0,0,1,472.9,52.37Zm0-4.83h-3.08a1.13,1.13,0,1,1,0-2.26h3.08a1.13,1.13,0,0,1,0,2.26Zm0-4.63H461.82a1.13,1.13,0,1,1,0-2.26H472.9a1.13,1.13,0,0,1,0,2.26ZM479,57a1.13,1.13,0,1,1,1.12-1.12A1.12,1.12,0,0,1,479,57Z"/><path class="cls-4" d="M410.29,89.59a.27.27,0,0,1-.16-.06.26.26,0,0,1-.06-.3L419,69.63c-5.78-4.52-9-10.27-9-16.22,0-13.79,16.79-25,37.42-25s37.41,11.21,37.41,25-16.78,25-37.41,25a52.35,52.35,0,0,1-17-2.74l-20,13.87A.3.3,0,0,1,410.29,89.59Zm37.17-60.68c-20.36,0-36.92,11-36.92,24.5,0,5.84,3.17,11.51,8.92,16a.27.27,0,0,1,.08.3l-8.64,19,19.36-13.42a.22.22,0,0,1,.22,0,52.06,52.06,0,0,0,17,2.75c20.35,0,36.91-11,36.91-24.5S467.81,28.91,447.46,28.91Z"/><path class="cls-2" d="M21.29,266.63a.52.52,0,0,0-.2-.13,24.67,24.67,0,0,0-3.18-1.33h0c.09-.07.1-.16,0-.29-.8-1.07-7-2.53-12.77-2.55-4.69,0-6.62.92-3.69,3.12,1.75,1.32,6.39,3,9.38,3.71,1.31.32,3,.91,4.39,1.39a9.18,9.18,0,0,0,1.33.1,11.89,11.89,0,0,1,1.52.78c-.53-.06-1-.11-1.42-.14.23.16,1.05.56,1.58.87-.36,0-.72,0-1,0a7.26,7.26,0,0,1,2.28,1.4c.27.3,1.63,2.2,6.81,5.35L4.55,282.21c-1.66.26-1,1.27,1.42,2.26l31.38,12.7a17.6,17.6,0,0,0,7.43,1.33l13.94-2.15c5,2.85,10.88,5.69,11.69,6.34,1.23,1,5.75,7.73,10.67,10.93a5.32,5.32,0,0,0,.71.26c.06.24-.08.41-.3.56l-.3-.12c-1.24.11-1.56.61-1.23,1,1.61.85,9,2.78,12.67,3.6,2,.46,5.22-.08,4.4-.52-1.1-.59-1.63-.24-2.82-.47a24.89,24.89,0,0,1-4.66-1.64,2.8,2.8,0,0,1-.29,0A6.85,6.85,0,0,1,87,314.9l.5,0c2.34-.56-.54-8.11-.91-9.52-.21-.8-2.88-2.92-5.58-5,4.5,1.12,8.38,2.08,10.65,2.66,4.66,1.19,20.86,8.78,34.84,13l.66,0a12.92,12.92,0,0,1,2.87,1.36l-.43-.06a17.24,17.24,0,0,0,4.22,2A66.65,66.65,0,0,0,143,320c2.51-.3,2.38-.55,2.36-.84s-1.27-.77-3.18-.77-3.53-.87-7.58-1.44c0,0,0,.07,0,.11a25.78,25.78,0,0,1-4-1.13c.3-.13.26-.26.26-.26-6-3-21.4-10.78-27-13-7-2.77-15.54-5.87-25.55-9.09l-.35-.19,24.81-3.81c1.66-.26,1-1.27-1.42-2.26L70,274.62a17.57,17.57,0,0,0-7.43-1.33L54.7,274.5l-.07,0c-2.59-.63-4.47-.52-5.39-.14h0a4.64,4.64,0,0,0-2.11,0c-3.88-.05-4.92,1.28-5.17,2.1l-2.38.37-3.72-1.45-.24,0a3.62,3.62,0,0,1-.9-.17,7,7,0,0,1-.8-.32,11.66,11.66,0,0,1-1.61-.88v0c-.32,0-.67,0-1-.08-.34-.23-1.25-.82-1.22-.82-.52,0-1.16,0-1.87-.11a8.41,8.41,0,0,1-2.91-1.77c-.51-.68,2.55-.57,2.74-.86.44-.67-2.81-2.16-6.64-3.36-.13-.12,0-.2-.07-.32"/><path class="cls-18" d="M116.05,207.22c-.92,1.67-.72,4.45,0,5.22-2.86,1.43-8.71-2.84-8.71-2.84,1.09-1.59.8-4.32-.07-5.2-1.54-1.55-.73-6.09,2-8s9.38,3.67,9.38,6.86C118.68,204.27,116.57,206.26,116.05,207.22Z"/><path class="cls-4" d="M114.67,213c-3.08,0-7.27-3-7.48-3.18a.25.25,0,0,1-.06-.34c1.05-1.53.72-4.13,0-4.89a3.9,3.9,0,0,1-.81-3.14,7.27,7.27,0,0,1,2.88-5.2c1-.68,2.51-.54,4.26.39,2.61,1.37,5.51,4.45,5.51,6.67,0,.72-.84,1.74-1.67,2.73a11.49,11.49,0,0,0-1,1.31h0c-.89,1.62-.67,4.26,0,4.94a.26.26,0,0,1,.07.22.31.31,0,0,1-.14.18A3.32,3.32,0,0,1,114.67,213Zm-7-3.44c1,.67,5.49,3.65,8,2.79a6.38,6.38,0,0,1,.17-5.24h0a11.21,11.21,0,0,1,1-1.39c.69-.83,1.55-1.87,1.55-2.41,0-1.81-2.5-4.78-5.24-6.23-1.58-.84-2.91-1-3.75-.42a6.82,6.82,0,0,0-2.67,4.83,3.47,3.47,0,0,0,.67,2.75C108.41,205.19,108.66,207.86,107.68,209.54Zm8.37-2.33Z"/><path class="cls-5" d="M106.54,210.27c.31-.48.12-2.22.25-2.78,2.81.46,7.14,4.13,10.52,4.09,0,0-.38,2.14-.43,2.15"/><path class="cls-4" d="M116.88,214a.25.25,0,0,1-.24-.18.22.22,0,0,1,0-.18c0-.12.12-.63.19-1s.11-.62.14-.8c-1.91-.09-4-1.21-6.06-2.29a17.73,17.73,0,0,0-3.93-1.74c0,.2,0,.47,0,.75a4.46,4.46,0,0,1-.22,1.87.25.25,0,1,1-.43-.27,4.71,4.71,0,0,0,.15-1.61,7.57,7.57,0,0,1,.06-1.09.27.27,0,0,1,.29-.2,16.6,16.6,0,0,1,4.33,1.84c2.09,1.11,4.24,2.25,6.09,2.25h.06a.26.26,0,0,1,.25.21.22.22,0,0,1,0,.16c0,.12-.12.63-.19,1-.22,1.22-.22,1.22-.39,1.27Z"/><path class="cls-5" d="M101.47,256.68c1-2.6,1.77-12.31,1.17-15.05-3.75-17,2.13-27.85,2.63-28.95a5.11,5.11,0,0,0,.4-3.25c4.48,0,8.77,3.92,12.2,4.24l0,.05a7.42,7.42,0,0,0-.07,2.05,1.86,1.86,0,0,0,.21.73.73.73,0,0,0,.6.4l.18.09c2.69,9.17,4.87,15.27,6.78,24.44.5,2.4,1,5.46,3.31,6.21"/><path class="cls-4" d="M101.47,256.93h-.09a.25.25,0,0,1-.14-.33c1-2.56,1.76-12.18,1.16-14.91-3.11-14.1.25-24.13,2.53-28.86l.11-.24a4.78,4.78,0,0,0,.4-3l0-.08a.25.25,0,0,1,.06-.2.28.28,0,0,1,.19-.09c2.56,0,5.1,1.27,7.33,2.39a15.37,15.37,0,0,0,4.9,1.85.24.24,0,0,1,.2.16.25.25,0,0,1,0,.25,6.79,6.79,0,0,0-.06,1.91,2,2,0,0,0,.17.64.51.51,0,0,0,.39.27.27.27,0,0,1,.12,0l.17.09a.27.27,0,0,1,.13.15c.7,2.39,1.36,4.56,2,6.64,1.81,5.92,3.37,11,4.78,17.82l.07.33c.46,2.24,1,5,3.08,5.69a.24.24,0,0,1,.15.32.25.25,0,0,1-.31.16c-2.32-.77-2.92-3.71-3.41-6.07l-.07-.33c-1.41-6.77-3-11.87-4.77-17.77-.63-2.05-1.28-4.2-2-6.55l0,0a1,1,0,0,1-.75-.51,2.21,2.21,0,0,1-.23-.83,6.79,6.79,0,0,1,0-1.91,17.51,17.51,0,0,1-4.77-1.87c-2.2-1.1-4.48-2.24-6.82-2.33a5.22,5.22,0,0,1-.46,3.09l-.12.26c-2.25,4.67-5.57,14.58-2.5,28.53.62,2.78-.15,12.59-1.18,15.21A.24.24,0,0,1,101.47,256.93Z"/><path class="cls-5" d="M122.65,219.82c2.07-2.14,7.06-6.49,11.94-4.83l-1.94,2.2"/><path class="cls-4" d="M122.65,220.07a.23.23,0,0,1-.17-.07.25.25,0,0,1,0-.35c2-2.05,7.12-6.63,12.2-4.9a.26.26,0,0,1,.16.18.28.28,0,0,1-.05.23l-1.94,2.2a.26.26,0,0,1-.36,0,.25.25,0,0,1,0-.35l1.68-1.91c-4.7-1.31-9.45,2.95-11.31,4.88A.23.23,0,0,1,122.65,220.07Z"/><path class="cls-5" d="M130.69,217.47c.45-2.13,2-3.76,4.14-2.9l-2.57,2.48Z"/><path class="cls-4" d="M130.69,217.72a.29.29,0,0,1-.18-.07.25.25,0,0,1-.07-.23,4.32,4.32,0,0,1,2-3,2.88,2.88,0,0,1,2.49-.07.32.32,0,0,1,.15.19.28.28,0,0,1-.07.23l-2.57,2.48a.24.24,0,0,1-.11.06l-1.58.42Zm3-3.14a2.23,2.23,0,0,0-1,.26,3.74,3.74,0,0,0-1.64,2.28l1.11-.29,2.22-2.16A2.48,2.48,0,0,0,133.71,214.58Z"/><path class="cls-5" d="M94.55,307.44c-1.44,1-2.06,3.4-1.25,5.69.59,1.68-8.16-2.51-6.55-4.12,1.11-1.11,3.8-1.61,4.06-4.73"/><path class="cls-4" d="M93,313.76c-1.44,0-5.26-2-6.31-3.42-.58-.79-.3-1.28-.08-1.51a7.41,7.41,0,0,1,1.25-.88c1.2-.73,2.57-1.56,2.74-3.69a.25.25,0,0,1,.5,0c-.2,2.38-1.74,3.32-3,4.08a5.77,5.77,0,0,0-1.15.81c-.08.08-.32.32.21,1,1.34,1.63,5.39,3.36,5.94,3.11,0,0,0,0,0-.05-.82-2.31-.25-4.83,1.35-6a.25.25,0,0,1,.29.4c-1.42,1-1.91,3.3-1.17,5.41a.48.48,0,0,1-.2.64A.79.79,0,0,1,93,313.76Z"/><path class="cls-11" d="M119,265.13c-1.76,4.16-4.52,18.21-7.06,21.65-2.44,3.28-14.49,20.83-18,22.12-1.19,0-4.11-1.86-4.11-3,1.23-7.44,9.95-23.1,10.62-25.38.73-2.45-1.1-18,2.92-25.65"/><path class="cls-4" d="M93.9,309.15c-1.3,0-4.36-1.95-4.36-3.3.87-5.29,5.34-14.4,8.3-20.42,1.19-2.44,2.14-4.37,2.33-5a28.27,28.27,0,0,0,.19-5.08c0-6-.09-15.16,2.75-20.61a.25.25,0,1,1,.44.23c-2.78,5.34-2.73,14.39-2.7,20.38a26.67,26.67,0,0,1-.2,5.22c-.21.7-1.11,2.55-2.37,5.11-2.94,6-7.39,15.07-8.24,20.24,0,.94,2.64,2.72,3.82,2.76,3-1.17,12.18-14.06,16.12-19.58.77-1.08,1.38-1.93,1.76-2.44,1.53-2.08,3.17-8.16,4.61-13.54a81.56,81.56,0,0,1,2.41-8.06.25.25,0,0,1,.47.19,81,81,0,0,0-2.4,8c-1.45,5.42-3.1,11.56-4.69,13.7-.38.51-1,1.36-1.76,2.44C106.06,295.42,97.06,308,94,309.14Z"/><path class="cls-5" d="M136.72,310.1c.73,2.66,1.92,3.78,3.52,4.24,3,.87-7.21,2.77-7,1a6,6,0,0,0-.58-4.36"/><path class="cls-4" d="M135.1,316.32a6.09,6.09,0,0,1-1-.07c-1-.17-1.12-.59-1.08-.91,0-.12,0-.25,0-.38a5.35,5.35,0,0,0-.6-3.83.25.25,0,0,1,.43-.25,6,6,0,0,1,.67,4.15c0,.12,0,.25,0,.37s.21.24.4.3c1.73.49,6.27-.43,6.64-1,0,0-.12-.06-.36-.13-1.86-.54-3-1.9-3.69-4.42a.26.26,0,0,1,.18-.31.25.25,0,0,1,.3.18c.65,2.36,1.65,3.58,3.35,4.07.55.16.79.4.72.71C140.83,315.64,137.28,316.32,135.1,316.32Z"/><path class="cls-11" d="M121.86,251a104.2,104.2,0,0,1,13.63,29.38c1.46,5.08,2,23.13,2.36,30.13,0,0-1.2,1.69-5.48,1.1-6.19-9.83-8-27.47-10.51-30.23-3.19-3.51-12.63-13.06-17.57-19.79"/><path class="cls-4" d="M134.08,312a12.52,12.52,0,0,1-1.74-.12.25.25,0,0,1-.18-.12c-3.67-5.82-5.76-14.2-7.45-20.93-1.1-4.39-2-8.17-3-9.26-.72-.8-1.76-1.9-3-3.21-4.28-4.53-10.75-11.39-14.58-16.61a.25.25,0,0,1,0-.35.25.25,0,0,1,.35.06c3.82,5.19,10.27,12,14.55,16.56,1.24,1.31,2.28,2.41,3,3.21,1.08,1.18,2,4.84,3.16,9.48,1.66,6.66,3.73,14.93,7.32,20.69,3.5.45,4.81-.68,5.07-1,0-.74-.07-1.59-.1-2.54-.33-8-.94-22.93-2.24-27.43a104.12,104.12,0,0,0-13.6-29.31.26.26,0,0,1,.07-.35.25.25,0,0,1,.35.07,105,105,0,0,1,13.66,29.45c1.31,4.56,1.93,19.52,2.26,27.55,0,1,.07,1.88.11,2.64a.27.27,0,0,1,0,.15C138,310.73,137.07,312,134.08,312Z"/><path class="cls-4" d="M105.75,257.73a10.53,10.53,0,0,1-4.38-.82.25.25,0,1,1,.2-.45c4.58,2.09,12.36-.62,14.92-1.52,3.37-1.17,7.09-2.8,9.12-6a.26.26,0,0,1,.35-.08.24.24,0,0,1,.07.34c-2.11,3.32-5.93,5-9.38,6.21C114.75,256.08,110,257.73,105.75,257.73Z"/><path class="cls-4" d="M106.17,221h0a.25.25,0,0,1-.19-.3c.67-3,2.6-4.83,5.14-4.78a2.09,2.09,0,0,1-.24-1.52,1.16,1.16,0,0,0-.13-.91.25.25,0,0,1,0-.25.25.25,0,0,1,.22-.12,5.56,5.56,0,0,1,5.72,4.33.25.25,0,0,1-.2.29.26.26,0,0,1-.29-.21,5,5,0,0,0-4.85-3.9,1.58,1.58,0,0,1,0,.86,1.86,1.86,0,0,0,.41,1.57.24.24,0,0,1,0,.26.24.24,0,0,1-.24.12c-2.46-.25-4.42,1.42-5.07,4.37A.26.26,0,0,1,106.17,221Z"/><path class="cls-19" d="M160.45,250,82,270.72a4.21,4.21,0,0,1-5.12-3.1l-7.51-29.51a4.31,4.31,0,0,1,3-5.24l78.5-20.72a4.21,4.21,0,0,1,5.12,3.09l7.5,29.51A4.29,4.29,0,0,1,160.45,250Z"/><path class="cls-4" d="M80.91,271.1a4.27,4.27,0,0,1-2.22-.61,4.52,4.52,0,0,1-2.1-2.8l-7.5-29.52a4.55,4.55,0,0,1,3.19-5.54l78.49-20.72a4.34,4.34,0,0,1,3.34.46,4.53,4.53,0,0,1,2.09,2.81l7.5,29.51a4.55,4.55,0,0,1-3.18,5.54l-.06-.24.06.24L82,271A4.69,4.69,0,0,1,80.91,271.1Zm71-58.84a3.74,3.74,0,0,0-1,.13L72.4,233.12a4,4,0,0,0-2.82,4.93l7.5,29.51a4,4,0,0,0,1.86,2.5,3.84,3.84,0,0,0,3,.41l78.49-20.72a4.06,4.06,0,0,0,2.83-4.94l-7.5-29.51a4,4,0,0,0-1.87-2.5A3.81,3.81,0,0,0,151.89,212.26Z"/><path class="cls-20" d="M80.87,270.46a3.85,3.85,0,0,1-3.65-2.93L69.72,238a3.88,3.88,0,0,1,.47-3.06,3.51,3.51,0,0,1,2.23-1.68l78.52-20.73a3.22,3.22,0,0,1,.93-.13,3.8,3.8,0,0,1,3.17,1.73L81,270.46Z"/><polygon class="cls-21" points="93.4 247.33 88.16 248.71 91.62 262.32 96.86 260.94 93.4 247.33"/><path class="cls-4" d="M91.62,262.57a.24.24,0,0,1-.12,0,.28.28,0,0,1-.12-.16l-3.46-13.61a.25.25,0,0,1,.18-.3l5.24-1.39a.32.32,0,0,1,.19,0,.24.24,0,0,1,.11.15l3.46,13.62a.24.24,0,0,1-.18.3l-5.23,1.38Zm-3.15-13.68L91.8,262l4.76-1.26-3.34-13.13Z"/><polygon class="cls-22" points="98.73 237.13 93.5 238.51 99.05 260.36 104.29 258.98 98.73 237.13"/><path class="cls-4" d="M99.05,260.61a.23.23,0,0,1-.24-.19l-5.56-21.85a.25.25,0,0,1,.18-.3l5.24-1.38a.25.25,0,0,1,.19,0,.28.28,0,0,1,.12.16l5.55,21.85a.26.26,0,0,1-.18.3l-5.24,1.38ZM93.8,238.69l5.43,21.36L104,258.8l-5.43-21.37Z"/><polygon class="cls-5" points="110.35 251.65 105.11 253.03 106.48 258.4 111.72 257.02 110.35 251.65"/><path class="cls-4" d="M106.48,258.65a.2.2,0,0,1-.13,0,.21.21,0,0,1-.11-.15l-1.37-5.37a.26.26,0,0,1,.18-.3l5.24-1.38a.25.25,0,0,1,.19,0,.23.23,0,0,1,.11.16L112,257a.26.26,0,0,1-.18.31l-5.24,1.38Zm-1.06-5.44,1.24,4.88,4.75-1.25L110.17,252Z"/><path class="cls-21" d="M125.53,246.1a12.87,12.87,0,0,0,19.92-1.19L135,236.85Z"/><path class="cls-4" d="M135,250.5a13.33,13.33,0,0,1-9.69-4.23.25.25,0,0,1,0-.35l9.44-9.25a.24.24,0,0,1,.32,0l10.49,8.06a.25.25,0,0,1,.05.35,13.32,13.32,0,0,1-7.32,5A12.74,12.74,0,0,1,135,250.5Zm-9.16-4.39A12.62,12.62,0,0,0,145.1,245L135,237.18Z"/><path class="cls-5" d="M147.64,233.5,135,236.85l10.49,8.06A13.64,13.64,0,0,0,147.64,233.5Z"/><path class="cls-4" d="M145.45,245.16a.25.25,0,0,1-.15,0l-10.49-8.06a.25.25,0,0,1-.09-.25.25.25,0,0,1,.18-.19l12.67-3.35a.24.24,0,0,1,.19,0,.26.26,0,0,1,.12.15,13.85,13.85,0,0,1-2.23,11.62.27.27,0,0,1-.17.1Zm-9.93-8.2,9.88,7.59a13.35,13.35,0,0,0,2.06-10.74Z"/><path class="cls-22" d="M147.64,233.5a13.12,13.12,0,0,0-16-9.64,13.55,13.55,0,0,0-6.15,22.25l9.45-9.26Z"/><path class="cls-4" d="M125.51,246.36h0a.29.29,0,0,1-.18-.07,13.88,13.88,0,0,1-3.29-6,13.67,13.67,0,0,1,9.56-16.64,13,13,0,0,1,10,1.39,13.54,13.54,0,0,1,6.29,8.43.27.27,0,0,1-.18.31l-12.61,3.33-9.4,9.21A.24.24,0,0,1,125.51,246.36ZM135,223.68a12.73,12.73,0,0,0-3.23.42,13.3,13.3,0,0,0-6.2,21.65l9.27-9.08a.24.24,0,0,1,.11-.06l12.43-3.28a13,13,0,0,0-6-7.89A12.61,12.61,0,0,0,135,223.68Z"/><path class="cls-23" d="M160.45,250,82,270.72a4.21,4.21,0,0,1-5.12-3.1l-7.51-29.51a4.31,4.31,0,0,1,3-5.24l78.5-20.72a4.21,4.21,0,0,1,5.12,3.09l7.5,29.51A4.29,4.29,0,0,1,160.45,250Z"/><path class="cls-18" d="M119,255.64c.41.62,2.45.66,3.83.24,1-.3,2.23-1.82,2.79-1.08,1.07,1.43-2.8,2.26-1.87,4.05.31.59,1.85.35,3.1-.21,0,0,.58,2.4-3,3.29-1.83.46-4,.37-4.68-.66a21,21,0,0,0-2.85-3.79"/><path class="cls-4" d="M121.8,262.45a3.3,3.3,0,0,1-2.8-1l-.27-.41a18.31,18.31,0,0,0-2.54-3.33.25.25,0,0,1,.33-.37,18.46,18.46,0,0,1,2.63,3.43l.26.4c.61.93,2.73,1,4.41.56,2.56-.64,2.83-2.07,2.81-2.69-1.13.45-2.7.75-3.11,0-.57-1.09.36-1.88,1.1-2.51s1.13-1,.79-1.5c-.19-.25-.63,0-1.29.48a4.61,4.61,0,0,1-1.23.69c-1.31.4-3.57.47-4.11-.35a.25.25,0,0,1,.07-.34.25.25,0,0,1,.35.07c.29.43,2.1.59,3.55.14a4.58,4.58,0,0,0,1.09-.62c.69-.48,1.48-1,2-.37.66.89-.15,1.58-.87,2.18s-1.33,1.21-1,1.9c.19.35,1.43.29,2.78-.32a.22.22,0,0,1,.21,0,.21.21,0,0,1,.13.16s.6,2.66-3.14,3.59A9,9,0,0,1,121.8,262.45Z"/><path class="cls-5" d="M106.18,220.74c-2.71,12.32,1.69,27.7,9,35.94a8.42,8.42,0,0,0,1.17,1.42,4.81,4.81,0,0,0,2.92-2.46c0-.59-.78-.85-.85-1.46-.53-4.66-3-10-3.14-11.59-.72-7.15,1.68-14.52,1.34-21.85"/><path class="cls-4" d="M116.4,258.35a.25.25,0,0,1-.15-.05,3.59,3.59,0,0,1-.8-.91,5.39,5.39,0,0,0-.4-.54c-7.81-8.74-11.73-24.29-9.12-36.17a.25.25,0,1,1,.49.11c-2.58,11.73,1.29,27.09,9,35.73a5.55,5.55,0,0,1,.44.58,3.15,3.15,0,0,0,.58.71,4.61,4.61,0,0,0,2.63-2.23,1.06,1.06,0,0,0-.34-.51,1.54,1.54,0,0,1-.51-.86,42.38,42.38,0,0,0-2.21-8.42,20.27,20.27,0,0,1-.93-3.17A51.79,51.79,0,0,1,115.7,231a59.9,59.9,0,0,0,.72-10.28.25.25,0,0,1,.24-.26.24.24,0,0,1,.26.23,59.74,59.74,0,0,1-.73,10.37,51.52,51.52,0,0,0-.61,11.48,20.21,20.21,0,0,0,.91,3.06,43.46,43.46,0,0,1,2.23,8.53,1.06,1.06,0,0,0,.37.56,1.32,1.32,0,0,1,.48.92.29.29,0,0,1,0,.09,5,5,0,0,1-3.07,2.6Z"/><path class="cls-5" d="M115.23,256.68c.58.26.65,1,1.17,1.42a4.81,4.81,0,0,0,2.92-2.46c0-.59-.78-.85-.85-1.46Z"/><path class="cls-4" d="M116.4,258.35a.25.25,0,0,1-.15-.05,2.21,2.21,0,0,1-.59-.76,1.35,1.35,0,0,0-.53-.63.23.23,0,0,1-.14-.2.24.24,0,0,1,.09-.22l3.24-2.5a.25.25,0,0,1,.25,0,.27.27,0,0,1,.15.21,1.06,1.06,0,0,0,.37.56,1.32,1.32,0,0,1,.48.92.29.29,0,0,1,0,.09,5,5,0,0,1-3.07,2.6Zm-.74-1.68a2.6,2.6,0,0,1,.44.62,2.25,2.25,0,0,0,.35.52,4.65,4.65,0,0,0,2.62-2.23,1.06,1.06,0,0,0-.34-.51,2.18,2.18,0,0,1-.38-.47Z"/><path class="cls-18" d="M132.26,217.05c.84-2.17,5.43-4.64,7.92-2.15a3.8,3.8,0,0,1,.65,3c-.32.91-2.29,1.54-3.82,1.06-.9-.29-1.1-2.26-3.25-2.26Z"/><path class="cls-4" d="M138.14,219.33a4,4,0,0,1-1.21-.18,2,2,0,0,1-1-.89,2.52,2.52,0,0,0-2.19-1.35l-1.46.38a.25.25,0,0,1-.25-.07A.25.25,0,0,1,132,217a6.35,6.35,0,0,1,4.4-3.23,4.11,4.11,0,0,1,3.92,1,4,4,0,0,1,.72,3.22C140.77,218.77,139.45,219.33,138.14,219.33Zm-4.38-2.92a3,3,0,0,1,2.62,1.56c.25.34.46.63.7.71,1.43.45,3.25-.14,3.52-.9a3,3,0,0,0-4.07-3.56,6.25,6.25,0,0,0-3.79,2.45l1-.25Z"/><path class="cls-4" d="M88.5,307.49a4.81,4.81,0,0,0-3.27,2.3c0,2,3.84,6.46,6.07,8.37,1.24,1.06,6.39,1.08,6.39.07,0-1.38-2-1.83-2.76-2.37s-1.42-2.34-1.6-3.81C90.77,312.16,88.87,309.27,88.5,307.49Z"/><path class="cls-4" d="M95.07,319.23a7.21,7.21,0,0,1-3.93-.88c-2.09-1.78-6.16-6.42-6.16-8.56a.43.43,0,0,1,0-.11,5,5,0,0,1,3.46-2.43.23.23,0,0,1,.28.19c.34,1.62,2.17,4.48,4.58,4.36h0a.26.26,0,0,1,.25.22c.17,1.39.77,3.13,1.5,3.63a5.19,5.19,0,0,0,.76.4c.9.42,2.13,1,2.1,2.19,0,.18-.09.43-.52.63A6.13,6.13,0,0,1,95.07,319.23Zm-9.59-9.38c.07,1.81,3.6,6.08,6,8.12,1,.81,4.58,1,5.75.45.16-.07.23-.15.23-.19,0-.86-1-1.32-1.81-1.73a6.44,6.44,0,0,1-.84-.44c-.83-.57-1.46-2.31-1.68-3.76-2.4-.05-4.29-2.58-4.8-4.52A4.67,4.67,0,0,0,85.48,309.85Z"/><path class="cls-4" d="M133,314.7a7.45,7.45,0,0,0,.41,4.66c.81.5,8.51-.65,10.56-1.09,3.21-.7,3.58-1.28,4.14-1.95s.2-1.78-1.79-1.8-4,.3-7.07-1A5.44,5.44,0,0,1,133,314.7Z"/><path class="cls-4" d="M134.42,319.73a2.69,2.69,0,0,1-1.16-.16l-.09-.09a7.73,7.73,0,0,1-.44-4.84.28.28,0,0,1,.15-.17.26.26,0,0,1,.23,0c1.73,1.06,4.86.25,5.93-1.13a.25.25,0,0,1,.29-.08,12.86,12.86,0,0,0,5.94,1h1c1.53,0,2,.6,2.2,1a1.19,1.19,0,0,1-.22,1.26l-.07.08c-.56.68-1,1.27-4.21,1.95A70.49,70.49,0,0,1,134.42,319.73Zm-.84-.56c.92.35,8-.64,10.31-1.15,3-.64,3.44-1.17,3.94-1.77l.07-.09a.68.68,0,0,0,.14-.73c-.19-.41-.84-.65-1.74-.66h-1a13.14,13.14,0,0,1-6-1,5.92,5.92,0,0,1-6.16,1.27A7.11,7.11,0,0,0,133.58,319.17Z"/><path class="cls-18" d="M109.43,198.23c-.45-2.57,1.12-5.74,3.71-7.35s6,.71,7.18,2.39c.54.87.47,1.84.67,3.1.08.46-.45.65-.61,1,1.63,2.78,2.06,6.23.27,7.79-.8.69-3.78.43-4.6,2"/><path class="cls-4" d="M116.05,207.46a.25.25,0,0,1-.12,0,.25.25,0,0,1-.1-.34c.56-1.08,2-1.37,3.15-1.61a4,4,0,0,0,1.5-.47c1.75-1.52,1.14-5-.32-7.48a.28.28,0,0,1,0-.22,1.63,1.63,0,0,1,.36-.48c.19-.2.27-.29.25-.43-.06-.37-.1-.71-.13-1a4.37,4.37,0,0,0-.51-2c-1.09-1.61-4.41-3.83-6.84-2.32s-4,4.59-3.6,7.09a.25.25,0,0,1-.2.29.24.24,0,0,1-.29-.2c-.46-2.69,1.18-6,3.83-7.6s6.3.66,7.52,2.46a4.77,4.77,0,0,1,.58,2.2c0,.31.07.64.13,1a1,1,0,0,1-.38.86,2.05,2.05,0,0,0-.2.23c1.55,2.71,2.09,6.29.15,8a4,4,0,0,1-1.73.59c-1.1.23-2.36.48-2.81,1.35A.23.23,0,0,1,116.05,207.46Z"/><path class="cls-4" d="M122.1,199.44H122a.25.25,0,0,1-.17-.31,7,7,0,0,0,0-3.32.24.24,0,0,1,.14-.32.25.25,0,0,1,.33.14,7.55,7.55,0,0,1,0,3.64A.25.25,0,0,1,122.1,199.44Z"/><path class="cls-4" d="M115.52,198.24a.26.26,0,0,1-.24-.19.24.24,0,0,1,.17-.3c1.72-.46,3.7-.93,5.15-1.27l1.19-.28a.25.25,0,0,1,.3.18.26.26,0,0,1-.18.31l-1.2.28c-1.44.34-3.41.8-5.13,1.26Z"/><path class="cls-4" d="M104.94,202.54a12.75,12.75,0,0,1,1.83,3.23c1.26.62,3.16-.07,5-.74A4.27,4.27,0,0,0,113,201.5c1.85.06,2.51-1.9.82-2.75,1.7.64,2.42-1.65,1-2.51,1.45.58,2.48-1,1.22-1.9,1.7-1.71,3.87.24,4.9-1.75,1.29-2.47-2.31-5.87-8.28-5.93-4.86,0-9.15,2.14-10.09,7.26C102,196.76,103.26,200.85,104.94,202.54Z"/><path class="cls-4" d="M107.94,206.26a2.88,2.88,0,0,1-1.28-.27.19.19,0,0,1-.12-.11l-.3-.65a9.74,9.74,0,0,0-1.47-2.52c-1.82-1.82-3-6-2.5-8.83.86-4.68,4.67-7.47,10.2-7.47h.15c4.58,0,7.34,1.92,8.3,3.53a2.75,2.75,0,0,1,.19,2.76c-.61,1.17-1.58,1.14-2.52,1.11a3.1,3.1,0,0,0-2.22.51,1.29,1.29,0,0,1,.28,1.58,1.43,1.43,0,0,1-1.13.71,1.75,1.75,0,0,1,.13,1.68,1.39,1.39,0,0,1-1,.79,1.54,1.54,0,0,1,.34,1.37,1.82,1.82,0,0,1-1.72,1.28,4.44,4.44,0,0,1-1.34,3.47l-.08,0A12.6,12.6,0,0,1,107.94,206.26Zm-1-.68c1.18.51,3-.17,4.68-.77a4.12,4.12,0,0,0,1.12-3.28.25.25,0,0,1,.06-.2.21.21,0,0,1,.19-.08,1.38,1.38,0,0,0,1.5-.91,1.21,1.21,0,0,0-.8-1.36.26.26,0,0,1-.12-.33.25.25,0,0,1,.32-.13,1,1,0,0,0,1.3-.44,1.26,1.26,0,0,0-.55-1.62.25.25,0,0,1-.1-.33.27.27,0,0,1,.32-.12,1,1,0,0,0,1.34-.34.84.84,0,0,0-.36-1.13.27.27,0,0,1-.11-.18.24.24,0,0,1,.08-.2,3.32,3.32,0,0,1,2.78-.84c.9,0,1.61.05,2.07-.84a2.23,2.23,0,0,0-.18-2.27c-1-1.62-3.78-3.26-7.88-3.29h-.14c-5.27,0-8.89,2.63-9.71,7.06-.47,2.61.67,6.69,2.36,8.39h0a9.54,9.54,0,0,1,1.57,2.66C106.78,205.21,106.86,205.4,107,205.58Z"/><path class="cls-18" d="M116.69,198.19a.87.87,0,0,0-.91-.78.71.71,0,0,0-.57.54,1.85,1.85,0,0,0-.07.75,3.14,3.14,0,0,0,1,2.18c.17.14.38.24.54.14s.24-.43.28-.72"/><path class="cls-4" d="M116.55,201.31a.9.9,0,0,1-.56-.23,3.41,3.41,0,0,1-1.1-2.37,2.22,2.22,0,0,1,.09-.85,1,1,0,0,1,.77-.7,1.1,1.1,0,0,1,1.18,1,.25.25,0,0,1-.49.09c-.06-.32-.33-.63-.62-.57s-.27.09-.37.37a1.8,1.8,0,0,0-.07.65,3,3,0,0,0,.93,2c.14.11.23.13.25.12s.12-.22.16-.54a.25.25,0,0,1,.28-.21.25.25,0,0,1,.22.28,1.21,1.21,0,0,1-.4.9A.59.59,0,0,1,116.55,201.31Z"/><rect class="cls-23" y="0.1" width="632" height="319.9"/></g></g></g></svg>