<svg xmlns="http://www.w3.org/2000/svg" viewBox="0 0 290 315"><defs><style>.cls-1{isolation:isolate;}.cls-2{fill:#f2f3f5;}.cls-10,.cls-11,.cls-2,.cls-3,.cls-4,.cls-7{stroke:#363c66;stroke-linecap:round;stroke-linejoin:round;stroke-width:0.5px;}.cls-3,.cls-9{fill:#cdced9;}.cls-4{fill:#686d8c;}.cls-11,.cls-5,.cls-6{fill:#9b9db3;}.cls-6,.cls-8{mix-blend-mode:multiply;}.cls-7{fill:#fff4cc;}.cls-10{fill:#fff;}.cls-12{fill:#363c66;}</style></defs><title>HP_HB_mobileAsset 58</title><g class="cls-1"><g id="Layer_2" data-name="Layer 2"><g id="Layer_1-2" data-name="Layer 1"><ellipse class="cls-2" cx="149.53" cy="140.36" rx="140.22" ry="140.11"/><ellipse class="cls-3" cx="149.53" cy="140.36" rx="126.91" ry="126.81"/><ellipse class="cls-3" cx="149.53" cy="140.36" rx="121.1" ry="121"/><ellipse class="cls-4" cx="149.53" cy="140.36" rx="102.92" ry="102.83"/><path class="cls-3" d="M149.58,254.79h-.05c-.91,0-1.81,0-2.71,0L147,248q1.26,0,2.55,0Zm11-.53-.65-6.73c.87-.09,1.73-.18,2.59-.29l.81,6.72C162.47,254.07,161.55,254.17,160.63,254.26ZM135.79,254c-.92-.11-1.83-.23-2.74-.36l1-6.69c.86.12,1.72.24,2.59.34Zm38.5-1.86-1.46-6.61c.85-.18,1.7-.38,2.54-.59l1.62,6.57Zm-52.1-.6c-.9-.22-1.8-.45-2.69-.69l1.78-6.53c.83.23,1.67.44,2.51.65Zm65.4-3.19-2.25-6.38c.82-.29,1.63-.59,2.45-.9l2.4,6.33ZM109,247.41c-.87-.33-1.73-.67-2.58-1l2.54-6.27c.81.33,1.62.64,2.43,1Zm91.35-4.47-3-6.06c.78-.38,1.55-.78,2.32-1.18l3.15,6C202,242.11,201.16,242.53,200.33,242.94Zm-104-1.21c-.82-.43-1.63-.86-2.44-1.31l3.29-5.91c.76.42,1.52.83,2.3,1.24Zm116-5.66-3.71-5.65c.72-.48,1.44-1,2.15-1.45l3.85,5.56C213.85,235.05,213.09,235.57,212.32,236.07Zm-127.8-1.49c-.76-.52-1.51-1.06-2.26-1.6l4-5.47c.7.51,1.41,1,2.13,1.51Zm138.87-6.77L219,222.64c.66-.56,1.32-1.12,2-1.7l4.49,5.06C224.8,226.61,224.1,227.21,223.39,227.81ZM73.63,226.06q-1-.92-2-1.86l4.6-4.95L78.12,221Zm159.77-7.79-5-4.6c.59-.63,1.18-1.28,1.76-1.93l5.06,4.49Q234.35,217.27,233.4,218.27Zm-169.55-2c-.61-.69-1.21-1.39-1.81-2.09l5.17-4.37c.56.67,1.13,1.32,1.7,2Zm178.34-8.68-5.47-4c.51-.7,1-1.4,1.51-2.12l5.57,3.85C243.27,206.12,242.74,206.87,242.19,207.62ZM55.31,205.43c-.52-.75-1-1.52-1.55-2.29l5.66-3.71c.48.73,1,1.44,1.45,2.16ZM249.64,196l-5.91-3.29c.42-.76.84-1.52,1.24-2.29l6,3.14C250.53,194.35,250.09,195.16,249.64,196Zm-201.5-2.34c-.43-.82-.85-1.63-1.26-2.46l6.07-3c.38.78.78,1.55,1.18,2.31Zm207.49-10.12L249.36,181c.33-.8.65-1.61,1-2.42l6.33,2.4C256.32,181.79,256,182.66,255.63,183.51ZM42.45,181c-.33-.86-.64-1.73-1-2.6l6.38-2.25c.29.82.59,1.64.9,2.45Zm217.61-10.63-6.53-1.77c.23-.84.45-1.67.65-2.52l6.58,1.61C260.54,168.63,260.3,169.52,260.06,170.41ZM38.33,167.85c-.22-.89-.43-1.79-.63-2.69l6.61-1.46c.18.85.38,1.69.59,2.53Zm224.54-11-6.7-1c.12-.86.24-1.71.34-2.58l6.72.81C263.12,155.06,263,156,262.87,156.88Zm-227-2.62c-.11-.91-.21-1.83-.3-2.75l6.73-.65c.09.86.18,1.73.29,2.58ZM264,143.12l-6.76-.16c0-.87,0-1.73,0-2.6v-.23h6.76v.2C264.05,141.28,264,142.2,264,143.12ZM35,140.47v-.11c0-.89,0-1.77,0-2.65l6.77.15c0,.83,0,1.66,0,2.5Zm221.77-10.73c-.08-.86-.18-1.73-.28-2.59l6.71-.82c.11.92.22,1.83.31,2.75ZM42.53,127.49l-6.72-.8c.11-.92.23-1.83.36-2.74l6.7,1C42.74,125.77,42.63,126.62,42.53,127.49Zm212.19-10.58c-.18-.85-.38-1.7-.59-2.54l6.57-1.62c.22.89.43,1.79.63,2.69ZM44.84,114.7l-6.57-1.61q.33-1.34.69-2.67l6.53,1.76C45.27,113,45.05,113.86,44.84,114.7Zm206.3-10.29c-.29-.81-.59-1.63-.9-2.44l6.32-2.41c.33.86.65,1.73,1,2.6ZM48.7,102.29,42.36,99.9c.33-.87.67-1.73,1-2.59l6.27,2.55C49.32,100.66,49,101.47,48.7,102.29Zm197.36-9.84c-.39-.78-.78-1.55-1.19-2.31l6-3.16c.43.81.85,1.63,1.26,2.45Zm-192-2-6-3.15c.43-.81.86-1.63,1.31-2.43l5.92,3.28C54.85,88.89,54.43,89.66,54,90.43Zm185.54-9.24c-.48-.73-1-1.44-1.45-2.15l5.55-3.86c.53.76,1.05,1.52,1.56,2.29ZM60.76,79.29l-5.57-3.84c.52-.76,1.06-1.51,1.6-2.25l5.48,4C61.76,77.87,61.25,78.58,60.76,79.29Zm171-8.5c-.57-.67-1.14-1.32-1.71-2l5.05-4.49c.62.68,1.22,1.38,1.81,2.08Zm-163-1.74-5.07-4.48q.91-1,1.86-2l5,4.59C69.94,67.76,69.36,68.4,68.78,69.05Zm154-7.66-1.93-1.75,4.48-5.06c.69.61,1.37,1.22,2,1.85ZM78,59.85l-4.49-5.06c.69-.61,1.38-1.21,2.09-1.81l4.37,5.16C79.28,58.7,78.62,59.27,78,59.85Zm134.75-6.71c-.7-.51-1.41-1-2.13-1.51l3.85-5.57,2.26,1.6ZM88.2,51.81l-3.85-5.56c.75-.52,1.52-1,2.29-1.54l3.71,5.65C89.63,50.83,88.91,51.32,88.2,51.81Zm113.55-5.66c-.76-.42-1.53-.83-2.3-1.24l3.14-6c.82.43,1.63.87,2.44,1.32ZM99.32,45.06l-3.16-6q1.22-.64,2.46-1.26l3,6.06C100.85,44.26,100.08,44.66,99.32,45.06ZM190,40.54c-.8-.33-1.61-.64-2.43-.95L190,33.26l2.59,1Zm-78.84-.83-2.41-6.32c.86-.33,1.73-.65,2.6-1l2.26,6.37C112.79,39.1,112,39.4,111.16,39.71Zm66.51-3.31c-.84-.23-1.68-.45-2.52-.65l1.6-6.57c.9.22,1.8.45,2.69.69Zm-54.09-.57L122,29.26c.9-.22,1.79-.43,2.7-.63l1.46,6.6C125.26,35.42,124.42,35.62,123.58,35.83Zm41.35-2c-.86-.12-1.72-.24-2.58-.34l.8-6.71c.91.1,1.83.22,2.74.35Zm-28.56-.3-.82-6.71c.91-.11,1.83-.21,2.75-.3L139,33.2C138.09,33.28,137.23,33.38,136.37,33.48ZM152,32.71l-2.43,0h-.18V25.92h.18q1.29,0,2.58,0Z"/><ellipse class="cls-5" cx="149.53" cy="140.36" rx="94.23" ry="94.15"/><path class="cls-6" d="M233.39,223.16c8.44,0,17.83-5.46,20.94-12.12l27.25-60.6c3.12-6.67-1.23-12.12-9.67-12.12H149.11c-8.44,0-17.9,5.45-21,12.12L99.72,211c-3.12,6.66,1.24,12.12,9.68,12.12Z"/><path class="cls-7" d="M164,80.61H115.42A18.1,18.1,0,0,0,97.82,96.8l-9,97.15a14.57,14.57,0,0,0,14.72,16.19H233.19A18.19,18.19,0,0,0,250.88,194l7.42-81A14.58,14.58,0,0,0,243.58,96.8H178.76Z"/><g class="cls-8"><path class="cls-9" d="M173.68,166.66c1.61-3.78.76-7.81-1.84-9.62A254.67,254.67,0,0,0,185,116.43c1.58-6.64,2.85-13.2,3.85-19.63h-10L164,80.61H114.49A15,15,0,0,0,106,83.48l-16.2,98.16h69.27q2.92-4.62,5.66-9.71C168,173,172,170.72,173.68,166.66Z"/></g><path class="cls-10" d="M223.13,204.19c8.14,0,17.18-6,20.19-13.3l26.26-66.49c3-7.31-1.19-13.29-9.33-13.29H141.9c-8.14,0-17.26,6-20.27,13.29L94.3,190.89c-3,7.32,1.19,13.3,9.32,13.3Z"/><g class="cls-8"><path class="cls-9" d="M180.66,181.19c1.61-3.78.76-7.81-1.85-9.62A253.33,253.33,0,0,0,191.93,131c1.57-6.63,2.84-13.19,3.84-19.62H125.1a24.16,24.16,0,0,0-8.48,1.66L96.79,196.17h69.27q2.92-4.6,5.65-9.7C175,187.52,178.93,185.25,180.66,181.19Z"/></g><path class="cls-7" d="M231.37,210.18c8.45,0,17.83-5.45,20.95-12.12l27.25-60.6c3.12-6.66-1.24-12.12-9.68-12.12H147.09c-8.44,0-17.9,5.46-21,12.12l-28.36,60.6c-3.12,6.67,1.23,12.12,9.67,12.12Z"/><g class="cls-8"><path class="cls-9" d="M188.66,195.2c1.6-3.78.75-7.81-1.85-9.62A253.66,253.66,0,0,0,199.92,145c1.58-6.64,2.85-13.19,3.85-19.63H133.1a24.35,24.35,0,0,0-8.48,1.66l-19.84,83.18h69.28q2.91-4.62,5.65-9.71C183,201.53,186.93,199.26,188.66,195.2Z"/></g><path class="cls-11" d="M66.66,11.53,102.3,28.78c24.31,10.93,43.88,57.62,45.08,114.52,1.2,56.48-13.57,101-41.54,116.35L72,278.37"/><path class="cls-12" d="M123.63,230.52l-.29,0a.9.9,0,0,1-.28-.08,1.3,1.3,0,0,1-.26-.14,1.12,1.12,0,0,1-.24-.19,1.52,1.52,0,0,1-.44-1.07,1.41,1.41,0,0,1,.12-.57,1.15,1.15,0,0,1,.14-.27,1.3,1.3,0,0,1,.18-.23,1.08,1.08,0,0,1,.24-.18,1.61,1.61,0,0,1,.54-.23,1.53,1.53,0,0,1,1.36.41,1.37,1.37,0,0,1,.19.23,1.71,1.71,0,0,1,.14.27,1.47,1.47,0,0,1,.08.28,1.5,1.5,0,0,1,0,.29,1.52,1.52,0,0,1-.44,1.07A1.5,1.5,0,0,1,123.63,230.52Z"/><path class="cls-12" d="M104.3,258.55a1.49,1.49,0,0,1-.08-2.13h0a1.49,1.49,0,0,1,2.13-.08h0a1.49,1.49,0,0,1,.08,2.13h0a1.5,1.5,0,0,1-1.1.48h0A1.51,1.51,0,0,1,104.3,258.55Zm5.58-6.39a1.53,1.53,0,0,1-.28-2.13h0a1.52,1.52,0,0,1,2.12-.28h0a1.52,1.52,0,0,1,.28,2.12h0a1.52,1.52,0,0,1-1.2.6h0A1.57,1.57,0,0,1,109.88,252.16Zm5-6.89a1.51,1.51,0,0,1-.46-2.09h0a1.5,1.5,0,0,1,2.08-.46h0a1.51,1.51,0,0,1,.47,2.08h0a1.51,1.51,0,0,1-1.28.71h0A1.52,1.52,0,0,1,114.85,245.27Zm4.38-7.28a1.52,1.52,0,0,1-.64-2h0a1.52,1.52,0,0,1,2-.63h0a1.51,1.51,0,0,1,.63,2h0a1.51,1.51,0,0,1-1.34.81h0A1.58,1.58,0,0,1,119.23,238Z"/><path class="cls-12" d="M99.25,264.89l-.3,0a1.31,1.31,0,0,1-.28-.09,1.35,1.35,0,0,1-.26-.15,1.76,1.76,0,0,1-.42-.41,2.15,2.15,0,0,1-.14-.26c0-.09-.06-.19-.08-.28a1.51,1.51,0,0,1,0-.6c0-.09,0-.19.08-.28a2.15,2.15,0,0,1,.14-.26,2.11,2.11,0,0,1,.19-.23,2,2,0,0,1,.23-.18,1.61,1.61,0,0,1,.54-.23,1.57,1.57,0,0,1,1.37.41,1.52,1.52,0,0,1,.44,1.07,1.5,1.5,0,0,1-.44,1.06A1.52,1.52,0,0,1,99.25,264.89Z"/><path class="cls-12" d="M134.05,195.32a1.54,1.54,0,0,1-1.52-1.51,1.71,1.71,0,0,1,0-.31c0-.09.05-.19.08-.28a1.74,1.74,0,0,1,.15-.26,2,2,0,0,1,.19-.22,1.45,1.45,0,0,1,.23-.19,1.59,1.59,0,0,1,.26-.14l.28-.08a1.52,1.52,0,0,1,1.36.41,1.52,1.52,0,0,1-1.06,2.58Z"/><path class="cls-12" d="M126.54,221.89a1.51,1.51,0,0,1-.91-1.94h0a1.51,1.51,0,0,1,1.93-.9h0a1.51,1.51,0,0,1,.91,1.93h0a1.51,1.51,0,0,1-1.42,1h0A1.52,1.52,0,0,1,126.54,221.89Zm2.92-8.71a1.53,1.53,0,0,1-1-1.88h0a1.53,1.53,0,0,1,1.88-1h0a1.51,1.51,0,0,1,1,1.88h0a1.52,1.52,0,0,1-1.45,1.1h0A1.58,1.58,0,0,1,129.46,213.18Zm2.4-8.89a1.51,1.51,0,0,1-1.13-1.81h0a1.5,1.5,0,0,1,1.81-1.13h0a1.49,1.49,0,0,1,1.13,1.8h0a1.5,1.5,0,0,1-1.47,1.18h0A2.09,2.09,0,0,1,131.86,204.29Z"/><path class="cls-12" d="M123.63,230.52l-.29,0a.9.9,0,0,1-.28-.08,1.3,1.3,0,0,1-.26-.14,1.12,1.12,0,0,1-.24-.19,1.52,1.52,0,0,1-.44-1.07,1.41,1.41,0,0,1,.12-.57,1.15,1.15,0,0,1,.14-.27,1.3,1.3,0,0,1,.18-.23,1.08,1.08,0,0,1,.24-.18,1.61,1.61,0,0,1,.54-.23,1.53,1.53,0,0,1,1.36.41,1.37,1.37,0,0,1,.19.23,1.71,1.71,0,0,1,.14.27,1.47,1.47,0,0,1,.08.28,1.5,1.5,0,0,1,0,.29,1.52,1.52,0,0,1-.44,1.07A1.5,1.5,0,0,1,123.63,230.52Z"/><path class="cls-12" d="M134.67,190.16a1.51,1.51,0,0,1-1.27-1.72h0a1.5,1.5,0,0,1,1.72-1.26h0a1.48,1.48,0,0,1,1.26,1.71h0a1.5,1.5,0,0,1-1.49,1.29h0Zm1.56-12a1.5,1.5,0,0,1-1.36-1.64h0a1.52,1.52,0,0,1,1.66-1.36h0a1.52,1.52,0,0,1,1.36,1.64h0a1.52,1.52,0,0,1-1.52,1.37h-.14Zm.94-12a1.51,1.51,0,0,1-1.44-1.58h0a1.52,1.52,0,0,1,1.58-1.44h0a1.51,1.51,0,0,1,1.44,1.58h0a1.51,1.51,0,0,1-1.51,1.44h-.07Zm.38-12.08a1.52,1.52,0,0,1-1.5-1.52h0a1.5,1.5,0,0,1,1.52-1.5h0a1.51,1.51,0,0,1,1.51,1.52h0a1.52,1.52,0,0,1-1.52,1.5h0Zm-1.66-13.55a1.52,1.52,0,0,1,1.46-1.56h0a1.52,1.52,0,0,1,1.56,1.46h0a1.52,1.52,0,0,1-1.47,1.56h0A1.51,1.51,0,0,1,135.89,140.5Zm-.57-12a1.5,1.5,0,0,1,1.41-1.6h0a1.5,1.5,0,0,1,1.6,1.41h0a1.5,1.5,0,0,1-1.41,1.6h-.09A1.51,1.51,0,0,1,135.32,128.48Zm-1-12a1.5,1.5,0,0,1,1.35-1.66h0a1.49,1.49,0,0,1,1.65,1.35h0a1.49,1.49,0,0,1-1.34,1.65h-.16A1.5,1.5,0,0,1,134.31,116.5Zm-1.5-11.92a1.5,1.5,0,0,1,1.27-1.72h0a1.52,1.52,0,0,1,1.72,1.27h0a1.52,1.52,0,0,1-1.28,1.72h0l-.22,0h0A1.51,1.51,0,0,1,132.81,104.58Zm-2.08-11.83A1.52,1.52,0,0,1,131.91,91h0a1.51,1.51,0,0,1,1.78,1.18h0a1.51,1.51,0,0,1-1.18,1.78h0a1.53,1.53,0,0,1-.3,0h0A1.51,1.51,0,0,1,130.73,92.75Z"/><path class="cls-12" d="M120.75,58.36a1.54,1.54,0,0,1-1.07-.44,1.65,1.65,0,0,1-.41-.77,1.6,1.6,0,0,1,0-.3,1.41,1.41,0,0,1,.12-.58,1.3,1.3,0,0,1,.14-.26,1,1,0,0,1,.18-.22,1.55,1.55,0,0,1,2.14,0A1,1,0,0,1,122,56a2.15,2.15,0,0,1,.14.26,1,1,0,0,1,.08.28,1.53,1.53,0,0,1,0,.3,1.6,1.6,0,0,1,0,.3.9.9,0,0,1-.08.28,2.15,2.15,0,0,1-.14.26,1.37,1.37,0,0,1-.19.23A1.52,1.52,0,0,1,120.75,58.36Z"/><path class="cls-12" d="M128.66,83.68a1.53,1.53,0,0,1,1.1-1.85h0a1.53,1.53,0,0,1,1.84,1.1h0a1.51,1.51,0,0,1-1.09,1.83h0a1.65,1.65,0,0,1-.38,0h0A1.54,1.54,0,0,1,128.66,83.68Zm-2.52-9a1.49,1.49,0,0,1,1-1.88h0a1.52,1.52,0,0,1,1.9,1h0a1.51,1.51,0,0,1-1,1.89h0a1.83,1.83,0,0,1-.46.07h0A1.51,1.51,0,0,1,126.14,74.73ZM123.08,66a1.51,1.51,0,0,1,.86-1.95h0a1.51,1.51,0,0,1,2,.85h0a1.52,1.52,0,0,1-.86,2h0a1.54,1.54,0,0,1-.55.11h0A1.52,1.52,0,0,1,123.08,66Z"/><path class="cls-12" d="M132.21,94a1.36,1.36,0,0,1-.29,0l-.28-.08-.27-.14a2.11,2.11,0,0,1-.23-.19,1.3,1.3,0,0,1-.18-.23,1.16,1.16,0,0,1-.14-.27,1.31,1.31,0,0,1-.09-.28,1.42,1.42,0,0,1,0-.58,1.31,1.31,0,0,1,.09-.28.87.87,0,0,1,.14-.27,1.3,1.3,0,0,1,.18-.23,2.11,2.11,0,0,1,.23-.19l.27-.14.28-.08a1.5,1.5,0,0,1,1.8,1.48,1.36,1.36,0,0,1,0,.29,2.29,2.29,0,0,1-.08.28c0,.09-.09.18-.14.27a2.11,2.11,0,0,1-.19.23A1.52,1.52,0,0,1,132.21,94Z"/><path class="cls-12" d="M90,26.47A1.55,1.55,0,0,1,89,26a2.11,2.11,0,0,1-.19-.23,2.15,2.15,0,0,1-.14-.26c0-.09-.06-.19-.08-.28a1.5,1.5,0,0,1,0-.29A1.53,1.53,0,0,1,89,23.88a1.57,1.57,0,0,1,2.14,0A1.56,1.56,0,0,1,91.55,25,1.54,1.54,0,0,1,90,26.47Z"/><path class="cls-12" d="M115.88,51a1.52,1.52,0,0,1,.53-2.07h0a1.52,1.52,0,0,1,2.08.54h0a1.52,1.52,0,0,1-.53,2.07h0a1.57,1.57,0,0,1-.77.21h0A1.54,1.54,0,0,1,115.88,51Zm-4-6.2a1.52,1.52,0,0,1,.34-2.11h0a1.51,1.51,0,0,1,2.11.33h0a1.51,1.51,0,0,1-.35,2.12h0a1.48,1.48,0,0,1-.87.28h0A1.48,1.48,0,0,1,111.84,44.75ZM107.19,39h0a1.53,1.53,0,0,1,.1-2.14h0a1.53,1.53,0,0,1,2.14.09h0a1.53,1.53,0,0,1-.1,2.14h0a1.5,1.5,0,0,1-1,.4h0A1.54,1.54,0,0,1,107.19,39Zm-5.28-5.1a1.51,1.51,0,0,1-.19-2.14h0a1.53,1.53,0,0,1,2.13-.18h0a1.52,1.52,0,0,1,.19,2.13h0a1.52,1.52,0,0,1-1.16.54h0A1.52,1.52,0,0,1,101.91,33.93ZM96,29.65a1.53,1.53,0,0,1-.5-2.09h0a1.52,1.52,0,0,1,2.08-.49h0a1.51,1.51,0,0,1,.5,2.08h0a1.51,1.51,0,0,1-1.29.72h0A1.55,1.55,0,0,1,96,29.65Z"/><path class="cls-12" d="M120.75,58.36a1.54,1.54,0,0,1-1.07-.44,1.65,1.65,0,0,1-.41-.77,1.6,1.6,0,0,1,0-.3,1.41,1.41,0,0,1,.12-.58,1.3,1.3,0,0,1,.14-.26,1,1,0,0,1,.18-.22,1.55,1.55,0,0,1,2.14,0A1,1,0,0,1,122,56a2.15,2.15,0,0,1,.14.26,1,1,0,0,1,.08.28,1.53,1.53,0,0,1,0,.3,1.6,1.6,0,0,1,0,.3.9.9,0,0,1-.08.28,2.15,2.15,0,0,1-.14.26,1.37,1.37,0,0,1-.19.23A1.52,1.52,0,0,1,120.75,58.36Z"/><path class="cls-11" d="M59.79,10.82l18.48,1.82c24.23,6.71,45.25,68.86,46.56,131,1.31,61.7-14.63,124.91-39.67,133.61l-19.6,2.13"/><ellipse class="cls-2" cx="61.7" cy="145.11" rx="51.69" ry="134.32" transform="matrix(1, -0.02, 0.02, 1, -3.05, 1.34)"/><path class="cls-2" d="M83.57,144.63c1,49.52-12.91,90-29.67,90.32s-30-39.52-31-89S33.34,56,50.11,55.64,82.52,95.11,83.57,144.63Z"/><path class="cls-2" d="M143.89,96.91l-6.35-17L128.59,85c-2.91,1.69-3.9,6.92-1.84,11.28s5.66,5.77,9,4.57Z"/><ellipse class="cls-11" cx="140.71" cy="88.39" rx="6.95" ry="9.09" transform="translate(-21.67 53.11) rotate(-19.88)"/><path class="cls-2" d="M143.77,186l-2.48,16.59-9.41-2.78c-3.07-.93-5.06-5.43-4-9.77s4.12-6.31,7.46-5.9Z"/><ellipse class="cls-11" cx="142.53" cy="194.28" rx="8.39" ry="6.65" transform="translate(-72.59 302.81) rotate(-80.51)"/><path class="cls-2" d="M42.12,258.34l-.1-.13c-1.18-1.48-2.34-3.1-3.46-4.83v0l.62-15.23h0a43.09,43.09,0,0,0,3,3.73l.09.13Zm3.68,4.11v0L45.43,245h0a22.27,22.27,0,0,0,3.33,2.32h0l0,0h0l1,18.43h0v0l0,0a33.9,33.9,0,0,1-3.94-3.35ZM35.36,248v0c-1-1.87-2-3.87-3-5.93v0l1.41-13v0c.83,1.67,1.7,3.28,2.59,4.77h0l0,.05h0v0ZM53.9,268.22v0l-1.65-19.36h0a13.58,13.58,0,0,0,3.61.56h0v0l2.39,20.19v0a18.77,18.77,0,0,1-4.36-1.36ZM29.68,235.71v0c-.85-2.15-1.69-4.41-2.48-6.72v0h0l2-10.75v0c.71,1.93,1.45,3.81,2.2,5.6v0Zm1.71-11.88h0Zm0,0v0Zm31.4,46-3.21-20.84h0a16.08,16.08,0,0,0,3.76-1.57v-.07l0,.06h0v0l4.07,21.16h0v.05a17.14,17.14,0,0,1-4.64,1.15ZM25,222h0c-.7-2.35-1.37-4.78-2-7.24v0l2.42-8.62v0c.57,2.12,1.18,4.2,1.81,6.19l0,.08,0,0Zm2.21-9.71v0Zm45,53.74v0l-5-21.37h0a33,33,0,0,0,3.73-4l0,0h0l6,21.21h0v0A32.82,32.82,0,0,1,72.14,266Zm-51-58.69v0h0v0c-.55-2.47-1.08-5-1.56-7.56v0l2.72-6.61v0c.44,2.22.92,4.43,1.42,6.57h0v0h0v0h0Zm60.3,48.75v0l-7-20.71v0A67.26,67.26,0,0,0,78,228.71l0,0v0l8,19.81h0l0,0a71.76,71.76,0,0,1-4.46,7.48ZM19.35,191.35h0v0c-.42-2.57-.92-5.91-1.27-8.52L20,179.47v0c.33,2.3.69,4.61,1.07,6.85v0h0Zm1.71-5v0Zm69.08,53,0,0-9-18.49v0c1-2.85,2-5.93,2.92-9.13v0h0l0-.12v.16L94,228.41v0c-1.2,3.86-2.49,7.53-3.84,10.89Zm3.83-11,0,0Zm-77.12-52v0h0c-.29-2.62-.55-5.28-.77-7.91v0h0l2.33-2.91v0c.21,2.34.44,4.69.71,7v.06ZM97.34,216l0,0-10.7-14.52v0c.77-3.6,1.47-7.4,2.08-11.29l0,0,11.4,11.9,0,.08c-.8,4.79-1.74,9.46-2.77,13.88ZM15.52,159.77v0c-.16-2.64-.29-5.32-.39-8v0h0l2.39-.36v0c.09,2.35.21,4.72.36,7.06l0,0,0,0h0ZM102.22,187l0,0-11.93-9V178c.44-4.14.78-8.43,1-12.74v-.06h0L103.59,171V171h0c-.32,5.42-.78,10.79-1.36,16Zm-87.3-42.42v0c0-2.62-.05-5.29,0-7.92v0l2.41.6v0c0,2.35,0,4.73,0,7.06h0v.06Zm76.81,7.53v-.05c0-4.4,0-8.86-.15-13.27v-.05h0l12.37-.9v.06c.2,5.48.27,11.08.21,16.65v0ZM17.45,130.24l-2.38-1.46,0,.1v-.1h0v0c.08-2.62.2-5.27.34-7.86v0h0l2.37,2.31v0c-.14,2.3-.24,4.65-.32,7v0h0Zm73.4-4.49v0c-.34-4.28-.77-8.57-1.3-12.72v-.07l0,0,11.63-7.4v.05c.71,5.19,1.3,10.55,1.76,15.92v.05h0Zm-72.59-9.44h0l-2.34-2.43v0c.2-2.58.44-5.17.71-7.73v0h0l2.28,3.3v0c-.24,2.23-.46,4.52-.65,6.8h0Zm69.47-15.44v0c-.69-3.88-1.46-7.68-2.3-11.3v-.08L95.66,76.59v.06c1.12,4.42,2.16,9.08,3.08,13.86v0l0,0Zm-68,1.9v0l-2.2-4.2v0c.34-2.52.71-5,1.11-7.51v0l2.11,5.12v0c-.36,2.15-.7,4.37-1,6.59ZM82.71,79.25v0c-1-3.21-2-6.31-3-9.18h0l0,0v0h0l8.41-16.76v0s0,0,0,0v0h0c1.4,3.4,2.74,7.08,4,10.92v0ZM22,89.72v0l-2-6v-.07h0v0c.47-2.43,1-4.84,1.5-7.16v0l1.86,7v0c-.48,2-.94,4.14-1.37,6.25ZM76.32,62v0c-1.14-2.44-2.33-4.71-3.53-6.77v-.06h0l6.44-19h0v0a79.11,79.11,0,0,1,4.51,7.7h0l0,.05ZM24.88,77.42h0l-2.08-7.13v0h0c.61-2.29,1.25-4.55,1.92-6.73v0l1.9,8.12v0c-.61,1.86-1.19,3.8-1.74,5.77h0ZM69.14,49.71v0a39.42,39.42,0,0,0-3.72-4.28l-.06,0,.05,0,4.52-19.75h0a38.4,38.4,0,0,1,4.66,4.51h0v.05ZM28.49,66.34l.05-.22-2-9.85v0h0c.76-2.12,1.55-4.18,2.37-6.13v0L30.69,61h0c-.73,1.63-1.44,3.36-2.12,5.15h0Zm33.18-24h0a19,19,0,0,0-3.59-1.91h0l-.13,0v0h0l.66-4.62h0l2.14-14.79h0a19.94,19.94,0,0,1,4.54,1.65h0v.05ZM33,56.27v0L31.48,43.6l0,0c.91-1.86,1.87-3.65,2.84-5.31h0v0l1.15,13.66h0c-.85,1.34-1.7,2.78-2.5,4.3ZM54.34,39.49h0a13,13,0,0,0-3.52.12h0v0l1.35-18.23h0a17.06,17.06,0,0,1,4.22-.78h0v0ZM38.19,48.2h0l-.07.05.07-.1-.77-14.63h0v0a52,52,0,0,1,3.33-4.17h0v0L41.1,45h0a33.17,33.17,0,0,0-2.87,3.18h0Zm9.23-7.58h0a18.74,18.74,0,0,0-3.21,1.8h-.05l.16-16.57.06-.05a26.92,26.92,0,0,1,3.75-2.66h0v0Z"/><ellipse class="cls-2" cx="47.08" cy="147.63" rx="15.19" ry="40.62" transform="translate(-0.92 0.3) rotate(-0.36)"/><path class="cls-2" d="M26.79,94.67c-2.89-.1-5.31,1.61-5.38,3.27l-1,23.5,10.48.55,1-24.53C32,95.9,29.55,94.75,26.79,94.67Z"/><path class="cls-2" d="M26.91,197.11c-2.84,0-5.15-1.59-5.16-3l-.13-20.19,10.27-.08L32,194.9C32,196.25,29.61,197.13,26.91,197.11Z"/><path class="cls-2" d="M21.4,130.36,8.51,121.29a3.31,3.31,0,0,0-.84-.6h0c-2.3-1.12-5.3.6-6.7,3.85s-.67,6.78,1.63,7.9l13.29,8.79c2.11,1,4.57.14,6.15-2.84S23.23,131.67,21.4,130.36Z"/><path class="cls-2" d="M22.29,161.32l-9.41,13.82a4.58,4.58,0,0,1-.62.91h0c-1.85,2.06-5.32,2.16-7.76.22S1.58,171.11,3.43,169l9.89-13.8a5.16,5.16,0,0,1,6.89-.77C22.74,156.1,23.62,159.33,22.29,161.32Z"/><path class="cls-2" d="M42.42,121.93,13.55,120.4l.36,55,29.53-2c6.16-1.2,11.08-11.18,11-26.37S48,122.86,42.42,121.93Z"/><ellipse class="cls-2" cx="13.73" cy="147.9" rx="10.84" ry="27.5" transform="translate(-0.92 0.09) rotate(-0.36)"/><ellipse class="cls-2" cx="13.12" cy="147.9" rx="6.93" ry="17.58" transform="translate(-0.92 0.08) rotate(-0.36)"/><path class="cls-2" d="M51.5,129.41l-5-13L32.61,126.83c-1.86,1.42-2.28,5.52-.71,8.82s4,4.27,6.15,3.21Z"/><ellipse class="cls-2" cx="49.01" cy="122.92" rx="4.68" ry="6.99" transform="translate(-31.7 18.05) rotate(-15.84)"/><path class="cls-2" d="M51,164.67l-4.64,12.46-13.55-9.71C31,166.1,30.55,162.2,32,159s3.82-4.12,5.9-3.15Z"/><ellipse class="cls-2" cx="48.69" cy="170.9" rx="6.67" ry="4.51" transform="translate(-129.01 171.56) rotate(-74.31)"/><ellipse class="cls-9" cx="149.53" cy="302.63" rx="98.58" ry="12.37"/></g></g></g></svg>