<svg xmlns="http://www.w3.org/2000/svg" viewBox="0 0 287.68 312.74"><defs><style>.cls-1{isolation:isolate;}.cls-11,.cls-2{fill:#e9e6e5;}.cls-12,.cls-13,.cls-2,.cls-3,.cls-5,.cls-9{stroke:#46332d;stroke-linecap:round;stroke-linejoin:round;stroke-width:0.5px;}.cls-3{fill:#c7c1c0;}.cls-14,.cls-4{fill:#46332d;}.cls-4{opacity:0.5;}.cls-5{fill:none;}.cls-6,.cls-8{fill:#908581;}.cls-13,.cls-7{fill:#a89e9b;}.cls-10,.cls-8{mix-blend-mode:multiply;}.cls-9{fill:#fff7e5;}.cls-12{fill:#fff;}</style></defs><title>HP_HB_mobileAsset 42</title><g class="cls-1"><g id="Layer_2" data-name="Layer 2"><g id="Layer_1-2" data-name="Layer 1"><circle class="cls-2" cx="148.33" cy="139.35" r="139.1"/><circle class="cls-3" cx="148.33" cy="139.35" r="125.9"/><circle class="cls-3" cx="148.33" cy="139.35" r="120.13"/><circle class="cls-4" cx="148.33" cy="139.35" r="102.1"/><circle class="cls-5" cx="148.33" cy="139.35" r="102.1"/><path class="cls-3" d="M148.39,253h-.06c-.89,0-1.79,0-2.68,0l.15-6.71c.84,0,1.69,0,2.53,0Zm11-.53-.64-6.68c.86-.08,1.71-.17,2.56-.28l.81,6.67C161.17,252.25,160.26,252.35,159.35,252.43Zm-24.65-.28c-.91-.11-1.81-.23-2.71-.36l.95-6.64,2.56.34Zm38.2-1.85-1.45-6.56c.84-.18,1.68-.38,2.52-.58l1.6,6.51C174.69,249.89,173.79,250.1,172.9,250.3Zm-51.69-.6c-.89-.21-1.78-.44-2.66-.68l1.76-6.48c.83.22,1.66.44,2.49.64Zm64.88-3.16-2.23-6.33,2.43-.89,2.38,6.27C187.81,245.92,187,246.23,186.09,246.54Zm-78-.91c-.86-.32-1.72-.66-2.56-1l2.52-6.22,2.42,1Zm90.62-4.43-3-6c.78-.39,1.54-.78,2.3-1.18l3.13,5.94C200.36,240.38,199.55,240.79,198.73,241.2ZM95.59,240c-.81-.42-1.62-.86-2.42-1.3l3.26-5.87,2.28,1.23Zm115-5.62-3.68-5.61q1.08-.71,2.13-1.44l3.83,5.52C212.14,233.37,211.39,233.88,210.62,234.38ZM83.85,232.9c-.76-.52-1.5-1.05-2.25-1.59l4-5.43c.7.51,1.4,1,2.11,1.49Zm137.76-6.72-4.33-5.13c.65-.56,1.31-1.12,1.95-1.69l4.45,5Q222.66,225.3,221.61,226.18ZM73.05,224.44c-.69-.61-1.36-1.22-2-1.84l4.57-4.92c.63.58,1.27,1.16,1.92,1.73Zm158.49-7.73-4.92-4.57,1.74-1.91,5,4.45C232.77,215.36,232.16,216,231.54,216.71Zm-168.2-2-1.79-2.07,5.12-4.34c.56.66,1.12,1.31,1.69,1.95Zm176.92-8.62-5.43-4c.51-.69,1-1.39,1.49-2.1l5.53,3.81Q241.07,205,240.26,206.13ZM54.87,204c-.52-.75-1-1.51-1.53-2.27L59,198c.47.72.95,1.43,1.44,2.14Zm192.78-9.39-5.87-3.27q.63-1.12,1.23-2.28l6,3.13C248.53,193,248.09,193.77,247.65,194.57ZM47.76,192.24c-.43-.81-.84-1.62-1.25-2.44l6-3c.39.77.78,1.53,1.18,2.29Zm205.83-10-6.22-2.54c.33-.8.64-1.6.95-2.41l6.28,2.38C254.27,180.49,253.93,181.35,253.59,182.2ZM42.11,179.74c-.32-.85-.64-1.71-.94-2.58l6.33-2.23c.29.81.58,1.62.89,2.43ZM258,169.19l-6.48-1.76c.23-.83.44-1.66.65-2.5l6.52,1.6C258.45,167.42,258.22,168.31,258,169.19ZM38,166.65c-.22-.89-.42-1.78-.62-2.68L44,162.53c.19.84.38,1.68.59,2.51Zm222.75-10.89-6.65-1c.12-.85.24-1.7.34-2.55l6.67.79C261,154,260.9,154.85,260.77,155.76Zm-225.22-2.6q-.16-1.36-.3-2.73l6.69-.65c.08.86.17,1.71.28,2.57Zm226.36-11.07-6.71-.16q0-1.29,0-2.58v-.23h6.71v.2C261.94,140.27,261.93,141.18,261.91,142.09ZM34.72,139.47v-.12c0-.88,0-1.75,0-2.62l6.71.15c0,.82,0,1.64,0,2.47Zm220-10.66c-.09-.86-.18-1.71-.29-2.57l6.67-.81c.11.9.21,1.81.3,2.72ZM42.19,126.57l-6.67-.79c.11-.91.23-1.82.36-2.72l6.65,1C42.4,124.87,42.29,125.72,42.19,126.57Zm210.5-10.5c-.19-.84-.39-1.68-.59-2.52l6.51-1.61q.33,1.34.63,2.67Zm-208.2-2.19L38,112.29c.21-.9.44-1.78.68-2.66l6.48,1.75C44.91,112.21,44.69,113,44.49,113.88Zm204.64-10.21c-.29-.82-.59-1.62-.89-2.43l6.27-2.39c.33.85.64,1.71,1,2.58ZM48.31,101.55,42,99.18c.32-.86.66-1.71,1-2.56l6.22,2.52C48.93,99.94,48.61,100.75,48.31,101.55Zm195.78-9.76c-.38-.77-.77-1.54-1.18-2.3l5.94-3.13c.43.81.84,1.62,1.25,2.43Zm-190.49-2-6-3.12c.43-.81.87-1.62,1.31-2.42l5.87,3.26Q54.2,88.63,53.6,89.78ZM237.65,80.6q-.71-1.06-1.44-2.13l5.52-3.83c.52.75,1,1.51,1.54,2.28ZM60.28,78.73l-5.53-3.82c.52-.75,1-1.5,1.59-2.24l5.43,3.94C61.26,77.31,60.77,78,60.28,78.73Zm169.64-8.45c-.56-.66-1.12-1.31-1.69-2l5-4.46c.61.68,1.21,1.37,1.8,2.06ZM68.23,68.56l-5-4.45c.6-.68,1.22-1.36,1.84-2L70,66.64Q69.08,67.6,68.23,68.56ZM221,61l-1.92-1.74,4.45-5c.68.6,1.36,1.22,2,1.84ZM77.35,59.42l-4.46-5c.69-.61,1.38-1.2,2.07-1.79l4.34,5.11ZM211,52.76c-.69-.51-1.4-1-2.11-1.5l3.81-5.53c.76.53,1.5,1.05,2.24,1.59ZM87.5,51.44l-3.83-5.52q1.13-.78,2.28-1.53L89.63,50C88.92,50.47,88.2,51,87.5,51.44Zm112.63-5.62c-.75-.42-1.51-.83-2.27-1.23L201,38.65c.81.42,1.62.86,2.42,1.3ZM98.52,44.74,95.39,38.8c.81-.42,1.62-.84,2.44-1.25l3,6C100.05,44,99.28,44.34,98.52,44.74Zm90-4.49c-.8-.32-1.61-.64-2.41-.94L188.45,33c.86.32,1.71.65,2.56,1Zm-78.21-.82-2.4-6.28c.86-.32,1.72-.64,2.58-.94l2.24,6.32C111.89,38.82,111.08,39.12,110.28,39.43Zm66-3.29c-.83-.23-1.66-.44-2.5-.65L175.34,29l2.66.68Zm-53.66-.57L121,29.05l2.67-.62L125.11,35Zm41-2c-.85-.12-1.7-.24-2.56-.34l.79-6.66c.91.1,1.82.22,2.72.35Zm-28.33-.3-.81-6.66c.9-.11,1.81-.21,2.72-.3l.66,6.68Zm15.47-.76c-.8,0-1.61,0-2.42,0h-.17V25.74h.17c.86,0,1.72,0,2.57,0Z"/><circle class="cls-6" cx="148.33" cy="139.35" r="93.47"/><circle class="cls-7" cx="148.33" cy="139.35" r="93.47"/><path class="cls-8" d="M229.52,222.56c8.38,0,17.69-5.42,20.78-12l27-60.16c3.1-6.62-1.22-12-9.6-12H145.92c-8.38,0-17.76,5.41-20.86,12L96.93,210.52c-3.1,6.62,1.22,12,9.6,12Z"/><path class="cls-9" d="M162.73,80H114.5A18,18,0,0,0,97,96.11l-8.92,96.45a14.46,14.46,0,0,0,14.6,16.07h128.6a18,18,0,0,0,17.55-16.07l7.36-80.38a14.46,14.46,0,0,0-14.6-16.07h-64.3Z"/><path class="cls-9" d="M162.73,80H114.5A18,18,0,0,0,97,96.11l-8.92,96.45a14.46,14.46,0,0,0,14.6,16.07h128.6a18,18,0,0,0,17.55-16.07l7.36-80.38a14.46,14.46,0,0,0-14.6-16.07h-64.3Z"/><g class="cls-10"><path class="cls-11" d="M172.3,165.46c1.59-3.75.75-7.75-1.84-9.55a251.38,251.38,0,0,0,13-40.32c1.56-6.58,2.83-13.09,3.82-19.48h-10L162.73,80H113.58a14.87,14.87,0,0,0-8.41,2.85L89.09,180.34h68.72q2.91-4.59,5.61-9.64C166.68,171.75,170.58,169.5,172.3,165.46Z"/></g><path class="cls-12" d="M221.35,202.73c8.07,0,17-5.94,20-13.2l26.06-66c3-7.26-1.18-13.2-9.26-13.2H140.76c-8.07,0-17.12,5.94-20.1,13.2l-27.12,66c-3,7.26,1.18,13.2,9.26,13.2Z"/><g class="cls-10"><path class="cls-11" d="M179.22,179.89c1.59-3.75.75-7.75-1.84-9.55a251.38,251.38,0,0,0,13-40.32c1.56-6.58,2.83-13.09,3.82-19.48H124.1a24,24,0,0,0-8.41,1.65L96,194.77h68.72c1.93-3.06,3.81-6.27,5.61-9.64C173.6,186.18,177.5,183.93,179.22,179.89Z"/></g><path class="cls-9" d="M229.52,208.68c8.38,0,17.69-5.42,20.78-12l27-60.16c3.1-6.62-1.22-12-9.6-12H145.92c-8.38,0-17.76,5.41-20.86,12L96.93,196.64c-3.1,6.62,1.22,12,9.6,12Z"/><g class="cls-10"><path class="cls-11" d="M187.15,193.8c1.59-3.75.75-7.75-1.84-9.55a250.38,250.38,0,0,0,13-40.32c1.57-6.59,2.83-13.1,3.82-19.48H132a24,24,0,0,0-8.41,1.64L104,208.68h68.71q2.91-4.59,5.61-9.64C181.54,200.09,185.43,197.83,187.15,193.8Z"/></g><path class="cls-13" d="M66.13,11.45l35.35,17.13C125.6,39.43,145,85.79,146.2,142.28c1.19,56.07-13.46,100.26-41.2,115.51L71.41,276.38"/><path class="cls-14" d="M122.64,228.87l-.29,0a.77.77,0,0,1-.27-.08,1.15,1.15,0,0,1-.27-.14,1.37,1.37,0,0,1-.23-.19,1.52,1.52,0,0,1-.44-1.06,1.41,1.41,0,0,1,.12-.57,2.15,2.15,0,0,1,.14-.26,1.21,1.21,0,0,1,.41-.41,1.15,1.15,0,0,1,.27-.14,1.07,1.07,0,0,1,.27-.09,1.52,1.52,0,0,1,1.35.41,1.37,1.37,0,0,1,.19.23,2.15,2.15,0,0,1,.14.26,1,1,0,0,1,.08.28,1.5,1.5,0,0,1,0,.29,1.48,1.48,0,0,1-.44,1.06A1.5,1.5,0,0,1,122.64,228.87Z"/><path class="cls-14" d="M103.46,256.7a1.49,1.49,0,0,1-.08-2.12h0a1.49,1.49,0,0,1,2.12-.08h0a1.5,1.5,0,0,1,.08,2.12h0a1.5,1.5,0,0,1-1.1.48h0A1.51,1.51,0,0,1,103.46,256.7Zm5.54-6.35a1.5,1.5,0,0,1-.28-2.11h0a1.52,1.52,0,0,1,2.11-.28h0a1.52,1.52,0,0,1,.27,2.11h0a1.51,1.51,0,0,1-1.19.59h0A1.54,1.54,0,0,1,109,250.35Zm4.93-6.84a1.49,1.49,0,0,1-.46-2.07h0a1.5,1.5,0,0,1,2.07-.46h0a1.5,1.5,0,0,1,.46,2.07h0a1.51,1.51,0,0,1-1.27.7h0A1.49,1.49,0,0,1,113.93,243.51Zm4.34-7.22a1.51,1.51,0,0,1-.63-2h0a1.5,1.5,0,0,1,2-.62h0a1.51,1.51,0,0,1,.64,2h0a1.53,1.53,0,0,1-1.34.8h0A1.57,1.57,0,0,1,118.27,236.29Z"/><path class="cls-14" d="M98.45,263a1.36,1.36,0,0,1-.29,0,1.61,1.61,0,0,1-.54-.23,1.37,1.37,0,0,1-.23-.19,1.34,1.34,0,0,1-.33-.48c0-.09-.06-.19-.08-.28a1.53,1.53,0,0,1,0-.3,1.5,1.5,0,0,1,0-.29c0-.09,0-.19.08-.28a2.15,2.15,0,0,1,.14-.26l.19-.23a2,2,0,0,1,.23-.18,1.61,1.61,0,0,1,.54-.23,1.56,1.56,0,0,1,1.35.41,1.52,1.52,0,0,1,.44,1.06,1.52,1.52,0,0,1-1.5,1.51Z"/><path class="cls-14" d="M133,193.92a1.5,1.5,0,0,1-1.47-1.8c0-.09.06-.19.08-.28s.09-.17.14-.26a2,2,0,0,1,.19-.22,2.11,2.11,0,0,1,.23-.19l.26-.14.28-.08a1.5,1.5,0,1,1,.29,3Z"/><path class="cls-14" d="M125.52,220.3a1.5,1.5,0,0,1-.9-1.92h0a1.5,1.5,0,0,1,1.92-.9h0a1.49,1.49,0,0,1,.9,1.92h0a1.5,1.5,0,0,1-1.41,1h0A1.52,1.52,0,0,1,125.52,220.3Zm2.9-8.65a1.51,1.51,0,0,1-1-1.86h0a1.51,1.51,0,0,1,1.86-1h0a1.5,1.5,0,0,1,1,1.86h0a1.5,1.5,0,0,1-1.44,1.09h0A1.58,1.58,0,0,1,128.42,211.65Zm2.39-8.82a1.5,1.5,0,0,1-1.13-1.8h0a1.49,1.49,0,0,1,1.8-1.12h0a1.48,1.48,0,0,1,1.12,1.79h0a1.49,1.49,0,0,1-1.46,1.17h0A1.86,1.86,0,0,1,130.81,202.83Z"/><path class="cls-14" d="M122.64,228.87l-.29,0a.77.77,0,0,1-.27-.08,1.15,1.15,0,0,1-.27-.14,1.37,1.37,0,0,1-.23-.19,1.52,1.52,0,0,1-.44-1.06,1.41,1.41,0,0,1,.12-.57,2.15,2.15,0,0,1,.14-.26,1.21,1.21,0,0,1,.41-.41,1.15,1.15,0,0,1,.27-.14,1.07,1.07,0,0,1,.27-.09,1.52,1.52,0,0,1,1.35.41,1.37,1.37,0,0,1,.19.23,2.15,2.15,0,0,1,.14.26,1,1,0,0,1,.08.28,1.5,1.5,0,0,1,0,.29,1.48,1.48,0,0,1-.44,1.06A1.5,1.5,0,0,1,122.64,228.87Z"/><path class="cls-14" d="M133.59,188.8a1.5,1.5,0,0,1-1.26-1.71h0a1.49,1.49,0,0,1,1.71-1.25h0a1.48,1.48,0,0,1,1.25,1.7h0a1.49,1.49,0,0,1-1.48,1.28h0Zm1.55-11.9a1.49,1.49,0,0,1-1.35-1.63h0a1.5,1.5,0,0,1,1.64-1.35h0a1.51,1.51,0,0,1,1.35,1.63h0a1.5,1.5,0,0,1-1.5,1.36h-.14Zm.94-12a1.5,1.5,0,0,1-1.44-1.57h0a1.51,1.51,0,0,1,1.57-1.43h0a1.51,1.51,0,0,1,1.43,1.57h0a1.5,1.5,0,0,1-1.5,1.43h-.06Zm.37-12a1.5,1.5,0,0,1-1.49-1.51h0a1.49,1.49,0,0,1,1.51-1.49h0a1.49,1.49,0,0,1,1.49,1.51h0a1.5,1.5,0,0,1-1.5,1.49h0Zm-1.64-13.45a1.48,1.48,0,0,1,1.44-1.55h0a1.53,1.53,0,0,1,1.56,1.45h0a1.52,1.52,0,0,1-1.47,1.55h0A1.49,1.49,0,0,1,134.81,139.5Zm-.58-11.94a1.51,1.51,0,0,1,1.4-1.59h0a1.49,1.49,0,0,1,1.59,1.4h0a1.49,1.49,0,0,1-1.39,1.59h-.1A1.5,1.5,0,0,1,134.23,127.56Zm-1-11.89a1.49,1.49,0,0,1,1.35-1.65h0a1.48,1.48,0,0,1,1.63,1.34h0a1.48,1.48,0,0,1-1.33,1.64h-.16A1.5,1.5,0,0,1,133.23,115.67Zm-1.49-11.84a1.49,1.49,0,0,1,1.26-1.7h0a1.5,1.5,0,0,1,1.71,1.26h0a1.5,1.5,0,0,1-1.27,1.7h0l-.22,0h0A1.5,1.5,0,0,1,131.74,103.83Zm-2.06-11.74a1.51,1.51,0,0,1,1.17-1.77h0a1.5,1.5,0,0,1,1.77,1.17h0a1.5,1.5,0,0,1-1.17,1.77h0a1.53,1.53,0,0,1-.3,0h0A1.51,1.51,0,0,1,129.68,92.09Z"/><path class="cls-14" d="M119.78,58a1.52,1.52,0,0,1-1.06-.44,1.65,1.65,0,0,1-.41-.77,1.5,1.5,0,0,1,0-.29,1.41,1.41,0,0,1,.12-.58,1.3,1.3,0,0,1,.14-.26,1,1,0,0,1,.18-.22,1.55,1.55,0,0,1,2.12,0,1,1,0,0,1,.19.22,2.15,2.15,0,0,1,.14.26,1,1,0,0,1,.08.28,1.53,1.53,0,0,1,0,.3,1.5,1.5,0,0,1,0,.29.9.9,0,0,1-.08.28,2.15,2.15,0,0,1-.14.26,1.37,1.37,0,0,1-.19.23A1.5,1.5,0,0,1,119.78,58Z"/><path class="cls-14" d="M127.63,83.08a1.52,1.52,0,0,1,1.09-1.83h0a1.51,1.51,0,0,1,1.82,1.09h0a1.5,1.5,0,0,1-1.08,1.82h0a1.64,1.64,0,0,1-.37,0h0A1.52,1.52,0,0,1,127.63,83.08Zm-2.5-8.88a1.49,1.49,0,0,1,1-1.87h0a1.5,1.5,0,0,1,1.88,1h0a1.49,1.49,0,0,1-1,1.88h0a1.76,1.76,0,0,1-.45.07h0A1.51,1.51,0,0,1,125.13,74.2Zm-3-8.68a1.5,1.5,0,0,1,.86-1.94h0a1.5,1.5,0,0,1,1.94.85h0a1.5,1.5,0,0,1-.85,1.94h0a1.54,1.54,0,0,1-.55.11h0A1.52,1.52,0,0,1,122.09,65.52Z"/><path class="cls-14" d="M131.15,93.29a1.43,1.43,0,0,1-.29,0l-.28-.08a1.48,1.48,0,0,1-.25-.14,1.55,1.55,0,0,1-.24-.19,1.65,1.65,0,0,1-.41-.77,1.42,1.42,0,0,1,0-.58,1.69,1.69,0,0,1,.41-.77,1.55,1.55,0,0,1,.24-.19,1.48,1.48,0,0,1,.25-.14l.28-.08a1.5,1.5,0,0,1,1.79,1.47,1.36,1.36,0,0,1,0,.29,1.29,1.29,0,0,1-.08.28,2.15,2.15,0,0,1-.14.26,2.11,2.11,0,0,1-.19.23A1.48,1.48,0,0,1,131.15,93.29Z"/><path class="cls-14" d="M89.31,26.28a1.5,1.5,0,0,1-1.06-.44,2.11,2.11,0,0,1-.19-.23,2.15,2.15,0,0,1-.14-.26c0-.09-.06-.19-.08-.28s0-.2,0-.29a1.52,1.52,0,0,1,.44-1.07,1.57,1.57,0,0,1,2.12,0,1.54,1.54,0,0,1,.44,1.07,1.5,1.5,0,0,1-1.5,1.5Z"/><path class="cls-14" d="M115,50.59a1.51,1.51,0,0,1,.53-2.06h0a1.5,1.5,0,0,1,2.06.54h0a1.5,1.5,0,0,1-.53,2h0a1.5,1.5,0,0,1-.76.21h0A1.51,1.51,0,0,1,115,50.59Zm-4-6.16a1.5,1.5,0,0,1,.34-2.09h0a1.49,1.49,0,0,1,2.09.33h0a1.5,1.5,0,0,1-.34,2.1h0a1.48,1.48,0,0,1-.87.28h0A1.48,1.48,0,0,1,110.94,44.43Zm-4.61-5.68h0a1.51,1.51,0,0,1,.1-2.12h0a1.51,1.51,0,0,1,2.13.09h0a1.51,1.51,0,0,1-.11,2.12h0a1.45,1.45,0,0,1-1,.4h0A1.52,1.52,0,0,1,106.33,38.75Zm-5.24-5.06a1.51,1.51,0,0,1-.19-2.12h0a1.51,1.51,0,0,1,2.12-.18h0a1.5,1.5,0,0,1,.18,2.11h0a1.48,1.48,0,0,1-1.14.54h0A1.52,1.52,0,0,1,101.09,33.69ZM95.2,29.44a1.52,1.52,0,0,1-.5-2.07h0a1.51,1.51,0,0,1,2.07-.49h0a1.49,1.49,0,0,1,.49,2.06h0a1.5,1.5,0,0,1-1.28.72h0A1.51,1.51,0,0,1,95.2,29.44Z"/><path class="cls-14" d="M119.78,58a1.52,1.52,0,0,1-1.06-.44,1.65,1.65,0,0,1-.41-.77,1.5,1.5,0,0,1,0-.29,1.41,1.41,0,0,1,.12-.58,1.3,1.3,0,0,1,.14-.26,1,1,0,0,1,.18-.22,1.55,1.55,0,0,1,2.12,0,1,1,0,0,1,.19.22,2.15,2.15,0,0,1,.14.26,1,1,0,0,1,.08.28,1.53,1.53,0,0,1,0,.3,1.5,1.5,0,0,1,0,.29.9.9,0,0,1-.08.28,2.15,2.15,0,0,1-.14.26,1.37,1.37,0,0,1-.19.23A1.5,1.5,0,0,1,119.78,58Z"/><path class="cls-13" d="M59.32,10.75l18.33,1.8c24,6.67,44.88,68.36,46.19,130,1.29,61.24-14.52,124-39.36,132.65L65,277.35"/><ellipse class="cls-2" cx="61.21" cy="144.07" rx="51.28" ry="133.35" transform="translate(-3.03 1.32) rotate(-1.21)"/><path class="cls-2" d="M82.9,143.59c1,49.17-12.8,89.33-29.43,89.68S23.71,194,22.67,144.86s10.41-89.27,27-89.62S81.86,94.43,82.9,143.59Z"/><path class="cls-2" d="M142.74,96.21l-6.3-16.91-8.88,5.06c-2.89,1.67-3.87,6.86-1.82,11.19s5.61,5.73,8.88,4.54Z"/><ellipse class="cls-13" cx="139.59" cy="87.76" rx="6.9" ry="9.03" transform="translate(-21.49 52.53) rotate(-19.82)"/><path class="cls-2" d="M142.62,184.65l-2.46,16.47-9.34-2.76c-3-.92-5-5.39-4-9.7s4.09-6.27,7.4-5.86Z"/><ellipse class="cls-13" cx="141.39" cy="192.88" rx="8.33" ry="6.6" transform="translate(-72.11 300.65) rotate(-80.54)"/><path class="cls-2" d="M41.79,256.49l-.11-.13c-1.16-1.47-2.31-3.08-3.42-4.79v0l.62-15.13v0a43.85,43.85,0,0,0,3,3.69l.09.14Zm3.65,4.08v0l-.38-17.3h0a21.88,21.88,0,0,0,3.3,2.3h0l0,.06h0l1,18.29h0v0a32.53,32.53,0,0,1-3.91-3.32ZM35.08,246.2v0c-1-1.86-2-3.84-2.94-5.88v-.05l1.4-12.88v0c.83,1.66,1.69,3.26,2.57,4.74h0l0,0h0v0Zm18.39,20.1v0L51.84,247h0a13.42,13.42,0,0,0,3.58.56h0v0l2.38,20.05,0,0a18.92,18.92,0,0,1-4.32-1.35ZM29.44,234v0c-.84-2.13-1.67-4.38-2.45-6.67v0l2-10.67v0c.7,1.92,1.43,3.79,2.18,5.56v.05Zm1.7-11.8Zm0,0v0Zm31.15,45.63-3.19-20.69h0a16.2,16.2,0,0,0,3.72-1.56v-.08l0,.07h0v0l4,21h0v.06a17.48,17.48,0,0,1-4.61,1.14ZM24.76,220.39h0c-.69-2.33-1.36-4.75-2-7.18v-.05l2.4-8.55v0c.57,2.1,1.17,4.16,1.8,6.14l0,.08,0,0Zm2.2-9.64v0ZM71.55,264.1v0l-5-21.21h0a33.44,33.44,0,0,0,3.71-4v0l5.94,21.06h0l0,0a32.26,32.26,0,0,1-4.66,4.12ZM21,205.84v-.06c-.54-2.44-1.06-5-1.55-7.5v0h0l2.7-6.56v0c.44,2.2.92,4.39,1.41,6.52h0v.05h0v0Zm59.81,48.39v0l-6.92-20.56v0a68.44,68.44,0,0,0,3.44-6.54l0,0v0l7.91,19.67h0l0,0a69.93,69.93,0,0,1-4.42,7.42ZM19.2,190h0v0c-.41-2.55-.9-5.87-1.25-8.46l1.9-3.3v0c.32,2.29.67,4.58,1,6.81v0h0Zm1.69-5v0Zm68.53,52.66,0,0-8.88-18.35,0,0c1-2.83,2-5.88,2.89-9.06v0h0l0-.11v.15l9.78,16.59v0c-1.19,3.83-2.47,7.48-3.81,10.82Zm3.8-10.88,0,0Zm-76.5-51.63v0h0c-.28-2.59-.54-5.24-.76-7.85v0h0l2.3-2.89v0c.2,2.31.44,4.65.7,6.94v.05Zm79.84,39.31,0,0L85.93,200v0c.77-3.57,1.46-7.34,2.06-11.2l0,0,11.31,11.81,0,.08c-.8,4.76-1.72,9.4-2.75,13.79ZM15.39,158.63v0c-.16-2.62-.29-5.28-.39-7.92v0h0l2.37-.36v0c.09,2.33.21,4.68.36,7l0,0,0,0h0Zm86,27.07,0,0-11.83-8.91v0c.43-4.12.78-8.38,1-12.66v0h0l12.18,5.75v.05h0c-.32,5.38-.77,10.71-1.35,15.84ZM14.8,143.58v0c0-2.61,0-5.25,0-7.87v0l2.39.59v0c0,2.33,0,4.69,0,7h0v.05ZM91,151.06V151c0-4.37,0-8.8-.15-13.17v-.06h0l12.27-.89v.06c.2,5.44.27,11,.2,16.53v.05ZM17.32,129.3,15,127.86v0h0v0c.08-2.61.2-5.23.34-7.8v0h0l2.35,2.29v0c-.13,2.28-.24,4.61-.32,6.94v0h0Zm72.81-4.45v0c-.34-4.25-.77-8.5-1.29-12.63v-.07l0,0,11.55-7.34v.05c.71,5.15,1.29,10.47,1.75,15.8v0h0Zm-72-9.37h0l-2.31-2.41v0c.2-2.55.44-5.13.71-7.67v0h0l2.26,3.28v0c-.24,2.21-.46,4.48-.65,6.75h0ZM87,100.15v0c-.68-3.85-1.45-7.63-2.28-11.22l0-.05,0,0L94.9,76v.06c1.11,4.39,2.14,9,3,13.76v0l0,0ZM19.6,102v0l-2.18-4.18v0c.34-2.5.71-5,1.1-7.45v0l2.1,5.08v0c-.36,2.13-.7,4.34-1,6.54ZM82.05,78.69v0c-1-3.19-2-6.26-3-9.11h0l0,0,0,0h0L87.35,52.8v.07h0c1.39,3.38,2.72,7,4,10.84v0ZM21.78,89.08v0l-2-6V83h0v0c.46-2.41,1-4.8,1.48-7.11v0h0l1.84,6.9v0c-.48,2-.94,4.11-1.36,6.21Zm53.93-27.5v0c-1.13-2.43-2.31-4.68-3.5-6.73v-.06h0l6.39-18.85h0a84.79,84.79,0,0,1,4.48,7.64v.06Zm-51,15.29v0h0l-2.07-7.09v0h0c.6-2.28,1.24-4.52,1.91-6.69v0l1.89,8.06v0c-.6,1.85-1.18,3.77-1.73,5.72h0ZM68.59,49.36l0,0a37.77,37.77,0,0,0-3.68-4.25L64.83,45l0,0L69.36,25.4h0A37.76,37.76,0,0,1,74,29.89l0,0v0ZM28.27,65.86l.05-.21-2-9.78v0h0c.75-2.1,1.54-4.16,2.35-6.09v0l1.79,10.81v0c-.73,1.62-1.43,3.33-2.11,5.1h0ZM61.18,42h0a18.07,18.07,0,0,0-3.56-1.89h0l-.13,0v0h0l.66-4.58h0l2.12-14.69h0a19.57,19.57,0,0,1,4.5,1.63h0v.05ZM32.73,55.87v0L31.23,43.28l0,0c.9-1.84,1.85-3.62,2.82-5.27h0v0l1.15,13.56h0c-.85,1.33-1.69,2.76-2.49,4.27ZM53.9,39.21h0a13.13,13.13,0,0,0-3.49.11l0,0v-.05l1.33-18.1h0a16.81,16.81,0,0,1,4.19-.77h0v0Zm-16,8.64h0l-.08,0,.08-.11-.77-14.52h0l0,0a45.57,45.57,0,0,1,3.3-4.13h0v0l.33,15.53h0a31.54,31.54,0,0,0-2.86,3.16h0ZM47,40.33h0a18.37,18.37,0,0,0-3.18,1.78H43.8L44,25.66l.06-.05A26.17,26.17,0,0,1,47.74,23h0v0Z"/><ellipse class="cls-2" cx="46.71" cy="146.57" rx="15.07" ry="40.33" transform="translate(-0.92 0.3) rotate(-0.36)"/><path class="cls-2" d="M26.58,94c-2.87-.09-5.27,1.61-5.34,3.25l-1,23.33,10.39.55,1-24.36C31.74,95.21,29.32,94.08,26.58,94Z"/><path class="cls-2" d="M26.69,195.69c-2.81,0-5.1-1.57-5.11-3l-.13-20.05,10.19-.08.13,20.92C31.78,194.84,29.37,195.72,26.69,195.69Z"/><path class="cls-2" d="M21.23,129.42l-12.78-9a3.27,3.27,0,0,0-.84-.59h0c-2.28-1.11-5.25.6-6.64,3.82s-.67,6.74,1.61,7.85l13.18,8.73c2.1,1,4.53.13,6.1-2.82S23.05,130.73,21.23,129.42Z"/><path class="cls-2" d="M22.11,160.16l-9.33,13.73a4.46,4.46,0,0,1-.61.9h0c-1.83,2.05-5.28,2.15-7.7.23s-2.89-5.14-1.06-7.19l9.81-13.7a5.13,5.13,0,0,1,6.84-.77C22.56,155,23.44,158.19,22.11,160.16Z"/><path class="cls-2" d="M42.08,121.06l-28.63-1.52.35,54.6,29.3-2c6.1-1.2,11-11.11,10.88-26.18S47.57,122,42.08,121.06Z"/><ellipse class="cls-2" cx="13.62" cy="146.84" rx="10.76" ry="27.3" transform="translate(-0.91 0.09) rotate(-0.36)"/><ellipse class="cls-2" cx="13.02" cy="146.84" rx="6.88" ry="17.45" transform="translate(-0.91 0.08) rotate(-0.36)"/><path class="cls-2" d="M51.09,128.48l-4.94-12.89-13.8,10.33c-1.84,1.41-2.26,5.48-.7,8.76s4,4.23,6.1,3.19Z"/><ellipse class="cls-2" cx="48.62" cy="122.04" rx="4.64" ry="6.94" transform="translate(-31.41 17.86) rotate(-15.81)"/><path class="cls-2" d="M50.6,163.49,46,175.86l-13.44-9.64c-1.8-1.31-2.25-5.18-.8-8.33s3.79-4.1,5.85-3.14Z"/><ellipse class="cls-2" cx="48.3" cy="169.68" rx="6.62" ry="4.47" transform="matrix(0.27, -0.96, 0.96, 0.27, -128.11, 170.4)"/><ellipse class="cls-11" cx="148.33" cy="300.46" rx="97.8" ry="12.28"/></g></g></g></svg>