<?xml version="1.0" encoding="utf-8"?>
<!-- Generator: Adobe Illustrator 22.0.1, SVG Export Plug-In . SVG Version: 6.00 Build 0)  -->
<svg version="1.1" id="Layer_1" xmlns="http://www.w3.org/2000/svg" xmlns:xlink="http://www.w3.org/1999/xlink" x="0px" y="0px"
	 viewBox="0 0 24 24" style="enable-background:new 0 0 24 24;" xml:space="preserve">
<style type="text/css">
	.st0{enable-background:new    ;}
</style>
<path id="path0_fill" class="st0" d="M22,10.9c0,1.2-0.2,2.2-0.6,3.2s-0.9,1.7-1.6,2.2s-1.4,0.8-2.3,0.8c-0.7,0-1.2-0.2-1.7-0.5
	c-0.5-0.3-0.8-0.8-1-1.4h-0.1c-0.4,0.6-0.9,1.1-1.5,1.4s-1.3,0.5-2,0.5c-1.3,0-2.4-0.4-3.2-1.3c-0.8-0.9-1.2-2-1.2-3.5
	c0-1.7,0.5-3,1.5-4.1c1-1,2.4-1.6,4.1-1.6c0.6,0,1.3,0.1,2.1,0.2s1.4,0.3,2,0.5L16.2,13v0.3c0,1.3,0.4,2,1.3,2
	c0.7,0,1.2-0.4,1.5-1.2c0.4-0.8,0.6-1.9,0.6-3.2c0-1.4-0.3-2.6-0.9-3.7s-1.4-1.9-2.5-2.4c-1.1-0.6-2.3-0.9-3.7-0.9
	c-1.8,0-3.3,0.4-4.6,1.1s-2.3,1.7-3,3.1c-0.7,1.3-1,2.9-1,4.6c0,2.4,0.6,4.2,1.9,5.4c1.3,1.3,3.1,1.9,5.5,1.9c1.8,0,3.7-0.4,5.7-1.1
	v2c-1.7,0.7-3.6,1-5.7,1c-3.1,0-5.4-0.8-7.1-2.4C2.9,17.9,2,15.7,2,12.8c0-2.1,0.5-4,1.4-5.7s2.2-2.9,3.8-3.8C8.9,2.4,10.7,2,12.8,2
	c1.8,0,3.4,0.4,4.8,1.1s2.5,1.8,3.3,3.1C21.6,7.6,22,9.1,22,10.9z M9.3,12.5c0,1.9,0.8,2.8,2.3,2.8c1.6,0,2.5-1.2,2.6-3.6l0.1-2.9
	c-0.5-0.1-1.1-0.2-1.7-0.2c-1.1,0-1.9,0.3-2.5,1C9.6,10.3,9.3,11.3,9.3,12.5z"/>
</svg>
