<svg width="24" height="24" viewBox="0 0 24 24" fill="none" xmlns="http://www.w3.org/2000/svg">
<path d="M15.5 0H4.5C2.016 0 0 2.016 0 4.5C0 6.984 2.016 9 4.5 9H15.5C17.984 9 20 6.984 20 4.5C20 2.016 17.984 0 15.5 0ZM4.5 7.2C3.006 7.2 1.8 5.994 1.8 4.5C1.8 3.006 3.006 1.8 4.5 1.8C5.994 1.8 7.2 3.006 7.2 4.5C7.2 5.994 5.994 7.2 4.5 7.2Z" transform="translate(2 13)" fill="#004E69"/>
<path d="M15.5 0L4.5 0C2.016 0 0 2.016 0 4.5C0 6.984 2.016 9 4.5 9H15.5C17.984 9 20 6.984 20 4.5C20 2.016 17.984 0 15.5 0ZM4.5 7.2C3.006 7.2 1.8 5.994 1.8 4.5C1.8 3.006 3.006 1.8 4.5 1.8C5.994 1.8 7.2 3.006 7.2 4.5C7.2 5.994 5.994 7.2 4.5 7.2Z" transform="translate(22 11) rotate(180)" fill="#004E69"/>
</svg>
