<?xml version="1.0" encoding="utf-8"?>
<!-- Generator: Adobe Illustrator 22.0.1, SVG Export Plug-In . SVG Version: 6.00 Build 0)  -->
<svg version="1.1" id="Layer_1" xmlns="http://www.w3.org/2000/svg" xmlns:xlink="http://www.w3.org/1999/xlink" x="0px" y="0px"
	 viewBox="0 0 24 24" style="enable-background:new 0 0 24 24;" xml:space="preserve">
<path d="M15,8c0,2.2-1.8,4-4,4s-4-1.8-4-4s1.8-4,4-4S15,5.8,15,8z"/>
<path d="M3,18c0-2.7,5.3-4,8-4c0.2,0,0.3,0,0.5,0c-0.3,0.8-0.5,1.6-0.5,2.5c0,1.3,0.4,2.5,1,3.5H3V18z"/>
<path d="M17.5,12C15,12,13,14,13,16.5s2,4.5,4.5,4.5c2.5,0,4.5-2,4.5-4.5S20,12,17.5,12z M20.6,14.7h-1.3c-0.1-0.6-0.4-1.1-0.6-1.6
	C19.5,13.4,20.2,14,20.6,14.7z M17.5,12.9c0.4,0.5,0.7,1.1,0.9,1.8h-1.7C16.8,14.1,17.1,13.5,17.5,12.9z M14,17.4
	c-0.1-0.3-0.1-0.6-0.1-0.9s0-0.6,0.1-0.9h1.5c0,0.3-0.1,0.6-0.1,0.9s0,0.6,0.1,0.9H14z M14.4,18.3h1.3c0.1,0.6,0.4,1.1,0.6,1.6
	C15.5,19.6,14.8,19,14.4,18.3z M15.7,14.7h-1.3c0.4-0.7,1.1-1.3,1.9-1.6C16.1,13.6,15.9,14.1,15.7,14.7z M17.5,20.1
	c-0.4-0.5-0.7-1.1-0.9-1.8h1.7C18.2,18.9,17.9,19.5,17.5,20.1z M18.6,17.4h-2.1c0-0.3-0.1-0.6-0.1-0.9s0-0.6,0.1-0.9h2.1
	c0,0.3,0.1,0.6,0.1,0.9S18.6,17.1,18.6,17.4z M18.7,19.9c0.3-0.5,0.5-1,0.6-1.6h1.3C20.2,19,19.5,19.6,18.7,19.9z M19.5,17.4
	c0-0.3,0.1-0.6,0.1-0.9s0-0.6-0.1-0.9H21c0.1,0.3,0.1,0.6,0.1,0.9s0,0.6-0.1,0.9H19.5z"/>
</svg>
