<svg width="32" height="33" viewBox="0 0 32 33" version="1.1" xmlns="http://www.w3.org/2000/svg" xmlns:xlink="http://www.w3.org/1999/xlink">
<g id="Canvas" fill="none">
<g id="thumb/documents/hover">
<g id="Group">
<g id="Vector">
<path d="M 2.66667 21.5999L 2.66667 0L 0 0L 0 21.5999C 0 23.0849 1.2 24.2999 2.66667 24.2999L 14.6667 24.2999L 18.6667 24.2999L 18.6667 21.5999L 2.66667 21.5999Z" transform="translate(5 5.70007)" fill="white"/>
</g>
<g id="path0 fill 1">
<path d="M 11.2 0L 2.8 0C 1.33333 0 0 1.215 0 2.83499L 0 18.8999C 0 20.3849 1.2 21.7349 2.8 21.7349L 13.8667 21.7349C 15.3333 21.7349 16.6667 20.5199 16.6667 18.8999L 16.6667 5.53498L 11.2 0Z" transform="translate(10.3334 3)" fill="white"/>
</g>
</g>
<g id="thumb/documents/default">
<g id="Group_2">
<g id="Vector_2">
<path d="M 2.66667 21.5999L 2.66667 0L 0 0L 0 21.5999C 0 23.0849 1.2 24.2999 2.66667 24.2999L 14.6667 24.2999L 18.6667 24.2999L 18.6667 21.5999L 2.66667 21.5999Z" transform="translate(5 5.70007)" fill="black" fill-opacity="0.54"/>
</g>
<g id="path0 fill 1_2">
<path d="M 7.06667 2.83499L 7.06667 7.01998C 7.06667 8.50497 8.26667 9.85497 9.86667 9.85497L 14 9.85497L 14 19.0349L 2.93333 19.0349L 2.93333 2.83499L 7.06667 2.83499ZM 11.2 0L 2.8 0C 1.33333 0 0 1.215 0 2.83499L 0 18.8999C 0 20.3849 1.2 21.7349 2.8 21.7349L 13.8667 21.7349C 15.3333 21.7349 16.6667 20.5199 16.6667 18.8999L 16.6667 5.53498L 11.2 0ZM 9.73333 7.01998L 9.73333 2.83499L 13.6666 7.01998L 9.73333 7.01998Z" transform="translate(10.3334 3)" fill="black" fill-opacity="0.54"/>
</g>
</g>
</g>
</g>
</g>
</svg>

